<svg width="20" height="23" viewBox="0 0 20 23" fill="none" xmlns="http://www.w3.org/2000/svg">
<g clip-path="url(#clip0_2070_2741)">
<path d="M10 9.10387C9.52907 9.10405 9.06877 9.24473 8.67729 9.50813C8.28581 9.77152 7.98074 10.1458 7.80065 10.5837C7.62055 11.0215 7.57353 11.5033 7.66551 11.968C7.75749 12.4328 7.98435 12.8596 8.31741 13.1946C8.65047 13.5297 9.07477 13.7578 9.53666 13.8502C9.99856 13.9425 10.4773 13.895 10.9124 13.7137C11.3474 13.5323 11.7193 13.2251 11.9809 12.8311C12.2425 12.4371 12.3821 11.9739 12.3821 11.5C12.3817 10.8645 12.1305 10.2552 11.6839 9.80589C11.2372 9.3566 10.6316 9.10411 10 9.10387ZM15.5674 7.26207C15.4462 6.95294 15.2631 6.67217 15.0296 6.43717C14.7961 6.20218 14.517 6.01798 14.2098 5.896C13.2723 5.52359 11.0402 5.60715 10 5.60715C8.95982 5.60715 6.72991 5.52045 5.78973 5.896C5.48252 6.01798 5.20349 6.20218 4.96996 6.43717C4.73642 6.67217 4.55337 6.95294 4.43214 7.26207C4.0625 8.20543 4.14509 10.4538 4.14509 11.4996C4.14509 12.5453 4.0625 14.791 4.43393 15.7375C4.55515 16.0466 4.73821 16.3274 4.97174 16.5624C5.20528 16.7974 5.4843 16.9816 5.79152 17.1036C6.72902 17.476 8.96116 17.3924 10.0018 17.3924C11.0424 17.3924 13.2714 17.4791 14.2116 17.1036C14.5188 16.9816 14.7978 16.7974 15.0314 16.5624C15.2649 16.3274 15.448 16.0466 15.5692 15.7375C15.942 14.7941 15.8563 12.5458 15.8563 11.5C15.8563 10.4542 15.942 8.20902 15.5692 7.26252L15.5674 7.26207ZM10 15.1836C9.27598 15.1836 8.56822 14.9676 7.96622 14.5628C7.36421 14.158 6.89501 13.5827 6.61794 12.9097C6.34087 12.2366 6.26838 11.4959 6.40963 10.7814C6.55087 10.0668 6.89952 9.41047 7.41148 8.89531C7.92344 8.38015 8.57572 8.02932 9.28583 7.88719C9.99594 7.74505 10.732 7.818 11.4009 8.0968C12.0698 8.37561 12.6415 8.84774 13.0438 9.4535C13.446 10.0593 13.6607 10.7715 13.6607 11.5C13.6613 11.9839 13.567 12.4632 13.3833 12.9103C13.1995 13.3575 12.9299 13.7638 12.5898 14.106C12.2498 14.4482 11.846 14.7195 11.4016 14.9044C10.9572 15.0893 10.4809 15.1842 10 15.1836ZM13.8116 8.52168C13.6426 8.52177 13.4773 8.47142 13.3368 8.37699C13.1962 8.28257 13.0866 8.14832 13.0219 7.99122C12.9571 7.83412 12.9401 7.66123 12.9731 7.49441C13.006 7.3276 13.0873 7.17435 13.2068 7.05406C13.3263 6.93377 13.4785 6.85184 13.6443 6.81862C13.8101 6.78541 13.9819 6.80241 14.138 6.86748C14.2942 6.93254 14.4277 7.04274 14.5216 7.18415C14.6155 7.32555 14.6656 7.4918 14.6656 7.66187C14.6661 7.77481 14.6444 7.88674 14.6018 7.99122C14.5592 8.0957 14.4965 8.19069 14.4173 8.27074C14.3381 8.35079 14.244 8.41432 14.1404 8.45769C14.0368 8.50106 13.9256 8.52342 13.8134 8.52348L13.8116 8.52168ZM17.8571 1.4375H2.14286C1.57454 1.4375 1.02949 1.66468 0.627628 2.06905C0.225765 2.47343 0 3.02188 0 3.59375L0 19.4062C0 19.9781 0.225765 20.5266 0.627628 20.9309C1.02949 21.3353 1.57454 21.5625 2.14286 21.5625H17.8571C18.4255 21.5625 18.9705 21.3353 19.3724 20.9309C19.7742 20.5266 20 19.9781 20 19.4062V3.59375C20 3.02188 19.7742 2.47343 19.3724 2.06905C18.9705 1.66468 18.4255 1.4375 17.8571 1.4375ZM17.0929 14.4648C17.0353 15.6162 16.7741 16.6364 15.9388 17.4746C15.1036 18.3129 14.0906 18.581 12.9478 18.6358C11.7688 18.7028 8.23393 18.7028 7.05491 18.6358C5.91071 18.5779 4.90045 18.3146 4.06384 17.4746C3.22723 16.6346 2.96429 15.6139 2.90982 14.4648C2.8433 13.278 2.8433 9.72064 2.90982 8.53516C2.96741 7.38381 3.22545 6.36363 4.06384 5.52539C4.90223 4.68715 5.91518 4.42211 7.05491 4.3673C8.23393 4.30037 11.7688 4.30037 12.9478 4.3673C14.092 4.42525 15.1054 4.6885 15.9388 5.52854C16.7723 6.36857 17.0384 7.3892 17.0929 8.54055C17.1594 9.72289 17.1594 13.2771 17.0929 14.4648Z" fill="url(#paint0_linear_2070_2741)"/>
</g>
<defs>
<linearGradient id="paint0_linear_2070_2741" x1="10" y1="1.4375" x2="10" y2="21.5625" gradientUnits="userSpaceOnUse">
<stop stop-color="#C0009E"/>
<stop offset="0.525" stop-color="#F20006"/>
<stop offset="1" stop-color="#FFD321"/>
</linearGradient>
<clipPath id="clip0_2070_2741">
<rect width="20" height="23" fill="white"/>
</clipPath>
</defs>
</svg>
