<svg width="20" height="23" viewBox="0 0 20 23" fill="none" xmlns="http://www.w3.org/2000/svg">
<path d="M18.5714 1.4375H1.42411C0.638393 1.4375 0 2.08887 0 2.88848V20.1115C0 20.9111 0.638393 21.5625 1.42411 21.5625H18.5714C19.3571 21.5625 20 20.9111 20 20.1115V2.88848C20 2.08887 19.3571 1.4375 18.5714 1.4375ZM6.04464 18.6875H3.08036V9.0832H6.04911V18.6875H6.04464ZM4.5625 7.77148C3.61161 7.77148 2.84375 6.99434 2.84375 6.04199C2.84375 5.08965 3.61161 4.3125 4.5625 4.3125C5.50893 4.3125 6.28125 5.08965 6.28125 6.04199C6.28125 6.99883 5.51339 7.77148 4.5625 7.77148ZM17.1562 18.6875H14.192V14.0156C14.192 12.9016 14.1696 11.4686 12.6518 11.4686C11.1071 11.4686 10.8705 12.6814 10.8705 13.9348V18.6875H7.90625V9.0832H10.75V10.3949H10.7902C11.1875 9.64023 12.1563 8.84512 13.5982 8.84512C16.5982 8.84512 17.1562 10.8352 17.1562 13.4227V18.6875Z" fill="#0077B7"/>
</svg>
