<svg width="20" height="23" viewBox="0 0 20 23" fill="none" xmlns="http://www.w3.org/2000/svg">
<path d="M20 3.59375V19.4062C20 20.5967 19.0402 21.5625 17.8571 21.5625H6.89286C7.33036 20.8258 7.89286 19.7656 8.11607 18.8986C8.25 18.382 8.79911 16.2752 8.79911 16.2752C9.15625 16.9625 10.2009 17.542 11.3125 17.542C14.6205 17.542 17 14.4828 17 10.6824C17 7.03926 14.0446 4.3125 10.2411 4.3125C5.50893 4.3125 3 7.50645 3 10.9879C3 12.6051 3.85714 14.6176 5.22321 15.26C5.43304 15.3588 5.54018 15.3139 5.58929 15.1117C5.625 14.959 5.8125 14.2088 5.89286 13.8629C5.91964 13.7506 5.90625 13.6563 5.81696 13.5484C5.36607 12.9959 5 11.9807 5 11.0328C5 8.59805 6.83036 6.24414 9.95089 6.24414C12.6429 6.24414 14.5313 8.09043 14.5313 10.7318C14.5313 13.7146 13.0357 15.7811 11.0848 15.7811C10.0089 15.7811 9.20536 14.8871 9.45982 13.7865C9.76786 12.4748 10.3661 11.0598 10.3661 10.1119C10.3661 7.73105 6.99554 8.05898 6.99554 11.235C6.99554 12.2098 7.32143 12.8746 7.32143 12.8746C5.91964 18.8402 5.70982 18.9166 6 21.5266L6.09821 21.5625H2.14286C0.959821 21.5625 0 20.5967 0 19.4062V3.59375C0 2.40332 0.959821 1.4375 2.14286 1.4375H17.8571C19.0402 1.4375 20 2.40332 20 3.59375Z" fill="#E6001D"/>
</svg>
