<svg width="104" height="113" viewBox="0 0 104 113" fill="none" xmlns="http://www.w3.org/2000/svg">
<rect width="104" height="113" fill="white"/>
<path d="M89.1429 7.0625H14.8571C6.6625 7.0625 0 13.3967 0 21.1875V91.8125C0 99.6033 6.6625 105.938 14.8571 105.938H31.7107L31.2 105.761C29.9464 95.1451 30.4804 93.0705 34.8446 76.0322C35.75 72.501 36.8179 68.3076 38.0714 63.2535C38.0714 63.2535 36.3768 59.9871 36.3768 55.1979C36.3768 39.5941 53.9036 37.983 53.9036 49.6803C53.9036 52.6598 52.65 56.5441 51.3036 60.6713C50.5375 63.0107 49.7714 65.4164 49.1911 67.7338C47.8679 73.141 52.0464 77.533 57.6411 77.533C67.7857 77.533 75.5625 67.3807 75.5625 52.726C75.5625 39.7486 65.7429 30.6777 51.7446 30.6777C35.5179 30.6777 26 42.2426 26 54.2047C26 58.8615 27.9036 63.8494 30.2482 66.5641C30.7125 67.0938 30.7821 67.5572 30.6429 68.109C30.3875 69.1463 29.9232 70.9561 29.5518 72.3465C29.3196 73.2293 29.1339 73.9576 29.0643 74.2445C28.8089 75.2377 28.2518 75.4584 27.1607 74.9729C20.0571 71.8168 15.6 61.9293 15.6 53.984C15.6 36.8795 28.6464 21.1875 53.2536 21.1875C73.0321 21.1875 88.4 34.5842 88.4 52.4832C88.4 71.1547 76.0268 86.1846 58.825 86.1846C53.0446 86.1846 47.6125 83.3375 45.7554 79.9607C45.7554 79.9607 42.9 90.3117 42.2036 92.8498C41.0429 97.1094 38.1179 102.318 35.8429 105.938H89.1429C97.3375 105.938 104 99.6033 104 91.8125V21.1875C104 13.3967 97.3375 7.0625 89.1429 7.0625Z" fill="#BD081C"/>
</svg>
