<svg width="153" height="153" viewBox="0 0 153 153" fill="none" xmlns="http://www.w3.org/2000/svg">
<g clip-path="url(#clip0_262_17844)">
<path fill-rule="evenodd" clip-rule="evenodd" d="M72.3796 0.994384C73.5224 0.608702 74.6348 -0.000269774 75.875 -0.000269774C77.8684 -0.016509 79.8597 0.0565676 81.8491 0.121525C83.2923 0.156033 84.6909 0.527506 86.1382 0.570134C86.8609 0.570134 87.5592 0.789363 88.2575 0.929427C83.0386 1.13242 77.9293 2.53508 73.1002 4.46349C67.4347 6.74916 62.1143 9.81635 57.0274 13.1738C51.66 16.7102 46.6454 20.7548 42.0528 25.2517C38.0782 29.1086 34.3554 33.2151 30.7218 37.3906C22.6266 46.6084 15.3311 56.5001 8.59588 66.741C5.58554 71.2941 2.80051 75.9912 0.202229 80.7899C-0.000761564 79.3142 0.0134478 77.8263 -0.000761571 76.3424C-0.0180243 75.9476 0.0680364 75.5551 0.248917 75.2036C2.97508 69.8691 6.13564 64.7638 9.43424 59.7764C13.2748 54.0175 17.3164 48.3886 21.6299 42.9708C25.6478 37.9447 29.8361 33.0628 34.195 28.325C37.9564 24.2652 41.9087 20.3719 46.1715 16.8459C50.8896 12.985 55.9131 9.51335 61.1927 6.46498C64.7743 4.35442 68.5145 2.52538 72.3796 0.994384ZM66.4502 0.588403C65.4352 0.63509 64.4934 1.01062 63.4886 1.05731C62.5528 1.09994 61.682 1.4775 60.7624 1.61959C58.9558 2.22857 57.2182 3.02835 55.4725 3.78753C53.9054 4.50409 52.3079 5.15366 50.8037 5.97374C47.8293 7.58973 44.9808 9.42724 42.2822 11.4707C37.6134 14.9419 33.448 19.026 29.4369 23.23C25.2411 27.6755 21.0818 32.1615 17.0748 36.7715C13.015 41.4869 9.13381 46.3343 5.23639 51.1838C4.51781 52.1236 3.61247 53.0107 3.38309 54.2185C3.29986 54.8376 2.94869 55.3776 2.86749 55.9967C2.7863 56.6158 2.46151 57.1598 2.39453 57.7789C2.30724 58.6254 1.83224 59.4029 1.88502 60.2635C6.19045 54.9046 10.7395 49.7507 15.1748 44.5013C19.0803 39.8853 23.1402 35.4114 27.2669 30.9984C31.2699 26.7519 35.2079 22.4221 39.5702 18.5368C44.0137 14.5744 48.8793 11.1074 53.9277 7.95696C56.0794 6.61113 58.3935 5.55558 60.6528 4.40665C63.2917 3.05271 65.9448 1.73936 68.5978 0.42804C67.8813 0.476758 67.1668 0.562014 66.4502 0.588403ZM106.052 5.96968C107.428 7.22213 108.285 8.93131 109.003 10.6243C110.901 15.2748 111.25 20.3678 111.185 25.3411C111.23 32.9471 110.229 40.5268 108.721 47.9725C107.73 52.8442 106.242 57.6105 104.533 62.2792C102.11 69.0492 99.3371 75.6891 96.2269 82.1723C93.1455 88.5482 89.989 94.8876 86.6863 101.152C83.7734 106.657 80.6981 112.073 77.5213 117.43C74.0359 123.302 70.508 129.152 66.7892 134.887C63.4277 140.061 59.92 145.138 56.5463 150.314C57.1147 150.499 57.6668 150.759 58.2677 150.826C58.9923 150.899 59.6663 151.199 60.3808 151.347C65.7316 144.254 70.7475 136.926 75.4285 129.366C78.5971 124.242 81.709 119.082 84.7153 113.861C88.1824 107.84 91.4559 101.714 94.536 95.4804C97.6437 89.2283 100.723 82.9579 103.447 76.5271C105.997 70.4577 108.376 64.3051 110.304 58.0043C111.697 53.437 112.663 48.7499 113.422 44.0406C114.248 38.8785 114.843 33.6698 114.943 28.4387C115.07 27.1944 115.024 25.9419 115.034 24.6915C114.969 19.7588 114.561 14.745 112.801 10.0884C112.586 9.61945 112.537 8.99018 112.009 8.76283C110.098 7.68466 108.108 6.751 106.058 5.96968H106.052ZM84.5103 7.52459C81.5077 7.93896 78.5587 8.67672 75.7147 9.725C70.8368 11.5252 66.1641 13.8387 61.7753 16.6267C53.6821 21.7217 46.616 28.2459 39.9051 35.0115C35.8063 39.1366 31.9588 43.504 28.3834 48.0902C21.5318 56.863 15.1849 66.0184 9.37334 75.5122C6.74867 79.7872 4.20317 84.1088 1.86269 88.5442C1.58053 89.1166 1.12381 89.6728 1.24154 90.3549C1.3471 91.5728 1.92562 92.7014 1.97434 93.9356C4.29655 89.6139 6.79942 85.3917 9.39567 81.2325C14.5394 72.9565 19.9512 64.843 25.7608 57.0198C28.9802 52.6697 32.2707 48.3622 35.8291 44.2801C39.1277 40.474 42.678 36.8993 46.2973 33.4018C49.9816 29.8941 53.7856 26.5001 57.8556 23.4553C62.0247 20.3016 66.5001 17.5746 71.2144 15.3154C75.9258 13.0825 80.9153 11.2332 86.1443 10.7724C88.4929 10.6506 90.8923 10.6283 93.1617 11.3327C95.8487 12.137 98.2679 13.6535 100.163 15.7213C102.014 17.735 103.114 20.3252 103.725 22.964C104.324 25.4507 104.383 28.0226 104.304 30.566C103.819 39.6823 101.224 48.5246 98.1776 57.0786C95.5083 64.5994 92.1772 71.8604 88.6107 79.0016C85.1131 86.019 81.506 92.9876 77.7304 99.8568C71.8782 110.465 65.9711 121.057 59.8205 131.499C56.5361 137.063 53.2781 142.645 49.9593 148.191C50.5465 148.522 51.1752 148.773 51.8288 148.938C52.2754 149.031 52.6895 149.427 53.1584 149.309C54.0617 148.073 54.8858 146.778 55.7404 145.505C59.0329 140.431 62.1265 135.242 65.2038 130.039C68.5126 124.419 71.7381 118.749 74.9474 113.063C78.1039 107.451 81.2604 101.836 84.2951 96.1563C87.5998 89.9475 90.78 83.6758 93.8356 77.3411C97.2874 70.2565 100.259 62.948 102.731 55.4648C105.497 47.0448 107.83 38.3325 107.927 29.4191C108.029 25.1563 107.255 20.8002 105.264 16.9961C103.055 12.7658 98.9997 9.65599 94.5055 8.19446C91.2922 7.14703 87.8413 7.12267 84.5184 7.52459H84.5103ZM119.435 13.2225C120.273 13.7909 121.138 14.3309 121.932 14.9703C122.297 15.1997 122.171 15.6726 122.23 16.038C122.636 21.1737 122.362 26.3377 121.791 31.4511C121.544 33.9722 121.262 36.4974 121.235 39.0328C123.304 34.9608 124.826 30.6432 126.426 26.3743C127.132 24.454 127.914 22.5662 128.604 20.6398C129.306 20.9362 129.722 21.6121 130.276 22.1074C130.548 22.3997 131.028 22.7002 130.912 23.167C129.601 27.4907 127.928 31.6926 126.144 35.8438C125.181 38.0665 124.296 40.3644 122.833 42.3172C122.34 42.985 121.684 43.5899 120.85 43.7726C119.975 43.9492 119.071 43.4275 118.669 42.6521C118.152 41.698 118.148 40.5796 118.123 39.526C118.036 34.6076 118.905 29.748 119.216 24.8539C119.486 20.9849 119.534 17.0996 119.435 13.2225ZM77.5863 20.5302C74.2207 21.2264 71.0175 22.5601 67.9889 24.1576C60.5269 28.1789 54.0597 33.8139 48.2826 39.9645C45.2742 43.2123 42.4527 46.6429 39.6778 50.1018C33.0765 58.3331 26.6661 66.7268 20.6495 75.3965C14.917 83.6501 9.46468 92.0945 4.16866 100.632C3.84388 101.008 4.21535 101.444 4.29046 101.832C4.4224 102.571 4.88319 103.19 5.07603 103.911C5.88799 102.638 6.75476 101.4 7.58905 100.141C13.5448 91.3434 19.4193 82.4809 25.6735 73.8944C31.3572 66.0488 37.3069 58.4102 43.3966 50.8834C46.2181 47.4325 49.0905 43.9939 52.2165 40.8008C55.8006 37.0728 59.7139 33.6758 63.9088 30.6513C67.7067 27.9779 71.797 25.6151 76.2648 24.2591C78.7839 23.5426 81.4593 23.0412 84.0698 23.5202C85.5151 23.778 86.936 24.4032 87.955 25.4832C89.3475 26.9041 90.1169 28.8366 90.5513 30.7609C91.2435 33.8991 90.7948 37.149 90.0803 40.2426C89.1669 44.0608 87.8596 47.7715 86.5199 51.4578C84.7755 56.2037 82.8755 60.8881 80.8199 65.5108C77.775 72.3963 74.3952 79.1234 71.0033 85.8403C67.3494 93.0628 63.858 100.362 60.1291 107.542C53.7795 119.793 47.296 131.974 40.8287 144.166C41.6955 144.775 42.7328 145.061 43.6199 145.633C48.6561 137.134 53.3289 128.428 57.9591 119.703C61.6637 112.763 65.3114 105.794 68.8008 98.7445C71.9898 92.2264 75.26 85.7531 78.4652 79.2432C82.0541 71.9355 85.4481 64.5223 88.3894 56.9264C90.0133 52.7021 91.5926 48.4495 92.8552 44.0974C93.9798 40.135 94.8141 35.9778 94.2924 31.8631C93.8864 29.068 92.9486 26.285 91.1968 24.0399C89.8471 22.3245 87.975 21.0959 85.8642 20.5403C83.1685 19.7832 80.3023 19.9537 77.5903 20.5221L77.5863 20.5302ZM134.596 26.8818C135.355 27.6054 136.031 28.4108 136.612 29.2831C136.24 30.5376 135.625 31.719 135.152 32.937C129.893 45.3925 124.25 57.7018 119.404 70.3217C117.027 76.5271 114.865 82.8198 113.367 89.279C111.595 96.7633 111.151 104.518 111.632 112.178C112.063 119.057 113.363 125.853 115.501 132.404C116.368 135.133 117.372 137.812 118.418 140.479C117.152 141.342 115.839 142.133 114.486 142.85C111.699 136.221 109.517 129.313 108.303 122.218C106.967 114.343 106.685 106.325 107.464 98.375C108.254 90.5984 110.377 83.0249 113.01 75.6888C115.107 69.9279 117.506 64.2828 119.942 58.6579C124.611 47.9664 129.668 37.4474 134.598 26.8736L134.596 26.8818ZM68.8272 36.8669C65.0841 38.8968 61.753 41.5864 58.5376 44.3532C51.0493 50.93 44.2816 58.3087 38.1614 66.1746C32.8208 73.0621 27.9429 80.2967 23.3533 87.7038C18.3029 95.8681 13.6463 104.268 9.03637 112.688C9.62099 113.81 10.3477 114.854 10.914 115.991C11.5433 115.079 12.0427 114.086 12.607 113.149C15.0266 108.939 17.4239 104.716 19.8659 100.521C25.2594 91.244 30.9533 82.1276 37.2602 73.4417C43.0374 65.422 49.4743 57.8988 56.5037 50.9503C59.853 47.7126 63.2734 44.5176 67.0714 41.8036C68.8414 40.5653 70.6907 39.39 72.7551 38.6917C73.7822 38.3609 74.923 38.1031 75.9806 38.4522C76.8129 38.7567 77.1803 39.6702 77.296 40.4923C77.5518 41.7305 77.3549 42.9972 77.2148 44.2354C76.6058 48.0922 75.331 51.813 73.8614 55.4202C70.9688 62.3462 67.386 68.9536 63.8235 75.5508C56.3656 89.2201 48.2683 102.526 40.3619 115.946C36.4137 122.645 32.3965 129.286 28.1276 135.78C29.1426 136.627 30.1799 137.441 31.2415 138.216C34.7451 133.141 38.0051 127.918 41.188 122.643C45.0449 116.214 48.8387 109.761 52.6529 103.314C56.7371 96.3938 60.7847 89.4515 64.6964 82.4301C68.608 75.4087 72.3796 68.3304 75.7147 61.0268C77.5842 56.8736 79.2609 52.6088 80.2881 48.1613C80.7123 46.2328 81.0797 44.272 81.0351 42.2908C81.1041 40.8415 80.8352 39.396 80.2495 38.0686C79.9634 37.4389 79.5557 36.872 79.0499 36.4003C78.5441 35.9287 77.9501 35.5616 77.3021 35.3201C76.2262 34.8979 75.0448 34.9425 73.9182 35.0379C72.1177 35.2896 70.4227 36.0184 68.8252 36.8648L68.8272 36.8669ZM137.655 46.0644C135.568 48.6748 133.608 51.3807 131.716 54.1353C129.825 56.8617 128.085 59.6888 126.501 62.604C123.23 68.6868 120.815 75.1917 119.323 81.9348C117.699 89.5185 117.259 97.2971 117.368 105.033C117.405 108.842 117.663 112.646 118.14 116.425C118.988 123.497 120.533 130.498 122.961 137.201C124.022 136.504 125.013 135.706 125.922 134.82C125.87 134.617 125.827 134.414 125.78 134.211C123.672 126.867 122.286 119.335 121.641 111.722C121.304 107.384 121.355 103.026 121.42 98.6754C121.53 94.1488 121.957 89.6354 122.699 85.1684C123.793 78.6728 125.88 72.3476 128.683 66.3837C131.618 60.1133 135.603 54.4215 139.535 48.7479C141.147 46.3831 142.852 44.0791 144.569 41.7914C144.194 40.8556 143.678 39.9848 143.215 39.0916C141.329 41.3875 139.525 43.7482 137.661 46.0603L137.655 46.0644ZM144.354 49.1782C141.488 54.0257 138.95 59.0558 136.453 64.1001C133.567 70.0517 130.829 76.1212 128.898 82.4707C127.719 86.5385 126.934 90.7102 126.554 94.9282C125.723 103.155 126.257 111.474 127.648 119.612C128.33 123.329 129.128 127.058 130.601 130.553C131.706 129.386 132.901 128.286 133.861 126.997C133.792 125.894 133.47 124.829 133.287 123.749C132.412 119.557 131.675 115.329 131.296 111.058C130.484 103.001 130.687 94.7922 132.363 86.8533C133.758 80.5362 136.285 74.546 138.895 68.6531C141.774 62.3746 144.762 56.1388 148.097 50.0897C148.156 49.4807 147.841 48.9631 147.588 48.4515C147.278 47.5563 146.913 46.6811 146.495 45.8309C145.667 46.8641 145.062 48.0638 144.356 49.1742L144.354 49.1782ZM58.3793 57.4156C57.2974 57.7302 56.3352 58.3473 55.438 59.0091C53.611 60.3732 51.9607 61.9342 50.3287 63.5134C46.8667 66.9809 43.677 70.71 40.7881 74.6677C37.7839 78.7621 34.9623 82.9904 32.1245 87.1923C29.4329 91.2074 26.8468 95.2977 24.2769 99.3859C21.9628 103.058 19.6365 106.722 17.4199 110.451C15.796 113.214 14.1396 115.962 12.8039 118.871C13.2809 119.695 13.8878 120.481 14.4481 121.268C16.955 116.802 19.6507 112.434 22.4175 108.121C27.0538 100.981 31.6211 93.7976 36.4239 86.7721C39.2048 82.7265 41.9492 78.6525 44.9494 74.7632C48.1158 70.6379 51.6259 66.7883 55.442 63.2556C56.4326 62.3889 57.4049 61.4673 58.5823 60.8522C58.4605 62.1331 57.955 63.3328 57.5206 64.5304C55.5415 69.5361 53.0731 74.3267 50.619 79.1132C49.129 82.0221 47.6208 84.9228 46.1268 87.8297C42.3228 95.1759 38.5898 102.565 34.4366 109.724C32.1732 113.674 29.7982 117.558 27.4923 121.485C25.7648 124.492 24.0414 127.494 22.18 130.417C22.8418 131.044 23.4832 131.7 24.1673 132.307C26.8204 128.401 29.5729 124.561 32.1265 120.588C36.3569 114.06 40.3213 107.357 43.9589 100.48C47.6228 93.556 51.1691 86.5671 54.6747 79.5598C56.7513 75.3498 58.8766 71.1601 60.6061 66.7917C61.345 64.8795 62.0798 62.9227 62.23 60.8583C62.2686 59.7033 61.9215 58.4042 60.9065 57.7383C60.1778 57.2187 59.2217 57.2309 58.3854 57.4054L58.3793 57.4156ZM146.12 69.8691C144.648 73.0885 143.201 76.3242 141.892 79.6126C139.419 85.8079 137.493 92.2569 136.665 98.8967C135.67 106.594 136.303 114.436 137.948 122.001C138.487 121.276 138.975 120.517 139.537 119.809C140.134 119.029 140.586 118.154 141.139 117.347C141.425 116.859 141.855 116.396 141.79 115.792C141.453 112.921 141.157 110.041 141.122 107.15C140.95 99.2824 142.572 91.4632 145.168 84.0662C147.242 78.1795 149.725 72.4653 152.175 66.7389C152.25 66.1929 152.132 65.6387 152.114 65.0927C152.063 64.2097 151.708 63.3795 151.655 62.4985C151.601 61.583 151.231 60.7284 151.085 59.8291C149.285 63.1013 147.679 66.4771 146.12 69.8731V69.8691ZM149.368 82.5417C150.417 80.3089 151.495 78.076 152.953 76.0785C153.064 77.1463 152.879 78.2099 152.871 79.2817C152.871 80.7027 152.612 82.1013 152.614 83.5242C152.654 84.8843 151.927 86.0799 151.53 87.3364C149.967 91.8999 148.854 96.6053 148.207 101.385C148.085 102.165 148.034 102.961 147.886 103.74C147.257 105.496 146.512 107.211 145.748 108.914C145.472 109.454 145.257 110.027 144.896 110.522C144.557 108.227 144.481 105.902 144.669 103.59C144.84 99.933 145.336 96.2986 146.152 92.7298C146.928 89.2526 147.882 85.7916 149.368 82.5417ZM37.5809 89.0374C37.7714 88.9413 37.982 88.8913 38.1954 88.8915C38.4089 88.8918 38.6193 88.9422 38.8096 89.0389C38.9999 89.1355 39.1648 89.2756 39.2909 89.4478C39.4171 89.62 39.5009 89.8195 39.5357 90.0301C39.6676 91.2906 39.1439 92.5025 38.7664 93.6839C36.0422 101.022 32.0717 107.788 28.2332 114.582C25.5192 119.179 23.0427 123.909 20.3795 128.535C19.8801 128.048 19.4376 127.506 18.9748 126.987C20.7164 123.296 22.6672 119.707 24.4961 116.058C26.3251 112.408 28.219 108.839 30.1596 105.273C31.9743 101.974 33.7626 98.6511 35.283 95.2023C32.7436 98.6876 30.9187 102.62 28.8219 106.367C25.9962 111.352 23.4101 116.476 20.2963 121.291C19.3889 122.663 18.5952 124.116 17.6127 125.442C17.2575 124.888 16.7723 124.427 16.4252 123.879C16.4252 123.513 16.6993 123.213 16.8312 122.892C18.0755 120.58 19.4823 118.361 20.753 116.064C22.4804 112.948 24.1592 109.807 25.911 106.708C27.8556 103.271 29.5648 99.7046 31.7185 96.3898C32.9227 94.4823 34.2447 92.6518 35.6768 90.909C36.2655 90.2452 36.8136 89.5023 37.587 89.0456L37.5809 89.0374ZM96.9069 103.407C97.4378 103.121 98.0506 103.026 98.6434 103.136C99.2362 103.247 99.7732 103.558 100.165 104.016C101.383 105.419 101.675 107.347 101.961 109.123C102.467 113.11 102.623 117.133 103.252 121.1C103.734 124.46 104.462 127.78 105.432 131.032C106.541 134.72 107.915 138.324 109.375 141.886C109.781 142.921 110.266 143.93 110.593 144.996C109.328 145.552 108.114 146.226 106.823 146.727C105.457 143.867 104.245 140.936 103.191 137.946C101.943 134.584 100.908 131.147 100.092 127.654C99.2304 123.688 98.6612 119.663 98.3887 115.613C98.1025 112.791 98.1269 109.943 97.731 107.134C95.5808 109.709 93.7241 112.515 92.1955 115.501C90.6588 118.406 89.1608 121.335 87.5084 124.177C84.4027 129.504 81.2056 134.798 77.4807 139.72C74.2735 143.954 71.1535 148.26 67.8265 152.401C66.773 152.604 65.687 152.277 64.6436 152.096C65.3297 150.927 66.1843 149.864 66.9536 148.747C69.2596 145.511 71.5189 142.251 73.8553 139.024C77.3609 134.235 80.4647 129.169 83.4831 124.061C85.446 120.747 87.1654 117.3 88.9761 113.912C90.4723 111.107 92.24 108.455 94.2538 105.995C95.0536 105.064 95.8209 104.038 96.917 103.438L96.9069 103.407ZM89.0857 127.36C89.8834 126.538 90.9816 125.898 92.163 125.976C93.4134 126.069 94.4954 126.889 95.1936 127.892C96.3669 129.552 96.9069 131.546 97.4367 133.482C98.2872 136.758 99.1378 140.037 100.252 143.226C100.837 145.034 101.61 146.782 102.079 148.627C100.861 149.013 99.6432 149.423 98.4253 149.805C96.034 145.012 94.7592 139.777 93.4804 134.607C93.0744 133.099 92.7334 131.531 91.9174 130.18C91.9022 130.122 91.8697 130.07 91.8243 130.031C91.7788 129.992 91.7226 129.968 91.663 129.961C91.6035 129.955 91.5434 129.967 91.491 129.996C91.4385 130.025 91.396 130.069 91.3693 130.123C90.4457 131.215 89.8164 132.512 89.1039 133.742C87.2263 137.1 85.3892 140.485 83.274 143.701C81.2049 146.8 79.1182 149.888 77.0138 152.965C76.0273 153.002 75.0387 152.965 74.0563 152.927C75.6335 149.523 77.6735 146.362 79.6649 143.183C81.2076 140.792 82.6515 138.331 83.9967 135.8C84.9061 134.103 85.7932 132.39 86.7492 130.726C87.4293 129.544 88.1519 128.369 89.0958 127.374L89.0857 127.36ZM86.7492 143.92C87.409 143.08 88.4544 142.465 89.5546 142.564C90.8375 142.609 91.8605 143.532 92.638 144.472C94.0589 146.267 95.1104 148.309 96.0523 150.381C95.3012 150.818 94.4162 150.787 93.6164 151.055C93.249 151.163 92.8775 151.258 92.5081 151.339C91.345 149.807 90.6203 147.98 89.4003 146.486C88.3001 148.424 87.2851 150.416 86.2702 152.413C85.0908 152.444 83.9419 152.716 82.7645 152.756C83.1543 150.901 84.0008 149.192 84.7843 147.478C85.3709 146.26 85.9028 144.994 86.7492 143.92Z" fill="#FFE7BB"/>
</g>
<defs>
<clipPath id="clip0_262_17844">
<rect width="153" height="153" fill="white"/>
</clipPath>
</defs>
</svg>
