<svg width="146" height="34" viewBox="0 0 146 34" fill="none" xmlns="http://www.w3.org/2000/svg">
<g clip-path="url(#clip0_1129_297)">
<path d="M38.7327 10.7195L40.9683 4.32009L43.2039 10.7195H38.7327ZM42.0537 1.94727H39.8667L35.0391 15.2495H37.1613L38.1171 12.5171H43.8033L44.7591 15.2495H46.8813L42.0537 1.94727Z" fill="#3E55F6"/>
<path d="M61.9644 8.38364C61.9644 6.60906 60.5721 5.51562 59.0488 5.51562C57.9677 5.51562 56.772 6.30433 55.9366 7.00341C55.4124 6.01753 54.3477 5.51562 53.3321 5.51562C52.3002 5.51562 51.2027 6.17885 50.4001 6.84208L50.0561 5.67695H48.5V15.249H50.5311V8.56289C51.0553 8.16854 51.9234 7.46946 52.5623 7.46946C53.4796 7.46946 54.2167 7.98929 54.2167 9.0648V15.249H56.2478V8.68837C56.6245 8.16854 57.6892 7.46946 58.2789 7.46946C59.2126 7.46946 59.9333 7.97136 59.9333 9.0648V15.249H61.9644V8.38364Z" fill="#3E55F6"/>
<path d="M70.6577 10.5041C70.6577 12.1759 70.0275 13.65 68.363 13.65C67.6843 13.65 66.844 13.1826 66.246 12.8411V8.54466C66.844 8.02334 67.6358 7.37619 68.4276 7.37619C70.0275 7.37619 70.6577 8.94015 70.6577 10.5041ZM72.6777 10.4682C72.6777 7.91548 71.6112 5.50663 69.0579 5.50663C67.9752 5.50663 67.0379 6.08187 66.246 6.83689V1.94727H64.2422V15.2499H65.7128L66.0198 14.3151C66.9086 14.8185 67.959 15.4117 68.9609 15.4117C71.5465 15.4117 72.6777 13.0568 72.6777 10.4682Z" fill="#3E55F6"/>
<path d="M76.8572 5.67671H74.8142V15.2494H76.8572V5.67671ZM76.8901 2.10938H74.7812V4.04542H76.8901V2.10938Z" fill="#3E55F6"/>
<path d="M84.1934 5.6969H81.9681V2.75781H79.9392V5.6969H78.5156V7.2202H79.9392V13.3672C79.9392 14.8547 81.1827 15.2489 82.3117 15.2489C82.8844 15.2489 83.4735 15.231 84.0298 15.1235V13.7256C83.768 13.7435 83.5225 13.7615 83.2607 13.7615C82.7044 13.7615 81.9681 13.7256 81.9681 12.9192V7.2202H84.1934V5.6969Z" fill="#3E55F6"/>
<path d="M88.2166 5.67671H86.1736V15.2494H88.2166V5.67671ZM88.2495 2.10938H86.1406V4.04542H88.2495V2.10938Z" fill="#3E55F6"/>
<path d="M97.3493 10.6345C97.3493 12.3702 96.5382 13.9091 94.8186 13.9091C93.0829 13.9091 92.2718 12.3881 92.2718 10.6345C92.2718 8.88082 93.0829 7.39559 94.8186 7.39559C96.5382 7.39559 97.3493 8.88082 97.3493 10.6345ZM99.442 10.6166C99.442 7.48506 97.6089 5.67773 94.8186 5.67773C92.0284 5.67773 90.1953 7.46717 90.1953 10.6166C90.1953 13.7302 92.0446 15.5733 94.8186 15.5733C97.5764 15.5733 99.442 13.7123 99.442 10.6166Z" fill="#3E55F6"/>
<path d="M109.502 8.38364C109.502 6.60906 108.142 5.51562 106.62 5.51562C105.487 5.51562 104.208 6.39395 103.35 7.16473C103.35 7.05718 102.993 5.87413 102.929 5.67695H101.391V15.249H103.398V8.93932C103.965 8.43742 105.13 7.46946 105.859 7.46946C106.782 7.46946 107.494 7.98929 107.494 9.0648V15.249H109.502V8.38364Z" fill="#3E55F6"/>
<path d="M119.546 11.5105C119.546 12.9486 118.419 13.362 117.325 13.362H113.896V9.42527H117.195C118.517 9.42527 119.546 9.8567 119.546 11.5105ZM119.252 5.8121C119.252 7.2322 118.109 7.69958 117.015 7.69958H113.896V3.81677H116.966C118.207 3.81677 119.252 4.24819 119.252 5.8121ZM121.669 11.6543C121.669 9.96455 120.787 8.92194 119.367 8.43659C120.559 7.96922 121.375 7.05244 121.375 5.59639C121.375 2.86404 119.399 1.94727 117.244 1.94727H111.773V15.2495H117.587C119.644 15.2495 121.669 14.2428 121.669 11.6543Z" fill="#3E55F6"/>
<path d="M130.443 10.6345C130.443 12.3702 129.632 13.9091 127.912 13.9091C126.177 13.9091 125.366 12.3881 125.366 10.6345C125.366 8.88082 126.177 7.39559 127.912 7.39559C129.632 7.39559 130.443 8.88082 130.443 10.6345ZM132.536 10.6166C132.536 7.48506 130.703 5.67773 127.912 5.67773C125.122 5.67773 123.289 7.46717 123.289 10.6166C123.289 13.7302 125.138 15.5733 127.912 15.5733C130.67 15.5733 132.536 13.7123 132.536 10.6166Z" fill="#3E55F6"/>
<path d="M138.744 10.3557L141.907 5.67773H139.75L137.592 9.06526L135.386 5.67773H133.245L136.473 10.4274L133.18 15.2488H135.321L137.641 11.7717L139.961 15.2488H142.102L138.744 10.3557Z" fill="#3E55F6"/>
<path d="M58.4095 21.6152H57.4654C57.3982 21.6152 57.3438 21.6697 57.3438 21.7369V33.6829C57.3438 33.7501 57.3982 33.8046 57.4654 33.8046H58.4095C58.4767 33.8046 58.5312 33.7501 58.5312 33.6829V21.7369C58.5312 21.6697 58.4767 21.6152 58.4095 21.6152Z" fill="#E2E2E2"/>
<path d="M34.686 28.8165L37.7236 24.9422V28.8165H34.686ZM40.337 28.8165H39.2137V23.5781H37.3109L33.2188 28.8165V30.0087H37.7236V32.0605H39.2137V30.0087H40.337V28.8165Z" fill="#585858"/>
<path d="M43.0161 30.6855H41.6406V32.0611H43.0161V30.6855Z" fill="#585858"/>
<path d="M49.2125 29.2981C49.2125 30.3068 48.3184 30.9488 47.367 30.9488C46.4041 30.9488 45.4069 30.1349 45.4069 29.1377C45.4069 28.255 46.599 27.7048 47.3555 27.7048C48.3528 27.7048 49.2125 28.2206 49.2125 29.2981ZM50.6797 29.4815C50.6797 27.6017 49.4532 26.6732 47.6536 26.6732C46.7939 26.6732 45.8654 27.0056 45.2235 27.5902C45.2235 26.2262 45.7393 24.6672 47.3785 24.6672C48.0433 24.6672 48.6967 24.8392 49.1208 25.3779L50.1524 24.7704C49.499 23.8649 48.4674 23.498 47.3785 23.498C44.6962 23.498 43.6875 25.3894 43.6875 27.8424C43.6875 30.2839 44.6847 32.1982 47.367 32.1982C48.9259 32.1982 50.6797 31.2124 50.6797 29.4815Z" fill="#585858"/>
<path d="M138.72 21.291H130.032C129.065 21.291 128.281 22.0747 128.281 23.0414V31.73C128.281 32.6967 129.065 33.4804 130.032 33.4804H138.72C139.687 33.4804 140.471 32.6967 140.471 31.73V23.0414C140.471 22.0747 139.687 21.291 138.72 21.291Z" fill="#E2E2E2"/>
<path d="M138.759 21.252H130.071C129.104 21.252 128.32 22.0356 128.32 23.0023V31.691C128.32 32.6577 129.104 33.4413 130.071 33.4413H138.759C139.726 33.4413 140.51 32.6577 140.51 31.691V23.0023C140.51 22.0356 139.726 21.252 138.759 21.252Z" fill="#3E55F6"/>
<path fill-rule="evenodd" clip-rule="evenodd" d="M134.512 23.1206L135.81 25.7438C135.831 25.7883 135.873 25.8194 135.922 25.8265L138.817 26.2467C138.873 26.2548 138.92 26.2942 138.938 26.3483C138.955 26.4023 138.941 26.4617 138.9 26.5013L136.802 28.5518C136.767 28.5863 136.751 28.636 136.759 28.6849L137.253 31.5675C137.265 31.6241 137.243 31.6823 137.197 31.717C137.151 31.7517 137.089 31.7567 137.038 31.7298L134.442 30.3687C134.398 30.3459 134.346 30.3459 134.303 30.3687L131.707 31.7298C131.656 31.7577 131.593 31.7532 131.546 31.7183C131.5 31.6835 131.477 31.6246 131.49 31.5675L131.976 28.6849C131.985 28.6363 131.969 28.5865 131.934 28.5518L129.858 26.5013C129.817 26.4617 129.802 26.4023 129.82 26.3483C129.837 26.2942 129.884 26.2548 129.94 26.2467L132.836 25.8265C132.885 25.8194 132.927 25.7883 132.948 25.7438L134.246 23.1206C134.271 23.0706 134.323 23.0391 134.379 23.0391C134.435 23.0391 134.486 23.0706 134.512 23.1206Z" fill="white"/>
<path d="M122.736 21.291H114.047C113.081 21.291 112.297 22.0747 112.297 23.0414V31.73C112.297 32.6967 113.081 33.4804 114.047 33.4804H122.736C123.703 33.4804 124.486 32.6967 124.486 31.73V23.0414C124.486 22.0747 123.703 21.291 122.736 21.291Z" fill="#3E55F6"/>
<path fill-rule="evenodd" clip-rule="evenodd" d="M118.526 23.1216L119.823 25.7447C119.844 25.7893 119.886 25.8203 119.935 25.8275L122.831 26.2476C122.887 26.2557 122.934 26.2951 122.952 26.3492C122.969 26.4033 122.954 26.4626 122.914 26.5023L120.816 28.5528C120.783 28.5885 120.767 28.6374 120.774 28.6858L121.261 31.5685C121.273 31.6255 121.251 31.6844 121.204 31.7193C121.157 31.7542 121.094 31.7586 121.043 31.7307L118.448 30.3697C118.404 30.3469 118.352 30.3469 118.308 30.3697L115.713 31.7307C115.661 31.7586 115.599 31.7542 115.552 31.7193C115.505 31.6844 115.483 31.6255 115.495 31.5685L115.982 28.6858C115.989 28.6374 115.973 28.5885 115.94 28.5528L113.881 26.5023C113.84 26.4626 113.826 26.4033 113.843 26.3492C113.861 26.2951 113.908 26.2557 113.964 26.2476L116.86 25.8275C116.908 25.8203 116.95 25.7893 116.971 25.7447L118.269 23.1216C118.296 23.0765 118.345 23.0488 118.397 23.0488C118.45 23.0488 118.499 23.0765 118.526 23.1216Z" fill="white"/>
<path d="M106.744 21.291H98.0551C97.0884 21.291 96.3047 22.0747 96.3047 23.0414V31.73C96.3047 32.6967 97.0884 33.4804 98.0551 33.4804H106.744C107.71 33.4804 108.494 32.6967 108.494 31.73V23.0414C108.494 22.0747 107.71 21.291 106.744 21.291Z" fill="#3E55F6"/>
<path fill-rule="evenodd" clip-rule="evenodd" d="M102.541 23.121L103.839 25.7442C103.863 25.7875 103.904 25.818 103.953 25.8269L106.848 26.247C106.905 26.2552 106.952 26.2946 106.969 26.3486C106.987 26.4027 106.972 26.4621 106.931 26.5017L104.832 28.5522C104.796 28.5864 104.78 28.6366 104.79 28.6852L105.277 31.5679C105.288 31.6245 105.266 31.6827 105.22 31.7174C105.174 31.7521 105.112 31.7571 105.061 31.7302L102.465 30.3691C102.422 30.3463 102.37 30.3463 102.327 30.3691L99.7318 31.7302C99.6807 31.7571 99.6186 31.7521 99.5725 31.7174C99.5263 31.6827 99.5043 31.6245 99.516 31.5679L100.011 28.6852C100.019 28.6364 100.003 28.5867 99.967 28.5522L97.8889 26.5017C97.8482 26.4621 97.8335 26.4027 97.8511 26.3486C97.8686 26.2946 97.9154 26.2552 97.9717 26.247L100.867 25.8269C100.916 25.8192 100.958 25.7883 100.979 25.7442L102.277 23.121C102.303 23.0718 102.354 23.041 102.409 23.041C102.465 23.041 102.516 23.0718 102.541 23.121Z" fill="white"/>
<path d="M90.7593 21.291H82.0707C81.104 21.291 80.3203 22.0747 80.3203 23.0414V31.73C80.3203 32.6967 81.104 33.4804 82.0707 33.4804H90.7593C91.726 33.4804 92.5097 32.6967 92.5097 31.73V23.0414C92.5097 22.0747 91.726 21.291 90.7593 21.291Z" fill="#3E55F6"/>
<path fill-rule="evenodd" clip-rule="evenodd" d="M86.5469 23.1208L87.8447 25.744C87.8659 25.7885 87.9079 25.8195 87.9566 25.8267L90.8523 26.2468C90.9086 26.255 90.9554 26.2944 90.9729 26.3484C90.9905 26.4025 90.9758 26.4619 90.935 26.5015L88.8375 28.552C88.802 28.5865 88.7856 28.6362 88.7937 28.685L89.2885 31.5677C89.3002 31.6243 89.2782 31.6825 89.232 31.7172C89.1859 31.7519 89.1238 31.7569 89.0727 31.73L86.4772 30.3689C86.4335 30.3461 86.3814 30.3461 86.3377 30.3689L83.7421 31.73C83.6909 31.7579 83.6282 31.7534 83.5814 31.7185C83.5347 31.6836 83.5125 31.6248 83.5247 31.5677L84.0114 28.685C84.0202 28.6365 84.0044 28.5867 83.9692 28.552L81.8733 26.5096C81.8326 26.47 81.8179 26.4106 81.8354 26.3566C81.853 26.3025 81.8998 26.2631 81.956 26.255L84.8517 25.8348C84.9002 25.8259 84.9419 25.7955 84.9653 25.7521L86.263 23.1289C86.2812 23.0668 86.3373 23.0235 86.402 23.0215C86.4667 23.0198 86.5253 23.0598 86.5469 23.1208Z" fill="white"/>
<path d="M74.7749 21.291H66.0863C65.1196 21.291 64.3359 22.0747 64.3359 23.0414V31.73C64.3359 32.6967 65.1196 33.4804 66.0863 33.4804H74.7749C75.7416 33.4804 76.5253 32.6967 76.5253 31.73V23.0414C76.5253 22.0747 75.7416 21.291 74.7749 21.291Z" fill="#3E55F6"/>
<path fill-rule="evenodd" clip-rule="evenodd" d="M70.5671 23.1211L71.8649 25.7442C71.8861 25.7888 71.928 25.8198 71.9768 25.8269L74.8725 26.2471C74.9288 26.2552 74.9755 26.2946 74.9931 26.3487C75.0107 26.4028 74.996 26.4621 74.9552 26.5018L72.8528 28.5523C72.8194 28.588 72.8039 28.6369 72.8107 28.6853L73.3054 31.568C73.3176 31.625 73.2955 31.6839 73.2487 31.7188C73.202 31.7537 73.1393 31.7581 73.0881 31.7302L70.4925 30.3692C70.4488 30.3464 70.3967 30.3464 70.353 30.3692L67.7574 31.7302C67.7062 31.7581 67.6435 31.7537 67.5967 31.7188C67.55 31.6839 67.5279 31.625 67.5401 31.568L68.0348 28.6853C68.0415 28.6369 68.026 28.588 67.9927 28.5523L65.8967 26.5099C65.856 26.4703 65.8413 26.4109 65.8589 26.3568C65.8764 26.3027 65.9232 26.2633 65.9795 26.2552L68.8751 25.8351C68.9239 25.8279 68.9659 25.7969 68.9871 25.7523L70.2849 23.1292C70.3053 23.0698 70.3604 23.0293 70.4232 23.0274C70.486 23.0257 70.5433 23.063 70.5671 23.1211Z" fill="white"/>
<path d="M3.34362 15.0363C3.01918 15.3802 2.58604 15.5229 2.19671 15.7614C1.89011 15.9447 1.60622 16.1734 1.22338 16.2124C0.5242 16.2838 0.000109123 15.8571 0.000109123 15.1612C0.000109123 13.0247 0.000109123 10.8882 0.000109123 8.75015C-0.00591187 8.30425 0.237629 7.89229 0.631267 7.68273C1.57216 7.12036 2.51791 6.56556 3.46853 6.01833C5.43034 4.88494 7.39377 3.75425 9.35882 2.62626C10.7831 1.81515 12.1782 0.95213 13.6318 0.19293C14.067 -0.06431 14.6078 -0.06431 15.0431 0.19293C15.9548 0.705552 16.8648 1.21817 17.77 1.74053C21.0486 3.63042 24.3206 5.53329 27.6072 7.40695C28.3453 7.82711 28.6957 8.38029 28.6925 9.23682C28.673 13.9813 28.673 18.7257 28.6925 23.4702C28.6925 24.3089 28.3437 24.8588 27.6137 25.2741C23.7204 27.4933 19.8384 29.7401 15.9532 31.9788C15.6079 32.1988 15.248 32.395 14.876 32.566C14.4961 32.7379 14.0567 32.7168 13.695 32.5092C12.1669 31.6673 10.6809 30.7378 9.17876 29.8504C6.87736 28.4812 4.57867 27.1078 2.28269 25.73C1.85767 25.4736 1.51051 25.18 1.51213 24.6041C1.51213 24.0672 1.83658 23.7817 2.22429 23.5562C4.03793 22.5001 5.86131 21.4635 7.68144 20.422C9.55349 19.3498 11.4288 18.2872 13.2927 17.2036C13.9221 16.8632 14.3066 16.1977 14.2871 15.4824C14.2871 13.7434 14.2952 12.006 14.2871 10.2669C14.2871 9.50286 13.6496 9.17031 12.9894 9.55477L3.58371 14.9795C3.51707 15.0325 3.42985 15.0523 3.34687 15.033C3.33551 14.8903 3.45718 14.8481 3.54316 14.7978C4.45971 14.2576 5.37951 13.7239 6.30093 13.1886C7.30022 12.6062 8.2914 12.0157 9.2988 11.4463C9.61027 11.2695 9.8974 11.0407 10.2121 10.8915C11.0751 10.4811 11.857 9.93437 12.6925 9.48177C13.1094 9.25629 13.5409 9.07622 14.0081 9.36822C14.0973 9.425 14.1866 9.53044 14.292 9.47366C14.3974 9.41689 14.3439 9.27413 14.3455 9.17193C14.3455 6.60017 14.3455 4.02949 14.3455 1.45989C14.3469 1.26645 14.3065 1.075 14.2271 0.898596C14.0973 0.609841 13.6561 0.38273 13.416 0.507641C12.8904 0.788285 12.3713 1.08515 11.8587 1.39175C11.16 1.81353 10.4517 2.22503 9.73356 2.62626C9.12198 2.96855 8.49742 3.30273 7.89396 3.65475C6.59618 4.40746 5.32273 5.17315 4.01847 5.90315C3.56911 6.16595 3.15058 6.50013 2.69149 6.73535C2.10911 7.04033 1.51538 7.35666 0.942733 7.69084C0.618289 7.88064 0.311689 8.11911 0.196511 8.53115C0.136489 8.75015 0.230578 8.93184 0.228956 9.133C0.2176 11.0294 0.228956 12.9241 0.228956 14.8189C0.233004 14.8913 0.233004 14.9639 0.228956 15.0363C0.151089 15.6949 0.715622 16.2124 1.33856 16.0096C1.57041 15.9141 1.79678 15.8057 2.01664 15.6852C2.46276 15.4921 2.80829 15.0687 3.34362 15.0363ZM14.3601 32.4784C14.5604 32.4917 14.7603 32.4472 14.936 32.3502C15.5216 32.0923 16.0051 31.6657 16.5761 31.3964C17.2477 31.0719 17.8447 30.6388 18.5033 30.2998C19.3355 29.8715 20.1028 29.3264 20.9366 28.8852C22.0722 28.2866 23.1412 27.5874 24.2703 26.9937C25.3004 26.4454 26.2705 25.7819 27.3087 25.24C27.5951 25.089 27.8607 24.9014 28.0987 24.682C28.4345 24.3738 28.4102 24.2424 28.0144 23.9974C27.6607 23.78 27.273 23.613 26.921 23.4021C25.9168 22.797 24.8575 22.2941 23.8388 21.7101C22.6026 20.9979 21.3292 20.3474 20.0752 19.6628C19.2252 19.1989 18.3832 18.722 17.5364 18.2531C16.6183 17.7438 15.6466 17.3285 14.7787 16.7331C14.4753 16.5255 14.2368 16.5709 14.0016 16.8515C13.9156 16.9518 13.8182 17.0416 13.7112 17.1192C12.8158 17.7827 11.8327 18.2823 10.8772 18.8193C9.76762 19.4471 8.66776 20.0992 7.54842 20.7124C6.56049 21.2526 5.5758 21.8042 4.61544 22.393C3.80433 22.8911 2.92671 23.2934 2.15129 23.853C1.56404 24.2813 1.57864 24.8978 2.12533 25.3812C2.32324 25.5548 2.56009 25.631 2.76449 25.7738C3.62589 26.374 4.57651 26.8201 5.46873 27.3635C6.0284 27.7042 6.60429 28.0124 7.1526 28.3693C7.84529 28.8122 8.55907 29.2258 9.25338 29.6671C9.84549 30.0467 10.4879 30.3468 11.0881 30.715C11.8457 31.179 12.527 31.7711 13.3592 32.1134C13.6837 32.2578 13.9513 32.5595 14.3601 32.4784Z" fill="#5B6FF0"/>
<path d="M14.3596 32.4786C13.9524 32.5598 13.6832 32.258 13.3571 32.1234C12.5265 31.7811 11.8452 31.189 11.086 30.725C10.4858 30.3568 9.84335 30.0567 9.25124 29.6771C8.55693 29.2342 7.84315 28.8205 7.15046 28.3793C6.60215 28.0289 6.02626 27.7142 5.4666 27.3735C4.57437 26.8301 3.62375 26.384 2.76235 25.7837C2.55795 25.641 2.32111 25.5647 2.1232 25.3912C1.57651 24.9045 1.56191 24.2913 2.14915 23.863C2.92457 23.3001 3.79733 22.8897 4.61331 22.403C5.57366 21.8142 6.55997 21.2675 7.54628 20.7224C8.66562 20.1092 9.76549 19.4571 10.8751 18.8293C11.8306 18.2874 12.8218 17.7878 13.7042 17.1243C13.8112 17.0468 13.9086 16.9569 13.9946 16.8566C14.2298 16.5744 14.4683 16.5322 14.7717 16.7382C15.6412 17.3336 16.6129 17.7489 17.5294 18.2582C18.3762 18.7271 19.2182 19.204 20.0682 19.668C21.3222 20.3525 22.5956 21.003 23.8318 21.7152C24.8473 22.2992 25.9066 22.8021 26.914 23.4072C27.266 23.6181 27.6537 23.7852 28.0074 24.0025C28.4032 24.2475 28.4275 24.3789 28.0917 24.6871C27.8537 24.9065 27.5881 25.0941 27.3017 25.2452C26.2635 25.787 25.2934 26.4505 24.2633 26.9988C23.1277 27.6006 22.0587 28.2966 20.9296 28.8903C20.1023 29.3267 19.335 29.8766 18.4963 30.3049C17.8377 30.6439 17.2407 31.0835 16.5691 31.4015C15.9981 31.6708 15.5146 32.0974 14.929 32.3554C14.7547 32.4494 14.5573 32.4923 14.3596 32.4786Z" fill="#3E55F6"/>
<path d="M3.34117 15.0364C2.80583 15.0688 2.4603 15.4922 2.00446 15.695C1.7846 15.8156 1.55822 15.9239 1.32637 16.0195C0.7083 16.2174 0.1389 15.695 0.216766 15.0461C0.220815 14.9737 0.220815 14.9011 0.216766 14.8287C0.216766 12.934 0.216766 11.0392 0.216766 9.14285C0.216766 8.9417 0.1243 8.76001 0.184322 8.54101C0.2995 8.12896 0.606099 7.89212 0.930544 7.70069C1.50319 7.36652 2.08881 7.05181 2.6793 6.74521C3.13839 6.50998 3.55206 6.16932 4.00952 5.91301C5.3073 5.18301 6.59534 4.41732 7.88501 3.66461C8.48848 3.31258 9.11303 2.97841 9.72461 2.63612C10.4406 2.23597 11.1516 1.82447 11.8578 1.40161C12.3705 1.09501 12.8896 0.79814 13.4152 0.517496C13.6488 0.392584 14.09 0.619696 14.2263 0.908451C14.3056 1.08212 14.3471 1.27069 14.3479 1.46163C14.3479 4.03123 14.3479 6.60191 14.3479 9.17367C14.3479 9.27587 14.4015 9.41376 14.2944 9.47541C14.1873 9.53705 14.0997 9.42674 14.0105 9.36996C13.5433 9.07796 13.1118 9.25803 12.6949 9.48352C11.8595 9.93612 11.0727 10.4828 10.2145 10.8932C9.89981 11.0425 9.61268 11.2712 9.30121 11.448C8.28894 12.0158 7.29777 12.6063 6.29523 13.1887C5.37705 13.724 4.45726 14.2577 3.53746 14.7979C3.45148 14.8482 3.32981 14.8904 3.34117 15.0331V15.0364Z" fill="#3E55F6"/>
</g>
<defs>
<clipPath id="clip0_1129_297">
<rect width="146" height="33.7422" fill="white"/>
</clipPath>
</defs>
</svg>
