<svg width="165" height="49" viewBox="0 0 165 49" fill="none" xmlns="http://www.w3.org/2000/svg">
<g clip-path="url(#clip0_320_20665)">
<g clip-path="url(#clip1_320_20665)">
<path d="M158.732 48.8781H5.95437C2.59326 48.8781 -0.156738 46.1356 -0.156738 42.7836V6.21645C-0.156738 2.86446 2.59326 0.121925 5.95437 0.121925H158.732C162.093 0.121925 164.843 2.86446 164.843 6.21645V42.7836C164.843 46.1356 162.093 48.8781 158.732 48.8781Z" fill="#024430"/>
<path d="M158.732 0.121925H5.95437C2.59326 0.121925 -0.156738 2.86446 -0.156738 6.21645V42.7836C-0.156738 46.1356 2.59326 48.8781 5.95437 48.8781H158.732C162.093 48.8781 164.843 46.1356 164.843 42.7836V6.21645C164.843 2.86446 162.093 0.121925 158.732 0.121925ZM158.732 1.09705C161.563 1.09705 163.865 3.39396 163.865 6.21645V42.7836C163.865 45.6066 161.563 47.9035 158.732 47.9035H5.95437C3.12419 47.9035 0.821039 45.6066 0.821039 42.7836V6.21645C0.821039 3.39396 3.12419 1.09705 5.95437 1.09705H158.732Z" fill="#024430"/>
<path d="M57.6134 11.9392H54.0653V12.8154H56.7236C56.6528 13.5295 56.3664 14.0913 55.8851 14.4989C55.404 14.9065 54.7909 15.1103 54.0653 15.1103C53.267 15.1103 52.591 14.836 52.039 14.2856C51.4967 13.7238 51.2218 13.0305 51.2218 12.1945C51.2218 11.3565 51.4967 10.6632 52.039 10.1034C52.591 9.55098 53.267 9.27673 54.0653 9.27673C54.4739 9.27673 54.8616 9.34718 55.2206 9.50149C55.5778 9.65385 55.8641 9.86715 56.0895 10.1433L56.7637 9.47102C56.4581 9.12437 56.0685 8.8578 55.5891 8.66351C55.108 8.47118 54.6056 8.37976 54.0653 8.37976C53.0015 8.37976 52.1001 8.74542 51.365 9.48053C50.6279 10.2156 50.2593 11.1222 50.2593 12.1945C50.2593 13.2648 50.6279 14.1732 51.365 14.9065C52.1001 15.6416 53.0015 16.0092 54.0653 16.0092C55.1786 16.0092 56.0685 15.6511 56.7541 14.9274C57.3575 14.3256 57.665 13.5105 57.665 12.4897C57.665 12.3164 57.644 12.1316 57.6134 11.9392ZM59.027 8.54163V15.8454H63.3009V14.9484H59.9667V12.6325H62.9743V11.7545H59.9667V9.44055H63.3009V8.54163H59.027ZM69.3235 9.44055V8.54163H64.2915V9.44055H66.3368V15.8454H67.2763V9.44055H69.3235ZM73.9154 8.54163H72.9758V15.8454H73.9154V8.54163ZM80.1394 9.44055V8.54163H75.1075V9.44055H77.1528V15.8454H78.0922V9.44055H80.1394ZM89.6707 9.49003C88.9449 8.74542 88.0551 8.37976 86.9914 8.37976C85.9277 8.37976 85.0378 8.74542 84.3121 9.48053C83.5865 10.2043 83.2274 11.1127 83.2274 12.1945C83.2274 13.2743 83.5865 14.1827 84.3121 14.9065C85.0378 15.6416 85.9277 16.0092 86.9914 16.0092C88.0455 16.0092 88.9449 15.6416 89.6707 14.9065C90.3983 14.1827 90.7554 13.2743 90.7554 12.1945C90.7554 11.1222 90.3983 10.2156 89.6707 9.49003ZM84.9863 10.1034C85.5285 9.55098 86.1932 9.27673 86.9914 9.27673C87.7896 9.27673 88.4542 9.55098 88.987 10.1034C89.5274 10.6442 89.7947 11.347 89.7947 12.1945C89.7947 13.04 89.5274 13.7448 88.987 14.2856C88.4542 14.836 87.7896 15.1103 86.9914 15.1103C86.1932 15.1103 85.5285 14.836 84.9863 14.2856C84.4553 13.7333 84.1899 13.04 84.1899 12.1945C84.1899 11.347 84.4553 10.6537 84.9863 10.1034ZM93.0279 11.2956L92.9877 9.88812H93.0279L96.7517 15.8454H97.7334V8.54163H96.7918V12.8154L96.8338 14.2227H96.7918L93.2322 8.54163H92.0883V15.8454H93.0279V11.2956Z" fill="white" stroke="white" stroke-width="0.266667" stroke-miterlimit="10"/>
<path d="M130.417 36.5662H132.698V21.3284H130.417V36.5662ZM150.959 26.8177L148.344 33.4239H148.266L145.553 26.8177H143.096L147.166 36.0507L144.845 41.187H147.224L153.495 26.8177H150.959ZM138.024 34.8356C137.279 34.8356 136.236 34.4627 136.236 33.5415C136.236 32.3654 137.534 31.9145 138.654 31.9145C139.656 31.9145 140.129 32.1298 140.737 32.424C140.56 33.8357 139.342 34.8356 138.024 34.8356ZM138.3 26.4843C136.649 26.4843 134.939 27.2099 134.232 28.8174L136.256 29.6601C136.688 28.8174 137.494 28.5431 138.339 28.5431C139.519 28.5431 140.718 29.2482 140.737 30.5033V30.6599C140.324 30.4247 139.439 30.0719 138.359 30.0719C136.176 30.0719 133.955 31.2674 133.955 33.5024C133.955 35.5412 135.745 36.8548 137.749 36.8548C139.282 36.8548 140.129 36.1686 140.658 35.3645H140.737V36.5415H142.94V30.6989C142.94 27.9936 140.913 26.4843 138.3 26.4843ZM124.206 28.6726H120.962V23.4496H124.206C125.911 23.4496 126.879 24.857 126.879 26.061C126.879 27.2418 125.911 28.6726 124.206 28.6726ZM124.147 21.3284H118.683V36.5662H120.962V30.7933H124.147C126.675 30.7933 129.16 28.9687 129.16 26.061C129.16 23.1539 126.675 21.3284 124.147 21.3284ZM94.3486 34.8384C92.7731 34.8384 91.4544 33.5223 91.4544 31.7165C91.4544 29.8896 92.7731 28.5549 94.3486 28.5549C95.9041 28.5549 97.1248 29.8896 97.1248 31.7165C97.1248 33.5223 95.9041 34.8384 94.3486 34.8384ZM96.9672 27.6709H96.8884C96.3767 27.0623 95.3917 26.5125 94.1519 26.5125C91.5523 26.5125 89.17 28.7907 89.17 31.7165C89.17 34.6223 91.5523 36.8805 94.1519 36.8805C95.3917 36.8805 96.3767 36.3305 96.8884 35.7025H96.9672V36.4481C96.9672 38.4322 95.9041 39.492 94.191 39.492C92.7936 39.492 91.9272 38.4907 91.5724 37.6466L89.584 38.4712C90.1545 39.8453 91.6703 41.5346 94.191 41.5346C96.8693 41.5346 99.1337 39.9634 99.1337 36.1339V26.8267H96.9672V27.6709ZM100.709 36.5662H102.992V21.3284H100.709V36.5662ZM106.36 31.5394C106.301 29.5363 107.916 28.5154 109.077 28.5154C109.983 28.5154 110.75 28.9673 111.007 29.6149L106.36 31.5394ZM113.448 29.811C113.015 28.6531 111.696 26.5125 108.998 26.5125C106.32 26.5125 104.095 28.6136 104.095 31.6965C104.095 34.6027 106.301 36.8805 109.254 36.8805C111.636 36.8805 113.015 35.4278 113.586 34.5831L111.814 33.4047C111.223 34.2689 110.416 34.8384 109.254 34.8384C108.092 34.8384 107.265 34.308 106.734 33.2672L113.684 30.4004L113.448 29.811ZM58.073 28.1031V30.3023H63.3498C63.1922 31.5394 62.7788 32.4425 62.1486 33.071C61.3805 33.8366 60.1793 34.6812 58.073 34.6812C54.824 34.6812 52.2842 32.0697 52.2842 28.8297C52.2842 25.5897 54.824 22.9777 58.073 22.9777C59.8255 22.9777 61.105 23.6652 62.0502 24.5489L63.6062 22.9972C62.2866 21.7407 60.5345 20.7785 58.073 20.7785C53.6224 20.7785 49.8813 24.3917 49.8813 28.8297C49.8813 33.2672 53.6224 36.8805 58.073 36.8805C60.4748 36.8805 62.2866 36.0949 63.7041 34.6223C65.1612 33.1691 65.6142 31.127 65.6142 29.4773C65.6142 28.9673 65.5745 28.4959 65.4958 28.1031H58.073ZM71.6135 34.8384C70.038 34.8384 68.6793 33.5423 68.6793 31.6965C68.6793 29.831 70.038 28.5549 71.6135 28.5549C73.1884 28.5549 74.5471 29.831 74.5471 31.6965C74.5471 33.5423 73.1884 34.8384 71.6135 34.8384ZM71.6135 26.5125C68.7379 26.5125 66.3952 28.6921 66.3952 31.6965C66.3952 34.6812 68.7379 36.8805 71.6135 36.8805C74.488 36.8805 76.8312 34.6812 76.8312 31.6965C76.8312 28.6921 74.488 26.5125 71.6135 26.5125ZM82.9955 34.8384C81.4211 34.8384 80.0619 33.5423 80.0619 31.6965C80.0619 29.831 81.4211 28.5549 82.9955 28.5549C84.571 28.5549 85.9293 29.831 85.9293 31.6965C85.9293 33.5423 84.571 34.8384 82.9955 34.8384ZM82.9955 26.5125C80.121 26.5125 77.7784 28.6921 77.7784 31.6965C77.7784 34.6812 80.121 36.8805 82.9955 36.8805C85.8711 36.8805 88.2138 34.6812 88.2138 31.6965C88.2138 28.6921 85.8711 26.5125 82.9955 26.5125Z" fill="white"/>
<path d="M25.0414 23.6757L12.0293 37.449C12.0298 37.4518 12.0308 37.4542 12.0313 37.4571C12.4303 38.9526 13.8 40.0538 15.4256 40.0538C16.0755 40.0538 16.6856 39.8786 17.2088 39.571L17.2504 39.5468L31.8971 31.118L25.0414 23.6757Z" fill="#EB3131"/>
<path d="M38.206 21.3303L38.1935 21.3218L31.8701 17.666L24.7461 23.9881L31.8949 31.1165L38.1849 27.4971C39.2877 26.9034 40.0363 25.744 40.0363 24.407C40.0363 23.0796 39.2978 21.926 38.206 21.3303Z" fill="#F6B60B"/>
<path d="M12.029 11.3079C11.9508 11.5955 11.9097 11.8968 11.9097 12.2097V36.5477C11.9097 36.86 11.9503 37.1623 12.0295 37.449L25.4894 24.028L12.029 11.3079Z" fill="#5778C5"/>
<path d="M25.1373 24.3784L31.8723 17.6637L17.2422 9.20443C16.7104 8.88679 16.0898 8.70347 15.4256 8.70347C13.8 8.70347 12.4285 9.80668 12.0293 11.3041C12.0288 11.3055 12.0288 11.3065 12.0288 11.3078L25.1373 24.3784Z" fill="#3BAD49"/>
</g>
</g>
<defs>
<clipPath id="clip0_320_20665">
<rect width="165" height="49" fill="white"/>
</clipPath>
<clipPath id="clip1_320_20665">
<rect width="165.367" height="49" fill="white" transform="translate(-0.278809)"/>
</clipPath>
</defs>
</svg>
