<svg width="147" height="49" viewBox="0 0 147 49" fill="none" xmlns="http://www.w3.org/2000/svg">
<g clip-path="url(#clip0_320_20664)">
<path d="M135.294 3.71797e-05H11.7128C11.2623 3.71797e-05 10.8172 3.71798e-05 10.368 0.00248718C9.99188 0.00493718 9.61879 0.0120544 9.23909 0.0180447C8.41421 0.0277244 7.59127 0.100091 6.77742 0.234514C5.96471 0.371865 5.17747 0.630809 4.44231 1.00259C3.70804 1.37751 3.03712 1.86469 2.45389 2.44645C1.8676 3.02657 1.37888 3.69711 1.00652 4.43228C0.633138 5.166 0.374232 5.95224 0.238747 6.76385C0.101974 7.57444 0.0283749 8.39437 0.0186108 9.2163C0.00721094 9.59188 0.00600707 9.96872 0 10.3444V38.6593C0.00600707 39.0397 0.00721094 39.4082 0.0186108 39.7886C0.0283779 40.6105 0.101977 41.4304 0.238747 42.241C0.373858 43.0531 0.632779 43.8398 1.00652 44.5737C1.37871 45.3065 1.8675 45.9744 2.45389 46.5513C3.03491 47.1356 3.70626 47.6231 4.44231 47.9952C5.17746 48.3679 5.96462 48.6284 6.77742 48.7679C7.59141 48.9012 8.41426 48.9736 9.23909 48.9845C9.61879 48.9928 9.99188 48.9976 10.368 48.9976C10.8172 49 11.2623 49 11.7128 49H135.294C135.735 49 136.184 49 136.625 48.9976C137 48.9976 137.384 48.9928 137.758 48.9845C138.581 48.9742 139.403 48.9018 140.215 48.7679C141.03 48.6274 141.82 48.367 142.559 47.9952C143.294 47.6229 143.965 47.1354 144.546 46.5513C145.13 45.9721 145.62 45.3048 145.997 44.5737C146.368 43.8392 146.624 43.0526 146.758 42.241C146.895 41.4303 146.971 40.6106 146.986 39.7886C146.99 39.4082 146.99 39.0397 146.99 38.6593C147 38.2143 147 37.7717 147 37.3194V11.6818C147 11.2332 147 10.7882 146.99 10.3444C146.99 9.96872 146.99 9.59188 146.986 9.21625C146.971 8.39425 146.895 7.5745 146.758 6.7638C146.624 5.95266 146.368 5.16648 145.997 4.43223C145.239 2.95865 144.036 1.75917 142.559 1.00248C141.82 0.631607 141.03 0.372732 140.215 0.234404C139.403 0.0993881 138.581 0.0269967 137.758 0.0178732C137.384 0.0118952 137 0.00471668 136.625 0.00232793C136.184 -0.00012207 135.735 -0.00012207 135.294 -0.00012207V3.71797e-05Z" fill="#024430"/>
<path d="M10.3738 47.9281C9.9995 47.9281 9.63426 47.9233 9.26292 47.915C8.49365 47.905 7.72617 47.8382 6.96679 47.7152C6.25871 47.5936 5.57277 47.3674 4.93159 47.044C4.29629 46.7234 3.71685 46.3029 3.21546 45.7987C2.70681 45.3005 2.28334 44.7226 1.96183 44.088C1.63677 43.4493 1.41181 42.7646 1.29479 42.0579C1.16841 41.2986 1.10003 40.5307 1.09025 39.761C1.08246 39.5027 1.07227 38.6425 1.07227 38.6425V10.3443C1.07227 10.3443 1.08313 9.49733 1.09031 9.2485C1.09968 8.48003 1.16766 7.71339 1.29365 6.95521C1.4109 6.24657 1.63603 5.55996 1.96126 4.91914C2.2816 4.28497 2.70272 3.70667 3.2083 3.20665C3.71331 2.70188 4.29461 2.27923 4.93099 1.95413C5.57069 1.63181 6.25534 1.40719 6.96199 1.2878C7.72387 1.16354 8.494 1.09636 9.26594 1.08683L10.3744 1.07187H136.619L137.741 1.08743C138.506 1.09649 139.269 1.16307 140.024 1.2866C140.738 1.40749 141.429 1.63367 142.076 1.95772C143.351 2.6129 144.389 3.64947 145.043 4.92213C145.363 5.55853 145.585 6.23954 145.701 6.94206C145.828 7.70646 145.899 8.47912 145.914 9.25389C145.918 9.60081 145.918 9.97345 145.918 10.3443C145.927 10.8037 145.927 11.2409 145.927 11.6818V37.3194C145.927 37.7644 145.927 38.1987 145.918 38.6365C145.918 39.0349 145.918 39.3998 145.913 39.7754C145.899 40.5363 145.828 41.2952 145.703 42.0459C145.588 42.7577 145.365 43.4477 145.04 44.0917C144.716 44.7194 144.295 45.2922 143.792 45.7891C143.29 46.296 142.71 46.719 142.073 47.0417C141.428 47.3675 140.737 47.5946 140.024 47.7152C139.265 47.8389 138.497 47.9057 137.728 47.915C137.368 47.9233 136.991 47.9281 136.625 47.9281L135.294 47.9306L10.3738 47.9281Z" fill="#024430"/>
<path d="M30.707 24.3658C30.7207 23.3025 31.0039 22.26 31.5303 21.3352C32.0566 20.4105 32.809 19.6335 33.7174 19.0766C33.1403 18.2547 32.379 17.5784 31.494 17.1012C30.6089 16.6241 29.6245 16.3593 28.6189 16.328C26.4737 16.1034 24.3941 17.608 23.301 17.608C22.1867 17.608 20.5037 16.3503 18.6913 16.3874C17.519 16.4252 16.3765 16.7651 15.3752 17.3741C14.3738 17.9831 13.5477 18.8404 12.9774 19.8624C10.5068 24.1278 12.3496 30.3966 14.7162 33.8445C15.9003 35.5329 17.2841 37.4188 19.0949 37.3519C20.8668 37.2786 21.5285 36.2252 23.6674 36.2252C25.7863 36.2252 26.4072 37.3519 28.2547 37.3094C30.156 37.2786 31.3539 35.6136 32.4965 33.9092C33.3472 32.7062 34.0019 31.3767 34.4362 29.9698C33.3316 29.5039 32.3889 28.724 31.7257 27.7275C31.0626 26.7309 30.7083 25.5618 30.707 24.3658Z" fill="white"/>
<path d="M27.2176 14.0598C28.2543 12.8188 28.765 11.2237 28.6414 9.61322C27.0575 9.7791 25.5945 10.5339 24.5438 11.7273C24.0301 12.3104 23.6367 12.9886 23.386 13.7233C23.1353 14.4581 23.0323 15.2349 23.0828 16.0093C23.875 16.0175 24.6587 15.8462 25.3749 15.5086C26.0912 15.1709 26.7212 14.6755 27.2176 14.0598Z" fill="white"/>
<path d="M51.9655 33.2461H46.1508L44.7544 37.3578H42.2915L47.7991 22.1457H50.3579L55.8655 37.3578H53.3606L51.9655 33.2461ZM46.753 31.3488H51.3621L49.09 24.6759H49.0263L46.753 31.3488Z" fill="white"/>
<path d="M67.7598 31.8127C67.7598 35.2592 65.9099 37.4735 63.1183 37.4735C62.4112 37.5104 61.7079 37.3479 61.089 37.0048C60.4701 36.6616 59.9607 36.1516 59.619 35.5331H59.5661V41.0265H57.2832V26.2666H59.493V28.1113H59.5349C59.8924 27.4958 60.4104 26.9884 61.034 26.6432C61.6576 26.2979 62.3634 26.1277 63.0763 26.1506C65.8991 26.1506 67.7598 28.3757 67.7598 31.8127ZM65.4132 31.8127C65.4132 29.5672 64.2496 28.091 62.4741 28.091C60.7298 28.091 59.5566 29.5983 59.5566 31.8127C59.5566 34.0473 60.7298 35.5439 62.4741 35.5439C64.2496 35.5439 65.4132 34.0784 65.4132 31.8127H65.4132Z" fill="white"/>
<path d="M80.0016 31.8127C80.0016 35.2592 78.1511 37.4735 75.3595 37.4735C74.6524 37.5104 73.9491 37.3479 73.3302 37.0048C72.7113 36.6616 72.2019 36.1516 71.8602 35.5331H71.8073V41.0265H69.5244V26.2666H71.7342V28.1113H71.7761C72.1336 27.4958 72.6516 26.9884 73.2752 26.6432C73.8988 26.2979 74.6046 26.1277 75.3175 26.1506C78.1403 26.1506 80.0016 28.3757 80.0016 31.8127ZM77.6545 31.8127C77.6545 29.5672 76.4908 28.091 74.7153 28.091C72.971 28.091 71.7978 29.5983 71.7978 31.8127C71.7978 34.0473 72.971 35.5439 74.7153 35.5439C76.4908 35.5439 77.6545 34.0784 77.6545 31.8127Z" fill="white"/>
<path d="M88.0909 33.1193C88.26 34.6279 89.7296 35.6183 91.7378 35.6183C93.662 35.6183 95.0464 34.6278 95.0464 33.2676C95.0464 32.0869 94.2115 31.3799 92.2345 30.8954L90.2574 30.4204C87.4563 29.7457 86.1559 28.4394 86.1559 26.3196C86.1559 23.6949 88.4496 21.8921 91.7054 21.8921C94.9301 21.8921 97.1398 23.6949 97.2142 26.3196H94.9097C94.7717 24.8015 93.5133 23.8851 91.6742 23.8851C89.8352 23.8851 88.5767 24.8122 88.5767 26.1617C88.5767 27.2371 89.3805 27.87 91.3467 28.3544L93.0274 28.7659C96.1573 29.504 97.4565 30.7578 97.4565 32.9828C97.4565 35.8288 95.1844 37.6113 91.5686 37.6113C88.1856 37.6113 85.9015 35.8707 85.7539 33.1192L88.0909 33.1193Z" fill="white"/>
<path d="M102.386 23.6432V26.2679H104.501V28.0707H102.386V34.1849C102.386 35.1348 102.809 35.5774 103.739 35.5774C103.99 35.573 104.241 35.5555 104.49 35.5247V37.3168C104.072 37.3947 103.647 37.4299 103.222 37.422C100.97 37.422 100.092 36.5787 100.092 34.4277V28.0707H98.4751V26.2679H100.092V23.6432H102.386Z" fill="white"/>
<path d="M105.725 31.8139C105.725 28.3243 107.786 26.1315 110.999 26.1315C114.224 26.1315 116.275 28.3243 116.275 31.8139C116.275 35.313 114.235 37.4962 110.999 37.4962C107.765 37.4962 105.725 35.313 105.725 31.8139ZM113.949 31.8139C113.949 29.4201 112.849 28.0073 110.999 28.0073C109.15 28.0073 108.05 29.4309 108.05 31.8139C108.05 34.2172 109.15 35.6193 110.999 35.6193C112.849 35.6193 113.949 34.2172 113.949 31.8139H113.949Z" fill="white"/>
<path d="M118.158 26.2666H120.335V28.1543H120.388C120.535 27.5647 120.882 27.0437 121.369 26.6788C121.856 26.3139 122.454 26.1273 123.063 26.1505C123.326 26.1496 123.589 26.1781 123.845 26.2355V28.3649C123.513 28.2636 123.167 28.2172 122.82 28.2273C122.488 28.2139 122.157 28.2722 121.85 28.3982C121.543 28.5243 121.268 28.715 121.041 28.9574C120.815 29.1999 120.645 29.4882 120.541 29.8026C120.437 30.117 120.403 30.4501 120.441 30.779V37.3574H118.158L118.158 26.2666Z" fill="white"/>
<path d="M134.371 34.1012C134.064 36.1145 132.098 37.4962 129.582 37.4962C126.347 37.4962 124.338 35.3345 124.338 31.8665C124.338 28.3877 126.357 26.1315 129.486 26.1315C132.563 26.1315 134.498 28.2394 134.498 31.6021V32.3821H126.643V32.5197C126.607 32.9279 126.658 33.339 126.793 33.7259C126.929 34.1129 127.145 34.4666 127.428 34.7637C127.711 35.0609 128.054 35.2945 128.435 35.4493C128.815 35.604 129.224 35.6762 129.635 35.6611C130.174 35.7115 130.716 35.5869 131.178 35.3059C131.641 35.0248 132.001 34.6023 132.203 34.1012L134.371 34.1012ZM126.654 30.791H132.214C132.235 30.424 132.179 30.0568 132.05 29.7123C131.922 29.3678 131.723 29.0536 131.467 28.7892C131.211 28.5249 130.902 28.3163 130.562 28.1763C130.221 28.0364 129.855 27.9683 129.486 27.9762C129.114 27.974 128.746 28.0452 128.402 28.1858C128.058 28.3263 127.745 28.5334 127.482 28.7951C127.218 29.0568 127.01 29.3679 126.868 29.7105C126.725 30.0531 126.653 30.4203 126.654 30.7911V30.791Z" fill="white"/>
<path d="M46.467 10.6959C46.9456 10.6616 47.4258 10.7337 47.8731 10.907C48.3204 11.0802 48.7236 11.3503 49.0535 11.6977C49.3835 12.0452 49.632 12.4613 49.7811 12.9161C49.9302 13.3709 49.9763 13.8531 49.9159 14.3278C49.9159 16.6629 48.6503 18.0052 46.467 18.0052H43.8193V10.6959H46.467ZM44.9578 16.9715H46.3398C46.6818 16.9919 47.024 16.936 47.3416 16.8078C47.6592 16.6797 47.9442 16.4825 48.1757 16.2307C48.4073 15.9789 48.5796 15.6788 48.6802 15.3522C48.7808 15.0255 48.807 14.6807 48.7571 14.3427C48.8034 14.006 48.7745 13.6633 48.6724 13.3391C48.5703 13.0149 48.3975 12.7172 48.1665 12.4674C47.9354 12.2176 47.6519 12.0218 47.3361 11.8941C47.0203 11.7664 46.68 11.71 46.3398 11.7288H44.9578V16.9715Z" fill="white"/>
<path d="M51.2018 15.2457C51.167 14.8832 51.2086 14.5175 51.3239 14.1719C51.4392 13.8264 51.6256 13.5087 51.8712 13.2392C52.1168 12.9697 52.4162 12.7544 52.7502 12.6071C53.0841 12.4597 53.4452 12.3836 53.8104 12.3836C54.1756 12.3836 54.5367 12.4597 54.8707 12.6071C55.2047 12.7544 55.504 12.9697 55.7497 13.2392C55.9953 13.5087 56.1817 13.8264 56.297 14.1719C56.4123 14.5175 56.4538 14.8832 56.4191 15.2457C56.4545 15.6086 56.4134 15.9748 56.2984 16.3209C56.1835 16.667 55.9971 16.9853 55.7515 17.2553C55.5058 17.5253 55.2062 17.7411 54.8719 17.8887C54.5376 18.0364 54.176 18.1127 53.8104 18.1127C53.4448 18.1127 53.0832 18.0364 52.749 17.8887C52.4147 17.7411 52.1151 17.5253 51.8694 17.2553C51.6237 16.9853 51.4374 16.667 51.3224 16.3209C51.2074 15.9748 51.1664 15.6086 51.2018 15.2457ZM55.2962 15.2457C55.2962 14.05 54.7575 13.3508 53.8122 13.3508C52.8633 13.3508 52.3295 14.05 52.3295 15.2457C52.3295 16.451 52.8633 17.1448 53.8122 17.1448C54.7576 17.1448 55.2962 16.4462 55.2962 15.2457H55.2962Z" fill="white"/>
<path d="M63.3545 18.0052H62.222L61.0788 13.9426H60.9924L59.8539 18.0052H58.7323L57.2075 12.4891H58.3148L59.3057 16.6982H59.3873L60.5246 12.4891H61.5718L62.7091 16.6982H62.7955L63.7816 12.4891H64.8733L63.3545 18.0052Z" fill="white"/>
<path d="M66.1558 12.4887H67.2067V13.365H67.2882C67.4266 13.0503 67.66 12.7864 67.9559 12.6103C68.2518 12.4341 68.5955 12.3544 68.939 12.3822C69.2081 12.3621 69.4784 12.4025 69.7297 12.5006C69.981 12.5988 70.207 12.752 70.3909 12.949C70.5748 13.1461 70.7118 13.3818 70.7919 13.6389C70.872 13.8959 70.8931 14.1676 70.8536 14.4339V18.0047H69.7619V14.7072C69.7619 13.8208 69.3756 13.3799 68.5683 13.3799C68.3855 13.3715 68.2031 13.4025 68.0335 13.4709C67.8639 13.5393 67.7112 13.6434 67.5857 13.7762C67.4602 13.909 67.3651 14.0672 67.3067 14.2401C67.2483 14.413 67.2281 14.5964 67.2474 14.7778V18.0048H66.1558L66.1558 12.4887Z" fill="white"/>
<path d="M72.5928 10.3358H73.6845V18.0052H72.5928V10.3358Z" fill="white"/>
<path d="M75.2023 15.2439C75.1675 14.8814 75.2091 14.5156 75.3244 14.17C75.4397 13.8245 75.6262 13.5068 75.8718 13.2373C76.1175 12.9678 76.4169 12.7525 76.7508 12.6052C77.0848 12.4578 77.446 12.3817 77.8112 12.3817C78.1764 12.3817 78.5376 12.4578 78.8715 12.6052C79.2055 12.7525 79.5049 12.9678 79.7505 13.2373C79.9962 13.5068 80.1826 13.8245 80.2979 14.17C80.4132 14.5156 80.4549 14.8814 80.4201 15.2439C80.4555 15.6068 80.4144 15.973 80.2994 16.3191C80.1844 16.6652 79.998 16.9835 79.7523 17.2535C79.5066 17.5235 79.207 17.7392 78.8727 17.8869C78.5384 18.0345 78.1768 18.1108 77.8112 18.1108C77.4456 18.1108 77.084 18.0345 76.7497 17.8869C76.4154 17.7392 76.1158 17.5235 75.8701 17.2535C75.6243 16.9835 75.438 16.6652 75.323 16.3191C75.208 15.973 75.1669 15.6068 75.2023 15.2439ZM79.2966 15.2439C79.2966 14.0482 78.758 13.349 77.8127 13.349C76.8638 13.349 76.33 14.0482 76.33 15.2439C76.33 16.4492 76.8638 17.143 77.8127 17.143C78.758 17.143 79.2966 16.4444 79.2966 15.2439H79.2966Z" fill="white"/>
<path d="M81.5693 16.4462C81.5693 15.4533 82.3107 14.8809 83.6267 14.7995L85.1251 14.7134V14.2373C85.1251 13.6547 84.7388 13.3257 83.9926 13.3257C83.3832 13.3257 82.9609 13.5488 82.8398 13.9388H81.7829C81.8944 12.9913 82.7882 12.3836 84.043 12.3836C85.4298 12.3836 86.212 13.0721 86.212 14.2373V18.0062H85.1611V17.231H85.0747C84.8994 17.5091 84.6532 17.7357 84.3613 17.8879C84.0694 18.0401 83.7422 18.1122 83.4132 18.0971C83.181 18.1212 82.9463 18.0965 82.7242 18.0245C82.5022 17.9526 82.2977 17.8351 82.124 17.6796C81.9502 17.5241 81.8111 17.3339 81.7156 17.1215C81.6201 16.9091 81.5703 16.679 81.5693 16.4462ZM85.1251 15.9749V15.5137L83.7743 15.5999C83.0125 15.6507 82.667 15.9091 82.667 16.3954C82.667 16.8918 83.0989 17.1807 83.6928 17.1807C83.8668 17.1983 84.0425 17.1808 84.2096 17.1292C84.3767 17.0777 84.5316 16.9931 84.6653 16.8806C84.7989 16.7681 84.9085 16.6299 84.9875 16.4743C85.0665 16.3187 85.1133 16.1489 85.1251 15.9749Z" fill="white"/>
<path d="M87.6465 15.2448C87.6465 13.5018 88.545 12.3976 89.9426 12.3976C90.2883 12.3818 90.6314 12.4643 90.9318 12.6357C91.2322 12.8071 91.4774 13.0602 91.6389 13.3654H91.7205V10.3358H92.8122V18.0052H91.7661V17.1337H91.6797C91.5058 17.4369 91.2519 17.6868 90.9457 17.8565C90.6396 18.0261 90.2927 18.109 89.9426 18.0961C88.5354 18.0962 87.6465 16.992 87.6465 15.2448ZM88.7742 15.2448C88.7742 16.4148 89.3272 17.1188 90.2522 17.1188C91.1723 17.1188 91.7409 16.4046 91.7409 15.2496C91.7409 14.1 91.1663 13.3756 90.2522 13.3756C89.3332 13.3756 88.7742 14.0844 88.7742 15.2448H88.7742Z" fill="white"/>
<path d="M97.3287 15.2457C97.294 14.8832 97.3356 14.5175 97.4508 14.1719C97.5661 13.8264 97.7525 13.5087 97.9981 13.2392C98.2438 12.9697 98.5431 12.7544 98.8771 12.6071C99.211 12.4597 99.5722 12.3836 99.9374 12.3836C100.303 12.3836 100.664 12.4597 100.998 12.6071C101.332 12.7544 101.631 12.9697 101.877 13.2392C102.122 13.5087 102.309 13.8264 102.424 14.1719C102.539 14.5175 102.581 14.8832 102.546 15.2457C102.581 15.6086 102.54 15.9748 102.425 16.3209C102.31 16.667 102.124 16.9853 101.878 17.2553C101.633 17.5253 101.333 17.7411 100.999 17.8887C100.665 18.0364 100.303 18.1127 99.9374 18.1127C99.5718 18.1127 99.2102 18.0364 98.8759 17.8887C98.5416 17.7411 98.242 17.5253 97.9963 17.2553C97.7507 16.9853 97.5643 16.667 97.4494 16.3209C97.3344 15.9748 97.2933 15.6086 97.3287 15.2457ZM101.423 15.2457C101.423 14.05 100.884 13.3508 99.9392 13.3508C98.9903 13.3508 98.4565 14.05 98.4565 15.2457C98.4565 16.451 98.9903 17.1448 99.9392 17.1448C100.884 17.1448 101.423 16.4462 101.423 15.2457Z" fill="white"/>
<path d="M104.011 12.4887H105.062V13.365H105.144C105.282 13.0503 105.516 12.7864 105.811 12.6103C106.107 12.4341 106.451 12.3544 106.794 12.3822C107.064 12.3621 107.334 12.4025 107.585 12.5006C107.837 12.5988 108.062 12.752 108.246 12.949C108.43 13.1461 108.567 13.3818 108.647 13.6389C108.727 13.8959 108.749 14.1676 108.709 14.4339V18.0047H107.617V14.7072C107.617 13.8208 107.231 13.3799 106.424 13.3799C106.241 13.3715 106.059 13.4025 105.889 13.4709C105.719 13.5393 105.567 13.6434 105.441 13.7762C105.316 13.909 105.221 14.0672 105.162 14.2401C105.104 14.413 105.084 14.5964 105.103 14.7778V18.0048H104.011V12.4887Z" fill="white"/>
<path d="M114.877 11.1158V12.5143H116.076V13.4312H114.877V16.2676C114.877 16.8454 115.116 17.0985 115.659 17.0985C115.799 17.098 115.938 17.0896 116.076 17.0733V17.9801C115.88 18.0151 115.681 18.0337 115.482 18.0357C114.268 18.0357 113.784 17.6099 113.784 16.5464V13.4312H112.906V12.5142H113.784V11.1158H114.877Z" fill="white"/>
<path d="M117.567 10.3358H118.649V13.3756H118.735C118.88 13.0579 119.12 12.7926 119.422 12.6158C119.724 12.4389 120.073 12.3592 120.422 12.3875C120.69 12.3729 120.957 12.4175 121.206 12.518C121.454 12.6185 121.678 12.7725 121.86 12.9689C122.041 13.1653 122.178 13.3993 122.259 13.6543C122.339 13.9093 122.363 14.1789 122.327 14.4439V18.0052H121.234V14.7124C121.234 13.8314 120.823 13.3851 120.051 13.3851C119.864 13.3698 119.675 13.3955 119.498 13.4605C119.322 13.5255 119.162 13.6282 119.029 13.7614C118.896 13.8946 118.794 14.0551 118.73 14.2317C118.666 14.4082 118.642 14.5966 118.659 14.7836V18.0052H117.567L117.567 10.3358Z" fill="white"/>
<path d="M128.693 16.5149C128.544 17.0191 128.223 17.4552 127.785 17.7469C127.347 18.0386 126.819 18.1674 126.296 18.1108C125.931 18.1204 125.569 18.0508 125.234 17.9068C124.9 17.7628 124.6 17.5479 124.357 17.2771C124.114 17.0062 123.933 16.6858 123.826 16.3381C123.72 15.9904 123.691 15.6238 123.74 15.2636C123.692 14.9024 123.722 14.535 123.828 14.1863C123.934 13.8375 124.114 13.5156 124.356 13.2424C124.598 12.9691 124.896 12.7509 125.23 12.6024C125.563 12.4539 125.925 12.3787 126.291 12.3818C127.83 12.3818 128.759 13.4304 128.759 15.1625V15.5424H124.852V15.6034C124.835 15.8058 124.861 16.0096 124.927 16.2016C124.994 16.3936 125.1 16.5697 125.239 16.7184C125.377 16.8672 125.546 16.9855 125.733 17.0656C125.92 17.1457 126.122 17.1859 126.326 17.1836C126.587 17.2149 126.851 17.168 127.086 17.0489C127.32 16.9299 127.514 16.744 127.642 16.5149L128.693 16.5149ZM124.852 14.7373H127.646C127.66 14.5521 127.635 14.3662 127.572 14.1914C127.51 14.0165 127.411 13.8567 127.283 13.7221C127.155 13.5875 127 13.4812 126.828 13.4099C126.656 13.3387 126.471 13.304 126.285 13.3083C126.096 13.3059 125.909 13.3413 125.734 13.4123C125.559 13.4833 125.4 13.5884 125.266 13.7216C125.133 13.8548 125.028 14.0133 124.956 14.1877C124.885 14.3621 124.85 14.549 124.852 14.7373H124.852Z" fill="white"/>
</g>
<defs>
<clipPath id="clip0_320_20664">
<rect width="147" height="49" fill="white"/>
</clipPath>
</defs>
</svg>
