<svg width="146" height="41" viewBox="0 0 146 41" fill="none" xmlns="http://www.w3.org/2000/svg">
<path fill-rule="evenodd" clip-rule="evenodd" d="M139.909 22.3622H145.412C145.453 22.3622 145.487 22.3259 145.487 22.2812V16.8726C145.486 15.5506 145.047 14.4752 144.159 13.7236C143.342 13.0324 142.115 12.6155 140.474 12.5333C140.433 12.5309 140.399 12.5659 140.399 12.6094V14.6492C140.399 14.689 140.429 14.7217 140.467 14.7253C141.906 14.8256 143.001 15.2884 143.001 16.9004L139.909 16.9016C139.868 16.9016 139.834 16.9378 139.834 16.9825V22.2824C139.834 22.3259 139.868 22.3622 139.909 22.3622ZM20.8762 26.7401H14.2032C14.0989 26.7401 14.0323 26.8331 14.0323 26.925V30.4969C14.0323 30.6093 14.1171 30.6818 14.2032 30.6818H16.5734V33.5577C16.5734 35.6965 16.0497 36.8445 14.2032 36.8445C12.661 36.8445 11.5663 35.9128 11.5663 33.0152V24.6641C11.5663 21.8897 12.3955 20.5895 14.2323 20.5895C15.8884 20.5895 16.5637 21.6033 16.5637 23.4968V24.5723C16.5637 24.6847 16.6498 24.756 16.7359 24.756H20.8387C20.9429 24.756 21.0096 24.6641 21.0096 24.5723V23.3108C21.0472 18.818 18.6491 16.4424 14.3087 16.4424C9.96831 16.4424 7.14101 19.0126 7.14101 24.4176V33.3535C7.14101 38.6764 10.4339 40.9904 14.0892 40.9904C18.1823 40.9904 21.0375 39.3832 21.0375 33.4357V26.9141C21.0392 26.8688 21.0235 26.8244 20.9935 26.7902C20.9635 26.7562 20.9216 26.7347 20.8762 26.7304V26.7401ZM33.65 36.2572H27.234V17.0744C27.234 16.9608 27.1492 16.8895 27.0631 16.8895H23.0258C22.9215 16.8895 22.8561 16.9813 22.8561 17.0744V40.3826C22.8561 40.4949 22.9409 40.5662 23.0258 40.5662H33.6403C33.7446 40.5662 33.8113 40.4744 33.8113 40.3826V36.4517C33.8113 36.3394 33.7264 36.2669 33.6403 36.2669H33.65V36.2572ZM93.9425 24.478C93.9425 19.1044 96.7116 16.4835 100.948 16.4835C105.127 16.4835 107.935 19.1141 107.915 24.478V32.9946C107.915 38.4407 105.317 40.9481 100.948 40.9481C96.5782 40.9481 93.9425 38.4915 93.9425 32.9946V24.478ZM100.948 36.8638C102.718 36.8638 103.451 35.5745 103.451 32.8315V24.6726C103.451 21.9296 102.737 20.5992 100.948 20.5992C99.1582 20.5992 98.4441 21.9803 98.4441 24.6726V32.8315C98.4441 35.5853 99.1776 36.8638 100.948 36.8638ZM116.626 16.4835C112.39 16.4835 109.62 19.1044 109.62 24.478V32.9946C109.62 38.4927 112.257 40.9481 116.626 40.9481C120.996 40.9481 123.594 38.4407 123.594 32.9946V24.478C123.613 19.1141 120.805 16.4835 116.626 16.4835ZM119.13 32.8327C119.13 35.5757 118.396 36.865 116.626 36.865C114.856 36.865 114.123 35.5853 114.123 32.8327V24.6738C114.123 21.9815 114.837 20.6004 116.626 20.6004C118.416 20.6004 119.13 21.9296 119.13 24.6738V32.8327ZM79.1512 16.8822H85.2047V16.9028C89.2978 16.9028 92.3821 19.1443 92.3821 24.6726V32.7904C92.3821 38.2667 89.3741 40.5602 85.1562 40.5602H79.1512C79.0651 40.5602 78.9791 40.4877 78.9791 40.3753V17.0877C78.9791 16.9849 79.0457 16.8822 79.1512 16.8822ZM84.9671 36.25C86.7942 36.25 87.9375 35.0005 87.9375 32.0835L87.9459 32.0932V24.9795C87.9459 22.0311 86.7469 20.8433 84.9283 20.8433H83.2625V36.25H84.9671ZM57.0771 16.4424H57.0105C52.841 16.4424 50.643 19.0017 50.643 22.8407C50.643 26.8368 53.2326 28.6964 55.3689 30.2299L55.7823 30.5283L56.2782 30.8872L56.2794 30.8884L56.2806 30.8896C57.7888 31.9772 58.9527 32.8158 58.9527 34.6634C58.9527 36.2101 58.001 36.8239 56.8965 36.8541C55.678 36.8843 54.793 35.8814 54.793 34.6223V32.585C54.7935 32.5545 54.7879 32.5243 54.7766 32.496C54.7654 32.4679 54.7486 32.442 54.7273 32.4203C54.7061 32.3985 54.6806 32.3811 54.6526 32.3692C54.6245 32.3572 54.5944 32.3509 54.5639 32.3505H50.6612C50.5278 32.3505 50.4332 32.4521 50.4332 32.5862V34.6525C50.4332 38.7368 52.7368 41 56.7922 41C60.8465 41 63.3028 38.686 63.3028 34.6223C63.3028 30.3906 60.7883 28.5623 58.5975 26.9673L58.5247 26.9141C58.2854 26.7396 58.0445 26.5673 57.8022 26.3969C56.3012 25.3336 54.907 24.3463 54.907 22.8093C54.907 21.2843 55.8769 20.5678 57.0008 20.5678C58.2107 20.5678 59.0667 21.4994 59.0667 22.7283V24.5288C59.0667 24.6617 59.1722 24.7644 59.2958 24.7644H63.1985C63.3319 24.7644 63.4265 24.6629 63.4265 24.53V22.7791C63.4362 18.7673 61.0089 16.4629 57.0771 16.4424ZM71.0961 16.4424H71.1628C75.0946 16.4629 77.5121 18.7661 77.5121 22.7791V24.53C77.5121 24.6629 77.4175 24.7644 77.2841 24.7644H73.3802C73.3498 24.7639 73.3199 24.7575 73.2918 24.7454C73.264 24.7335 73.2387 24.7161 73.2175 24.6942C73.1964 24.6725 73.1797 24.6467 73.1685 24.6186C73.1574 24.5904 73.1518 24.5603 73.1523 24.53V22.7283C73.1523 21.4994 72.2963 20.5678 71.0864 20.5678C69.9637 20.5678 68.9926 21.2843 68.9926 22.8093C68.9926 24.3451 70.3868 25.3336 71.8878 26.3969C72.1278 26.5661 72.3703 26.7389 72.6104 26.9141L72.6831 26.9673C74.8751 28.5623 77.3884 30.3906 77.3884 34.6223C77.3884 38.686 74.9321 41 70.8778 41C66.8224 41 64.5188 38.738 64.5188 34.6537V32.585C64.5188 32.452 64.6146 32.3505 64.7468 32.3505H68.6507C68.7743 32.3505 68.8786 32.4521 68.8786 32.5862V34.6211C68.8786 35.8802 69.7636 36.8831 70.9821 36.8529C72.0854 36.8227 73.0383 36.2077 73.0383 34.6622C73.0383 32.8134 71.8744 31.976 70.3674 30.8884C70.205 30.7712 70.0377 30.6516 69.8691 30.5259L69.4593 30.2311L69.4557 30.2287C67.3183 28.6952 64.7274 26.8356 64.7274 22.8395C64.7274 19.0005 66.9279 16.4412 71.0961 16.4412V16.4424ZM138.348 24.1735V22.2184C138.348 19.2398 136.044 16.8955 133.397 16.8955H125.535C125.44 16.8955 125.364 16.9777 125.364 17.0792V40.3681C125.364 40.4696 125.44 40.5517 125.535 40.5517H129.381C129.485 40.5517 129.552 40.4599 129.552 40.3681V30.6733H131.437C133.189 30.6733 133.741 31.3694 133.741 33.1408V40.3475C133.741 40.4599 133.827 40.5312 133.911 40.5312H137.881C137.929 40.53 137.974 40.51 138.008 40.4759C138.042 40.4415 138.062 40.3955 138.062 40.3475V33.2737C138.062 30.857 137.443 29.3115 135.863 28.6771C137.453 27.9811 138.348 26.5891 138.348 24.1735ZM134.045 24.9928C134.045 25.9643 133.321 26.7425 132.426 26.7425H129.504V20.8263H132.426C133.321 20.8263 134.045 21.6045 134.045 22.5664V24.9928ZM40.5692 16.8955H44.6634C44.7398 16.8955 44.815 16.9559 44.8344 17.049L50.1459 40.3064C50.1944 40.4394 50.0974 40.5626 49.9749 40.5626H46.0528C45.9862 40.5626 45.9001 40.501 45.8819 40.4079L45.0441 36.2427H40.1509L39.3143 40.4079C39.3084 40.4496 39.2878 40.4878 39.2564 40.516C39.2249 40.544 39.1844 40.5601 39.1422 40.5614H35.2201C35.1061 40.5614 35.02 40.4394 35.0491 40.3064L40.397 17.049C40.401 17.0065 40.4209 16.967 40.4529 16.9386C40.4848 16.9101 40.5264 16.8947 40.5692 16.8955ZM42.5599 24.2859L40.9414 32.3324H44.2148L42.5975 24.2859L42.5781 24.3983L42.5599 24.2859ZM5.57702 16.8907H0.0751685C0.0339471 16.8907 0 16.9269 0 16.9704V22.2691C0 22.3138 0.0339471 22.3501 0.0751685 22.3501H3.16678C3.16678 23.9633 2.07198 24.4261 0.63287 24.5264C0.613899 24.5279 0.596255 24.5366 0.583608 24.5509C0.570963 24.565 0.564289 24.5835 0.564976 24.6025V26.6434C0.564976 26.6857 0.600136 26.7208 0.640145 26.7183C2.28052 26.6362 3.50746 26.2193 4.32461 25.5281C5.2133 24.7765 5.65219 23.7011 5.6534 22.3791V16.9704C5.6534 16.9257 5.61945 16.8895 5.57823 16.8895L5.57702 16.8907Z" fill="#00A264"/>
<path d="M22.355 6.25247L18 1.90234H60.7287L65.0837 6.25247L60.7287 10.6026H18L22.355 6.25247Z" fill="#02A264"/>
<path d="M27.7191 3.43555L28.4085 5.38052H30.6395L28.8346 6.58257L29.524 8.52754L27.7191 7.32548L25.9142 8.52754L26.6036 6.58257L24.7987 5.38052H27.0297L27.7191 3.43555Z" fill="white"/>
<path d="M34.891 3.43555L35.5804 5.38052H37.8114L36.0065 6.58257L36.6959 8.52754L34.891 7.32548L33.0861 8.52754L33.7755 6.58257L31.9706 5.38052H34.2016L34.891 3.43555Z" fill="white"/>
<path d="M42.0629 3.43555L42.7523 5.38052H44.9832L43.1783 6.58257L43.8678 8.52754L42.0629 7.32548L40.258 8.52754L40.9474 6.58257L39.1425 5.38052H41.3735L42.0629 3.43555Z" fill="white"/>
<path d="M49.2113 3.43555L49.9007 5.38052H52.1317L50.3268 6.58257L51.0162 8.52754L49.2113 7.32548L47.4064 8.52754L48.0958 6.58257L46.2909 5.38052H48.5219L49.2113 3.43555Z" fill="white"/>
<path d="M56.391 3.43555L57.0804 5.38052H59.3114L57.5065 6.58257L58.1959 8.52754L56.391 7.32548L54.5861 8.52754L55.2755 6.58257L53.4706 5.38052H55.7016L56.391 3.43555Z" fill="white"/>
<path d="M0.514915 8.65057V7.60298L3.60085 2.72727H4.47443V4.21875H3.94176L1.86435 7.51065V7.56747H6.17188V8.65057H0.514915ZM3.98438 10V8.33097L3.99858 7.86222V2.72727H5.24148V10H3.98438ZM7.90749 10.0781C7.69206 10.0781 7.5074 10.0024 7.35352 9.85085C7.19963 9.69934 7.12388 9.51468 7.12624 9.29688C7.12388 9.08381 7.19963 8.90152 7.35352 8.75C7.5074 8.59848 7.69206 8.52273 7.90749 8.52273C8.11583 8.52273 8.29693 8.59848 8.45082 8.75C8.60707 8.90152 8.68638 9.08381 8.68874 9.29688C8.68638 9.44129 8.6485 9.57268 8.57511 9.69105C8.50408 9.80942 8.40939 9.90412 8.29102 9.97514C8.17501 10.0438 8.04717 10.0781 7.90749 10.0781ZM12.4423 10.0994C11.9688 10.0994 11.545 10.0107 11.171 9.8331C10.7969 9.65317 10.4998 9.40696 10.2797 9.09446C10.0618 8.78196 9.94585 8.42448 9.93164 8.02202H11.21C11.2337 8.32031 11.3627 8.56416 11.5971 8.75355C11.8315 8.94058 12.1132 9.03409 12.4423 9.03409C12.7003 9.03409 12.93 8.97491 13.1312 8.85653C13.3324 8.73816 13.4911 8.57363 13.6071 8.36293C13.7231 8.15223 13.7799 7.91193 13.7775 7.64205C13.7799 7.36742 13.7219 7.12358 13.6035 6.91051C13.4851 6.69744 13.323 6.53054 13.117 6.4098C12.911 6.28669 12.6743 6.22514 12.4068 6.22514C12.189 6.22277 11.9747 6.26302 11.764 6.34588C11.5533 6.42874 11.3864 6.53764 11.2633 6.67259L10.0737 6.47727L10.4537 2.72727H14.6724V3.82812H11.5439L11.3343 5.75639H11.377C11.5119 5.59777 11.7025 5.46638 11.9487 5.36222C12.1949 5.25568 12.4648 5.20241 12.7583 5.20241C13.1987 5.20241 13.5917 5.30658 13.9373 5.51491C14.283 5.72088 14.5552 6.00497 14.7541 6.36719C14.9529 6.7294 15.0524 7.1437 15.0524 7.61009C15.0524 8.09067 14.9411 8.51918 14.7186 8.8956C14.4984 9.26965 14.1918 9.56439 13.7988 9.77983C13.4082 9.9929 12.956 10.0994 12.4423 10.0994Z" fill="#02A264"/>
</svg>
