<svg width="100" height="24" viewBox="0 0 100 24" fill="none" xmlns="http://www.w3.org/2000/svg">
<path d="M13.9994 11.8167L3.75953 -1.64334e-07L-9.09701e-07 3.18847L7.71839 12.0899L0.157375 20.815L3.9169 24L14.2757 12.0484L13.9994 11.8167Z" fill="#024430"/>
<path d="M21.9938 12.0899L14.4328 20.815L18.1923 24L28.5511 12.0484L28.2748 11.8167L18.0349 -1.64334e-07L14.2754 3.18847L21.9938 12.0899Z" fill="#024430"/>
<path d="M36.2657 12.0899L28.7082 20.815L32.4677 24L42.8265 12.0484L42.5502 11.8167L32.3103 -1.64334e-07L28.5508 3.18847L36.2657 12.0899Z" fill="#024430"/>
<path d="M50.5411 12.0899L42.9835 20.815L46.7431 24L57.1019 12.0484L56.8256 11.8167L46.5857 -1.64334e-07L42.8262 3.18847L50.5411 12.0899Z" fill="#024430"/>
<path d="M57.1035 3.18847L64.8184 12.0899L57.2609 20.815L61.0204 24L71.3792 12.0484L71.1029 11.8167L60.863 -1.64334e-07L57.1035 3.18847Z" fill="#024430"/>
<path d="M71.3789 3.18847L79.0938 12.0899L71.5363 20.815L75.2958 24L85.6546 12.0484L85.3783 11.8167L75.1384 -1.64334e-07L71.3789 3.18847Z" fill="#024430"/>
<path d="M85.6543 3.18847L93.3692 12.0899L85.8117 20.815L89.5712 24L99.93 12.0484L99.6537 11.8167L89.4138 -1.64334e-07L85.6543 3.18847Z" fill="#024430"/>
</svg>
