<svg width="147" height="147" viewBox="0 0 147 147" fill="none" xmlns="http://www.w3.org/2000/svg">
<g clip-path="url(#clip0_320_20747)">
<path d="M73.4954 146.991C114.086 146.991 146.991 114.086 146.991 73.4954C146.991 32.905 114.086 0 73.4954 0C32.905 0 0 32.905 0 73.4954C0 114.086 32.905 146.991 73.4954 146.991Z" fill="white"/>
<path d="M73.4953 140.531C60.2368 140.531 47.2762 136.599 36.2522 129.233C25.2282 121.867 16.6361 111.398 11.5623 99.1487C6.48852 86.8996 5.16099 73.4209 7.74758 60.4172C10.3342 47.4136 16.7187 35.4689 26.0938 26.0938C35.4689 16.7187 47.4136 10.3342 60.4172 7.74758C73.4209 5.16099 86.8996 6.48852 99.1487 11.5623C111.398 16.6361 121.867 25.2282 129.233 36.2522C136.599 47.2762 140.531 60.2368 140.531 73.4953C140.511 91.2683 133.443 108.308 120.875 120.875C108.308 133.443 91.2683 140.511 73.4953 140.531V140.531ZM73.4953 7.85493C60.5183 7.85493 47.8328 11.703 37.0429 18.9126C26.2529 26.1223 17.8432 36.3695 12.8771 48.3587C7.91105 60.3478 6.6117 73.5403 9.14338 86.2679C11.6751 98.9955 17.9241 110.687 27.1001 119.863C36.2762 129.039 47.9673 135.288 60.6949 137.819C73.4225 140.351 86.615 139.052 98.6041 134.086C110.593 129.12 120.841 120.71 128.05 109.92C135.26 99.13 139.108 86.4445 139.108 73.4675C139.079 56.075 132.156 39.4032 119.858 27.1048C107.56 14.8064 90.8878 7.88425 73.4953 7.85493V7.85493Z" fill="#6B6B6B"/>
<path d="M73.4955 7.85498C60.5185 7.85498 47.833 11.7031 37.043 18.9127C26.2531 26.1223 17.8434 36.3696 12.8773 48.3587C7.91124 60.3479 6.61189 73.5404 9.14357 86.268C11.6752 98.9956 17.9242 110.687 27.1003 119.863C36.2764 129.039 47.9675 135.288 60.6951 137.819C73.4227 140.351 86.6152 139.052 98.6043 134.086C110.593 129.12 120.841 120.71 128.05 109.92C135.26 99.1301 139.108 86.4445 139.108 73.4676C139.079 56.0751 132.157 39.4033 119.858 27.1049C107.56 14.8065 90.888 7.8843 73.4955 7.85498V7.85498Z" fill="#F4DBB4"/>
<path d="M74.1884 7.16187H72.8022V139.838H74.1884V7.16187Z" fill="#6B6B6B"/>
<path d="M41.2236 15.7307L40.0176 16.4238L106.356 131.852L107.562 131.159L41.2236 15.7307Z" fill="#6B6B6B"/>
<path d="M16.3952 39.7378L15.7021 40.9382L130.603 107.276L131.296 106.076L16.3952 39.7378Z" fill="#6B6B6B"/>
<path d="M139.838 72.8022H7.16211V74.1884H139.838V72.8022Z" fill="#6B6B6B"/>
<path d="M130.603 39.733L15.7021 106.071L16.3952 107.272L131.296 40.9335L130.603 39.733Z" fill="#6B6B6B"/>
<path d="M106.067 15.6943L39.7285 130.595L40.929 131.288L107.267 16.3874L106.067 15.6943Z" fill="#6B6B6B"/>
<path d="M134.857 73.4955C134.857 85.6316 131.258 97.4953 124.516 107.586C117.773 117.677 108.19 125.542 96.9776 130.186C85.7652 134.831 73.4274 136.046 61.5244 133.678C49.6214 131.31 38.6878 125.466 30.1062 116.885C21.5246 108.303 15.6805 97.3695 13.3129 85.4665C10.9452 73.5635 12.1604 61.2257 16.8047 50.0134C21.449 38.801 29.3139 29.2176 39.4048 22.4751C49.4956 15.7326 61.3593 12.1338 73.4955 12.1338C81.5536 12.1338 89.5328 13.721 96.9776 16.8047C104.422 19.8884 111.187 24.4082 116.885 30.1062C122.583 35.8042 127.103 42.5686 130.186 50.0134C133.27 57.4581 134.857 65.4373 134.857 73.4955Z" fill="white"/>
<path d="M73.4952 135.55C61.2219 135.55 49.2243 131.911 39.0194 125.092C28.8146 118.273 20.8609 108.582 16.1641 97.2428C11.4673 85.9038 10.2384 73.4266 12.6328 61.3892C15.0272 49.3517 20.9374 38.2946 29.6159 29.6161C38.2944 20.9376 49.3515 15.0275 61.3889 12.6331C73.4264 10.2387 85.9035 11.4676 97.2425 16.1643C108.582 20.8611 118.273 28.8148 125.092 39.0197C131.911 49.2245 135.55 61.2222 135.55 73.4955C135.53 89.9474 128.986 105.72 117.353 117.353C105.72 128.986 89.9471 135.531 73.4952 135.55V135.55ZM73.4952 12.8269C61.4961 12.8269 49.7665 16.385 39.7896 23.0514C29.8127 29.7177 22.0366 39.1929 17.4448 50.2786C12.8529 61.3643 11.6515 73.5628 13.9924 85.3313C16.3333 97.0999 22.1114 107.91 30.5961 116.395C39.0807 124.879 49.8908 130.657 61.6594 132.998C73.4279 135.339 85.6263 134.138 96.7121 129.546C107.798 124.954 117.273 117.178 123.939 107.201C130.606 97.2242 134.164 85.4946 134.164 73.4955C134.147 57.4104 127.749 41.9891 116.375 30.6152C105.002 19.2414 89.5803 12.844 73.4952 12.8269V12.8269Z" fill="#6B6B6B"/>
<path d="M16.3952 39.7378L15.7021 40.9382L130.603 107.276L131.296 106.076L16.3952 39.7378Z" fill="#6B6B6B"/>
<path d="M130.603 39.733L15.7021 106.071L16.3952 107.272L131.296 40.9335L130.603 39.733Z" fill="#6B6B6B"/>
<path d="M73.4956 114.961C65.2945 114.961 57.2777 112.529 50.4587 107.973C43.6398 103.416 38.3251 96.9403 35.1867 89.3635C32.0482 81.7867 31.2271 73.4494 32.827 65.4059C34.427 57.3624 38.3762 49.974 44.1752 44.175C49.9742 38.3759 57.3626 34.4267 65.4061 32.8268C73.4496 31.2268 81.7869 32.048 89.3637 35.1864C96.9405 38.3248 103.417 43.6395 107.973 50.4585C112.529 57.2774 114.961 65.2943 114.961 73.4954C114.949 84.4889 110.576 95.0287 102.803 102.802C95.0289 110.576 84.4892 114.948 73.4956 114.961" fill="#F4DBB4"/>
<path d="M73.4953 115.654C65.1572 115.654 57.0063 113.181 50.0734 108.549C43.1405 103.916 37.7369 97.3321 34.5461 89.6287C31.3552 81.9252 30.5203 73.4486 32.147 65.2707C33.7737 57.0927 37.7889 49.5808 43.6848 43.6848C49.5808 37.7889 57.0927 33.7737 65.2707 32.147C73.4486 30.5203 81.9252 31.3552 89.6287 34.5461C97.3321 37.7369 103.916 43.1405 108.549 50.0734C113.181 57.0063 115.654 65.1572 115.654 73.4953C115.642 84.6727 111.196 95.3888 103.292 103.292C95.3888 111.196 84.6727 115.642 73.4953 115.654V115.654ZM73.4953 32.7324C65.431 32.7324 57.5477 35.1238 50.8425 39.6044C44.1374 44.0849 38.9115 50.4532 35.8258 57.9039C32.7402 65.3546 31.9333 73.553 33.5072 81.4623C35.0812 89.3715 38.9653 96.6365 44.6683 102.338C50.3713 108.04 57.6371 111.922 65.5467 113.495C73.4564 115.067 81.6546 114.258 89.1046 111.171C96.5546 108.083 102.922 102.856 107.401 96.1497C111.88 89.4435 114.269 81.5597 114.268 73.4953C114.255 62.6865 109.955 52.324 102.312 44.6818C94.6677 37.0396 84.3042 32.7421 73.4953 32.7324V32.7324Z" fill="#6B6B6B"/>
<path d="M23.685 61.9993H22.2988V84.9914H23.685V61.9993Z" fill="#6B6B6B"/>
<path d="M27.3263 66.8232L22.9921 62.9327L18.6672 66.8232L17.7339 65.7975L22.9921 61.0752L28.2504 65.7975L27.3263 66.8232Z" fill="#6B6B6B"/>
<path d="M27.3263 71.4624L22.9921 67.5718L18.6672 71.4624L17.7339 70.4366L22.9921 65.7051L28.2504 70.4366L27.3263 71.4624Z" fill="#6B6B6B"/>
<path d="M27.3263 76.1015L22.9921 72.211L18.6672 76.1015L17.7339 75.0665L22.9921 70.3442L28.2504 75.0665L27.3263 76.1015Z" fill="#6B6B6B"/>
<path d="M27.3263 80.7404L22.9921 76.8406L18.6672 80.7404L17.7339 79.7054L22.9921 74.9832L28.2504 79.7054L27.3263 80.7404Z" fill="#6B6B6B"/>
<path d="M124.692 61.9993H123.306V84.9914H124.692V61.9993Z" fill="#6B6B6B"/>
<path d="M128.333 66.8232L123.998 62.9327L119.674 66.8232L118.74 65.7975L123.998 61.0752L129.257 65.7975L128.333 66.8232Z" fill="#6B6B6B"/>
<path d="M128.333 71.4624L123.998 67.5718L119.674 71.4624L118.74 70.4366L123.998 65.7051L129.257 70.4366L128.333 71.4624Z" fill="#6B6B6B"/>
<path d="M128.333 76.1015L123.998 72.211L119.674 76.1015L118.74 75.0665L123.998 70.3442L129.257 75.0665L128.333 76.1015Z" fill="#6B6B6B"/>
<path d="M128.333 80.7404L123.998 76.8406L119.674 80.7404L118.74 79.7054L123.998 74.9832L129.257 79.7054L128.333 80.7404Z" fill="#6B6B6B"/>
<path d="M73.4956 107.087C70.1182 107.078 66.7885 106.29 63.7646 104.786C60.6425 105.247 57.4547 104.921 54.4903 103.838C51.5259 102.755 48.8787 100.95 46.7885 98.5853C40.6061 91.6174 38.2773 74.1238 39.0351 64.6885L39.2846 61.4541L42.5283 61.6204C48.1046 62.041 53.611 63.1236 58.9314 64.8456C62.3381 59.1159 66.4212 53.8166 71.0929 49.0616L73.4956 46.7144L75.9076 49.0616C80.5778 53.8213 84.6607 59.1235 88.069 64.8549C93.3894 63.1329 98.8959 62.0502 104.472 61.6297L107.707 61.4633L107.965 64.6978C108.714 74.1238 106.394 91.6174 100.23 98.5945C98.4613 100.609 96.282 102.221 93.8386 103.324C91.3953 104.427 88.7444 104.995 86.0637 104.989C85.1358 104.989 84.2092 104.921 83.2913 104.786C80.2597 106.296 76.9195 107.084 73.5326 107.087" fill="#F4DBB4"/>
<path d="M71.5641 98.2895C74.7752 95.4661 76.736 91.4849 77.0166 87.2183C77.2972 82.9517 75.8749 78.7479 73.0612 75.5283C67.6551 69.309 51.5477 64.8363 42.3896 64.3557H41.7982V64.9472C41.0681 74.0867 43.4062 90.6377 48.8585 96.8201C51.6802 100.031 55.6599 101.991 59.9249 102.272C64.19 102.552 68.3923 101.13 71.6103 98.3172" fill="white"/>
<path d="M42.8094 64.554L41.8921 65.3582L70.7009 98.2199L71.6182 97.4157L42.8094 64.554Z" fill="#6B6B6B"/>
<path d="M54.4221 67.4917L53.8008 78.6748L55.0095 78.742L55.6308 67.5589L54.4221 67.4917Z" fill="#6B6B6B"/>
<path d="M63.619 70.0789L62.5845 88.699L63.7932 88.7661L64.8277 70.1461L63.619 70.0789Z" fill="#6B6B6B"/>
<path d="M43.2849 77.2609L43.1929 78.468L54.3608 79.3195L54.4528 78.1124L43.2849 77.2609Z" fill="#6B6B6B"/>
<path d="M45.428 86.7765L45.3359 87.9836L63.1475 89.3417L63.2395 88.1346L45.428 86.7765Z" fill="#6B6B6B"/>
<path d="M71.5641 98.2895C74.7752 95.4661 76.736 91.4849 77.0166 87.2183C77.2972 82.9517 75.8749 78.7479 73.0612 75.5283C67.6551 69.309 51.5477 64.8363 42.3896 64.3557H41.7982V64.9379C41.0681 74.0867 43.4062 90.6377 48.8585 96.8201C51.6802 100.031 55.6599 101.991 59.9249 102.272C64.19 102.552 68.3923 101.13 71.6103 98.3172M42.9164 65.6125C51.9543 66.2317 67.0637 70.4919 72.1463 76.3416C73.437 77.8136 74.425 79.5255 75.0541 81.3794C75.6831 83.2333 75.9409 85.193 75.8126 87.1465C75.6843 89.1 75.1725 91.0092 74.3064 92.7649C73.4403 94.5206 72.2368 96.0886 70.7648 97.3792C69.2927 98.6698 67.5808 99.6579 65.7269 100.287C63.873 100.916 61.9133 101.174 59.9598 101.045C58.0063 100.917 56.0972 100.405 54.3414 99.5392C52.5857 98.6731 51.0178 97.4697 49.7271 95.9976C44.589 90.1849 42.3342 74.6504 42.9164 65.6125" fill="#6B6B6B"/>
<path d="M75.4358 98.2895C72.2212 95.4688 70.2571 91.4878 69.9747 87.2205C69.6923 82.9531 71.1146 78.7481 73.9295 75.5283C79.3448 69.309 95.443 64.8363 104.61 64.3557H105.202V64.9472C105.932 74.0867 103.594 90.6377 98.1415 96.8201C95.3198 100.031 91.3401 101.991 87.075 102.272C82.81 102.552 78.6077 101.13 75.3896 98.3172" fill="white"/>
<path d="M104.187 64.5629L75.3784 97.4246L76.2957 98.2287L105.104 65.367L104.187 64.5629Z" fill="#6B6B6B"/>
<path d="M92.5588 67.5093L91.3501 67.5764L91.9714 78.7595L93.1801 78.6924L92.5588 67.5093Z" fill="#6B6B6B"/>
<path d="M83.3635 70.0923L82.1548 70.1594L83.1893 88.7795L84.398 88.7123L83.3635 70.0923Z" fill="#6B6B6B"/>
<path d="M103.702 77.2659L92.5337 78.1174L92.6257 79.3245L103.794 78.473L103.702 77.2659Z" fill="#6B6B6B"/>
<path d="M101.566 86.7789L83.7549 88.137L83.8469 89.3441L101.658 87.986L101.566 86.7789Z" fill="#6B6B6B"/>
<path d="M75.4358 98.2895C72.2212 95.4688 70.2571 91.4878 69.9747 87.2205C69.6923 82.9531 71.1146 78.7481 73.9295 75.5283C79.3448 69.309 95.443 64.8363 104.61 64.3557H105.202V64.9379C105.932 74.0867 103.594 90.6377 98.1415 96.8201C95.3198 100.031 91.3401 101.991 87.075 102.272C82.81 102.552 78.6077 101.13 75.3896 98.3172M104.037 65.631C95.0457 66.2224 79.9363 70.4826 74.8536 76.3323C72.2471 79.3053 70.9283 83.1919 71.1874 87.1373C71.4465 91.0826 73.2622 94.7634 76.2352 97.3699C79.2081 99.9765 83.0948 101.295 87.0401 101.036C90.9854 100.777 94.6662 98.9614 97.2728 95.9884C102.402 90.1757 104.666 74.6412 104.074 65.6033" fill="#6B6B6B"/>
<path d="M73.4953 104.352C68.3988 104.347 63.5126 102.32 59.9088 98.7165C56.3051 95.1128 54.2784 90.2265 54.2735 85.1301C54.2366 75.3159 65.1504 58.6448 73.0055 51.0115L73.5045 50.5217L74.0128 51.0115C81.8493 58.6448 92.7632 75.3159 92.7262 85.1393C92.7189 90.2341 90.6911 95.118 87.0876 98.7198C83.4842 102.321 78.5993 104.347 73.5045 104.352" fill="white"/>
<path d="M74.2253 51.5291H72.7744V103.631H74.2253V51.5291Z" fill="#6B6B6B"/>
<path d="M64.6661 63.299L63.6299 64.3145L72.9762 73.8519L74.0125 72.8365L64.6661 63.299Z" fill="#6B6B6B"/>
<path d="M58.4576 72.8371L57.4214 73.8525L72.9835 89.733L74.0197 88.7175L58.4576 72.8371Z" fill="#6B6B6B"/>
<path d="M82.3298 63.2898L72.9868 72.8306L74.0234 73.8457L83.3664 64.3049L82.3298 63.2898Z" fill="#6B6B6B"/>
<path d="M87.8841 73.5102L72.9844 88.72L74.0208 89.7353L88.9205 74.5255L87.8841 73.5102Z" fill="#6B6B6B"/>
<path d="M73.4953 104.361C68.398 104.354 63.5117 102.325 59.9083 98.7198C56.3048 95.1146 54.2784 90.2273 54.2735 85.1301C54.2366 75.3159 65.1504 58.6448 73.0055 51.0115L73.5045 50.5217L74.0128 51.0115C81.8493 58.6448 92.7632 75.3159 92.7262 85.1393C92.7189 90.235 90.6914 95.1198 87.0882 98.723C83.485 102.326 78.6002 104.354 73.5045 104.361M73.5045 52.5548C65.8897 60.2065 55.6874 75.8981 55.7244 85.1301C55.6704 87.4985 56.0902 89.8538 56.9593 92.0577C57.8283 94.2616 59.129 96.2696 60.785 97.9637C62.4409 99.6578 64.4187 101.004 66.6022 101.923C68.7857 102.842 71.1309 103.316 73.4999 103.316C75.8689 103.316 78.214 102.842 80.3975 101.923C82.581 101.004 84.5589 99.6578 86.2148 97.9637C87.8708 96.2696 89.1714 94.2616 90.0405 92.0577C90.9095 89.8538 91.3294 87.4985 91.2754 85.1301C91.2754 75.8889 81.11 60.1788 73.4953 52.5548" fill="#6B6B6B"/>
<path d="M54.7632 55.5303H53.0351V57.2307H51.7506V55.5303H50.0225V54.3197H51.7506V52.6748H53.0351V54.3659H54.7632V55.5303Z" fill="#6B6B6B"/>
<path d="M89.8799 47.6754H88.1518V49.3665H86.8673V47.6754H85.1392V46.4555H86.8673V44.7644H88.1518V46.4555H89.8799V47.6754Z" fill="#6B6B6B"/>
<path d="M98.0215 60.1327H96.2842V61.8238H94.9996V60.1327H93.2808V58.9128H94.9996V57.2217H96.2842V58.9128H98.0215V60.1327Z" fill="#6B6B6B"/>
<path d="M66.6752 43.138H64.9379V44.8292H63.6626V43.138H61.916V41.9182H63.6441V40.2271H64.9194V41.9182H66.6568L66.6752 43.138Z" fill="#6B6B6B"/>
<path d="M73.4953 115.654C65.1572 115.654 57.0063 113.181 50.0734 108.549C43.1405 103.916 37.7369 97.3321 34.5461 89.6287C31.3552 81.9252 30.5203 73.4486 32.147 65.2707C33.7737 57.0927 37.7889 49.5808 43.6848 43.6848C49.5808 37.7889 57.0927 33.7737 65.2707 32.147C73.4486 30.5203 81.9252 31.3552 89.6287 34.5461C97.3321 37.7369 103.916 43.1405 108.549 50.0734C113.181 57.0063 115.654 65.1572 115.654 73.4953C115.642 84.6727 111.196 95.3888 103.292 103.292C95.3888 111.196 84.6727 115.642 73.4953 115.654V115.654ZM73.4953 32.7324C65.431 32.7324 57.5477 35.1238 50.8425 39.6044C44.1374 44.0849 38.9115 50.4532 35.8258 57.9039C32.7402 65.3546 31.9333 73.553 33.5072 81.4623C35.0812 89.3715 38.9653 96.6365 44.6683 102.338C50.3713 108.04 57.6371 111.922 65.5467 113.495C73.4564 115.067 81.6546 114.258 89.1046 111.171C96.5546 108.083 102.922 102.856 107.401 96.1497C111.88 89.4435 114.269 81.5597 114.268 73.4953C114.255 62.6865 109.955 52.324 102.312 44.6818C94.6677 37.0396 84.3042 32.7421 73.4953 32.7324V32.7324Z" fill="#6B6B6B"/>
<path d="M30.7762 109.798L36.1266 105.222L36.0419 106.308L34.5404 104.552L35.6272 103.623L37.7865 106.147L31.9345 111.152L30.7762 109.798Z" fill="#6B6B6B"/>
<path d="M36.1121 115.479C35.6454 115.057 35.3307 114.564 35.1681 114.002C35.0103 113.435 35.0246 112.835 35.211 112.204C35.3973 111.573 35.773 110.945 36.338 110.321C36.9031 109.697 37.4904 109.261 38.1 109.013C38.7096 108.765 39.3021 108.695 39.8775 108.801C40.4578 108.902 40.9813 109.163 41.448 109.586C41.9201 110.013 42.2323 110.508 42.3846 111.071C42.5473 111.633 42.5354 112.229 42.3491 112.861C42.1628 113.492 41.7871 114.119 41.222 114.743C40.657 115.367 40.0697 115.803 39.4601 116.051C38.8504 116.299 38.2555 116.373 37.6752 116.272C37.1052 116.171 36.5842 115.907 36.1121 115.479ZM37.1218 114.364C37.3443 114.565 37.5934 114.677 37.8692 114.7C38.1505 114.727 38.46 114.647 38.798 114.459C39.1413 114.277 39.5071 113.971 39.8952 113.542C40.2834 113.113 40.5514 112.719 40.6994 112.359C40.8528 112.004 40.9019 111.689 40.8467 111.411C40.7969 111.139 40.6608 110.902 40.4383 110.701C40.2212 110.504 39.9721 110.392 39.6908 110.365C39.415 110.342 39.1055 110.422 38.7621 110.605C38.4242 110.793 38.0611 111.101 37.673 111.53C37.2848 111.959 37.0141 112.351 36.8606 112.705C36.7127 113.065 36.6636 113.381 36.7134 113.653C36.7686 113.931 36.9047 114.167 37.1218 114.364Z" fill="#6B6B6B"/>
<path d="M43.0622 120.743C42.5342 120.398 42.1457 119.96 41.8967 119.429C41.6518 118.893 41.572 118.298 41.6575 117.644C41.743 116.99 42.0164 116.31 42.4776 115.604C42.9389 114.898 43.4517 114.375 44.0161 114.034C44.5804 113.693 45.1555 113.53 45.7414 113.545C46.3314 113.554 46.8903 113.731 47.4183 114.076C47.9524 114.425 48.3389 114.866 48.5777 115.398C48.8267 115.929 48.9084 116.521 48.823 117.175C48.7375 117.829 48.4641 118.508 48.0028 119.214C47.5415 119.92 47.0287 120.444 46.4644 120.785C45.9001 121.125 45.3229 121.291 44.733 121.283C44.1532 121.272 43.5963 121.092 43.0622 120.743ZM43.8864 119.481C44.1382 119.646 44.4022 119.718 44.6786 119.697C44.9612 119.68 45.255 119.552 45.5599 119.313C45.8709 119.078 46.1849 118.719 46.5018 118.234C46.8187 117.749 47.0222 117.317 47.1122 116.937C47.2084 116.562 47.2075 116.242 47.1094 115.976C47.0175 115.715 46.8457 115.502 46.594 115.337C46.3484 115.177 46.0844 115.105 45.8018 115.122C45.5254 115.143 45.2316 115.271 44.9206 115.505C44.6156 115.744 44.3047 116.106 43.9878 116.591C43.671 117.076 43.4644 117.506 43.3682 117.881C43.2782 118.26 43.2791 118.581 43.371 118.842C43.4691 119.108 43.6409 119.321 43.8864 119.481Z" fill="#6B6B6B"/>
<path d="M48.833 123.944L56.6957 118.933L57.8992 119.447L50.0365 124.459L48.833 123.944ZM50.843 120.951C50.4991 120.804 50.2289 120.597 50.0323 120.329C49.8385 120.055 49.7261 119.74 49.6951 119.384C49.6737 119.023 49.748 118.645 49.9182 118.247C50.0884 117.849 50.3096 117.537 50.582 117.31C50.8611 117.087 51.1667 116.95 51.4989 116.901C51.8311 116.852 52.1691 116.901 52.5129 117.048C52.8568 117.195 53.1256 117.405 53.3193 117.68C53.513 117.954 53.6221 118.268 53.6464 118.621C53.6707 118.975 53.5978 119.35 53.4276 119.748C53.2574 120.146 53.0347 120.461 52.7595 120.694C52.4871 120.921 52.1849 121.059 51.8527 121.108C51.5234 121.151 51.1868 121.099 50.843 120.951ZM51.1977 120.122C51.4202 120.217 51.6378 120.203 51.8506 120.078C52.0662 119.947 52.2547 119.693 52.4162 119.315C52.5778 118.938 52.63 118.629 52.5731 118.389C52.519 118.143 52.3807 117.972 52.1582 117.877C51.9424 117.785 51.7234 117.803 51.501 117.931C51.2883 118.055 51.1012 118.306 50.9397 118.684C50.781 119.055 50.7288 119.363 50.7829 119.61C50.8437 119.859 50.982 120.03 51.1977 120.122ZM54.2192 126.344C53.8821 126.2 53.6119 125.992 53.4085 125.722C53.2148 125.448 53.1058 125.134 53.0814 124.78C53.06 124.42 53.1344 124.041 53.3046 123.644C53.4747 123.246 53.696 122.934 53.9683 122.707C54.2407 122.481 54.543 122.343 54.8751 122.293C55.214 122.247 55.5521 122.296 55.8892 122.44C56.2398 122.59 56.5119 122.802 56.7057 123.076C56.8994 123.351 57.0084 123.665 57.0327 124.018C57.057 124.371 56.9841 124.747 56.8139 125.145C56.6438 125.543 56.4211 125.858 56.1458 126.091C55.8735 126.318 55.5712 126.456 55.2391 126.505C54.9098 126.548 54.5698 126.494 54.2192 126.344ZM54.574 125.515C54.7965 125.61 55.0141 125.595 55.2268 125.471C55.4424 125.34 55.631 125.085 55.7925 124.708C55.9511 124.337 56.0034 124.028 55.9493 123.782C55.8952 123.535 55.7569 123.365 55.5344 123.269C55.3187 123.177 55.0996 123.195 54.8773 123.323C54.6645 123.448 54.4774 123.699 54.3159 124.076C54.1544 124.454 54.1007 124.766 54.1548 125.012C54.2185 125.255 54.3582 125.422 54.574 125.515Z" fill="#6B6B6B"/>
<path d="M62.6306 128.622L63.7086 120.999L65.1679 121.205L68.8893 127.33L68.1814 127.23L68.9576 121.741L70.7 121.988L69.622 129.611L68.1736 129.406L64.4413 123.28L65.1492 123.38L64.373 128.868L62.6306 128.622Z" fill="#6B6B6B"/>
<path d="M71.6711 129.687L74.8077 121.862L76.5665 121.795L80.2999 129.358L78.4312 129.43L75.3587 122.744L76.0622 122.717L73.4958 129.617L71.6711 129.687ZM73.3231 127.973L73.7443 126.603L77.7014 126.452L78.2365 127.786L73.3231 127.973Z" fill="#6B6B6B"/>
<path d="M83.8061 128.635L82.5914 122.506L80.1744 122.985L79.8921 121.561L86.4741 120.256L86.7564 121.681L84.3394 122.16L85.5541 128.288L83.8061 128.635Z" fill="#6B6B6B"/>
<path d="M93.3928 126.075C92.3691 126.457 91.4622 126.47 90.6723 126.116C89.8824 125.761 89.2901 125.054 88.8953 123.996L87.3881 119.956L89.0577 119.333L90.5419 123.311C90.7982 123.998 91.1236 124.44 91.5181 124.638C91.9126 124.835 92.364 124.839 92.8725 124.649C93.3809 124.459 93.7196 124.161 93.8885 123.753C94.0574 123.346 94.0137 122.799 93.7574 122.112L92.2732 118.133L93.9221 117.518L95.4294 121.558C95.8242 122.616 95.8394 123.538 95.475 124.324C95.1106 125.109 94.4165 125.693 93.3928 126.075Z" fill="#6B6B6B"/>
<path d="M99.2807 123.367L95.3936 116.721L98.2707 115.038C98.8657 114.69 99.4359 114.488 99.9811 114.433C100.523 114.371 101.016 114.452 101.461 114.676C101.906 114.9 102.275 115.262 102.568 115.762C102.857 116.255 102.989 116.751 102.966 117.249C102.939 117.74 102.766 118.207 102.447 118.649C102.127 119.09 101.67 119.485 101.075 119.833L99.0525 121.016L99.3419 119.942L100.819 122.468L99.2807 123.367ZM103.506 120.896L100.434 119.456L102.077 118.495L105.168 119.924L103.506 120.896ZM99.4418 120.113L98.3361 119.791L100.273 118.658C100.748 118.381 101.043 118.072 101.159 117.732C101.271 117.387 101.222 117.033 101.011 116.672C100.796 116.305 100.512 116.089 100.159 116.023C99.8067 115.958 99.393 116.064 98.9182 116.341L96.9812 117.474L97.2372 116.343L99.4418 120.113Z" fill="#6B6B6B"/>
<path d="M106.397 119.065L104.084 110.959L105.433 109.829L113.017 113.521L111.583 114.721L105.059 111.318L105.599 110.866L107.797 117.893L106.397 119.065ZM106.653 116.699L106.147 115.358L109.183 112.815L110.422 113.541L106.653 116.699Z" fill="#6B6B6B"/>
<path d="M114.282 112.002L108.488 106.931L109.661 105.59L114.363 109.705L116.906 106.8L117.999 107.756L114.282 112.002Z" fill="#6B6B6B"/>
<path d="M38.1817 42.4773C37.7956 42.9287 37.3633 43.2876 36.8847 43.5538C36.4053 43.8096 35.9075 43.9629 35.3913 44.0136C34.8751 44.0642 34.364 44.0131 33.8579 43.8601C33.3566 43.7016 32.8858 43.434 32.4455 43.0574C32.0052 42.6809 31.6679 42.2573 31.4335 41.7866C31.2039 41.3104 31.0741 40.8134 31.0441 40.2956C31.0189 39.7722 31.0983 39.2562 31.2823 38.7478C31.4607 38.2345 31.7453 37.7494 32.1362 37.2923C32.57 36.7852 33.05 36.4044 33.5763 36.1501C34.1018 35.8854 34.6537 35.7592 35.232 35.7713L35.291 37.3271C34.8909 37.3323 34.5302 37.4099 34.209 37.5598C33.8823 37.7049 33.595 37.9224 33.3471 38.2122C33.1135 38.4853 32.9436 38.7742 32.8373 39.079C32.7311 39.3837 32.6901 39.6912 32.7143 40.0014C32.7385 40.3116 32.8243 40.6118 32.9718 40.902C33.124 41.1866 33.3395 41.4481 33.6181 41.6864C33.8968 41.9247 34.1885 42.097 34.4933 42.2033C34.8028 42.304 35.1127 42.3422 35.4229 42.318C35.7331 42.2938 36.0305 42.2056 36.3151 42.0534C36.5997 41.9011 36.8588 41.6885 37.0924 41.4154C37.3402 41.1256 37.5133 40.8104 37.6116 40.4698C37.7043 40.1245 37.7194 39.7514 37.6569 39.3506L39.203 39.1675C39.3047 39.7369 39.2683 40.3041 39.0939 40.8691C38.9243 41.4285 38.6202 41.9646 38.1817 42.4773Z" fill="#6B6B6B"/>
<path d="M41.2781 38.9513L36.3501 33.0223L38.9165 30.8892C39.4473 30.448 39.9775 30.1554 40.5069 30.0113C41.0317 29.8615 41.5323 29.8607 42.0088 30.0089C42.4852 30.1572 42.9088 30.4543 43.2796 30.9004C43.6457 31.3408 43.858 31.8088 43.9166 32.3043C43.9705 32.7942 43.8759 33.2834 43.6327 33.7719C43.3895 34.2605 43.0025 34.7253 42.4717 35.1665L40.6676 36.666L40.7776 35.5578L42.6503 37.8108L41.2781 38.9513ZM45.0473 35.8185L41.7769 34.8991L43.2422 33.6812L46.5295 34.5865L45.0473 35.8185ZM40.9044 35.7102L39.7595 35.5734L41.4874 34.1372C41.9109 33.7852 42.152 33.4321 42.2107 33.0777C42.2648 32.7177 42.158 32.3768 41.8905 32.0549C41.6183 31.7274 41.3026 31.5602 40.9435 31.5531C40.5844 31.5461 40.1931 31.7186 39.7696 32.0706L38.0417 33.5067L38.1095 32.3477L40.9044 35.7102Z" fill="#6B6B6B"/>
<path d="M50.916 32.2438C49.9621 32.7767 49.0678 32.9277 48.2332 32.6967C47.3986 32.4658 46.7059 31.8574 46.1551 30.8714L44.0521 27.107L45.6078 26.2379L47.6786 29.9447C48.0362 30.5849 48.425 30.9726 48.8448 31.1076C49.2647 31.2427 49.7115 31.1779 50.1852 30.9132C50.659 30.6485 50.9484 30.302 51.0535 29.8737C51.1587 29.4454 51.0324 28.9111 50.6747 28.2709L48.6039 24.5641L50.1404 23.7058L52.2434 27.4702C52.7942 28.4561 52.9491 29.3649 52.7082 30.1967C52.4673 31.0285 51.8699 31.7109 50.916 32.2438Z" fill="#6B6B6B"/>
<path d="M55.81 24.7424L59.3316 23.5191L59.789 24.8358L56.2674 26.0591L55.81 24.7424ZM56.9808 27.7084L60.9623 26.3254L61.4342 27.6839L55.7703 29.6514L53.2293 22.3364L58.7573 20.4161L59.2292 21.7746L55.3836 23.1104L56.9808 27.7084Z" fill="#6B6B6B"/>
<path d="M63.1894 27.4684L61.8804 19.9224L63.6267 19.6195L64.6889 25.7425L68.4727 25.0861L68.7195 26.5091L63.1894 27.4684Z" fill="#6B6B6B"/>
<path d="M71.8037 26.3568L71.6652 20.1103L69.2019 20.1649L69.1697 18.7133L75.878 18.5645L75.9102 20.0162L73.4468 20.0708L73.5853 26.3173L71.8037 26.3568Z" fill="#6B6B6B"/>
<path d="M79.2946 26.6754L79.7194 23.5582L79.9771 24.6813L77.3806 18.6434L79.2553 18.8989L81.2438 23.5328L80.1648 23.3858L83.3316 19.4544L85.0646 19.6905L80.9472 24.8135L81.4851 23.7988L81.0603 26.916L79.2946 26.6754Z" fill="#6B6B6B"/>
<path d="M91.9676 25.5202L95.3972 26.8982L94.864 28.2251L91.4345 26.8471L91.9676 25.5202ZM90.5112 29.4991L88.8577 28.8347L91.7284 21.6899L97.1279 23.8594L96.5948 25.1863L92.8488 23.6812L90.5112 29.4991Z" fill="#6B6B6B"/>
<path d="M95.6674 31.8125L99.6714 25.2675L102.504 27.0006C103.09 27.3591 103.536 27.7646 103.842 28.2171C104.151 28.6634 104.313 29.1348 104.326 29.6312C104.339 30.1276 104.195 30.622 103.894 31.1144C103.596 31.6006 103.224 31.9508 102.776 32.165C102.332 32.373 101.84 32.4408 101.302 32.3685C100.764 32.2962 100.202 32.0808 99.6158 31.7224L97.6243 30.504L98.7036 30.252L97.1821 32.7391L95.6674 31.8125ZM99.8281 34.3579L99.6447 30.982L101.262 31.9715L101.464 35.3589L99.8281 34.3579ZM98.6006 30.4203L98.3621 29.2979L100.27 30.4647C100.737 30.7507 101.147 30.8646 101.5 30.8062C101.856 30.7416 102.143 30.5316 102.361 30.1763C102.582 29.8148 102.638 29.4637 102.529 29.1232C102.421 28.7826 102.133 28.4693 101.665 28.1833L99.7578 27.0165L100.871 26.7084L98.6006 30.4203Z" fill="#6B6B6B"/>
<path d="M106.953 34.0036L109.74 36.4478L108.826 37.4899L106.039 35.0457L106.953 34.0036ZM104.964 36.4725L108.114 39.2358L107.172 40.3109L102.689 36.3799L107.766 30.5907L112.141 34.4275L111.198 35.5026L108.155 32.8336L104.964 36.4725Z" fill="#6B6B6B"/>
<path d="M112.961 40.0055L115.315 42.8692L114.244 43.7493L111.89 40.8856L112.961 40.0055ZM110.597 42.1191L113.258 45.3567L112.154 46.2648L108.368 41.6591L114.316 36.7696L118.011 41.2648L116.907 42.1729L114.336 39.0457L110.597 42.1191Z" fill="#6B6B6B"/>
</g>
<defs>
<clipPath id="clip0_320_20747">
<rect width="147" height="147" fill="white"/>
</clipPath>
</defs>
</svg>
