<svg width="143" height="128" viewBox="0 0 143 128" fill="none" xmlns="http://www.w3.org/2000/svg">
<g opacity="0.5" clip-path="url(#clip0_15_28439)">
<path d="M144.423 -8.84901V43.2836C144.423 75.6231 118.215 101.933 86.0002 101.933C53.7859 101.933 27.577 75.6227 27.577 43.2836C27.577 28.9104 15.9286 17.2173 1.61133 17.2173V4.18391C23.0877 4.18391 40.5601 21.7241 40.5601 43.2836C40.5601 68.4363 60.9446 88.8997 86.0006 88.8997C111.057 88.8997 131.441 68.4363 131.441 43.2836V-8.84945C131.441 -27.3682 144.332 -42.9207 161.579 -46.9401C163.536 -42.9984 165.199 -38.8857 166.532 -34.627C154.037 -32.7495 144.423 -21.9062 144.423 -8.84901Z" fill="white"/>
<path d="M85.9987 128C39.4667 128 1.60938 89.9965 1.60938 43.2838V30.2504C8.76801 30.2504 14.5924 36.097 14.5924 43.2838C14.5924 82.8097 46.6253 114.967 85.9987 114.967C125.372 114.967 157.405 82.8097 157.405 43.2838V-8.84927C157.405 -15.7217 162.732 -21.3649 169.459 -21.8458C170.069 -17.7462 170.388 -13.552 170.388 -9.28374V43.2838C170.388 89.9965 132.531 128 85.9987 128Z" fill="white"/>
<path d="M85.9987 75.8672C68.1017 75.8672 53.5412 61.2503 53.5412 43.284C53.5412 14.5381 30.2448 -8.84907 1.60938 -8.84907V-9.28352C1.60938 -13.5601 1.92943 -17.7629 2.54189 -21.8712C19.5448 -21.6327 35.4861 -14.8868 47.5207 -2.80564C59.7747 9.49625 66.5239 25.8644 66.5239 43.284C66.5239 54.064 75.2603 62.8338 85.9983 62.8338C96.7362 62.8338 105.473 54.0635 105.473 43.284C105.473 -8.54512 67.6045 -51.6568 18.1852 -59.6484C21.193 -63.7185 24.5555 -67.5081 28.2256 -70.9743C49.2829 -66.0812 68.6027 -55.3866 84.2503 -39.6779C106.308 -17.5348 118.455 11.9278 118.455 43.284C118.456 61.2503 103.896 75.8672 85.9987 75.8672Z" fill="white"/>
<path d="M85.9985 49.7988C82.4136 49.7988 79.5072 46.8812 79.5072 43.2824C79.5072 1.48271 46.6679 -32.7616 5.5293 -34.8186C6.91533 -39.2117 8.64905 -43.4505 10.6985 -47.5033C31.5555 -45.4416 50.8882 -36.2997 65.8862 -21.2436C83.042 -4.02089 92.4898 18.8949 92.4898 43.2824C92.4898 46.8812 89.5835 49.7988 85.9985 49.7988Z" fill="white"/>
</g>
<defs>
<clipPath id="clip0_15_28439">
<rect width="172" height="222" fill="white" transform="matrix(1 0 0 -1 0 128)"/>
</clipPath>
</defs>
</svg>
