<svg width="194" height="212" viewBox="0 0 194 212" fill="none" xmlns="http://www.w3.org/2000/svg">
<path fill-rule="evenodd" clip-rule="evenodd" d="M18.5057 0.264115C21.0747 0.0997046 23.635 0.117011 26.191 0.000193037C29.0065 -0.168544 31.5582 1.2376 34.0623 2.3279C38.9883 4.60369 42.9758 8.46301 46.1719 12.768C50.5314 18.5526 54.2983 24.8218 56.9019 31.6016C59.6266 38.4896 60.3618 45.9529 60.9197 53.2778C61.1187 55.7094 61.4603 58.1799 62.455 60.4254C63.3633 62.4329 65.8241 62.9218 67.8136 62.9521C71.1899 63.1635 74.5396 62.2374 77.3283 60.3215C79.841 58.4135 81.6272 55.7483 83.2923 53.1091C86.3672 48.259 88.6681 42.933 92.1366 38.3295C95.2936 33.9771 99.2798 30.2923 103.866 27.487C107.007 25.5957 110.277 23.9287 113.653 22.4985C114.518 23.0696 115.586 23.3984 116.248 24.268C113.194 26.639 109.67 28.2615 106.474 30.4075C102.284 33.0522 98.6187 36.4478 95.6614 40.4235C92.0804 45.1525 89.719 50.6386 86.5402 55.6229C84.4773 58.8764 82.1851 62.169 78.8376 64.2155C74.3311 66.9542 68.6137 67.9277 63.5579 66.2749C62.3901 65.88 61.3249 65.2297 60.4399 64.3713C59.5548 63.5128 58.8722 62.4678 58.4416 61.3123C56.677 56.9468 56.8587 52.1659 56.2791 47.5711C55.7342 43.2185 55.1893 38.8227 53.7621 34.6562C51.5867 28.4934 48.5273 22.6796 44.6798 17.3974C42.0503 13.7285 39.0575 10.1936 35.2343 7.73614C31.9388 5.62476 28.2151 4.32678 24.673 2.71729C22.6576 1.80438 20.5557 1.11213 18.5057 0.264115ZM37.4227 0.138644C40.1603 2.35386 43.045 4.35707 45.8389 6.53335C50.8038 10.0422 55.2541 14.3775 58.5151 19.5391C62.0288 25.3518 64.1527 31.8979 64.7213 38.6669C65.1192 42.284 64.691 46.0568 66.0187 49.5224C66.7756 51.5212 68.3974 53.4163 70.6377 53.6975C73.531 54.061 76.1519 52.313 78.1586 50.405C81.532 47.0908 83.9669 42.9849 86.7522 39.1948C89.4365 35.5637 92.404 32.1509 95.6268 28.9884C99.3808 25.3281 103.273 21.7543 107.827 19.154C106.478 18.5959 105.263 17.7609 103.887 17.2676C101.919 18.0767 100.289 19.5521 98.5807 20.7981C93.7849 24.6562 89.4137 29.0146 85.5412 33.7995C82.4446 37.5853 79.9621 41.8297 76.8915 45.6198C75.5032 47.1773 74.0716 48.9339 71.9957 49.5397C71.0832 49.8901 70.2658 49.1849 69.9457 48.3801C68.8169 45.8837 69.111 43.0801 68.8472 40.4192C68.4729 31.2187 65.4712 22.3181 60.1975 14.7712C56.4954 9.71339 51.9197 5.25268 46.4703 2.08561C45.1729 1.39768 44.0224 0.329014 42.5174 0.220849C40.8264 0.0997046 39.131 0.117011 37.44 0.138644H37.4227ZM5.96361 1.85197C11.7373 5.55554 17.7791 8.83509 23.5874 12.4911C28.4529 15.6105 33.4438 18.6911 37.7903 22.585C42.379 26.6823 45.4107 32.3458 46.7385 38.3251C47.5083 41.8989 47.8716 45.6457 47.0845 49.2498C46.1589 53.4596 44.1392 57.3016 42.539 61.2691C41.7216 63.3285 40.9778 65.5394 41.2935 67.7892C41.6481 70.4371 43.5554 72.661 45.8519 73.907C48.2089 75.205 50.9682 75.5338 53.6366 75.5641C59.3195 75.2915 64.9678 74.5517 70.6463 74.1753C74.5171 73.8162 78.4311 73.8118 82.2543 72.9768C84.4414 72.5594 86.4794 71.5713 88.1621 70.1126C90.1429 68.3171 91.4576 65.9504 92.8935 63.7266C98.5331 54.7001 105.371 46.481 113.22 39.2943C117.035 35.7551 121.304 32.5924 126.195 30.7147C125.049 29.8493 123.825 29.0619 122.623 28.2745C118.648 29.7152 115.188 32.2333 111.97 34.9201C107.688 38.61 103.681 42.6084 99.9819 46.8831C95.5273 52.0404 91.6955 57.6996 88.1275 63.5016C86.9381 65.3534 85.658 67.3739 83.5388 68.2608C80.7319 69.403 77.6483 69.4377 74.6771 69.7102C68.804 70.0304 62.9567 70.6751 57.1095 71.2072C54.2897 71.3803 51.3401 71.761 48.6414 70.7313C47.0369 70.078 45.3978 68.7238 45.4107 66.8374C45.5059 64.9942 46.3276 63.2982 47.0282 61.6195C48.9485 57.3232 51.046 52.9923 51.6472 48.272C52.3219 41.8686 50.8471 35.3571 48.1051 29.5724C45.6183 24.307 41.6178 19.8636 36.9902 16.4023C30.8033 11.8288 24.3413 7.63992 17.6407 3.85951C15.9757 2.96823 14.3712 1.92553 12.6196 1.22462C10.3812 1.01703 8.12381 1.2298 5.96361 1.85197ZM53.8442 1.52315C57.7885 5.95358 62.4248 9.95135 65.2143 15.3033C68.1379 20.664 69.1283 26.7731 71.3772 32.3977C72.2422 34.336 73.3148 36.5339 75.408 37.3776C77.5705 38.1218 79.534 36.5123 80.8357 34.9807C84.9876 30.0051 88.3178 24.2551 93.4125 20.1275C95.7306 18.2151 98.4942 16.9821 101.219 15.7706C99.6792 15.1736 98.2607 14.2866 96.6605 13.8539C94.8051 14.3948 93.14 15.4678 91.5485 16.5364C86.4754 20.1664 82.9463 25.3886 79.2745 30.3123C78.3619 31.4632 77.6051 32.8131 76.3163 33.5832C74.223 30.4205 73.4791 26.6347 72.3158 23.0869C70.5858 17.0297 67.9909 11.0936 63.7006 6.38192C62.3469 4.97145 61.136 3.31436 59.406 2.34953C57.5333 2.16349 55.6996 1.80438 53.8226 1.52315H53.8442ZM-0.852402 3.11534C4.4326 6.85784 9.5273 10.8383 14.6566 14.7971C20.3784 19.3184 26.1564 24.056 30.0445 30.3253C33.2924 35.2619 35.2992 41.1028 35.1824 47.0302C35.3078 51.1754 34.6232 55.3052 33.167 59.188C31.3852 64.2933 28.4097 68.8579 26.2472 73.7989C25.0276 76.8794 23.9421 80.1546 24.1626 83.5121C24.2134 84.4726 24.5403 85.398 25.1043 86.1771C25.6682 86.9561 26.445 87.5556 27.3414 87.9035C29.1622 88.5569 31.1603 88.3362 33.0286 88.016C37.0335 87.1507 40.8912 85.7705 44.8831 84.8879C52.5078 83.2049 60.3834 82.3958 68.1768 83.1573C72.3374 83.4601 76.5282 83.8971 80.6887 83.3866C84.3778 83.0015 88.0799 81.9112 91.0684 79.6744C93.2741 78.0779 94.9608 75.9189 96.548 73.7167C99.5235 69.4593 101.937 64.8298 105.029 60.6503C109.172 54.7056 114.544 49.7517 120.019 45.0746C124.093 41.5658 128.522 38.4203 133.452 36.2181C132.442 35.3975 131.39 34.6307 130.299 33.9207C124.828 36.1835 120.067 39.8654 115.556 43.6988C110.478 47.9864 105.673 52.6678 101.846 58.1323C98.079 63.1425 95.3587 68.8622 91.423 73.7469C89.633 76.0351 87.1607 77.6931 84.3648 78.4802C78.0246 80.3234 71.3902 79.0773 64.9332 78.8307C55.3666 78.398 45.8173 80.1287 36.7005 82.9236C34.2915 83.551 31.8609 84.5115 29.3482 84.3082C27.9339 84.1654 28.2324 82.4434 28.3707 81.444C29.4303 74.7983 33.7509 69.3814 36.1944 63.2463C39.3107 56.3367 40.31 48.6582 39.0662 41.1807C38.106 35.21 35.1738 29.7585 31.623 24.9473C27.7869 19.777 22.8306 15.6019 17.857 11.6084C13.5826 8.13245 9.02571 5.01948 4.23366 2.30194C2.50371 1.99475 0.773758 2.57884 -0.843735 3.11534H-0.852402ZM-6.47472 4.31813C-5.60975 5.18345 -4.69287 6.04877 -3.76735 6.85784C-0.852386 9.37159 1.75983 12.2098 4.59262 14.8188C11.5686 21.4168 16.5595 29.9316 19.5653 39.0131C21.4034 44.7155 22.5278 50.7338 22.0997 56.7521C21.7796 61.109 21.1742 65.5091 19.5394 69.5891C16.8796 76.4813 12.2433 82.3569 9.22023 89.0587C8.54239 90.4679 8.14017 91.9938 8.03522 93.5541C7.97263 95.0561 8.36919 96.5415 9.172 97.8123C9.97482 99.0831 11.1458 100.079 12.5287 100.667C14.769 101.597 17.2515 101.58 19.6345 101.398C23.6047 101.043 27.4193 99.7584 31.1949 98.5643C35.1954 97.2663 39.2132 96.0592 43.1445 94.5795C47.0758 93.0998 51.0763 91.711 55.2195 90.9105C62.806 89.4019 70.5527 88.8582 78.2754 89.2924C82.0381 89.5001 85.844 90.2183 89.6023 89.5001C94.3596 88.7429 98.9483 86.2378 101.574 82.1189C105.18 76.516 107.71 70.3073 111.088 64.5789C114.708 58.5433 119.984 53.6802 125.693 49.6565C130.183 46.537 134.845 43.5257 140.095 41.8686C139.036 40.9514 137.976 40.0341 136.899 39.1385C131.065 41.0379 125.905 44.5035 120.966 48.06C115.629 52.0448 110.833 56.8862 107.477 62.6839C104.45 67.958 102.032 73.5609 98.8921 78.7744C97.7417 80.6825 96.2971 82.491 94.3207 83.577C90.9473 85.5412 86.9122 85.935 83.0976 85.4807C77.8141 84.9062 72.4914 84.7788 67.1864 85.0999C59.6525 85.6148 52.1013 86.8306 45.0215 89.5044C38.8542 91.9619 32.5486 94.056 26.2213 96.0505C22.7614 97.0846 19.1371 98.0105 15.4999 97.5692C14.25 97.4134 12.9396 96.825 12.3947 95.6265C11.6465 94.1338 12.1655 92.4162 12.8272 90.9971C15.7508 84.6024 20.1794 79.0297 22.9603 72.5528C25.4947 66.8331 26.3467 60.5292 26.4548 54.3205C26.4765 46.3466 24.3183 38.5025 21.1569 31.2295C18.4106 25.0036 14.8166 19.0934 10.1674 14.1006C6.39609 9.90809 1.71225 6.71506 -2.68614 3.2235C-3.97549 3.50996 -5.24527 3.87847 -6.4877 4.32678L-6.47472 4.31813ZM63.4844 3.24514C65.7852 6.95303 68.8515 10.0985 71.4118 13.629C73.2672 16.0562 74.915 18.6478 76.9477 20.9366C77.99 22.1394 79.6378 23.0696 81.2726 22.5158C83.076 21.8408 84.2221 20.1794 85.5239 18.8425C87.5739 16.4023 90.0088 14.2779 91.8123 11.6257C90.6177 11.3054 89.4506 10.8901 88.3221 10.384C85.5628 13.0622 83.0933 16.0086 80.3557 18.7084C79.002 17.3066 77.9554 15.6798 76.8136 14.1006C74.6036 11.0243 72.3417 7.96112 69.6646 5.27863C69.2321 4.88491 68.8256 4.41332 68.2417 4.2965C66.6631 3.86384 65.1192 3.24514 63.4844 3.24946V3.24514ZM-13.8054 6.03146C-11.9803 7.58471 -10.0471 9.02546 -8.39928 10.7907C-5.64867 13.7155 -2.77695 16.5494 -0.342056 19.7511C2.69073 23.7436 5.20482 28.1051 7.13997 32.7309C9.94991 39.8254 11.3357 47.4042 11.2183 55.0344C11.3351 61.7969 9.0083 68.2565 6.7291 74.5041C4.16013 81.6819 0.211533 88.254 -2.50449 95.3712C-3.80194 98.7893 -5.12104 102.359 -4.90913 106.075C-4.8562 107.302 -4.53573 108.502 -3.97017 109.592C-3.40462 110.682 -2.60768 111.634 -1.63519 112.383C0.669952 114.088 3.5806 114.672 6.39175 114.841C13.3116 115.079 20.1319 113.379 26.5413 110.912C33.3919 108.316 39.4727 104.011 46.4141 101.615C53.9523 98.8671 62.1566 98.6162 70.0711 99.382C77.2418 100.351 84.2611 102.285 91.4706 103.029C95.6439 103.454 99.8529 102.705 103.623 100.866C108.338 98.4042 111.01 93.4676 113.008 88.7516C115.439 82.5169 117.039 75.9189 120.4 70.0693C123.475 64.7952 127.151 59.7504 131.891 55.8565C136.216 52.2178 141.54 50.1021 146.933 48.6484C146.24 47.631 145.348 46.7642 144.312 46.1C141.87 46.6376 139.478 47.383 137.163 48.3282C132.381 50.3601 128.101 53.4122 124.621 57.2713C119.858 62.4221 116.088 68.4099 113.501 74.9324C111.205 80.4618 110.007 86.4628 106.91 91.6417C105.513 93.9608 103.762 96.2582 101.228 97.4004C98.1556 98.7413 94.7762 99.2185 91.4533 98.7806C86.3067 98.1706 81.2336 97.0802 76.1476 96.1284C68.601 94.5848 60.8411 94.3871 53.2258 95.5443C46.1373 96.6433 39.6197 99.8017 33.379 103.194C27.0041 106.681 20.1232 109.368 12.9093 110.423C9.70894 110.83 6.38745 111.129 3.22597 110.298C1.69496 109.865 0.0342102 109 -0.458832 107.382C-1.10324 105.322 -0.523712 103.137 0.0514984 101.13C2.00201 94.9819 4.99916 89.2405 7.72383 83.4169C9.75053 79.0104 11.4843 74.475 12.9137 69.84C14.116 66.037 15.0977 62.1387 15.3875 58.1582C15.8389 50.5449 14.904 42.9129 12.6282 35.634C10.8161 29.421 7.7541 23.6796 4.16446 18.3493C0.894852 13.7241 -2.97157 9.43216 -7.67271 6.23481C-8.45119 5.80215 -9.17343 4.76377 -10.1682 5.1748C-11.3618 5.55121 -12.5901 5.77619 -13.8054 6.04011V6.03146ZM73.5094 5.65072C74.8069 7.62365 76.3163 9.63984 78.4657 10.7301C80.6152 11.8204 82.9765 10.3927 84.6633 8.9995C82.4186 8.22072 80.1697 7.47654 77.8991 6.79727C76.3898 6.57229 75.0447 5.71562 73.5094 5.63342V5.65072ZM-20.2754 8.02602C-17.1701 11.7858 -13.6194 15.2514 -11.2883 19.578C-7.87598 25.8689 -5.28106 32.5881 -2.98888 39.3722C-0.316116 47.2769 -0.0566101 55.8132 -1.3757 64.0078C-2.3488 71.0039 -4.80964 77.6755 -7.53431 84.1524C-10.0384 90.1577 -13.2907 95.8342 -15.2758 102.064C-16.5084 105.958 -17.6632 109.973 -17.4383 114.097C-17.2653 117.48 -16.1062 120.95 -13.6497 123.364C-11.5954 125.355 -8.91395 126.518 -6.25415 127.462C-0.753265 129.345 5.21489 129.36 10.7253 127.505C14.5398 126.229 18.03 124.186 21.5677 122.313C24.98 120.504 28.3924 118.683 31.8652 116.987C38.3526 113.867 45.0388 110.843 52.1921 109.632C59.5444 108.174 67.0567 108.987 74.3917 110.038C78.1151 110.604 81.7955 111.424 85.4071 112.492C89.7694 113.794 94.2387 114.706 98.7623 115.217C102.655 115.546 106.737 115.499 110.379 113.919C112.879 112.869 114.949 111 116.248 108.619C117.876 105.494 119.283 102.258 120.46 98.9364C122.783 92.6412 124.028 85.9869 126.718 79.8171C129.313 73.9243 132.254 67.8887 137.349 63.7482C141.868 59.6769 147.564 57.3578 153.109 55.095C152.365 54.2081 151.573 53.3644 150.803 52.4991C145.683 54.3119 140.644 56.592 136.341 59.9538C133.077 62.3577 130.297 65.3566 128.146 68.793C124.622 74.6003 121.901 80.8588 120.058 87.3973C118.125 94.2204 116.027 101.091 112.459 107.261C110.504 110.506 106.404 111.354 102.914 111.436C96.4788 111.436 90.2121 109.705 84.0794 107.949C78.8937 106.535 73.5942 105.578 68.2417 105.089C64.7818 104.782 61.2657 104.435 57.7842 104.756C51.2391 105.203 44.8154 106.746 38.7807 109.32C31.4803 112.31 24.5605 116.022 17.6407 119.752C14.7344 121.301 11.8238 122.919 8.65367 123.866C5.56271 124.781 2.3123 125.025 -0.880493 124.582C-4.07329 124.14 -7.13497 123.021 -9.86109 121.301C-12.136 119.816 -13.1134 117.039 -13.295 114.443C-13.5675 110.722 -12.4301 107.088 -11.3056 103.626C-9.4459 97.8331 -6.41417 92.5244 -4.03549 86.943C-0.921585 79.5878 1.89822 72.0293 2.90591 64.077C4.2596 55.4584 3.8055 46.5111 1.07651 38.1953C-1.1162 31.5843 -3.59869 25.0944 -6.78612 18.8944C-9.15674 14.2346 -12.4585 10.1113 -16.4868 6.77996C-17.7019 7.32438 -18.9721 7.73634 -20.2754 8.00871V8.02602ZM-26.9616 10.384C-24.4662 14.0746 -21.6593 17.5488 -19.2201 21.2827C-16.3461 25.5689 -13.9338 30.1474 -12.0235 34.9417C-10.1898 39.6707 -9.69242 44.7891 -9.63187 49.8252C-9.63187 52.8279 -9.53674 55.8435 -9.92165 58.8289C-10.618 65.2538 -11.9586 71.6269 -14.359 77.6409C-17.2307 84.9701 -20.4138 92.1696 -23.5969 99.3647C-26.3086 105.301 -28.4926 111.648 -28.5445 118.242C-28.8486 123.798 -27.31 129.299 -24.1678 133.891C-22.2475 136.669 -19.285 138.503 -16.2576 139.862C-10.6612 142.25 -4.34689 142.388 1.55223 141.19C7.99199 139.856 14.1617 137.449 19.8032 134.068C26.2905 130.252 33.0503 126.769 40.3247 124.727C46.5957 123.018 53.0095 121.647 59.5228 121.348C68.6569 120.76 77.7435 122.313 86.7349 123.693C94.9521 125.112 103.286 126.67 111.672 125.986C115.43 125.605 119.176 124.256 122.052 121.72C124.145 119.912 125.304 117.298 126.091 114.702C127.605 109.601 128.193 104.319 129.344 99.1267C130.403 93.7228 132.371 88.5569 134.533 83.5164C136.665 78.6187 140.199 74.4305 144.359 71.1337C148.898 67.4571 154.174 64.801 159.829 63.3458C159.171 62.3538 158.44 61.4123 157.641 60.5292C151.539 61.8964 145.886 64.912 141.081 68.8795C136.756 72.3103 133.308 76.7207 131.022 81.7468C128.63 87.207 126.467 92.8142 125.321 98.6854C124.115 104.094 123.617 109.684 121.779 114.936C121.099 117.118 119.606 118.955 117.61 120.067C113.718 122.339 109.017 122.3 104.636 122.049C99.1819 121.833 93.8233 120.751 88.4562 119.886C80.7103 118.627 72.9299 117.381 65.0716 117.151C57.4789 117.119 49.9159 118.1 42.5823 120.067C35.0354 121.854 27.8777 124.995 21.1569 128.842C16.8882 131.317 12.5893 133.83 7.8752 135.371C1.15868 137.729 -6.32768 139.027 -13.2604 136.824C-16.1019 135.808 -18.9347 134.332 -20.8463 131.931C-22.7359 129.186 -23.9374 126.027 -24.3494 122.72C-24.7048 118.871 -24.4272 114.991 -23.5277 111.233C-22.0788 105.223 -19.0601 99.7844 -16.6728 94.1295C-13.4551 86.532 -9.89137 79.0211 -7.78947 71.0082C-6.01628 63.5319 -5.00859 55.8046 -5.4973 48.1076C-5.55808 44.3947 -6.0236 40.6996 -6.88558 37.0877C-7.97112 32.852 -9.8265 28.8672 -11.8549 25.0209C-14.7345 19.6373 -18.1683 14.5693 -22.1005 9.89943C-22.4248 9.59225 -22.6497 9.10767 -23.1082 9.01248C-24.4056 9.536 -25.7031 9.89943 -27.0005 10.3754L-26.9616 10.384ZM-37.5057 14.7539C-34.2144 16.7354 -31.6411 19.6126 -29.0289 22.386C-27.0464 24.6318 -25.331 27.1 -23.9169 29.7412C-20.9468 35.2046 -18.7435 41.0515 -17.3691 47.1168C-15.6954 54.6191 -16.6382 62.5108 -19.1855 69.7059C-21.5728 77.3553 -25.089 84.5591 -28.1812 91.9316C-30.668 97.5259 -32.9386 103.22 -35.2524 108.879C-37.0937 113.385 -37.9958 118.22 -37.9035 123.087C-37.7781 128.933 -36.6061 134.834 -33.8036 140.017C-31.0313 145.802 -26.5508 150.834 -20.7987 153.772C-15.345 156.839 -8.75826 157.938 -2.66019 156.393C3.10919 155.035 7.84491 151.292 12.7969 148.251C18.8517 144.5 24.8546 140.666 31.2381 137.521C39.5362 133.506 48.4581 130.937 57.6198 129.923C65.5396 129.193 73.5253 129.757 81.2639 131.593C88.2615 133.246 94.9954 135.847 101.954 137.651C106.923 138.892 112.079 139.096 117.178 138.996C120.356 138.936 123.665 138.3 126.286 136.4C127.908 135.254 128.829 133.398 129.469 131.563C130.429 128.725 130.563 125.709 131.004 122.767C131.618 117.822 132.907 113.002 134.196 108.204C135.686 102.703 137.88 97.4165 140.722 92.4768C144.117 86.6835 149.415 82.3915 154.436 78.0735C157.749 75.1747 161.611 73.0158 165.538 71.0731C164.965 70.3428 164.448 69.5705 163.99 68.7627C162.329 69.1478 160.842 70.0174 159.341 70.7832C154.925 73.1282 151.124 76.4078 147.37 79.6917C143.369 83.127 139.645 87.0166 137.12 91.6893C132.405 99.9098 129.867 109.143 128.037 118.38C127.345 121.889 127.172 125.476 126.45 128.985C125.974 130.91 125.265 133.164 123.28 134.025C120.106 135.557 116.451 135.349 113.021 135.232C108.815 135.201 104.634 134.579 100.6 133.385C91.9507 130.91 83.4523 127.635 74.4739 126.462C67.2038 125.554 59.7693 125.497 52.5597 126.791C44.5821 128.117 36.8372 130.587 29.5644 134.125C22.9171 137.486 16.6201 141.48 10.2885 145.374C5.65654 148.195 1.20625 151.721 -4.25174 152.729C-8.88275 153.641 -13.686 152.958 -17.8794 150.791C-22.0487 148.868 -25.6105 145.837 -28.1769 142.029C-29.758 139.577 -31.0716 136.961 -32.0952 134.228C-33.6652 129.651 -34.0285 124.74 -33.7646 119.951C-33.5138 116.165 -32.3677 112.513 -30.867 109.052C-29.2798 105.396 -27.8396 101.697 -26.274 98.0148C-23.878 92.5373 -21.5166 87.0469 -19.1206 81.5737C-17.2912 77.2472 -15.7732 72.8254 -14.3633 68.3517C-12.2527 61.4032 -11.5348 53.9312 -13.0658 46.7836C-14.5947 39.7856 -17.1141 33.0417 -20.5478 26.7558C-23.1428 21.9706 -26.6373 17.5791 -31.0313 14.3255C-31.8963 13.8323 -32.7872 12.8458 -33.8555 13.2785C-35.101 13.7112 -36.2385 14.3904 -37.5057 14.7539ZM-48.4779 20.3352C-44.3952 23.9911 -39.7978 27.1149 -36.2168 31.3074C-32.757 35.2013 -29.5133 39.3852 -27.087 44.0276C-23.8088 50.5521 -22.9654 58.1582 -24.2153 65.3231C-25.729 73.8551 -29.3273 81.8074 -32.9689 89.6082C-35.7973 95.752 -39.7805 101.29 -42.4836 107.503C-44.8233 113.128 -46.6355 119.059 -47.1025 125.156C-47.5826 131.888 -45.6451 138.503 -42.8815 144.573C-40.0444 150.864 -36.5023 156.908 -31.7666 161.962C-27.8396 166.141 -22.4119 168.538 -16.9539 169.996C-12.6675 171.161 -8.16856 171.309 -3.81493 170.429C1.90256 169.295 6.63829 165.67 11.2356 162.299C17.1261 158.007 22.597 153.123 28.8724 149.384C33.8305 146.445 39.1641 144.192 44.7274 142.687C52.1316 140.562 59.8298 139.797 67.4805 139.182C74.5906 138.637 81.8997 138.845 88.7113 141.177C95.8257 143.574 102.936 146.165 109.514 149.83C113.069 151.474 117.091 153.131 121.053 152.019C125.633 150.864 129.27 147.632 132.57 144.409C135.563 141.454 137.327 137.538 138.352 133.501C141.207 123.325 142.543 112.643 147.127 103.016C149.8 97.1841 153.749 91.9879 158.346 87.5358C162.018 84.1005 165.928 80.9118 169.919 77.8485C169.245 76.8534 168.704 75.7631 167.9 74.8675C165.737 76.4165 163.575 77.961 161.447 79.5273C153.368 85.5066 146.682 93.4589 142.591 102.67C137.941 112.747 136.618 123.871 133.296 134.393C132.363 137.309 130.668 139.922 128.388 141.964C125.931 144.197 123.345 146.555 120.058 147.45C117.844 148.091 115.573 147.299 113.493 146.555C110.855 145.625 108.493 144.089 105.933 142.998C100.206 140.534 94.352 138.376 88.3956 136.534C83.4082 135.142 78.2399 134.508 73.0639 134.652C66.5983 134.735 60.1629 135.483 53.7707 136.383C45.6097 137.625 37.5741 139.978 30.2175 143.738C19.721 149.142 11.374 157.756 1.24084 163.749C-1.51749 165.383 -4.6383 166.306 -7.84138 166.436C-11.7943 166.821 -15.7083 165.799 -19.3931 164.467C-22.7189 163.234 -25.9583 161.521 -28.4191 158.92C-32.4326 154.745 -35.4946 149.748 -37.9944 144.547C-40.5287 139.23 -42.7215 133.553 -42.7517 127.578C-42.9204 123.827 -42.09 120.132 -41.091 116.541C-40.0791 112.826 -38.6772 109.228 -36.9088 105.807C-34.2836 100.814 -31.2173 96.0549 -28.8992 90.9019C-25.1755 83.0707 -21.7156 74.9584 -20.2105 66.3355C-19.1026 60.2165 -19.4538 53.9224 -21.2355 47.9648C-23.2293 41.2456 -27.5368 35.5258 -32.0952 30.3123C-35.8233 25.8905 -40.5114 22.4249 -45.0699 18.9377C-46.2938 18.8771 -47.2626 20.0799 -48.4649 20.3438L-48.4779 20.3352ZM-58.9397 26.8251C-49.2217 30.8445 -40.4639 37.7886 -35.3908 47.1168C-31.8493 53.5686 -30.9203 61.1348 -32.7959 68.2522C-34.9583 76.2044 -39.2313 83.3952 -43.9324 90.0798C-47.3923 95.1419 -50.6057 100.442 -52.807 106.192C-56.2007 114.812 -57.2541 124.178 -55.8604 133.337C-54.1305 144.5 -49.8056 155.364 -42.795 164.268C-38.7003 169.402 -33.5688 173.614 -27.7358 176.629C-22.1134 179.528 -15.678 181.133 -9.35509 180.337C-3.73276 179.619 1.27544 176.754 5.85115 173.592C12.6369 168.832 18.9382 163.433 25.8061 158.795C30.9784 155.281 36.5039 152.319 42.2925 149.956C48.5463 147.433 55.1547 145.599 61.9231 145.309C68.2244 144.993 74.4955 146.399 80.2908 148.826C88.1621 152.145 95.8604 155.879 103.818 158.994C109.151 161.071 114.834 162.654 120.612 162.182C126.712 161.785 132.464 159.196 136.808 154.892C140.45 151.357 142.863 146.745 144.45 141.982C146.353 136.357 147.521 130.495 149.052 124.749C150.668 118.433 152.884 112.286 155.669 106.391C157.697 102.225 159.942 98.11 162.948 94.5665C166.126 90.8456 170.166 88.029 174.158 85.2557C173.66 84.3904 173.349 83.3909 172.674 82.6381C172.16 82.5342 171.745 82.9583 171.312 83.1313C166.706 85.4679 162.741 88.8943 159.76 93.1128C157.044 97.05 155.245 101.519 153.515 105.954C151.517 111.22 149.549 116.472 147.819 121.82C145.89 127.713 144.165 133.683 141.838 139.429C140.056 143.794 137.751 148.082 134.231 151.288C129.283 155.991 122.121 158.085 115.4 157.064C111.326 156.528 107.434 155.117 103.623 153.633C97.1838 151.067 90.8348 148.281 84.3475 145.845C79.0669 143.872 73.5094 142.419 67.8482 142.349C59.1508 142.051 50.5703 144.283 42.5131 147.39C29.8542 152.465 18.4711 160.114 7.127 167.573C2.75455 170.39 -1.61789 173.367 -6.59582 175.006C-12.9274 177.031 -19.8169 175.824 -25.8458 173.358C-31.1697 171.13 -36.2255 168.036 -40.1568 163.757C-44.7498 158.751 -47.9026 152.577 -50.0132 146.161C-52.0372 139.883 -53.2785 133.264 -52.9411 126.657C-52.807 118.839 -50.3462 111.254 -47.2236 104.159C-44.6287 98.1922 -41.1083 92.6844 -38.0333 86.956C-35.0059 81.0589 -32.1169 74.9973 -30.7372 68.4772C-29.373 62.0952 -29.8225 55.4586 -32.0347 49.319C-34.213 43.1664 -37.8348 37.6262 -42.596 33.1635C-46.4702 29.6539 -50.9326 26.855 -55.7782 24.8954C-56.8767 25.4795 -57.9104 26.1934 -58.9527 26.8467L-58.9397 26.8251ZM-63.4765 30.1133C-62.7982 29.5098 -62.0523 28.9871 -61.2535 28.5557C-57.4001 31.991 -52.9065 34.8119 -49.8488 39.0563C-48.114 41.5225 -46.8636 44.296 -46.164 47.2293C-44.6399 52.7082 -43.9689 58.3893 -44.1746 64.0727C-44.7239 70.8049 -47.9718 76.8491 -50.7787 82.8631C-53.4904 88.6348 -56.92 94.0343 -59.5409 99.8493C-66.3655 113.859 -67.0921 130.529 -62.1963 145.278C-60.3237 150.998 -57.1233 156.147 -53.8191 161.131C-51.0641 165.22 -48.1708 169.352 -44.2784 172.436C-38.4182 176.841 -31.2216 179.009 -24.0986 180.315C-16.6122 181.765 -8.8534 181.566 -1.50977 183.751C5.83386 185.935 11.0929 192.741 12.8748 200.019C13.9949 204.877 14.3582 210.091 12.7623 214.885C11.2832 219.315 8.35526 223.084 5.09863 226.359C2.70068 228.763 -0.171432 230.642 -3.33487 231.875C-6.45742 233.087 -9.80054 233.519 -13.1047 233.883C-19.4277 234.493 -25.7853 234.354 -32.1342 234.341C-38.189 234.116 -44.4903 233.995 -50.104 231.412C-55.9945 228.877 -60.8081 224.546 -66.0195 220.916C-71.6851 217.13 -78.7692 214.621 -85.6069 216.183C-90.7967 217.442 -95.3465 220.531 -99.1826 224.152C-102.145 227.012 -104.636 230.313 -107.101 233.606C-108.928 235.981 -110.599 238.471 -112.105 241.061C-112.91 239.732 -113.632 238.355 -114.268 236.937C-112.715 234.138 -110.734 231.616 -108.84 229.046C-105.618 224.775 -102.158 220.626 -97.7684 217.524C-92.8553 213.916 -86.9562 211.207 -80.7241 211.445C-73.8605 211.583 -67.291 214.426 -61.7812 218.394C-57.0887 221.76 -52.5649 225.519 -47.1804 227.756C-43.2058 229.444 -38.8334 229.781 -34.5691 230.028C-31.1092 230.292 -27.6233 230.313 -24.1461 230.266C-18.7401 230.231 -13.2864 230.01 -8.0014 228.812C-3.87115 227.925 -0.216629 225.558 2.68103 222.521C5.42299 219.679 7.92278 216.464 9.10345 212.626C10.016 209.879 9.88626 206.937 9.65271 204.098C9.08615 198.4 6.26634 192.771 1.51764 189.453C-2.23203 186.822 -6.94614 186.424 -11.3532 185.862C-18.4027 185.209 -25.5085 184.443 -32.2899 182.301C-37.9554 180.57 -43.461 177.927 -47.8853 173.925C-52.513 169.499 -55.9123 164.008 -59.3852 158.674C-62.5622 153.841 -65.024 148.575 -66.6942 143.037C-68.4544 137.019 -69.5962 130.767 -69.4967 124.476C-69.5171 117.093 -68.1649 109.771 -65.5092 102.882C-63.057 96.799 -59.7917 91.0966 -56.6216 85.3638C-54.4591 81.3444 -52.5519 77.1779 -50.5235 73.0807C-49.4876 71.0226 -48.6198 68.884 -47.9286 66.686C-46.7632 62.9814 -46.3559 59.0799 -46.7312 55.2144C-47.1064 51.3489 -48.2565 47.5987 -50.1127 44.1877C-51.4143 41.9814 -53.0153 39.9662 -54.87 38.1997C-57.6466 35.4177 -61.0027 33.2327 -63.4635 30.1306L-63.4765 30.1133ZM-68.2857 33.4664C-67.317 32.8433 -66.4434 32.0819 -65.4573 31.4718C-60.5615 35.8547 -58.5721 42.4484 -57.6725 48.7479C-56.5308 56.8689 -58.1439 65.1111 -60.9724 72.7259C-63.2343 78.7442 -66.2314 84.3687 -68.6966 90.2832C-71.9835 98.1532 -75.7159 105.894 -77.7442 114.214C-79.3574 120.5 -78.8082 127.077 -77.7745 133.411C-76.9485 138.421 -75.997 143.44 -74.2368 148.216C-71.9446 154.494 -69.3626 160.733 -65.6303 166.314C-63.0008 170.278 -60.2155 174.414 -55.9815 176.819C-49.4293 180.644 -41.7657 181.501 -34.4264 182.773C-29.2134 183.726 -24.0851 185.094 -19.0904 186.866C-14.2984 188.415 -9.39832 190.059 -5.42377 193.269C-2.08656 195.906 0.252121 199.602 1.20625 203.748C1.97607 206.751 1.87228 210.091 0.276398 212.834C-2.16714 217.113 -6.70394 219.756 -11.3488 221.054C-16.1062 222.352 -21.0322 222.876 -25.9107 223.516C-29.4936 224.027 -33.1268 224.079 -36.7229 223.672C-40.721 223.506 -44.6488 222.564 -48.2876 220.899C-53.685 218.588 -58.2348 214.785 -63.403 212.072C-68.8653 209.014 -74.7904 206.69 -80.9879 205.695C-85.0711 205.073 -89.2471 205.658 -93.0024 207.378C-98.8106 210.192 -104.197 213.805 -109.004 218.112C-112.032 220.855 -115.085 223.629 -117.723 226.766C-118.052 227.06 -118.273 227.631 -118.796 227.484C-119.302 226.393 -119.605 225.221 -120.132 224.144C-112.97 215.464 -103.94 208.17 -93.5733 203.7C-89.7414 202.199 -85.516 201.507 -81.4204 202.152C-74.5698 203.017 -68.0436 205.613 -62.0017 208.897C-56.7038 211.605 -52.0545 215.482 -46.5057 217.727C-43.0847 219.268 -39.3264 219.834 -35.6027 219.947C-32.2553 220.302 -28.8905 219.973 -25.569 219.514C-21.854 218.986 -18.1259 218.428 -14.4671 217.554C-11.1758 216.749 -7.85002 215.486 -5.38485 213.063C-3.89278 211.605 -2.63855 209.667 -2.72073 207.499C-2.82021 202.653 -5.69192 198.098 -9.74864 195.532C-13.3123 193.118 -17.5334 192.049 -21.5253 190.617C-28.1899 188.172 -35.1746 186.723 -42.1679 185.589C-47.8291 184.599 -53.5293 183.071 -58.4596 180.025C-61.3123 178.186 -63.792 175.824 -65.7687 173.064C-69.5075 168.089 -72.6148 162.67 -75.0196 156.93C-76.7164 153.02 -78.1609 149.005 -79.3444 144.911C-80.244 141.592 -80.8625 138.205 -81.4377 134.817C-82.3027 129.465 -82.9341 124.022 -82.4454 118.601C-81.7447 111.752 -79.3315 105.232 -76.7322 98.9017C-73.9859 92.4551 -71.2699 85.9912 -68.2598 79.6614C-65.081 72.9422 -62.4039 65.8725 -61.4957 58.4611C-60.9291 51.9712 -61.6557 45.2477 -64.2636 39.2251C-65.2151 37.0618 -66.7504 35.2489 -68.2771 33.4794L-68.2857 33.4664ZM-73.973 39.3722C-73.541 38.0661 -72.6434 36.9649 -71.4516 36.2787C-70.0546 40.1726 -69.7216 44.3175 -69.6654 48.4148C-69.5227 55.8825 -71.4559 63.2463 -74.2584 70.1169C-76.4208 75.2483 -78.8168 80.2585 -80.7933 85.459C-83.4228 92.3556 -86.0523 99.3041 -87.4752 106.568C-89.3223 115.508 -89.4339 124.719 -87.8039 133.701C-86.5064 140.329 -84.9278 146.944 -82.294 153.17C-80.5208 157.497 -78.7563 161.888 -76.2392 165.851C-74.6374 168.268 -72.9049 170.594 -71.0493 172.822C-66.2617 178.775 -60.5659 184.226 -53.6547 187.688C-50.5105 189.327 -47.0896 190.314 -43.6816 191.231C-39.6638 192.244 -35.6546 193.304 -31.5719 194.126C-28.5099 194.857 -25.4176 195.562 -22.4897 196.8C-19.5618 198.037 -17.0706 200.633 -16.3311 203.813C-15.6997 206.266 -15.877 209.187 -17.7194 211.095C-19.9121 213.388 -23.2293 213.911 -26.2264 214.288C-32.0823 215.075 -38.1674 214.439 -43.5951 212.051C-46.4652 210.759 -49.2052 209.196 -51.7777 207.382C-56.933 203.8 -62.2093 200.282 -68.0911 198.011C-72.0982 196.375 -76.2698 195.175 -80.5338 194.433C-83.7904 193.836 -87.1119 194 -90.3945 194.043C-97.5521 194.437 -104.165 197.803 -109.895 201.905C-115.314 205.669 -119.566 210.865 -122.844 216.546C-123.666 215.27 -123.821 213.751 -124.288 212.345C-121.555 207.975 -118.264 203.908 -114.225 200.663C-109.584 196.86 -104.321 193.658 -98.6074 191.668C-94.863 190.42 -90.9327 189.821 -86.9865 189.899C-79.6342 189.695 -72.3987 191.673 -65.6433 194.442C-59.4155 196.968 -53.8061 200.745 -48.3438 204.574C-44.4514 207.17 -40.1698 209.364 -35.4903 210.039C-31.6504 210.548 -27.7534 210.43 -23.9515 209.688C-22.5157 209.368 -20.7208 208.91 -20.1889 207.343C-19.936 206.13 -20.0511 204.869 -20.5197 203.722C-20.9882 202.575 -21.7887 201.594 -22.8184 200.905C-24.9808 199.564 -27.5195 199.054 -29.9415 198.374C-37.151 196.644 -44.4557 195.199 -51.4534 192.707C-62.4472 188.484 -70.9153 179.727 -77.6664 170.334C-81.5199 165.086 -83.998 159.015 -86.4286 153.027C-88.1281 148.719 -89.4719 144.278 -90.4464 139.749C-92.0156 133.621 -92.8032 127.319 -92.7905 120.993C-92.7905 112.34 -91.2076 103.722 -88.5651 95.4924C-86.052 87.9248 -83.1505 80.492 -79.8721 73.2234C-77.4112 67.8109 -75.2618 62.2209 -74.1503 56.3497C-73.0085 50.7554 -73.1988 44.9794 -73.973 39.3592V39.3722ZM-85.9745 50.1887C-86.1302 51.5602 -85.9745 52.9404 -86.0091 54.3205C-85.9442 57.1545 -86.5886 59.9451 -87.259 62.6709C-89.0775 69.5388 -91.4302 76.254 -94.2955 82.7549C-96.7347 88.665 -99.5286 94.4367 -101.548 100.52C-103.923 107.676 -104.282 115.269 -104.411 122.737C-104.381 131.044 -103.546 139.394 -101.159 147.377C-99.9438 151.574 -98.629 155.796 -96.4017 159.591C-93.6252 164.35 -90.0052 168.607 -87.3584 173.466C-86.74 174.838 -85.7928 176.668 -86.9259 178.031C-89.123 180.761 -92.7775 181.336 -95.9692 182.184C-102.158 183.577 -108.347 185.369 -113.883 188.553C-119.133 191.504 -123.398 195.817 -127.839 199.824C-127.498 201.022 -127.13 202.208 -126.81 203.411C-122.053 199.85 -118.022 195.385 -112.871 192.378C-107.72 189.371 -101.834 187.575 -95.9779 186.273C-92.8986 185.473 -89.6809 184.893 -86.8957 183.244C-84.8327 181.968 -82.8087 180.121 -82.4108 177.62C-82.1167 175.193 -83.1244 172.861 -84.2661 170.771C-87.6914 164.882 -92.531 159.824 -95.1216 153.464C-98.839 144.14 -100.654 134.166 -100.458 124.13C-100.484 118.475 -100.458 112.768 -99.321 107.204C-97.9327 100.191 -94.5291 93.844 -91.826 87.3022C-88.7913 80.6643 -86.2472 73.8128 -84.2142 66.8028C-82.4324 60.5898 -81.0355 53.823 -83.2628 47.5278C-84.2122 48.3702 -85.1173 49.2612 -85.9745 50.1973V50.1887ZM-98.9188 65.6173C-100.304 69.9366 -102.029 74.1393 -104.078 78.186C-107.716 85.8398 -110.855 93.8093 -112.477 102.151C-113.9 109.074 -112.745 116.117 -112.399 123.079C-112.079 128.175 -111.898 133.277 -111.638 138.373C-111.443 141.6 -110.787 144.782 -109.692 147.823C-108.109 152.149 -106.297 156.363 -104.74 160.681C-104.013 162.801 -103.213 164.947 -103.071 167.201C-102.963 169.633 -104.887 171.528 -106.803 172.713C-110.125 174.73 -113.943 175.694 -117.412 177.408C-122.053 179.753 -126.377 182.972 -129.405 187.277C-129.699 187.709 -130.11 188.168 -129.967 188.748C-129.816 190.072 -129.413 191.344 -129.262 192.676C-127.332 190.214 -125.211 187.908 -122.917 185.78C-120.362 183.572 -117.468 181.791 -114.346 180.506C-111.072 179.151 -107.59 178.238 -104.528 176.404C-102.037 174.929 -99.814 172.722 -98.9664 169.888C-98.1619 167.335 -98.8366 164.64 -99.6065 162.169C-101.336 156.956 -103.758 152.011 -106.007 147.005C-107.359 144.119 -108.249 141.038 -108.645 137.876C-109.164 133.186 -109.402 128.474 -109.701 123.767C-109.908 119.254 -110.367 114.75 -110.194 110.229C-110.194 106.335 -109.173 102.536 -108.057 98.8412C-105.752 91.7525 -102.913 84.8491 -99.5632 78.1904C-96.4985 71.8596 -94.3909 65.1086 -93.3094 58.1582C-95.2297 60.5984 -97.5219 62.8266 -98.9318 65.6173H-98.9188ZM161.659 108.944C165.443 102.155 171.498 96.9202 178.202 93.1344C178.665 94.0175 179.037 94.9452 179.313 95.9034C175.689 98.3826 172.566 101.493 169.496 104.604C165.564 108.645 163.052 113.798 161.006 118.986C159.042 124.039 157.732 129.313 155.985 134.445C154.566 138.585 153.437 142.834 151.738 146.879C149.779 151.34 148.247 156.19 144.818 159.794C140.915 163.741 136.308 166.922 131.233 169.17C128.924 170.386 126.208 171.069 124.4 173.064C123.843 173.658 123.459 174.392 123.289 175.188C123.12 175.984 123.17 176.811 123.436 177.581C124.136 179.64 125.166 181.821 127.194 182.872C131.64 185.308 136.795 185.637 141.656 186.701C147.514 188.021 153.569 188.209 159.496 187.255C166.308 185.667 172.687 182.639 179.46 180.899C183.919 179.822 188.512 179.069 193.122 179.29C193.038 180.489 192.882 181.683 192.655 182.864C187.934 183.185 183.262 184.017 178.721 185.347C172.48 187.233 166.46 189.855 160.093 191.305C154.41 192.291 148.591 192.179 142.95 190.976C139.879 190.327 136.8 189.726 133.716 189.137C130.689 188.523 127.661 187.696 125.01 186.109C122.212 184.443 120.465 181.466 119.543 178.416C119.135 176.984 119.103 175.472 119.45 174.024C119.797 172.576 120.511 171.243 121.524 170.152C123.63 167.738 126.77 166.738 129.542 165.324C133.899 163.333 137.92 160.678 141.462 157.454C143.49 155.528 144.835 153.036 145.977 150.531C147.348 147.446 148.749 144.366 149.822 141.16C151.465 136.011 153.437 130.97 154.964 125.783C156.694 119.994 158.683 114.222 161.689 108.952L161.659 108.944ZM-121.097 104.929C-121.923 107.148 -122.053 109.541 -122.217 111.886C-122.74 116.645 -123.454 121.404 -123.514 126.216C-123.285 131.593 -122.749 137.032 -121.053 142.172C-119.756 146.066 -118.394 149.96 -117.594 154.005C-116.803 158.195 -117.685 162.529 -120.05 166.076C-123.047 170.455 -127.606 173.367 -131.295 177.079C-131.498 178.641 -131.113 180.229 -130.862 181.773C-126.641 177.957 -121.88 174.725 -118.113 170.433C-115.199 166.994 -113.5 162.688 -113.282 158.185C-113.091 154.546 -114.147 151.011 -115.224 147.572C-116.214 144.301 -117.594 141.155 -118.441 137.845C-119.289 134.255 -119.796 130.593 -119.955 126.908C-120.249 123.55 -119.756 120.197 -119.851 116.835C-119.938 111.479 -119.397 106.136 -119.337 100.784C-120.145 102.082 -120.435 103.57 -121.088 104.929H-121.097ZM174.634 109.402C176.796 106.517 179.356 103.951 181.752 101.255C182.145 102.583 182.682 103.864 183.352 105.076C180.913 108.143 178.189 111.003 176.108 114.348C172.901 119.458 170.348 124.951 168.51 130.698C166.568 136.171 164.518 141.614 162.161 146.923C160.054 151.712 156.971 155.978 153.801 160.11C151.249 163.429 148.343 166.539 144.861 168.902C142.409 170.632 139.728 172.047 137.306 173.834C136.568 174.375 135.982 175.098 135.606 175.932C136.432 176.919 137.699 177.304 138.893 177.663C142.076 178.615 145.436 178.572 148.732 178.593C151.938 178.603 155.13 178.167 158.216 177.295C162.974 175.997 167.299 173.492 172.116 172.419C179.11 170.689 186.363 171.701 193.473 171.896C193.421 173.246 193.352 174.591 193.213 175.937C186.869 176.118 180.433 175.007 174.158 176.395C169.868 177.239 166.005 179.359 161.897 180.722C157.88 182.089 153.667 182.794 149.424 182.807C145.769 182.656 142.037 182.729 138.504 181.635C136.821 181.111 135.104 180.527 133.699 179.428C132.974 178.866 132.439 178.095 132.166 177.22C131.893 176.344 131.895 175.405 132.172 174.531C132.743 172.765 134.209 171.502 135.632 170.377C138.184 168.508 140.977 166.976 143.494 165.055C147.56 162.053 150.583 157.925 153.442 153.806C155.884 150.29 157.916 146.506 159.496 142.527C161.888 136.785 163.921 130.906 166.036 125.056C168.272 119.514 171.035 114.136 174.659 109.363L174.634 109.402ZM172.372 127.635C176 121.982 180.639 117.047 186.055 113.076C186.462 114.218 186.92 115.473 186.799 116.684C182.6 121.547 177.717 126.021 174.919 131.922C172.592 137.049 171.965 142.778 169.876 147.97C167.714 153.339 164.046 158.007 159.721 161.815C157.308 164.194 154.471 166.219 152.598 169.096C156.646 168.711 160.236 166.63 164.068 165.445C168.518 163.909 173.241 163.381 177.929 163.312C183.249 163.55 188.525 164.372 193.819 164.96C193.849 166.219 193.819 167.478 193.749 168.737C188.694 168.452 183.677 167.664 178.612 167.439C174.335 167.396 170.006 167.781 165.91 169.083C161.356 170.433 157.066 172.869 152.239 173.129C150.609 173.168 148.883 172.203 148.459 170.563C147.966 168.703 149.117 166.929 150.22 165.531C152.75 162.503 155.842 160.019 158.645 157.272C162.758 153.342 165.724 148.366 167.225 142.877C168.67 137.707 169.474 132.221 172.385 127.6L172.372 127.635ZM183.474 127.635C185.16 125.441 186.479 122.953 188.404 120.946C188.966 122.534 189.174 124.225 189.524 125.874C187.327 129.98 184.001 133.38 181.977 137.594C179.815 141.796 179.361 146.637 177.12 150.804C176.147 152.751 174.672 154.382 173.695 156.32C176.03 156.445 178.37 156.32 180.701 156.554C185.091 156.869 189.784 157.099 193.615 159.487C194.29 160.668 193.853 162.243 193.948 163.576C191.786 162.862 189.658 161.867 187.383 161.499C183.785 160.972 180.159 160.66 176.523 160.564C174.923 160.504 173.232 160.599 171.766 159.811C171.061 159.443 170.497 158.852 170.162 158.129C169.828 157.407 169.741 156.595 169.915 155.818C170.387 153.763 171.844 152.153 172.834 150.336C174.997 146.685 175.429 142.38 176.921 138.468C178.344 134.449 180.918 131.005 183.452 127.652L183.474 127.635ZM-128.107 128.889C-126.047 136.621 -125.137 144.615 -125.404 152.612C-125.608 155.848 -126.096 159.141 -127.454 162.131C-128.424 164.251 -129.965 166.06 -131.905 167.353C-132.008 165.73 -132.008 164.103 -131.905 162.481C-131.593 161.399 -130.914 160.46 -130.577 159.387C-129.007 154.84 -129.366 149.956 -129.491 145.235C-129.548 142.055 -130.508 138.828 -129.522 135.717C-129.327 133.392 -128.852 131.1 -128.107 128.889ZM185.878 134.843C184.356 137.222 183.672 139.991 182.877 142.67C182.41 144.534 181.726 146.451 182.072 148.398C182.6 150.89 184.736 152.638 186.929 153.694C189.122 154.749 191.466 155.558 193.719 156.523C193.766 155.059 193.643 153.594 193.352 152.158C191.453 151.262 189.459 150.596 187.66 149.488C186.851 148.939 185.93 148.151 186.038 147.07C186.203 145.114 186.734 143.21 187.171 141.298C187.876 138.667 188.343 135.903 189.766 133.54C190.117 132.844 190.631 132.212 190.796 131.429C190.694 130.618 190.483 129.825 190.168 129.071C188.374 130.702 187.141 132.809 185.844 134.843H185.878ZM190.493 144.867C190.994 146.165 192.106 147.052 193.183 147.861C193.088 144.361 192.149 140.939 191.95 137.478C190.35 139.502 189.42 142.401 190.493 144.88V144.867ZM45.2594 156.264C49.7788 156.052 54.3027 155.935 58.8265 155.684C66.6891 155.74 74.5171 156.605 82.3408 157.319C86.5619 157.821 90.744 158.548 94.9435 159.206C98.3212 159.729 101.401 161.304 104.661 162.26C106.5 162.862 108.554 162.386 110.327 163.255C112.1 164.125 113.562 165.613 113.973 167.547C114.405 169.36 114.531 171.511 113.281 173.042C112.131 174.461 110.21 174.855 108.48 174.929C105.712 175.001 102.955 175.325 100.246 175.898C95.9641 176.815 91.5571 177.274 87.4052 178.745C84.4051 179.734 81.6681 181.391 79.3999 183.59C77.0149 186.073 75.2952 189.118 74.4003 192.443C73.6163 195.831 73.0214 199.26 72.6185 202.714C72.0909 206.885 72.7482 211.06 73.4316 215.17C74.1408 219.185 74.3528 223.261 74.7982 227.306C75.741 236.18 75.5508 245.119 75.5637 254.027C75.5291 259.384 76.6622 264.675 78.2192 269.772C80.1092 275.678 82.4662 281.497 85.9261 286.676C88.4076 290.383 91.1264 293.925 94.0655 297.28C97.3784 301.174 101.15 304.666 104.484 308.529C103.247 309.213 101.889 309.698 100.756 310.52C93.5163 303.658 86.6743 296.242 81.2942 287.831C78.3187 283.171 76.1779 278.04 74.3744 272.826C72.2811 266.661 70.8712 260.197 70.9145 253.66C70.9145 244.859 71.1567 236.029 70.2658 227.267C69.8981 223.529 69.7035 219.769 69.1024 216.062C68.4926 211.964 67.7703 207.841 68.1163 203.674C68.3671 200.17 69.0418 196.713 69.6516 193.252C70.9145 186.264 75.2956 179.748 81.6445 176.434C87.5566 173.159 94.4115 172.679 100.916 171.385C103.944 170.766 107.07 170.952 110.124 170.468C110.197 169.408 110.275 168.14 109.41 167.37C108.351 166.336 106.781 166.816 105.47 166.609C101.474 166.063 97.9319 163.853 93.9401 163.286C89.0227 162.563 84.1313 161.607 79.1707 161.226C71.3859 160.573 63.5449 159.677 55.7082 160.093C51.0936 160.491 46.4357 160.322 41.8427 160.958C37.0421 161.603 32.7129 163.987 28.6476 166.483C25.4701 168.571 22.4609 170.904 19.6475 173.462C17.4851 175.504 15.4134 178.013 15.0847 181.085C14.9291 183.681 16.2135 186.018 17.3726 188.242C19.0247 191.326 20.4995 194.55 21.1958 197.998C22.1213 202.264 21.7926 206.651 21.5115 210.978C21.2673 214.543 20.5473 218.06 19.3707 221.435C18.2246 224.948 16.8709 228.609 17.3596 232.364C18.03 234.458 19.8767 235.825 21.3255 237.396C23.5226 239.607 25.7326 241.861 27.3804 244.535C29.0107 247.158 30.2629 249.998 31.0997 252.972C32.6974 258.259 33.7737 263.69 34.3131 269.188C34.5899 272.588 34.8927 275.989 35.3641 279.368C36.0777 284.422 36.268 289.549 37.4184 294.537C38.6423 299.902 40.2122 305.319 43.2224 309.987C46.4227 314.634 48.9615 319.696 51.2666 324.836C50.0254 324.945 48.7928 325.066 47.5559 325.148C45.3822 320.628 42.8529 316.287 39.9917 312.168C36.2377 306.756 34.378 300.382 32.9681 294.061C31.9647 289.376 31.6706 284.586 30.9786 279.861C30.477 276.357 30.1699 272.826 29.8672 269.305C29.3484 264.15 28.3346 259.057 26.8397 254.097C25.9678 250.978 24.5647 248.033 22.6922 245.391C20.8455 242.765 18.3673 240.701 16.2049 238.348C14.3409 236.396 12.745 233.913 12.8877 231.105C12.7407 224.857 16.166 219.332 16.9531 213.249C17.3645 209.836 17.5365 206.398 17.4678 202.961C17.4288 199.244 16.3 195.605 14.6436 192.322C13.104 189.172 11.1491 186.074 10.8421 182.492C10.5047 179.238 11.8368 176.045 13.7743 173.497C15.0616 171.9 16.4871 170.42 18.0343 169.075C23.0858 164.636 28.7211 160.772 34.9878 158.258C38.2867 157.031 41.7666 156.359 45.2853 156.272L45.2594 156.264ZM51.4396 163.891C55.1114 163.074 58.8784 162.563 62.641 162.909C66.0317 163.23 69.5219 163.485 72.7136 164.783C75.5508 165.942 77.8213 168.594 78.0981 171.705C78.3835 174.634 76.8871 177.304 75.6329 179.839C72.7655 185.031 69.2018 189.929 67.0178 195.506C64.9438 201.516 64.1082 207.885 64.5612 214.227C65.0802 222.75 66.4988 231.222 66.235 239.784C66.235 244.885 65.6555 249.969 65.6252 255.07C65.5646 261.383 67.3811 267.531 69.6603 273.359C71.6367 278.403 74.4911 283.024 77.3456 287.602C81.2726 293.953 84.8622 300.538 89.3038 306.556C90.9516 308.858 92.807 311 94.6451 313.159C93.473 313.678 92.2448 314.024 91.0944 314.604C83.9064 307.193 78.9847 298.024 73.4791 289.389C70.6161 284.924 67.8568 280.35 65.8717 275.431C63.013 268.435 60.924 260.946 61.2614 253.322C61.6376 245.928 62.2215 238.504 61.5511 231.105C60.9889 223.084 59.566 215.071 60.1239 207.01C60.5564 202.186 61.4646 197.353 63.3633 192.871C65.5257 187.986 68.5531 183.564 71.3383 179.026C72.359 177.144 73.5008 175.244 73.8857 173.116C74.1408 171.117 72.5406 169.417 70.7415 168.85C67.7919 167.881 64.6607 167.716 61.5944 167.465C57.3906 167.158 53.2733 168.231 49.1907 169.075C44.6712 170.074 40.0652 171.009 35.8917 173.077C34.0969 173.942 32.3194 175.015 31.1344 176.651C29.5168 178.857 28.7989 181.579 28.4745 184.257C28.0421 188.211 28.7211 192.157 28.8508 196.112C29.1536 201.667 28.5654 207.209 28.1718 212.743C27.9123 216.793 27.1598 220.825 27.3068 224.892C27.3328 227.107 28.4529 229.085 29.4693 230.949C32.8643 236.872 36.5491 242.722 38.6466 249.264C40.1603 253.924 41.6438 258.609 42.539 263.438C43.7976 270.408 44.9436 277.404 45.8865 284.43C47.1839 292.322 47.8456 300.564 51.6558 307.751C54.3373 313.267 58.8481 317.672 61.3652 323.274C60.2377 323.6 59.077 323.798 57.9053 323.863C53.7534 318.476 49.2556 313.219 46.6087 306.877C43.7413 300.387 42.9931 293.235 41.8168 286.304C40.5193 277.802 39.304 269.27 37.4184 260.872C35.7187 254.668 34.0147 248.377 30.9311 242.7C29.4174 239.845 27.8446 237.024 26.2126 234.238C24.66 231.538 23.1247 228.682 22.9214 225.515C22.6749 221.985 23.2501 218.471 23.5139 214.954C23.8858 210.51 24.1497 206.058 24.3789 201.602C24.5346 197.072 24.0026 192.555 23.7475 188.038C23.7475 184.066 24.3097 179.986 26.0526 176.382C27.5004 173.438 29.8673 171.046 32.7951 169.568C38.5731 166.423 45.1339 165.293 51.4828 163.891H51.4396ZM37.7168 175.95C41.3101 172.685 45.9679 170.84 50.8212 170.758C54.0605 170.671 57.2738 171.312 60.3834 172.181C62.6929 172.809 64.9116 174.522 65.4133 176.966C65.8674 179.277 64.7991 181.531 63.6184 183.456C62.0455 185.921 60.666 188.505 59.4925 191.184C57.2479 196.497 54.96 201.965 54.7352 207.811C54.5374 211.407 54.7726 215.014 55.4358 218.554C56.4478 223.828 57.1917 229.201 56.7851 234.584C55.9202 242.895 55.7342 251.341 56.9452 259.63C57.9356 265.493 58.8395 271.459 61.27 276.937C64.877 285.59 71.2172 292.664 76.3595 300.4C80.0875 305.678 83.7118 311.125 88.3956 315.616C87.4268 315.889 86.5143 316.296 85.5758 316.633C85.0568 316.78 84.7368 316.201 84.3605 315.988C81.6012 313.769 79.4388 310.931 77.2418 308.201C73.9635 304.099 71.2864 299.569 68.3152 295.247C65.4392 291.124 62.6021 286.953 60.2364 282.509C57.343 277.084 55.5439 271.148 54.4194 265.125C52.6616 257.276 51.87 249.241 52.0624 241.199C52.0883 237.591 52.6635 234.013 52.4949 230.408C52.4949 224.671 50.7995 219.116 50.4752 213.409C50.1339 207.07 51.2787 200.739 53.8183 194.922C55.5828 190.548 57.4079 186.178 59.8342 182.128C60.4829 180.943 61.2571 179.731 61.3133 178.347C61.2614 177.265 60.1412 176.789 59.2676 176.503C55.6909 175.465 51.9153 174.864 48.2089 175.448C45.622 175.932 43.1938 177.045 41.1378 178.688C38.8023 180.67 37.9114 183.768 37.28 186.654C35.4116 196.254 35.39 206.097 35.9479 215.832C36.1078 218.398 36.446 220.95 36.9599 223.469C37.8811 228.366 39.0272 233.247 40.8956 237.876C43.084 243.267 45.6529 248.537 47.1061 254.183C48.2652 258.51 48.5506 263.018 49.3377 267.422C50.912 276.392 51.3358 285.594 53.8442 294.382C55.4574 299.941 58.208 305.085 61.1965 310.013C63.5882 313.964 66.5161 317.555 68.938 321.483C67.8408 321.852 66.7249 322.163 65.5949 322.413C62.1912 318.061 58.8524 313.63 56.1624 308.793C53.1566 303.601 50.6957 298.081 49.4415 292.214C47.5818 284.253 47.1104 276.058 45.5491 268.041C44.7188 263.831 44.3382 259.531 43.1705 255.39C41.1507 248.165 37.427 241.545 35.3857 234.333C33.5095 227.262 32.4088 220.009 32.1031 212.7C31.8177 207.508 31.3852 202.273 31.7225 197.059C32.0728 193.04 32.3496 188.99 33.2233 185.04C33.9585 181.726 35.1867 178.36 37.6822 175.954L37.7168 175.95ZM93.2438 181.142C98.2736 180.155 103.425 181.388 108.13 183.188C115.82 186.156 122.947 190.331 130.338 193.944C135.251 196.328 140.489 198.271 145.96 198.738C152.105 199.573 158.346 198.552 164.28 196.925C173.483 194.329 182.401 190.677 191.816 188.869C191.57 190.318 191.189 191.742 191.016 193.195C180.844 194.684 171.122 198.219 161.105 200.347C154.354 201.745 147.339 202.113 140.549 200.81C131.233 199.11 122.964 194.277 114.462 190.388C110.193 188.449 105.868 186.476 101.275 185.425C99.1902 184.967 97.0462 184.84 94.9218 185.049C91.9615 185.395 89.2351 186.829 87.2711 189.072C85.139 191.495 83.8545 194.55 83.0068 197.635C81.8867 201.615 81.9905 205.799 82.25 209.892C83.0198 218.372 84.5724 226.766 85.0957 235.276C85.6407 241.649 85.5282 248.065 86.2548 254.425C87.5047 265.614 93.0448 275.708 98.9959 285.053C103.234 291.543 107.403 298.085 110.729 305.098C109.735 305.994 108.441 306.427 107.356 307.188C104.722 302.589 102.114 297.968 99.1818 293.546C94.1477 285.923 89.1568 278.135 86.0386 269.491C83.8636 263.535 82.707 257.256 82.6176 250.917C82.3235 244.193 82.3884 237.448 81.6618 230.75C80.866 221.924 78.7987 213.232 78.5349 204.358C78.7425 198.677 79.9405 192.849 83.1366 188.06C85.463 184.518 89.0943 182.039 93.2395 181.163L93.2438 181.142ZM44.1695 183.781C41.887 186.051 40.4364 189.025 40.0522 192.222C39.5116 197.189 40.3463 202.173 40.3723 207.131C40.4847 214.309 39.676 221.738 42.1714 228.63C43.1791 231.101 43.9576 233.991 46.4963 235.375C46.7663 234.676 47.2134 234.059 47.7937 233.584C49.8264 231.88 49.3204 228.924 49.3593 226.579C49.4588 222.318 48.1354 218.22 47.7937 214.006C47.3396 210.723 47.2099 207.352 47.9148 204.098C48.9788 198.11 51.8764 192.473 51.6948 186.277C51.6948 184.646 50.8298 182.885 49.2253 182.331C47.4434 181.674 45.4713 182.504 44.1911 183.781H44.1695ZM92.1064 191.802C89.4422 194.29 88.3567 197.976 87.9372 201.498C87.5696 205.448 87.2755 209.429 87.6085 213.396C88.0799 217.334 88.9059 221.219 89.3817 225.152C90.2077 231.962 91.2717 238.802 90.7224 245.686C90.5105 250.553 91.423 255.39 92.6729 260.076C93.6633 263.836 94.6797 267.656 96.708 271.014C97.8975 273 99.3526 274.816 101.033 276.409C103.546 278.916 105.75 281.715 107.598 284.746C110.431 289.324 111.49 294.81 114.704 299.184C115.366 299.997 115.884 301.057 116.81 301.594C117.779 301.057 118.716 300.465 119.617 299.82C118.618 298.267 117.506 296.791 116.667 295.134C115.041 292.106 114.072 288.796 112.533 285.733C110.266 281.086 106.936 277.079 103.312 273.415C100.458 270.616 98.6542 266.925 97.6379 263.092C96.548 259.313 95.7143 255.465 95.1424 251.574C94.5542 247.083 95.2116 242.562 94.9694 238.054C94.658 233.182 93.9963 228.345 93.3779 223.508C92.7162 218.294 91.2976 213.124 91.6479 207.845C91.8988 204.514 91.8469 201.083 93.0059 197.894C93.6806 196.029 94.9911 194.225 96.9589 193.598C99.1948 192.858 101.561 193.671 103.572 194.684C106.194 196.05 108.745 197.551 111.214 199.179C114.375 201.291 117.524 203.506 121.044 204.972C126.849 207.421 133.044 208.81 139.338 209.074C145.869 209.429 152.525 210.554 158.99 209.039C164.362 207.703 169.288 204.938 174.759 203.956C179.456 202.896 184.274 202.614 189.031 202.082C189.342 200.923 189.723 199.789 190.021 198.621C188.414 198.4 186.786 198.358 185.169 198.496C180.514 198.749 175.896 199.462 171.381 200.624C165.971 201.987 161.002 204.873 155.409 205.548C149.748 206.08 144.1 205.176 138.46 204.769C133.211 204.356 128.055 203.148 123.168 201.187C118.328 199.253 114.293 195.878 109.795 193.33C106.746 191.599 103.658 189.652 100.112 189.228C98.6675 189.034 97.1982 189.166 95.812 189.615C94.4258 190.065 93.158 190.819 92.102 191.824L92.1064 191.802ZM98.0574 200.183C96.0377 202.16 95.3241 205.011 94.8527 207.703C94.0569 211.882 94.2601 216.174 94.7748 220.375C95.337 225.1 95.8517 229.855 97.1275 234.45C98.8142 240.624 100.704 246.863 100.734 253.322C100.799 257.138 101.297 261.01 102.789 264.571C104.324 268.253 106.651 271.524 108.896 274.799C111.525 278.572 114.111 282.375 116.455 286.334C118.691 290.038 120.612 293.923 122.553 297.791C123.626 297.181 124.608 296.428 125.646 295.753C122.555 288.571 118.747 281.719 114.28 275.301C111.633 271.325 108.658 267.513 106.616 263.187C105.103 259.929 104.692 256.303 104.623 252.747C104.566 246.365 102.789 240.174 101.072 234.077C99.7268 229.318 99.1429 224.395 98.5115 219.51C97.8974 214.854 97.8671 210.03 99.2294 205.5C99.7181 204.176 100.345 202.55 101.863 202.152C103.567 201.814 105.241 202.584 106.707 203.376C109.107 204.765 111.391 206.344 113.8 207.703C118.237 210.26 122.644 213.059 127.639 214.353C133.033 215.975 138.646 216.589 144.247 216.948C148.256 217.351 152.352 217.749 156.326 216.853C162.264 215.555 167.774 212.868 173.626 211.229C178.253 210.052 182.838 208.724 187.5 207.672C187.898 206.223 188.456 204.821 188.927 203.393C184.966 204.406 180.948 205.159 177.004 206.223C173.243 207.023 169.546 208.095 165.941 209.429C160.811 211.159 155.665 213.461 150.133 213.262C147.002 213.119 143.884 212.791 140.752 212.622C136.665 212.462 132.639 211.618 128.699 210.554C126.288 209.893 123.965 208.946 121.779 207.733C117.926 205.626 114.124 203.406 110.418 201.048C108.061 199.573 105.444 198.175 102.581 198.271C101.738 198.257 100.901 198.421 100.124 198.75C99.347 199.079 98.6476 199.567 98.0703 200.183H98.0574ZM105.661 211.696C104.889 211.954 104.203 212.421 103.68 213.045C103.157 213.669 102.817 214.425 102.698 215.231C102.041 218.848 102.983 222.495 103.874 225.987C105.193 230.616 106.288 235.311 107.261 240.027C108.437 245.136 109.06 250.35 110.046 255.494C110.954 259.873 111.607 264.364 113.445 268.474C115.283 272.584 117.926 276.448 120.365 280.316C123.229 284.711 125.862 289.253 128.254 293.923C129.174 293.069 130.143 292.269 131.156 291.526C128.846 286.165 125.784 281.19 122.683 276.266C120.841 273.315 118.916 270.399 117.446 267.241C115.867 263.905 115.283 260.227 114.565 256.645C113.471 251.167 112.835 245.612 111.573 240.169C110.444 234.977 109.181 229.816 107.55 224.754C106.733 221.686 105.583 218.402 106.534 215.235C108.541 215.157 110.426 215.88 112.321 216.49C118.631 218.675 124.833 221.223 131.35 222.841C138.504 224.749 146.055 225.359 153.407 223.971C159.103 222.911 164.768 221.638 170.434 220.41C174.997 219.198 179.698 218.679 184.377 218.06C184.73 216.838 185.164 215.639 185.675 214.474C183.206 214.429 180.737 214.583 178.292 214.937C173.189 215.534 168.298 217.16 163.272 218.147C156.573 219.553 149.8 221.344 142.898 220.803C136.562 220.444 130.451 218.562 124.482 216.524C119.993 215.019 115.616 213.171 111.032 211.956C109.302 211.523 107.447 211.168 105.699 211.692L105.661 211.696ZM-83.7212 218.835C-88.2277 219.627 -93.0197 221.154 -95.9563 224.892C-96.9423 226.03 -96.8558 228.042 -95.4243 228.786C-94.5377 229.651 -93.3138 229.249 -92.2369 229.102C-91.4627 229.059 -91.147 228.189 -90.4421 227.973C-86.4026 226.675 -82.0864 227.207 -77.9691 226.359C-76.0792 225.956 -74.133 225.493 -72.4852 224.425C-71.3045 223.715 -70.6471 222.015 -71.4775 220.812C-72.4506 219.397 -74.2324 218.822 -75.8543 218.606C-78.4748 218.312 -81.1238 218.393 -83.7212 218.848V218.835ZM178.686 222.422C173.016 223.689 167.251 224.433 161.551 225.528C157.373 226.277 153.29 227.518 149.056 227.925C142.872 228.639 136.514 228.271 130.58 226.294C127.674 225.463 124.794 224.1 121.71 224.286C120.494 224.384 119.326 224.806 118.328 225.509C117.331 226.212 116.541 227.171 116.04 228.284C114.336 232.061 114.31 236.431 115.487 240.364C117.074 245.725 119.379 250.826 121.377 256.044C122.497 259.111 123.436 262.239 124.612 265.289C126.463 270.144 128.18 275.055 129.668 280.039C130.645 283.357 132.12 286.49 133.379 289.704C134.041 289.413 134.606 288.937 135.005 288.333C134.282 284.785 133.677 281.203 132.717 277.702C131.091 271.109 128.474 264.827 126.411 258.371C125.006 253.716 122.951 249.285 121.265 244.751C120.192 241.883 119.024 238.992 118.709 235.921C118.544 233.757 118.756 231.486 119.803 229.552C120.551 228.163 122.35 227.938 123.747 228.31C127.086 229.111 130.269 230.473 133.625 231.218C141.617 233.043 149.982 232.368 157.883 230.434C165.504 228.635 173.358 227.925 180.905 225.775C182.202 224.875 182.12 223.006 182.855 221.703C181.45 221.859 180.066 222.136 178.686 222.422ZM-92.3493 234.757C-98.4911 237.541 -104.305 240.999 -109.683 245.067C-109.387 246.093 -108.853 247.036 -108.126 247.819C-101.799 243.492 -95.1518 239.529 -87.9596 236.786C-82.4713 234.696 -76.4035 233.519 -70.5996 234.891C-63.8268 236.457 -57.8369 240.152 -51.4793 242.821C-44.4211 245.85 -36.7748 248.355 -28.99 247.395C-21.5685 246.62 -14.6617 243.626 -7.49106 241.792C-3.88844 240.926 -0.0782318 240.667 3.55034 241.554C10.1025 242.982 15.4783 248.295 17.5499 254.603C19.4053 260.227 19.5696 266.22 19.7729 272.087C19.92 280.947 20.6855 289.826 22.6273 298.479C24.3573 306.154 27.4279 313.444 30.9743 320.441C32.0253 322.284 32.8946 324.265 34.2137 325.931C35.4878 325.995 36.7647 325.979 38.0368 325.883C34.2966 319.781 31.2282 313.29 28.8854 306.526C26.4678 299.699 25.3736 292.478 24.8373 285.278C24.1627 277.322 24.7508 269.305 23.9378 261.361C23.315 255.304 21.5245 249.086 17.3294 244.487C13.5721 240.156 8.32228 237.399 2.6248 236.764C-2.21472 236.081 -7.08885 237.136 -11.6732 238.655C-18.1216 240.766 -24.5354 243.414 -31.386 243.847C-38.3058 244.318 -44.9574 241.774 -51.2025 239.088C-58.2391 236.024 -65.0032 231.905 -72.749 231.001C-79.5001 230.184 -86.2296 232.061 -92.358 234.757H-92.3493ZM166.04 235.237C158.653 237.08 150.959 237.206 143.395 236.868C138.854 236.435 134.218 235.765 129.694 236.686C127.843 237.045 126.121 238.33 125.594 240.187C124.841 242.757 125.434 245.487 126.351 247.936C129.015 254.832 132.405 261.551 133.4 268.967C134.326 274.778 135.602 280.575 137.794 286.053C138.56 285.469 139.308 284.859 140.022 284.21C140.376 283.816 141.081 283.487 140.77 282.847C140 280.043 139.26 277.222 138.715 274.375C137.937 270.598 137.595 266.735 136.631 262.996C135.394 258.034 133.171 253.396 131.047 248.779C130.096 246.616 128.855 244.357 129.054 241.9C129.048 241.54 129.173 241.189 129.406 240.915C129.639 240.64 129.965 240.46 130.321 240.407C133.123 239.875 136.004 240.109 138.837 240.286C146.93 241.287 155.122 241.163 163.181 239.918C167.722 239.3 172 237.569 176.065 235.518C177.92 234.783 178.132 232.524 179.092 230.997C174.72 232.325 170.443 233.909 166.057 235.237H166.04ZM-82.6832 239.996C-88.6472 242.095 -93.7203 245.967 -99.0702 249.212C-100.995 250.531 -103.213 251.561 -104.762 253.335C-104.273 254.127 -103.676 254.849 -103.196 255.658C-99.7362 253.495 -96.1163 251.574 -92.6737 249.372C-89.2311 247.17 -85.702 244.929 -81.7707 243.626C-75.8629 241.532 -69.3843 242.553 -63.6062 244.6C-59.1516 246.032 -55.3328 248.822 -51.1074 250.769C-44.4817 254.006 -37.0861 255.853 -29.6863 255.399C-23.3936 254.936 -17.4729 252.6 -11.3921 251.124C-7.49972 250.332 -3.38676 249.826 0.5186 250.843C3.27786 251.496 5.95496 252.842 7.76276 255.079C10.0376 257.774 10.8896 261.318 11.3913 264.727C11.9492 269.006 12.3039 273.302 12.5374 277.612C12.771 282.038 13.4024 286.434 14.0252 290.821C14.7388 295.848 14.8901 300.941 15.6773 305.964C16.2242 309.143 17.0122 312.276 18.0343 315.335C19.1415 318.848 20.1448 322.396 21.3515 325.875C22.6489 325.918 23.9248 325.914 25.2222 325.901C24.1064 320.916 22.6489 316.014 21.2347 311.108C19.042 303.662 19.3015 295.818 18.0257 288.212C16.7628 280.684 16.7282 273.03 15.7248 265.471C15.327 262.092 14.6523 258.691 13.1299 255.624C11.3469 252.061 8.32707 249.271 4.63586 247.775C-0.34639 245.673 -5.94276 245.707 -11.1586 246.824C-19.0428 248.511 -26.6589 252.357 -34.8978 251.639C-42.1116 251.206 -48.9233 248.338 -55.03 244.621C-59.8111 241.699 -65.1132 239.731 -70.6428 238.828C-74.6693 238.343 -78.8601 238.59 -82.6832 240.001V239.996ZM151.828 245.136C148.174 245.461 144.23 245.612 141.098 247.767C140.06 248.448 139.206 249.375 138.612 250.465C138.018 251.556 137.703 252.777 137.695 254.019C137.639 257.952 139.395 261.573 140.29 265.333C141.483 270.404 142.677 275.479 143.75 280.575C144.528 279.935 145.562 279.347 145.821 278.3C145.6 273.269 144.843 268.277 143.564 263.407C142.863 260.621 141.73 257.939 141.367 255.079C141.155 253.491 141.63 251.674 143.049 250.778C145.644 249.047 148.879 249.13 151.863 248.935C157.559 248.585 163.294 248.282 168.894 247.1C169.524 246.997 170.138 246.81 170.72 246.547C171.77 245.122 172.703 243.614 173.509 242.038C166.46 244.085 159.09 244.366 151.833 245.136H151.828ZM-83.7515 249.571C-90.0009 251.639 -96.3801 253.811 -101.708 257.792C-101.068 258.657 -100.471 259.522 -99.8443 260.387C-95.8135 258.531 -91.8303 256.532 -87.6266 255.092C-84.3743 253.984 -81.1695 252.669 -77.7529 252.15C-74.3362 251.63 -70.8331 251.215 -67.5202 252.331C-64.4928 253.292 -61.8979 255.2 -59.1084 256.693C-53.1246 259.962 -46.5554 262.021 -39.7762 262.75C-34.2058 263.299 -28.6483 262.447 -23.0995 262.032C-19.6428 261.727 -16.2119 261.179 -12.8323 260.392C-9.37238 259.596 -5.63137 259.414 -2.23634 260.638C-0.402603 261.296 0.916489 262.888 1.71227 264.619C3.15677 267.682 4.00876 270.988 4.91698 274.241C6.17552 278.698 6.43069 283.353 6.78101 287.944C7.05348 291.491 7.50758 295.026 8.10008 298.531C8.85695 303.022 9.1813 307.578 10.1674 312.03C10.894 315.993 12.2174 319.818 13.0348 323.755C13.1775 324.187 13.1472 324.72 13.5321 325.031C14.8296 325.464 16.1962 325.399 17.5413 325.507C16.4557 320.583 14.8166 315.798 13.9257 310.827C13.1083 306.985 12.8661 303.039 12.2303 299.18C11.5211 294.801 10.8853 290.401 10.5999 285.971C10.2409 281.679 9.89923 277.352 8.77043 273.177C7.77573 269.473 6.79829 265.722 5.08133 262.278C3.80362 259.669 1.56779 257.654 -1.15945 256.654C-5.12536 255.26 -9.4805 255.299 -13.5502 256.221C-16.9232 257.028 -20.3526 257.578 -23.8088 257.865C-28.657 258.228 -33.5095 258.999 -38.3836 258.661C-44.8981 258.138 -51.2391 256.3 -57.0238 253.257C-59.6187 251.929 -62.0536 250.229 -64.8086 249.169C-67.5524 248.063 -70.5043 247.57 -73.4583 247.724C-76.9562 247.93 -80.4166 248.558 -83.7645 249.593L-83.7515 249.571ZM150.656 255.299C148.974 255.892 147.391 257.134 146.976 258.947C146.543 260.833 146.92 262.776 147.214 264.653C147.719 268.029 148.58 271.341 149.783 274.535C150.795 273.528 151.755 272.47 152.659 271.364C151.941 268.11 151.175 264.874 150.63 261.582C150.522 260.63 150.297 259.263 151.457 258.869C155.838 257.118 160.346 255.702 164.941 254.633C166.702 254.2 167.255 252.223 168.068 250.821C162.014 251.029 156.3 253.279 150.656 255.299ZM-87.3974 257.735C-81.9446 255.926 -76.0268 256.113 -70.699 258.263C-66.6509 259.886 -62.9359 262.244 -58.8186 263.702C-55.0992 265.112 -51.0987 265.341 -47.202 265.9C-43.6816 266.362 -40.1871 267.068 -36.6407 267.349C-32.4715 267.656 -28.298 267.202 -24.1245 267.072C-20.7511 266.947 -17.4339 266.272 -14.0649 266.051C-11.085 265.938 -7.87598 265.839 -5.20321 267.384C-2.45259 268.976 -0.80481 271.883 0.194229 274.808C1.20857 277.779 1.95683 280.834 2.43018 283.937C3.61087 292.807 2.68535 301.841 4.1904 310.684C5.08565 315.275 6.46095 319.77 7.26971 324.373C5.90308 324.095 4.52307 323.887 3.13513 323.75C2.11447 319.856 1.02028 315.962 0.194229 312.021C-1.58762 303.208 -0.52803 294.174 -1.40164 285.283C-1.84004 281.975 -2.61981 278.721 -3.72842 275.574C-4.59341 273.337 -5.95142 270.858 -8.48579 270.278C-11.7338 269.568 -15.0769 270.101 -18.3119 270.572C-22.2043 271.195 -26.1442 271.204 -30.0626 271.438C-33.9535 271.644 -37.8553 271.446 -41.7051 270.845C-45.7791 270.17 -49.8791 269.733 -53.9661 269.188C-58.2434 268.621 -62.2828 266.999 -66.1363 265.125C-68.8956 263.797 -71.5856 262.248 -74.5698 261.469C-78.1278 260.466 -81.8953 260.478 -85.4468 261.504C-89.0019 262.555 -92.3277 264.216 -95.6751 265.796C-96.4839 264.775 -97.258 263.723 -98.0149 262.672C-94.63 260.718 -91.0765 259.071 -87.3974 257.753V257.735ZM156.093 259.604C155.747 261.863 155.487 264.364 156.789 266.393C157.784 265.566 158.587 264.533 159.142 263.364C158.709 261.248 158.809 259.038 158.043 256.995C156.919 257.385 156.313 258.484 156.093 259.591V259.604ZM-84.8024 266.254C-80.3219 265.186 -75.6121 265.709 -71.2483 267.046C-67.7495 268.015 -64.4842 269.642 -61.0027 270.702C-55.0387 272.554 -49.1525 274.92 -42.8858 275.548C-38.4012 276.026 -33.8765 275.987 -29.4009 275.431C-25.5085 274.998 -21.469 274.838 -17.6286 275.864C-14.7439 276.634 -11.8678 278.079 -10.0903 280.567C-8.48642 282.912 -7.38364 285.563 -6.85099 288.355C-6.06386 292.274 -5.39783 296.22 -4.64097 300.149C-3.86249 304.16 -3.91006 308.27 -3.34351 312.311C-2.97589 315.863 -2.11093 319.333 -1.39301 322.82C-2.64005 322.753 -3.86818 322.486 -5.03022 322.028C-5.99546 318.628 -6.68677 315.156 -7.0975 311.645C-7.58189 307.72 -7.77218 303.74 -8.65445 299.872C-9.57132 295.779 -9.83514 291.561 -10.8169 287.485C-11.6386 284.859 -12.9793 282.033 -15.5742 280.792C-18.8309 279.091 -22.6238 278.914 -26.2178 279.161C-29.2452 279.416 -32.2423 279.831 -35.2697 279.918C-39.5777 280.047 -43.8853 279.65 -48.0973 278.737C-52.7249 277.694 -57.1492 275.98 -61.6341 274.488C-66.5991 272.991 -71.1488 270.226 -76.3689 269.56C-81.1609 268.868 -85.9442 270.118 -90.4594 271.606C-91.2897 271.277 -91.7265 270.282 -92.3234 269.638C-89.8798 268.37 -87.5011 266.843 -84.7722 266.254H-84.8024ZM-88.5175 274.016C-81.8096 272.151 -74.6217 272.632 -67.97 274.509C-64.8769 275.454 -61.9562 276.892 -59.3203 278.767C-56.6129 280.575 -53.9358 282.617 -50.7052 283.392C-47.1371 284.231 -43.4524 284.478 -39.7935 284.642C-36.3336 284.699 -32.8737 284.288 -29.4138 284.413C-26.3864 284.547 -23.3114 285.607 -21.0712 287.723C-18.4027 290.198 -16.7463 293.512 -15.1634 296.735C-13.8588 299.326 -12.8435 302.052 -12.136 304.865C-10.8645 310.342 -9.29885 315.751 -8.46416 321.306C-9.6189 320.999 -10.739 320.592 -11.8678 320.22C-12.5339 317.723 -13.6497 315.391 -14.4195 312.934C-15.7732 308.893 -16.3614 304.601 -18.2038 300.724C-19.7564 297.453 -21.1879 294.014 -23.6488 291.297C-25.4263 289.28 -28.1942 288.497 -30.8108 288.592C-35.0491 288.696 -39.3005 289.077 -43.5345 288.64C-47.6129 288.268 -51.8383 287.918 -55.5577 286.044C-59.8825 283.881 -63.4722 280.42 -68.0998 278.84C-73.7221 277.002 -79.7769 276.201 -85.6501 277.058C-86.6145 276.024 -87.5833 274.998 -88.5651 273.995L-88.5175 274.016ZM-79.3834 283.141C-76.2651 281.843 -72.7577 282.02 -69.5227 282.708C-63.3121 284.396 -58.6586 289.259 -52.7162 291.552C-46.5057 293.992 -39.6205 293.356 -33.3105 295.446C-29.3014 296.584 -25.9583 299.444 -23.679 302.87C-20.5651 307.79 -19.6958 313.687 -16.9928 318.814C-18.5324 318.359 -20.1543 318.165 -21.5728 317.382C-22.2172 317.196 -22.3383 316.473 -22.5849 315.95C-23.9039 312.488 -24.9246 308.88 -26.8319 305.678C-28.5359 302.896 -31.1351 300.573 -34.2923 299.621C-39.8843 297.843 -45.8743 298.033 -51.4923 296.372C-55.3847 295.303 -58.7927 293.144 -62.1271 290.972C-64.8172 289.289 -67.4381 287.355 -70.5304 286.485C-72.4679 285.914 -74.5352 286.092 -76.4814 285.62C-77.5583 284.945 -78.4319 284.002 -79.3834 283.171V283.141ZM58.7659 296.744C59.1984 300.586 61.6333 303.744 63.48 307.015C66.2047 311.658 68.2374 316.867 72.2811 320.583C73.5715 320.494 74.8398 320.202 76.0395 319.718C75.3259 318.853 74.6036 317.987 73.877 317.122C70.815 313.618 68.2806 309.711 65.729 305.834C64.1893 303.463 62.4204 301.161 61.6074 298.414C62.9308 299.794 63.9428 301.442 65.1797 302.896C69.8073 308.296 74.0327 314.145 79.7026 318.537C81.0008 318.372 82.2549 317.957 83.3961 317.317C76.0438 310.983 69.963 303.385 63.7828 295.956C62.8573 295.004 61.6506 293.871 60.2148 294.178C59.7047 294.368 59.2793 294.734 59.0159 295.21C58.7524 295.686 58.6684 296.241 58.7789 296.774L58.7659 296.744ZM-57.3957 300.106C-52.2967 300.188 -47.3231 301.65 -42.2198 301.728C-39.707 301.771 -37.1034 301.784 -34.7464 302.805C-31.8016 304.069 -29.3779 306.302 -27.8785 309.135C-26.7421 311.288 -25.8957 313.583 -25.3614 315.958C-26.6373 315.746 -27.7444 315.05 -28.9727 314.712C-30.201 314.375 -30.4604 312.882 -31.0097 311.878C-32.1169 309.165 -34.3528 306.872 -37.1813 306.016C-39.9665 305.276 -42.8815 305.76 -45.7013 305.323C-47.4572 305.042 -49.3818 305.103 -50.8911 304.025C-53.0925 302.771 -55.2895 301.503 -57.4044 300.106H-57.3957ZM-91.2422 225.143C-89.2873 224.589 -87.3065 224.035 -85.2565 223.936C-81.615 223.616 -77.7096 223.88 -74.3665 222.162C-76.343 221.651 -78.4059 221.76 -80.4213 221.842C-84.1926 222.192 -88.0245 223.079 -91.2335 225.143H-91.2422ZM46.4703 186.442C44.4334 188.175 43.1634 190.643 42.9369 193.308C42.565 197.803 43.1229 202.303 43.2699 206.798C43.3564 210.632 43.7457 214.443 44.0397 218.259C44.3901 222.378 44.8398 226.515 45.8865 230.53C46.038 227.161 45.8132 223.785 45.2161 220.466C44.6641 217.308 44.2844 214.121 44.0787 210.922C43.7932 206.435 44.7879 201.996 45.8605 197.669C46.959 193.819 48.023 189.847 47.7808 185.806C47.312 185.944 46.8692 186.159 46.4703 186.442Z" fill="#024430"/>
</svg>
