<svg width="90" height="80" viewBox="0 0 90 80" fill="none" xmlns="http://www.w3.org/2000/svg">
<path d="M21.4638 17.4329C21.1294 18.958 21.655 20.1928 22.0517 21.695C22.5836 23.7229 23.1327 25.7481 23.6991 27.7705C24.7067 31.3912 25.4296 35.5802 27.1892 38.9084C27.397 39.3262 28.149 39.1528 28.095 38.6618C27.6795 34.8865 26.0362 31.0611 24.9788 27.4133C24.3985 25.3964 23.83 23.3768 23.2733 21.3544C22.8578 19.8648 22.702 18.5276 21.6716 17.3848C21.6554 17.3711 21.6362 17.3615 21.6155 17.3569C21.5949 17.3523 21.5734 17.3528 21.553 17.3583C21.5326 17.3639 21.5138 17.3743 21.4983 17.3887C21.4828 17.4032 21.4709 17.4212 21.4638 17.4412V17.4329Z" fill="#024430"/>
<path d="M32.3123 21.6155C31.417 24.3691 30.8685 27.2565 30.0708 30.0373C29.2731 32.8181 28.1554 35.555 27.5426 38.3734C27.4221 38.9229 28.2198 39.3345 28.494 38.7766C29.782 36.1504 30.5071 33.1858 31.3069 30.3799C32.1067 27.574 32.9917 24.6762 33.3843 21.7596C33.4674 21.1328 32.5014 21.0618 32.3227 21.6155H32.3123Z" fill="#024430"/>
<path d="M27.8375 39.3492C30.9536 38.1186 33.8101 35.8936 36.5751 34.0091C39.3879 32.0911 42.34 30.1983 44.8848 27.9231C45.3356 27.5198 44.7518 26.7677 44.2408 27.0873C41.2431 28.9677 38.4593 31.2262 35.5281 33.2131C32.869 35.014 29.8671 36.5559 27.4677 38.7099C27.1935 38.9543 27.4822 39.4913 27.8395 39.3513L27.8375 39.3492Z" fill="#024430"/>
<path d="M88.9488 0.290512C86.8132 1.33514 85.3258 3.26979 83.9256 5.14804C81.9458 7.8014 79.8933 10.3378 77.683 12.8031C73.1265 17.8842 68.5638 22.9611 63.9948 28.0338L60.8309 31.5479C59.4556 33.0793 59.1378 34.1261 57.2224 32.9811C54.7412 31.5322 52.1851 30.2169 49.565 29.0408C44.0204 26.4877 38.6295 24.0266 33.3611 20.9115C32.9352 20.6629 32.4076 21.3105 32.8231 21.6281C40.4867 27.5929 50.3835 30.0186 58.5063 35.2919C58.6276 35.3624 58.7685 35.3907 58.9075 35.3726C59.0464 35.3545 59.1755 35.2909 59.2749 35.1916L75.0903 17.5958C77.5832 14.8171 80.1696 12.0906 82.4964 9.16568C84.7587 6.33056 86.6097 3.48708 89.5035 1.25366C90.0561 0.835809 89.6011 -0.024966 88.9488 0.29678V0.290512Z" fill="#024430"/>
<path d="M33.515 21.8851C42.4977 18.0116 51.5615 14.6521 60.8102 11.4785C65.4096 9.90182 70.0091 8.32304 74.6085 6.74216C79.0043 5.22327 83.6744 3.89033 87.7773 1.65691C87.8105 1.64019 87.7773 1.59841 87.7544 1.60259C82.6814 2.44247 77.6955 4.50039 72.8323 6.16553C68.2329 7.74362 63.6348 9.32449 59.0382 10.9081C50.2943 13.9146 41.2077 16.6599 33.0309 21.0411C32.4638 21.344 32.9624 22.1275 33.5212 21.8768L33.515 21.8851Z" fill="#024430"/>
<path d="M1.07184 13.2042L0.697908 12.9138C0.662686 12.8811 0.62062 12.8569 0.574817 12.8427C0.529014 12.8286 0.480642 12.825 0.433273 12.8322C0.385904 12.8394 0.340746 12.8572 0.301133 12.8843C0.261521 12.9114 0.228464 12.9471 0.204405 12.9888C0.180345 13.0304 0.165897 13.077 0.162126 13.125C0.158354 13.1731 0.165357 13.2213 0.182616 13.2663C0.199876 13.3112 0.226951 13.3517 0.261845 13.3847C0.296738 13.4177 0.338557 13.4424 0.384217 13.457C3.66655 14.7503 7.51601 15.049 10.9791 15.6988C14.5315 16.3673 18.0811 17.0554 21.628 17.763C22.4257 17.9217 22.7664 16.6912 21.9645 16.5303C18.2459 15.7907 14.5252 15.072 10.8025 14.3742C7.45992 13.7474 3.88052 12.7258 0.471469 12.8198C0.498475 13.0287 0.527559 13.2376 0.556643 13.4466L1.05107 13.269C1.07808 13.2585 1.09885 13.2167 1.07184 13.1938V13.2042Z" fill="#024430"/>
<path d="M21.2335 17.7965C26.8155 17.1321 32.435 15.3144 37.8986 13.9982L55.4445 9.76328C61.1228 8.39272 66.8011 7.02078 72.4794 5.64744C78.1238 4.27897 83.7785 3.09018 89.4312 1.83036C89.4784 1.82179 89.5205 1.79506 89.5485 1.75584C89.5765 1.71662 89.5883 1.66797 89.5813 1.6202C89.5742 1.57242 89.549 1.52927 89.5109 1.49987C89.4728 1.47046 89.4249 1.45712 89.3772 1.46265C84.1358 1.56711 78.8052 3.01915 73.7487 4.23301C67.8959 5.63281 62.0445 7.03679 56.1945 8.44495L39.1596 12.5399C33.2265 13.9669 26.8737 14.9614 21.1483 17.082C20.7952 17.2115 20.8097 17.8487 21.2439 17.7965H21.2335Z" fill="#024430"/>
<path d="M0.446909 13.1168C15.1094 11.6543 29.7386 9.13676 44.3346 7.12271C59.0594 5.09195 73.7987 3.15312 88.5089 1.03461L88.002 0.159215L87.2915 0.911348C87.2367 0.972036 87.2047 1.05014 87.2011 1.13208C87.1975 1.21403 87.2226 1.29465 87.272 1.35994C87.3213 1.42524 87.3919 1.47108 87.4714 1.48951C87.5508 1.50793 87.6342 1.49778 87.707 1.46082L88.6273 0.982382C89.0636 0.754653 88.8849 -0.0622469 88.3635 0.00460942C73.9379 1.91419 59.5289 3.98883 45.1094 5.9778C30.2143 8.03363 15.1385 9.59431 0.324341 12.2163C-0.176319 12.3041 -0.0662151 13.169 0.446909 13.1168Z" fill="#024430"/>
<path d="M26.4509 41C26.356 40.9999 26.2636 40.9692 26.1868 40.9124C26.1099 40.8555 26.0526 40.7754 26.0228 40.6834C25.993 40.5913 25.9924 40.492 26.021 40.3996C26.0495 40.3072 26.1059 40.2263 26.182 40.1684L26.2823 40.0894C26.33 40.0536 26.3842 40.0278 26.4416 40.0133C26.4991 39.9989 26.5588 39.9961 26.6173 40.0053C26.6759 40.0144 26.732 40.0353 26.7827 40.0666C26.8333 40.0979 26.8774 40.1391 26.9125 40.1879C26.9475 40.2366 26.9728 40.2919 26.987 40.3507C27.0011 40.4094 27.0038 40.4704 26.9948 40.5302C26.9859 40.59 26.9655 40.6475 26.9348 40.6992C26.9042 40.7509 26.8638 40.796 26.8161 40.8318L26.7158 40.9087C26.6392 40.9671 26.5464 40.9991 26.4509 41Z" fill="#024430"/>
<path d="M66.5321 78C66.4311 78 66.3327 77.9676 66.2519 77.9078C66.171 77.8479 66.112 77.7638 66.0837 77.668L66.0077 77.4099C65.9906 77.3517 65.9853 77.2907 65.9921 77.2304C65.9989 77.1701 66.0176 77.1118 66.0472 77.0587C66.0769 77.0055 66.1168 76.9587 66.1647 76.9208C66.2126 76.8829 66.2676 76.8548 66.3266 76.8379C66.3856 76.821 66.4473 76.8158 66.5083 76.8225C66.5693 76.8292 66.6284 76.8477 66.6821 76.8769C66.7359 76.9062 66.7833 76.9456 66.8217 76.993C66.86 77.0403 66.8885 77.0947 66.9056 77.1529L66.9805 77.4068C67.0158 77.5238 67.0028 77.6498 66.9443 77.7573C66.8858 77.8648 66.7866 77.945 66.6684 77.9804C66.6242 77.9939 66.5783 78.0005 66.5321 78V78ZM65.9609 75.9441C65.8572 75.9437 65.7565 75.9094 65.6747 75.8466C65.5928 75.7837 65.5343 75.6958 65.5083 75.5966L65.4417 75.3376C65.4112 75.2189 65.4297 75.093 65.4931 74.9878C65.5565 74.8825 65.6597 74.8065 65.7799 74.7763C65.9 74.7462 66.0274 74.7645 66.1339 74.8271C66.2405 74.8898 66.3174 74.9917 66.3479 75.1104L66.4145 75.3664C66.4455 75.4851 66.4275 75.6111 66.3645 75.7168C66.3015 75.8224 66.1986 75.899 66.0785 75.9297C66.04 75.939 66.0005 75.9438 65.9609 75.9441V75.9441ZM65.4313 73.8769C65.3279 73.877 65.2274 73.8433 65.1455 73.781C65.0636 73.7187 65.005 73.6313 64.9787 73.5325L64.9101 73.2766C64.8829 73.1597 64.9028 73.0371 64.9654 72.9344C65.028 72.8318 65.1284 72.7571 65.2456 72.7262C65.3628 72.6953 65.4876 72.7105 65.5937 72.7687C65.6997 72.8269 65.7788 72.9234 65.8142 73.0381L65.8839 73.2981C65.9153 73.4167 65.8977 73.5428 65.8351 73.6486C65.7725 73.7544 65.6699 73.8313 65.5499 73.8625C65.5112 73.8722 65.4713 73.877 65.4313 73.8769ZM64.8435 71.8261C64.7433 71.8261 64.6458 71.7943 64.5653 71.7355C64.4848 71.6766 64.4255 71.5938 64.3961 71.4992L64.317 71.2474C64.2845 71.1318 64.2987 71.0083 64.3567 70.9028C64.4146 70.7974 64.5118 70.7184 64.6276 70.6824C64.7434 70.6464 64.8689 70.6562 64.9775 70.7098C65.0861 70.7635 65.1693 70.8567 65.2097 70.9698L65.2908 71.2279C65.3088 71.286 65.315 71.3471 65.309 71.4077C65.3031 71.4682 65.2851 71.527 65.2561 71.5807C65.2271 71.6343 65.1877 71.6818 65.1401 71.7204C65.0925 71.759 65.0376 71.7879 64.9787 71.8056C64.9348 71.8186 64.8893 71.8256 64.8435 71.8261V71.8261ZM29.4531 70.3377C29.3289 70.3389 29.2093 70.2913 29.1206 70.2054C29.0319 70.1196 28.9814 70.0024 28.9802 69.8797C28.9789 69.757 29.0271 69.6389 29.114 69.5513C29.2009 69.4636 29.3195 69.4137 29.4437 69.4125C29.5311 69.4125 29.6175 69.4125 29.7038 69.4053C29.7653 69.4028 29.8267 69.4123 29.8844 69.4332C29.9422 69.4542 29.9952 69.4862 30.0405 69.5273C30.0858 69.5685 30.1224 69.6181 30.1482 69.6733C30.1741 69.7285 30.1887 69.7881 30.1913 69.8489C30.1938 69.9096 30.1842 69.9703 30.163 70.0273C30.1418 70.0844 30.1094 70.1368 30.0677 70.1815C30.026 70.2262 29.9758 70.2624 29.92 70.288C29.8642 70.3135 29.8038 70.328 29.7423 70.3305C29.6487 70.3305 29.555 70.3377 29.4614 70.3387L29.4531 70.3377ZM27.572 70.2143C27.5476 70.2141 27.5233 70.2124 27.4991 70.2092C27.4055 70.1948 27.3139 70.1794 27.2213 70.1619C27.1609 70.1509 27.1033 70.1282 27.0518 70.0952C27.0003 70.0622 26.9558 70.0195 26.921 69.9696C26.8862 69.9196 26.8616 69.8633 26.8488 69.804C26.836 69.7447 26.8351 69.6834 26.8463 69.6237C26.8574 69.5641 26.8803 69.5072 26.9137 69.4563C26.9471 69.4053 26.9903 69.3614 27.0409 69.327C27.0915 69.2926 27.1484 69.2684 27.2085 69.2557C27.2685 69.243 27.3305 69.2422 27.3909 69.2532C27.4742 69.2686 27.5584 69.282 27.6427 69.2953C27.7583 69.3141 27.8625 69.375 27.9349 69.466C28.0072 69.557 28.0424 69.6715 28.0335 69.7868C28.0247 69.9022 27.9723 70.0101 27.8869 70.0892C27.8014 70.1684 27.6891 70.213 27.572 70.2143V70.2143ZM31.5943 70.1115C31.4786 70.1104 31.3675 70.067 31.2822 69.9897C31.197 69.9124 31.1438 69.8067 31.1328 69.6929C31.1218 69.5791 31.1539 69.4653 31.2227 69.3735C31.2916 69.2817 31.3925 69.2183 31.5058 69.1956L31.7608 69.1442C31.882 69.1186 32.0086 69.1416 32.1127 69.2082C32.2168 69.2748 32.2899 69.3795 32.3158 69.4994C32.3418 69.6192 32.3185 69.7443 32.251 69.8471C32.1836 69.95 32.0776 70.0221 31.9564 70.0478C31.8658 70.0673 31.7753 70.0858 31.6838 70.1033C31.6541 70.1075 31.6242 70.1092 31.5943 70.1084V70.1115ZM64.1526 69.8031C64.0573 69.8033 63.9642 69.7747 63.8859 69.721C63.8076 69.6673 63.7478 69.5912 63.7146 69.503L63.621 69.2583C63.5955 69.201 63.582 69.1393 63.5814 69.0767C63.5808 69.0141 63.593 68.9521 63.6174 68.8944C63.6417 68.8366 63.6777 68.7844 63.7231 68.7407C63.7684 68.6971 63.8223 68.663 63.8814 68.6405C63.9405 68.6181 64.0036 68.6077 64.0668 68.61C64.1301 68.6123 64.1923 68.6272 64.2495 68.6539C64.3068 68.6807 64.3579 68.7186 64.3999 68.7654C64.4419 68.8122 64.4739 68.8669 64.4939 68.9263L64.5906 69.1792C64.6172 69.2491 64.6263 69.3243 64.617 69.3984C64.6077 69.4725 64.5803 69.5433 64.5372 69.6046C64.4942 69.666 64.4367 69.7161 64.3697 69.7507C64.3027 69.7852 64.2282 69.8032 64.1526 69.8031V69.8031ZM25.4932 69.6623C25.4355 69.6623 25.3783 69.6515 25.3246 69.6304C25.2372 69.5965 25.1498 69.5626 25.0635 69.5276C24.9545 69.4771 24.8694 69.3871 24.8258 69.2763C24.7822 69.1654 24.7835 69.0423 24.8295 68.9323C24.8754 68.8224 24.9624 68.7342 25.0724 68.686C25.1825 68.6378 25.307 68.6333 25.4203 68.6734C25.4994 68.7063 25.5785 68.7382 25.6586 68.769C25.7601 68.8083 25.8445 68.8813 25.8974 68.9755C25.9502 69.0697 25.9681 69.1792 25.948 69.285C25.9279 69.3908 25.8711 69.4864 25.7873 69.5553C25.7035 69.6242 25.598 69.662 25.489 69.6623H25.4932ZM33.6752 69.5523C33.5646 69.5521 33.4577 69.5132 33.3733 69.4426C33.289 69.3719 33.2327 69.2741 33.2144 69.1664C33.196 69.0586 33.2169 68.948 33.2732 68.854C33.3296 68.76 33.4178 68.6888 33.5222 68.6529L33.7698 68.5675C33.8281 68.5452 33.8903 68.5347 33.9528 68.5365C34.0152 68.5384 34.0767 68.5526 34.1335 68.5783C34.1903 68.6041 34.2413 68.6408 34.2835 68.6864C34.3257 68.7319 34.3582 68.7854 34.379 68.8436C34.3999 68.9018 34.4088 68.9635 34.4051 69.0252C34.4014 69.0868 34.3852 69.1471 34.3575 69.2024C34.3298 69.2578 34.2911 69.3071 34.2438 69.3474C34.1965 69.3877 34.1414 69.4182 34.082 69.4372L33.8229 69.5276C33.7752 69.5433 33.7254 69.5516 33.6752 69.5523V69.5523ZM35.6728 68.7546C35.5663 68.7544 35.463 68.7183 35.38 68.6523C35.297 68.5863 35.2393 68.4943 35.2164 68.3916C35.1935 68.2888 35.2067 68.1813 35.254 68.087C35.3012 67.9926 35.3796 67.917 35.4761 67.8726L35.7154 67.7616C35.7713 67.7323 35.8326 67.7144 35.8956 67.7091C35.9587 67.7038 36.0221 67.7111 36.0822 67.7307C36.1423 67.7503 36.1977 67.7818 36.2452 67.8231C36.2926 67.8645 36.3311 67.9149 36.3582 67.9714C36.3854 68.0278 36.4007 68.0891 36.4032 68.1516C36.4057 68.2141 36.3954 68.2764 36.3729 68.3348C36.3503 68.3932 36.316 68.4465 36.2721 68.4914C36.2281 68.5364 36.1754 68.5721 36.1171 68.5963L35.8694 68.7114C35.8079 68.7401 35.7408 68.7551 35.6728 68.7556V68.7546ZM23.5756 68.6971C23.4861 68.6969 23.3984 68.6716 23.3228 68.6241L23.0887 68.4719C22.9945 68.4003 22.9315 68.2959 22.9123 68.1801C22.8931 68.0642 22.9192 67.9454 22.9854 67.8479C23.0516 67.7503 23.1528 67.6813 23.2686 67.6548C23.3844 67.6283 23.5061 67.6462 23.6089 67.7051C23.6807 67.7524 23.7525 67.7986 23.8264 67.8449C23.9117 67.8988 23.977 67.9786 24.0125 68.0723C24.048 68.166 24.0517 68.2686 24.0233 68.3646C23.9948 68.4606 23.9356 68.5449 23.8545 68.6048C23.7734 68.6648 23.6748 68.6971 23.5736 68.6971H23.5756ZM63.3203 67.8418C63.2315 67.8418 63.1446 67.8169 63.0696 67.7699C62.9946 67.723 62.9347 67.6559 62.8968 67.5766C62.8594 67.4985 62.8209 67.4203 62.7824 67.3422C62.7526 67.2874 62.7344 67.2272 62.7288 67.1653C62.7231 67.1033 62.7302 67.0409 62.7495 66.9817C62.7688 66.9226 62.8001 66.8678 62.8413 66.8208C62.8825 66.7738 62.9329 66.7355 62.9895 66.7082C63.046 66.6809 63.1075 66.6652 63.1704 66.6619C63.2333 66.6586 63.2961 66.6679 63.3553 66.6892C63.4144 66.7104 63.4686 66.7433 63.5146 66.7857C63.5606 66.8282 63.5975 66.8793 63.623 66.9362C63.6636 67.0174 63.7031 67.0996 63.7427 67.1808C63.7693 67.2357 63.7846 67.2953 63.7878 67.3561C63.7909 67.4169 63.7819 67.4777 63.7612 67.535C63.7405 67.5923 63.7086 67.645 63.6672 67.6901C63.6258 67.7352 63.5758 67.7717 63.52 67.7976C63.4567 67.8275 63.3873 67.8426 63.3171 67.8418H63.3203ZM37.5934 67.7894C37.4896 67.7893 37.3888 67.7551 37.3068 67.6922C37.2248 67.6293 37.1662 67.5413 37.1404 67.442C37.1146 67.3427 37.1228 67.2377 37.164 67.1435C37.2051 67.0493 37.2768 66.9713 37.3677 66.9218L37.5997 66.7943C37.7078 66.7365 37.8347 66.723 37.9528 66.7568C38.0709 66.7906 38.1708 66.869 38.231 66.9749C38.2911 67.0809 38.3066 67.206 38.2741 67.3232C38.2417 67.4404 38.1638 67.5403 38.0575 67.6013L37.8182 67.7318C37.7494 67.7695 37.6721 67.7893 37.5934 67.7894V67.7894ZM21.8745 67.3895C21.7561 67.3896 21.6421 67.3455 21.5551 67.2662L21.347 67.075C21.2627 66.9885 21.2156 66.873 21.2159 66.7529C21.2161 66.6328 21.2636 66.5175 21.3483 66.4314C21.4331 66.3453 21.5484 66.2951 21.6699 66.2915C21.7914 66.2879 21.9095 66.331 21.9994 66.4119L22.195 66.5887C22.2636 66.652 22.3114 66.7342 22.3322 66.8247C22.3529 66.9152 22.3457 67.0097 22.3113 67.0961C22.277 67.1824 22.2172 67.2565 22.1397 67.3089C22.0622 67.3612 21.9705 67.3893 21.8766 67.3895H21.8745ZM39.4579 66.7193C39.3556 66.7195 39.256 66.6866 39.1744 66.6256C39.0927 66.5646 39.0336 66.4789 39.006 66.3815C38.9784 66.2842 38.9838 66.1806 39.0214 66.0865C39.0591 65.9925 39.1269 65.9133 39.2144 65.8609L39.4444 65.7232C39.5502 65.6616 39.6764 65.6437 39.7955 65.6731C39.9147 65.7026 40.0174 65.7772 40.0814 65.8808C40.1454 65.9844 40.1657 66.1087 40.1378 66.2269C40.1099 66.3451 40.0361 66.4477 39.9323 66.5127L39.7003 66.6514C39.6297 66.6941 39.5489 66.7175 39.4662 66.7193H39.4579ZM62.284 65.9689C62.2045 65.9692 62.1263 65.9494 62.0567 65.9115C61.9872 65.8735 61.9286 65.8186 61.8865 65.752C61.8397 65.679 61.7939 65.606 61.7461 65.5341C61.7095 65.4832 61.6838 65.4256 61.6703 65.3647C61.6569 65.3038 61.6561 65.2408 61.6679 65.1795C61.6797 65.1183 61.7039 65.06 61.7391 65.0083C61.7743 64.9565 61.8197 64.9123 61.8727 64.8783C61.9256 64.8443 61.9849 64.8213 62.0471 64.8105C62.1092 64.7998 62.173 64.8016 62.2344 64.8158C62.2959 64.83 62.3538 64.8563 62.4047 64.8932C62.4556 64.9301 62.4984 64.9767 62.5306 65.0304C62.5805 65.1064 62.6346 65.1846 62.6794 65.2617C62.7238 65.3315 62.7485 65.4118 62.7509 65.4943C62.7532 65.5767 62.7332 65.6583 62.6928 65.7305C62.6524 65.8027 62.5932 65.8629 62.5213 65.9048C62.4494 65.9467 62.3675 65.9689 62.284 65.9689V65.9689ZM20.4262 65.8126C20.3546 65.8127 20.284 65.7967 20.2196 65.7657C20.1552 65.7347 20.0989 65.6896 20.0548 65.6338L19.8863 65.4128C19.8255 65.3143 19.8041 65.197 19.8263 65.0837C19.8485 64.9705 19.9128 64.8696 20.0064 64.8007C20.1001 64.7319 20.2164 64.7001 20.3326 64.7115C20.4487 64.723 20.5564 64.777 20.6343 64.8628C20.6864 64.9317 20.7384 65.0006 20.7914 65.0684C20.8291 65.1163 20.8568 65.1711 20.8729 65.2297C20.8891 65.2882 20.8934 65.3493 20.8855 65.4095C20.8777 65.4697 20.8579 65.5277 20.8273 65.5803C20.7967 65.6329 20.7559 65.679 20.7072 65.716C20.6269 65.7781 20.5281 65.8121 20.4262 65.8126V65.8126ZM41.2963 65.5916C41.195 65.5918 41.0963 65.5594 41.0152 65.4993C40.934 65.4392 40.8749 65.3546 40.8467 65.2584C40.8185 65.1622 40.8228 65.0595 40.8589 64.9659C40.8949 64.8723 40.9608 64.7928 41.0466 64.7395L41.2745 64.5966C41.3264 64.5615 41.3849 64.5371 41.4466 64.5248C41.5083 64.5126 41.5718 64.5127 41.6334 64.5253C41.695 64.5378 41.7534 64.5625 41.8051 64.5978C41.8569 64.6332 41.9009 64.6784 41.9345 64.7309C41.9681 64.7835 41.9907 64.8421 42.0009 64.9034C42.0111 64.9648 42.0087 65.0275 41.9938 65.0879C41.9789 65.1482 41.9518 65.205 41.9142 65.2548C41.8766 65.3047 41.8293 65.3465 41.7749 65.3778L41.546 65.5207C41.4708 65.5678 41.3833 65.5924 41.2943 65.5916H41.2963ZM43.1244 64.4609C43.0224 64.4607 42.9232 64.4277 42.8419 64.3667C42.7607 64.3058 42.7018 64.2203 42.6742 64.1233C42.6467 64.0262 42.6519 63.9229 42.6893 63.8291C42.7266 63.7353 42.7939 63.6561 42.8809 63.6036L43.114 63.4648C43.1667 63.4307 43.2258 63.4075 43.2879 63.3966C43.3499 63.3856 43.4135 63.3872 43.4749 63.4011C43.5363 63.415 43.5942 63.441 43.6452 63.4775C43.6962 63.5141 43.7392 63.5604 43.7716 63.6138C43.804 63.6672 43.8252 63.7264 43.8339 63.7881C43.8426 63.8497 43.8387 63.9125 43.8222 63.9725C43.8058 64.0326 43.7773 64.0888 43.7383 64.1378C43.6994 64.1867 43.6509 64.2274 43.5957 64.2573L43.3678 64.393C43.2936 64.4368 43.2087 64.4595 43.1223 64.4588L43.1244 64.4609ZM61.0136 64.2553C60.9465 64.2555 60.8801 64.2414 60.8191 64.2139C60.758 64.1864 60.7037 64.1462 60.6599 64.096C60.6037 64.0315 60.5465 63.9678 60.4882 63.9048C60.4435 63.8605 60.4083 63.8077 60.3848 63.7496C60.3613 63.6916 60.3499 63.6294 60.3514 63.5668C60.353 63.5043 60.3673 63.4427 60.3936 63.3858C60.4199 63.3289 60.4576 63.2778 60.5044 63.2357C60.5513 63.1936 60.6063 63.1614 60.6661 63.1409C60.7259 63.1204 60.7893 63.1121 60.8525 63.1165C60.9156 63.1209 60.9772 63.1379 61.0335 63.1665C61.0898 63.1951 61.1397 63.2347 61.1801 63.2829C61.2436 63.3507 61.306 63.4206 61.3674 63.4884C61.4259 63.5555 61.4638 63.6377 61.4764 63.7253C61.4891 63.813 61.476 63.9024 61.4388 63.9829C61.4015 64.0635 61.3416 64.1317 61.2663 64.1796C61.1909 64.2276 61.1032 64.2531 61.0136 64.2532V64.2553ZM19.2412 64.0271C19.1575 64.0273 19.0753 64.0052 19.0032 63.9633C18.9311 63.9213 18.8717 63.861 18.8313 63.7886C18.7865 63.7084 18.7428 63.6272 18.6991 63.546C18.6412 63.437 18.6295 63.3096 18.6665 63.192C18.7036 63.0744 18.7864 62.9762 18.8968 62.919C19.0072 62.8617 19.1361 62.8501 19.2551 62.8867C19.3741 62.9234 19.4735 63.0052 19.5315 63.1143C19.5721 63.1903 19.6137 63.2664 19.6553 63.3414C19.695 63.4121 19.7153 63.4919 19.714 63.5727C19.7127 63.6536 19.69 63.7326 19.6481 63.8021C19.6061 63.8715 19.5465 63.9288 19.4751 63.9683C19.4037 64.0078 19.323 64.0281 19.2412 64.0271V64.0271ZM44.992 63.3928C44.889 63.391 44.7896 63.3557 44.709 63.2924C44.6284 63.2291 44.5712 63.1413 44.5462 63.0427C44.5212 62.944 44.5298 62.8399 44.5707 62.7466C44.6116 62.6532 44.6825 62.5758 44.7724 62.5263L45.0138 62.3988C45.1231 62.3458 45.2489 62.3368 45.3647 62.3739C45.4805 62.411 45.5772 62.4912 45.6341 62.5975C45.6911 62.7038 45.7039 62.8278 45.6699 62.9433C45.6359 63.0587 45.5577 63.1566 45.4518 63.216L45.2167 63.3404C45.1476 63.377 45.0704 63.3961 44.992 63.3959V63.3928ZM59.454 62.7853C59.3506 62.7856 59.25 62.7519 59.1679 62.6897C59.1003 62.6373 59.0316 62.5869 58.9598 62.5366C58.9102 62.5009 58.8682 62.4559 58.8362 62.4041C58.8042 62.3524 58.7829 62.2949 58.7733 62.235C58.7638 62.1751 58.7663 62.114 58.7808 62.055C58.7952 61.9961 58.8212 61.9405 58.8573 61.8915C58.8935 61.8425 58.939 61.801 58.9914 61.7694C59.0438 61.7378 59.1019 61.7167 59.1625 61.7073C59.2232 61.6979 59.2851 61.7004 59.3447 61.7146C59.4044 61.7289 59.4606 61.7546 59.5102 61.7903C59.5861 61.8448 59.6621 61.9003 59.736 61.9578C59.8134 62.0166 59.8702 62.0978 59.8984 62.1902C59.9267 62.2825 59.925 62.3812 59.8935 62.4725C59.8621 62.5638 59.8025 62.6431 59.7231 62.6992C59.6437 62.7553 59.5485 62.7854 59.4509 62.7853H59.454ZM46.9282 62.4451C46.8211 62.4452 46.7173 62.4091 46.6339 62.3427C46.5505 62.2763 46.4927 62.1837 46.47 62.0803C46.4474 61.9769 46.4613 61.8689 46.5095 61.7745C46.5576 61.68 46.6371 61.6046 46.7347 61.561L46.9865 61.4511C47.0427 61.4267 47.1032 61.4135 47.1646 61.4122C47.226 61.411 47.287 61.4217 47.3442 61.4437C47.4014 61.4658 47.4537 61.4988 47.498 61.5408C47.5423 61.5828 47.5778 61.633 47.6024 61.6885C47.6271 61.7441 47.6404 61.8039 47.6417 61.8645C47.643 61.9251 47.6321 61.9854 47.6098 62.042C47.5875 62.0985 47.5541 62.1501 47.5116 62.1938C47.4691 62.2376 47.4183 62.2727 47.3621 62.2971L47.1197 62.3998C47.0591 62.4298 46.9927 62.4463 46.9251 62.4482L46.9282 62.4451ZM18.3454 62.0945C18.2497 62.0944 18.1564 62.0653 18.078 62.0113C17.9995 61.9573 17.9396 61.8809 17.9063 61.7923C17.8744 61.706 17.8432 61.6196 17.8127 61.5333C17.7922 61.476 17.7833 61.4154 17.7865 61.3548C17.7898 61.2941 17.8051 61.2347 17.8315 61.1799C17.858 61.1251 17.8951 61.076 17.9408 61.0354C17.9865 60.9948 18.0398 60.9635 18.0978 60.9432C18.1557 60.923 18.2171 60.9142 18.2785 60.9174C18.3398 60.9206 18.3999 60.9357 18.4554 60.9619C18.5109 60.988 18.5606 61.0247 18.6017 61.0698C18.6428 61.115 18.6745 61.1677 18.695 61.2249C18.7241 61.3061 18.7543 61.3873 18.7844 61.4685C18.8275 61.5836 18.8225 61.7108 18.7706 61.8222C18.7187 61.9336 18.6241 62.0201 18.5077 62.0627C18.4558 62.0822 18.4009 62.093 18.3454 62.0945V62.0945ZM57.6135 61.6834C57.5459 61.6831 57.4792 61.6683 57.4179 61.6402C57.3409 61.6052 57.2629 61.5713 57.1848 61.5374C57.0753 61.4865 56.99 61.3957 56.9468 61.284C56.9036 61.1723 56.9058 61.0484 56.953 60.9383C57.0003 60.8282 57.0888 60.7404 57.2001 60.6935C57.3114 60.6465 57.4368 60.6439 57.55 60.6863C57.6374 60.7233 57.7238 60.7613 57.8101 60.8004C57.9067 60.8448 57.9851 60.9204 58.0323 61.0147C58.0795 61.1091 58.0928 61.2165 58.0698 61.3193C58.0469 61.4221 57.9892 61.514 57.9063 61.5801C57.8233 61.6461 57.72 61.6821 57.6135 61.6823V61.6834ZM48.9342 61.6628C48.8233 61.6628 48.7159 61.6239 48.6313 61.553C48.5467 61.4821 48.4904 61.3839 48.4723 61.2758C48.4541 61.1677 48.4755 61.0567 48.5324 60.9627C48.5894 60.8686 48.6783 60.7976 48.7833 60.7623L49.0455 60.677C49.1633 60.639 49.2916 60.6487 49.4022 60.7042C49.5127 60.7596 49.5964 60.8561 49.6349 60.9725C49.6734 61.089 49.6635 61.2157 49.6074 61.3249C49.5513 61.4341 49.4536 61.5168 49.3358 61.5549L49.085 61.6381C49.0364 61.6543 48.9855 61.6626 48.9342 61.6628V61.6628ZM51.015 61.0985C50.8999 61.0972 50.7892 61.0539 50.7043 60.9771C50.6193 60.9003 50.566 60.7952 50.5546 60.6819C50.5431 60.5687 50.5743 60.4553 50.6422 60.3634C50.71 60.2714 50.8098 60.2074 50.9224 60.1836C51.014 60.1651 51.1045 60.1476 51.1961 60.1312C51.2577 60.117 51.3216 60.1153 51.3839 60.1262C51.4462 60.1371 51.5056 60.1604 51.5585 60.1946C51.6114 60.2289 51.6568 60.2733 51.6919 60.3253C51.7269 60.3774 51.751 60.4359 51.7625 60.4973C51.774 60.5588 51.7729 60.6219 51.759 60.6829C51.7452 60.7439 51.719 60.8015 51.682 60.8522C51.645 60.9029 51.598 60.9457 51.5438 60.9779C51.4896 61.0102 51.4294 61.0313 51.3667 61.0399C51.2814 61.0553 51.195 61.0717 51.1097 61.0892C51.0785 61.0946 51.0468 61.097 51.015 61.0964V61.0985ZM55.5701 61.0296C55.5386 61.0295 55.5073 61.0264 55.4764 61.0203C55.3932 61.0039 55.3089 60.9874 55.2246 60.9731C55.1064 60.9479 55.0026 60.8785 54.935 60.7795C54.8674 60.6804 54.8412 60.5593 54.8619 60.4416C54.8826 60.3239 54.9486 60.2187 55.0461 60.1479C55.1436 60.0772 55.265 60.0465 55.3849 60.0623C55.4775 60.0787 55.5711 60.0962 55.6627 60.1147C55.7773 60.1364 55.8796 60.1996 55.9494 60.292C56.0192 60.3844 56.0515 60.4993 56.0398 60.614C56.0282 60.7287 55.9736 60.835 55.8866 60.9119C55.7997 60.9888 55.6868 61.0308 55.5701 61.0296V61.0296ZM53.1511 60.8404C53.0269 60.8426 52.9069 60.796 52.8176 60.7108C52.7282 60.6256 52.6767 60.5088 52.6745 60.3861C52.6723 60.2634 52.7195 60.1449 52.8058 60.0566C52.892 59.9683 53.0102 59.9175 53.1344 59.9153L53.4153 59.9081C53.4768 59.9074 53.5378 59.9187 53.5949 59.9413C53.652 59.964 53.704 59.9975 53.7479 60.04C53.7919 60.0824 53.8269 60.133 53.8511 60.1889C53.8753 60.2448 53.888 60.3048 53.8887 60.3655C53.8894 60.4263 53.878 60.4866 53.8551 60.543C53.8322 60.5993 53.7983 60.6507 53.7553 60.6941C53.7123 60.7376 53.661 60.7722 53.6045 60.7961C53.548 60.8199 53.4872 60.8326 53.4257 60.8333L53.1677 60.8384L53.1511 60.8404ZM17.745 60.0489C17.6377 60.0488 17.5337 60.0121 17.4505 59.9451C17.3673 59.8781 17.3101 59.7848 17.2883 59.6809C17.2696 59.5905 17.2508 59.501 17.2342 59.4106C17.2201 59.3498 17.2186 59.2869 17.2298 59.2256C17.241 59.1642 17.2645 59.1058 17.2991 59.0537C17.3338 59.0015 17.3787 58.9569 17.4312 58.9224C17.4837 58.8878 17.5427 58.8641 17.6047 58.8527C17.6667 58.8413 17.7304 58.8423 17.792 58.8558C17.8536 58.8693 17.9117 58.895 17.963 58.9312C18.0143 58.9675 18.0577 59.0136 18.0905 59.0668C18.1233 59.1201 18.1449 59.1793 18.1539 59.241C18.1695 59.3253 18.1862 59.4095 18.2039 59.4928C18.2291 59.6129 18.205 59.738 18.1369 59.8405C18.0688 59.9431 17.9623 60.0147 17.8408 60.0397C17.8092 60.0451 17.7771 60.0475 17.745 60.0469V60.0489ZM17.4766 57.9365C17.3563 57.9364 17.2407 57.8905 17.1537 57.8084C17.0667 57.7263 17.0151 57.6142 17.0095 57.4955C17.0095 57.403 17.0022 57.3115 17.0001 57.219C16.9976 57.0965 17.0442 56.9781 17.1298 56.8895C17.2154 56.8009 17.3329 56.7494 17.4568 56.7461C17.5802 56.7455 17.6991 56.7922 17.7883 56.8763C17.8776 56.9605 17.9303 57.0756 17.9354 57.1974C17.9354 57.2838 17.9407 57.368 17.9448 57.4534C17.9505 57.5759 17.9066 57.6956 17.8229 57.7863C17.7392 57.8769 17.6225 57.9309 17.4985 57.9365H17.4766ZM17.5536 55.8035H17.5037C17.4425 55.7971 17.3833 55.7789 17.3293 55.7498C17.2752 55.7208 17.2276 55.6815 17.1889 55.6343C17.1503 55.587 17.1214 55.5327 17.104 55.4744C17.0866 55.4162 17.081 55.3551 17.0875 55.2947C17.0969 55.2032 17.1083 55.1127 17.1197 55.0223C17.1247 54.9599 17.1424 54.8991 17.1717 54.8437C17.2011 54.7882 17.2416 54.7393 17.2907 54.6997C17.3398 54.6602 17.3965 54.6309 17.4573 54.6136C17.5182 54.5964 17.582 54.5915 17.6449 54.5993C17.7077 54.6071 17.7683 54.6274 17.823 54.659C17.8776 54.6906 17.9252 54.7328 17.9629 54.7831C18.0006 54.8334 18.0275 54.8908 18.0421 54.9517C18.0567 55.0126 18.0587 55.0757 18.0478 55.1374C18.0374 55.2227 18.027 55.308 18.0176 55.3934C18.0046 55.506 17.9502 55.6101 17.8646 55.6857C17.7791 55.7613 17.6684 55.8032 17.5536 55.8035ZM17.9292 53.7106C17.8917 53.7107 17.8543 53.7062 17.8179 53.6972C17.7581 53.6829 17.7018 53.6571 17.6522 53.6212C17.6025 53.5853 17.5605 53.5401 17.5286 53.4881C17.4967 53.4361 17.4755 53.3785 17.4663 53.3184C17.457 53.2583 17.4598 53.197 17.4745 53.138C17.4967 53.0496 17.5196 52.9612 17.5432 52.8728C17.5776 52.7573 17.6562 52.6596 17.7623 52.6004C17.8684 52.5413 17.9937 52.5253 18.1116 52.5559C18.2294 52.5866 18.3305 52.6614 18.3934 52.7646C18.4563 52.8677 18.476 52.991 18.4484 53.1082C18.4255 53.1915 18.4047 53.2748 18.3839 53.359C18.3586 53.4593 18.3001 53.5484 18.2177 53.6121C18.1354 53.6758 18.0338 53.7105 17.9292 53.7106V53.7106ZM18.5743 51.6784C18.4983 51.6787 18.4234 51.6608 18.3561 51.626C18.2887 51.5913 18.231 51.5408 18.1879 51.479C18.1449 51.4172 18.1177 51.3459 18.1089 51.2714C18.1001 51.1968 18.1098 51.1213 18.1373 51.0513C18.1695 50.966 18.2028 50.8817 18.2413 50.7974C18.2634 50.74 18.2968 50.6875 18.3395 50.643C18.3823 50.5985 18.4336 50.5629 18.4905 50.5381C18.5474 50.5134 18.6087 50.5001 18.6708 50.4991C18.7329 50.498 18.7946 50.5091 18.8523 50.5318C18.91 50.5545 18.9626 50.5884 19.0069 50.6314C19.0513 50.6743 19.0865 50.7256 19.1106 50.7822C19.1347 50.8388 19.1472 50.8995 19.1473 50.9609C19.1473 51.0223 19.1351 51.0831 19.1111 51.1397C19.0789 51.2199 19.0466 51.3001 19.0154 51.3813C18.9813 51.4693 18.9207 51.5449 18.8419 51.598C18.7631 51.6511 18.6697 51.6791 18.5743 51.6784V51.6784ZM19.4576 49.7386C19.3773 49.7384 19.2984 49.7178 19.2284 49.6789C19.1585 49.6399 19.0998 49.5839 19.0581 49.5161C19.0163 49.4483 18.9928 49.3711 18.9899 49.2918C18.987 49.2125 19.0048 49.1338 19.0414 49.0633C19.0841 48.982 19.1267 48.9019 19.1704 48.8217C19.1985 48.7665 19.2375 48.7175 19.2851 48.6775C19.3327 48.6375 19.3879 48.6073 19.4475 48.5887C19.5071 48.5701 19.5698 48.5634 19.6321 48.5692C19.6943 48.5749 19.7547 48.5929 19.8098 48.622C19.8649 48.6512 19.9135 48.691 19.9527 48.739C19.992 48.787 20.0212 48.8423 20.0385 48.9016C20.0558 48.9609 20.0609 49.0231 20.0535 49.0844C20.0461 49.1457 20.0264 49.2049 19.9955 49.2586C19.9539 49.3346 19.9133 49.4117 19.8727 49.4888C19.8332 49.5639 19.7736 49.6269 19.7005 49.671C19.6273 49.715 19.5433 49.7384 19.4576 49.7386V49.7386ZM20.549 47.8996C20.464 47.9001 20.3805 47.8777 20.3074 47.8348C20.2344 47.7919 20.1745 47.7301 20.1344 47.656C20.0943 47.582 20.0753 47.4986 20.0796 47.4147C20.0839 47.3308 20.1113 47.2497 20.1589 47.1801L20.3118 46.9539C20.3447 46.9009 20.3881 46.8549 20.4394 46.8189C20.4908 46.7828 20.5489 46.7574 20.6105 46.7441C20.672 46.7308 20.7356 46.73 20.7975 46.7416C20.8593 46.7533 20.9182 46.7771 20.9705 46.8118C21.0227 46.8465 21.0674 46.8912 21.1017 46.9434C21.1361 46.9956 21.1594 47.054 21.1703 47.1153C21.1811 47.1766 21.1794 47.2394 21.165 47.3C21.1507 47.3606 21.1242 47.4177 21.0869 47.4679L20.9402 47.6858C20.8979 47.7503 20.84 47.8034 20.7717 47.8402C20.7034 47.877 20.6268 47.8964 20.549 47.8965V47.8996ZM21.8204 46.1737C21.7319 46.1742 21.6451 46.1498 21.5701 46.1034C21.4951 46.057 21.4349 45.9906 21.3967 45.9117C21.3584 45.8329 21.3436 45.7449 21.354 45.6581C21.3643 45.5713 21.3995 45.4891 21.4552 45.4212C21.5125 45.3503 21.5707 45.2804 21.629 45.2156C21.668 45.1684 21.716 45.1292 21.7704 45.1003C21.8247 45.0714 21.8843 45.0534 21.9457 45.0472C22.0071 45.041 22.0691 45.0469 22.1282 45.0644C22.1873 45.0819 22.2424 45.1108 22.2902 45.1493C22.338 45.1879 22.3777 45.2354 22.4069 45.289C22.4362 45.3427 22.4544 45.4016 22.4607 45.4622C22.4669 45.5229 22.461 45.5842 22.4433 45.6426C22.4255 45.701 22.3963 45.7554 22.3573 45.8026C22.3011 45.8694 22.2449 45.9373 22.1908 46.0082C22.1457 46.0616 22.0889 46.1042 22.0248 46.1328C21.9607 46.1615 21.8908 46.1755 21.8204 46.1737ZM23.2448 44.5732C23.1248 44.5731 23.0096 44.5271 22.9233 44.4447C22.8338 44.3597 22.7821 44.2432 22.7796 44.1206C22.777 43.998 22.8239 43.8794 22.9098 43.7909L23.1012 43.5966C23.1891 43.5139 23.3062 43.4682 23.4276 43.4691C23.549 43.47 23.6653 43.5175 23.752 43.6015C23.8386 43.6855 23.8889 43.7995 23.8921 43.9194C23.8953 44.0394 23.8512 44.1558 23.7692 44.2442C23.7067 44.3059 23.6454 44.3686 23.585 44.4313C23.541 44.4765 23.4881 44.5123 23.4296 44.5367C23.3711 44.5611 23.3083 44.5735 23.2448 44.5732V44.5732ZM24.8054 43.1012C24.71 43.1018 24.6167 43.0736 24.5379 43.0203C24.4592 42.9671 24.3988 42.8913 24.3648 42.8032C24.3309 42.7151 24.325 42.6188 24.348 42.5273C24.3709 42.4358 24.4216 42.3534 24.4933 42.2911L24.7014 42.1133C24.7955 42.0327 24.9181 41.9924 25.0423 42.0012C25.1665 42.01 25.2821 42.0671 25.3636 42.1601C25.4452 42.253 25.486 42.3742 25.4771 42.4969C25.4682 42.6196 25.4104 42.7338 25.3163 42.8144L25.1082 42.986C25.0243 43.0593 24.9164 43.1002 24.8044 43.1012H24.8054Z" fill="#024430"/>
<path d="M66.5234 80C66.4247 80 66.3283 79.9718 66.2476 79.9194C66.167 79.8669 66.1059 79.7927 66.0728 79.7069L66.0272 79.5868C65.9851 79.4767 65.9921 79.3556 66.0468 79.2503C66.1014 79.145 66.1993 79.064 66.3188 79.0251C66.4383 78.9862 66.5697 78.9927 66.684 79.0431C66.7983 79.0935 66.8862 79.1836 66.9284 79.2937L66.9729 79.4119C66.9937 79.4663 67.0027 79.524 66.9993 79.5815C66.9959 79.6391 66.9802 79.6955 66.9531 79.7475C66.9261 79.7995 66.8881 79.8461 66.8415 79.8845C66.7949 79.923 66.7404 79.9526 66.6814 79.9717C66.6309 79.9895 66.5775 79.9991 66.5234 80V80Z" fill="#024430"/>
</svg>
