<svg width="33" height="138" viewBox="0 0 33 138" fill="none" xmlns="http://www.w3.org/2000/svg">
<path d="M16.752 19.2492L33 5.16935L28.6158 0L16.3764 10.6128L4.37939 0.216391L0 5.38574L16.4334 19.6291L16.752 19.2492Z" fill="#024430"/>
<path d="M16.3764 30.2417L4.37939 19.8453L0 25.0146L16.4334 39.258L16.752 38.8781L33 24.7983L28.6158 19.6289L16.3764 30.2417Z" fill="#024430"/>
<path d="M16.3764 49.8663L4.37939 39.4747L0 44.644L16.4334 58.8874L16.752 58.5075L33 44.4276L28.6158 39.2583L16.3764 49.8663Z" fill="#024430"/>
<path d="M16.3764 69.4952L4.37939 59.1036L0 64.2729L16.4334 78.5163L16.752 78.1364L33 64.0566L28.6158 58.8872L16.3764 69.4952Z" fill="#024430"/>
<path d="M28.6158 78.5166L16.3764 89.1246L4.37939 78.733L0 83.9023L16.4334 98.1457L16.752 97.7658L33 83.6859L28.6158 78.5166Z" fill="#024430"/>
<path d="M28.6158 98.1455L16.3764 108.753L4.37939 98.3619L0 103.531L16.4334 117.775L16.752 117.395L33 103.315L28.6158 98.1455Z" fill="#024430"/>
<path d="M28.6158 117.774L16.3764 128.382L4.37939 117.991L0 123.16L16.4334 137.404L16.752 137.024L33 122.944L28.6158 117.774Z" fill="#024430"/>
</svg>
