<svg width="113" height="113" viewBox="0 0 113 113" fill="none" xmlns="http://www.w3.org/2000/svg">
<circle cx="56.5" cy="56.5" r="53" fill="#024430" stroke="white" stroke-width="7"/>
<g clip-path="url(#clip0_15_28464)">
<path d="M65.7033 48.4746C64.9199 46.8406 64.0134 45.2638 62.9883 43.755C63.8764 41.1505 65.3488 38.7642 67.34 36.7616C69.0706 35.0212 71.0888 33.6744 73.2874 32.7651C74.2054 33.6887 75.0478 34.6881 75.8062 35.752C70.3027 37.5191 66.209 42.4905 65.7033 48.4746Z" fill="#FFE7BB"/>
<path d="M72.9411 49.7277V64.3937C72.9411 73.4915 65.5817 80.8931 56.536 80.8931C47.4903 80.8931 40.131 73.4914 40.131 64.3937C40.131 60.3502 36.8601 57.0607 32.8398 57.0607V53.3942C38.8704 53.3942 43.7766 58.3286 43.7766 64.3937C43.7766 71.4697 49.5005 77.2265 56.5362 77.2265C63.5719 77.2265 69.2958 71.4697 69.2958 64.3937V49.7276C69.2958 44.5179 72.9156 40.1426 77.7585 39.0119C78.3079 40.1208 78.7748 41.2778 79.1491 42.4758C75.6406 43.004 72.9411 46.0545 72.9411 49.7277Z" fill="#FFE7BB"/>
<path d="M64.7626 34.1686C63.5415 35.3967 62.4679 36.7638 61.5718 38.232L60.3582 40.2197L58.623 38.4618C54.4363 34.2509 49.4067 31.1935 43.916 29.4425C45.3277 28.5456 46.8389 27.7936 48.4301 27.2092C52.5321 28.9477 56.3439 31.38 59.7181 34.4504C60.4673 33.4354 61.2923 32.4736 62.1848 31.5761C63.5354 30.2177 65.0111 29.0307 66.5856 28.0254C67.8618 28.6291 69.0768 29.3426 70.2168 30.1562C68.2285 31.1874 66.3893 32.5325 64.7626 34.1686Z" fill="#FFE7BB"/>
<path d="M56.5342 88.2261C43.4681 88.2261 32.8379 77.5349 32.8379 64.3936V60.727C34.848 60.727 36.4835 62.3718 36.4835 64.3936C36.4835 75.5131 45.4783 84.5595 56.5342 84.5595C67.5902 84.5595 76.5849 75.5131 76.5849 64.3936V49.7275C76.5849 47.7941 78.0808 46.2066 79.9697 46.0713C80.1409 47.2246 80.2305 48.4045 80.2305 49.6053V64.3936C80.2305 77.5349 69.6003 88.2261 56.5342 88.2261Z" fill="#FFE7BB"/>
<path d="M56.5342 73.5601C51.5088 73.5601 47.4202 69.448 47.4202 64.3937C47.4202 56.3069 40.8786 49.7276 32.8379 49.7276V49.6054C32.8379 48.4023 32.9278 47.2199 33.0997 46.0642C37.8741 46.1313 42.3504 48.029 45.7297 51.4277C49.1706 54.8885 51.0657 59.4932 51.0657 64.3937C51.0657 67.4264 53.5189 69.8935 56.5341 69.8935C59.5493 69.8935 62.0025 67.4262 62.0025 64.3937C62.0025 49.8131 51.3692 37.6849 37.4923 35.4367C38.3369 34.2917 39.2811 33.2256 40.3117 32.2505C46.2245 33.627 51.6495 36.6356 56.0433 41.0548C62.2369 47.2841 65.6479 55.5726 65.6479 64.3937C65.6482 69.448 61.5597 73.5601 56.5342 73.5601Z" fill="#FFE7BB"/>
<path d="M59.6053 28.9837C59.4944 29.095 59.3844 29.2075 59.2754 29.3208C57.6204 28.0545 55.8829 26.9129 54.0723 25.901C54.8817 25.8166 55.7029 25.7728 56.5343 25.7728C58.5574 25.7728 60.5218 26.0297 62.3975 26.5118C61.4193 27.2746 60.4846 28.0995 59.6053 28.9837Z" fill="#FFE7BB"/>
<path d="M56.535 66.2266C55.5284 66.2266 54.7123 65.4058 54.7123 64.3933C54.7123 52.6342 45.4911 43.0006 33.9395 42.4219C34.3286 41.186 34.8155 39.9936 35.391 38.8534C41.2475 39.4334 46.6761 42.0052 50.8875 46.2408C55.7048 51.0859 58.3578 57.5326 58.3578 64.3933C58.3578 65.4058 57.5417 66.2266 56.535 66.2266Z" fill="#FFE7BB"/>
</g>
<defs>
<clipPath id="clip0_15_28464">
<rect width="48.2972" height="62.4533" fill="white" transform="matrix(1 0 0 -1 32.3867 88.2261)"/>
</clipPath>
</defs>
</svg>
