<svg width="20" height="20" viewBox="0 0 20 20" fill="none" xmlns="http://www.w3.org/2000/svg">
<path d="M18.8571 0.988281V12.3293C18.8576 12.4191 18.8404 12.5082 18.8064 12.5914C18.7725 12.6746 18.7225 12.7502 18.6593 12.8141C18.5961 12.8779 18.5209 12.9287 18.4381 12.9635C18.3552 12.9983 18.2663 13.0164 18.1765 13.0168H0.981075C0.891258 13.0163 0.80241 12.9982 0.719608 12.9634C0.636805 12.9286 0.56167 12.8778 0.498495 12.814C0.43532 12.7501 0.385344 12.6745 0.351422 12.5913C0.317499 12.5081 0.300296 12.4191 0.300794 12.3293V0.988281C0.300251 0.898452 0.317423 0.809398 0.351329 0.726212C0.385236 0.643026 0.43521 0.567341 0.498394 0.503487C0.561577 0.439633 0.63673 0.388863 0.719554 0.35408C0.802377 0.319298 0.891245 0.301186 0.981075 0.300781H18.1765C18.2663 0.301186 18.3552 0.319296 18.4381 0.354074C18.5209 0.388852 18.5961 0.439617 18.6593 0.503466C18.7225 0.567316 18.7725 0.642998 18.8064 0.726186C18.8404 0.809374 18.8576 0.898436 18.8571 0.988281Z" fill="#F5F5F5"/>
<path d="M18.8571 8.79688V12.3296C18.8576 12.4194 18.8404 12.5085 18.8064 12.5917C18.7725 12.6749 18.7225 12.7506 18.6593 12.8144C18.5961 12.8783 18.5209 12.929 18.4381 12.9638C18.3552 12.9986 18.2663 13.0167 18.1765 13.0171H0.981075C0.891245 13.0167 0.802377 12.9986 0.719554 12.9638C0.63673 12.929 0.561577 12.8782 0.498394 12.8144C0.43521 12.7505 0.385236 12.6748 0.351329 12.5917C0.317423 12.5085 0.300251 12.4194 0.300794 12.3296V8.79688C2.36604 10.2437 5.75061 10.3252 9.57895 10.3252C13.4073 10.3252 16.7915 10.2437 18.8571 8.79688Z" fill="white"/>
<path d="M18.8571 11.2969V12.3281C18.8576 12.418 18.8404 12.507 18.8064 12.5902C18.7725 12.6734 18.7225 12.7491 18.6593 12.8129C18.5961 12.8768 18.5209 12.9276 18.4381 12.9623C18.3552 12.9971 18.2663 13.0152 18.1765 13.0156H0.981073C0.891256 13.0152 0.802408 12.997 0.719606 12.9622C0.636803 12.9274 0.561668 12.8767 0.498493 12.8128C0.435318 12.749 0.385342 12.6733 0.35142 12.5901C0.317498 12.507 0.300294 12.4179 0.300792 12.3281V11.2969H18.8571Z" fill="white"/>
<path d="M15.7651 16.7949H3.39419L2.36328 18.8567H16.796L15.7651 16.7949Z" fill="white"/>
<path d="M10.6106 13.0156H8.54883V16.7955H10.6106V13.0156Z" fill="white"/>
<path d="M18.1772 13.3162H0.981753C0.720851 13.315 0.471064 13.2104 0.287157 13.0253C0.10325 12.8403 0.00023288 12.5898 0.000690573 12.3289V3.78813C0.000690576 3.70835 0.0323799 3.63185 0.0887873 3.57544C0.145195 3.51903 0.2217 3.48734 0.301472 3.48734C0.381244 3.48734 0.457749 3.51903 0.514156 3.57544C0.570564 3.63185 0.602253 3.70835 0.602253 3.78813V12.3289C0.601517 12.4302 0.640857 12.5277 0.711693 12.6C0.782529 12.6724 0.879113 12.7139 0.980378 12.7153H18.1772C18.2787 12.7143 18.3757 12.6731 18.447 12.6006C18.5182 12.5282 18.5577 12.4305 18.557 12.3289V0.987938C18.5577 0.88637 18.5182 0.788658 18.447 0.716227C18.3757 0.643797 18.2787 0.602561 18.1772 0.601562H0.981753C0.880128 0.602471 0.783016 0.643667 0.711736 0.716107C0.640456 0.788547 0.600833 0.886311 0.601565 0.987938V2.23541C0.601565 2.31518 0.569876 2.39168 0.513469 2.44809C0.457061 2.5045 0.380556 2.53619 0.300784 2.53619C0.221012 2.53619 0.144507 2.5045 0.0880998 2.44809C0.0316924 2.39168 2.95943e-06 2.31518 2.95943e-06 2.23541V0.987938C-0.00063656 0.726796 0.102395 0.476076 0.28647 0.290841C0.470544 0.105606 0.720612 0.00100116 0.981753 0H18.1772C18.4382 0.001092 18.6882 0.105737 18.8722 0.290962C19.0562 0.476187 19.1592 0.726855 19.1586 0.987938V12.3289C19.159 12.5899 19.056 12.8404 18.872 13.0255C18.688 13.2105 18.4381 13.3151 18.1772 13.3162Z" fill="#4A73CF"/>
<path d="M4.06794 11.5977H0.300781C0.221009 11.5977 0.144504 11.566 0.0880967 11.5096C0.0316893 11.4532 0 11.3766 0 11.2969C0 11.2171 0.0316893 11.1406 0.0880967 11.0842C0.144504 11.0278 0.221009 10.9961 0.300781 10.9961H4.06794C4.14771 10.9961 4.22421 11.0278 4.28062 11.0842C4.33703 11.1406 4.36872 11.2171 4.36872 11.2969C4.36872 11.3766 4.33703 11.4532 4.28062 11.5096C4.22421 11.566 4.14771 11.5977 4.06794 11.5977Z" fill="#4A73CF"/>
<path d="M18.8573 11.5977H6.43555C6.35577 11.5977 6.27927 11.566 6.22286 11.5096C6.16645 11.4532 6.13477 11.3766 6.13477 11.2969C6.13477 11.2171 6.16645 11.1406 6.22286 11.0842C6.27927 11.0278 6.35577 10.9961 6.43555 10.9961H18.8573C18.9371 10.9961 19.0136 11.0278 19.07 11.0842C19.1264 11.1406 19.1581 11.2171 19.1581 11.2969C19.1581 11.3766 19.1264 11.4532 19.07 11.5096C19.0136 11.566 18.9371 11.5977 18.8573 11.5977Z" fill="#4A73CF"/>
<path d="M16.796 19.1582H2.36336C2.31209 19.1582 2.26167 19.1451 2.21689 19.1202C2.1721 19.0952 2.13444 19.0592 2.10747 19.0156C2.08051 18.972 2.06513 18.9223 2.06281 18.8711C2.06049 18.8198 2.07129 18.7689 2.0942 18.723L3.12545 16.6605C3.15039 16.6105 3.1888 16.5684 3.23635 16.539C3.2839 16.5096 3.33871 16.4941 3.39461 16.4941H12.3758C12.4555 16.4941 12.532 16.5258 12.5884 16.5822C12.6449 16.6386 12.6765 16.7151 12.6765 16.7949C12.6765 16.8747 12.6449 16.9512 12.5884 17.0076C12.532 17.064 12.4555 17.0957 12.3758 17.0957H3.57989L2.85011 18.556H16.311L15.5809 17.0957H14.4087C14.3289 17.0957 14.2524 17.064 14.196 17.0076C14.1396 16.9512 14.1079 16.8747 14.1079 16.7949C14.1079 16.7151 14.1396 16.6386 14.196 16.5822C14.2524 16.5258 14.3289 16.4941 14.4087 16.4941H15.7651C15.821 16.4941 15.8758 16.5096 15.9233 16.539C15.9708 16.5684 16.0091 16.6105 16.034 16.6605L17.0652 18.723C17.0881 18.7689 17.0989 18.8198 17.0966 18.871C17.0943 18.9221 17.0789 18.9719 17.052 19.0155C17.0251 19.0591 16.9875 19.0951 16.9427 19.12C16.898 19.145 16.8476 19.1582 16.7964 19.1582H16.796Z" fill="#4A73CF"/>
<path d="M8.54883 17.0952C8.50932 17.0953 8.47018 17.0875 8.43367 17.0724C8.39716 17.0573 8.36398 17.0352 8.33604 17.0073C8.3081 16.9793 8.28595 16.9461 8.27085 16.9096C8.25575 16.8731 8.248 16.834 8.24805 16.7945V13.0156C8.24805 12.9359 8.27974 12.8593 8.33614 12.8029C8.39255 12.7465 8.46906 12.7148 8.54883 12.7148C8.6286 12.7148 8.70511 12.7465 8.76151 12.8029C8.81792 12.8593 8.84961 12.9359 8.84961 13.0156V16.7969C8.84897 16.8762 8.81701 16.9521 8.76067 17.008C8.70433 17.0639 8.62819 17.0953 8.54883 17.0952Z" fill="#4A73CF"/>
<path d="M10.6113 17.0952C10.5718 17.0953 10.5327 17.0875 10.4962 17.0724C10.4597 17.0573 10.4265 17.0352 10.3985 17.0073C10.3706 16.9793 10.3485 16.9461 10.3334 16.9096C10.3183 16.8731 10.3105 16.834 10.3105 16.7945V13.0156C10.3105 12.9359 10.3422 12.8593 10.3986 12.8029C10.4551 12.7465 10.5316 12.7148 10.6113 12.7148C10.6911 12.7148 10.7676 12.7465 10.824 12.8029C10.8804 12.8593 10.9121 12.9359 10.9121 13.0156V16.7969C10.9115 16.8762 10.8795 16.9521 10.8232 17.008C10.7668 17.0639 10.6907 17.0953 10.6113 17.0952Z" fill="#4A73CF"/>
<path d="M8.00506 5.37827L8.61762 4.53642C8.35156 4.06617 8.32063 4.01667 8.05456 3.55261L7.01472 3.66398C6.77959 3.53405 6.61253 3.43505 6.38359 3.29892L5.95631 2.3457H4.824L4.40291 3.29892C4.16778 3.43642 4.00691 3.53405 3.77178 3.66398L2.73331 3.55261C2.46106 4.01667 2.43631 4.06617 2.16406 4.53642L2.78281 5.37827V6.1077L2.16406 6.94955C2.43631 7.4198 2.46106 7.4693 2.73331 7.93336L3.77316 7.82198C4.00828 7.95192 4.16916 8.05092 4.40428 8.18705L4.82537 9.14027H5.95769L6.38497 8.18705C6.61391 8.04955 6.78097 7.95192 7.01609 7.82198L8.05594 7.93336C8.23537 7.6178 8.30962 7.49405 8.421 7.30223C8.4705 7.20942 8.53237 7.10423 8.619 6.94955L8.00506 6.1077V5.37827ZM5.39256 7.23452C5.19669 7.23533 5.00258 7.19755 4.82131 7.12335C4.64004 7.04914 4.47515 6.93996 4.33608 6.80203C4.197 6.6641 4.08645 6.50013 4.01075 6.31948C3.93504 6.13883 3.89566 5.94504 3.89484 5.74917C3.89403 5.5533 3.93181 5.35919 4.00601 5.17792C4.08022 4.99664 4.1894 4.83176 4.32733 4.69269C4.60588 4.41181 4.98461 4.25309 5.38019 4.25145H5.39256C5.78809 4.25164 6.16736 4.40884 6.44703 4.68851C6.72671 4.96819 6.88391 5.34746 6.88409 5.74298C6.88157 6.13778 6.72362 6.5157 6.44445 6.79487C6.16527 7.07404 5.78736 7.23199 5.39256 7.23452Z" fill="white"/>
<path d="M8.00447 6.10609L8.61703 6.94794C8.53041 7.10263 8.46853 7.20781 8.41903 7.30063C7.77561 7.19652 7.17129 6.92371 6.66763 6.51C6.80872 6.27891 6.88364 6.01351 6.88419 5.74275C6.88428 5.54679 6.84577 5.35273 6.77087 5.17165C6.69596 4.99057 6.58612 4.82602 6.44762 4.68739C6.30911 4.54876 6.14466 4.43877 5.96365 4.36369C5.78264 4.28862 5.58862 4.24993 5.39266 4.24984H5.3796C5.273 3.60872 5.33921 2.95078 5.57141 2.34375H5.95503L6.38232 3.29697C6.61125 3.43447 6.77832 3.53209 7.01344 3.66203L8.05328 3.55066C8.31935 4.01472 8.35029 4.06422 8.61635 4.53447L8.00379 5.37631L8.00447 6.10609Z" fill="#F5F5F5"/>
<path d="M5.95616 9.44116H4.82384C4.76556 9.44127 4.7085 9.4244 4.65966 9.39259C4.61081 9.36078 4.57231 9.31542 4.54884 9.26206L4.16694 8.39753L4.02944 8.31744C3.92322 8.25488 3.82319 8.19644 3.70837 8.13147L2.76375 8.23253C2.70613 8.23924 2.64781 8.22892 2.596 8.20283C2.54419 8.17674 2.50117 8.13604 2.47225 8.08575C2.30656 7.80353 2.23162 7.67325 2.13881 7.511L1.90197 7.0985C1.87258 7.04789 1.85862 6.98979 1.86179 6.93135C1.86497 6.87291 1.88514 6.81666 1.91984 6.76953L2.48016 6.00744V5.47463L1.91984 4.71219C1.88513 4.66513 1.86495 4.60894 1.86177 4.55055C1.85859 4.49216 1.87257 4.43411 1.90197 4.38356L2.13744 3.97484C2.23162 3.81088 2.30587 3.68128 2.47225 3.39803C2.50153 3.34808 2.54462 3.30765 2.59633 3.28161C2.64805 3.25557 2.70618 3.24503 2.76375 3.25125L3.70837 3.35231C3.82284 3.28803 3.92184 3.22959 4.02737 3.16738L4.16659 3.08591L4.54884 2.22241C4.57233 2.16904 4.61083 2.12366 4.65966 2.09179C4.70849 2.05993 4.76554 2.04297 4.82384 2.04297H5.95616C6.01425 2.04291 6.07113 2.05965 6.11992 2.09118C6.16872 2.12272 6.20735 2.16769 6.23116 2.22069L6.61925 3.08694C6.77944 3.18216 6.91384 3.26122 7.07781 3.353L8.02278 3.25159C8.08082 3.24562 8.13935 3.25656 8.19131 3.28309C8.24328 3.30962 8.28646 3.35061 8.31566 3.40113L8.52191 3.76206C8.62847 3.947 8.70169 4.07453 8.87837 4.38631C8.90678 4.43661 8.9201 4.49402 8.91675 4.55169C8.9134 4.60935 8.89351 4.66483 8.85947 4.7115L8.30466 5.47394V6.00881L8.85947 6.77091C8.89337 6.81742 8.91323 6.87267 8.91671 6.93012C8.92018 6.98757 8.90712 7.04481 8.87906 7.09506L8.78659 7.25869C8.74603 7.3295 8.71269 7.38828 8.68347 7.44259L8.59341 7.59763C8.51916 7.72413 8.44491 7.85166 8.31462 8.08094C8.28557 8.13178 8.24234 8.17307 8.1902 8.19974C8.13807 8.22642 8.0793 8.23734 8.02106 8.23116L7.07609 8.13009C6.91212 8.22153 6.77772 8.30197 6.61753 8.39581L6.22944 9.26206C6.20595 9.31505 6.16767 9.36013 6.1192 9.3919C6.07072 9.42367 6.01411 9.44077 5.95616 9.44116ZM5.01978 8.83959H5.76125L6.10878 8.06409C6.13416 8.00753 6.17643 7.96022 6.22978 7.92866C6.46147 7.79116 6.63094 7.69044 6.86916 7.55878C6.92338 7.52948 6.98528 7.51748 7.04653 7.52441L7.89078 7.61481C7.96641 7.48247 8.02106 7.38931 8.07503 7.29684L8.15925 7.15281C8.18434 7.10538 8.21872 7.04453 8.26031 6.97131L7.76153 6.28622C7.72412 6.23478 7.70402 6.17279 7.70412 6.10919V5.37734C7.70406 5.31375 7.72416 5.25177 7.76153 5.20031L8.26031 4.51522C8.14928 4.31997 8.08603 4.20963 8.00147 4.06319L7.89147 3.87138L7.04653 3.96213C6.98526 3.9696 6.9232 3.95757 6.86916 3.92775C6.63094 3.79575 6.46147 3.69572 6.22978 3.55788C6.17634 3.52626 6.13406 3.47881 6.10878 3.42209L5.76125 2.64694H5.01978L4.67809 3.42072C4.65199 3.47842 4.60848 3.52651 4.55366 3.55822L4.33297 3.68713C4.19856 3.76619 4.07412 3.83941 3.91737 3.92775C3.86321 3.95758 3.80103 3.9696 3.73966 3.96213L2.89334 3.87241C2.79262 4.04428 2.73178 4.1505 2.65925 4.277L2.52175 4.51763L3.02431 5.20134C3.06216 5.25299 3.08251 5.31538 3.08241 5.37941V6.10678C3.08251 6.17092 3.06216 6.23341 3.02431 6.28519L2.52175 6.96856L2.66097 7.20919C2.73316 7.33466 2.79366 7.43984 2.89369 7.61138L3.74 7.52063C3.80136 7.51368 3.86338 7.52567 3.91772 7.555C4.07516 7.64197 4.19994 7.71553 4.33503 7.79563L4.554 7.9235C4.6089 7.95512 4.65244 8.00323 4.67844 8.061L5.01978 8.83959ZM5.39309 7.53334C5.03861 7.53334 4.69208 7.42823 4.39734 7.23128C4.10259 7.03434 3.87287 6.75442 3.73721 6.42692C3.60156 6.09942 3.56606 5.73904 3.63522 5.39137C3.70438 5.04369 3.87508 4.72433 4.12574 4.47368C4.3764 4.22302 4.69576 4.05231 5.04343 3.98316C5.3911 3.914 5.75148 3.94949 6.07898 4.08515C6.40648 4.22081 6.6864 4.45053 6.88335 4.74528C7.08029 5.04002 7.18541 5.38655 7.18541 5.74103C7.18288 6.2156 6.99323 6.67002 6.65766 7.00559C6.32208 7.34117 5.86766 7.53082 5.39309 7.53334ZM5.39309 4.55028C5.07729 4.55028 4.77441 4.67573 4.55111 4.89904C4.3278 5.12235 4.20234 5.42523 4.20234 5.74103C4.20234 6.05684 4.3278 6.35971 4.55111 6.58302C4.77441 6.80633 5.07729 6.93178 5.39309 6.93178C5.59776 6.93237 5.79905 6.87961 5.97711 6.7787C6.15517 6.6778 6.30387 6.53223 6.40853 6.35634L6.41128 6.35291C6.52375 6.16914 6.58323 5.95786 6.58316 5.74241C6.58279 5.42683 6.45732 5.12427 6.23423 4.90106C6.01115 4.67785 5.70867 4.5522 5.39309 4.55166V4.55028Z" fill="#4A73CF"/>
<path d="M14.4752 3.43856V4.25359L16.8477 2.88444L14.4752 1.51562V2.33066H9.48633V3.43856H14.4752Z" fill="white"/>
<path d="M16.8477 2.88477H9.48633V3.43889H14.4752V4.25392L16.8477 2.88477Z" fill="white"/>
<path d="M14.4752 4.55727C14.4224 4.55734 14.3705 4.54334 14.325 4.51671C14.2792 4.49038 14.2412 4.45247 14.2148 4.40679C14.1884 4.3611 14.1744 4.30927 14.1744 4.25649V3.74086H9.48633C9.44682 3.74091 9.40768 3.73316 9.37117 3.71806C9.33466 3.70296 9.30148 3.68081 9.27354 3.65287C9.2456 3.62493 9.22345 3.59175 9.20835 3.55524C9.19325 3.51873 9.1855 3.47959 9.18555 3.44008V2.33114C9.18555 2.25137 9.21724 2.17487 9.27364 2.11846C9.33005 2.06205 9.40656 2.03036 9.48633 2.03036H11.4051C11.4849 2.03036 11.5614 2.06205 11.6178 2.11846C11.6742 2.17487 11.7059 2.25137 11.7059 2.33114C11.7059 2.41092 11.6742 2.48742 11.6178 2.54383C11.5614 2.60024 11.4849 2.63193 11.4051 2.63193H9.78711V3.13861H14.4752C14.5549 3.13861 14.6314 3.1703 14.6879 3.22671C14.7443 3.28312 14.776 3.35962 14.776 3.43939V3.73468L16.2462 2.88493L14.776 2.03518V2.3308C14.776 2.41057 14.7443 2.48708 14.6879 2.54349C14.6314 2.59989 14.5549 2.63158 14.4752 2.63158H12.8558C12.776 2.63158 12.6995 2.59989 12.6431 2.54349C12.5867 2.48708 12.555 2.41057 12.555 2.3308C12.555 2.25103 12.5867 2.17452 12.6431 2.11812C12.6995 2.06171 12.776 2.03002 12.8558 2.03002H14.1744V1.51439C14.1743 1.4614 14.1882 1.40933 14.2147 1.36344C14.2412 1.31755 14.2794 1.27946 14.3253 1.25303C14.3712 1.2266 14.4233 1.21275 14.4763 1.21289C14.5293 1.21303 14.5813 1.22715 14.6271 1.25383L16.999 2.62471C17.0447 2.65117 17.0826 2.68916 17.1089 2.7349C17.1353 2.78063 17.1492 2.83249 17.1492 2.88527C17.1492 2.93805 17.1353 2.98991 17.1089 3.03564C17.0826 3.08137 17.0447 3.11937 16.999 3.14583L14.6271 4.51671C14.581 4.54357 14.5285 4.55758 14.4752 4.55727Z" fill="#4A73CF"/>
<path d="M14.3203 7.05277L14.7953 6.39964C14.5891 6.03492 14.565 5.99677 14.3588 5.63686L13.5527 5.72314C13.3705 5.62242 13.2409 5.54577 13.0632 5.44023L12.7321 4.70117H11.8542L11.528 5.44023C11.3455 5.54577 11.2207 5.62242 11.0385 5.72314L10.2324 5.63686C10.0213 5.99677 10.0021 6.03492 9.79102 6.39964L10.2723 7.05277V7.61927L9.79102 8.27239C10.0021 8.63711 10.0213 8.67527 10.2324 9.03517L11.0385 8.94889C11.2207 9.04961 11.3455 9.12627 11.528 9.2318L11.8542 9.97086H12.7321L13.0632 9.2318C13.2409 9.12627 13.3705 9.04961 13.5527 8.94889L14.3588 9.03517C14.498 8.79042 14.5554 8.69452 14.6417 8.54567C14.6802 8.47383 14.7283 8.39236 14.7953 8.27239L14.3203 7.61927V7.05277ZM12.2956 8.49239C12.1437 8.49302 11.9932 8.46374 11.8527 8.40621C11.7121 8.34868 11.5843 8.26403 11.4765 8.1571C11.2587 7.94114 11.1357 7.64752 11.1344 7.34083C11.1338 7.18897 11.163 7.03848 11.2206 6.89794C11.2781 6.7574 11.3627 6.62956 11.4697 6.52174C11.5766 6.41391 11.7037 6.3282 11.8438 6.26951C11.9838 6.21081 12.1341 6.18027 12.286 6.17964H12.2956C12.5006 6.17867 12.7021 6.23241 12.8794 6.33531C13.0567 6.43821 13.2033 6.58655 13.3042 6.76502C13.405 6.94349 13.4565 7.14564 13.4531 7.35061C13.4498 7.55558 13.3918 7.75595 13.2852 7.93105C13.1837 8.10291 13.0389 8.24517 12.8652 8.34366C12.6916 8.44215 12.4952 8.49343 12.2956 8.49239Z" fill="white"/>
<path d="M14.3215 7.61869L14.7966 8.27181C14.7278 8.39178 14.6814 8.47325 14.6429 8.54509C14.1444 8.4635 13.6765 8.25145 13.2865 7.93047C13.3934 7.75543 13.4518 7.55501 13.4554 7.3499C13.459 7.1448 13.4078 6.94244 13.307 6.76374C13.2063 6.58504 13.0597 6.43648 12.8823 6.33339C12.705 6.2303 12.5033 6.17643 12.2982 6.17734H12.2886C12.2056 5.68017 12.257 5.16987 12.4374 4.69922H12.7347L13.0658 5.43828C13.2435 5.54381 13.3731 5.62047 13.5553 5.72119L14.3614 5.63491C14.5676 5.99481 14.5917 6.03297 14.7979 6.39769L14.3229 7.05081L14.3215 7.61869Z" fill="#F5F5F5"/>
<path d="M12.7329 10.2705H11.8546C11.7963 10.2704 11.7394 10.2534 11.6906 10.2215C11.6417 10.1897 11.6032 10.1444 11.5796 10.0911L11.2919 9.44069L11.2077 9.39119C11.1303 9.34581 11.0578 9.30284 10.9753 9.25644L10.2644 9.33241C10.2068 9.33885 10.1486 9.32841 10.0969 9.30234C10.0451 9.27628 10.0021 9.23573 9.97294 9.18562C9.84231 8.96253 9.78456 8.86216 9.71031 8.73256L9.53087 8.42113C9.50147 8.37058 9.4875 8.31253 9.49068 8.25414C9.49385 8.19575 9.51404 8.13956 9.54875 8.0925L9.96984 7.51913V7.15097L9.54909 6.57828C9.51439 6.53115 9.49422 6.47491 9.49104 6.41647C9.48787 6.35802 9.50183 6.29993 9.53122 6.24931L9.71031 5.93994C9.78491 5.81 9.84231 5.70963 9.97328 5.48653C10.0024 5.4364 10.0454 5.39582 10.0972 5.36975C10.1489 5.34369 10.2072 5.33326 10.2648 5.33975L10.9757 5.41572C11.0564 5.37034 11.1276 5.32841 11.2029 5.28372L11.2922 5.23181L11.5793 4.58144C11.603 4.52824 11.6415 4.48302 11.6903 4.45125C11.7391 4.41947 11.7961 4.40249 11.8543 4.40234H12.7326C12.7907 4.40227 12.8476 4.41905 12.8964 4.45065C12.9452 4.48225 12.9838 4.52732 13.0076 4.58041L13.2997 5.23353C13.4091 5.2985 13.506 5.35453 13.6167 5.41744L14.3276 5.34112C14.3857 5.33462 14.4444 5.34532 14.4965 5.3719C14.5485 5.39849 14.5916 5.43978 14.6204 5.49066L14.7872 5.78078C14.8669 5.91828 14.9247 6.01866 15.058 6.25481C15.0865 6.30514 15.0998 6.36259 15.0966 6.4203C15.0933 6.47802 15.0734 6.53357 15.0395 6.58034L14.6222 7.15337V7.52394L15.0388 8.09422C15.0727 8.14073 15.0926 8.19603 15.0959 8.25352C15.0993 8.311 15.086 8.36824 15.0577 8.41837L14.9889 8.538C14.9546 8.59609 14.9288 8.64319 14.9054 8.68684L14.8308 8.81541C14.7748 8.91131 14.7174 9.00928 14.6191 9.18253C14.5901 9.2335 14.5469 9.27491 14.4948 9.30165C14.4426 9.3284 14.3838 9.33933 14.3255 9.33309L13.6143 9.25678C13.5026 9.32003 13.408 9.37572 13.2977 9.44069L13.0055 10.0938C12.9817 10.1462 12.9434 10.1908 12.8951 10.2221C12.8468 10.2534 12.7905 10.2702 12.7329 10.2705ZM12.0506 9.66894H12.538L12.7893 9.10759C12.8146 9.05113 12.8568 9.00385 12.9099 8.97216C13.0907 8.86491 13.2224 8.78687 13.4077 8.68444C13.4619 8.65509 13.5238 8.64309 13.5851 8.65006L14.1956 8.71537C14.2416 8.63528 14.2777 8.57375 14.3128 8.51325L14.3815 8.395C14.3963 8.3675 14.4159 8.33312 14.4382 8.29187L14.0777 7.79584C14.04 7.74452 14.0198 7.68248 14.0199 7.61881V7.05231C14.0198 6.98866 14.04 6.92663 14.0777 6.87528L14.4386 6.38131C14.3678 6.25722 14.3227 6.17816 14.2667 6.0795L14.198 5.95884L13.5871 6.02416C13.5259 6.03144 13.4639 6.01943 13.4097 5.98978C13.2245 5.88666 13.0928 5.80931 12.9123 5.70206C12.859 5.67036 12.8167 5.62293 12.7913 5.56628L12.5401 5.00528H12.0506L11.8034 5.56491C11.7774 5.62268 11.7339 5.67079 11.679 5.70241L11.5071 5.80244C11.404 5.86397 11.3057 5.92103 11.1836 5.98841C11.1295 6.01805 11.0675 6.03007 11.0062 6.02278L10.3937 5.95712C10.3273 6.07125 10.2837 6.14756 10.2314 6.23797L10.1493 6.38028L10.513 6.87459C10.5507 6.92627 10.5711 6.98864 10.5711 7.05266V7.61881C10.5712 7.68284 10.5508 7.74523 10.513 7.79688L10.1493 8.29153L10.2314 8.43384C10.2837 8.52459 10.3273 8.60056 10.3937 8.71469L11.0062 8.64903C11.0675 8.64206 11.1294 8.65406 11.1836 8.68341C11.3077 8.75216 11.4057 8.80956 11.5126 8.87247L11.6783 8.96941C11.7332 9.00103 11.7767 9.04914 11.8027 9.10691L12.0506 9.66894ZM12.296 8.79272C12.0078 8.79272 11.7261 8.70726 11.4864 8.54714C11.2468 8.38703 11.0601 8.15945 10.9498 7.89319C10.8395 7.62693 10.8106 7.33395 10.8668 7.05129C10.9231 6.76862 11.0618 6.50898 11.2656 6.3052C11.4694 6.10141 11.7291 5.96263 12.0117 5.90641C12.2944 5.85018 12.5874 5.87904 12.8536 5.98933C13.1199 6.09961 13.3475 6.28638 13.5076 6.52601C13.6677 6.76564 13.7532 7.04736 13.7532 7.33556C13.7511 7.72138 13.5969 8.09081 13.3241 8.36363C13.0512 8.63645 12.6818 8.79064 12.296 8.79272ZM12.296 6.47997C12.0691 6.47997 11.8515 6.57011 11.691 6.73057C11.5305 6.89102 11.4404 7.10864 11.4404 7.33556C11.4404 7.56248 11.5305 7.7801 11.691 7.94056C11.8515 8.10101 12.0691 8.19116 12.296 8.19116C12.4428 8.19165 12.5873 8.15387 12.7151 8.08154C12.8429 8.0092 12.9496 7.90481 13.0247 7.77866L13.0278 7.7735C13.1085 7.64166 13.1514 7.49014 13.1516 7.33556C13.1513 7.10873 13.0611 6.89126 12.9007 6.73087C12.7403 6.57047 12.5228 6.48024 12.296 6.47997Z" fill="#4A73CF"/>
</svg>
