<svg width="64" height="64" viewBox="0 0 64 64" fill="none" xmlns="http://www.w3.org/2000/svg">
<rect width="64" height="64" rx="7.70588" fill="#E0F1F4"/>
<g clip-path="url(#clip0_262_17835)">
<path d="M33.8125 32.2636L34.9803 31.636L36.6753 34.7912L35.5075 35.4184L33.8125 32.2636Z" fill="#024430"/>
<path d="M27.5566 34.8287H38.8339V36.1544H27.5566V34.8287Z" fill="#024430"/>
<path d="M29.4512 35.043L31.4191 31.6163L32.5687 32.2766L30.6008 35.7033L29.4512 35.043Z" fill="#024430"/>
<path d="M20.458 31.1425H45.9313V32.4682H20.458V31.1425Z" fill="#024430"/>
<path d="M19.0898 30.4407V30.7502C19.0898 31.3328 19.564 31.8053 20.1479 31.8053H46.242C46.8266 31.8053 47.2998 31.3328 47.2998 30.7502V27.272H19.0898V30.4407Z" fill="#D4DDE0"/>
<path d="M46.2415 32.4682H20.1474C19.1981 32.4682 18.4258 31.6975 18.4258 30.7502V26.6092H47.9621V30.7502C47.9621 31.6975 47.1898 32.4682 46.2415 32.4682ZM19.7522 27.9349V30.7502C19.7522 30.9664 19.9299 31.1425 20.148 31.1425H46.2415C46.4593 31.1425 46.637 30.9664 46.637 30.7502V27.9349H19.7522Z" fill="#024430"/>
<path d="M46.242 10.7805H20.1479C19.5634 10.7805 19.0898 11.2531 19.0898 11.8357V27.272H47.2998V11.8357C47.2998 11.2531 46.8259 10.7805 46.242 10.7805Z" fill="white"/>
<path d="M47.9634 27.9349H18.4277V11.8363C18.4277 10.8886 19.2 10.1176 20.1487 10.1176H46.2421C47.1911 10.1176 47.9634 10.8886 47.9634 11.8363V27.9349ZM19.7535 26.6092H46.6383V11.8363C46.6376 11.6198 46.4606 11.4434 46.2428 11.4434H20.1487C19.9305 11.4434 19.7528 11.6198 19.7528 11.8363V26.6092H19.7535Z" fill="#024430"/>
<path d="M38.1419 19.1121C38.1419 16.3864 35.9271 14.1771 33.195 14.1771C30.4629 14.1771 28.248 16.3864 28.248 19.1121C28.248 21.8377 30.4629 24.0473 33.195 24.0473C35.9271 24.0473 38.1419 21.8377 38.1419 19.1121Z" fill="#06D6A0"/>
<path d="M33.1957 24.7096C30.1028 24.7096 27.5859 22.1985 27.5859 19.112C27.5859 16.0259 30.1028 13.5149 33.1957 13.5149C36.2887 13.5149 38.8049 16.0259 38.8049 19.112C38.8049 22.1985 36.2887 24.7096 33.1957 24.7096ZM33.1957 14.84C30.8339 14.84 28.9117 16.7564 28.9117 19.1114C28.9117 21.4667 30.8333 23.3832 33.1957 23.3832C35.5582 23.3832 37.4792 21.4667 37.4792 19.1114C37.4792 16.7564 35.5582 14.84 33.1957 14.84Z" fill="#AEE6B9"/>
<path d="M34.9678 18.5654L32.6458 17.2276C32.1924 16.9664 31.625 17.2934 31.625 17.8154V20.4902C31.625 21.0126 32.1924 21.3395 32.6458 21.0783L34.9678 19.7406C35.4213 19.4801 35.4213 18.8266 34.9678 18.5654Z" fill="white"/>
<path d="M35.6425 40.9214C35.6425 39.6161 34.5818 38.558 33.2732 38.558C31.965 38.558 30.9043 39.6161 30.9043 40.9214C30.9043 42.2265 31.965 43.2845 33.2732 43.2845C34.5818 43.2845 35.6425 42.2265 35.6425 40.9214Z" fill="white"/>
<path d="M33.272 43.9468C31.6003 43.9468 30.2402 42.589 30.2402 40.9214C30.2402 39.2523 31.6003 37.8951 33.272 37.8951C34.9441 37.8951 36.3042 39.2529 36.3042 40.9214C36.3042 42.589 34.9447 43.9468 33.272 43.9468ZM33.272 39.2202C32.3315 39.2202 31.566 39.9828 31.566 40.9208C31.566 41.8578 32.3315 42.6204 33.272 42.6204C34.2129 42.6204 34.9784 41.8578 34.9784 40.9208C34.9784 39.9834 34.2129 39.2202 33.272 39.2202Z" fill="#024430"/>
<path d="M38.1477 50.5528H28.2432V49.0355C28.2432 47.0323 29.8712 45.4081 31.8799 45.4081H34.5019C36.5106 45.4081 38.1387 47.0323 38.1387 49.0355L38.1477 50.5528Z" fill="#06D6A0"/>
<path d="M38.8139 51.2157H27.5781V49.0355C27.5781 46.6704 29.5065 44.7452 31.8768 44.7452H34.4998C36.8703 44.7452 38.7987 46.6698 38.7987 49.0355L38.8139 51.2157ZM28.9039 49.8899H37.4788L37.4736 49.04C37.4736 47.4009 36.1398 46.071 34.5004 46.071H31.8777C30.2377 46.071 28.9045 47.4009 28.9045 49.0355L28.9039 49.8899Z" fill="#024430"/>
<path d="M49.911 40.9214C49.911 39.6161 48.8504 38.558 47.5421 38.558C46.2335 38.558 45.1729 39.6161 45.1729 40.9214C45.1729 42.2265 46.2335 43.2845 47.5421 43.2845C48.8504 43.2845 49.911 42.2265 49.911 40.9214Z" fill="white"/>
<path d="M47.5422 43.9468C45.8711 43.9468 44.5107 42.589 44.5107 40.9214C44.5107 39.2523 45.8711 37.8951 47.5422 37.8951C49.214 37.8951 50.574 39.2529 50.574 40.9214C50.574 42.589 49.214 43.9468 47.5422 43.9468ZM47.5422 39.2202C46.6016 39.2202 45.8365 39.9828 45.8365 40.9208C45.8365 41.8578 46.6016 42.6204 47.5422 42.6204C48.4828 42.6204 49.2483 41.8578 49.2483 40.9208C49.2483 39.9834 48.4828 39.2202 47.5422 39.2202Z" fill="#024430"/>
<path d="M52.4166 50.5528H42.5117V49.0355C42.5117 47.0323 44.1398 45.4081 46.1484 45.4081H48.7708C50.7792 45.4081 52.4072 47.0323 52.4072 49.0355L52.4166 50.5528Z" fill="#06D6A0"/>
<path d="M53.0831 51.2157H41.8486V49.0355C41.8486 46.6704 43.777 44.7452 46.1476 44.7452H48.7699C51.1402 44.7452 53.0686 46.6698 53.0686 49.0355L53.0831 51.2157ZM43.1744 49.8899H51.7487L51.7435 49.04C51.7435 47.4009 50.4096 46.071 48.7706 46.071H46.1482C44.5082 46.071 43.1753 47.4009 43.1753 49.0355L43.1744 49.8899Z" fill="#024430"/>
<path d="M21.3749 40.9214C21.3749 39.6161 20.3142 38.558 19.0056 38.558C17.6974 38.558 16.6367 39.6161 16.6367 40.9214C16.6367 42.2265 17.6974 43.2845 19.0056 43.2845C20.3142 43.2845 21.3749 42.2265 21.3749 40.9214Z" fill="white"/>
<path d="M19.0035 43.9468C17.3317 43.9468 15.9717 42.589 15.9717 40.9214C15.9717 39.2523 17.3317 37.8951 19.0035 37.8951C20.6746 37.8951 22.0349 39.2529 22.0349 40.9214C22.0349 42.589 20.6746 43.9468 19.0035 43.9468ZM19.0035 39.2202C18.0629 39.2202 17.2974 39.9828 17.2974 40.9208C17.2974 41.8578 18.0629 42.6204 19.0035 42.6204C19.9441 42.6204 20.7092 41.8578 20.7092 40.9208C20.7092 39.9834 19.9441 39.2202 19.0035 39.2202Z" fill="#024430"/>
<path d="M23.8801 50.5528H13.9756V49.0355C13.9756 47.0323 15.6036 45.4081 17.612 45.4081H20.2344C22.243 45.4081 23.8711 47.0323 23.8711 49.0355L23.8801 50.5528Z" fill="#06D6A0"/>
<path d="M24.5457 51.2157H13.3105V49.0355C13.3105 46.6704 15.239 44.7452 17.6092 44.7452H20.2315C22.6021 44.7452 24.5302 46.6698 24.5302 49.0355L24.5457 51.2157ZM14.6363 49.8899H23.2112L23.2051 49.04C23.2051 47.4009 21.8716 46.071 20.2322 46.071H17.6092C15.9701 46.071 14.6363 47.4009 14.6363 49.0355V49.8899Z" fill="#024430"/>
</g>
<defs>
<clipPath id="clip0_262_17835">
<rect width="41.098" height="41.098" fill="white" transform="translate(12.6484 10.1176)"/>
</clipPath>
</defs>
</svg>
