<svg width="113" height="113" viewBox="0 0 113 113" fill="none" xmlns="http://www.w3.org/2000/svg">
<g clip-path="url(#clip0_1186_544)">
<path d="M39.0474 81.0706H24.3555V77.4254H37.2248V54.6191H40.8699V79.248C40.8699 79.733 40.6786 80.1958 40.336 80.5366C39.9934 80.8775 39.5306 81.0706 39.0474 81.0706Z" fill="#4A73CF"/>
<path d="M89.243 81.0718H74.5511C73.5437 81.0718 72.7285 80.2575 72.7285 79.2492V54.623H76.3737V77.4284H89.243V81.0718Z" fill="#4A73CF"/>
<path d="M55.1504 54.9082H58.7956V81.7601H55.1504V54.9082Z" fill="#4A73CF"/>
<path d="M1.82227 68.9102H23.3346V90.9903H1.82227V68.9102Z" fill="#154CC7"/>
<path d="M23.3349 92.8132H1.82258C0.816958 92.8132 0 91.9989 0 90.9906V68.9105C0 67.9022 0.816958 67.0879 1.82258 67.0879H23.3349C24.3405 67.0879 25.1575 67.9022 25.1575 68.9105V90.9906C25.1575 91.9989 24.3405 92.8132 23.3349 92.8132ZM3.64516 89.168H21.5123V70.7331H3.64516V89.168Z" fill="#4A73CF"/>
<path d="M7.29102 74.3789H17.8679V85.5235H7.29102V74.3789Z" fill="white"/>
<path d="M14.4561 80.1992C14.2283 80.0025 13.9622 79.8307 13.6632 79.691C13.3767 79.5575 13.0759 79.4267 12.7555 79.3012C12.5188 79.2113 12.3016 79.1241 12.1067 79.044C11.9261 78.9693 11.7694 78.8839 11.6404 78.7904C11.5229 78.7068 11.4339 78.6115 11.3743 78.5101C11.3191 78.4131 11.2898 78.2894 11.2898 78.1416C11.2898 77.872 11.3868 77.6682 11.587 77.524C11.8095 77.3638 12.1379 77.2811 12.5677 77.2811C12.9798 77.2811 13.3242 77.3194 13.592 77.3923C13.8724 77.4671 14.1055 77.5418 14.2933 77.613L14.5362 77.7038L14.8717 76.2933L14.6822 76.2247C14.498 76.1571 14.2532 76.0859 13.9346 76.0076C13.681 75.9453 13.4096 75.9017 13.1221 75.8794V74.4805H11.6635V75.94C11.0566 76.0601 10.5778 76.3119 10.237 76.6857C9.85787 77.1031 9.66654 77.6371 9.66654 78.2805C9.66654 78.6445 9.73328 78.9604 9.86499 79.2167C9.99225 79.4685 10.164 79.6875 10.3696 79.8654C10.5734 80.0425 10.803 80.1903 11.053 80.3069C11.2951 80.4217 11.5416 80.5258 11.7872 80.6166C12.0338 80.7082 12.274 80.8025 12.5072 80.8978C12.7368 80.9939 12.9281 81.0962 13.0946 81.211C13.2494 81.3169 13.3731 81.4406 13.4648 81.5795C13.5484 81.7085 13.5902 81.8616 13.5902 82.0476C13.5902 82.2914 13.495 82.4845 13.3019 82.642C13.1604 82.7568 12.8445 82.8948 12.145 82.8948C11.6724 82.8948 11.2738 82.8494 10.9587 82.7568C10.6303 82.6598 10.35 82.5557 10.1257 82.448L9.88991 82.3332L9.45117 83.6859L9.61314 83.7767C9.79914 83.8844 10.0652 83.9885 10.4515 84.1122C10.7763 84.2145 11.1848 84.2786 11.6653 84.3035V85.8698H13.1204V84.2457C13.794 84.1309 14.3102 83.8933 14.6582 83.5329C15.0426 83.1279 15.2393 82.5993 15.2393 81.9603C15.2393 81.5608 15.1663 81.2146 15.023 80.9316C14.8806 80.6513 14.6911 80.4039 14.4561 80.1992V80.1992Z" fill="#4A73CF"/>
<path d="M46.6387 83.6289H68.151V105.71H46.6387V83.6289Z" fill="#154CC7"/>
<path d="M68.155 107.532H46.6409C45.6353 107.532 44.8184 106.718 44.8184 105.709V83.6312C44.8184 82.6229 45.6353 81.8086 46.6409 81.8086H68.1533C69.1607 81.8086 69.9758 82.6229 69.9758 83.6312V105.709C69.9776 106.718 69.1607 107.532 68.155 107.532ZM48.4635 103.887H66.3307V85.4538H48.4635V103.887Z" fill="#4A73CF"/>
<path d="M52.1094 89.0996H62.6862V100.242H52.1094V89.0996Z" fill="white"/>
<path d="M59.9837 94.6978C59.7576 94.4993 59.4898 94.3276 59.1872 94.1852C58.9024 94.0526 58.6016 93.9217 58.2794 93.7954C58.0427 93.7064 57.8256 93.6192 57.6307 93.5382C57.45 93.4634 57.2934 93.378 57.1635 93.2854C57.0469 93.2018 56.9579 93.1066 56.8974 93.0042C56.8431 92.9081 56.8137 92.7844 56.8137 92.6367C56.8137 92.3653 56.9107 92.1623 57.111 92.0182C57.3334 91.858 57.6636 91.7761 58.0917 91.7761C58.5037 91.7761 58.8463 91.8144 59.116 91.8874C59.3963 91.9621 59.6295 92.0369 59.8172 92.1081L60.0602 92.1988L60.3975 90.7901L60.2079 90.7189C60.0273 90.6512 59.7843 90.5809 59.4604 90.5017C59.2068 90.4403 58.9353 90.3967 58.6479 90.3745V88.9746H57.1911V90.435C56.5841 90.5551 56.1053 90.807 55.7645 91.1816C55.3854 91.5972 55.1923 92.1312 55.1923 92.7746C55.1923 93.1377 55.259 93.4545 55.3925 93.7117C55.518 93.9618 55.6897 94.1798 55.8971 94.3623C56.0938 94.534 56.3234 94.6817 56.5823 94.8037C56.8253 94.9167 57.0691 95.0199 57.3174 95.1134C57.5631 95.2041 57.8033 95.2976 58.0365 95.3919C58.2554 95.4854 58.4521 95.5886 58.6221 95.7061C58.7805 95.8146 58.9024 95.9357 58.9941 96.0736C59.0777 96.2017 59.1178 96.3548 59.1178 96.5426C59.1178 96.7864 59.0225 96.9795 58.8312 97.1362C58.6897 97.251 58.372 97.3898 57.6725 97.3898C57.2 97.3898 56.8013 97.3444 56.4862 97.251C56.1614 97.1549 55.8811 97.0525 55.6515 96.9431L55.4174 96.8318L54.9805 98.181L55.1424 98.2717C55.3338 98.3812 55.6097 98.4907 55.9808 98.6072C56.3091 98.7114 56.7158 98.7745 57.1928 98.8003V100.364H58.6497V98.7398C59.3216 98.625 59.8377 98.3883 60.1857 98.0279C60.5719 97.6247 60.7668 97.0961 60.7668 96.4545C60.7668 96.0558 60.6938 95.7114 60.5506 95.4266C60.4099 95.1463 60.2186 94.8998 59.9837 94.6978Z" fill="#4A73CF"/>
<path d="M89.666 67.0684H111.178V89.1494H89.666V67.0684Z" fill="#154CC7"/>
<path d="M111.178 90.9724H89.6644C88.657 90.9724 87.8418 90.1572 87.8418 89.1498V67.0706C87.8418 66.0632 88.657 65.248 89.6644 65.248H111.178C112.187 65.248 113.001 66.0632 113.001 67.0706V89.1498C113.001 90.1572 112.187 90.9724 111.178 90.9724ZM91.487 87.3273H109.356V68.8932H91.487V87.3273Z" fill="#4A73CF"/>
<path d="M95.1309 72.5371H105.709V83.6808H95.1309V72.5371Z" fill="white"/>
<path d="M103.074 78.8661C102.935 78.5875 102.744 78.341 102.509 78.1372C102.281 77.937 102.015 77.7652 101.714 77.6246C101.43 77.492 101.127 77.3603 100.807 77.2348C100.57 77.1458 100.353 77.0577 100.16 76.9776C99.979 76.9029 99.8206 76.8174 99.6933 76.7249C99.5758 76.6403 99.4851 76.546 99.4272 76.4437C99.3703 76.3476 99.3427 76.2274 99.3427 76.0761C99.3427 75.8038 99.4415 75.6018 99.6399 75.4576C99.8606 75.2974 100.191 75.2156 100.619 75.2156C101.033 75.2156 101.375 75.2538 101.645 75.3268C101.925 75.4016 102.158 75.4763 102.346 75.5475L102.589 75.6383L102.925 74.2295L102.735 74.1583C102.553 74.0907 102.31 74.0195 101.988 73.9412C101.734 73.8798 101.462 73.8362 101.175 73.8139V72.4141H99.72V73.8744C99.1131 73.9946 98.6325 74.2455 98.2934 74.6211C97.9143 75.0349 97.723 75.5707 97.723 76.2141C97.723 76.5807 97.7897 76.8958 97.9215 77.1512C98.0452 77.3986 98.2151 77.6175 98.426 77.8017C98.6307 77.9788 98.8603 78.1265 99.1077 78.2413C99.3507 78.3561 99.5981 78.4594 99.8446 78.5528C100.09 78.6436 100.331 78.737 100.562 78.8314C100.784 78.9266 100.981 79.0298 101.147 79.1428C101.309 79.2559 101.43 79.376 101.519 79.5131C101.605 79.643 101.645 79.796 101.645 79.9812C101.645 80.2259 101.55 80.419 101.357 80.5756C101.215 80.6904 100.897 80.8293 100.2 80.8293C99.7253 80.8293 99.3267 80.7839 99.0116 80.6904C98.6815 80.5925 98.4029 80.4902 98.1804 80.3825L97.9428 80.2677L97.5059 81.6204L97.6678 81.7112C97.8574 81.8206 98.1324 81.9301 98.5061 82.0467C98.8363 82.1508 99.243 82.214 99.72 82.2398V83.8034H101.175V82.1793C101.849 82.0645 102.365 81.8278 102.715 81.4656C103.099 81.0624 103.294 80.532 103.294 79.8939C103.292 79.5006 103.219 79.1544 103.074 78.8661V78.8661Z" fill="#4A73CF"/>
<path d="M27.1582 51.467C27.1582 53.0368 28.4032 54.3121 29.9303 54.3121H83.5452C85.075 54.3121 86.3173 53.0351 86.3173 51.467V17.4707H27.1582V51.467Z" fill="white"/>
<path d="M83.5455 56.1368H29.9307C27.3979 56.1368 25.3359 54.0428 25.3359 51.4673V17.471C25.3359 16.4636 26.1529 15.6484 27.1585 15.6484H86.3159C87.3241 15.6484 88.1384 16.4636 88.1384 17.471V51.4673C88.1384 54.041 86.0791 56.1368 83.5455 56.1368V56.1368ZM28.9811 19.2936V51.4673C28.9811 52.0324 29.4074 52.4916 29.9307 52.4916H83.5455C84.0688 52.4916 84.4951 52.0324 84.4951 51.4673V19.2936H28.9811Z" fill="#4A73CF"/>
<path d="M86.3173 17.4718V10.1379C86.5549 8.56896 85.3117 7.29102 83.7828 7.29102H30.1858C28.6399 7.29102 27.3949 8.56896 27.1582 10.1984V17.5137L86.3173 17.4718Z" fill="white"/>
<path d="M27.1585 19.3346C26.6762 19.3346 26.2107 19.1433 25.8699 18.8006C25.5291 18.458 25.3359 17.997 25.3359 17.512V10.1968C25.3359 10.1087 25.3413 10.0197 25.3546 9.93248C25.732 7.34366 27.7637 5.4668 30.1861 5.4668H83.7831C85.086 5.4668 86.3123 6.02478 87.1471 6.99392C87.9195 7.89275 88.2773 9.07369 88.1402 10.2546V17.4702C88.1402 18.4767 87.3259 19.2928 86.3194 19.2928L27.1585 19.3346ZM86.3159 17.4702H86.3345H86.3159ZM28.9811 10.3499V15.6894L84.4933 15.6512V10.1363C84.4933 10.0455 84.5004 9.95205 84.5155 9.86306C84.5449 9.67173 84.5004 9.51154 84.382 9.37093C84.2423 9.20629 84.0234 9.11196 83.7831 9.11196H30.1861C29.6281 9.11196 29.1253 9.63702 28.9811 10.3499Z" fill="#4A73CF"/>
<path d="M82.0571 12.4224C82.0571 11.4061 81.2544 10.582 80.2639 10.582C79.2734 10.582 78.4707 11.4061 78.4707 12.4224C78.4707 13.4396 79.2734 14.2637 80.2639 14.2637C81.2544 14.2637 82.0571 13.4396 82.0571 12.4224Z" fill="white"/>
<path d="M76.6782 12.4224C76.6782 11.4061 75.8755 10.582 74.885 10.582C73.8945 10.582 73.0918 11.4061 73.0918 12.4224C73.0918 13.4396 73.8945 14.2637 74.885 14.2637C75.8755 14.2637 76.6782 13.4396 76.6782 12.4224Z" fill="white"/>
<path d="M71.2983 12.4224C71.2983 11.4061 70.4955 10.582 69.505 10.582C68.5145 10.582 67.7109 11.4061 67.7109 12.4224C67.7109 13.4396 68.5145 14.2637 69.505 14.2637C70.4955 14.2637 71.2983 13.4396 71.2983 12.4224Z" fill="white"/>
<path d="M56.3871 42.1916C57.6267 42.1916 58.4962 41.9879 58.9937 41.5847C59.4929 41.1807 59.7421 40.6627 59.7421 40.0353C59.7421 39.5726 59.6335 39.1774 59.4164 38.8455C59.1993 38.5136 58.9091 38.2261 58.5469 37.9778C58.1856 37.7304 57.7665 37.5062 57.293 37.3095C56.8169 37.1119 56.331 36.9224 55.8326 36.739C55.3503 36.5566 54.8706 36.3564 54.3954 36.1321C53.9211 35.9096 53.4983 35.6364 53.1281 35.3151C52.7579 34.993 52.4553 34.6059 52.224 34.1502C51.9908 33.6964 51.8742 33.1393 51.8742 32.4789C51.8742 31.3051 52.2168 30.3431 52.9003 29.592C53.5838 28.8418 54.5787 28.3657 55.8825 28.169V25.3203H57.8875V28.0942C58.5941 28.1272 59.2544 28.2162 59.8667 28.3657C60.4772 28.5152 60.9595 28.654 61.3137 28.7866L60.8545 30.7186C60.4674 30.5709 59.9868 30.4178 59.4075 30.2612C58.8273 30.1046 58.1037 30.0263 57.2343 30.0263C56.2687 30.0263 55.5247 30.2176 55.0023 30.5967C54.4791 30.9758 54.2165 31.5133 54.2165 32.2075C54.2165 32.5866 54.2931 32.9097 54.4461 33.174C54.5992 33.4383 54.8199 33.6732 55.1091 33.8788C55.3992 34.087 55.7419 34.273 56.1352 34.435C56.5295 34.6005 56.9682 34.7741 57.4514 34.9583C58.0788 35.2039 58.6742 35.4629 59.2375 35.7236C59.8008 35.9897 60.2948 36.3065 60.721 36.6785C61.1473 37.0505 61.4899 37.491 61.7471 38.0036C62.0043 38.5153 62.1334 39.1356 62.1334 39.8627C62.1334 41.0347 61.7872 41.9807 61.0948 42.7007C60.4042 43.4189 59.3327 43.8683 57.8848 44.0489V47.2456H55.8807V44.1237C54.754 44.0908 53.8356 43.9617 53.1281 43.741C52.4197 43.5168 51.8893 43.3076 51.5352 43.1083L52.1385 41.251C52.6218 41.4833 53.2011 41.6977 53.8757 41.8944C54.552 42.0902 55.3886 42.1916 56.3871 42.1916V42.1916Z" fill="#4A73CF"/>
<path d="M58.3398 47.6997H55.4262V44.5618C54.4633 44.5084 53.6454 44.3793 52.9931 44.1729C52.2438 43.9379 51.6947 43.719 51.312 43.5045L50.9863 43.3203L51.8683 40.6122L52.3381 40.8401C52.7902 41.0563 53.35 41.2646 54.0059 41.4559C54.6386 41.6419 55.4404 41.7344 56.3882 41.7344C57.7916 41.7344 58.4244 41.4612 58.7083 41.2298C59.0981 40.9148 59.2858 40.5224 59.2858 40.0356C59.2858 39.6627 59.204 39.3539 59.0349 39.0958C58.8524 38.8181 58.6024 38.569 58.2891 38.3554C57.9572 38.1275 57.5638 37.9184 57.1153 37.7289C56.6472 37.5357 56.1657 37.348 55.6736 37.1655C55.1761 36.9778 54.6858 36.7713 54.199 36.5417C53.6944 36.305 53.2334 36.0077 52.8285 35.6598C52.4147 35.2993 52.0738 34.8615 51.8157 34.3569C51.5497 33.8407 51.4144 33.2089 51.4144 32.4774C51.4144 31.1932 51.7988 30.1173 52.5606 29.2825C53.2423 28.5332 54.2052 28.0304 55.4226 27.7848V24.8613H58.3363V27.6646C58.9103 27.71 59.4594 27.7954 59.9693 27.9209C60.6163 28.0802 61.1084 28.2235 61.4697 28.3588L61.8453 28.5012L61.1725 31.3276L60.6875 31.1416C60.3119 30.9974 59.8385 30.8497 59.2823 30.6993C58.7448 30.5533 58.0542 30.4786 57.2283 30.4786C56.366 30.4786 55.7065 30.6423 55.2633 30.9627C54.8558 31.2582 54.6662 31.6524 54.6662 32.2059C54.6662 32.5032 54.7223 32.7515 54.8335 32.9446C54.9536 33.1519 55.1325 33.3415 55.3657 33.5052C55.6282 33.6948 55.9432 33.863 56.3046 34.0143C56.6961 34.178 57.1304 34.3498 57.6074 34.5295C58.2491 34.7832 58.8524 35.0439 59.4247 35.31C60.0298 35.5939 60.5638 35.941 61.0176 36.3361C61.4875 36.7482 61.8684 37.2385 62.1496 37.8018C62.4371 38.3723 62.583 39.0664 62.583 39.8647C62.583 41.1498 62.1915 42.2106 61.419 43.0159C60.7204 43.7377 59.6854 44.2174 58.3345 44.4425V47.6997H58.3398ZM56.3375 46.7884H57.4303V43.6469L57.8299 43.5971C59.1639 43.4298 60.1535 43.0231 60.7694 42.3832C61.3825 41.7433 61.6789 40.9202 61.6789 39.8629C61.6789 39.2106 61.5641 38.6526 61.3398 38.2076C61.1138 37.752 60.8041 37.3551 60.4232 37.0231C60.0334 36.6805 59.5688 36.3833 59.0438 36.1377C58.4893 35.8787 57.9029 35.6251 57.2835 35.3812C56.8003 35.197 56.3553 35.0235 55.9584 34.8562C55.5357 34.6791 55.1583 34.4753 54.8424 34.2492C54.5051 34.0107 54.2372 33.7259 54.0513 33.402C53.8581 33.0665 53.7602 32.6669 53.7602 32.2077C53.7602 31.3605 54.0877 30.6948 54.7329 30.2285C55.3345 29.7916 56.1764 29.5708 57.2337 29.5708C58.1414 29.5708 58.913 29.6563 59.527 29.8236C59.8945 29.9242 60.2301 30.0229 60.5291 30.1226L60.7756 29.0876C60.4997 29.0022 60.1624 28.9087 59.7566 28.8126C59.179 28.6702 58.5427 28.583 57.8664 28.5519L57.4303 28.5314V25.7762H56.3375V28.5608L55.9513 28.6195C54.7587 28.8019 53.8475 29.2318 53.2387 29.8983C52.6283 30.5694 52.3292 31.413 52.3292 32.4791C52.3292 33.0629 52.4298 33.5569 52.63 33.9431C52.8356 34.3444 53.1044 34.6906 53.4283 34.9727C53.7691 35.2664 54.1589 35.5192 54.5897 35.7203C55.0542 35.941 55.5223 36.1377 55.9949 36.3121C56.4959 36.4981 56.988 36.6876 57.4713 36.8888C57.9776 37.0997 58.4279 37.3417 58.8088 37.6043C59.2191 37.8855 59.5519 38.2192 59.8002 38.5983C60.0663 39.0023 60.2007 39.4856 60.2007 40.0356C60.2007 40.8054 59.8928 41.4452 59.2841 41.9391C58.6976 42.4161 57.7498 42.6475 56.39 42.6475C55.355 42.6475 54.4669 42.5398 53.7513 42.3325C53.2512 42.1865 52.8107 42.0335 52.4182 41.8733L52.0925 42.8753C52.3969 43.0106 52.7902 43.1548 53.2681 43.3061C53.9409 43.5152 54.8246 43.6389 55.8979 43.6683L56.341 43.6807V46.7884H56.3375Z" fill="#4A73CF"/>
</g>
<defs>
<clipPath id="clip0_1186_544">
<rect width="113" height="113" fill="white"/>
</clipPath>
</defs>
</svg>
