<svg width="21" height="20" viewBox="0 0 21 20" fill="none" xmlns="http://www.w3.org/2000/svg">
<path d="M19.002 0.300781H1.0332C0.636248 0.300781 0.314453 0.608585 0.314453 0.988281V14.9961C0.314453 15.3758 0.636248 15.6836 1.0332 15.6836H19.002C19.3989 15.6836 19.7207 15.3758 19.7207 14.9961V0.988281C19.7207 0.608585 19.3989 0.300781 19.002 0.300781Z" fill="white"/>
<path d="M19.7207 0.988281V14.5664H2.11133C1.92088 14.5659 1.73839 14.4933 1.60372 14.3644C1.46905 14.2356 1.39315 14.0611 1.39258 13.8789V0.300781H19.002C19.1924 0.301325 19.3749 0.373933 19.5096 0.502746C19.6442 0.63156 19.7201 0.806112 19.7207 0.988281Z" fill="white"/>
<path d="M19.7207 0.988281V3.39453H0.314453V0.988281C0.315022 0.806112 0.39093 0.63156 0.525598 0.502746C0.660267 0.373933 0.842754 0.301325 1.0332 0.300781H19.002C19.1924 0.301325 19.3749 0.373933 19.5096 0.502746C19.6442 0.63156 19.7201 0.806112 19.7207 0.988281Z" fill="white"/>
<path d="M19.7204 0.988281V2.36328H1.38867V0.300781H19.0016C19.1921 0.301325 19.3746 0.373933 19.5092 0.502746C19.6439 0.63156 19.7198 0.806112 19.7204 0.988281Z" fill="white"/>
<path d="M15.2105 1.84705C15.2103 2.03871 15.1508 2.22604 15.0394 2.38534C14.928 2.54465 14.7697 2.66879 14.5845 2.74208C14.3994 2.81536 14.1957 2.8345 13.9991 2.79707C13.8026 2.75965 13.6221 2.66734 13.4804 2.53181C13.3387 2.39628 13.2422 2.22362 13.2031 2.03564C13.164 1.84767 13.184 1.65281 13.2606 1.47571C13.3372 1.29861 13.467 1.14721 13.6335 1.04064C13.8001 0.93407 13.9959 0.877119 14.1963 0.876983C14.3298 0.875976 14.4621 0.90038 14.5857 0.948773C14.7092 0.997167 14.8214 1.06858 14.9158 1.15886C15.0102 1.24914 15.0848 1.35648 15.1354 1.47463C15.186 1.59278 15.2115 1.71937 15.2105 1.84705Z" fill="white"/>
<path d="M15.2105 1.84702C15.2107 2.01699 15.1638 2.18399 15.0747 2.33102C14.9522 2.38007 14.8207 2.4052 14.688 2.40492C14.5548 2.40492 14.4229 2.37982 14.2998 2.33105C14.1767 2.28228 14.0649 2.21079 13.9707 2.12068C13.8766 2.03056 13.8019 1.92358 13.7509 1.80585C13.7 1.68812 13.6738 1.56194 13.6738 1.43452C13.6732 1.26448 13.7201 1.09738 13.8097 0.950517C13.9322 0.901741 14.0636 0.876736 14.1964 0.876955C14.4653 0.877046 14.7232 0.979278 14.9134 1.16118C15.1035 1.34308 15.2104 1.58977 15.2105 1.84702Z" fill="white"/>
<path d="M14.1958 3.11982C13.8891 3.11829 13.5924 3.0154 13.356 2.82859C13.1195 2.64177 12.9578 2.38251 12.8983 2.09473C12.8388 1.80695 12.8851 1.50834 13.0295 1.24949C13.1738 0.990639 13.4072 0.787462 13.6902 0.67438C13.8503 0.610388 14.0222 0.577664 14.1958 0.57813C14.5389 0.591354 14.8634 0.73103 15.1012 0.967913C15.3391 1.2048 15.472 1.52052 15.472 1.84897C15.472 2.17743 15.3391 2.49315 15.1012 2.73003C14.8634 2.96692 14.5389 3.10659 14.1958 3.11982ZM14.1958 1.17969C14.1057 1.17937 14.0164 1.1962 13.9331 1.22919C13.8301 1.26945 13.7386 1.33266 13.6662 1.41355C13.5938 1.49445 13.5427 1.5907 13.517 1.6943C13.4914 1.79791 13.492 1.90587 13.5187 2.00922C13.5455 2.11257 13.5976 2.20832 13.6708 2.28851C13.7441 2.3687 13.8362 2.43101 13.9397 2.47027C14.0432 2.50953 14.1549 2.52459 14.2657 2.51422C14.3765 2.50384 14.4831 2.46832 14.5766 2.41061C14.6702 2.3529 14.7479 2.27466 14.8035 2.18241C14.8655 2.08105 14.898 1.9657 14.8977 1.84829C14.8976 1.76023 14.8793 1.67306 14.844 1.59174C14.8087 1.51043 14.757 1.43657 14.6918 1.37438C14.6266 1.3122 14.5493 1.26291 14.4642 1.22932C14.3791 1.19574 14.2879 1.17853 14.1958 1.17866V1.17969Z" fill="#4A73CF"/>
<path d="M18.2554 1.849C18.2552 2.04064 18.1957 2.22794 18.0843 2.38723C17.973 2.54652 17.8147 2.67066 17.6296 2.74397C17.4445 2.81727 17.2408 2.83645 17.0443 2.79908C16.8478 2.76171 16.6673 2.66947 16.5256 2.53401C16.3839 2.39855 16.2873 2.22595 16.2481 2.03802C16.2089 1.85009 16.2288 1.65526 16.3053 1.47815C16.3818 1.30103 16.5115 1.14958 16.6779 1.04293C16.8444 0.93628 17.0402 0.879214 17.2405 0.878942C17.3741 0.877843 17.5065 0.902179 17.6301 0.950532C17.7537 0.998884 17.866 1.07029 17.9604 1.16057C18.0549 1.25086 18.1296 1.35823 18.1803 1.47643C18.2309 1.59462 18.2564 1.72127 18.2554 1.849Z" fill="white"/>
<path d="M18.2554 1.84897C18.2556 2.01895 18.2088 2.18594 18.1196 2.33297C17.9973 2.38202 17.8659 2.40715 17.7333 2.40688C17.6 2.40692 17.4681 2.38185 17.345 2.3331C17.2219 2.28435 17.11 2.21287 17.0158 2.12275C16.9216 2.03263 16.8469 1.92564 16.7959 1.80788C16.7449 1.69013 16.7187 1.56392 16.7188 1.43647C16.718 1.26638 16.7651 1.09923 16.855 0.952469C16.9771 0.903784 17.1082 0.87878 17.2406 0.878907C17.3738 0.878862 17.5057 0.903917 17.6288 0.952643C17.7519 1.00137 17.8638 1.07281 17.958 1.16289C18.0523 1.25297 18.1271 1.35992 18.1781 1.47764C18.2291 1.59535 18.2554 1.72153 18.2554 1.84897Z" fill="white"/>
<path d="M17.2411 3.11992C16.9344 3.11847 16.6376 3.01564 16.4011 2.82885C16.1646 2.64206 16.0028 2.3828 15.9433 2.095C15.8837 1.8072 15.93 1.50856 16.0743 1.24967C16.2186 0.990784 16.4521 0.787579 16.7351 0.674484C16.8952 0.609615 17.0672 0.576183 17.2411 0.576172C17.5842 0.589396 17.9087 0.729072 18.1465 0.965955C18.3844 1.20284 18.5172 1.51856 18.5172 1.84702C18.5172 2.17547 18.3844 2.49119 18.1465 2.72808C17.9087 2.96496 17.5842 3.10464 17.2411 3.11786V3.11992ZM17.2411 1.1798C17.1502 1.17967 17.0602 1.19673 16.9762 1.22998C16.8156 1.29312 16.6853 1.41117 16.6107 1.56116C16.5361 1.71114 16.5226 1.88231 16.5727 2.04134C16.6228 2.20036 16.733 2.33585 16.8818 2.42142C17.0306 2.50699 17.2074 2.53651 17.3778 2.50424C17.5481 2.47196 17.6998 2.3802 17.8032 2.24682C17.9067 2.11345 17.9546 1.948 17.9375 1.78272C17.9205 1.61743 17.8397 1.46413 17.711 1.35268C17.5822 1.24122 17.4147 1.1796 17.2411 1.1798Z" fill="#4A73CF"/>
<path d="M12.1675 1.849C12.1674 2.04065 12.1078 2.22796 11.9964 2.38726C11.885 2.54656 11.7268 2.6707 11.5416 2.744C11.3565 2.81729 11.1528 2.83645 10.9563 2.79905C10.7598 2.76166 10.5793 2.66938 10.4376 2.53389C10.2959 2.39839 10.1993 2.22576 10.1602 2.03781C10.121 1.84985 10.141 1.65501 10.2175 1.47791C10.2941 1.3008 10.4238 1.14937 10.5903 1.04276C10.7568 0.936152 10.9526 0.879143 11.153 0.878939C11.2865 0.877886 11.4189 0.902256 11.5424 0.950629C11.666 0.999002 11.7783 1.07041 11.8727 1.1607C11.9671 1.25098 12.0418 1.35834 12.0924 1.47651C12.143 1.59468 12.1686 1.7213 12.1675 1.849Z" fill="white"/>
<path d="M12.1676 1.84897C12.1676 2.01898 12.1206 2.18597 12.0314 2.33297C11.909 2.38202 11.7777 2.40715 11.645 2.40688C11.5118 2.40688 11.3799 2.38177 11.2568 2.333C11.1338 2.28423 11.022 2.21275 10.9278 2.12263C10.8336 2.03252 10.7589 1.92554 10.708 1.8078C10.657 1.69007 10.6308 1.56389 10.6309 1.43647C10.6301 1.26642 10.677 1.09927 10.7667 0.95247C10.8891 0.903695 11.0204 0.878689 11.153 0.878908C11.422 0.878999 11.68 0.98122 11.8702 1.16311C12.0604 1.345 12.1674 1.59169 12.1676 1.84897Z" fill="white"/>
<path d="M11.1528 3.11982C10.8462 3.11829 10.5495 3.0154 10.313 2.82859C10.0765 2.64177 9.91485 2.38251 9.85535 2.09473C9.79584 1.80695 9.84217 1.50834 9.98648 1.24949C10.1308 0.99064 10.3642 0.787463 10.6472 0.674381C10.8073 0.610354 10.9793 0.577628 11.1528 0.578131C11.4959 0.591355 11.8204 0.73103 12.0583 0.967914C12.2962 1.2048 12.429 1.52052 12.429 1.84897C12.429 2.17743 12.2962 2.49315 12.0583 2.73004C11.8204 2.96692 11.4959 3.10659 11.1528 3.11982ZM11.1528 1.17969C11.0621 1.17936 10.9721 1.19643 10.8883 1.22988C10.7853 1.27014 10.6938 1.33335 10.6214 1.41424C10.5491 1.49514 10.4979 1.59139 10.4723 1.69499C10.4466 1.7986 10.4472 1.90656 10.4739 2.00991C10.5007 2.11326 10.5528 2.20901 10.6261 2.2892C10.6993 2.36939 10.7915 2.4317 10.8949 2.47096C10.9984 2.51021 11.1102 2.52528 11.2209 2.5149C11.3317 2.50453 11.4383 2.46901 11.5319 2.4113C11.6254 2.35359 11.7032 2.27535 11.7587 2.1831C11.8207 2.08172 11.8532 1.96638 11.8529 1.84897C11.8529 1.67132 11.7792 1.50092 11.6479 1.37523C11.5166 1.24955 11.3386 1.17884 11.1528 1.17866V1.17969Z" fill="#4A73CF"/>
<path d="M8.35511 15.9844H1.0332C0.759297 15.984 0.496719 15.8798 0.303038 15.6945C0.109357 15.5093 0.000380293 15.2581 0 14.9961V0.988281C0.000380293 0.726284 0.109357 0.475123 0.303038 0.289863C0.496719 0.104603 0.759297 0.000363759 1.0332 0H19.002C19.2759 0.000363759 19.5384 0.104603 19.7321 0.289863C19.9258 0.475123 20.0348 0.726284 20.0352 0.988281V5.02253C20.0352 5.1023 20.002 5.17881 19.9431 5.23522C19.8841 5.29162 19.8041 5.32331 19.7207 5.32331C19.6373 5.32331 19.5573 5.29162 19.4984 5.23522C19.4394 5.17881 19.4062 5.1023 19.4062 5.02253V0.988281C19.4061 0.885773 19.3634 0.787515 19.2876 0.715031C19.2118 0.642546 19.1091 0.601744 19.002 0.601562H1.0332C0.926035 0.601744 0.823311 0.642546 0.747532 0.715031C0.671753 0.787515 0.629096 0.885773 0.628906 0.988281V14.9961C0.629096 15.0986 0.671753 15.1969 0.747532 15.2693C0.823311 15.3418 0.926035 15.3826 1.0332 15.3828H8.35511C8.43851 15.3828 8.51849 15.4145 8.57746 15.4709C8.63643 15.5273 8.66956 15.6038 8.66956 15.6836C8.66956 15.7634 8.63643 15.8399 8.57746 15.8963C8.51849 15.9527 8.43851 15.9844 8.35511 15.9844Z" fill="#4A73CF"/>
<path d="M19.0027 15.9852H10.6777C10.5943 15.9852 10.5144 15.9535 10.4554 15.8971C10.3964 15.8407 10.3633 15.7641 10.3633 15.6844C10.3633 15.6046 10.3964 15.5281 10.4554 15.4717C10.5144 15.4153 10.5943 15.3836 10.6777 15.3836H19.0027C19.1098 15.3834 19.2125 15.3426 19.2883 15.2701C19.3641 15.1976 19.4068 15.0994 19.407 14.9969V6.60938C19.407 6.5296 19.4401 6.4531 19.4991 6.39669C19.558 6.34028 19.638 6.30859 19.7214 6.30859C19.8048 6.30859 19.8848 6.34028 19.9438 6.39669C20.0027 6.4531 20.0359 6.5296 20.0359 6.60938V14.9969C20.0355 15.2589 19.9265 15.51 19.7328 15.6953C19.5391 15.8806 19.2766 15.9848 19.0027 15.9852Z" fill="#4A73CF"/>
<path d="M7.45452 3.69531H0.314453C0.231055 3.69531 0.151073 3.66362 0.0921011 3.60722C0.0331297 3.55081 0 3.4743 0 3.39453C0 3.31476 0.0331297 3.23825 0.0921011 3.18185C0.151073 3.12544 0.231055 3.09375 0.314453 3.09375H7.45452C7.53791 3.09375 7.6179 3.12544 7.67687 3.18185C7.73584 3.23825 7.76897 3.31476 7.76897 3.39453C7.76897 3.4743 7.73584 3.55081 7.67687 3.60722C7.6179 3.66362 7.53791 3.69531 7.45452 3.69531Z" fill="#4A73CF"/>
<path d="M19.7204 3.69531H9.16016C9.07676 3.69531 8.99678 3.66362 8.9378 3.60722C8.87883 3.55081 8.8457 3.4743 8.8457 3.39453C8.8457 3.31476 8.87883 3.23825 8.9378 3.18185C8.99678 3.12544 9.07676 3.09375 9.16016 3.09375H19.7204C19.8038 3.09375 19.8838 3.12544 19.9427 3.18185C20.0017 3.23825 20.0348 3.31476 20.0348 3.39453C20.0348 3.4743 20.0017 3.55081 19.9427 3.60722C19.8838 3.66362 19.8038 3.69531 19.7204 3.69531Z" fill="#4A73CF"/>
<path d="M13.4211 9.12673L14.2186 8.07864C13.8722 7.49427 13.8319 7.43136 13.4855 6.85352L12.1321 6.99102C11.8259 6.82945 11.6085 6.70605 11.3102 6.53658L10.7542 5.34961H9.28078L8.73273 6.53658C8.42655 6.70605 8.21703 6.82945 7.9112 6.99102L6.55744 6.85352C6.20309 7.43136 6.17075 7.49323 5.81641 8.07864L6.62212 9.12673V10.0363L5.81641 11.0844C6.17075 11.6688 6.20309 11.7317 6.55744 12.3095L7.9112 12.172C8.21703 12.3336 8.42655 12.457 8.73273 12.6265L9.28078 13.8134H10.7542L11.3109 12.6254C11.6092 12.456 11.8266 12.3325 12.1328 12.171L13.4862 12.3085C13.7198 11.9156 13.8165 11.7612 13.9616 11.5223C14.026 11.4068 14.1054 11.2759 14.2193 11.0834L13.4219 10.0353L13.4211 9.12673ZM10.0211 11.4378C9.50641 11.4398 9.01195 11.2462 8.6465 10.8996C8.28104 10.5529 8.07453 10.0816 8.07238 9.58925C8.07024 9.09694 8.27264 8.62398 8.63506 8.27442C8.99748 7.92485 9.49024 7.72732 10.0049 7.72527H10.0211C10.5356 7.72581 11.0289 7.92156 11.3927 8.26955C11.7565 8.61755 11.9611 9.08938 11.9617 9.58152C11.9581 10.0728 11.7525 10.5429 11.3894 10.8903C11.0262 11.2377 10.5347 11.4343 10.0211 11.4378Z" fill="white"/>
<path d="M13.4223 10.0362L14.2198 11.0843C14.1069 11.2768 14.0264 11.4077 13.9621 11.5232C13.1243 11.3929 12.3375 11.0526 11.6819 10.537C11.8658 10.2493 11.9634 9.91868 11.964 9.58141C11.9634 9.08927 11.7588 8.61744 11.3949 8.26944C11.0311 7.92145 10.5379 7.7257 10.0233 7.72516H10.0072C9.86914 6.92663 9.95597 6.10735 10.2587 5.35156H10.7583L11.3121 6.5375C11.6103 6.70697 11.8278 6.83037 12.1339 6.99194L13.4874 6.85444C13.8338 7.43228 13.874 7.49416 14.2205 8.07956L13.423 9.12766L13.4223 10.0362Z" fill="white"/>
<path d="M10.7547 14.1139H9.28124C9.22029 14.1139 9.16065 14.0969 9.1096 14.065C9.05855 14.0332 9.01829 13.9878 8.99374 13.9344L8.48702 12.8368L8.28398 12.723C8.14023 12.6419 8.00474 12.566 7.84626 12.4824L6.59168 12.611C6.53155 12.6168 6.47094 12.606 6.41696 12.58C6.36298 12.5541 6.31787 12.5139 6.28693 12.4642C6.06951 12.1095 5.97284 11.9486 5.84921 11.7423L5.54482 11.2374C5.51415 11.1867 5.49961 11.1286 5.503 11.0702C5.50638 11.0117 5.52754 10.9555 5.56387 10.9084L6.30849 9.9397V9.22814L5.56135 8.25739C5.52502 8.21029 5.50386 8.15407 5.50048 8.09563C5.4971 8.03718 5.51163 7.97907 5.54231 7.92842L5.85245 7.4128C5.9732 7.21102 6.07023 7.0498 6.2837 6.7002C6.31478 6.65065 6.3599 6.61054 6.41384 6.5845C6.46777 6.55846 6.52831 6.54757 6.58845 6.55308L7.84302 6.68198C8.00151 6.59639 8.13663 6.52077 8.28074 6.4393L8.48379 6.32586L8.99051 5.22827C9.01506 5.1749 9.05531 5.12952 9.10636 5.09765C9.15741 5.06579 9.21705 5.04883 9.27801 5.04883H10.7514C10.8122 5.0488 10.8717 5.06559 10.9227 5.09719C10.9737 5.12879 11.0141 5.17383 11.0389 5.22689L11.5539 6.32689C11.7796 6.45477 11.9643 6.55892 12.1951 6.68233L13.4496 6.55342C13.5104 6.5472 13.5717 6.55803 13.6262 6.58458C13.6806 6.61113 13.7258 6.65226 13.7562 6.70295L14.0272 7.1543C14.1652 7.38392 14.2607 7.54273 14.49 7.9298C14.5198 7.98006 14.5338 8.03745 14.5303 8.09512C14.5269 8.15279 14.5062 8.20829 14.4706 8.25498L13.7332 9.22436V9.9373L14.4739 10.9077C14.5092 10.9542 14.5299 11.0095 14.5335 11.067C14.5371 11.1244 14.5234 11.1816 14.494 11.2319L14.375 11.4333C14.3215 11.523 14.2773 11.5973 14.2388 11.666L14.1152 11.8695C14.0214 12.0232 13.9251 12.181 13.7598 12.4587C13.7292 12.5094 13.684 12.5506 13.6295 12.5773C13.5751 12.604 13.5137 12.6151 13.4529 12.6093L12.1983 12.4807C11.9676 12.6038 11.7829 12.7083 11.5572 12.8361L11.0422 13.9361C11.0173 13.9891 10.9769 14.0341 10.9259 14.0656C10.8749 14.0972 10.8154 14.1139 10.7547 14.1139ZM9.48537 13.5123H10.5509L11.0239 12.5041C11.0502 12.4475 11.0943 12.4002 11.15 12.3686C11.4512 12.1968 11.6711 12.0723 11.9801 11.909C12.0369 11.8795 12.1016 11.867 12.1659 11.873L13.3159 11.9909C13.4238 11.81 13.4992 11.6873 13.5729 11.5667L13.6904 11.3738C13.7264 11.3102 13.772 11.2319 13.8288 11.137L13.8467 11.106L13.1682 10.2144C13.1291 10.163 13.108 10.1009 13.1082 10.0373V9.12777C13.1081 9.06416 13.1291 9.00217 13.1682 8.95073L13.8467 8.05905C13.6872 7.78989 13.6016 7.64655 13.4874 7.45577L13.3181 7.17389L12.1681 7.29214C12.1038 7.29813 12.0391 7.28556 11.9823 7.25605C11.6732 7.09242 11.4533 6.96798 11.1522 6.79645C11.0955 6.76509 11.0506 6.71747 11.0239 6.66033L10.5509 5.65142H9.48537L9.02034 6.66033C8.9933 6.71819 8.94774 6.76634 8.89024 6.79783L8.60274 6.95939C8.42845 7.05736 8.26709 7.14811 8.06368 7.2557C8.00674 7.28511 7.94194 7.29767 7.87752 7.2918L6.72752 7.17355C6.58377 7.41108 6.50004 7.54892 6.40085 7.71358L6.19277 8.05733L6.87559 8.9473C6.91519 8.99907 6.93659 9.06155 6.93668 9.1257V10.0346C6.93659 10.0987 6.91519 10.1612 6.87559 10.213L6.19277 11.103L6.39546 11.4391C6.49681 11.6079 6.57982 11.7468 6.72752 11.9891L7.87752 11.8712C7.94184 11.8651 8.0066 11.8777 8.06332 11.9073C8.26673 12.0146 8.42809 12.1057 8.60238 12.2036L8.88988 12.3652C8.94739 12.3967 8.99294 12.4448 9.01998 12.5027L9.48537 13.5123ZM10.0216 11.7399C9.57532 11.7399 9.1391 11.6133 8.76807 11.3762C8.39703 11.1391 8.10786 10.802 7.93711 10.4076C7.76635 10.0133 7.72169 9.57935 7.80878 9.16072C7.89586 8.74208 8.11078 8.35755 8.42634 8.05576C8.74191 7.75396 9.14395 7.54845 9.58162 7.46522C10.0193 7.38199 10.4729 7.42478 10.8852 7.58817C11.2975 7.75156 11.6498 8.02822 11.8977 8.38315C12.1455 8.73809 12.2778 9.15536 12.2777 9.5822C12.2745 10.1536 12.0358 10.7007 11.6133 11.1047C11.1909 11.5087 10.6189 11.7369 10.0216 11.7399ZM10.0216 8.02742C9.80585 8.02436 9.59166 8.06235 9.39145 8.13918C9.19123 8.21602 9.00899 8.33017 8.85532 8.47499C8.70164 8.61981 8.57961 8.79242 8.49632 8.98276C8.41302 9.17311 8.37012 9.3774 8.37012 9.58375C8.37012 9.7901 8.41302 9.99439 8.49632 10.1847C8.57961 10.3751 8.70164 10.5477 8.85532 10.6925C9.00899 10.8373 9.19123 10.9515 9.39145 11.0283C9.59166 11.1052 9.80585 11.1431 10.0216 11.1401C10.3014 11.1408 10.5766 11.0718 10.8201 10.9399C11.0636 10.8079 11.267 10.6176 11.4102 10.3876L11.4131 10.3828C11.5672 10.1418 11.6488 9.86474 11.6488 9.5822C11.6483 9.16953 11.4767 8.7739 11.1717 8.48209C10.8666 8.19029 10.453 8.02616 10.0216 8.0257V8.02742Z" fill="#4A73CF"/>
<path d="M4.65067 1.63281H2.4707C2.3873 1.63281 2.30732 1.60112 2.24835 1.54472C2.18938 1.48831 2.15625 1.4118 2.15625 1.33203C2.15625 1.25226 2.18938 1.17575 2.24835 1.11935C2.30732 1.06294 2.3873 1.03125 2.4707 1.03125H4.65067C4.73407 1.03125 4.81405 1.06294 4.87302 1.11935C4.932 1.17575 4.96512 1.25226 4.96512 1.33203C4.96512 1.4118 4.932 1.48831 4.87302 1.54472C4.81405 1.60112 4.73407 1.63281 4.65067 1.63281Z" fill="white"/>
<path d="M15.8408 14.3761L17.2312 13.0462L10.8477 11.4082L12.5601 17.5142L13.9505 16.1843L16.7518 18.8638L18.6421 17.0557L15.8408 14.3761Z" fill="white"/>
<path d="M10.8477 11.4082L17.697 17.9597L18.6421 17.0557L15.8408 14.3761L17.2312 13.0462L10.8477 11.4082Z" fill="white"/>
<path d="M16.7518 19.1646C16.7105 19.1646 16.6696 19.1569 16.6314 19.1418C16.5932 19.1267 16.5585 19.1045 16.5294 19.0766L16.0402 18.6087C15.9812 18.5522 15.9481 18.4756 15.9482 18.3957C15.9483 18.3158 15.9815 18.2392 16.0406 18.1828C16.0997 18.1264 16.1798 18.0947 16.2633 18.0948C16.3468 18.0948 16.4269 18.1266 16.4859 18.1832L16.7529 18.4386L18.1986 17.0557L15.6194 14.5889C15.5606 14.5324 15.5275 14.4559 15.5275 14.3761C15.5275 14.2964 15.5606 14.2198 15.6194 14.1633L16.6282 13.1988L11.2922 11.8334L12.7196 16.9364L13.728 15.9715C13.7572 15.9435 13.7918 15.9213 13.83 15.9062C13.8681 15.8911 13.909 15.8833 13.9503 15.8833C13.9916 15.8833 14.0325 15.8911 14.0706 15.9062C14.1088 15.9213 14.1434 15.9435 14.1726 15.9715L15.5961 17.3331C15.6253 17.361 15.6484 17.3941 15.6643 17.4306C15.6801 17.4671 15.6882 17.5062 15.6883 17.5457C15.6883 17.5852 15.6802 17.6243 15.6644 17.6608C15.6486 17.6973 15.6254 17.7305 15.5962 17.7584C15.567 17.7864 15.5324 17.8086 15.4942 17.8237C15.4561 17.8388 15.4152 17.8466 15.3739 17.8466C15.3326 17.8467 15.2917 17.8389 15.2536 17.8238C15.2154 17.8087 15.1807 17.7865 15.1515 17.7586L13.9505 16.6095L12.7789 17.7301C12.7398 17.7673 12.6912 17.7941 12.6379 17.8077C12.5847 17.8213 12.5286 17.8213 12.4753 17.8077C12.422 17.794 12.3734 17.7672 12.3344 17.73C12.2953 17.6927 12.2672 17.6463 12.2528 17.5953L10.544 11.4862C10.5296 11.4352 10.5296 11.3815 10.5439 11.3304C10.5582 11.2794 10.5863 11.2329 10.6253 11.1955C10.6644 11.1582 10.713 11.1313 10.7664 11.1176C10.8197 11.104 10.8759 11.104 10.9292 11.1177L17.316 12.7522C17.3694 12.7659 17.4181 12.7927 17.4572 12.8301C17.4963 12.8675 17.5244 12.914 17.5386 12.9651C17.5529 13.0162 17.5529 13.0699 17.5385 13.121C17.5242 13.172 17.496 13.2185 17.4569 13.2558L16.2853 14.3761L18.8646 16.8429C18.9235 16.8993 18.9566 16.9759 18.9566 17.0557C18.9566 17.1354 18.9235 17.212 18.8646 17.2684L16.9739 19.0766C16.9448 19.1045 16.9102 19.1267 16.8721 19.1418C16.8339 19.1569 16.7931 19.1647 16.7518 19.1646Z" fill="#4A73CF"/>
<path d="M14.8231 13.7121C14.7989 13.7122 14.7747 13.7096 14.7512 13.7042L13.9444 13.5258C13.9016 13.5195 13.8606 13.5048 13.8241 13.4827C13.7875 13.4606 13.7561 13.4314 13.7318 13.3972C13.7075 13.3629 13.6909 13.3242 13.683 13.2835C13.6751 13.2428 13.6761 13.2009 13.6859 13.1606C13.6956 13.1203 13.714 13.0823 13.7398 13.0491C13.7656 13.0158 13.7984 12.9881 13.8359 12.9675C13.8735 12.9469 13.9151 12.934 13.9581 12.9295C14.0011 12.925 14.0447 12.9291 14.086 12.9414L14.8931 13.1198C14.9686 13.1363 15.0351 13.1789 15.0798 13.2394C15.1246 13.2999 15.1444 13.374 15.1355 13.4476C15.1266 13.5212 15.0896 13.5891 15.0316 13.6382C14.9736 13.6873 14.8987 13.7143 14.8213 13.7138L14.8231 13.7121Z" fill="white"/>
<path d="M6.5572 7.15488C6.48857 7.1551 6.42176 7.13372 6.36709 7.09403L4.38298 5.65234H2.4668C2.3834 5.65234 2.30342 5.62065 2.24444 5.56425C2.18547 5.50784 2.15234 5.43133 2.15234 5.35156C2.15234 5.27179 2.18547 5.19529 2.24444 5.13888C2.30342 5.08247 2.3834 5.05078 2.4668 5.05078H4.489C4.55764 5.05085 4.62438 5.07234 4.67911 5.11197L6.74731 6.6145C6.79976 6.65258 6.8384 6.70544 6.85776 6.76564C6.87712 6.82584 6.87624 6.89033 6.85524 6.95002C6.83424 7.00972 6.79418 7.0616 6.74071 7.09835C6.68723 7.13511 6.62305 7.15488 6.5572 7.15488Z" fill="#4A73CF"/>
<path d="M6.62117 9.88281H2.4668C2.3834 9.88281 2.30342 9.85112 2.24445 9.79472C2.18547 9.73831 2.15234 9.6618 2.15234 9.58203C2.15234 9.50226 2.18547 9.42575 2.24445 9.36935C2.30342 9.31294 2.3834 9.28125 2.4668 9.28125H6.62117C6.70457 9.28125 6.78455 9.31294 6.84352 9.36935C6.90249 9.42575 6.93562 9.50226 6.93562 9.58203C6.93562 9.6618 6.90249 9.73831 6.84352 9.79472C6.78455 9.85112 6.70457 9.88281 6.62117 9.88281Z" fill="#4A73CF"/>
<path d="M18.2568 5.65234H15.2129C15.1295 5.65234 15.0495 5.62065 14.9905 5.56425C14.9316 5.50784 14.8984 5.43133 14.8984 5.35156C14.8984 5.27179 14.9316 5.19529 14.9905 5.13888C15.0495 5.08247 15.1295 5.05078 15.2129 5.05078H18.2568C18.3402 5.05078 18.4202 5.08247 18.4791 5.13888C18.5381 5.19529 18.5713 5.27179 18.5713 5.35156C18.5713 5.43133 18.5381 5.50784 18.4791 5.56425C18.4202 5.62065 18.3402 5.65234 18.2568 5.65234Z" fill="#4A73CF"/>
<path d="M18.2568 7.76758H15.2129C15.1295 7.76758 15.0495 7.73589 14.9905 7.67948C14.9316 7.62307 14.8984 7.54657 14.8984 7.4668C14.8984 7.38702 14.9316 7.31052 14.9905 7.25411C15.0495 7.1977 15.1295 7.16602 15.2129 7.16602H18.2568C18.3402 7.16602 18.4202 7.1977 18.4791 7.25411C18.5381 7.31052 18.5713 7.38702 18.5713 7.4668C18.5713 7.54657 18.5381 7.62307 18.4791 7.67948C18.4202 7.73589 18.3402 7.76758 18.2568 7.76758Z" fill="#4A73CF"/>
<path d="M18.2568 9.88281H15.2129C15.1295 9.88281 15.0495 9.85112 14.9905 9.79472C14.9316 9.73831 14.8984 9.6618 14.8984 9.58203C14.8984 9.50226 14.9316 9.42575 14.9905 9.36935C15.0495 9.31294 15.1295 9.28125 15.2129 9.28125H18.2568C18.3402 9.28125 18.4202 9.31294 18.4791 9.36935C18.5381 9.42575 18.5713 9.50226 18.5713 9.58203C18.5713 9.6618 18.5381 9.73831 18.4791 9.79472C18.4202 9.85112 18.3402 9.88281 18.2568 9.88281Z" fill="#4A73CF"/>
<path d="M4.489 14.114H2.4668C2.3834 14.114 2.30342 14.0823 2.24444 14.0259C2.18547 13.9695 2.15234 13.893 2.15234 13.8132C2.15234 13.7334 2.18547 13.6569 2.24444 13.6005C2.30342 13.5441 2.3834 13.5124 2.4668 13.5124H4.38298L6.36709 12.0707C6.43381 12.0225 6.51783 12.0016 6.60066 12.0126C6.68349 12.0237 6.75835 12.0657 6.80877 12.1295C6.85919 12.1933 6.88104 12.2737 6.86951 12.3529C6.85799 12.4322 6.81403 12.5038 6.74731 12.552L4.67911 14.0545C4.62416 14.0935 4.55743 14.1144 4.489 14.114Z" fill="#4A73CF"/>
</svg>
