<svg width="22" height="22" viewBox="0 0 22 22" fill="none" xmlns="http://www.w3.org/2000/svg">
<path d="M8.62735 0.339844H17.4242C17.7928 0.339844 18.1463 0.484303 18.4069 0.741442C18.6676 0.998581 18.814 1.34734 18.814 1.71099V4.55293C18.814 4.91658 18.6676 5.26534 18.4069 5.52247C18.1463 5.77961 17.7928 5.92407 17.4242 5.92407H10.0167C9.64815 5.92407 9.29465 5.77961 9.03401 5.52247C8.77338 5.26534 8.62695 4.91658 8.62695 4.55293L8.62735 0.339844Z" fill="white"/>
<path d="M17.423 6.26357H10.0155C9.55506 6.26357 9.11344 6.0831 8.78783 5.76186C8.46222 5.44062 8.2793 5.00492 8.2793 4.55062V0.340644C8.2793 0.2503 8.31567 0.163655 8.38043 0.0997723C8.44518 0.0358891 8.533 0 8.62457 0H11.1524C11.244 2.69247e-09 11.3318 0.0358891 11.3965 0.0997723C11.4613 0.163655 11.4977 0.2503 11.4977 0.340644C11.4977 0.430989 11.4613 0.517633 11.3965 0.581516C11.3318 0.645399 11.244 0.681288 11.1524 0.681288H8.97143V4.55179C8.97185 4.8249 9.08197 5.08671 9.27768 5.27987C9.47339 5.47302 9.73872 5.58177 10.0155 5.58228H17.423C17.6999 5.58197 17.9654 5.4733 18.1612 5.28012C18.3571 5.08693 18.4672 4.825 18.4675 4.55179V1.71179C18.4673 1.43854 18.3572 1.17655 18.1614 0.983342C17.9655 0.790131 17.7 0.681495 17.423 0.681288H13.0011C12.9095 0.681288 12.8217 0.645399 12.757 0.581516C12.6922 0.517633 12.6558 0.430989 12.6558 0.340644C12.6558 0.2503 12.6922 0.163655 12.757 0.0997723C12.8217 0.0358891 12.9095 2.69247e-09 13.0011 0H17.423C17.8835 0 18.3251 0.180471 18.6507 0.501713C18.9763 0.822954 19.1593 1.25865 19.1593 1.71295V4.5549C19.1581 5.00846 18.9747 5.44306 18.6492 5.76337C18.3237 6.08369 17.8827 6.26357 17.423 6.26357Z" fill="#4A73CF"/>
<path d="M18.8111 4.44822V12.6829C18.8101 13.0462 18.6633 13.3944 18.4029 13.6513C18.1425 13.9082 17.7896 14.053 17.4214 14.054H6.30464C5.93623 14.0532 5.58313 13.9085 5.32255 13.6515C5.06197 13.3946 4.9151 13.0463 4.91406 12.6829V1.71295C4.9151 1.34948 5.06197 1.0012 5.32255 0.744266C5.58313 0.487328 5.93623 0.342629 6.30464 0.341807H8.62529C8.92431 0.340641 9.21545 0.436384 9.45395 0.614323L11.4968 2.80145C11.7348 2.97901 12.0251 3.07474 12.3235 3.07397H17.4214C17.6041 3.07392 17.7851 3.10945 17.954 3.17853C18.1228 3.24762 18.2762 3.34889 18.4053 3.47655C18.5344 3.60421 18.6367 3.75576 18.7064 3.92249C18.776 4.08923 18.8116 4.26789 18.8111 4.44822Z" fill="white"/>
<path d="M18.8102 4.44823V12.2908H18.706C12.1257 12.2908 6.78907 8.04737 6.78907 2.80301C6.78798 1.96598 6.92649 1.13447 7.19906 0.341807H8.62357C8.92259 0.340641 9.21373 0.436384 9.45224 0.614323L11.4951 2.80145C11.733 2.97901 12.0234 3.07474 12.3218 3.07397H17.4204C17.6032 3.07392 17.7842 3.10945 17.9531 3.17853C18.1219 3.24762 18.2753 3.34889 18.4044 3.47655C18.5335 3.60422 18.6358 3.75576 18.7054 3.92249C18.7751 4.08923 18.8107 4.26789 18.8102 4.44823Z" fill="white"/>
<path d="M17.4213 14.3931H6.30461C5.84413 14.3931 5.4025 14.2126 5.07689 13.8914C4.75128 13.5701 4.56836 13.1344 4.56836 12.6801V1.71295C4.56836 1.25865 4.75128 0.822954 5.07689 0.501713C5.4025 0.180471 5.84413 0 6.30461 0H8.62526C8.9996 0.000104197 9.36363 0.120961 9.66188 0.344148C9.67768 0.355888 9.69247 0.36891 9.70607 0.383079L11.7272 2.54646C11.9007 2.66891 12.1086 2.73467 12.3219 2.7345H17.4213C17.8818 2.7345 18.3234 2.91497 18.649 3.23621C18.9746 3.55745 19.1576 3.99315 19.1576 4.44745V7.72931C19.1576 7.81966 19.1212 7.9063 19.0564 7.97019C18.9917 8.03407 18.9039 8.06996 18.8123 8.06996C18.7207 8.06996 18.6329 8.03407 18.5681 7.97019C18.5034 7.9063 18.467 7.81966 18.467 7.72931V4.44745C18.4667 4.17407 18.3564 3.91201 18.1603 3.71885C17.9642 3.52569 17.6984 3.41724 17.4213 3.41734H12.3211C11.9469 3.41732 11.5829 3.29645 11.2849 3.07319C11.2689 3.06145 11.254 3.04843 11.2403 3.03426L9.21953 0.870102C9.04577 0.748047 8.83777 0.682457 8.62447 0.682456H6.30461C6.02768 0.682765 5.76219 0.791435 5.56637 0.984623C5.37056 1.17781 5.26041 1.43974 5.2601 1.71295V12.6829C5.26083 12.9558 5.37116 13.2173 5.56693 13.4102C5.7627 13.603 6.02795 13.7115 6.30461 13.7118H17.4213C17.698 13.7116 17.9633 13.6032 18.1591 13.4103C18.3549 13.2174 18.4652 12.9558 18.4658 12.6829V9.19467C18.4658 9.10432 18.5022 9.01768 18.567 8.9538C18.6317 8.88991 18.7195 8.85402 18.8111 8.85402C18.9027 8.85402 18.9905 8.88991 19.0553 8.9538C19.12 9.01768 19.1564 9.10432 19.1564 9.19467V12.6829C19.1557 13.1365 18.9726 13.5713 18.6473 13.8919C18.322 14.2126 17.8811 14.3928 17.4213 14.3931Z" fill="#4A73CF"/>
<path d="M8.17065 4.89453H0.792787C0.545869 4.89453 0.345703 5.09201 0.345703 5.33562V16.3643C0.345703 16.6079 0.545869 16.8054 0.792787 16.8054H8.17065C8.41757 16.8054 8.61774 16.6079 8.61774 16.3643V5.33562C8.61774 5.09201 8.41757 4.89453 8.17065 4.89453Z" fill="#CFD8DC"/>
<path d="M8.1688 4.89453H1.07031V15.7025C1.07021 15.8197 1.11721 15.9321 1.20102 16.0152C1.28484 16.0982 1.39861 16.1451 1.5174 16.1455H8.61588V5.33601C8.61568 5.21905 8.56852 5.10694 8.48473 5.0242C8.40094 4.94146 8.28735 4.89484 8.1688 4.89453Z" fill="#F5F5F5"/>
<path d="M8.17023 17.1465H0.79236C0.582277 17.1462 0.380859 17.0638 0.232308 16.9173C0.0837567 16.7707 0.000208934 16.572 0 16.3647V5.33603C0.000313351 5.12883 0.083907 4.93021 0.232447 4.78374C0.380987 4.63727 0.582345 4.55489 0.79236 4.55469H1.95407C2.04564 4.55469 2.13346 4.59058 2.19821 4.65446C2.26297 4.71834 2.29934 4.80499 2.29934 4.89533C2.29934 4.98568 2.26297 5.07232 2.19821 5.1362C2.13346 5.20009 2.04564 5.23598 1.95407 5.23598H0.79236C0.765522 5.23628 0.739863 5.2469 0.720848 5.26559C0.701832 5.28428 0.690962 5.30955 0.690553 5.33603V16.3647C0.69086 16.3913 0.701685 16.4166 0.720711 16.4354C0.739738 16.4542 0.765455 16.4649 0.79236 16.4652H8.17141C8.19832 16.4649 8.22403 16.4542 8.24306 16.4354C8.26209 16.4166 8.27291 16.3913 8.27322 16.3647V5.33603C8.27281 5.30955 8.26194 5.28428 8.24292 5.26559C8.22391 5.2469 8.19825 5.23628 8.17141 5.23598H3.59403C3.50246 5.23598 3.41464 5.20009 3.34988 5.1362C3.28513 5.07232 3.24876 4.98568 3.24876 4.89533C3.24876 4.80499 3.28513 4.71834 3.34988 4.65446C3.41464 4.59058 3.50246 4.55469 3.59403 4.55469H8.17141C8.38142 4.55489 8.58278 4.63727 8.73132 4.78374C8.87986 4.93021 8.96346 5.12883 8.96377 5.33603V16.3647C8.96356 16.5722 8.87985 16.7711 8.73104 16.9177C8.58224 17.0643 8.38051 17.1466 8.17023 17.1465Z" fill="#4A73CF"/>
<path d="M9.73315 6.37109H2.35529C2.10837 6.37109 1.9082 6.56857 1.9082 6.81218V17.8409C1.9082 18.0845 2.10837 18.282 2.35529 18.282H9.73315C9.98007 18.282 10.1802 18.0845 10.1802 17.8409V6.81218C10.1802 6.56857 9.98007 6.37109 9.73315 6.37109Z" fill="#CFD8DC"/>
<path d="M9.73248 6.375H2.63281V17.1814C2.63312 17.2983 2.68033 17.4103 2.76411 17.493C2.84788 17.5756 2.96142 17.6222 3.0799 17.6225H10.18V6.81492C10.1792 6.6982 10.1318 6.58648 10.048 6.50409C9.96419 6.4217 9.85079 6.37531 9.73248 6.375Z" fill="#F5F5F5"/>
<path d="M9.7331 18.6246H2.35721C2.14709 18.6244 1.94563 18.542 1.79702 18.3954C1.6484 18.2489 1.56477 18.0501 1.56445 17.8428V15.3653C1.56445 15.2749 1.60083 15.1883 1.66558 15.1244C1.73033 15.0605 1.81816 15.0246 1.90973 15.0246C2.0013 15.0246 2.08913 15.0605 2.15388 15.1244C2.21863 15.1883 2.25501 15.2749 2.25501 15.3653V17.8428C2.25542 17.8694 2.26633 17.8948 2.28542 17.9136C2.30451 17.9323 2.33027 17.943 2.35721 17.9433H9.73626C9.76323 17.9431 9.78905 17.9324 9.80816 17.9137C9.82727 17.8949 9.83815 17.8695 9.83846 17.8428V12.0281C9.83846 11.9378 9.87484 11.8512 9.93959 11.7873C10.0043 11.7234 10.0922 11.6875 10.1837 11.6875C10.2753 11.6875 10.3631 11.7234 10.4279 11.7873C10.4926 11.8512 10.529 11.9378 10.529 12.0281V17.8428C10.5289 17.9458 10.5081 18.0476 10.468 18.1426C10.4279 18.2376 10.3693 18.3239 10.2953 18.3965C10.2214 18.4691 10.1337 18.5266 10.0372 18.5658C9.94076 18.6049 9.83741 18.6249 9.7331 18.6246Z" fill="#4A73CF"/>
<path d="M1.90778 14.2172C1.8162 14.2172 1.72838 14.1813 1.66363 14.1175C1.59888 14.0536 1.5625 13.9669 1.5625 13.8766V6.81454C1.56266 6.71178 1.58332 6.61006 1.62333 6.51518C1.66333 6.4203 1.72188 6.33412 1.79565 6.26157C1.86941 6.18902 1.95693 6.1315 2.05322 6.09232C2.14951 6.05314 2.25268 6.03305 2.35683 6.0332H9.73588C9.94535 6.03423 10.1459 6.11697 10.2938 6.26335C10.4416 6.40974 10.5248 6.60789 10.5251 6.81454V10.6422C10.5251 10.7326 10.4887 10.8192 10.424 10.8831C10.3592 10.947 10.2714 10.9829 10.1798 10.9829C10.0882 10.9829 10.0004 10.947 9.93566 10.8831C9.87091 10.8192 9.83453 10.7326 9.83453 10.6422V6.81454C9.83412 6.788 9.8232 6.76267 9.8041 6.74397C9.785 6.72527 9.75924 6.71469 9.73233 6.71449H2.35683C2.32996 6.71479 2.30426 6.7254 2.28518 6.74408C2.2661 6.76276 2.25514 6.78803 2.25463 6.81454V13.8766C2.25463 13.9215 2.24565 13.9659 2.2282 14.0073C2.21075 14.0487 2.18517 14.0864 2.15294 14.118C2.12072 14.1497 2.08247 14.1747 2.04039 14.1917C1.99832 14.2088 1.95325 14.2174 1.90778 14.2172Z" fill="#4A73CF"/>
<path d="M8.8146 9.71441H3.29254C3.20097 9.71441 3.11315 9.67853 3.04839 9.61464C2.98364 9.55076 2.94727 9.46412 2.94727 9.37377V7.85041C2.94727 7.76007 2.98364 7.67342 3.04839 7.60954C3.11315 7.54565 3.20097 7.50977 3.29254 7.50977H8.8146C8.90617 7.50977 8.99399 7.54565 9.05874 7.60954C9.1235 7.67342 9.15987 7.76007 9.15987 7.85041V9.37377C9.15987 9.46412 9.1235 9.55076 9.05874 9.61464C8.99399 9.67853 8.90617 9.71441 8.8146 9.71441ZM3.63782 9.03313H8.46932V8.19105H3.63782V9.03313Z" fill="#4A73CF"/>
<path d="M8.8146 11.1344H3.29254C3.20097 11.1344 3.11315 11.0985 3.04839 11.0346C2.98364 10.9708 2.94727 10.8841 2.94727 10.7938C2.94727 10.7034 2.98364 10.6168 3.04839 10.5529C3.11315 10.489 3.20097 10.4531 3.29254 10.4531H8.8146C8.90617 10.4531 8.99399 10.489 9.05874 10.5529C9.1235 10.6168 9.15987 10.7034 9.15987 10.7938C9.15987 10.8841 9.1235 10.9708 9.05874 11.0346C8.99399 11.0985 8.90617 11.1344 8.8146 11.1344Z" fill="#4A73CF"/>
<path d="M8.8146 12.6481H3.29254C3.20097 12.6481 3.11315 12.6122 3.04839 12.5483C2.98364 12.4844 2.94727 12.3978 2.94727 12.3074C2.94727 12.2171 2.98364 12.1305 3.04839 12.0666C3.11315 12.0027 3.20097 11.9668 3.29254 11.9668H8.8146C8.90617 11.9668 8.99399 12.0027 9.05874 12.0666C9.1235 12.1305 9.15987 12.2171 9.15987 12.3074C9.15987 12.3978 9.1235 12.4844 9.05874 12.5483C8.99399 12.6122 8.90617 12.6481 8.8146 12.6481Z" fill="#4A73CF"/>
<path d="M8.8146 14.1598H3.29254C3.20097 14.1598 3.11315 14.1239 3.04839 14.06C2.98364 13.9961 2.94727 13.9095 2.94727 13.8192C2.94727 13.7288 2.98364 13.6422 3.04839 13.5783C3.11315 13.5144 3.20097 13.4785 3.29254 13.4785H8.8146C8.90617 13.4785 8.99399 13.5144 9.05874 13.5783C9.1235 13.6422 9.15987 13.7288 9.15987 13.8192C9.15987 13.9095 9.1235 13.9961 9.05874 14.06C8.99399 14.1239 8.90617 14.1598 8.8146 14.1598Z" fill="#4A73CF"/>
<path d="M8.8146 15.6696H3.29254C3.20097 15.6696 3.11315 15.6337 3.04839 15.5698C2.98364 15.5059 2.94727 15.4193 2.94727 15.3289C2.94727 15.2386 2.98364 15.1519 3.04839 15.0881C3.11315 15.0242 3.20097 14.9883 3.29254 14.9883H8.8146C8.90617 14.9883 8.99399 15.0242 9.05874 15.0881C9.1235 15.1519 9.15987 15.2386 9.15987 15.3289C9.15987 15.4193 9.1235 15.5059 9.05874 15.5698C8.99399 15.6337 8.90617 15.6696 8.8146 15.6696Z" fill="#4A73CF"/>
<path d="M6.2193 17.1813H3.29254C3.20097 17.1813 3.11315 17.1454 3.04839 17.0815C2.98364 17.0176 2.94727 16.931 2.94727 16.8406C2.94727 16.7503 2.98364 16.6637 3.04839 16.5998C3.11315 16.5359 3.20097 16.5 3.29254 16.5H6.2193C6.31088 16.5 6.3987 16.5359 6.46345 16.5998C6.5282 16.6637 6.56458 16.7503 6.56458 16.8406C6.56458 16.931 6.5282 17.0176 6.46345 17.0815C6.3987 17.1454 6.31088 17.1813 6.2193 17.1813Z" fill="#4A73CF"/>
<path d="M20.117 19.5522C20.0957 19.5717 20.0775 19.5892 20.0526 19.6067C19.2808 20.1907 16.7625 21.6595 16.7625 21.6595C16.7625 21.6595 14.2666 20.1654 13.4758 19.6067C12.0553 18.6027 11.5423 16.609 12.0655 14.863L12.7099 11.1256C13.0247 11.1161 13.3278 11.0056 13.5733 10.811C13.8187 10.6163 13.9933 10.3481 14.0705 10.0469H19.4568C19.534 10.3481 19.7085 10.6163 19.954 10.811C20.1995 11.0056 20.5026 11.1161 20.8174 11.1256L21.4618 14.863C21.7161 15.6896 21.7245 16.5709 21.4862 17.4021C21.2478 18.2333 20.7726 18.9796 20.117 19.5522Z" fill="white"/>
<path d="M20.1157 19.5526C16.8188 18.5482 14.9141 15.684 14.9141 12.3115C14.9127 11.541 15.0384 10.7755 15.2862 10.0449H19.4555C19.5327 10.3462 19.7073 10.6144 19.9528 10.809C20.1983 11.0037 20.5013 11.1141 20.8161 11.1237L21.4605 14.861C21.7153 15.688 21.724 16.5697 21.4856 17.4014C21.2472 18.2331 20.7717 18.9798 20.1157 19.5526Z" fill="white"/>
<path d="M16.7623 22.0002C16.6992 22 16.6373 21.9829 16.5832 21.9508C16.5832 21.9508 16.2281 21.7378 15.7423 21.4447C15.7037 21.4212 15.6701 21.3904 15.6436 21.3542C15.617 21.3179 15.598 21.2769 15.5875 21.2333C15.577 21.1898 15.5753 21.1447 15.5825 21.1005C15.5897 21.0563 15.6057 21.014 15.6294 20.9759C15.6532 20.9378 15.6844 20.9047 15.7211 20.8785C15.7579 20.8523 15.7995 20.8335 15.8436 20.8232C15.8877 20.8128 15.9335 20.8112 15.9783 20.8183C16.023 20.8254 16.0659 20.8411 16.1045 20.8646C16.3808 21.0328 16.6148 21.1737 16.7647 21.264C17.3499 20.9199 19.2132 19.815 19.8426 19.3385C19.8563 19.3277 19.8695 19.3163 19.8821 19.3042C20.4901 18.7744 20.931 18.0834 21.1526 17.3135C21.3741 16.5436 21.3669 15.7271 21.1318 14.9611C21.1278 14.9484 21.1248 14.9354 21.1227 14.9222L20.5209 11.4375C20.2323 11.382 19.9621 11.257 19.7342 11.0736C19.5063 10.8902 19.3279 10.6542 19.2148 10.3864H17.7615C17.6699 10.3864 17.5821 10.3505 17.5173 10.2866C17.4526 10.2227 17.4162 10.1361 17.4162 10.0457C17.4162 9.95538 17.4526 9.86873 17.5173 9.80485C17.5821 9.74097 17.6699 9.70508 17.7615 9.70508H19.4583C19.533 9.70521 19.6058 9.7292 19.6656 9.77348C19.7254 9.81776 19.7691 9.87994 19.7901 9.95073C19.8462 10.1811 19.9771 10.3872 20.1628 10.5375C20.3485 10.6878 20.5788 10.7742 20.8188 10.7835C20.9004 10.7835 20.9794 10.812 21.0417 10.864C21.104 10.9159 21.1457 10.9879 21.1594 11.0673L21.7982 14.7855C22.0656 15.6735 22.0703 16.6183 21.8116 17.5087C21.5529 18.3992 21.0417 19.1981 20.3382 19.8115C20.3145 19.8341 20.2895 19.8552 20.2632 19.875C19.4815 20.4694 17.0386 21.8924 16.9368 21.9527C16.8839 21.9834 16.8237 21.9998 16.7623 22.0002Z" fill="#4A73CF"/>
<path d="M14.4368 20.5784C14.3712 20.5784 14.307 20.5598 14.2518 20.5247C13.8055 20.2436 13.476 20.0283 13.2728 19.8847C11.7847 18.8336 11.1502 16.7395 11.7263 14.7871L12.3672 11.0673C12.3809 10.9879 12.4225 10.9159 12.4849 10.864C12.5472 10.812 12.6261 10.7835 12.7077 10.7835C12.9477 10.7739 13.1779 10.6874 13.3636 10.5371C13.5493 10.3869 13.6803 10.181 13.7368 9.95073C13.7577 9.8799 13.8013 9.81766 13.861 9.77336C13.9208 9.72906 13.9935 9.7051 14.0683 9.70508H15.9265C16.018 9.70508 16.1059 9.74097 16.1706 9.80485C16.2354 9.86873 16.2717 9.95538 16.2717 10.0457C16.2717 10.1361 16.2354 10.2227 16.1706 10.2866C16.1059 10.3505 16.018 10.3864 15.9265 10.3864H14.3086C14.1955 10.6542 14.0171 10.8902 13.7892 11.0736C13.5613 11.257 13.2911 11.382 13.0025 11.4375L12.4027 14.9199C12.4003 14.933 12.3971 14.946 12.3932 14.9588C11.8889 16.6433 12.4157 18.4404 13.6737 19.3292C13.867 19.4658 14.1867 19.6745 14.6207 19.9489C14.6838 19.9886 14.7321 20.0473 14.7584 20.1164C14.7848 20.1855 14.7876 20.2611 14.7666 20.3319C14.7456 20.4027 14.7019 20.4649 14.642 20.5091C14.5821 20.5532 14.5093 20.577 14.4345 20.5769L14.4368 20.5784Z" fill="#4A73CF"/>
<path d="M15.9821 17.9636C15.9368 17.9636 15.892 17.9548 15.8501 17.9377C15.8083 17.9206 15.7702 17.8955 15.7382 17.8639L14.0063 16.1584C13.9729 16.1271 13.9461 16.0895 13.9275 16.0478C13.909 16.0062 13.8991 15.9613 13.8985 15.9158C13.8978 15.8703 13.9064 15.8251 13.9237 15.783C13.9411 15.7408 13.9668 15.7025 13.9994 15.6703C14.032 15.6381 14.0707 15.6127 14.1134 15.5955C14.1562 15.5784 14.2019 15.5698 14.248 15.5704C14.2941 15.5709 14.3397 15.5806 14.3819 15.5988C14.4242 15.617 14.4623 15.6434 14.4941 15.6764L15.9821 17.1414L19.1843 13.9821C19.2496 13.921 19.3365 13.8875 19.4265 13.8887C19.5164 13.8899 19.6024 13.9257 19.666 13.9884C19.7297 14.0512 19.7659 14.136 19.7671 14.2248C19.7683 14.3136 19.7343 14.3993 19.6724 14.4637L16.2264 17.8635C16.1944 17.8953 16.1563 17.9205 16.1144 17.9377C16.0725 17.9548 16.0275 17.9636 15.9821 17.9636Z" fill="#4A73CF"/>
<path d="M16.0643 13.9842C15.9998 13.9842 15.9367 13.9664 15.8819 13.9328C15.8272 13.8992 15.783 13.8512 15.7545 13.7942C15.5966 13.3927 15.546 12.958 15.6074 12.5317C15.62 12.4424 15.668 12.3618 15.7408 12.3074C15.8137 12.253 15.9053 12.2292 15.9959 12.2414C16.0864 12.2535 16.1683 12.3006 16.2237 12.3722C16.2791 12.4438 16.3035 12.5342 16.2916 12.6235C16.2486 12.9156 16.2768 13.2137 16.3741 13.4929C16.4 13.5448 16.4121 13.6024 16.4093 13.6603C16.4064 13.7181 16.3886 13.7743 16.3576 13.8234C16.3266 13.8726 16.2834 13.9132 16.2321 13.9413C16.1807 13.9694 16.123 13.9842 16.0643 13.9842Z" fill="white"/>
<path d="M16.5106 4.72035H14.9117C14.8201 4.72035 14.7323 4.68446 14.6675 4.62058C14.6028 4.5567 14.5664 4.47005 14.5664 4.37971C14.5664 4.28936 14.6028 4.20272 14.6675 4.13883C14.7323 4.07495 14.8201 4.03906 14.9117 4.03906H16.5106C16.6022 4.03906 16.69 4.07495 16.7548 4.13883C16.8195 4.20272 16.8559 4.28936 16.8559 4.37971C16.8559 4.47005 16.8195 4.5567 16.7548 4.62058C16.69 4.68446 16.6022 4.72035 16.5106 4.72035Z" fill="white"/>
</svg>
