<svg width="7" height="7" viewBox="0 0 7 7" fill="none" xmlns="http://www.w3.org/2000/svg">
<path d="M6.00196 0.314453V3.92383C6.00211 3.95242 5.99664 3.98075 5.98584 4.00722C5.97504 4.03369 5.95913 4.05777 5.93901 4.07809C5.9189 4.0984 5.89498 4.11456 5.86862 4.12562C5.84226 4.13669 5.81398 4.14245 5.78539 4.14258H0.312269C0.283682 4.14245 0.2554 4.13669 0.229041 4.12562C0.202682 4.11456 0.178763 4.0984 0.15865 4.07809C0.138537 4.05777 0.122626 4.03369 0.111826 4.00722C0.101026 3.98075 0.0955481 3.95242 0.0957065 3.92383V0.314453C0.0955481 0.285866 0.101026 0.257528 0.111826 0.231059C0.122626 0.20459 0.138537 0.18051 0.15865 0.160194C0.178763 0.139878 0.202682 0.123726 0.229041 0.11266C0.2554 0.101594 0.283682 0.095832 0.312269 0.0957031H5.78539C5.81398 0.095832 5.84226 0.101594 5.86862 0.11266C5.89498 0.123726 5.9189 0.139878 5.93901 0.160194C5.95913 0.18051 5.97504 0.20459 5.98584 0.231059C5.99664 0.257528 6.00211 0.285866 6.00196 0.314453Z" fill="white"/>
<path d="M6.00196 2.79883V3.92298C6.00211 3.95157 5.99664 3.97991 5.98584 4.00638C5.97504 4.03285 5.95913 4.05693 5.93901 4.07724C5.9189 4.09756 5.89498 4.11371 5.86862 4.12478C5.84226 4.13584 5.81398 4.14161 5.78539 4.14173H0.312269C0.283682 4.14161 0.2554 4.13584 0.229041 4.12478C0.202682 4.11371 0.178763 4.09756 0.15865 4.07724C0.138537 4.05693 0.122626 4.03285 0.111826 4.00638C0.101026 3.97991 0.0955481 3.95157 0.0957065 3.92298V2.79883C0.75305 3.2593 1.83039 3.28533 3.04883 3.28533C4.26727 3.28533 5.34461 3.2593 6.00196 2.79883Z" fill="white"/>
<path d="M6.00196 3.5957V3.92383C6.00211 3.95242 5.99664 3.98075 5.98584 4.00722C5.97504 4.03369 5.95913 4.05777 5.93901 4.07809C5.9189 4.0984 5.89498 4.11456 5.86862 4.12562C5.84226 4.13669 5.81398 4.14245 5.78539 4.14258H0.312269C0.283682 4.14245 0.2554 4.13669 0.229041 4.12562C0.202682 4.11456 0.178763 4.0984 0.15865 4.07809C0.138537 4.05777 0.122626 4.03369 0.111826 4.00722C0.101026 3.98075 0.0955481 3.95242 0.0957065 3.92383V3.5957H6.00196Z" fill="white"/>
<path d="M5.01758 5.3457H1.08008L0.751953 6.00195H5.3457L5.01758 5.3457Z" fill="white"/>
<path d="M3.37695 4.14258H2.7207V5.3457H3.37695V4.14258Z" fill="white"/>
<path d="M5.78539 4.23828H0.312266C0.229194 4.23788 0.149672 4.20455 0.0911359 4.1456C0.0325996 4.08665 -0.000174026 4.0069 6.95028e-07 3.92383V1.20564C6.95785e-07 1.18026 0.0100837 1.15592 0.0280315 1.13797C0.0459793 1.12002 0.0703218 1.10994 0.0957038 1.10994C0.121086 1.10994 0.145428 1.12002 0.163376 1.13797C0.181324 1.15592 0.191407 1.18026 0.191407 1.20564V3.92383C0.191174 3.95616 0.203762 3.98726 0.226416 4.01032C0.249069 4.03338 0.27994 4.04653 0.312266 4.04688H5.78539C5.81772 4.04653 5.84859 4.03338 5.87124 4.01032C5.8939 3.98726 5.90648 3.95616 5.90625 3.92383V0.314453C5.90649 0.28222 5.89397 0.251199 5.87144 0.228152C5.8489 0.205104 5.81817 0.191896 5.78594 0.191406H0.312266C0.27994 0.191753 0.249069 0.204897 0.226416 0.227961C0.203762 0.251024 0.191174 0.282126 0.191407 0.314453V0.711375C0.191407 0.736757 0.181324 0.7611 0.163376 0.779047C0.145428 0.796995 0.121086 0.807078 0.0957038 0.807078C0.0703218 0.807078 0.0459793 0.796995 0.0280315 0.779047C0.0100837 0.7611 6.95785e-07 0.736757 6.95028e-07 0.711375V0.314453C-0.000174026 0.23138 0.0325996 0.151627 0.0911359 0.0926811C0.149672 0.0337347 0.229194 0.000405193 0.312266 0H5.78539C5.86846 0.000405193 5.94799 0.0337347 6.00652 0.0926811C6.06506 0.151627 6.09783 0.23138 6.09766 0.314453V3.92383C6.09783 4.0069 6.06506 4.08665 6.00652 4.1456C5.94799 4.20455 5.86846 4.23788 5.78539 4.23828Z" fill="#4A73CF"/>
<path d="M1.29478 3.69141H0.0957031C0.0703211 3.69141 0.0459786 3.68132 0.0280308 3.66338C0.010083 3.64543 0 3.62109 0 3.5957C0 3.57032 0.010083 3.54598 0.0280308 3.52803C0.0459786 3.51008 0.0703211 3.5 0.0957031 3.5H1.29478C1.32016 3.5 1.34451 3.51008 1.36245 3.52803C1.3804 3.54598 1.39048 3.57032 1.39048 3.5957C1.39048 3.62109 1.3804 3.64543 1.36245 3.66338C1.34451 3.68132 1.32016 3.69141 1.29478 3.69141Z" fill="#4A73CF"/>
<path d="M6.00056 3.69141H2.04688C2.02149 3.69141 1.99715 3.68132 1.9792 3.66338C1.96125 3.64543 1.95117 3.62109 1.95117 3.5957C1.95117 3.57032 1.96125 3.54598 1.9792 3.52803C1.99715 3.51008 2.02149 3.5 2.04688 3.5H6.00056C6.02594 3.5 6.05029 3.51008 6.06823 3.52803C6.08618 3.54598 6.09627 3.57032 6.09627 3.5957C6.09627 3.62109 6.08618 3.64543 6.06823 3.66338C6.05029 3.68132 6.02594 3.69141 6.00056 3.69141Z" fill="#4A73CF"/>
<path d="M5.34566 6.09766H0.75191C0.735609 6.09763 0.719585 6.09345 0.705352 6.0855C0.69112 6.07755 0.67915 6.06611 0.670576 6.05224C0.662002 6.03838 0.657106 6.02256 0.656352 6.00627C0.655599 5.98999 0.659012 5.97378 0.666269 5.95919L0.994394 5.30294C1.00234 5.28703 1.01456 5.27365 1.02969 5.2643C1.04482 5.25495 1.06225 5.25 1.08003 5.25H3.93866C3.96404 5.25 3.98838 5.26008 4.00633 5.27803C4.02428 5.29598 4.03436 5.32032 4.03436 5.3457C4.03436 5.37109 4.02428 5.39543 4.00633 5.41338C3.98838 5.43132 3.96404 5.44141 3.93866 5.44141H1.13866L0.906238 5.90625H5.19079L4.95836 5.44141H4.58583C4.56045 5.44141 4.53611 5.43132 4.51816 5.41338C4.50021 5.39543 4.49013 5.37109 4.49013 5.3457C4.49013 5.32032 4.50021 5.29598 4.51816 5.27803C4.53611 5.26008 4.56045 5.25 4.58583 5.25H5.01754C5.03532 5.25 5.05275 5.25495 5.06788 5.2643C5.08301 5.27365 5.09523 5.28703 5.10318 5.30294L5.4313 5.95919C5.43856 5.97378 5.44197 5.98999 5.44122 6.00627C5.44046 6.02256 5.43557 6.03838 5.42699 6.05224C5.41842 6.06611 5.40645 6.07755 5.39222 6.0855C5.37799 6.09345 5.36196 6.09763 5.34566 6.09766Z" fill="#4A73CF"/>
<path d="M2.7207 5.44141C2.69532 5.44141 2.67098 5.43132 2.65303 5.41338C2.63508 5.39543 2.625 5.37109 2.625 5.3457V4.14258C2.625 4.1172 2.63508 4.09285 2.65303 4.07491C2.67098 4.05696 2.69532 4.04688 2.7207 4.04688C2.74609 4.04688 2.77043 4.05696 2.78838 4.07491C2.80632 4.09285 2.81641 4.1172 2.81641 4.14258V5.3457C2.81641 5.37109 2.80632 5.39543 2.78838 5.41338C2.77043 5.43132 2.74609 5.44141 2.7207 5.44141Z" fill="#4A73CF"/>
<path d="M3.37695 5.44141C3.35157 5.44141 3.32723 5.43132 3.30928 5.41338C3.29133 5.39543 3.28125 5.37109 3.28125 5.3457V4.14258C3.28125 4.1172 3.29133 4.09285 3.30928 4.07491C3.32723 4.05696 3.35157 4.04688 3.37695 4.04688C3.40234 4.04688 3.42668 4.05696 3.44463 4.07491C3.46257 4.09285 3.47266 4.1172 3.47266 4.14258V5.3457C3.47266 5.37109 3.46257 5.39543 3.44463 5.41338C3.42668 5.43132 3.40234 5.44141 3.37695 5.44141Z" fill="#4A73CF"/>
<path d="M5.54244 0.748323V2.94359C5.54028 2.99058 5.51964 3.03482 5.48502 3.06668C5.4504 3.09853 5.40461 3.11542 5.35759 3.11367H0.735625C0.688614 3.11542 0.642814 3.09853 0.608195 3.06668C0.573576 3.03482 0.552941 2.99058 0.550781 2.94359V0.748323C0.552969 0.701339 0.573613 0.657117 0.608225 0.625269C0.642838 0.593422 0.688621 0.576522 0.735625 0.578245H5.35759C5.4046 0.576522 5.45038 0.593422 5.48499 0.625269C5.51961 0.657117 5.54025 0.701339 5.54244 0.748323Z" fill="white"/>
<path d="M5.54241 0.748323V2.83739H1.01297C0.965958 2.83914 0.920158 2.82225 0.885539 2.79039C0.85092 2.75854 0.830284 2.7143 0.828125 2.66731V0.578245H5.35756C5.40457 0.576522 5.45035 0.593422 5.48496 0.625269C5.51958 0.657117 5.54022 0.701339 5.54241 0.748323Z" fill="white"/>
<path d="M5.54244 0.748323V1.34321H0.550781V0.748323C0.552969 0.701339 0.573613 0.657117 0.608225 0.625269C0.642838 0.593422 0.688621 0.576522 0.735625 0.578245H5.35759C5.4046 0.576522 5.45038 0.593422 5.48499 0.625269C5.51961 0.657117 5.54025 0.701339 5.54244 0.748323Z" fill="white"/>
<path d="M5.54339 0.748323V1.08837H0.828125V0.578245H5.35855C5.40555 0.576522 5.45133 0.593422 5.48595 0.625269C5.52056 0.657117 5.5412 0.701339 5.54339 0.748323Z" fill="white"/>
<path d="M5.54317 2.10182C5.5306 2.10183 5.51815 2.09937 5.50653 2.09456C5.49491 2.08976 5.48436 2.08271 5.47547 2.07382C5.46658 2.06493 5.45953 2.05437 5.45472 2.04275C5.44992 2.03114 5.44745 2.01869 5.44747 2.00611V0.748301C5.44504 0.726793 5.4344 0.707053 5.41777 0.693197C5.40115 0.67934 5.37981 0.672437 5.35822 0.673926H2.5918C2.56641 0.673926 2.54207 0.663843 2.52412 0.645895C2.50618 0.627948 2.49609 0.603605 2.49609 0.578223C2.49609 0.552841 2.50618 0.528499 2.52412 0.510551C2.54207 0.492603 2.56641 0.48252 2.5918 0.48252H5.35822C5.43067 0.480579 5.50093 0.507483 5.55356 0.55732C5.60618 0.607157 5.63687 0.67585 5.63887 0.748301V2.00611C5.63887 2.0315 5.62879 2.05584 5.61084 2.07379C5.5929 2.09173 5.56855 2.10182 5.54317 2.10182Z" fill="#4A73CF"/>
<path d="M5.35748 3.20935H0.735734C0.663281 3.21129 0.593021 3.18439 0.540395 3.13455C0.487768 3.08471 0.457082 3.01602 0.455078 2.94357V0.748301C0.457082 0.67585 0.487768 0.607157 0.540395 0.55732C0.593021 0.507483 0.663281 0.480579 0.735734 0.48252H2.07908C2.10446 0.48252 2.1288 0.492603 2.14675 0.510551C2.1647 0.528499 2.17478 0.552841 2.17478 0.578223C2.17478 0.603605 2.1647 0.627948 2.14675 0.645895C2.1288 0.663843 2.10446 0.673926 2.07908 0.673926H0.735734C0.714141 0.672437 0.692806 0.67934 0.676178 0.693197C0.659551 0.707053 0.648913 0.726793 0.646484 0.748301V2.94357C0.648913 2.96507 0.659551 2.98482 0.676178 2.99867C0.692806 3.01253 0.714141 3.01943 0.735734 3.01794H5.35748C5.37908 3.01943 5.40041 3.01253 5.41704 2.99867C5.43367 2.98482 5.44431 2.96507 5.44673 2.94357V2.40643C5.44673 2.38104 5.45682 2.3567 5.47477 2.33875C5.49271 2.32081 5.51706 2.31072 5.54244 2.31072C5.56782 2.31072 5.59216 2.32081 5.61011 2.33875C5.62806 2.3567 5.63814 2.38104 5.63814 2.40643V2.94357C5.63614 3.01602 5.60545 3.08471 5.55282 3.13455C5.5002 3.18439 5.42994 3.21129 5.35748 3.20935Z" fill="#4A73CF"/>
<path d="M5.54244 1.43945H0.550781C0.525399 1.43945 0.501057 1.42937 0.483109 1.41142C0.465161 1.39347 0.455078 1.36913 0.455078 1.34375C0.455078 1.31837 0.465161 1.29403 0.483109 1.27608C0.501057 1.25813 0.525399 1.24805 0.550781 1.24805H5.54244C5.56782 1.24805 5.59216 1.25813 5.61011 1.27608C5.62806 1.29403 5.63814 1.31837 5.63814 1.34375C5.63814 1.36913 5.62806 1.39347 5.61011 1.41142C5.59216 1.42937 5.56782 1.43945 5.54244 1.43945Z" fill="#4A73CF"/>
<path d="M5.11497 1.80273H3.43945C3.41407 1.80273 3.38973 1.79265 3.37178 1.7747C3.35383 1.75676 3.34375 1.73241 3.34375 1.70703C3.34375 1.68165 3.35383 1.65731 3.37178 1.63936C3.38973 1.62141 3.41407 1.61133 3.43945 1.61133H5.11497C5.14035 1.61133 5.16469 1.62141 5.18264 1.63936C5.20059 1.65731 5.21067 1.68165 5.21067 1.70703C5.21067 1.73241 5.20059 1.75676 5.18264 1.7747C5.16469 1.79265 5.14035 1.80273 5.11497 1.80273Z" fill="#4A73CF"/>
<path d="M4.59688 2.29297H3.4375C3.41212 2.29297 3.38778 2.28289 3.36983 2.26494C3.35188 2.24699 3.3418 2.22265 3.3418 2.19727C3.3418 2.17188 3.35188 2.14754 3.36983 2.12959C3.38778 2.11165 3.41212 2.10156 3.4375 2.10156H4.59688C4.62226 2.10156 4.6466 2.11165 4.66455 2.12959C4.6825 2.14754 4.69258 2.17188 4.69258 2.19727C4.69258 2.22265 4.6825 2.24699 4.66455 2.26494C4.6466 2.28289 4.62226 2.29297 4.59688 2.29297Z" fill="#4A73CF"/>
<path d="M4.34573 2.78125H3.43945C3.41407 2.78125 3.38973 2.77117 3.37178 2.75322C3.35383 2.73527 3.34375 2.71093 3.34375 2.68555C3.34375 2.66016 3.35383 2.63582 3.37178 2.61787C3.38973 2.59993 3.41407 2.58984 3.43945 2.58984H4.34573C4.37112 2.58984 4.39546 2.59993 4.41341 2.61787C4.43135 2.63582 4.44144 2.66016 4.44144 2.68555C4.44144 2.71093 4.43135 2.73527 4.41341 2.75322C4.39546 2.77117 4.37112 2.78125 4.34573 2.78125Z" fill="#4A73CF"/>
<path d="M3.04688 3.21067C3.02149 3.21067 2.99715 3.20059 2.9792 3.18264C2.96125 3.16469 2.95117 3.14035 2.95117 3.11497V1.34375C2.95117 1.31837 2.96125 1.29403 2.9792 1.27608C2.99715 1.25813 3.02149 1.24805 3.04688 1.24805C3.07226 1.24805 3.0966 1.25813 3.11455 1.27608C3.1325 1.29403 3.14258 1.31837 3.14258 1.34375V3.11497C3.14258 3.14035 3.1325 3.16469 3.11455 3.18264C3.0966 3.20059 3.07226 3.21067 3.04688 3.21067Z" fill="#4A73CF"/>
<path d="M2.61848 1.70703H0.978516V2.68441H2.61848V1.70703Z" fill="white"/>
<path d="M0.978516 2.68469L1.69536 2.02734L2.05991 2.406L2.35391 2.22848L2.61859 2.35602V2.68469H0.978516Z" fill="white"/>
<path d="M2.61859 2.78011H0.978516C0.953134 2.78011 0.928791 2.77003 0.910843 2.75208C0.892895 2.73413 0.882812 2.70979 0.882812 2.68441V1.70703C0.882813 1.68165 0.892895 1.65731 0.910843 1.63936C0.928791 1.62141 0.953134 1.61133 0.978516 1.61133H2.61914C2.64452 1.61133 2.66887 1.62141 2.68681 1.63936C2.70476 1.65731 2.71484 1.68165 2.71484 1.70703V2.68441C2.71484 2.69702 2.71235 2.70951 2.70751 2.72116C2.70266 2.7328 2.69556 2.74338 2.68662 2.75227C2.67767 2.76117 2.66706 2.7682 2.65539 2.77298C2.64371 2.77776 2.63121 2.78018 2.61859 2.78011ZM1.07422 2.5887H2.52289V1.80273H1.07422V2.5887Z" fill="#4A73CF"/>
<path d="M0.978486 2.78036C0.959206 2.78036 0.940378 2.77453 0.924467 2.76364C0.908556 2.75275 0.896304 2.73731 0.889318 2.71934C0.882331 2.70137 0.880934 2.68171 0.885311 2.66294C0.889688 2.64416 0.899633 2.62714 0.913846 2.61411L1.63069 1.95677C1.6491 1.93991 1.67336 1.93091 1.69831 1.93169C1.72326 1.93246 1.74691 1.94296 1.76424 1.96093L2.07585 2.28457L2.30444 2.14654C2.31807 2.13835 2.33352 2.13367 2.3494 2.13293C2.36528 2.13218 2.3811 2.13539 2.39544 2.14227L2.66013 2.2698C2.68249 2.28112 2.69952 2.30076 2.70756 2.3245C2.7156 2.34824 2.714 2.37419 2.70312 2.39676C2.69223 2.41934 2.67292 2.43674 2.64934 2.44524C2.62576 2.45373 2.59978 2.45263 2.577 2.44218L2.35902 2.33718L2.10942 2.4879C2.09085 2.49915 2.069 2.50374 2.04747 2.50091C2.02594 2.49809 2.00602 2.48802 1.99097 2.47236L1.69117 2.16097L1.04324 2.75521C1.02558 2.77143 1.00246 2.78041 0.978486 2.78036Z" fill="#4A73CF"/>
<path d="M4.43047 0.961001C4.43062 1.00468 4.41889 1.04757 4.39652 1.08508C4.37415 1.1226 4.342 1.15332 4.3035 1.17395C4.26501 1.19458 4.22162 1.20434 4.178 1.20219C4.13438 1.20004 4.09216 1.18606 4.05588 1.16174C4.0196 1.13743 3.99062 1.1037 3.97205 1.06417C3.95348 1.02464 3.94602 0.980795 3.95047 0.937347C3.95492 0.893899 3.97111 0.852481 3.99731 0.817533C4.0235 0.782586 4.05871 0.755428 4.09917 0.73897C4.12812 0.72683 4.15921 0.720619 4.19061 0.720704C4.25424 0.720906 4.31519 0.746302 4.36015 0.791335C4.4051 0.836368 4.43038 0.897372 4.43047 0.961001Z" fill="white"/>
<path d="M4.42878 0.961329C4.42889 1.00359 4.41776 1.04511 4.39652 1.08164C4.36756 1.09378 4.33647 1.09999 4.30508 1.09991C4.27346 1.09998 4.24214 1.0938 4.21291 1.08174C4.18368 1.06967 4.15713 1.05195 4.13477 1.02959C4.11241 1.00723 4.09469 0.980677 4.08262 0.951451C4.07056 0.922224 4.06438 0.890902 4.06445 0.859282C4.06436 0.816955 4.0757 0.775388 4.09727 0.73897C4.12622 0.72683 4.15731 0.720619 4.1887 0.720704C4.25243 0.720849 4.31349 0.746264 4.3585 0.791375C4.40351 0.836485 4.42878 0.897606 4.42878 0.961329Z" fill="white"/>
<path d="M4.19113 1.29656C4.1134 1.29656 4.03809 1.26959 3.97804 1.22025C3.91799 1.1709 3.87692 1.10225 3.86184 1.02601C3.84677 0.949759 3.85862 0.870643 3.89537 0.80216C3.93213 0.733677 3.9915 0.680069 4.06338 0.650487C4.10382 0.633505 4.14727 0.624838 4.19113 0.625002C4.28018 0.625002 4.36559 0.660379 4.42856 0.72335C4.49153 0.786322 4.52691 0.871729 4.52691 0.960784C4.52691 1.04984 4.49153 1.13525 4.42856 1.19822C4.36559 1.26119 4.28018 1.29656 4.19113 1.29656ZM4.19113 0.816409C4.17234 0.816301 4.15374 0.820023 4.13644 0.827346C4.10344 0.841009 4.0767 0.866465 4.06143 0.898757C4.04616 0.93105 4.04345 0.967869 4.05384 1.00205C4.06422 1.03622 4.08695 1.06532 4.1176 1.08366C4.14826 1.102 4.18464 1.10828 4.21966 1.10127C4.25469 1.09427 4.28586 1.07448 4.3071 1.04576C4.32834 1.01704 4.33813 0.981443 4.33457 0.945901C4.33101 0.910358 4.31435 0.877412 4.28783 0.853476C4.26132 0.82954 4.22685 0.816327 4.19113 0.816409Z" fill="#4A73CF"/>
<path d="M5.23797 0.960782C5.238 1.00428 5.22621 1.04698 5.20386 1.0843C5.18151 1.12162 5.14944 1.15217 5.11107 1.17268C5.07271 1.19319 5.02949 1.20289 4.98604 1.20074C4.94259 1.19859 4.90054 1.18468 4.86439 1.16049C4.82823 1.1363 4.79933 1.10273 4.78076 1.06339C4.7622 1.02405 4.75468 0.980399 4.759 0.937111C4.76332 0.893824 4.77932 0.852523 4.80529 0.817624C4.83126 0.782725 4.86623 0.755538 4.90645 0.738969C4.93541 0.72685 4.9665 0.72064 4.99789 0.720704C5.06152 0.720848 5.1225 0.746188 5.16749 0.79118C5.21248 0.836173 5.23782 0.897153 5.23797 0.960782Z" fill="white"/>
<path d="M5.23727 0.961329C5.23742 1.00358 5.22632 1.0451 5.20512 1.08164C5.17616 1.09376 5.14507 1.09997 5.11368 1.09991C5.08205 1.09999 5.05073 1.09383 5.02149 1.08177C4.99226 1.0697 4.9657 1.05198 4.94334 1.02962C4.92098 1.00726 4.90325 0.9807 4.89119 0.951467C4.87913 0.922234 4.87297 0.890905 4.87305 0.859282C4.87275 0.817015 4.88386 0.775451 4.90521 0.738969C4.93417 0.72685 4.96525 0.72064 4.99665 0.720704C5.06046 0.720704 5.12167 0.746055 5.16679 0.791181C5.21192 0.836307 5.23727 0.897511 5.23727 0.961329Z" fill="white"/>
<path d="M4.99777 1.29656C4.92005 1.29656 4.84473 1.26959 4.78468 1.22024C4.72463 1.1709 4.68356 1.10225 4.66849 1.026C4.65341 0.949758 4.66526 0.870643 4.70201 0.802159C4.73877 0.733676 4.79815 0.680069 4.87002 0.650486C4.91047 0.633539 4.95391 0.624873 4.99777 0.625001C5.08682 0.625001 5.17223 0.660378 5.2352 0.723349C5.29817 0.786321 5.33355 0.871728 5.33355 0.960783C5.33355 1.04984 5.29817 1.13524 5.2352 1.19822C5.17223 1.26119 5.08682 1.29656 4.99777 1.29656ZM4.99777 0.816408C4.97899 0.81631 4.96038 0.820031 4.94308 0.827345C4.91005 0.841015 4.88328 0.866487 4.868 0.898805C4.85272 0.931122 4.85 0.96797 4.86039 1.00218C4.87078 1.03638 4.89353 1.0655 4.92421 1.08386C4.95488 1.10221 4.99129 1.1085 5.02635 1.10149C5.0614 1.09448 5.09259 1.07467 5.11385 1.04593C5.1351 1.01718 5.1449 0.981558 5.14134 0.945987C5.13777 0.910416 5.1211 0.877445 5.09456 0.853493C5.06802 0.82954 5.03352 0.816321 4.99777 0.816408Z" fill="#4A73CF"/>
<path d="M3.62187 0.960782C3.62205 1.00445 3.61034 1.04735 3.588 1.08487C3.56566 1.12239 3.53353 1.15313 3.49505 1.17378C3.45657 1.19444 3.4132 1.20423 3.36958 1.20211C3.32596 1.19999 3.28374 1.18604 3.24744 1.16176C3.21114 1.13747 3.18214 1.10377 3.16354 1.06425C3.14494 1.02474 3.13744 0.980914 3.14186 0.937466C3.14627 0.894019 3.16242 0.852591 3.18858 0.817623C3.21474 0.782655 3.24992 0.755465 3.29036 0.738969C3.31932 0.72685 3.3504 0.72064 3.38179 0.720704C3.44542 0.720848 3.5064 0.746188 3.5514 0.79118C3.59639 0.836173 3.62173 0.897153 3.62187 0.960782Z" fill="white"/>
<path d="M3.62008 0.961329C3.62018 1.00357 3.60909 1.04508 3.58793 1.08164C3.55897 1.09376 3.52788 1.09997 3.49649 1.09991C3.46487 1.09999 3.43354 1.09383 3.4043 1.08177C3.37507 1.0697 3.34851 1.05198 3.32615 1.02962C3.30379 1.00726 3.28607 0.9807 3.27401 0.951467C3.26194 0.922234 3.25578 0.890905 3.25587 0.859282C3.25557 0.817015 3.26668 0.775451 3.28802 0.738969C3.31698 0.72685 3.34807 0.72064 3.37946 0.720704C3.41106 0.720704 3.44235 0.726928 3.47154 0.73902C3.50074 0.751113 3.52726 0.768837 3.54961 0.791181C3.57195 0.813525 3.58967 0.840052 3.60177 0.869245C3.61386 0.898439 3.62008 0.929729 3.62008 0.961329Z" fill="white"/>
<path d="M3.38253 1.29656C3.30481 1.29656 3.2295 1.26959 3.16945 1.22024C3.1094 1.1709 3.06833 1.10225 3.05325 1.026C3.03817 0.949758 3.05002 0.870643 3.08678 0.802159C3.12353 0.733676 3.18291 0.680069 3.25478 0.650486C3.29524 0.633539 3.33868 0.624873 3.38253 0.625001C3.47159 0.625001 3.557 0.660378 3.61997 0.723349C3.68294 0.786321 3.71831 0.871728 3.71831 0.960783C3.71831 1.04984 3.68294 1.13524 3.61997 1.19822C3.557 1.26119 3.47159 1.29656 3.38253 1.29656ZM3.38253 0.816408C3.36375 0.81631 3.34515 0.820031 3.32785 0.827345C3.29481 0.841015 3.26805 0.866487 3.25277 0.898805C3.23748 0.931122 3.23477 0.96797 3.24516 1.00218C3.25555 1.03638 3.2783 1.0655 3.30897 1.08386C3.33965 1.10221 3.37606 1.1085 3.41111 1.10149C3.44617 1.09448 3.47736 1.07467 3.49861 1.04593C3.51987 1.01718 3.52967 0.981558 3.5261 0.945987C3.52254 0.910416 3.50586 0.877445 3.47932 0.853493C3.45279 0.82954 3.41828 0.816321 3.38253 0.816408Z" fill="#4A73CF"/>
</svg>
