<svg width="16" height="16" viewBox="0 0 16 16" fill="none" xmlns="http://www.w3.org/2000/svg">
<path d="M1 7.04415H3.67448L6.27463 10.8018C6.27463 10.8018 6.71762 11.4885 7.19914 10.8018C7.61845 10.2039 12.0105 3.24148 13.1382 1.45259C13.2338 1.29936 13.3711 1.17605 13.5345 1.09694C13.6978 1.01783 13.8805 0.986145 14.0613 1.00556C14.385 1.04247 14.7417 1.17364 14.9151 1.542C14.9814 1.68704 15.0096 1.84629 14.9971 2.00501C14.9847 2.16373 14.932 2.31677 14.844 2.44995L7.64761 13.5504C7.51316 13.7589 7.30237 13.9076 7.0595 13.9654C6.80482 14.0254 6.48101 14.0291 6.21685 13.7965C5.88464 13.5041 3.84676 10.8296 2.41805 8.9359C1.83613 8.16459 1.36346 7.53401 1 7.04415Z" fill="#4A73CF"/>
</svg>
