<svg width="65" height="64" viewBox="0 0 65 64" fill="none" xmlns="http://www.w3.org/2000/svg">
<rect x="0.75" width="64" height="64" rx="7.70588" fill="#E0F1F4"/>
<g clip-path="url(#clip0_262_17830)">
<path d="M32.928 12.7689H16.5742C15.1827 12.7689 14.0605 13.9157 14.0605 15.3182V44.9597C14.0605 46.3709 15.1915 47.5089 16.5742 47.5089H37.8598C39.2519 47.5089 40.3734 46.3621 40.3734 44.9597V19.6673L32.928 12.7689Z" fill="white"/>
<path d="M37.8612 48.1724H16.5749C14.8236 48.1724 13.3984 46.7315 13.3984 44.9603V15.3182C13.3984 13.547 14.8236 12.106 16.5749 12.106H32.9288C33.0958 12.106 33.257 12.1688 33.3796 12.2831L40.8257 19.1815C40.961 19.3068 41.0377 19.4832 41.0377 19.6673V44.9597C41.0377 46.7315 39.6126 48.1724 37.8612 48.1724ZM16.5749 13.4318C15.5547 13.4318 14.7242 14.2776 14.7242 15.3182V44.9603C14.7242 46.0003 15.5547 46.8473 16.5749 46.8473H37.8606C38.8814 46.8473 39.7113 46.0009 39.7113 44.9603V19.957L32.6689 13.4318H16.5749Z" fill="#024430"/>
<path d="M32.9287 12.7689V18.0972C32.9287 18.9614 33.6249 19.6673 34.4772 19.6673H40.3664L32.9287 12.7689Z" fill="#D4DDE0"/>
<path d="M40.3665 20.3302H34.4773C33.2583 20.3302 32.2666 19.3281 32.2666 18.0972V12.7689C32.2666 12.5058 32.4226 12.2663 32.6644 12.1611C32.9049 12.0562 33.1862 12.1028 33.3804 12.2831L40.8177 19.1815C41.0174 19.3673 41.0837 19.656 40.9834 19.9101C40.884 20.1632 40.639 20.3302 40.3665 20.3302ZM33.5917 14.2882V18.0972C33.5917 18.5976 33.9889 19.0045 34.4766 19.0045H38.6766L33.5917 14.2882Z" fill="#024430"/>
<path d="M29.5498 33.9471H36.5172V35.2728H29.5498V33.9471Z" fill="#024430"/>
<path d="M29.5498 38.429H36.5172V39.7547H29.5498V38.429Z" fill="#024430"/>
<path d="M17.9189 42.5923H36.5194V43.9181H17.9189V42.5923Z" fill="#024430"/>
<path d="M29.5479 29.7837H36.5194V31.1094H29.5479V29.7837Z" fill="#024430"/>
<path d="M17.9189 29.852H26.482V39.0918H17.9189V29.852Z" fill="#06D6A0"/>
<path d="M46.4185 34.6676C46.4185 31.1185 43.5812 28.2411 40.0813 28.2411C36.5814 28.2411 33.7441 31.1185 33.7441 34.6676C33.7441 38.217 36.5814 41.0944 40.0813 41.0944C43.5812 41.0944 46.4185 38.217 46.4185 34.6676Z" fill="white"/>
<path d="M40.0791 41.7573C36.2194 41.7573 33.0791 38.5769 33.0791 34.6676C33.0791 30.7586 36.2194 27.5782 40.0791 27.5782C43.9392 27.5782 47.0792 30.7586 47.0792 34.6676C47.0792 38.5769 43.9392 41.7573 40.0791 41.7573ZM40.0791 28.9039C36.9505 28.9039 34.4049 31.4891 34.4049 34.6676C34.4049 37.8463 36.9505 40.4315 40.0791 40.4315C43.2081 40.4315 45.7534 37.8463 45.7534 34.6676C45.7534 31.4891 43.2081 28.9039 40.0791 28.9039Z" fill="#024430"/>
<path d="M44.4275 34.6676C44.4275 32.2167 42.4806 30.2297 40.079 30.2297C37.6774 30.2297 35.7305 32.2167 35.7305 34.6676C35.7305 37.1187 37.6774 39.1057 40.079 39.1057C42.4806 39.1057 44.4275 37.1187 44.4275 34.6676Z" fill="#FFD166"/>
<path d="M47.4148 42.6904C47.2439 42.6904 47.0727 42.6244 46.9429 42.493L44.1321 39.6427C43.8751 39.3815 43.8783 38.9624 44.1389 38.7054C44.3995 38.4474 44.8189 38.4513 45.0763 38.7118L47.8867 41.5624C48.144 41.8236 48.1408 42.2424 47.8802 42.4998C47.7508 42.627 47.5824 42.6904 47.4148 42.6904Z" fill="#024430"/>
<path d="M47.3884 43.7637L51.7583 48.1951C52.2435 48.6877 53.0103 48.6877 53.4705 48.1951C53.9557 47.7025 53.9557 46.925 53.4705 46.4589L49.1006 42.0275C48.6407 41.5611 47.8743 41.5352 47.3884 42.0275C46.9291 42.4936 46.9032 43.297 47.3884 43.7637Z" fill="white"/>
<path d="M52.6246 49.2273C52.1229 49.2273 51.6491 49.0263 51.2876 48.6612L46.9241 44.235C46.5759 43.8964 46.3797 43.4355 46.3732 42.9358C46.3658 42.4221 46.5645 41.9217 46.918 41.5624C47.2727 41.2032 47.7434 41.0048 48.2431 41.0048C48.7396 41.0048 49.2248 41.2084 49.574 41.5624L53.9433 45.9938C54.2899 46.3266 54.4913 46.7917 54.4981 47.2924C54.5052 47.8048 54.3077 48.2913 53.9439 48.6612C53.6131 49.015 53.149 49.2205 52.6499 49.2273C52.6415 49.2273 52.6334 49.2273 52.6246 49.2273ZM48.2431 42.3305C48.1424 42.3305 47.9945 42.359 47.8625 42.493C47.756 42.6005 47.6967 42.7555 47.699 42.9173C47.6997 43.0021 47.7213 43.1627 47.8495 43.286C47.854 43.2905 47.8579 43.2944 47.8625 43.2989L52.2324 47.731C52.3437 47.8439 52.4822 47.8948 52.6327 47.9028C52.768 47.9009 52.8946 47.8446 52.9881 47.7442C53.114 47.6164 53.1755 47.4665 53.1736 47.3115C53.1716 47.1684 53.1147 47.0357 53.013 46.9383L48.6309 42.4949C48.527 42.3885 48.3897 42.3305 48.2431 42.3305Z" fill="#024430"/>
<path d="M25.9881 20.4617C26.2027 20.294 26.3121 20.0551 26.3121 19.7515C26.3121 19.5991 26.2894 19.4654 26.2451 19.3547C26.2008 19.2417 26.1344 19.1424 26.049 19.0582H26.0483C25.9654 18.9773 25.8641 18.9077 25.7479 18.8514C25.6411 18.799 25.5194 18.7475 25.3741 18.6925C25.3013 18.6672 25.2343 18.6387 25.1741 18.6109C25.1184 18.5844 25.0692 18.5552 25.0268 18.5232C24.9938 18.4983 24.9679 18.4704 24.9511 18.4397C24.9365 18.4141 24.9294 18.3821 24.9294 18.3403C24.9294 18.2762 24.9491 18.2328 24.9944 18.1998C25.1016 18.1183 25.3576 18.1257 25.557 18.1752C25.6573 18.2005 25.7499 18.2371 25.8314 18.284L25.9616 18.3575L26.214 17.6875L26.1198 17.6324C26.0318 17.5794 25.9117 17.5311 25.7632 17.4878C25.6139 17.4441 25.4424 17.4217 25.2521 17.4217C24.9161 17.4217 24.6429 17.5072 24.4422 17.6748C24.2335 17.8493 24.128 18.0904 24.128 18.3914C24.128 18.5352 24.1539 18.6633 24.2047 18.7698C24.2545 18.8727 24.3209 18.9634 24.4031 19.0391C24.4811 19.1106 24.5733 19.1715 24.6782 19.2213C24.7802 19.2689 24.8802 19.3107 24.9763 19.3447C25.0686 19.3764 25.1534 19.4091 25.2284 19.4427C25.298 19.4738 25.355 19.5078 25.4 19.5415C25.4385 19.5699 25.4683 19.6033 25.488 19.6369C25.5055 19.6667 25.5139 19.7052 25.5139 19.7509C25.5139 19.8266 25.4909 19.8777 25.4379 19.9172C25.3961 19.9493 25.3045 19.9875 25.1077 19.9875C24.9446 19.9875 24.8041 19.9684 24.6908 19.9312C24.5682 19.89 24.4772 19.8531 24.4121 19.8159L24.2804 19.7425L24.0729 20.327C23.9833 20.0713 23.8965 19.8279 23.815 19.6091C23.7156 19.3427 23.6195 19.0922 23.5301 18.864C23.436 18.6242 23.3431 18.3979 23.255 18.1924C23.1654 17.9836 23.0712 17.7723 22.9731 17.5616L22.9381 17.4878H22.2817L22.2474 17.5622C22.1487 17.7736 22.0545 17.9849 21.9655 18.1924C21.8749 18.4047 21.7826 18.6306 21.691 18.864C21.5985 19.0993 21.5036 19.3498 21.4082 19.6091C21.324 19.8386 21.2343 20.0917 21.1424 20.3568L20.9469 19.757L20.8129 19.8266L20.8123 19.8273C20.7553 19.857 20.6718 19.89 20.5643 19.9247C20.4643 19.9577 20.3264 19.9745 20.1559 19.9745C20.0206 19.9745 19.906 19.9525 19.8154 19.9095C19.7244 19.8664 19.649 19.8065 19.5917 19.7311C19.5309 19.6515 19.4852 19.5554 19.4561 19.4453C19.4247 19.3288 19.4088 19.1987 19.4088 19.0582C19.4088 18.9012 19.4289 18.7621 19.4677 18.6446C19.5056 18.5319 19.558 18.4377 19.6238 18.3656C19.6878 18.2947 19.7655 18.2409 19.8542 18.205C20.0533 18.1215 20.3109 18.1383 20.5113 18.1998C20.6232 18.2345 20.7081 18.2701 20.7624 18.3047L20.8984 18.3902L21.1411 17.7033L21.0456 17.6496C21.0262 17.6389 20.9919 17.6205 20.944 17.5946C20.8925 17.5667 20.8275 17.5408 20.7459 17.5149C20.6718 17.4913 20.5847 17.47 20.4802 17.4502C20.3773 17.4308 20.2614 17.4211 20.1361 17.4211C19.9254 17.4211 19.7257 17.458 19.5422 17.5311C19.3558 17.6033 19.1907 17.7127 19.0521 17.8545C18.9136 17.9969 18.8036 18.1714 18.7256 18.372C18.6472 18.5737 18.6074 18.8057 18.6074 19.0631C18.6074 19.3181 18.6421 19.5489 18.7087 19.7483C18.777 19.9506 18.878 20.1247 19.0078 20.2681C19.1379 20.4105 19.2994 20.5212 19.4878 20.5947C19.6713 20.6672 19.8814 20.7041 20.1102 20.7041C20.2222 20.7041 20.3316 20.6976 20.4358 20.6843C20.5372 20.6704 20.63 20.6533 20.7113 20.6313C20.7964 20.608 20.8666 20.5856 20.9243 20.5617C20.9906 20.5358 21.0427 20.5092 21.0832 20.4814L21.1033 20.4675L21.0421 20.6413H21.8548L21.8862 20.5536C21.9238 20.4429 21.9629 20.3315 22.0034 20.2189C22.0332 20.1334 22.0629 20.0486 22.0921 19.9613H23.1116C23.1414 20.0486 23.1722 20.1341 23.2032 20.2189C23.2437 20.3289 23.2835 20.4403 23.321 20.5523L23.3512 20.6413H24.1862L24.1254 20.4681V20.4675L24.1367 20.4743C24.1749 20.4966 24.2241 20.5206 24.2824 20.5458C24.3406 20.5711 24.4089 20.5947 24.4924 20.6193C24.5766 20.6439 24.6695 20.6643 24.7682 20.6805C24.8737 20.6963 24.9889 20.7041 25.1103 20.7041C25.4874 20.7047 25.7839 20.6225 25.9881 20.4617ZM22.8864 19.2751H22.3164C22.3811 19.0954 22.4449 18.9242 22.5057 18.764C22.5397 18.675 22.5708 18.5944 22.6012 18.5187C22.631 18.5937 22.6624 18.6743 22.6954 18.7601C22.7572 18.9223 22.8213 19.0948 22.8864 19.2751Z" fill="#024430"/>
<path d="M28.6984 19.9341H27.2872V19.3486H28.4557V18.6494H27.2872V18.1966H28.5997V17.4887H26.5107V20.6419H28.6984V19.9341Z" fill="#024430"/>
<path d="M19.2734 24.7665C19.1905 24.6856 19.0892 24.6153 18.9717 24.5587C18.8571 24.503 18.7351 24.4509 18.5995 24.4004C18.5263 24.3745 18.4593 24.3473 18.3985 24.3182C18.3409 24.291 18.2917 24.2619 18.2519 24.2308C18.2188 24.2062 18.193 24.1784 18.1764 24.1492C18.1612 24.122 18.1544 24.0893 18.1544 24.0486C18.1544 23.9842 18.1745 23.9411 18.2195 23.9078C18.3276 23.8278 18.5768 23.8336 18.783 23.8835C18.8811 23.9078 18.974 23.945 19.0575 23.9919L19.1873 24.0657L19.4397 23.3954L19.3459 23.3404C19.2575 23.2873 19.1368 23.2391 18.9892 23.196C18.8413 23.1523 18.6697 23.1303 18.4781 23.1303C18.1418 23.1303 17.869 23.2151 17.6673 23.3828C17.4585 23.5579 17.353 23.799 17.353 24.0994C17.353 24.2447 17.3789 24.3719 17.4301 24.4781C17.4789 24.58 17.5459 24.671 17.6281 24.747C17.7078 24.8199 17.8007 24.8817 17.9026 24.9293C17.9962 24.9739 18.0962 25.0157 18.2023 25.0532C18.2943 25.0846 18.3787 25.1177 18.4535 25.1507C18.5212 25.1814 18.5788 25.2151 18.6251 25.2494C18.6636 25.2782 18.6934 25.3112 18.7134 25.3449C18.7306 25.3756 18.7393 25.4132 18.7393 25.4598C18.7393 25.5352 18.716 25.5863 18.6636 25.6255C18.6225 25.6572 18.5312 25.6951 18.3347 25.6951C18.1719 25.6951 18.0311 25.6757 17.9178 25.6388C17.8007 25.6002 17.7071 25.5617 17.6408 25.5245L17.5084 25.4484L17.2676 26.1265L17.3611 26.1816C17.3996 26.2042 17.4485 26.2278 17.5068 26.2531C17.5654 26.2777 17.6337 26.3023 17.7172 26.3275C17.7978 26.3512 17.8906 26.3712 17.9923 26.3871C18.0936 26.4036 18.2088 26.4117 18.3347 26.4117C18.7147 26.4117 19.0102 26.3308 19.2145 26.1696C19.4294 26.0013 19.5378 25.7627 19.5378 25.4598C19.5378 25.306 19.5155 25.1727 19.4711 25.062C19.4258 24.95 19.3598 24.85 19.2734 24.7665Z" fill="#024430"/>
<path d="M19.4473 23.9126H20.3234V26.3492H21.1038V23.9126H21.98V23.1954H19.4473V23.9126Z" fill="#024430"/>
<path d="M23.8254 25.083C23.8254 25.1992 23.8128 25.2986 23.7882 25.3802C23.7652 25.4536 23.7332 25.5142 23.6927 25.5585C23.6545 25.6009 23.6066 25.6326 23.5509 25.6533C23.4331 25.697 23.2645 25.697 23.1486 25.6533C23.0955 25.6333 23.0486 25.6015 23.0094 25.5585C22.969 25.5142 22.9373 25.4543 22.914 25.3802C22.8887 25.2992 22.8767 25.1992 22.8767 25.083V23.1954H22.0967V25.1329C22.0967 25.3125 22.1213 25.4802 22.1689 25.632C22.2187 25.7893 22.2967 25.9265 22.3996 26.0424C22.5042 26.1602 22.6375 26.2525 22.7952 26.3162C22.9499 26.379 23.1353 26.411 23.3448 26.411C23.5542 26.411 23.7406 26.379 23.8976 26.3162C24.0581 26.2525 24.1934 26.1602 24.2986 26.0424C24.4022 25.9255 24.4802 25.7877 24.5313 25.6326C24.5812 25.4815 24.6055 25.3125 24.6055 25.1329V23.1954H23.8254V25.083Z" fill="#024430"/>
<path d="M27.2001 23.5498C27.0463 23.4174 26.8589 23.3187 26.644 23.2569C26.4365 23.1967 26.2038 23.1663 25.9546 23.1663C25.8406 23.1663 25.7086 23.1701 25.5522 23.1795C25.3959 23.1886 25.2473 23.2093 25.1121 23.241L25.0107 23.2637V26.2803L25.1114 26.3049C25.2467 26.336 25.393 26.3573 25.5471 26.3687C25.6927 26.3777 25.8274 26.3832 25.9468 26.3832C26.1993 26.3832 26.4346 26.3512 26.644 26.2884C26.8596 26.2233 27.047 26.122 27.2014 25.9867C27.3574 25.8501 27.4794 25.6786 27.5635 25.475C27.6464 25.2747 27.6888 25.0368 27.6888 24.771C27.6888 24.4985 27.6464 24.2587 27.5635 24.0583C27.4771 23.8534 27.3554 23.6832 27.2001 23.5498ZM26.8874 24.7704C26.8874 25.0559 26.8129 25.2795 26.6666 25.4326C26.5213 25.5844 26.2899 25.6618 25.9798 25.6618C25.9002 25.6618 25.8361 25.6611 25.7876 25.6598V23.8868C25.8419 23.8848 25.9089 23.8835 25.9879 23.8835C26.3012 23.8835 26.5314 23.9583 26.6725 24.1062C26.8149 24.2544 26.8874 24.4787 26.8874 24.7704Z" fill="#024430"/>
<path d="M29.5362 23.1954L29.5015 23.2727C29.408 23.4838 29.3022 23.6984 29.186 23.9091C29.105 24.0557 29.0209 24.2036 28.9354 24.3528C28.8513 24.2081 28.7678 24.0602 28.6875 23.9107C28.5755 23.7016 28.47 23.487 28.3752 23.2727L28.3409 23.1954H27.4346L27.5349 23.3876C27.6844 23.6751 27.8476 23.9728 28.0188 24.2726C28.1771 24.5503 28.3515 24.8387 28.5357 25.1303V26.3492H29.3119V25.1222C29.4941 24.8367 29.6673 24.5503 29.8278 24.2706C29.9942 23.9796 30.1557 23.6819 30.3097 23.3883L30.4091 23.196H29.5362V23.1954Z" fill="#024430"/>
</g>
<defs>
<clipPath id="clip0_262_17830">
<rect width="41.098" height="41.098" fill="white" transform="translate(13.3984 10.1176)"/>
</clipPath>
</defs>
</svg>
