<svg width="65" height="64" viewBox="0 0 65 64" fill="none" xmlns="http://www.w3.org/2000/svg">
<g id="Frame 126">
<rect x="0.75" width="64" height="64" rx="7.70588" fill="#E0F1F4"/>
<g id="main icons" clip-path="url(#clip0_262_17820)">
<path id="Vector" d="M43.5477 50.5528H16.4091C15.1047 50.5528 14.0605 49.4922 14.0605 48.1664V13.1669C14.0605 11.8412 15.1047 10.7805 16.4091 10.7805H43.4829C44.7873 10.7805 45.8315 11.8412 45.8315 13.1669V48.2328C45.8315 49.4922 44.7873 50.5528 43.5477 50.5528Z" fill="white"/>
<path id="Vector_2" d="M43.5484 51.2157H16.4098C14.7494 51.2157 13.3984 49.8482 13.3984 48.1664V13.1669C13.3984 11.4851 14.7494 10.1176 16.4098 10.1176H43.4837C45.1441 10.1176 46.4951 11.4851 46.4951 13.1669V48.2328C46.4951 49.8495 45.146 51.2157 43.5484 51.2157ZM16.4098 11.4434C15.4647 11.4434 14.7242 12.2004 14.7242 13.1669V48.1664C14.7242 49.1329 15.4647 49.8899 16.4098 49.8899H43.5484C44.4268 49.8899 45.1687 49.1309 45.1687 48.2328V13.1669C45.1687 12.2004 44.4281 11.4434 43.4827 11.4434H16.4098Z" fill="#024430"/>
<path id="Vector_3" d="M17.585 14.1625H42.633V47.1701H17.585V14.1625Z" fill="white"/>
<path id="Vector_4" d="M43.2966 47.833H16.9229V13.5003H43.2966V47.833ZM18.2486 46.5073H41.9709V14.826H18.2486V46.5073Z" fill="#024430"/>
<path id="Vector_5" d="M29.5273 21.525L26.1162 18.489L22.7051 21.525V10.8569H29.5273V21.525Z" fill="#AEE6B9"/>
<g id="Group">
<path id="Vector_6" d="M29.5271 22.1879C29.3679 22.1879 29.2103 22.1302 29.0863 22.0202L26.116 19.3765L23.1457 22.0202C22.9502 22.1937 22.6702 22.2377 22.4336 22.1296C22.1957 22.0228 22.042 21.7855 22.042 21.525V10.8559C22.042 10.4895 22.3388 10.1931 22.7049 10.1931H29.5278C29.8938 10.1931 30.1907 10.4895 30.1907 10.8559V21.525C30.1907 21.7862 30.0376 22.0228 29.799 22.1296C29.7119 22.1694 29.6194 22.1879 29.5271 22.1879ZM26.116 17.8261C26.2736 17.8261 26.4309 17.8818 26.5568 17.9938L28.8643 20.0481V11.5188H23.3671V20.0474L25.6745 17.9931C25.8011 17.8818 25.9584 17.8261 26.116 17.8261Z" fill="#024430"/>
<path id="Vector_7" d="M22.5938 30.4492H37.6271V31.7749H22.5938V30.4492Z" fill="#024430"/>
<path id="Vector_8" d="M22.5918 35.9994H37.6291V37.3251H22.5918V35.9994Z" fill="#024430"/>
<path id="Vector_9" d="M22.5938 41.2302H37.6271V42.556H22.5938V41.2302Z" fill="#024430"/>
<path id="Vector_10" d="M22.5938 24.7652H37.6271V26.091H22.5938V24.7652Z" fill="#024430"/>
</g>
<path id="Vector_11" d="M53.8329 33.1651C53.8329 29.2212 50.6866 26.024 46.8051 26.024C42.9237 26.024 39.7773 29.2212 39.7773 33.1651C39.7773 37.109 42.9237 40.3062 46.8051 40.3062C50.6866 40.3062 53.8329 37.109 53.8329 33.1651Z" fill="white"/>
<path id="Vector_12" d="M46.8066 40.969C42.5662 40.969 39.1152 37.4685 39.1152 33.1651C39.1152 28.8622 42.5655 25.3618 46.8066 25.3618C51.0476 25.3618 54.4979 28.8616 54.4979 33.1651C54.4979 37.4685 51.0476 40.969 46.8066 40.969ZM46.8066 26.6869C43.2967 26.6869 40.441 29.5927 40.441 33.1644C40.441 36.7358 43.2967 39.6426 46.8066 39.6426C50.3164 39.6426 53.1721 36.7367 53.1721 33.1651C53.1721 29.5934 50.3164 26.6869 46.8066 26.6869Z" fill="#024430"/>
<path id="Vector_13" d="M51.8463 33.1651C51.8463 30.3194 49.59 28.0126 46.8064 28.0126C44.0229 28.0126 41.7666 30.3194 41.7666 33.1651C41.7666 36.0108 44.0229 38.3175 46.8064 38.3175C49.59 38.3175 51.8463 36.0108 51.8463 33.1651Z" fill="#06D6A0"/>
<path id="Vector_14" d="M46.2012 29.1373H47.5269V37.1921H46.2012V29.1373Z" fill="white"/>
<path id="Vector_15" d="M46.8642 37.8556C46.859 37.8556 46.8538 37.8556 46.849 37.8556C46.6719 37.8508 46.5043 37.7767 46.3829 37.6482L43.5518 34.6565L44.5143 33.7451L46.8862 36.2506L49.5118 33.7231L50.4313 34.6782L47.3238 37.6699C47.2005 37.7893 47.036 37.8556 46.8642 37.8556Z" fill="white"/>
</g>
</g>
<defs>
<clipPath id="clip0_262_17820">
<rect width="41.098" height="41.098" fill="white" transform="translate(13.3984 10.1176)"/>
</clipPath>
</defs>
</svg>
