<svg width="57" height="57" viewBox="0 0 57 57" fill="none" xmlns="http://www.w3.org/2000/svg">
<path d="M43.1731 15.4464C39.8692 10.3802 34.3832 7.35553 28.5005 7.35553C22.909 7.35553 17.5833 10.1468 14.2534 14.8225L12.7559 13.7559C16.4296 8.59672 22.3151 5.51685 28.5005 5.51685C35.0077 5.51685 41.0687 8.85304 44.7141 14.4418L43.1731 15.4464Z" fill="#024430"/>
<path d="M36.7598 44.0877L35.959 42.4318C40.9337 40.0279 44.6083 35.2831 45.7889 29.7388L47.5881 30.1221C46.2908 36.2172 42.2422 41.4384 36.7598 44.0877V44.0877Z" fill="#024430"/>
<path d="M20.2338 44.0843C14.7712 41.4421 10.728 36.2385 9.41992 30.1636L11.2173 29.7766C12.4069 35.3016 16.0766 40.0308 21.0347 42.4283L20.2338 44.0843Z" fill="#024430"/>
<path d="M22.832 44.0537V50.5645H34.1667V44.0537C34.1667 43.0132 33.3528 42.1702 32.3491 42.1702H30.7708L28.4989 45.9373L26.227 42.1702H24.6487C23.6459 42.1702 22.832 43.0132 22.832 44.0537V44.0537Z" fill="#06D6A0"/>
<path d="M34.1671 51.484H22.8334C22.3253 51.484 21.9141 51.0724 21.9141 50.5647V44.0539C21.9141 42.5074 23.1413 41.251 24.651 41.251H26.2293C26.5521 41.251 26.851 41.4202 27.0167 41.6958L28.5003 44.1567L29.9839 41.6958C30.1504 41.4202 30.4494 41.251 30.7712 41.251H32.3496C33.8592 41.251 35.0865 42.5083 35.0865 44.0539V50.5647C35.0865 51.0724 34.6753 51.484 34.1671 51.484ZM23.7527 49.6453H33.2478V44.0539C33.2478 43.5215 32.8451 43.0897 32.3496 43.0897H31.2906L29.2872 46.4119C28.9555 46.9645 28.0442 46.9645 27.7125 46.4119L25.709 43.0897H24.6501C24.1554 43.0897 23.7518 43.5224 23.7518 44.0539L23.7527 49.6453Z" fill="#024430"/>
<path d="M30.5919 47.8066L31.4075 46.4541V47.8066H30.5919ZM25.5898 47.8066V46.4541L26.4055 47.8066H25.5898Z" fill="#06D6A0"/>
<path d="M25.1934 36.5272V35.3763C25.1934 33.4752 26.6792 31.9233 28.5004 31.9233C30.3216 31.9233 31.8074 33.4743 31.8074 35.3763V36.5272C31.8074 38.4283 30.3216 39.9801 28.5004 39.9801C26.6792 39.9801 25.1934 38.4283 25.1934 36.5272V36.5272Z" fill="white"/>
<path d="M28.4998 40.8985C26.17 40.8985 24.2734 38.9377 24.2734 36.5262V35.3762C24.2734 32.9647 26.17 31.0039 28.4998 31.0039C30.8296 31.0039 32.7262 32.9647 32.7262 35.3762V36.5262C32.7262 38.9377 30.8296 40.8985 28.4998 40.8985V40.8985ZM28.4998 32.8426C27.1832 32.8426 26.1121 33.9787 26.1121 35.3762V36.5262C26.1121 37.9236 27.1832 39.0598 28.4998 39.0598C29.8164 39.0598 30.8875 37.9236 30.8875 36.5262V35.3762C30.8875 33.9787 29.8164 32.8426 28.4998 32.8426V32.8426Z" fill="#024430"/>
<path d="M9.77306 16.8623C9.11677 17.8719 7.93528 18.5506 6.58679 18.5506C5.23786 18.5506 4.05681 17.8719 3.40052 16.8623L1.36747 17.9702C1.09095 18.1219 0.919922 18.4007 0.919922 18.701V26.3134H12.2546V18.841C12.2546 18.556 12.101 18.2893 11.8461 18.134L9.77306 16.8623Z" fill="#FFD166"/>
<path d="M12.254 27.2336H0.91934C0.41074 27.2336 0 26.8215 0 26.3142V18.7019C0 18.0649 0.355975 17.4764 0.92742 17.1639L2.96047 16.0561C3.38243 15.8262 3.90809 15.9595 4.17115 16.3622C4.68019 17.1455 5.60627 17.6321 6.58621 17.6321C7.56705 17.6321 8.49267 17.1455 9.00127 16.3622C9.2733 15.9438 9.82679 15.8181 10.2523 16.079L12.3258 17.3507C12.8559 17.6761 13.1733 18.2332 13.1733 18.8419V26.3142C13.1733 26.8215 12.7621 27.2336 12.254 27.2336ZM1.83509 25.3949H11.3346V18.8419L9.99154 18.0568C9.11978 18.955 7.89968 19.4717 6.58621 19.4717C5.26421 19.4717 4.03782 18.9474 3.16427 18.0393L1.80636 18.7791L1.83509 25.3949Z" fill="#024430"/>
<path d="M3.67773 23.5563V20.6475C4.56386 21.0766 5.55502 21.3096 6.58658 21.3096C7.61815 21.3096 8.61021 21.0775 9.49633 20.6475V23.5563H3.67773Z" fill="#FFD166"/>
<path d="M3.2793 11.388V10.2366C3.2793 8.33553 4.76514 6.78369 6.58632 6.78369C8.40749 6.78369 9.89334 8.33463 9.89334 10.2366V11.388C9.89334 13.2891 8.40749 14.8409 6.58632 14.8409C4.76514 14.8409 3.2793 13.2891 3.2793 11.388Z" fill="white"/>
<path d="M6.58574 15.7603C4.25596 15.7603 2.35938 13.7991 2.35938 11.389V10.238C2.35938 7.82744 4.25596 5.86621 6.58574 5.86621C8.91641 5.86621 10.813 7.82744 10.813 10.238V11.389C10.813 13.7982 8.91641 15.7603 6.58574 15.7603ZM6.58574 7.70399C5.26912 7.70399 4.19806 8.8406 4.19806 10.2367V11.3881C4.19806 12.7855 5.26912 13.9208 6.58574 13.9208C7.90325 13.9208 8.97431 12.7842 8.97431 11.3881V10.2367C8.97431 8.8406 7.90325 7.70399 6.58574 7.70399Z" fill="#024430"/>
<path d="M55.5816 18.223L52.4752 16.7798L50.8349 19.9773C50.654 20.3301 50.1715 20.3301 49.991 19.9773L48.3507 16.7798L45.2776 18.065C44.9539 18.2001 44.7461 18.4991 44.7461 18.829V26.3143H56.0798V18.9726C56.0798 18.6553 55.8868 18.3657 55.5816 18.223Z" fill="#AEE6B9"/>
<path d="M56.0801 27.2337H44.7455C44.2374 27.2337 43.8262 26.8216 43.8262 26.3144V18.829C43.8262 18.1283 44.2567 17.4958 44.921 17.2175L47.9964 15.9323C48.4404 15.7492 48.9508 15.9341 49.1685 16.3606L50.4133 18.7859L51.6581 16.3606C51.8825 15.9211 52.4118 15.7366 52.8643 15.9471L55.9706 17.3903C56.5968 17.6808 57.0004 18.3025 57.0004 18.9736V26.3144C56.9995 26.8216 56.5887 27.2337 56.0801 27.2337ZM45.6604 25.395H55.1608V19.0414L52.8898 17.986L51.6527 20.3975C51.4098 20.8693 50.9353 21.1615 50.4124 21.1615C50.4115 21.1615 50.4115 21.1615 50.4106 21.1615C49.8885 21.1615 49.4131 20.8684 49.1721 20.3966L47.9201 17.9568L45.6307 18.9148L45.6604 25.395ZM55.194 19.0571H55.2039H55.194Z" fill="#024430"/>
<path d="M47.5039 23.5563V21.1704L47.538 21.2368C48.0942 22.3245 49.1967 23.0001 50.4137 23.0001C51.627 23.0001 52.7295 22.3254 53.2875 21.2395L53.3225 21.1713V23.5554L47.5039 23.5563Z" fill="#AEE6B9"/>
<path d="M47.127 11.3521V10.2012C47.127 8.29964 48.6124 6.7478 50.4335 6.7478C52.2547 6.7478 53.7405 8.29874 53.7405 10.2012V11.3521C53.7405 13.2532 52.2547 14.805 50.4335 14.805C48.6124 14.8041 47.127 13.2532 47.127 11.3521Z" fill="white"/>
<path d="M50.4338 15.7235C48.1036 15.7235 46.207 13.7627 46.207 11.3521V10.2011C46.207 7.79057 48.1036 5.82935 50.4338 5.82935C52.7636 5.82935 54.6602 7.79057 54.6602 10.2011V11.3521C54.6602 13.7627 52.7645 15.7235 50.4338 15.7235V15.7235ZM50.4338 7.66713C49.1163 7.66713 48.0457 8.80373 48.0457 10.2003V11.3512C48.0457 12.7486 49.1163 13.8839 50.4338 13.8839C51.7505 13.8839 52.8215 12.7477 52.8215 11.3512V10.2003C52.8215 8.80373 51.7505 7.66713 50.4338 7.66713V7.66713Z" fill="#024430"/>
</svg>
