<svg width="64" height="64" viewBox="0 0 64 64" fill="none" xmlns="http://www.w3.org/2000/svg">
<rect width="64" height="64" rx="32" fill="#FFE7BB"/>
<path d="M27.9993 38.6667V36M31.9993 38.6667V33.3333M35.9993 38.6667V30.6667M38.666 44H25.3327C24.6254 44 23.9472 43.719 23.4471 43.219C22.947 42.7189 22.666 42.0406 22.666 41.3333V22.6667C22.666 21.9594 22.947 21.2811 23.4471 20.781C23.9472 20.281 24.6254 20 25.3327 20H32.7807C33.1343 20.0001 33.4734 20.1406 33.7233 20.3907L40.942 27.6093C41.1921 27.8593 41.3326 28.1984 41.3327 28.552V41.3333C41.3327 42.0406 41.0517 42.7189 40.5516 43.219C40.0515 43.719 39.3733 44 38.666 44Z" stroke="#024430" stroke-width="2" stroke-linecap="round" stroke-linejoin="round"/>
</svg>
