<svg width="103" height="41" viewBox="0 0 103 41" fill="none" xmlns="http://www.w3.org/2000/svg">
<g clip-path="url(#clip0_1280_701)">
<mask id="mask0_1280_701" style="mask-type:luminance" maskUnits="userSpaceOnUse" x="0" y="0" width="103" height="41">
<path d="M102.98 0.34668H0.0859375V40.6012H102.98V0.34668Z" fill="white"/>
</mask>
<g mask="url(#mask0_1280_701)">
<path d="M0.0859375 0.34668H102.98V34.8506H51.533V40.6012H28.6677V34.8506H0.0859375V0.34668ZM5.80228 29.0999H17.235V11.848H22.9513V29.0999H28.6677V6.09733H5.80228V29.0999ZM34.384 6.09733V34.8506H45.8167V29.0999H57.2494V6.09733H34.384ZM45.8167 11.848H51.533V23.3492H45.8167V11.848ZM62.9657 6.09733V29.0999H74.3981V11.848H80.115V29.0999H85.8311V11.848H91.5472V29.0999H97.2634V6.09733H62.9657Z" fill="#CB3837"/>
<path d="M5.80469 29.1003H17.2374V11.8483H22.9537V29.1003H28.67V6.09766H5.80469V29.1003Z" fill="white"/>
<path d="M34.3828 6.09766V34.8509H45.8154V29.1003H57.2481V6.09766H34.3828ZM51.5318 23.3496H45.8154V11.8483H51.5318V23.3496Z" fill="white"/>
<path d="M62.9688 6.09766V29.1003H74.4012V11.8483H80.118V29.1003H85.8342V11.8483H91.5503V29.1003H97.2672V6.09766H62.9688Z" fill="white"/>
</g>
</g>
<defs>
<clipPath id="clip0_1280_701">
<rect width="103" height="41" fill="white"/>
</clipPath>
</defs>
</svg>
