<svg width="57" height="57" viewBox="0 0 57 57" fill="none" xmlns="http://www.w3.org/2000/svg">
<g clip-path="url(#clip0_151_16741)">
<path d="M45.7323 15.3948H25.1348V32.0038H45.7323C46.3702 32.0038 46.8877 31.5145 46.8877 30.9107L42.2663 23.6981L46.8877 16.487C46.8877 15.8836 46.3702 15.3948 45.7323 15.3948V15.3948Z" fill="white"/>
<path d="M45.7317 32.923H25.1342C24.626 32.923 24.2148 32.5109 24.2148 32.0037V15.3947C24.2148 14.887 24.626 14.4753 25.1342 14.4753H45.7317C46.8751 14.4753 47.8065 15.3781 47.8065 16.4878C47.8065 16.6633 47.7558 16.8352 47.6611 16.9843L43.357 23.6999L47.6611 30.4159C47.7558 30.5632 47.8065 30.7351 47.8065 30.9115C47.8065 32.0203 46.8751 32.923 45.7317 32.923V32.923ZM26.0536 31.0843H45.7317C45.7896 31.0843 45.8408 31.0677 45.8794 31.0439L41.4914 24.1946C41.2974 23.892 41.2974 23.505 41.4914 23.2025L45.8803 16.3545C45.8408 16.3298 45.7896 16.3141 45.7317 16.3141H26.0536V31.0843ZM46.8872 16.4878H46.8962H46.8872Z" fill="#024430"/>
<path d="M14.3231 0.919434H12.8942C11.3581 0.919434 10.1133 2.16424 10.1133 3.70039V53.2998C10.1133 54.8359 11.3581 56.0807 12.8942 56.0807H14.3231C15.8592 56.0807 17.1041 54.8359 17.1041 53.2998V3.70039C17.1041 2.16424 15.8584 0.919434 14.3231 0.919434V0.919434Z" fill="#D4DDE0"/>
<path d="M14.3225 57H12.8937C10.8539 57 9.19336 55.3395 9.19336 53.2997V3.70031C9.19336 1.6605 10.8539 0 12.8937 0H14.3225C16.3624 0 18.022 1.6605 18.022 3.70031V53.2997C18.0228 55.3395 16.3624 57 14.3225 57ZM12.8937 1.83871C11.867 1.83871 11.0321 2.67367 11.0321 3.70031V53.2997C11.0321 54.3263 11.867 55.1613 12.8937 55.1613H14.3225C15.3483 55.1613 16.1832 54.3263 16.1832 53.2997V3.70031C16.1841 2.67367 15.3483 1.83871 14.3225 1.83871H12.8937Z" fill="#024430"/>
<path d="M30.9469 8.83838H10.1133V25.4478H30.9469C31.4542 25.4478 31.8663 25.0357 31.8663 24.5285V9.75773C31.8663 9.24957 31.4542 8.83838 30.9469 8.83838Z" fill="white"/>
<path d="M30.9463 26.3673H10.1127C9.60411 26.3673 9.19336 25.9552 9.19336 25.448V8.83854C9.19336 8.33128 9.60411 7.91919 10.1127 7.91919H30.9463C31.9604 7.91919 32.785 8.74427 32.785 9.7579V24.5286C32.785 25.5427 31.9604 26.3673 30.9463 26.3673ZM11.0321 24.5286H30.9463V9.7579H11.0321V24.5286Z" fill="#024430"/>
<path d="M12.8711 11.5964H29.1079V22.6897H12.8711V11.5964Z" fill="#06D6A0"/>
<path d="M16.1836 12.2263H18.0223V22.0775H16.1836V12.2263Z" fill="white"/>
</g>
<defs>
<clipPath id="clip0_151_16741">
<rect width="57" height="57" fill="white"/>
</clipPath>
</defs>
</svg>
