<svg width="42" height="42" viewBox="0 0 42 42" fill="none" xmlns="http://www.w3.org/2000/svg">
<path fill-rule="evenodd" clip-rule="evenodd" d="M13.8768 9.12302C12.3391 9.42892 11.2695 10.7323 11.2695 12.3002V14.0618C11.2695 15.3958 10.1848 16.4805 8.85084 16.4805H3.64916C3.00407 16.4805 2.39679 16.2266 1.94078 15.7706C1.48477 15.3146 1.23047 14.7069 1.23047 14.0618V13.3106C1.23047 8.70434 4.19475 5.82348 8.24119 4.08901C8.65733 3.91068 9.07963 3.74661 9.50627 3.59527C11.6431 2.8373 13.9205 2.37923 16.1693 2.11239C17.7659 1.92289 19.3918 1.82282 21.0002 1.82282C22.609 1.82282 24.2355 1.92298 25.8325 2.11255C28.0822 2.37964 30.3603 2.83795 32.4977 3.5965C32.9232 3.74743 33.3442 3.91109 33.7591 4.08893C37.806 5.8234 40.7695 8.70409 40.7695 13.3106V14.0617C40.7695 14.7069 40.5159 15.3147 40.0595 15.7706C39.603 16.2265 38.9958 16.4804 38.3505 16.4804H33.1492C31.8152 16.4804 30.7309 15.3956 30.7309 14.0617V12.3001C30.7309 10.7323 29.6608 9.42875 28.1232 9.12294C25.7825 8.65733 23.3857 8.44586 21.0002 8.44586C18.6145 8.44594 16.2176 8.6575 13.8768 9.12302V9.12302ZM25.7498 30.2805C25.7498 32.7567 23.7357 34.7708 21.2595 34.7708C18.7831 34.7708 16.7687 32.757 16.7687 30.2805C16.7687 27.8041 18.7831 25.7901 21.2595 25.7901C23.7357 25.7902 25.7498 27.8042 25.7498 30.2805Z" fill="#06D6A0"/>
<path fill-rule="evenodd" clip-rule="evenodd" d="M40.3594 14.0619C40.3594 14.5963 40.1504 15.1002 39.7696 15.4806C39.3888 15.861 38.8853 16.0704 38.3504 16.0704H33.1491C32.0415 16.0704 31.1409 15.1695 31.1409 14.0619V12.3003C31.1409 10.5367 29.9322 9.06486 28.2031 8.72083C25.9186 8.26645 23.4951 8.03586 21.0002 8.03586C18.5051 8.03586 16.0813 8.26654 13.7968 8.72083C12.0673 9.06486 10.8595 10.5367 10.8595 12.3003V14.0619C10.8595 15.1695 9.95851 16.0704 8.85093 16.0704H3.64916C3.11464 16.0704 2.61122 15.8611 2.23076 15.4806C1.8503 15.1002 1.64054 14.5963 1.64054 14.0619V13.3107C1.64054 9.36485 3.91576 6.38909 8.40271 4.46611C13.1045 2.4506 18.7788 2.23306 21.0002 2.23306C23.2216 2.23306 28.8955 2.45052 33.5976 4.46611C38.085 6.38917 40.3594 9.36485 40.3594 13.3107V14.0619ZM39.7196 6.82254C38.4266 5.26132 36.5845 3.96137 34.2439 2.95788C29.2624 0.823184 23.3226 0.592512 21.0002 0.592512C18.6774 0.592512 12.7376 0.823184 7.75606 2.95788C5.4162 3.96137 3.57361 5.26132 2.2803 6.82254C0.767074 8.64839 0 10.8316 0 13.3107V14.0619C0 15.0344 0.380051 15.9505 1.07043 16.6405C1.76088 17.331 2.67652 17.711 3.64941 17.711H8.85076C10.8632 17.711 12.5003 16.0739 12.5003 14.0619V12.3003C12.5003 11.3297 13.1647 10.5196 14.1168 10.3304C16.2964 9.89658 18.6122 9.67682 21.0001 9.67682C23.3879 9.67682 25.7038 9.89666 27.8834 10.3301C28.8346 10.5198 29.5003 11.3297 29.5003 12.3003V14.062C29.5003 16.074 31.1366 17.711 33.149 17.711H38.3504C39.3232 17.711 40.2397 17.331 40.9293 16.6406C41.6201 15.9506 41.9998 15.0345 41.9998 14.062V13.3108C41.9999 10.8316 41.2333 8.64839 39.7196 6.82254V6.82254ZM37.2355 38.3125C36.5121 39.196 35.29 39.7669 34.1235 39.7669H7.87681C6.70999 39.7669 5.48855 39.196 4.76454 38.3125C4.40155 37.8697 4.00682 37.153 4.18712 36.2547L6.52075 24.6291C6.893 22.7753 8.05752 20.7943 10.2104 20.7943H14.0298C14.2976 20.7943 14.5484 20.6634 14.7021 20.444L17.2044 16.8661H24.7955L27.2983 20.444C27.4519 20.6634 27.7027 20.7943 27.9701 20.7943H31.7895C33.9428 20.7943 35.1069 22.7753 35.4796 24.6291L37.8132 36.2547C37.9936 37.153 37.5985 37.8697 37.2355 38.3125V38.3125ZM37.0881 24.3064C36.8036 22.8872 36.2146 21.6596 35.3852 20.7571C34.422 19.7083 33.1785 19.1537 31.7896 19.1537H28.3978L25.8951 15.5754C25.7414 15.3564 25.4906 15.2256 25.2232 15.2256H16.7775C16.5097 15.2256 16.2585 15.3564 16.1053 15.5754L13.6025 19.1537H10.2104C8.82189 19.1537 7.57838 19.7083 6.61475 20.7571C5.78583 21.6596 5.19717 22.8872 4.91228 24.3064L2.57865 35.932C2.33953 37.124 2.66495 38.3384 3.49543 39.3524C4.5342 40.6198 6.21264 41.4077 7.87672 41.4077H34.1235C35.7869 41.4077 37.4661 40.6198 38.5048 39.3524C39.335 38.3384 39.6604 37.1236 39.4216 35.932L37.0881 24.3064ZM21.2595 34.3608C23.5092 34.3608 25.3397 32.5306 25.3397 30.2805C25.3397 28.0304 23.5092 26.2003 21.2595 26.2003C19.0094 26.2003 17.1789 28.0304 17.1789 30.2805C17.1788 32.5306 19.0094 34.3608 21.2595 34.3608ZM21.2595 24.5598C18.105 24.5598 15.5384 27.1261 15.5384 30.2805C15.5384 33.435 18.105 36.0016 21.2595 36.0016C24.4143 36.0016 26.9802 33.435 26.9802 30.2805C26.9802 27.126 24.4143 24.5598 21.2595 24.5598Z" fill="#024430"/>
</svg>
