<svg width="11" height="12" viewBox="0 0 11 12" fill="none" xmlns="http://www.w3.org/2000/svg">
<path d="M7.30703 8.99961H10.307L9.46403 8.15661C9.35082 8.04338 9.26103 7.90895 9.19978 7.76102C9.13852 7.61308 9.10701 7.45453 9.10703 7.29441V5.39961C9.10712 4.65497 8.87638 3.92861 8.44657 3.32054C8.01676 2.71247 7.40902 2.25259 6.70703 2.00421V1.79961C6.70703 1.48135 6.5806 1.17612 6.35556 0.951081C6.13052 0.726038 5.82529 0.599609 5.50703 0.599609C5.18877 0.599609 4.88355 0.726038 4.6585 0.951081C4.43346 1.17612 4.30703 1.48135 4.30703 1.79961V2.00421C2.90903 2.49861 1.90703 3.83241 1.90703 5.39961V7.29501C1.90703 7.61781 1.77863 7.92801 1.55003 8.15661L0.707031 8.99961H3.70703M7.30703 8.99961V9.59961C7.30703 10.077 7.11739 10.5348 6.77982 10.8724C6.44226 11.21 5.98442 11.3996 5.50703 11.3996C5.02964 11.3996 4.5718 11.21 4.23424 10.8724C3.89667 10.5348 3.70703 10.077 3.70703 9.59961V8.99961M7.30703 8.99961H3.70703" stroke="#8EA4AC" stroke-width="1.2" stroke-linecap="round" stroke-linejoin="round"/>
</svg>
