<svg width="18" height="18" viewBox="0 0 18 18" fill="none" xmlns="http://www.w3.org/2000/svg">
<path d="M17.3331 9.20146C17.3331 8.63854 17.2775 8.05746 17.1849 7.5127H9.16406V10.7268H13.758C13.5727 11.7618 12.9615 12.6698 12.0538 13.2509L14.7953 15.3391C16.4069 13.8683 17.3331 11.7255 17.3331 9.20146Z" fill="#4280EF"/>
<path d="M9.16314 17.3364C11.4601 17.3364 13.3866 16.5919 14.7944 15.3208L12.0529 13.2507C11.2934 13.7591 10.3116 14.0497 9.16314 14.0497C6.94028 14.0497 5.06937 12.5788 4.38398 10.6177L1.56836 12.7423C3.01322 15.5569 5.93999 17.3364 9.16314 17.3364Z" fill="#34A353"/>
<path d="M4.38468 10.5999C4.03273 9.56486 4.03273 8.43902 4.38468 7.40396L1.56905 5.26123C0.365003 7.62187 0.365003 10.4002 1.56905 12.7426L4.38468 10.5999Z" fill="#F6B704"/>
<path d="M9.16314 3.97172C10.3672 3.95356 11.5527 4.40753 12.4233 5.22467L14.85 2.82772C13.3125 1.41133 11.2749 0.648662 9.16314 0.666821C5.93999 0.666821 3.01322 2.44638 1.56836 5.26099L4.38399 7.40373C5.06937 5.42442 6.94028 3.97172 9.16314 3.97172Z" fill="#E54335"/>
</svg>
