<svg width="161" height="34" viewBox="0 0 161 34" fill="none" xmlns="http://www.w3.org/2000/svg">
<mask id="mask0_1280_630" style="mask-type:luminance" maskUnits="userSpaceOnUse" x="0" y="0" width="161" height="34">
<path d="M160.765 0.287109H0.140625V33.6689H160.765V0.287109Z" fill="white"/>
</mask>
<g mask="url(#mask0_1280_630)">
<path d="M55.7266 25.3237H58.9617L59.7141 15.3842C59.7893 14.2075 59.7392 12.6052 59.7392 12.6052H59.7893C59.7893 12.6052 60.3408 14.3577 60.7671 15.3842L63.6262 22.2692H66.4598L69.3441 15.3842C69.7702 14.3577 70.2971 12.6302 70.2971 12.6302H70.3473C70.3473 12.6302 70.2971 14.2075 70.3721 15.3842L71.1244 25.3237H74.3345L72.9053 7.54785H69.4444L65.9582 16.3356C65.5569 17.3871 65.0807 18.9394 65.0807 18.9394H65.0306C65.0306 18.9394 64.529 17.3871 64.1277 16.3356L60.6417 7.54785H57.1811L55.7266 25.3237ZM76.8919 18.9394C76.8919 22.5697 79.5249 25.6241 83.7635 25.6241C86.9482 25.6241 88.9044 23.7965 88.9044 23.7965L87.6758 21.5181C87.6758 21.5181 86.0454 22.9202 83.9889 22.9202C82.0829 22.9202 80.3528 21.7685 80.1522 19.5403H88.9799C88.9799 19.5403 89.0549 18.689 89.0549 18.3135C89.0549 14.9336 87.0739 12.2547 83.387 12.2547C79.5751 12.2547 76.8919 15.0087 76.8919 18.9394ZM80.2525 17.3621C80.5535 15.7097 81.6817 14.7083 83.3121 14.7083C84.7165 14.7083 85.7946 15.6346 85.8448 17.3621H80.2525ZM92.2321 20.6419C92.2321 24.9231 95.7679 25.4489 97.5489 25.4489C98.1507 25.4489 98.5266 25.3737 98.5266 25.3737V22.5947C98.5266 22.5947 98.3012 22.6448 97.9501 22.6448C97.072 22.6448 95.4168 22.3443 95.4168 20.2413V15.2841H98.326V12.7554H95.4168V9.07507H92.3071V12.7554H90.5769V15.2841H92.2321V20.6419ZM101.134 25.3237H104.319V20.2663C104.319 19.5152 104.394 18.8142 104.595 18.1883C105.197 16.2855 106.726 15.5094 108.081 15.5094C108.507 15.5094 108.833 15.5595 108.833 15.5595V12.4299C108.833 12.4299 108.558 12.3799 108.257 12.3799C106.3 12.3799 104.77 13.832 104.194 15.6596H104.144C104.144 15.6596 104.194 15.234 104.194 14.7583V12.5551H101.134V25.3237ZM110.027 18.9394C110.027 22.8701 113.162 25.6241 117.074 25.6241C120.961 25.6241 124.096 22.8701 124.096 18.9394C124.096 15.0337 120.961 12.2547 117.049 12.2547C113.162 12.2547 110.027 15.0337 110.027 18.9394ZM113.262 18.9394C113.262 16.586 114.993 14.9586 117.074 14.9586C119.13 14.9586 120.861 16.586 120.861 18.9394C120.861 21.3179 119.13 22.9202 117.074 22.9202C114.993 22.9202 113.262 21.3179 113.262 18.9394ZM126.654 25.3237H129.839V19.4652C129.839 18.8643 129.889 18.2885 130.065 17.7627C130.541 16.2355 131.795 15.1589 133.501 15.1589C135.131 15.1589 135.532 16.2104 135.532 17.7627V25.3237H138.692V17.1117C138.692 13.7318 137.087 12.2547 134.253 12.2547C131.67 12.2547 130.265 13.832 129.714 14.9085H129.663C129.663 14.9085 129.714 14.508 129.714 14.0323V12.5551H126.654V25.3237ZM142.034 10.377H145.194V7.54785H142.034V10.377ZM142.034 25.3237H145.22V12.5551H142.034V25.3237ZM147.793 18.9394C147.793 22.6448 150.501 25.6241 154.739 25.6241C158.175 25.6241 160.006 23.5461 160.006 23.5461L158.777 21.2928C158.777 21.2928 157.172 22.9202 155.015 22.9202C152.582 22.9202 151.027 21.0675 151.027 18.9144C151.027 16.7362 152.558 14.9586 154.915 14.9586C156.921 14.9586 158.25 16.3356 158.25 16.3356L159.655 14.1575C159.655 14.1575 158.075 12.2547 154.739 12.2547C150.501 12.2547 147.793 15.3091 147.793 18.9394Z" fill="#333333"/>
<path d="M36.6372 1.94241L45.7184 30.17C46.2135 31.7091 45.0635 33.2836 43.4444 33.2836H36.7666C35.7259 33.2836 34.8051 32.6109 34.4901 31.6208L25.5121 3.39312C25.0231 1.85558 26.1727 0.287109 27.7886 0.287109H34.3631C35.4008 0.287109 36.3199 0.95605 36.6372 1.94241Z" fill="#E71272"/>
<g filter="url(#filter0_d_1280_630)">
<path d="M27.9373 22.8198L21.5337 2.34318C21.1512 1.12004 20.0167 0.287109 18.7331 0.287109C17.1708 0.287109 15.8825 1.50934 15.803 3.06699L15.0218 18.3725C14.9941 18.916 15.0598 19.4604 15.216 19.9818L18.6922 31.5825C18.9947 32.592 19.925 33.2836 20.9805 33.2836H24.2117C25.2514 33.2836 26.1715 32.6123 26.4873 31.6235L27.9243 27.1245C28.3712 25.725 28.3758 24.2221 27.9373 22.8198Z" fill="#4A73CF"/>
<path d="M27.9373 22.8198L21.5337 2.34318C21.1512 1.12004 20.0167 0.287109 18.7331 0.287109C17.1708 0.287109 15.8825 1.50934 15.803 3.06699L15.0218 18.3725C14.9941 18.916 15.0598 19.4604 15.216 19.9818L18.6922 31.5825C18.9947 32.592 19.925 33.2836 20.9805 33.2836H24.2117C25.2514 33.2836 26.1715 32.6123 26.4873 31.6235L27.9243 27.1245C28.3712 25.725 28.3758 24.2221 27.9373 22.8198Z" fill="#C8C8C8"/>
</g>
<path d="M12.2757 0.287109H18.8527C20.4633 0.287109 21.6122 1.84585 21.133 3.38086L12.2474 31.8493C11.9364 32.8457 11.0125 33.5245 9.96707 33.5245H3.39012C1.77959 33.5245 0.630683 31.9657 1.10979 30.4306L9.99543 1.96219C10.3065 0.965811 11.2304 0.287109 12.2757 0.287109Z" fill="#E61271"/>
</g>
<defs>
<filter id="filter0_d_1280_630" x="11.1585" y="0.287109" width="17.1071" height="35.889" filterUnits="userSpaceOnUse" color-interpolation-filters="sRGB">
<feFlood flood-opacity="0" result="BackgroundImageFix"/>
<feColorMatrix in="SourceAlpha" type="matrix" values="0 0 0 0 0 0 0 0 0 0 0 0 0 0 0 0 0 0 127 0" result="hardAlpha"/>
<feOffset dx="-3.85714" dy="2.89286"/>
<feComposite in2="hardAlpha" operator="out"/>
<feColorMatrix type="matrix" values="0 0 0 0 0.904167 0 0 0 0 0.892865 0 0 0 0 0.892865 0 0 0 0.4 0"/>
<feBlend mode="normal" in2="BackgroundImageFix" result="effect1_dropShadow_1280_630"/>
<feBlend mode="normal" in="SourceGraphic" in2="effect1_dropShadow_1280_630" result="shape"/>
</filter>
</defs>
</svg>
