<svg width="56" height="56" viewBox="0 0 56 56" fill="none" xmlns="http://www.w3.org/2000/svg">
<g clip-path="url(#clip0_1279_349)">
<path d="M46.9689 0.472656H8.48165C3.92681 0.472656 0.234375 4.16509 0.234375 8.71993V47.2072C0.234375 51.762 3.92681 55.4545 8.48165 55.4545H46.9689C51.5238 55.4545 55.2162 51.762 55.2162 47.2072V8.71993C55.2162 4.16509 51.5238 0.472656 46.9689 0.472656Z" fill="#BF1F29"/>
<path fill-rule="evenodd" clip-rule="evenodd" d="M0.234375 13.3678V16.0913L6.62601 16.2079C12.3301 16.312 13.1927 16.3887 14.6451 16.922C16.8961 17.7487 18.5425 18.759 20.2173 20.3411L21.6438 21.689L22.3852 20.2254C22.7932 19.4204 23.4177 18.3013 23.7732 17.738L24.4195 16.7142L23.1805 15.6723C21.2105 14.016 18.8793 12.7165 16.4081 11.8973C14.5044 11.2661 13.3742 11.0978 9.71873 10.9029C7.29954 10.7737 4.17602 10.663 2.77728 10.6563L0.234375 10.6445V13.3678ZM40.9209 11.4822C33.6108 13.3697 28.2283 18.6051 25.3707 26.6077C22.8894 33.556 18.9867 37.6576 13.5059 39.0781C12.2459 39.4044 10.4205 39.51 6.0366 39.51H0.234375V42.2915V45.073L6.48855 44.9344C13.4848 44.7797 14.8178 44.5455 18.5158 42.8193C24.034 40.2437 27.8218 35.7442 30.3163 28.8023C32.2984 23.2854 35.0926 19.763 39.0856 17.7474C41.6398 16.4577 43.6802 16.1529 49.7867 16.1474L55.2162 16.1427V13.5311V10.9194L49.0994 10.9345C43.9769 10.9472 42.6476 11.0362 40.9209 11.4822ZM32.7286 36.4219L31.3351 38.8227L32.5167 39.9223C34.1801 41.4704 36.3976 42.7327 39.1997 43.7268C41.6054 44.5801 41.6159 44.5812 48.4122 44.6818L55.2162 44.7824V42.1464V39.51H49.906C46.9854 39.51 43.8616 39.3769 42.9646 39.2142C40.6056 38.7867 37.6218 37.2609 35.7438 35.5224L34.1219 34.0209L32.7286 36.4219Z" fill="#FBF8F9"/>
</g>
<defs>
<clipPath id="clip0_1279_349">
<rect width="56" height="56" fill="white"/>
</clipPath>
</defs>
</svg>
