<svg width="48" height="48" viewBox="0 0 48 48" fill="none" xmlns="http://www.w3.org/2000/svg">
<g clip-path="url(#clip0_151_27086)">
<path d="M24.7188 25.8651L26.0827 25.1321L28.0624 28.8171L26.6985 29.5497L24.7188 25.8651Z" fill="#024430"/>
<path d="M17.4121 28.8611H30.5832V30.4095H17.4121V28.8611Z" fill="#024430"/>
<path d="M19.623 29.1113L21.9214 25.1091L23.2642 25.8803L20.9658 29.8824L19.623 29.1113Z" fill="#024430"/>
<path d="M9.12109 24.5557H38.8724V26.1041H9.12109V24.5557Z" fill="#024430"/>
<path d="M7.52344 23.7363V24.0976C7.52344 24.7781 8.07724 25.33 8.7592 25.33H39.2355C39.9182 25.33 40.4709 24.7781 40.4709 24.0976V20.0354H7.52344V23.7363Z" fill="#D4DDE0"/>
<path d="M39.2351 26.104H8.75876C7.65001 26.104 6.74805 25.2039 6.74805 24.0974V19.261H41.2446V24.0974C41.2446 25.2039 40.3427 26.104 39.2351 26.104V26.104ZM8.29719 20.8094V24.0974C8.29719 24.3499 8.50473 24.5556 8.75951 24.5556H39.2351C39.4895 24.5556 39.697 24.3499 39.697 24.0974V20.8094H8.29719Z" fill="#024430"/>
<path d="M39.2355 0.77417H8.7592C8.07649 0.77417 7.52344 1.32609 7.52344 2.00653V20.0353H40.4709V2.00653C40.4709 1.32609 39.9175 0.77417 39.2355 0.77417V0.77417Z" fill="white"/>
<path d="M41.2458 20.8095H6.75V2.00731C6.75 0.900454 7.65197 0 8.75995 0H39.2355C40.3439 0 41.2458 0.900454 41.2458 2.00731V20.8095ZM8.29839 19.2611H39.6982V2.00731C39.6975 1.75441 39.4907 1.54839 39.2363 1.54839H8.75995C8.50517 1.54839 8.29763 1.75441 8.29763 2.00731V19.2611H8.29839Z" fill="#024430"/>
<path d="M29.7761 10.5049C29.7761 7.3216 27.1893 4.74121 23.9984 4.74121C20.8075 4.74121 18.2207 7.3216 18.2207 10.5049C18.2207 13.6883 20.8075 16.2691 23.9984 16.2691C27.1893 16.2691 29.7761 13.6883 29.7761 10.5049Z" fill="#06D6A0"/>
<path d="M23.9972 17.0425C20.3848 17.0425 17.4453 14.1098 17.4453 10.5049C17.4453 6.90049 20.3848 3.96777 23.9972 3.96777C27.6096 3.96777 30.5484 6.90049 30.5484 10.5049C30.5484 14.1098 27.6096 17.0425 23.9972 17.0425ZM23.9972 5.5154C21.2388 5.5154 18.9937 7.75369 18.9937 10.5042C18.9937 13.2551 21.238 15.4934 23.9972 15.4934C26.7564 15.4934 29 13.2551 29 10.5042C29 7.75369 26.7564 5.5154 23.9972 5.5154Z" fill="#AEE6B9"/>
<path d="M26.0663 9.86646L23.3544 8.30408C22.8248 7.99902 22.1621 8.38082 22.1621 8.99057V12.1146C22.1621 12.7247 22.8248 13.1065 23.3544 12.8014L26.0663 11.2391C26.596 10.9348 26.596 10.1715 26.0663 9.86646Z" fill="white"/>
<path d="M26.8562 35.9769C26.8562 34.4523 25.6174 33.2166 24.089 33.2166C22.5611 33.2166 21.3223 34.4523 21.3223 35.9769C21.3223 37.5011 22.5611 38.7368 24.089 38.7368C25.6174 38.7368 26.8562 37.5011 26.8562 35.9769V35.9769Z" fill="white"/>
<path d="M24.0878 39.5103C22.1353 39.5103 20.5469 37.9245 20.5469 35.9769C20.5469 34.0274 22.1353 32.4424 24.0878 32.4424C26.0407 32.4424 27.6292 34.0282 27.6292 35.9769C27.6292 37.9245 26.0415 39.5103 24.0878 39.5103V39.5103ZM24.0878 33.99C22.9893 33.99 22.0953 34.8806 22.0953 35.9762C22.0953 37.0705 22.9893 37.9612 24.0878 37.9612C25.1867 37.9612 26.0808 37.0705 26.0808 35.9762C26.0808 34.8814 25.1867 33.99 24.0878 33.99V33.99Z" fill="#024430"/>
<path d="M29.7808 47.2257H18.2129V45.4536C18.2129 43.114 20.1144 41.217 22.4604 41.217H25.5227C27.8688 41.217 29.7702 43.114 29.7702 45.4536L29.7808 47.2257Z" fill="#06D6A0"/>
<path d="M30.5622 48H17.4395V45.4536C17.4395 42.6914 19.6917 40.4429 22.46 40.4429H25.5235C28.2922 40.4429 30.5444 42.6906 30.5444 45.4536L30.5622 48ZM18.9878 46.4516H29.0028L28.9968 45.4589C28.9968 43.5446 27.4389 41.9913 25.5243 41.9913H22.4611C20.5457 41.9913 18.9886 43.5446 18.9886 45.4536L18.9878 46.4516Z" fill="#024430"/>
<path d="M43.5202 35.9769C43.5202 34.4523 42.2814 33.2166 40.7535 33.2166C39.2251 33.2166 37.9863 34.4523 37.9863 35.9769C37.9863 37.5011 39.2251 38.7368 40.7535 38.7368C42.2814 38.7368 43.5202 37.5011 43.5202 35.9769V35.9769Z" fill="white"/>
<path d="M40.7535 39.5103C38.8017 39.5103 37.2129 37.9245 37.2129 35.9769C37.2129 34.0274 38.8017 32.4424 40.7535 32.4424C42.706 32.4424 44.2944 34.0282 44.2944 35.9769C44.2944 37.9245 42.706 39.5103 40.7535 39.5103V39.5103ZM40.7535 33.99C39.6549 33.99 38.7613 34.8806 38.7613 35.9762C38.7613 37.0705 39.6549 37.9612 40.7535 37.9612C41.852 37.9612 42.746 37.0705 42.746 35.9762C42.746 34.8814 41.852 33.99 40.7535 33.99V33.99Z" fill="#024430"/>
<path d="M46.4472 47.2257H34.8789V45.4536C34.8789 43.114 36.7804 41.217 39.1264 41.217H42.1891C44.5348 41.217 46.4362 43.114 46.4362 45.4536L46.4472 47.2257Z" fill="#06D6A0"/>
<path d="M47.2267 48H34.1055V45.4536C34.1055 42.6914 36.3577 40.4429 39.1264 40.4429H42.1891C44.9574 40.4429 47.2097 42.6906 47.2097 45.4536L47.2267 48ZM35.6539 46.4516H45.6681L45.662 45.4589C45.662 43.5446 44.1042 41.9913 42.1899 41.9913H39.1271C37.2117 41.9913 35.655 43.5446 35.655 45.4536L35.6539 46.4516Z" fill="#024430"/>
<path d="M10.1901 35.9769C10.1901 34.4523 8.95136 33.2166 7.42301 33.2166C5.89504 33.2166 4.65625 34.4523 4.65625 35.9769C4.65625 37.5011 5.89504 38.7368 7.42301 38.7368C8.95136 38.7368 10.1901 37.5011 10.1901 35.9769V35.9769Z" fill="white"/>
<path d="M7.42377 39.5103C5.47127 39.5103 3.88281 37.9245 3.88281 35.9769C3.88281 34.0274 5.47127 32.4424 7.42377 32.4424C9.3755 32.4424 10.9643 34.0282 10.9643 35.9769C10.9643 37.9245 9.3755 39.5103 7.42377 39.5103V39.5103ZM7.42377 33.99C6.32523 33.99 5.4312 34.8806 5.4312 35.9762C5.4312 37.0705 6.32523 37.9612 7.42377 37.9612C8.5223 37.9612 9.41595 37.0705 9.41595 35.9762C9.41595 34.8814 8.5223 33.99 7.42377 33.99V33.99Z" fill="#024430"/>
<path d="M13.1167 47.2257H1.54883V45.4536C1.54883 43.114 3.45029 41.217 5.79593 41.217H8.85868C11.2047 41.217 13.1062 43.114 13.1062 45.4536L13.1167 47.2257Z" fill="#06D6A0"/>
<path d="M13.8954 48H0.773438V45.4536C0.773438 42.6914 3.02571 40.4429 5.79398 40.4429H8.85673C11.6254 40.4429 13.8773 42.6906 13.8773 45.4536L13.8954 48ZM2.32182 46.4516H12.3368L12.3296 45.4589C12.3296 43.5446 10.7722 41.9913 8.85749 41.9913H5.79398C3.87966 41.9913 2.32182 43.5446 2.32182 45.4536V46.4516Z" fill="#024430"/>
</g>
<defs>
<clipPath id="clip0_151_27086">
<rect width="48" height="48" fill="white"/>
</clipPath>
</defs>
</svg>
