<svg width="56" height="56" viewBox="0 0 56 56" fill="none" xmlns="http://www.w3.org/2000/svg">
<path d="M27.9993 50.4C32.1579 50.4 36.1462 48.748 39.0868 45.8074C42.0273 42.8669 43.6793 38.8786 43.6793 34.72V21.28C43.6793 17.1214 42.0273 13.1331 39.0868 10.1926C36.1462 7.252 32.1579 5.60001 27.9993 5.60001C23.8407 5.60001 19.8525 7.252 16.9119 10.1926C13.9713 13.1331 12.3193 17.1214 12.3193 21.28V34.72C12.3193 38.8786 13.9713 42.8669 16.9119 45.8074C19.8525 48.748 23.8407 50.4 27.9993 50.4ZM14.5593 21.28C14.5593 17.7155 15.9753 14.297 18.4958 11.7765C21.0163 9.256 24.4348 7.84001 27.9993 7.84001C31.5638 7.84001 34.9824 9.256 37.5029 11.7765C40.0233 14.297 41.4393 17.7155 41.4393 21.28V34.72C41.4393 38.2845 40.0233 41.703 37.5029 44.2235C34.9824 46.744 31.5638 48.16 27.9993 48.16C24.4348 48.16 21.0163 46.744 18.4958 44.2235C15.9753 41.703 14.5593 38.2845 14.5593 34.72V21.28Z" fill="#024430"/>
<path d="M27.2552 39.0605H27.3223L27.4713 39.217C27.5406 39.2868 27.623 39.3423 27.7138 39.3801C27.8046 39.4179 27.902 39.4374 28.0004 39.4374C28.0988 39.4374 28.1962 39.4179 28.287 39.3801C28.3778 39.3423 28.4603 39.2868 28.5295 39.217L28.6786 39.0605H28.7456V38.9934L33.0009 34.7456L31.9426 33.6874L28.7456 36.8919V29H27.2552V36.8919L24.0582 33.6874L23 34.7456L27.2552 38.9934V39.0605Z" fill="#024430"/>
<circle cx="28" cy="19" r="2" fill="#024430"/>
</svg>
