<svg width="107" height="40" viewBox="0 0 107 40" fill="none" xmlns="http://www.w3.org/2000/svg">
<g opacity="0.8">
<path d="M20.8029 14.8875C23.4154 14.8875 25.0445 13.425 25.0445 11.375V11.3208C25.0445 9.02081 23.3862 7.80831 20.8029 7.80831H16.7862V14.8875H20.8029ZM13.332 4.66248H21.082C25.6612 4.66248 28.5529 7.27498 28.5529 11.2333V11.2875C28.5529 15.7 25.0112 18 20.6904 18H16.7862V24.3208H13.332V4.66248ZM29.5487 4.81248H32.9445V24.325H29.5487V4.81248ZM44.757 18.1167C43.6695 17.7167 42.5195 17.5167 41.357 17.525C39.2237 17.525 37.957 18.3958 37.957 19.825V19.8792C37.957 21.2833 39.2195 22.0708 40.8237 22.0708C43.0695 22.0708 44.7528 20.8083 44.7528 18.9542V18.1167H44.757ZM44.6737 24.325V22.5C43.4862 23.9125 41.7153 24.7 39.8737 24.6333C37.0653 24.6333 34.5904 23.0333 34.5904 20.0542V20C34.5904 16.7125 37.1445 15.1416 40.6028 15.1416C41.9945 15.1166 43.382 15.325 44.7028 15.7583V15.4792C44.7028 13.4291 43.4112 12.3041 41.0528 12.3041C39.5903 12.3083 38.1445 12.625 36.8112 13.2291L35.882 10.5041C37.6445 9.66248 39.5778 9.24165 41.5278 9.26665C45.907 9.26665 48.0445 11.5666 48.0445 15.5291V24.3167L44.6737 24.325ZM48.9278 16.9958V16.9417C48.8695 12.7166 52.2445 9.24581 56.4695 9.18748C56.5195 9.18748 56.5737 9.18748 56.6237 9.18748C58.8862 9.08748 61.0695 10.0291 62.5487 11.7416L60.4445 14.0166C59.5028 12.8541 58.0903 12.1708 56.5945 12.1625C54.1237 12.1625 52.3237 14.2958 52.3237 16.8791V16.9375C52.3237 19.575 54.1487 21.7125 56.7612 21.7125C58.2487 21.6708 59.6487 20.9958 60.607 19.8583L62.657 21.8833C59.8987 25.175 54.9945 25.6042 51.7028 22.8458C49.9737 21.3917 48.9612 19.2542 48.9278 16.9958ZM73.7403 15.8708C73.5153 13.6791 72.2237 11.9666 69.9778 11.9666C67.9028 11.9666 66.4403 13.5666 66.132 15.8708H73.7403ZM62.7612 16.9667V16.9125C62.7612 12.6708 65.7653 9.18748 70.007 9.18748C74.7278 9.18748 77.1112 12.8958 77.1112 17.1625C77.1112 17.4708 77.082 17.775 77.057 18.1167H66.157C66.357 20.3042 68.2278 21.9583 70.4278 21.8792C71.957 21.8875 73.4195 21.2417 74.4445 20.1083L76.4362 21.8792C74.9612 23.7042 72.7153 24.7333 70.3695 24.6583C66.2862 24.7792 62.8778 21.5667 62.757 17.4833C62.7528 17.3083 62.7528 17.1375 62.7612 16.9667ZM89.9903 16.9375V16.8791C89.9903 14.0166 87.9695 12.1333 85.6987 12.1333C83.3653 12.1333 81.4278 13.9291 81.4278 16.8791V16.9375C81.4278 19.8 83.3945 21.6833 85.6987 21.6833C87.9695 21.6833 89.9903 19.775 89.9903 16.9375ZM77.9945 16.9375V16.8791C77.9945 11.9666 81.3362 9.18331 84.8737 9.18331C86.8862 9.17498 88.7737 10.15 89.9278 11.7958V4.81248H93.332V24.3208H89.932V21.85C88.8403 23.5875 86.9278 24.6417 84.8778 24.6292C81.3945 24.6333 77.9945 21.85 77.9945 16.9375Z" fill="#024430"/>
<path opacity="0.5" d="M54.5487 28.6334H53.2487C53.1612 28.6334 53.0903 28.7043 53.0903 28.7918V32.1209C53.0903 32.6584 52.8695 32.9543 52.3737 32.9543C51.8778 32.9543 51.657 32.6626 51.657 32.1209V28.7918C51.6612 28.7084 51.5945 28.6334 51.5112 28.6334C51.507 28.6334 51.5028 28.6334 51.4987 28.6334H50.1862C50.0987 28.6334 50.0279 28.7043 50.0279 28.7918V32.4418C50.0279 33.5668 50.8445 34.4834 52.3612 34.4834C53.8945 34.4834 54.7237 33.5793 54.7237 32.4418V28.7918C54.7195 28.7001 54.6445 28.6293 54.5528 28.6293C54.5528 28.6334 54.5528 28.6334 54.5487 28.6334ZM63.9778 30.9668L63.0278 30.6459C62.7487 30.5459 62.7195 30.3959 62.7195 30.2959C62.7195 30.1501 62.8653 30.0043 63.1445 30.0043C63.5695 30.0084 63.9778 30.1543 64.3112 30.4126C64.3695 30.4584 64.4528 30.4543 64.4987 30.4001L65.2278 29.4793C65.2778 29.4168 65.2695 29.3293 65.2153 29.2751C64.6278 28.7959 63.8862 28.5459 63.1278 28.5584C61.7695 28.5584 60.9528 29.4001 60.9528 30.3209C60.9612 31.1126 61.4987 31.8043 62.2653 32.0001L63.0987 32.2918C63.507 32.4376 63.582 32.5376 63.582 32.7168C63.582 32.8751 63.4237 33.0543 63.0862 33.0543C62.5778 33.0126 62.0987 32.8084 61.7153 32.4709C61.657 32.4251 61.5737 32.4293 61.5278 32.4834L60.782 33.4751C60.7362 33.5376 60.7403 33.6251 60.7945 33.6793C61.457 34.2293 62.2987 34.5168 63.157 34.4959C64.4278 34.4959 65.3612 33.7501 65.3612 32.6418C65.3445 31.8334 64.7737 31.1376 63.9778 30.9668ZM58.0237 31.0834H57.182V30.0918H58.0237C58.507 30.0918 58.682 30.3126 58.682 30.5876C58.682 30.8668 58.4903 31.0834 58.0237 31.0834ZM59.307 32.2334C59.9737 31.9501 60.3945 31.2793 60.357 30.5543C60.3112 29.4501 59.382 28.5918 58.2778 28.6334C58.2362 28.6334 58.1945 28.6376 58.1529 28.6418H55.657C55.5737 28.6501 55.5112 28.7168 55.5112 28.8001V34.2293C55.5112 34.3084 55.5778 34.3751 55.657 34.3751H56.9987C57.0778 34.3751 57.1445 34.3084 57.1445 34.2293V32.4793H57.6695L58.6195 34.2418C58.6653 34.3209 58.7487 34.3668 58.8403 34.3709H60.3862C60.4737 34.3709 60.5028 34.3126 60.4612 34.2418L59.307 32.2334ZM43.0362 28.6334H39.1404C39.0404 28.6293 38.957 28.7043 38.9529 28.8043V28.8084V34.2084C38.9529 34.2959 39.0237 34.3668 39.1112 34.3668H40.4237C40.507 34.3584 40.5695 34.2918 40.5695 34.2084V32.4584H42.232C42.3195 32.4584 42.3945 32.4001 42.407 32.3126L42.657 31.1168C42.6779 31.0584 42.6445 30.9959 42.5904 30.9751C42.5737 30.9709 42.557 30.9668 42.5404 30.9709H40.5862V30.0959H42.7904C42.8779 30.0959 42.9529 30.0376 42.9654 29.9501L43.1945 28.8251C43.2112 28.7376 43.1529 28.6543 43.0654 28.6376C43.0529 28.6376 43.0445 28.6334 43.0362 28.6334ZM92.9195 30.1084C93.007 30.1084 93.082 30.0501 93.0945 29.9626L93.3237 28.8376C93.3362 28.7376 93.3237 28.6501 93.1778 28.6501H89.2528C89.1612 28.6459 89.082 28.7168 89.0778 28.8126C89.0778 28.8168 89.0778 28.8209 89.0778 28.8251V34.2251C89.0778 34.3126 89.1487 34.3834 89.2362 34.3834H92.8112C92.8987 34.3834 92.9737 34.3251 92.9862 34.2376L93.2153 33.1126C93.2278 33.0126 93.2153 32.9251 93.0695 32.9251H90.6945V32.2668H92.357C92.4445 32.2668 92.5195 32.2084 92.532 32.1209L92.782 30.9251C92.8028 30.8668 92.7695 30.8043 92.7153 30.7834C92.6987 30.7793 92.682 30.7751 92.6653 30.7793H90.6945V30.1209H92.9153L92.9195 30.1084ZM80.1362 31.8876H79.6112L80.1362 30.1376L80.6612 31.8876H80.1362ZM81.2153 28.7626C81.1903 28.6876 81.1195 28.6334 81.0403 28.6334H79.2445C79.1653 28.6334 79.0945 28.6876 79.0695 28.7626L77.4153 34.2334C77.3903 34.2834 77.4153 34.3459 77.4653 34.3709C77.482 34.3793 77.4987 34.3834 77.5195 34.3793H78.9945C79.0778 34.3709 79.1487 34.3126 79.1695 34.2334L79.3987 33.4001H80.8737L81.1237 34.2334C81.1445 34.3126 81.2153 34.3709 81.2987 34.3793H82.757C82.8195 34.3751 82.8695 34.3209 82.8612 34.2584C82.8612 34.2501 82.8612 34.2418 82.857 34.2334L81.2153 28.7626ZM76.9653 28.6334H75.6653C75.5778 28.6334 75.507 28.7043 75.507 28.7918V32.1209C75.507 32.6584 75.2862 32.9543 74.7903 32.9543C74.2945 32.9543 74.0737 32.6626 74.0737 32.1209V28.7918C74.0778 28.7084 74.0112 28.6334 73.9278 28.6334C73.9237 28.6334 73.9195 28.6334 73.9153 28.6334H72.6153C72.5278 28.6334 72.457 28.7043 72.457 28.7918V32.4418C72.457 33.5668 73.2737 34.4834 74.7903 34.4834C76.3237 34.4834 77.1528 33.5793 77.1528 32.4418V28.7918C77.1362 28.7043 77.057 28.6418 76.9653 28.6334ZM85.9403 31.0834H85.0987V30.0918H85.9403C86.407 30.0918 86.5987 30.3126 86.5987 30.5876C86.5987 30.8668 86.4112 31.0834 85.9403 31.0834ZM87.2278 32.2334C87.8987 31.9501 88.3153 31.2793 88.2778 30.5543C88.232 29.4501 87.3028 28.5918 86.1987 28.6334C86.157 28.6334 86.1153 28.6376 86.0737 28.6418H83.5778C83.4945 28.6501 83.432 28.7168 83.432 28.8001V34.2293C83.432 34.3084 83.4987 34.3751 83.5778 34.3751H84.9237C85.0028 34.3751 85.0695 34.3084 85.0695 34.2293V32.4793H85.5945L86.5445 34.2418C86.5903 34.3209 86.6737 34.3668 86.7653 34.3709H88.3112C88.3987 34.3709 88.4278 34.3126 88.3862 34.2418L87.2278 32.2334ZM68.7653 32.9668C67.9612 33.0876 67.207 32.5334 67.0862 31.7293C66.9653 30.9251 67.5195 30.1709 68.3237 30.0501C69.1278 29.9293 69.882 30.4834 70.0028 31.2876C70.0153 31.3626 70.0195 31.4376 70.0195 31.5126C70.0862 32.2501 69.5445 32.9001 68.807 32.9668C68.7945 32.9668 68.7778 32.9668 68.7653 32.9668ZM71.7403 33.6668C71.4487 33.7834 71.1278 33.8084 70.8195 33.7418C70.8778 33.6834 70.9362 33.6418 70.9945 33.5834C71.7612 32.7459 71.9945 31.5543 71.607 30.4918C71.1903 29.4084 70.182 28.6626 69.0237 28.5793C67.3903 28.4043 65.9237 29.5876 65.7487 31.2209C65.6612 32.0334 65.9112 32.8459 66.4403 33.4668C67.1403 34.2459 68.1903 34.6209 69.2278 34.4584L69.2695 34.5001C69.9028 35.0376 70.7028 35.3293 71.532 35.3334L71.8528 33.7584C71.8612 33.7001 71.8153 33.6418 71.7403 33.6668ZM46.3487 32.9668C45.5445 33.0876 44.7904 32.5334 44.6695 31.7293C44.5487 30.9251 45.1029 30.1709 45.907 30.0501C46.7112 29.9293 47.4654 30.4834 47.5862 31.2876C47.5987 31.3626 47.6029 31.4376 47.6029 31.5126C47.682 32.2334 47.1654 32.8834 46.4445 32.9626C46.4112 32.9626 46.382 32.9668 46.3487 32.9668ZM46.6112 28.5584C44.9779 28.3834 43.5112 29.5668 43.3362 31.2001C43.2487 32.0126 43.4987 32.8251 44.0279 33.4459C45.207 34.7334 47.207 34.8251 48.4945 33.6459C48.5237 33.6168 48.5529 33.5918 48.582 33.5626C49.707 32.3668 49.6487 30.4834 48.4529 29.3584C47.9487 28.8876 47.2987 28.6043 46.6112 28.5584ZM15.007 29.5584C15.1695 29.6501 15.307 29.7834 15.3945 29.9501C15.582 30.3126 15.582 30.7376 15.3945 31.1001C15.307 31.2626 15.1737 31.4001 15.0112 31.4918C14.8404 31.5876 14.6487 31.6334 14.457 31.6293C14.2904 31.6334 14.1279 31.5959 13.982 31.5209C13.8404 31.4459 13.7195 31.3376 13.632 31.2001V32.4084H13.332V29.4334H13.6112V29.8626C13.6945 29.7209 13.8154 29.6084 13.9612 29.5334C14.1112 29.4543 14.282 29.4168 14.4487 29.4168C14.6445 29.4168 14.8362 29.4626 15.007 29.5584ZM14.8445 31.2626C14.9695 31.1918 15.0695 31.0876 15.1362 30.9626C15.207 30.8251 15.2445 30.6751 15.2404 30.5209C15.2445 30.3668 15.207 30.2168 15.1362 30.0793C15.0695 29.9543 14.9695 29.8501 14.8445 29.7793C14.7195 29.7084 14.5779 29.6709 14.432 29.6709C14.2862 29.6668 14.1445 29.7043 14.0154 29.7793C13.8945 29.8501 13.7945 29.9543 13.7279 30.0793C13.657 30.2126 13.6195 30.3668 13.6237 30.5209C13.6195 30.6751 13.657 30.8251 13.7279 30.9626C13.7945 31.0876 13.8945 31.1918 14.0154 31.2626C14.1404 31.3334 14.2862 31.3709 14.432 31.3668C14.5737 31.3709 14.7195 31.3334 14.8445 31.2626ZM16.3737 31.4876C16.207 31.3959 16.0695 31.2584 15.9779 31.0918C15.7862 30.7376 15.7862 30.3084 15.9779 29.9501C16.0695 29.7834 16.207 29.6501 16.3737 29.5584C16.7279 29.3709 17.1529 29.3709 17.507 29.5584C17.6737 29.6501 17.807 29.7876 17.9029 29.9501C18.0945 30.3043 18.0945 30.7334 17.9029 31.0918C17.8112 31.2584 17.6737 31.3959 17.507 31.4876C17.1487 31.6751 16.7237 31.6751 16.3737 31.4876ZM17.3529 31.2626C17.4737 31.1918 17.5737 31.0876 17.6404 30.9626C17.7779 30.6834 17.7779 30.3584 17.6404 30.0793C17.5737 29.9543 17.4779 29.8501 17.3529 29.7793C17.0945 29.6376 16.782 29.6376 16.5237 29.7793C16.4029 29.8501 16.2987 29.9543 16.2362 30.0793C16.0945 30.3584 16.0945 30.6834 16.2362 30.9626C16.3029 31.0876 16.4029 31.1918 16.5237 31.2626C16.782 31.4043 17.0945 31.4043 17.3529 31.2626ZM21.682 29.4334L20.8612 31.6043H20.5862L19.8987 29.8251L19.2112 31.6043H18.9362L18.1154 29.4334H18.3945L19.0779 31.2793L19.7779 29.4334H20.032L20.7237 31.2793L21.4154 29.4334H21.682V29.4334ZM23.8737 30.6126H22.057C22.0654 30.8209 22.1612 31.0209 22.3154 31.1584C22.482 31.3001 22.6945 31.3751 22.9112 31.3668C23.0404 31.3668 23.1654 31.3418 23.282 31.2959C23.3945 31.2459 23.4945 31.1751 23.5737 31.0834L23.7404 31.2751C23.6445 31.3918 23.5195 31.4834 23.3779 31.5376C23.2279 31.6001 23.0654 31.6293 22.9029 31.6293C22.6945 31.6334 22.4904 31.5834 22.3112 31.4876C22.1445 31.3959 22.0029 31.2584 21.907 31.0918C21.807 30.9168 21.757 30.7209 21.7612 30.5209C21.757 30.3209 21.807 30.1251 21.8987 29.9501C21.9862 29.7876 22.1195 29.6501 22.282 29.5584C22.4487 29.4626 22.6362 29.4168 22.8237 29.4168C23.0154 29.4126 23.1987 29.4626 23.3654 29.5584C23.5237 29.6501 23.6529 29.7876 23.7404 29.9501C23.832 30.1251 23.882 30.3209 23.8779 30.5209L23.8737 30.6126ZM22.2987 29.8709C22.157 30.0084 22.0695 30.1959 22.057 30.3918H23.5987C23.5862 30.1918 23.5029 30.0084 23.357 29.8709C23.0529 29.6043 22.5987 29.6043 22.2987 29.8709ZM24.982 29.5293C25.1404 29.4501 25.3112 29.4126 25.4862 29.4168V29.7001H25.4154C25.2154 29.6876 25.0195 29.7668 24.8779 29.9126C24.7404 30.0793 24.6695 30.2876 24.682 30.5043V31.6126H24.3904V29.4418H24.6695V29.8668C24.7362 29.7209 24.8445 29.6043 24.982 29.5293ZM27.8029 30.6126H25.9862C25.9945 30.8209 26.0904 31.0209 26.2445 31.1584C26.4112 31.3001 26.6237 31.3751 26.8404 31.3668C26.9695 31.3668 27.0945 31.3418 27.2112 31.2959C27.3237 31.2459 27.4237 31.1751 27.5029 31.0834L27.6695 31.2751C27.5737 31.3918 27.4487 31.4834 27.307 31.5376C27.157 31.6001 26.9945 31.6293 26.832 31.6293C26.6237 31.6334 26.4195 31.5834 26.2404 31.4876C26.0737 31.3959 25.932 31.2584 25.8362 31.0918C25.7362 30.9168 25.6862 30.7209 25.6904 30.5209C25.6862 30.3209 25.7362 30.1251 25.8279 29.9501C25.9154 29.7876 26.0487 29.6501 26.2112 29.5584C26.5487 29.3709 26.957 29.3709 27.2945 29.5584C27.4529 29.6501 27.582 29.7876 27.6695 29.9501C27.7612 30.1251 27.8112 30.3209 27.807 30.5209L27.8029 30.6126ZM26.2279 29.8709C26.0862 30.0084 25.9987 30.1959 25.9862 30.3918H27.5279C27.5154 30.1918 27.4279 30.0084 27.2862 29.8709C26.982 29.6043 26.532 29.6043 26.2279 29.8709ZM30.307 28.5459V31.6126H30.0279V31.1834C29.9445 31.3251 29.8237 31.4418 29.6779 31.5168C29.5279 31.5959 29.357 31.6334 29.1904 31.6334C28.9987 31.6376 28.807 31.5876 28.6362 31.4918C28.4737 31.4001 28.3404 31.2626 28.2487 31.1001C28.0612 30.7418 28.0612 30.3084 28.2487 29.9501C28.3404 29.7876 28.4737 29.6501 28.6362 29.5584C28.807 29.4668 28.9945 29.4168 29.1904 29.4209C29.357 29.4168 29.5195 29.4543 29.6654 29.5293C29.807 29.6043 29.9279 29.7126 30.0154 29.8501V28.5459H30.307ZM29.6237 31.2668C29.7445 31.1959 29.8487 31.0918 29.9112 30.9668C30.0529 30.6876 30.0529 30.3626 29.9112 30.0834C29.8445 29.9584 29.7445 29.8543 29.6237 29.7834C29.3654 29.6418 29.057 29.6418 28.7987 29.7834C28.6779 29.8543 28.5737 29.9584 28.5112 30.0834C28.3695 30.3626 28.3695 30.6876 28.5112 30.9668C28.5779 31.0918 28.6779 31.1959 28.7987 31.2668C29.057 31.4084 29.3654 31.4084 29.6237 31.2668ZM33.7154 29.5584C33.8779 29.6501 34.0154 29.7834 34.1029 29.9501C34.2904 30.3084 34.2904 30.7418 34.1029 31.1001C34.0112 31.2626 33.8779 31.4001 33.7154 31.4918C33.5445 31.5876 33.357 31.6334 33.1612 31.6334C32.9904 31.6376 32.8237 31.5959 32.6737 31.5168C32.5279 31.4376 32.407 31.3251 32.3237 31.1834V31.6126H32.0445V28.5418H32.3362V29.8459C32.4237 29.7084 32.5404 29.6001 32.6862 29.5251C32.832 29.4501 32.9987 29.4126 33.1612 29.4168C33.3529 29.4168 33.5445 29.4626 33.7154 29.5584ZM33.5529 31.2626C33.6779 31.1918 33.7779 31.0876 33.8445 30.9626C33.9862 30.6834 33.9862 30.3584 33.8445 30.0793C33.7779 29.9543 33.6779 29.8501 33.5529 29.7793C33.2945 29.6376 32.982 29.6376 32.7237 29.7793C32.6029 29.8501 32.4987 29.9543 32.4362 30.0793C32.2945 30.3584 32.2945 30.6834 32.4362 30.9626C32.5029 31.0876 32.6029 31.1918 32.7237 31.2626C32.982 31.4043 33.2945 31.4043 33.5529 31.2626ZM36.5237 29.4334L35.4362 31.8668C35.3737 32.0376 35.2695 32.1834 35.1279 32.3001C35.007 32.3876 34.8612 32.4334 34.7112 32.4293C34.6112 32.4293 34.5112 32.4126 34.4195 32.3793C34.332 32.3459 34.2487 32.2959 34.1862 32.2293L34.3237 32.0084C34.4279 32.1168 34.5695 32.1751 34.7195 32.1751C34.8112 32.1793 34.8987 32.1501 34.9737 32.0918C35.0612 32.0126 35.1279 31.9168 35.1695 31.8126L35.2654 31.6001L34.2945 29.4334H34.6029L35.4154 31.2793L36.232 29.4334H36.5237Z" fill="#024430"/>
</g>
</svg>
