<svg width="42" height="42" viewBox="0 0 42 42" fill="none" xmlns="http://www.w3.org/2000/svg">
<g clip-path="url(#clip0_1149_188)">
<mask id="mask0_1149_188" style="mask-type:luminance" maskUnits="userSpaceOnUse" x="0" y="0" width="42" height="42">
<path d="M42 0H0V42H42V0Z" fill="white"/>
</mask>
<g mask="url(#mask0_1149_188)">
<path d="M23.5616 15.5391H18.4499C18.7525 16.4338 18.5448 17.4195 17.9044 18.1221L17.4688 18.5997H24.542L24.1063 18.1221C23.4666 17.4202 23.2583 16.4338 23.5616 15.5391Z" fill="#D5F0FC"/>
<path d="M24.539 19.2782H17.4664C17.1981 19.2782 16.955 19.1204 16.8469 18.8743C16.7384 18.6292 16.785 18.3427 16.9653 18.1443L17.4009 17.6666C17.8736 17.1483 18.0281 16.4167 17.8051 15.7574C17.7353 15.551 17.7694 15.3228 17.8967 15.1458C18.0241 14.9685 18.2285 14.8633 18.4475 14.8633H23.5592C23.7775 14.8633 23.9826 14.9685 24.1099 15.1458C24.2373 15.3235 24.2714 15.5517 24.2016 15.7574C23.978 16.4173 24.1331 17.149 24.6051 17.6666L25.0407 18.1443C25.2217 18.3427 25.2676 18.6292 25.1595 18.8743C25.0503 19.1204 24.8072 19.2782 24.539 19.2782ZM18.8676 17.9233H23.1371C22.8547 17.3997 22.7207 16.8089 22.7485 16.2175H19.2569C19.284 16.8096 19.15 17.3997 18.8676 17.9233Z" fill="#464646"/>
<path d="M10.8984 14.5756V14.7942C10.8984 15.206 11.2377 15.5401 11.6565 15.5401H30.3543C30.7731 15.5401 31.1125 15.206 31.1125 14.7942V12.3359H10.8984V14.5756Z" fill="#D5F0FC"/>
<path d="M30.3521 16.216H11.6544C10.8629 16.216 10.2188 15.5779 10.2188 14.792V12.3337C10.2188 11.9589 10.5221 11.6562 10.8962 11.6562H31.1103C31.4844 11.6562 31.7878 11.9589 31.7878 12.3337V14.792C31.7878 15.5779 31.1437 16.216 30.3521 16.216ZM11.5737 13.0118V14.7927C11.5737 14.8307 11.6094 14.8618 11.6544 14.8618H30.3521C30.3971 14.8618 30.4328 14.8307 30.4328 14.7927V13.0118H11.5737Z" fill="#464646"/>
<path d="M30.3543 0.677734H11.6565C11.2377 0.677734 10.8984 1.01181 10.8984 1.42362V12.3347H31.1125V1.42362C31.1125 1.01181 30.7731 0.677734 30.3543 0.677734Z" fill="#D5F0FC"/>
<path d="M31.1103 13.0125H10.8962C10.5221 13.0125 10.2188 12.7099 10.2188 12.3351V1.42397C10.2188 0.638058 10.8629 0 11.6544 0H30.3521C31.1437 0 31.7878 0.638058 31.7878 1.42397V12.3351C31.7878 12.7099 31.4844 13.0125 31.1103 13.0125ZM11.5737 11.6577H30.4328V1.42397C30.4328 1.38593 30.3971 1.35484 30.3521 1.35484H11.6544C11.6094 1.35484 11.5737 1.38593 11.5737 1.42397V11.6577Z" fill="#464646"/>
<path d="M6.60484 28.1565H5.25V24.4469C5.25 24.0725 5.55332 23.7695 5.92742 23.7695H36.0812C36.4553 23.7695 36.7586 24.0725 36.7586 24.4469V27.8198H35.4038V25.1243H6.60484V28.1565Z" fill="#464646"/>
<path d="M20.3281 21.0762H21.6829V28.1573H20.3281V21.0762Z" fill="#464646"/>
<path d="M21.0033 25.7139C20.1572 25.7139 19.4688 25.0319 19.4688 24.1937C19.4688 23.3559 20.1572 22.6738 21.0033 22.6738C21.8494 22.6738 22.5377 23.3559 22.5377 24.1937C22.5377 25.0319 21.8494 25.7139 21.0033 25.7139ZM21.0033 24.0286C20.9044 24.0286 20.8237 24.1024 20.8237 24.1937C20.8237 24.3766 21.1821 24.3766 21.1821 24.1937C21.1828 24.1024 21.1022 24.0286 21.0033 24.0286Z" fill="#464646"/>
<path d="M22.4853 24.1955C22.4853 23.3887 21.8204 22.7344 21.0005 22.7344C20.1805 22.7344 19.5156 23.3887 19.5156 24.1955C19.5156 25.0025 20.1805 25.6568 21.0005 25.6568C21.8204 25.6568 22.4853 25.0025 22.4853 24.1955Z" fill="#D5F0FC"/>
<path d="M21.0059 26.3338C19.8138 26.3338 18.8438 25.3745 18.8438 24.195C18.8438 23.0158 19.8138 22.0566 21.0059 22.0566C22.198 22.0566 23.1682 23.0158 23.1682 24.195C23.1682 25.3745 22.198 26.3338 21.0059 26.3338ZM21.0059 23.4114C20.5607 23.4114 20.1985 23.7637 20.1985 24.195C20.1985 24.6266 20.5607 24.9789 21.0059 24.9789C21.4512 24.9789 21.8134 24.6266 21.8134 24.195C21.8134 23.7637 21.4512 23.4114 21.0059 23.4114Z" fill="#464646"/>
<path d="M10.2763 41.3226H2.0368C1.66303 41.3226 1.35938 41.0189 1.35938 40.6452V31.8278C1.35938 31.454 1.66303 31.1504 2.0368 31.1504H10.2763C10.6501 31.1504 10.9537 31.454 10.9537 31.8278V40.6452C10.9537 41.0189 10.6507 41.3226 10.2763 41.3226Z" fill="#5B92F2"/>
<path d="M10.2741 42.0004H2.03452C1.28731 42.0004 0.679688 41.3928 0.679688 40.6456V31.8276C0.679688 31.0803 1.28731 30.4727 2.03452 30.4727H10.2741C11.0213 30.4727 11.6289 31.0803 11.6289 31.8276V40.6456C11.6289 41.3928 11.0213 42.0004 10.2741 42.0004ZM2.03452 31.8276V40.6456H10.2754L10.2747 31.8276H2.03452Z" fill="#464646"/>
<path d="M3.66406 32.8613H6.59138V34.2161H3.66406V32.8613Z" fill="#D5F0FC"/>
<path d="M3.66406 35.5586H8.64646V36.9135H3.66406V35.5586Z" fill="#D5F0FC"/>
<path d="M3.66406 38.2559H8.64646V39.6107H3.66406V38.2559Z" fill="#D5F0FC"/>
<path d="M25.1207 41.3226H16.8805C16.5068 41.3226 16.2031 41.0189 16.2031 40.6452V31.8278C16.2031 31.454 16.5068 31.1504 16.8805 31.1504H25.1201C25.4938 31.1504 25.7975 31.454 25.7975 31.8278V40.6452C25.7981 41.0189 25.4945 41.3226 25.1207 41.3226Z" fill="#5B92F2"/>
<path d="M25.1262 42.0004H16.886C16.1388 42.0004 15.5312 41.3928 15.5312 40.6456V31.8276C15.5312 31.0803 16.1388 30.4727 16.886 30.4727H25.1255C25.8728 30.4727 26.4804 31.0803 26.4804 31.8276V40.6456C26.481 41.3928 25.8734 42.0004 25.1262 42.0004ZM16.886 31.8276V40.6456H25.1269L25.1262 31.8276H16.886Z" fill="#464646"/>
<path d="M18.5078 32.8613H21.4345V34.2161H18.5078V32.8613Z" fill="#D5F0FC"/>
<path d="M18.5078 35.5586H23.4902V36.9135H18.5078V35.5586Z" fill="#D5F0FC"/>
<path d="M18.5078 38.2559H23.4902V39.6107H18.5078V38.2559Z" fill="#D5F0FC"/>
<path d="M39.9716 41.3226H31.7321C31.3583 41.3226 31.0547 41.0189 31.0547 40.6452V31.8278C31.0547 31.454 31.3583 31.1504 31.7321 31.1504H39.9716C40.3454 31.1504 40.649 31.454 40.649 31.8278V40.6452C40.649 41.0189 40.3454 41.3226 39.9716 41.3226Z" fill="#5B92F2"/>
<path d="M39.9694 42.0004H31.7299C30.9827 42.0004 30.375 41.3928 30.375 40.6456V31.8276C30.375 31.0803 30.9827 30.4727 31.7299 30.4727H39.9694C40.7166 30.4727 41.3242 31.0803 41.3242 31.8276V40.6456C41.3242 41.3928 40.7166 42.0004 39.9694 42.0004ZM31.7299 31.8276V40.6456H39.9707L39.9694 31.8276H31.7299Z" fill="#464646"/>
<path d="M33.3594 32.8613H36.2858V34.2161H33.3594V32.8613Z" fill="#D5F0FC"/>
<path d="M33.3594 35.5586H38.3418V36.9135H33.3594V35.5586Z" fill="#D5F0FC"/>
<path d="M33.3594 38.2559H38.3418V39.6107H33.3594V38.2559Z" fill="#D5F0FC"/>
</g>
</g>
<defs>
<clipPath id="clip0_1149_188">
<rect width="42" height="42" fill="white"/>
</clipPath>
</defs>
</svg>
