<svg width="67" height="63" viewBox="0 0 67 63" fill="none" xmlns="http://www.w3.org/2000/svg">
<g clip-path="url(#clip0_1280_733)">
<path fill-rule="evenodd" clip-rule="evenodd" d="M23.23 27.154C20.1491 27.5402 17.2274 28.7111 14.751 30.5517C13.9189 31.1702 12.5113 32.5246 11.8338 33.3588C9.58471 36.1277 8.15802 39.7575 7.92799 43.2959C7.70363 46.7472 8.31457 49.8812 9.76868 52.7384C11.1538 55.4599 13.1143 57.6516 15.6822 59.3493C19.5199 61.8866 24.2791 62.8105 28.8517 61.9059C31.4606 61.3898 33.7166 60.3978 35.8504 58.8287C36.6438 58.2454 37.7665 57.2871 37.7665 57.1932C37.7665 57.1627 37.4897 56.8486 37.1513 56.4955L36.5363 55.8532L36.2818 56.0704C36.1418 56.1899 35.788 56.4946 35.4955 56.7474C33.955 58.0788 31.7426 59.2258 29.5403 59.8347C28.1447 60.2206 27.418 60.3046 25.4749 60.3046C23.4994 60.3045 22.8444 60.2251 21.3287 59.8027C15.8916 58.2872 11.7397 54.0983 10.3829 48.7591C9.55986 45.5203 9.7703 41.6144 10.9245 38.7055C12.0474 35.8759 14.0264 33.4121 16.5939 31.6477C18.7276 30.1813 21.2554 29.2645 23.9151 28.992C24.9859 28.8823 26.9739 28.9478 28.0075 29.1269C29.9783 29.4683 32.0245 30.2292 33.623 31.215C34.2762 31.6179 35.4865 32.5259 36.0443 33.0315L36.517 33.46L37.153 32.7998L37.789 32.1395L37.4569 31.8019C36.6241 30.9549 34.9234 29.7444 33.5792 29.0418C31.8823 28.1549 29.9835 27.5331 28.0075 27.2171C27.0778 27.0685 24.2135 27.0306 23.23 27.154ZM54.0089 36.5724C51.7402 37.0213 49.9505 38.3839 48.8573 40.4945C48.008 42.1337 47.678 43.892 47.8273 45.9793C48.1283 50.1809 50.1182 52.7908 53.5216 53.4479C54.2755 53.5935 55.682 53.6195 56.6108 53.5049C57.8851 53.3479 59.2552 52.8945 60.2222 52.31L60.7625 51.9833L60.7962 50.9712C60.8148 50.4145 60.8236 49.9591 60.8157 49.9591C60.8079 49.9592 60.5495 50.1298 60.2417 50.3384C59.4804 50.8542 58.3357 51.3885 57.5207 51.6084C56.9079 51.7737 56.7329 51.7911 55.6297 51.7957C54.2175 51.8016 53.8876 51.7374 52.9257 51.2692C51.6214 50.6342 50.7139 49.4689 50.2367 47.8163C50.0659 47.2253 49.9235 46.2739 49.9232 45.7235L49.9229 45.4054H55.8855H61.848L61.8304 44.2837C61.8012 42.4274 61.5502 41.1637 60.9664 39.9356C60.6143 39.1945 60.351 38.803 59.8543 38.2813C59.1398 37.5309 58.3328 37.0504 57.2452 36.7279C56.7156 36.5709 56.5039 36.5466 55.4947 36.5275C54.8633 36.5153 54.1946 36.5356 54.0089 36.5724ZM43.6083 36.6341C42.5607 36.8427 41.4809 37.5875 40.8437 38.5412C40.5753 38.9432 40.1803 39.7175 40.0668 40.0647C40.0216 40.2029 39.9567 40.3158 39.9224 40.3158C39.886 40.3158 39.8601 39.5932 39.8601 38.5747V36.8335H38.847H37.834V45.037V53.2407H38.8418H39.8496L39.8793 48.6032C39.9072 44.2348 39.9172 43.9229 40.0512 43.2289C40.5672 40.5574 41.6615 38.9564 43.2605 38.5342C44.0263 38.3319 45.3995 38.4761 45.838 38.8049C45.9117 38.8601 45.9873 38.9062 46.0059 38.9075C46.0245 38.9087 46.0306 38.4296 46.0196 37.8428L45.9995 36.7759L45.5334 36.6708C45.0459 36.5608 44.07 36.5422 43.6083 36.6341ZM56.2926 38.3389C57.723 38.6393 58.8227 39.6662 59.345 41.1888C59.5508 41.789 59.7152 42.6938 59.7154 43.2289L59.7157 43.6308H54.8466H49.9776L50.019 43.3203C50.2607 41.5142 51.3153 39.7312 52.5989 38.9586C53.6586 38.3207 55.0749 38.083 56.2926 38.3389Z" fill="#68217A"/>
<path d="M25.588 38.4893H24.9662C21.9861 38.4893 19.5703 40.8848 19.5703 43.8398V45.4608C19.5703 48.4159 21.9861 50.8114 24.9662 50.8114H25.588C28.5681 50.8114 30.9839 48.4159 30.9839 45.4608V43.8398C30.9839 40.8848 28.5681 38.4893 25.588 38.4893Z" fill="#02BFF4"/>
<path d="M0.429688 22.7019V13.6914H5.71544V14.8082H1.61995V17.5368H4.85794V18.6535H1.61995V22.7019H0.429688Z" fill="#68217A"/>
<path d="M6.66406 22.7018V16.3564H7.76472V17.5874C7.88418 17.1982 8.11455 16.8852 8.45584 16.6483C8.80567 16.4114 9.17255 16.293 9.55651 16.293C9.74421 16.293 9.91059 16.3099 10.0556 16.3437V17.4732C9.90207 17.4055 9.70155 17.3716 9.45412 17.3716C9.01044 17.3716 8.61796 17.562 8.27666 17.9428C7.93538 18.3235 7.76472 18.8607 7.76472 19.5545V22.7018H6.66406Z" fill="#68217A"/>
<path d="M13.7763 22.8287C12.8889 22.8287 12.1423 22.5072 11.5365 21.8642C10.9392 21.2212 10.6406 20.4428 10.6406 19.5291C10.6406 18.6154 10.9392 17.837 11.5365 17.194C12.1423 16.551 12.8889 16.2295 13.7763 16.2295C14.2455 16.2295 14.6807 16.3352 15.0816 16.5468C15.4913 16.7498 15.807 17.0121 16.0288 17.3336V16.3564H17.1294V22.7018H16.0288V21.7246C15.807 22.0461 15.4913 22.3125 15.0816 22.5241C14.6807 22.7272 14.2455 22.8287 13.7763 22.8287ZM13.9426 21.8261C14.574 21.8261 15.0944 21.6061 15.5041 21.1662C15.9136 20.7262 16.1184 20.1805 16.1184 19.5291C16.1184 18.8777 15.9136 18.332 15.5041 17.892C15.0944 17.452 14.574 17.2321 13.9426 17.2321C13.3027 17.2321 12.778 17.452 12.3684 17.892C11.9589 18.332 11.754 18.8777 11.754 19.5291C11.754 20.1805 11.9589 20.7262 12.3684 21.1662C12.778 21.6061 13.3027 21.8261 13.9426 21.8261Z" fill="#68217A"/>
<path d="M27.4453 22.7018V18.9707C27.4453 18.4462 27.3344 18.0274 27.1125 17.7143C26.8992 17.3928 26.5878 17.2321 26.1783 17.2321C25.6663 17.2321 25.2483 17.4308 24.924 17.8285C24.6083 18.2261 24.4419 18.7676 24.4249 19.4529V22.7018H23.3242V18.9707C23.3242 18.4377 23.2133 18.0147 22.9914 17.7016C22.7782 17.3886 22.471 17.2321 22.0699 17.2321C21.541 17.2321 21.1144 17.4436 20.7901 17.8666C20.4658 18.2811 20.3038 18.8438 20.3038 19.5545V22.7018H19.2031V16.3564H20.3038V17.3336C20.7133 16.5975 21.3575 16.2295 22.2363 16.2295C23.209 16.2295 23.866 16.6822 24.2073 17.5874C24.3779 17.1729 24.6509 16.8429 25.0263 16.5975C25.4018 16.3522 25.8284 16.2295 26.3062 16.2295C26.9973 16.2295 27.5434 16.4621 27.9444 16.9275C28.3454 17.3928 28.5459 18.0189 28.5459 18.8057V22.7018H27.4453Z" fill="#68217A"/>
<path d="M33.3382 22.8287C32.357 22.8287 31.5592 22.5156 30.9449 21.8895C30.3306 21.2635 30.0234 20.4767 30.0234 19.5291C30.0234 18.5899 30.3349 17.8074 30.9577 17.1813C31.5806 16.5468 32.3784 16.2295 33.351 16.2295C34.2128 16.2295 34.9337 16.5171 35.514 17.0925C36.1028 17.6594 36.3971 18.4335 36.3971 19.4149C36.3971 19.5418 36.3928 19.6518 36.3843 19.7448H31.1369C31.154 20.3371 31.3673 20.832 31.7769 21.2296C32.1949 21.6273 32.7196 21.8261 33.351 21.8261C34.247 21.8261 34.9125 21.458 35.3476 20.7221L36.2179 21.3185C35.5951 22.3253 34.6351 22.8287 33.3382 22.8287ZM31.2137 18.8565H35.2708C35.1854 18.3488 34.9594 17.947 34.5925 17.6509C34.2342 17.3463 33.8076 17.194 33.3127 17.194C32.8093 17.194 32.357 17.3463 31.956 17.6509C31.5635 17.947 31.3161 18.3488 31.2137 18.8565Z" fill="#68217A"/>
<path d="M43.372 22.7018L41.7851 18.1459L40.2109 22.7018H39.2382L37.0625 16.3564H38.2143L39.7629 20.9885L41.3627 16.3564H42.2074L43.8072 20.9885L45.3558 16.3564H46.5205L44.3448 22.7018H43.372Z" fill="#68217A"/>
<path d="M50.5251 22.8287C49.5609 22.8287 48.7589 22.5114 48.119 21.8769C47.4876 21.2339 47.1719 20.4513 47.1719 19.5291C47.1719 18.6069 47.4876 17.8285 48.119 17.194C48.7589 16.551 49.5609 16.2295 50.5251 16.2295C51.4807 16.2295 52.2742 16.551 52.9056 17.194C53.5455 17.8285 53.8655 18.6069 53.8655 19.5291C53.8655 20.4513 53.5455 21.2339 52.9056 21.8769C52.2742 22.5114 51.4807 22.8287 50.5251 22.8287ZM48.9125 21.1535C49.3305 21.5934 49.868 21.8135 50.5251 21.8135C51.1821 21.8135 51.7153 21.5934 52.1249 21.1535C52.5344 20.7136 52.7392 20.172 52.7392 19.5291C52.7392 18.8861 52.5344 18.3446 52.1249 17.9047C51.7153 17.4648 51.1821 17.2447 50.5251 17.2447C49.868 17.2447 49.3305 17.4648 48.9125 17.9047C48.503 18.3446 48.2982 18.8861 48.2982 19.5291C48.2982 20.172 48.503 20.7136 48.9125 21.1535Z" fill="#68217A"/>
<path d="M55.4453 22.7018V16.3564H56.5461V17.5874C56.6655 17.1982 56.8959 16.8852 57.2371 16.6483C57.587 16.4114 57.9539 16.293 58.3379 16.293C58.5255 16.293 58.6919 16.3099 58.8369 16.3437V17.4732C58.6834 17.4055 58.4828 17.3716 58.2354 17.3716C57.7917 17.3716 57.3993 17.562 57.0579 17.9428C56.7167 18.3235 56.5461 18.8607 56.5461 19.5545V22.7018H55.4453Z" fill="#68217A"/>
<path d="M64.7019 22.7016L61.2335 19.529V22.7016H60.1328V13.1836H61.2335V18.8309L64.0235 16.3563H65.4825L62.3341 19.1609L66.1865 22.7016H64.7019Z" fill="#68217A"/>
<path d="M16.7188 10.3854V1.375H22.0173V2.49178H17.909V5.2203H21.2493V6.33709H17.909V9.26866H22.0173V10.3854H16.7188Z" fill="#68217A"/>
<path d="M23.5391 10.3854V4.04H24.6397V5.01719C25.0749 4.28112 25.7532 3.91309 26.6747 3.91309C27.3999 3.91309 27.9844 4.14575 28.4281 4.61108C28.8718 5.07641 29.0936 5.69827 29.0936 6.47663V10.3854H28.0058V6.6416C28.0058 6.10859 27.8692 5.6898 27.5961 5.38522C27.3232 5.07218 26.9563 4.91567 26.4955 4.91567C25.9665 4.91567 25.5228 5.12295 25.1645 5.53751C24.8146 5.95208 24.6397 6.51893 24.6397 7.23808V10.3854H23.5391Z" fill="#68217A"/>
<path d="M33.4789 10.4483C32.8902 10.4483 32.4166 10.2833 32.0583 9.95331C31.6999 9.62335 31.5207 9.1411 31.5207 8.50656V5.04198H30.1641V4.03941H31.5207V2.27539H32.6215V4.03941H34.4644V5.04198H32.6215V8.36696C32.6215 8.76461 32.7067 9.0438 32.8773 9.20455C33.0481 9.36531 33.3168 9.44568 33.6836 9.44568C34.0079 9.44568 34.2682 9.40338 34.4644 9.31877V10.296C34.1573 10.3975 33.8287 10.4483 33.4789 10.4483Z" fill="#68217A"/>
<path d="M36.9844 2.12355C36.8395 2.26738 36.656 2.33929 36.4341 2.33929C36.2123 2.33929 36.0246 2.26738 35.871 2.12355C35.7174 1.97126 35.6406 1.78512 35.6406 1.56515C35.6406 1.35364 35.7174 1.17174 35.871 1.01945C36.0246 0.86716 36.2123 0.791016 36.4341 0.791016C36.656 0.791016 36.8395 0.86716 36.9844 1.01945C37.1295 1.17174 37.2021 1.35364 37.2021 1.56515C37.2021 1.78512 37.1295 1.97126 36.9844 2.12355ZM35.871 10.3852V4.03986H36.9716V10.3852H35.871Z" fill="#68217A"/>
<path d="M41.5413 10.4483C40.9525 10.4483 40.479 10.2833 40.1207 9.95331C39.7624 9.62335 39.5832 9.1411 39.5832 8.50656V5.04198H38.2266V4.03941H39.5832V2.27539H40.6838V4.03941H42.5268V5.04198H40.6838V8.36696C40.6838 8.76461 40.7691 9.0438 40.9398 9.20455C41.1104 9.36531 41.3793 9.44568 41.7461 9.44568C42.0703 9.44568 42.3305 9.40338 42.5268 9.31877V10.296C42.2196 10.3975 41.8911 10.4483 41.5413 10.4483Z" fill="#68217A"/>
<path d="M45.6365 13.0378H44.4078L45.8028 10.0555L43 4.04004H44.2158L46.4171 8.86253L48.6057 4.04004H49.8343L45.6365 13.0378Z" fill="#68217A"/>
</g>
<defs>
<clipPath id="clip0_1280_733">
<rect width="67" height="63" fill="white"/>
</clipPath>
</defs>
</svg>
