<svg width="57" height="57" viewBox="0 0 57 57" fill="none" xmlns="http://www.w3.org/2000/svg">
<g clip-path="url(#clip0_151_16721)">
<path d="M0 45.6646H56.1994V47.5032H0V45.6646Z" fill="#024430"/>
<path d="M51.0302 51.4772L49.8828 50.0403L54.5356 46.3284L49.9246 43.1663L50.9642 41.6504L56.5997 45.5145C56.8407 45.6793 56.9884 45.9486 56.9988 46.2399C57.01 46.5304 56.8811 46.81 56.654 46.9918L51.0302 51.4772Z" fill="#024430"/>
<path d="M36.202 47.5068L35.464 45.8225C42.8381 42.5909 47.6018 35.3789 47.6018 27.4487C47.6018 16.3685 38.4721 7.35553 27.2496 7.35553C16.0528 7.35553 6.94416 16.3694 6.94416 27.4487C6.94416 27.9375 6.96122 28.4232 6.99623 28.904L5.16248 29.0373C5.12477 28.5121 5.10547 27.9838 5.10547 27.4487C5.10547 15.3554 15.0387 5.51685 27.2496 5.51685C39.4862 5.51685 49.4405 15.3554 49.4405 27.4487C49.4405 36.1079 44.2445 43.9812 36.202 47.5068V47.5068Z" fill="#024430"/>
<path d="M5.23001 30.5874C5.17479 30.5874 5.11868 30.5825 5.06346 30.5717C4.78066 30.5192 4.5378 30.3383 4.40897 30.0806L1.26758 23.845L2.90965 23.0186L5.50563 28.1715L10.0651 24.0048L11.3058 25.3627L5.85173 30.3473C5.6798 30.5035 5.45805 30.5874 5.23001 30.5874Z" fill="#024430"/>
<path d="M39.1623 26.5505C39.1623 20.0535 33.8303 14.7866 27.253 14.7866C20.6758 14.7866 15.3438 20.0535 15.3438 26.5505C15.3438 33.0474 20.6758 38.3143 27.253 38.3143C33.8303 38.3143 39.1623 33.0474 39.1623 26.5505V26.5505Z" fill="#06D6A0"/>
<path d="M27.2544 39.2337C20.1811 39.2337 14.4258 33.5439 14.4258 26.5496C14.4258 19.5553 20.1811 13.8665 27.2544 13.8665C34.3277 13.8665 40.083 19.5562 40.083 26.5496C40.083 33.543 34.3277 39.2337 27.2544 39.2337V39.2337ZM27.2544 15.7051C21.1952 15.7051 16.2645 20.5703 16.2645 26.5496C16.2645 32.5299 21.1943 37.395 27.2544 37.395C33.3145 37.395 38.2443 32.5299 38.2443 26.5496C38.2443 20.5703 33.3136 15.7051 27.2544 15.7051V15.7051Z" fill="#024430"/>
<path d="M27.253 29.248C25.7479 29.248 24.5215 28.0382 24.5215 26.5496C24.5215 25.0611 25.747 23.8513 27.253 23.8513C28.7582 23.8513 29.9846 25.0611 29.9846 26.5496C29.9846 28.0382 28.7591 29.248 27.253 29.248Z" fill="white"/>
<path d="M26.334 18.5193H28.1727V24.9462H26.334V18.5193Z" fill="white"/>
<path d="M28.8398 25.6301H35.8193V27.4688H28.8398V25.6301Z" fill="white"/>
</g>
<defs>
<clipPath id="clip0_151_16721">
<rect width="57" height="57" fill="white"/>
</clipPath>
</defs>
</svg>
