<svg width="67" height="62" viewBox="0 0 67 62" fill="none" xmlns="http://www.w3.org/2000/svg">
<mask id="mask0_1280_547" style="mask-type:luminance" maskUnits="userSpaceOnUse" x="0" y="0" width="66" height="62">
<path d="M66.0018 0.523438H0.554688V61.3962H66.0018V0.523438Z" fill="white"/>
</mask>
<g mask="url(#mask0_1280_547)">
<path d="M55.334 32.4575C55.334 32.3505 55.3039 32.2739 55.2419 32.2239C55.1734 32.17 55.0548 32.1412 54.8897 32.1412H54.6523V32.7779H54.9388C55.2034 32.7779 55.334 32.6708 55.334 32.4575ZM55.7041 33.7849H55.3779L55.1699 33.337C55.0643 33.1126 54.9513 33.0003 54.8279 33.0003H54.6523V33.7849H54.3835V31.9178H54.9221C55.1615 31.9178 55.3413 31.9684 55.4648 32.0739C55.5693 32.1647 55.6215 32.281 55.6215 32.426C55.6215 32.5545 55.5789 32.6627 55.493 32.7523C55.4092 32.8432 55.289 32.9044 55.1353 32.9361V32.9442C55.2419 32.9686 55.3486 33.083 55.4521 33.289L55.7041 33.7849ZM56.3001 32.8697C56.3001 32.5024 56.1715 32.1923 55.9153 31.9463C55.6581 31.7005 55.3444 31.577 54.9743 31.577C54.5926 31.577 54.2749 31.7005 54.0229 31.9485C53.7708 32.1974 53.6455 32.5054 53.6455 32.8697C53.6455 33.2421 53.7761 33.5534 54.0355 33.8013C54.2917 34.0491 54.6053 34.1716 54.9743 34.1716C55.3413 34.1716 55.6549 34.0482 55.9132 33.7971C56.1715 33.5502 56.3001 33.2401 56.3001 32.8697ZM56.4809 32.8617C56.4809 33.2739 56.3355 33.6198 56.044 33.8983C55.7522 34.1789 55.3947 34.3186 54.967 34.3186C54.5362 34.3186 54.1787 34.1809 53.8942 33.9105C53.6099 33.6361 53.4688 33.2913 53.4688 32.8729C53.4688 32.4637 53.613 32.1199 53.9016 31.8374C54.1902 31.5557 54.5499 31.415 54.9796 31.415C55.4009 31.415 55.7543 31.5496 56.0407 31.8179C56.3345 32.0934 56.4809 32.4403 56.4809 32.8617Z" fill="#4E4E4E"/>
<path d="M15.5847 38.0687H14.6574V32.8898C14.6574 32.4807 14.685 31.9828 14.7343 31.3951H14.7134C14.6266 31.7388 14.5471 31.9878 14.4771 32.1419L11.7817 38.0687H11.3301L8.62943 32.1848C8.55332 32.0205 8.47369 31.7562 8.39314 31.3951H8.37308C8.40152 31.7042 8.41741 32.2052 8.41741 32.8999V38.0687H7.52344V30.3564H8.74671L11.1713 35.7343C11.3543 36.1394 11.4724 36.4474 11.5299 36.6577H11.5684C11.7262 36.2363 11.8517 35.92 11.9469 35.7118L14.4237 30.3564H15.5842L15.5847 38.0687Z" fill="#4E4E4E"/>
<path d="M18.4408 38.0685H17.5396V32.561H18.4408V38.0685ZM18.5966 30.5868C18.5966 30.749 18.538 30.8848 18.4219 30.996C18.308 31.1072 18.1669 31.1633 18.0017 31.1633C17.8407 31.1633 17.7005 31.1094 17.5856 31.0021C17.4707 30.894 17.4141 30.7561 17.4141 30.5868C17.4141 30.4276 17.4709 30.292 17.5856 30.1818C17.7005 30.0716 17.8407 30.0186 18.0017 30.0186C18.1669 30.0186 18.308 30.0716 18.4219 30.1818C18.538 30.292 18.5966 30.4276 18.5966 30.5868Z" fill="#4E4E4E"/>
<path d="M24.0749 37.8139C23.6421 38.073 23.1256 38.2016 22.5285 38.2016C21.7194 38.2016 21.068 37.9393 20.5704 37.416C20.0873 36.9078 19.8438 36.2518 19.8438 35.4478C19.8438 34.5458 20.1082 33.8154 20.6414 33.2604C21.1715 32.7043 21.8846 32.4268 22.7816 32.4268C23.272 32.4268 23.7069 32.5207 24.0875 32.7063V33.6114C23.6661 33.3226 23.2208 33.1798 22.7429 33.1798C22.1678 33.1798 21.7006 33.3757 21.3377 33.7664C20.9602 34.1664 20.7689 34.701 20.7689 35.3683C20.7689 36.009 20.9436 36.5161 21.2907 36.8905C21.6389 37.2629 22.102 37.4497 22.6864 37.4497C23.1799 37.4497 23.6421 37.2915 24.0749 36.9762V37.8139Z" fill="#4E4E4E"/>
<path d="M28.3806 33.4545C28.2217 33.3352 27.9929 33.277 27.6907 33.277C27.3237 33.277 27.0152 33.4372 26.7654 33.7606C26.482 34.1218 26.3408 34.6218 26.3408 35.2604V38.0682H25.4375V32.5608H26.3408V33.6964H26.3627C26.4954 33.2944 26.7003 32.9852 26.9743 32.7659C27.2304 32.566 27.52 32.4648 27.8389 32.4648C28.0794 32.4648 28.2582 32.4902 28.3805 32.5399L28.3806 33.4545Z" fill="#4E4E4E"/>
<path d="M33.4175 35.3238C33.4175 34.6189 33.2544 34.0802 32.9282 33.7108C32.6114 33.3558 32.1691 33.1783 31.5994 33.1783C31.0378 33.1783 30.5873 33.3578 30.2506 33.717C29.8941 34.1006 29.7163 34.6423 29.7163 35.3453C29.7163 36.0045 29.8857 36.5217 30.2276 36.8909C30.5673 37.2624 31.0254 37.448 31.5994 37.448C32.1932 37.448 32.648 37.2593 32.9596 36.8838C33.2649 36.5166 33.4175 35.9972 33.4175 35.3238ZM34.3438 35.2928C34.3438 36.1703 34.0898 36.8753 33.5837 37.4039C33.0757 37.9343 32.3919 38.1996 31.5325 38.1996C30.6856 38.1996 30.0111 37.9343 29.5167 37.4039C29.0326 36.8926 28.7891 36.2172 28.7891 35.3776C28.7891 34.4195 29.0639 33.6808 29.6159 33.1564C30.1262 32.6698 30.8089 32.4248 31.6642 32.4248C32.5058 32.4248 33.1635 32.6809 33.6371 33.1881C34.1066 33.6982 34.3438 34.4001 34.3438 35.2928Z" fill="#4E4E4E"/>
<path d="M38.8263 36.5947C38.8263 37.0457 38.6539 37.419 38.3077 37.717C37.9303 38.0394 37.4118 38.2006 36.7593 38.2006C36.2251 38.2006 35.7566 38.0915 35.3594 37.869V36.9211C35.8017 37.2722 36.2899 37.4487 36.8263 37.4487C37.5414 37.4487 37.9001 37.1916 37.9001 36.6794C37.9001 36.464 37.8214 36.2856 37.6627 36.1478C37.5038 36.007 37.1953 35.8387 36.7363 35.6418C36.2638 35.4397 35.9271 35.2326 35.7285 35.0174C35.4901 34.7623 35.3699 34.4307 35.3699 34.0226C35.3699 33.5655 35.557 33.1849 35.9271 32.8819C36.2983 32.5779 36.775 32.4258 37.3605 32.4258C37.809 32.4258 38.2106 32.5116 38.5671 32.6839V33.5717C38.1949 33.3093 37.7694 33.1788 37.2863 33.1788C36.9874 33.1788 36.7469 33.2514 36.568 33.393C36.3871 33.5379 36.2961 33.7226 36.2961 33.948C36.2961 34.192 36.3722 34.3817 36.5231 34.5174C36.6569 34.6429 36.9413 34.796 37.37 34.9744C37.8519 35.1714 38.2001 35.3755 38.4123 35.5846C38.6873 35.8489 38.8263 36.1856 38.8263 36.5947Z" fill="#4E4E4E"/>
<path d="M44.3473 35.3238C44.3473 34.6189 44.1842 34.0802 43.857 33.7108C43.5412 33.3558 43.098 33.1783 42.5292 33.1783C41.9676 33.1783 41.5171 33.3578 41.1783 33.717C40.8229 34.1006 40.6461 34.6423 40.6461 35.3453C40.6461 36.0045 40.8155 36.5217 41.1543 36.8909C41.4983 37.2624 41.9562 37.448 42.5292 37.448C43.1241 37.448 43.5778 37.2593 43.8894 36.8838C44.1947 36.5166 44.3473 35.9972 44.3473 35.3238ZM45.2757 35.2928C45.2757 36.1703 45.0196 36.8753 44.5125 37.4039C44.0065 37.9343 43.3227 38.1996 42.4632 38.1996C41.6154 38.1996 40.9409 37.9343 40.4465 37.4039C39.9624 36.8926 39.7188 36.2172 39.7188 35.3776C39.7188 34.4195 39.9959 33.6808 40.5448 33.1564C41.0549 32.6698 41.7388 32.4248 42.595 32.4248C43.4367 32.4248 44.0933 32.6809 44.5659 33.1881C45.0364 33.6982 45.2757 34.4001 45.2757 35.2928Z" fill="#4E4E4E"/>
<path d="M49.2543 30.6896C49.0766 30.5937 48.879 30.5448 48.6542 30.5448C48.0216 30.5448 47.708 30.9335 47.708 31.712V32.5608H49.0305V33.3076H47.708V38.0683H46.8036V33.3076H45.8438V32.5608H46.8036V31.6681C46.8036 31.062 46.9938 30.5865 47.3807 30.2437C47.7122 29.9457 48.1178 29.7979 48.5998 29.7979C48.879 29.7979 49.0965 29.8305 49.2543 29.8938V30.6896Z" fill="#4E4E4E"/>
<path d="M52.8178 38.0123C52.6045 38.1317 52.3201 38.1909 51.9688 38.1909C50.9839 38.1909 50.4916 37.6491 50.4916 36.5656V33.3079H49.5234V32.5599H50.4916V31.2163C50.7801 31.1275 51.0801 31.0307 51.397 30.9307V32.5599H52.8178V33.3079H51.397V36.4156C51.397 36.7849 51.4588 37.0492 51.5883 37.2022C51.719 37.3604 51.9323 37.438 52.2334 37.438C52.4582 37.438 52.6526 37.3792 52.8178 37.2604V38.0123Z" fill="#4E4E4E"/>
<path d="M4.22231 59.5936C4.22231 60.0253 4.06448 60.3986 3.74555 60.7139C3.42772 61.0282 3.04188 61.1863 2.5892 61.1863C2.1469 61.1863 1.77051 61.0282 1.46212 60.7139C1.15365 60.3986 1 60.0253 1 59.5936C1 59.1499 1.15365 58.7755 1.46212 58.4652C1.77051 58.154 2.1469 58 2.5892 58C3.04188 58 3.42772 58.1561 3.74555 58.4714C4.06448 58.7867 4.22231 59.1611 4.22231 59.5936Z" fill="#4E4E4E"/>
<path d="M24.2143 60.8313H21.268L10.5733 44.714C10.3234 44.3262 10.108 43.9048 9.92505 43.4447H9.83714C9.91326 43.8763 9.95225 44.8027 9.95225 46.2219V60.8313H7.52344V40.6104H10.6757L21.0505 56.4737C21.4636 57.1031 21.7458 57.5541 21.889 57.8255H21.9467C21.8505 57.2439 21.8004 56.2522 21.8004 54.8524V40.6104H24.2145L24.2143 60.8313Z" fill="#4E4E4E"/>
<path d="M39.7791 60.8313H28.7969V40.6104H39.3024V42.753H31.2237V49.4796H38.7096V51.6232H31.2237V58.6876H39.7791V60.8313Z" fill="#4E4E4E"/>
<path d="M56.4394 42.753H50.4707V60.8313H48.0429V42.753H42.0625V40.6094H56.4394V42.753Z" fill="#4E4E4E"/>
<path d="M54.7952 23.4015H54.216V25.1583H53.9797V23.4015H53.3984V23.1924H54.7952V23.4015Z" fill="#4E4E4E"/>
<path d="M57.1697 25.1583H56.9345V23.8381C56.9345 23.734 56.9428 23.6065 56.9538 23.4565C56.9295 23.5463 56.9094 23.6086 56.8911 23.6484L56.2051 25.1583H56.0902L55.4022 23.6596C55.3822 23.6179 55.3621 23.5504 55.3404 23.4565H55.3321C55.3404 23.5358 55.343 23.6637 55.343 23.8412V25.1583H55.1172V23.1924H55.4287L56.0466 24.5646C56.0934 24.6676 56.1228 24.7472 56.1377 24.8003H56.1468C56.1877 24.6921 56.2212 24.6115 56.2441 24.5584L56.8744 23.1924H57.1713V25.1583H57.1697Z" fill="#4E4E4E"/>
<path d="M22.6641 5.68496C25.0072 12.6773 25.895 25.1509 32.7468 25.1509C33.2684 25.1509 33.7954 25.1012 34.3245 25.003C28.0959 23.5858 27.3578 11.2477 23.557 4.8584C23.259 5.1227 22.9631 5.39818 22.6641 5.68496Z" fill="#5DC7F1"/>
<path d="M23.5625 4.85764C27.3631 11.247 28.1014 23.5849 34.33 25.0021C34.8193 24.9144 35.3097 24.7818 35.8011 24.6145C30.2103 21.9411 28.6649 9.96037 24.3487 4.19238C24.0873 4.40468 23.825 4.62712 23.5625 4.85764Z" fill="#2EAEE9"/>
<path d="M29.0357 1.05859C28.515 1.05859 27.9869 1.10838 27.4568 1.20659C26.0704 1.46166 24.6621 2.04424 23.2422 2.92581C23.63 3.29924 23.9991 3.72674 24.3462 4.19307C25.7902 3.02376 27.2248 2.15957 28.6542 1.64018C29.1905 1.44632 29.7248 1.30045 30.2611 1.20455C29.8743 1.10854 29.4665 1.05859 29.0357 1.05859Z" fill="#13609D"/>
<path d="M40.1595 22.1515C40.7314 21.7077 41.3044 21.2169 41.8785 20.6813C39.4977 13.7215 38.6455 1.06934 31.7457 1.06934C31.2521 1.06934 30.7544 1.11423 30.2578 1.204C36.5428 2.72945 37.3479 16.0735 40.1595 22.1515Z" fill="#55C8F4"/>
<path d="M30.2645 1.20444C29.8776 1.10854 29.4698 1.05859 29.0391 1.05859L31.7524 1.0683C31.2588 1.0683 30.7612 1.11359 30.2645 1.20444Z" fill="#4A73CF"/>
<path d="M40.0409 23.6299C39.7711 23.3788 39.515 23.1035 39.263 22.8096C38.1024 23.6115 36.9459 24.2197 35.7969 24.6156C36.2057 24.8105 36.6344 24.9553 37.0893 25.0452C37.4415 25.1153 37.8065 25.1513 38.1902 25.1513C39.4794 25.1513 40.4989 25.0023 41.3667 24.5962C40.8889 24.3441 40.4507 24.0177 40.0409 23.6299Z" fill="#1969BC"/>
<path d="M28.6562 1.6409C34.2858 4.51415 34.7751 17.5255 39.267 22.8088C39.5681 22.6017 39.866 22.3824 40.1641 22.1506C37.3525 16.0726 36.5484 2.7275 30.2645 1.20312C29.728 1.30107 29.1927 1.44605 28.6562 1.6409Z" fill="#30ABE7"/>
<path d="M24.3438 4.19245C28.6599 9.96044 30.2053 21.9413 35.7961 24.6145C36.9453 24.2186 38.1016 23.6105 39.2622 22.8085C34.7705 17.5252 34.2811 4.51389 28.6516 1.64062C27.2223 2.15894 25.7877 3.02313 24.3438 4.19245Z" fill="#1575B8"/>
<path d="M19.9062 5.51627C19.2297 7.00908 18.5385 8.97113 17.7031 11.5321C19.3645 9.24761 21.0208 7.27942 22.6676 5.68468C22.4407 5.00407 22.1971 4.37659 21.9346 3.81738C21.2613 4.32045 20.5826 4.88677 19.9062 5.51627Z" fill="#38B9E3"/>
<path d="M22.5367 3.3877C22.338 3.52645 22.1383 3.66832 21.9375 3.81827C22.2 4.37742 22.4425 5.00496 22.6694 5.68548C22.9684 5.39979 23.2654 5.1233 23.5624 4.85901C23.2434 4.32435 22.9047 3.8305 22.5367 3.3877Z" fill="#2B74B1"/>
<path d="M23.2402 2.92578C23.0038 3.07173 22.7686 3.22575 22.5312 3.38696C22.8993 3.82979 23.2381 4.32363 23.558 4.85935C23.8205 4.6277 24.0829 4.40428 24.3443 4.19304C23.9972 3.72679 23.6281 3.29922 23.2402 2.92578Z" fill="#145B9D"/>
<path d="M61.6397 0.526247C58.4558 12.508 51.8058 22.1318 46.2308 24.5582H46.2202C46.1188 24.6031 46.0184 24.6439 45.9191 24.6836C45.9055 24.6917 45.893 24.6927 45.8825 24.6976C45.8531 24.7091 45.826 24.718 45.7968 24.7295C45.783 24.7375 45.7706 24.7402 45.7581 24.745C45.711 24.7614 45.6651 24.7752 45.619 24.7932C45.5991 24.8013 45.5804 24.8062 45.5614 24.8128C45.5405 24.8209 45.5164 24.8283 45.4925 24.8348C45.4716 24.8429 45.4496 24.8487 45.4255 24.8576C45.4056 24.8658 45.3847 24.8691 45.366 24.8773C45.3251 24.8888 45.2876 24.8985 45.2468 24.9123C45.23 24.9123 45.2144 24.9212 45.1965 24.9255C45.1715 24.9336 45.1432 24.9395 45.116 24.9467C45.0972 24.9548 45.0816 24.9574 45.0616 24.9615C45.0334 24.9696 45.002 24.977 44.9738 24.9836C44.9362 24.9916 44.9028 24.9991 44.8672 25.0063C45.1191 25.0972 45.3816 25.1431 45.665 25.1431C50.9515 25.1431 56.2818 15.8979 65.1014 0.523438H61.6384L61.6397 0.526247Z" fill="url(#paint0_linear_1280_547)"/>
<path d="M16.5547 1.54507C16.558 1.54507 16.5641 1.53698 16.5641 1.53698C16.5683 1.53698 16.5748 1.53698 16.5769 1.5289H16.5834C16.6127 1.51919 16.6399 1.50767 16.6691 1.49706C16.6767 1.49706 16.6806 1.49706 16.6859 1.48898C16.6934 1.48898 16.7007 1.4809 16.708 1.47988C16.7394 1.47018 16.7707 1.45866 16.7999 1.44805H16.805C16.875 1.42766 16.9398 1.40235 17.0077 1.37868C17.0173 1.37868 17.0267 1.37059 17.0381 1.37059C17.0663 1.3617 17.0956 1.3518 17.1249 1.34529C17.1385 1.3372 17.152 1.3372 17.1646 1.33297C17.1949 1.32407 17.2242 1.31416 17.2524 1.30766C17.2651 1.30766 17.2765 1.29958 17.2859 1.29876C17.3832 1.27265 17.4793 1.24815 17.5765 1.22529C17.5902 1.22529 17.6016 1.21721 17.6163 1.21639C17.6445 1.20831 17.6707 1.20407 17.7009 1.20003C17.7135 1.19194 17.7281 1.19194 17.7428 1.18769C17.771 1.17961 17.7982 1.1788 17.8285 1.17214H17.8485C17.9069 1.16062 17.9665 1.15091 18.0251 1.1403H18.0607C18.0889 1.13221 18.1139 1.13141 18.1422 1.12635C18.1578 1.12635 18.1736 1.11827 18.1882 1.11827C18.2143 1.11827 18.2405 1.11018 18.2666 1.10675C18.2803 1.10675 18.2938 1.10675 18.3095 1.09866C18.3712 1.09058 18.4349 1.08734 18.4999 1.08229C18.3169 1.06511 18.1286 1.05371 17.9373 1.05371C11.9837 1.05371 3.78105 11.8336 0.0859375 25.7937H0.797985C1.98054 23.7358 3.04286 21.789 4.01422 19.9615C6.60205 10.0735 11.8729 3.33004 16.555 1.54347" fill="#94D6F4"/>
<path d="M19.9062 5.51723C20.5827 4.88773 21.2614 4.3214 21.9347 3.81842C21.781 3.48988 21.6221 3.18581 21.4516 2.90723C20.9069 3.55207 20.4092 4.40304 19.9062 5.51723Z" fill="#0D81C9"/>
<path d="M20.3956 1.62659C20.7846 1.94493 21.1327 2.38268 21.4517 2.90715C21.5521 2.78674 21.6535 2.67549 21.7591 2.57142C21.3168 2.16841 20.839 1.83783 20.3203 1.58887C20.3412 1.60019 20.3621 1.60928 20.3838 1.61826C20.3838 1.61826 20.392 1.62659 20.3956 1.62659Z" fill="#7DCCED"/>
<path d="M4.01562 19.963C9.44433 9.75456 12.0165 3.29377 16.5564 1.54492C11.8753 3.33262 6.60347 10.076 4.01562 19.963Z" fill="#359CDD"/>
<path d="M21.7605 2.57129C21.6549 2.67643 21.5545 2.78663 21.4531 2.90704C21.6236 3.18554 21.7825 3.48862 21.9373 3.81815C22.138 3.6682 22.3376 3.52633 22.5363 3.38757C22.2907 3.09167 22.0314 2.81723 21.7605 2.57129Z" fill="#1880C8"/>
<path d="M6.48189 25.7486C6.44842 25.7568 6.41497 25.7568 6.3836 25.7601H6.36477C6.3365 25.7601 6.30722 25.7683 6.28112 25.7683H6.26749C6.19958 25.7764 6.13261 25.7764 6.06778 25.7814H6.04688C11.5415 25.6314 14.0529 22.9468 15.2993 19.0532C16.2466 16.1014 17.0246 13.6148 17.7063 11.5283C15.4049 14.6893 13.0931 18.4573 10.7688 22.6785C9.64788 24.713 7.94358 25.563 6.48184 25.7447" fill="#0EA4E7"/>
<path d="M6.47656 25.747C7.93829 25.5652 9.6426 24.7163 10.7635 22.6808C13.0879 18.4607 15.4006 14.6916 17.6999 11.5306C18.5364 8.96845 19.2265 7.00745 19.904 5.51465C15.3212 9.7715 10.7206 16.8496 6.47656 25.7449" fill="url(#paint1_linear_1280_547)"/>
<path d="M4.01311 19.9629C3.0418 21.7904 1.97948 23.7372 0.796875 25.7952H2.86823C3.14217 23.7514 3.53114 21.8016 4.01311 19.9629Z" fill="#05A1E6"/>
<path d="M18.31 1.10394C18.2932 1.10394 18.2807 1.11203 18.2661 1.11203C18.2409 1.12011 18.2148 1.12011 18.1887 1.12274C18.1731 1.12274 18.1584 1.12274 18.1427 1.13082C18.1144 1.13891 18.0883 1.13972 18.0611 1.14477C18.0485 1.14477 18.036 1.14477 18.0256 1.15285C17.9659 1.16256 17.9074 1.17327 17.8489 1.18305H17.829C17.7987 1.19113 17.7715 1.19538 17.7433 1.19942C17.7285 1.20751 17.7139 1.20751 17.7003 1.21075C17.6721 1.21883 17.6438 1.22227 17.6167 1.22712C17.602 1.2352 17.5906 1.2352 17.5769 1.23601C17.4798 1.25887 17.3835 1.28337 17.2863 1.30947C17.2759 1.30947 17.2654 1.31757 17.2528 1.31918C17.2236 1.32726 17.1953 1.33555 17.165 1.34449C17.1524 1.35257 17.1378 1.35257 17.1253 1.35581C17.096 1.36389 17.0667 1.37217 17.0385 1.38111C17.0271 1.38111 17.0176 1.38919 17.0071 1.38919C16.9402 1.41367 16.8743 1.43817 16.8053 1.45858C16.776 1.46747 16.7446 1.47898 16.7133 1.48959C16.7006 1.49767 16.6892 1.4995 16.6746 1.50516C16.6454 1.51404 16.6161 1.52556 16.5889 1.53618C16.5785 1.54426 16.568 1.54507 16.5607 1.54931C12.0208 3.29816 9.44862 9.75895 4.01991 19.9674C3.5379 21.8061 3.1479 23.755 2.875 25.7986H3.16568C3.98437 25.7986 4.21544 25.7906 5.15752 25.7906H5.20562H5.34573H5.39382H5.40745H5.45555H5.48273H5.50156H5.5392H5.65631H5.77341H5.8717H5.8978H6.07032C6.13514 25.7825 6.20206 25.7825 6.27003 25.7774H6.28257C6.31085 25.7774 6.33904 25.7693 6.36623 25.7693H6.38604C6.41633 25.7693 6.45087 25.7613 6.48434 25.7578C10.7284 16.8625 15.329 9.78441 19.9118 5.52756C20.4158 4.41337 20.9124 3.5624 21.4561 2.9186C21.1383 2.39416 20.79 1.95541 20.4011 1.63699C20.4011 1.63699 20.3906 1.63699 20.3898 1.62891C20.3677 1.62002 20.3469 1.60931 20.325 1.59871C20.3029 1.58719 20.2841 1.57829 20.2612 1.56688C20.2413 1.55879 20.2183 1.54808 20.1985 1.53749C20.1712 1.52941 20.1493 1.51788 20.1252 1.50728C20.1054 1.49919 20.0876 1.4909 20.0677 1.48279C20.0269 1.46724 19.9862 1.45096 19.9475 1.43382C19.9297 1.42574 19.913 1.42149 19.8962 1.41503C19.868 1.40512 19.8355 1.39217 19.8063 1.37992C19.7916 1.37183 19.7749 1.37021 19.7582 1.36435C19.7154 1.35041 19.6734 1.3358 19.6337 1.32272H19.6234C19.5753 1.30715 19.5282 1.2958 19.479 1.28271C19.4677 1.27463 19.4581 1.27463 19.4467 1.27302C19.4038 1.2615 19.3662 1.25016 19.3254 1.23955C19.3151 1.23955 19.3055 1.23146 19.2972 1.23146C19.1989 1.20616 19.0975 1.18576 18.995 1.16699C18.9845 1.16699 18.9741 1.1589 18.9637 1.1589C18.9198 1.15081 18.877 1.14334 18.8331 1.13849C18.8224 1.1304 18.8162 1.1304 18.807 1.1304C18.7546 1.12232 18.7033 1.11645 18.6522 1.11079H18.625C18.5832 1.10271 18.5445 1.1019 18.5058 1.09766C18.4398 1.10574 18.3771 1.10918 18.3154 1.11484" fill="#1071B8"/>
<path d="M49.2046 7.15922C48.16 10.4243 47.3142 13.118 46.5781 15.3341C49.444 11.4855 52.2671 6.64391 54.9554 1.05664C51.8196 2.01771 50.1467 4.21763 49.2046 7.15922Z" fill="#0497D9"/>
<path d="M46.6715 24.3542C46.5251 24.4269 46.3788 24.496 46.2344 24.5584C51.8095 22.1319 58.4594 12.5082 61.6433 0.526367H60.9982C53.6833 13.2775 51.3306 21.8136 46.6715 24.3542Z" fill="url(#paint2_linear_1280_547)"/>
<path d="M43.0307 23.2824C44.2436 21.8377 45.2317 19.3817 46.5806 15.334C45.0247 17.4196 43.4585 19.2124 41.891 20.6744C41.891 20.6826 41.891 20.6826 41.8828 20.6876C42.2247 21.6875 42.6001 22.5701 43.0277 23.2823" fill="#079AE1"/>
<path d="M43.0276 23.2832C42.6145 23.775 42.1775 24.1495 41.6913 24.427C41.5847 24.4875 41.477 24.5444 41.3672 24.5965C41.8807 24.8668 42.441 25.0474 43.0683 25.1199C43.1602 25.1287 43.2513 25.137 43.3465 25.1434H43.3632C43.406 25.1434 43.4511 25.1434 43.4971 25.1515H43.5155H43.6526H43.8H43.8461H43.9506C43.9674 25.1515 43.9848 25.1515 44.0016 25.1434C44.0342 25.1434 44.0686 25.1434 44.1019 25.1354H44.1137H44.1514C44.1857 25.1354 44.2233 25.1273 44.2602 25.1239H44.2684C44.2794 25.1239 44.291 25.1158 44.3019 25.1158C44.3404 25.1077 44.3806 25.1043 44.418 25.0986H44.4523C44.4949 25.0906 44.5391 25.0855 44.583 25.0774H44.5913H44.6039C44.6917 25.061 44.7775 25.0448 44.8641 25.0235C44.1448 24.7664 43.5426 24.1603 43.0239 23.2971" fill="#1969BC"/>
<path d="M32.75 25.152C33.2717 25.152 33.7987 25.1022 34.3277 25.003C34.8171 24.9163 35.3074 24.7836 35.7988 24.6162C36.2078 24.8111 36.6365 24.9561 37.0902 25.0458C37.4425 25.116 37.8085 25.152 38.1922 25.152H32.75Z" fill="#1E5CB3"/>
<path d="M38.1911 25.1508C39.4793 25.1508 40.4998 25.0019 41.3666 24.5957C41.88 24.8661 42.4404 25.0467 43.0678 25.1192C43.1598 25.1281 43.2507 25.1363 43.3459 25.1429H43.3627C43.4053 25.1429 43.4505 25.1429 43.4966 25.151H43.5157H43.6529H38.1875L38.1911 25.1508Z" fill="#1E5CB3"/>
<path d="M43.6562 25.1516H43.8048H43.8508H43.9544C43.972 25.1516 43.9886 25.1516 44.0053 25.1436C44.038 25.1436 44.0723 25.1436 44.1069 25.1355H44.1179H44.1563C44.1906 25.1355 44.2282 25.1274 44.264 25.1243H44.2731C44.2841 25.1243 44.2948 25.1161 44.3058 25.1161C44.3443 25.108 44.3844 25.1048 44.4218 25.0989C44.4344 25.0989 44.4443 25.0989 44.4577 25.0909C44.5005 25.0828 44.5446 25.0785 44.5885 25.0705H44.5968H44.6094C44.6973 25.0541 44.783 25.0378 44.8698 25.0166C45.1217 25.1073 45.3842 25.1533 45.6675 25.1533L43.6579 25.1615L43.6562 25.1516Z" fill="#4A73CF"/>
<path d="M41.8827 20.6877V20.6797C41.3087 21.2153 40.7357 21.7061 40.1637 22.1499C39.8647 22.3815 39.5667 22.6009 39.2656 22.8081C39.5176 23.102 39.7738 23.3774 40.0435 23.6284C40.4534 24.0161 40.8914 24.3426 41.3693 24.5946C41.478 24.5424 41.5868 24.4855 41.6923 24.4253C42.1795 24.1477 42.6167 23.7733 43.0298 23.2815C42.602 22.5693 42.2267 21.6867 41.8848 20.6868" fill="#175FAB"/>
<path d="M58.9514 0.526367H56.2392H55.9693H55.7143H55.7043C55.5286 0.534452 55.3583 0.540314 55.1899 0.550864C55.1105 0.71723 55.0289 0.883576 54.9505 1.05091C52.2623 6.63819 49.4391 11.4798 46.5732 15.3285C45.2254 19.3761 44.2364 21.8321 43.0234 23.2769C43.542 24.14 44.1453 24.7471 44.8626 25.0042C44.8835 24.9962 44.9002 24.9962 44.9191 24.9919H44.9306C44.9433 24.9919 44.9567 24.9838 44.9705 24.9838C44.9997 24.9758 45.0311 24.9707 45.0604 24.9618C45.0792 24.9537 45.0948 24.9529 45.1137 24.9471C45.1409 24.9389 45.1691 24.9331 45.1942 24.9267C45.211 24.9185 45.2276 24.9159 45.2444 24.9127C45.2862 24.8996 45.3238 24.8898 45.3636 24.8776C45.3824 24.8695 45.4023 24.8628 45.4232 24.858C45.4462 24.8499 45.4692 24.844 45.4901 24.8343C45.5142 24.8262 45.5382 24.822 45.5592 24.8131C45.578 24.805 45.5977 24.7999 45.6156 24.7927C45.6625 24.7763 45.7086 24.7625 45.7557 24.7445C45.7684 24.7445 45.7808 24.7332 45.7945 24.7306C45.8227 24.719 45.8519 24.7101 45.8802 24.6979C45.8906 24.6898 45.9032 24.689 45.9167 24.6847C46.015 24.6447 46.1164 24.6039 46.2178 24.5593H46.2285C46.3727 24.4973 46.5191 24.4276 46.6644 24.3552C51.3246 21.8146 53.6772 13.2784 60.9921 0.527358H58.9491L58.9514 0.526367Z" fill="url(#paint3_linear_1280_547)"/>
<path d="M18.5 1.08649C18.5117 1.08649 18.5221 1.08649 18.5335 1.09457C18.5617 1.09457 18.5899 1.09457 18.6182 1.10346H18.6465C18.6977 1.11155 18.7489 1.11579 18.8012 1.12307C18.8107 1.12307 18.8189 1.12307 18.8273 1.13116C18.8701 1.13924 18.914 1.1459 18.9579 1.15237C18.9675 1.15237 18.98 1.16046 18.9904 1.16046C19.0909 1.18007 19.1933 1.20046 19.2915 1.22577C19.3009 1.22577 19.3104 1.23385 19.3188 1.23385C19.3606 1.24355 19.3983 1.25588 19.4401 1.2673C19.4527 1.2673 19.4619 1.27538 19.4735 1.27721C19.5227 1.28954 19.5686 1.3017 19.6167 1.3172C19.6167 1.3172 19.6217 1.3172 19.6273 1.32529C19.668 1.33742 19.7098 1.35304 19.7528 1.36691C19.7695 1.37499 19.7851 1.37843 19.8008 1.38247C19.8302 1.39481 19.8626 1.40695 19.8908 1.41839C19.9076 1.41839 19.9242 1.42971 19.942 1.43557C19.9806 1.45275 20.0215 1.46821 20.0612 1.48455C20.0821 1.49263 20.0998 1.50173 20.1197 1.50902C20.1428 1.52054 20.1667 1.53107 20.1919 1.53923C20.2128 1.54894 20.2358 1.55964 20.2556 1.56861C20.2776 1.58013 20.2984 1.58902 20.3194 1.60044C20.838 1.84941 21.3158 2.18106 21.7582 2.58308C21.9213 2.41573 22.0917 2.2657 22.2684 2.13103C21.3012 1.46169 20.2054 1.08008 18.9413 1.08008C18.7949 1.08008 18.6486 1.08816 18.5001 1.09888" fill="#7DCCED"/>
<path d="M21.7578 2.57118C22.0287 2.81705 22.2879 3.09156 22.5336 3.38747C22.771 3.22626 23.0063 3.07114 23.2426 2.92627C22.9331 2.62424 22.6069 2.35282 22.267 2.11914C22.0903 2.25284 21.9209 2.40384 21.7578 2.57118Z" fill="#145A9F"/>
<path d="M18.5001 1.08614C18.6485 1.0739 18.7949 1.0688 18.9412 1.0688C20.2054 1.0688 21.3011 1.4504 22.2684 2.11872C23.2888 1.33306 24.5227 1.05859 26.2364 1.05859H17.9375C18.1288 1.05859 18.3161 1.06982 18.5001 1.08614Z" fill="#64C5EC"/>
<path d="M26.2336 1.05859C24.5199 1.05859 23.2861 1.33307 22.2656 2.11872C22.6044 2.35238 22.9307 2.62379 23.2401 2.92581C24.6611 2.04424 26.0685 1.46061 27.4559 1.20553C27.985 1.10859 28.513 1.05859 29.0338 1.05859H26.2336Z" fill="#14559B"/>
<path d="M46.579 15.3363C47.3161 13.118 48.16 10.4254 49.2066 7.15927C50.1498 4.21662 51.8196 2.01678 54.9553 1.05669C55.0381 0.892363 55.1163 0.722986 55.1968 0.556641C50.0848 0.855639 47.6957 3.39316 46.4933 7.15113C44.3907 13.7119 43.1171 17.9646 41.8906 20.6747C43.4569 19.2135 45.0232 17.4198 46.579 15.3363Z" fill="url(#paint4_linear_1280_547)"/>
</g>
<defs>
<linearGradient id="paint0_linear_1280_547" x1="54.9843" y1="0.523437" x2="54.9843" y2="25.1431" gradientUnits="userSpaceOnUse">
<stop stop-color="#D1F0FC"/>
<stop offset="1" stop-color="#116BB3"/>
</linearGradient>
<linearGradient id="paint1_linear_1280_547" x1="13.1903" y1="5.51465" x2="13.1903" y2="25.747" gradientUnits="userSpaceOnUse">
<stop stop-color="#44B3E9"/>
<stop offset="1" stop-color="#1760AC"/>
</linearGradient>
<linearGradient id="paint2_linear_1280_547" x1="53.9389" y1="0.526367" x2="53.9389" y2="24.5584" gradientUnits="userSpaceOnUse">
<stop stop-color="#AEDDF5"/>
<stop offset="1" stop-color="#3999D5"/>
</linearGradient>
<linearGradient id="paint3_linear_1280_547" x1="52.0078" y1="0.526367" x2="52.0078" y2="25.0042" gradientUnits="userSpaceOnUse">
<stop stop-color="#178BD3"/>
<stop offset="1" stop-color="#165195"/>
</linearGradient>
<linearGradient id="paint4_linear_1280_547" x1="48.5437" y1="0.556641" x2="48.5437" y2="20.6747" gradientUnits="userSpaceOnUse">
<stop stop-color="#1DA7E7"/>
<stop offset="1" stop-color="#B9E2F6"/>
</linearGradient>
</defs>
</svg>
