<svg width="145" height="36" viewBox="0 0 145 36" fill="none" xmlns="http://www.w3.org/2000/svg">
<mask id="mask0_1280_753" style="mask-type:luminance" maskUnits="userSpaceOnUse" x="0" y="0" width="145" height="36">
<path d="M145 0H0V35.5168H145V0Z" fill="white"/>
</mask>
<g mask="url(#mask0_1280_753)">
<path d="M62.0062 12.7865L62.0064 12.7852L61.0781 16.0751L62.0062 12.7865Z" fill="#2A2A52"/>
<path d="M66.5182 24.8418H66.5195L60.3906 24.8641L66.5182 24.8418Z" fill="#2A2A52"/>
<path d="M67.0547 24.424L68.1222 20.3525L67.0547 24.4249V24.424Z" fill="#2A2A52"/>
<path d="M89.2804 5.25293H85.0276C84.7915 5.25293 84.5574 5.44224 84.5074 5.67279L82.9973 12.6576L81.4878 19.6425C81.4378 19.873 81.2037 20.0616 80.9675 20.0616H78.3873H77.9578C74.9797 20.0616 75.3243 18.0022 75.934 15.1801C75.9399 15.1518 75.9465 15.124 75.9524 15.0949L76.0195 14.7393C76.0235 14.7164 76.0281 14.6933 76.032 14.6723L76.1675 13.9483L76.3135 13.1721C76.3576 12.9381 76.4247 12.596 76.4687 12.3811L77.1547 9.02768L77.8421 5.67425C77.8894 5.44302 77.7342 5.25303 77.4987 5.25303H73.1334C72.8973 5.25303 72.6638 5.44302 72.6158 5.67359L71.6773 10.1264L70.7387 14.5787C70.738 14.5806 70.7374 14.5834 70.7374 14.5855L70.6499 14.9992C69.5693 19.9348 69.8554 24.6413 75.7308 24.7886C75.8268 24.7914 75.9011 24.7921 75.9011 24.7921H85.1237C85.3598 24.7921 85.5933 24.6027 85.6426 24.3715L87.6315 15.023L89.6205 5.67373C89.6692 5.4425 89.5159 5.25293 89.2804 5.25293Z" fill="#2A2A52"/>
<path d="M106.242 20.1113C106.478 20.1113 106.632 20.3007 106.585 20.5319L106.172 22.5501" fill="#2A2A52"/>
<path d="M105.758 24.5693L106.171 22.5498L105.758 24.57L105.758 24.5693Z" fill="#2A2A52"/>
<path d="M105.243 24.9947C105.244 24.9947 105.244 24.9941 105.245 24.9941C103.993 25.0043 100.232 25.0327 97.4062 25.0327C100.846 25.0327 105.243 24.9947 105.243 24.9947Z" fill="#2A2A52"/>
<path d="M94.8688 17.5119C94.8648 17.2908 95.1167 16.9102 95.3529 16.9102L94.8221 16.9014C94.5827 19.3084 94.8688 17.5119 94.8688 17.5119Z" fill="#2A2A52"/>
<path d="M106.246 20.1113C106.483 20.1113 106.637 20.3007 106.59 20.5319L106.176 22.5501L106.109 22.8794" fill="#2A2A52"/>
<path d="M99.7917 25.0264C99.447 25.0277 99.1037 25.0291 98.7656 25.0299C99.1037 25.0293 99.4477 25.0279 99.7917 25.0264Z" fill="#2A2A52"/>
<path d="M105.245 24.9932C104.328 25.0006 102.063 25.0175 99.8047 25.0263C102.062 25.0182 104.327 25.0006 105.245 24.9932Z" fill="#2A2A52"/>
<path d="M105.758 24.5698L106.104 22.8789L105.758 24.5712L105.758 24.5698Z" fill="#2A2A52"/>
<path d="M35.8195 17.5621L36.48 14.6338L35.7248 17.9811L35 21.3907L35.6352 18.4018C35.6842 18.1705 35.7674 17.7926 35.8195 17.5621Z" fill="#2A2A52"/>
<path d="M43.7315 5.2041H39.0613C38.825 5.2041 38.5894 5.39273 38.5366 5.62261L38.0938 7.57726L37.6509 9.53259C37.5988 9.76246 37.7493 9.95103 37.9856 9.95103H42.6921C42.9281 9.95103 43.1627 9.76239 43.2134 9.53186L43.6414 7.57726L44.0693 5.62396C44.1197 5.39341 43.9678 5.2041 43.7315 5.2041Z" fill="#2A2A52"/>
<path d="M29.1504 32.7038C29.1504 32.7038 31.5046 32.7342 33.0012 32.7342C31.8643 32.7342 29.9868 32.7133 29.1484 32.7031C29.1493 32.7031 29.1496 32.7038 29.1504 32.7038Z" fill="#2A2A52"/>
<path d="M42.3755 11.2861H37.6685C37.4325 11.2861 37.1965 11.4748 37.1445 11.7054L36.4832 14.6337L35.8227 17.562C35.7706 17.7925 35.6875 18.1705 35.6384 18.4017L35.0033 21.3906L34.3684 24.3796C34.319 24.6101 34.2176 24.9827 34.1418 25.2064C34.1418 25.2064 33.2626 27.823 31.7842 27.7932C31.7214 27.7918 31.6602 27.7913 31.5997 27.7898C30.8834 27.7763 30.3205 27.7661 30.3205 27.7661H30.3194C30.0838 27.7626 29.8468 27.9466 29.7917 28.1758L29.3035 30.2278L28.8161 32.2791C28.7613 32.5083 28.9094 32.6976 29.144 32.7017C29.9824 32.7118 31.8599 32.7328 32.9967 32.7328C36.6893 32.7328 38.6359 30.6869 39.8838 24.7994L41.3441 18.0425L42.7139 11.7054C42.7637 11.4749 42.6114 11.2861 42.3755 11.2861Z" fill="#2A2A52"/>
<path d="M109.239 24.7932C109.004 24.7932 108.851 24.6039 108.9 24.3727L112.441 7.78711" fill="#2A2A52"/>
<path d="M108.951 24.5819C108.923 24.4663 108.94 24.183 108.99 23.9517L110.67 16.0791L108.9 24.3716C108.85 24.6028 109.003 24.7922 109.239 24.7922H109.67C109.433 24.7922 108.98 24.6975 108.951 24.5819Z" fill="#2A2A52"/>
<path d="M113.882 24.6983C113.754 24.7504 113.456 24.7929 113.219 24.7929H113.649C113.885 24.7929 114.117 24.6036 114.163 24.3717L114.249 23.9512C114.201 24.1824 114.011 24.6463 113.882 24.6983Z" fill="#2A2A52"/>
<path d="M114.883 20.8324L115.515 17.708C115.515 17.71 115.514 17.7127 115.514 17.7141L114.883 20.8324Z" fill="#2A2A52"/>
<path d="M128.855 8.89746L129.05 9.70336C129.104 9.93396 128.955 10.1212 128.719 10.1219" fill="#2A2A52"/>
<path d="M115.516 17.7078C115.563 17.4766 115.641 17.102 115.689 16.8728L116.365 13.71L115.6 17.2926L115.516 17.7078Z" fill="#2A2A52"/>
<path d="M112.507 7.51465C112.46 7.73775 112.4 8.01971 112.36 8.20631L110.68 16.0795L112.45 7.78648L112.507 7.51465Z" fill="#2A2A52"/>
<path d="M129.042 9.70285L128.847 8.89694L128.654 8.07137L128.556 7.65353C128.174 6.16813 127.051 5.31082 124.614 5.31082L120.821 5.30678L117.326 5.30273H117.026H113.395C113.159 5.30273 112.926 5.49137 112.877 5.7226H112.876L112.703 6.54409L112.497 7.51429L112.44 7.78606L110.67 16.0792L108.99 23.9519C108.94 24.183 108.923 24.4663 108.952 24.582C108.98 24.6976 109.433 24.7922 109.669 24.7922H113.216C113.452 24.7922 113.751 24.7496 113.88 24.6976C114.008 24.6455 114.199 24.1817 114.246 23.9505L114.876 20.8316L115.507 17.7133C115.508 17.712 115.508 17.7093 115.508 17.7073L115.593 17.2921L116.357 13.7095L117.033 10.5452C117.083 10.3153 117.315 10.1273 117.551 10.1267L128.711 10.1213C128.947 10.1208 129.096 9.93338 129.042 9.70285Z" fill="#2A2A52"/>
<path d="M143.414 2.41604C143.178 2.41771 142.792 2.41917 142.555 2.41917H138.983C138.747 2.41917 138.445 2.57873 138.311 2.77379L130.412 14.346C130.278 14.5414 130.126 14.5124 130.074 14.2825L129.493 11.7329C129.44 11.5023 129.204 11.3144 128.968 11.3144H123.89C123.653 11.3144 123.514 11.4996 123.578 11.7268L125.853 19.6981C125.918 19.9253 125.923 20.2985 125.864 20.527L124.873 24.385C124.814 24.6142 124.959 24.8015 125.196 24.8015H130.215C130.451 24.8015 130.692 24.6142 130.751 24.385L131.742 20.527C131.801 20.2985 131.965 19.9564 132.108 19.7677L144.932 2.74765C145.074 2.55902 144.997 2.40552 144.761 2.40724L143.414 2.41604Z" fill="#2A2A52"/>
<path d="M103.072 12.399V12.3943C103.042 12.6505 102.805 12.8385 102.57 12.8385H96.1315C95.9092 12.8385 95.7961 12.687 95.8283 12.5004C95.8303 12.495 95.8316 12.4903 95.8349 12.4856C95.8349 12.4856 95.8323 12.4862 95.8303 12.4875C95.8323 12.48 95.8323 12.4733 95.8343 12.4659C95.8343 12.4659 95.8461 12.4206 95.8632 12.3563C96.4782 10.7215 97.7311 9.64855 100.085 9.64855C102.735 9.64855 103.252 10.9434 103.072 12.399ZM101.183 4.96777C92.9192 4.96777 90.9612 9.98386 89.8622 15.0465C88.7638 20.2066 88.8585 25.0314 97.4095 25.0314H97.7134C97.7403 25.0308 97.7679 25.0308 97.7949 25.0308H98.0343H98.1225H98.3467C98.3796 25.0303 98.4132 25.0303 98.4467 25.0303C98.5322 25.0303 98.6184 25.0297 98.7045 25.0297H98.7651C99.1031 25.0292 99.4471 25.0275 99.7911 25.0263H99.8082C102.067 25.0175 104.332 25.0006 105.249 24.9931C105.484 24.9896 105.713 24.8004 105.762 24.5713L106.108 22.879L106.175 22.5497L106.588 20.5315C106.635 20.3002 106.481 20.111 106.245 20.111H98.5566C95.4995 20.111 94.5912 19.2983 94.9259 16.9096H107.215L107.214 16.911C107.217 16.911 107.22 16.9096 107.223 16.9096C107.418 16.9062 107.598 16.7716 107.67 16.5925C107.684 16.558 107.695 16.5222 107.7 16.485L107.698 16.4864C109.523 9.60343 109 4.96814 101.183 4.96814L101.183 4.96777Z" fill="#2A2A52"/>
<path d="M62.1249 12.3731L62.0086 12.7849C62.0086 12.7862 62.0084 12.7862 62.0084 12.7862L61.0804 16.0748L60.1528 19.3629C60.0886 19.5901 59.8431 19.776 59.6065 19.776H54.6948C50.9692 19.776 50.062 16.8621 50.9692 12.5641C51.8762 8.16801 53.6547 5.43525 57.3215 5.15859C62.3324 4.78063 63.3349 8.30495 62.1249 12.3731ZM65.493 19.523C65.493 19.523 67.8088 13.9004 68.335 10.6525C69.0519 6.30496 66.8755 0 58.4678 0C50.108 0 46.4779 6.01972 45.0927 12.5637C43.7077 19.155 45.5223 24.9357 53.8347 24.8883L60.3922 24.864L66.521 24.8417C66.7571 24.8397 66.9985 24.6523 67.0584 24.4245L68.1258 20.3522C68.1857 20.1237 68.041 19.9357 67.8055 19.9343L66.7821 19.9283L65.7594 19.9222C65.5581 19.9208 65.443 19.791 65.4673 19.6186C65.4719 19.5875 65.4792 19.5561 65.493 19.523Z" fill="#2A2A52"/>
<path d="M106.876 15.7598C106.876 15.9153 106.751 16.0417 106.595 16.0417C106.439 16.0417 106.312 15.9153 106.312 15.7598C106.312 15.6043 106.439 15.4785 106.595 15.4785C106.751 15.4785 106.876 15.6043 106.876 15.7598Z" fill="#2A2A52"/>
<path d="M1.65565 8.44922C-0.652597 11.7669 -0.36525 16.0832 1.39805 19.6083C1.43997 19.6928 1.48392 19.7759 1.52719 19.8591C1.55492 19.9118 1.58094 19.9659 1.60967 20.018C1.6259 20.0491 1.64415 20.0795 1.66106 20.1093C1.69114 20.1654 1.7219 20.2188 1.75301 20.2736C1.80777 20.3702 1.86389 20.4663 1.92136 20.5622C1.95313 20.615 1.98458 20.6677 2.01736 20.7205C2.08092 20.8232 2.14617 20.9246 2.21276 21.0261C2.24049 21.0693 2.26752 21.1126 2.29592 21.1545C2.38788 21.2918 2.48185 21.4284 2.57887 21.5629C2.58127 21.5664 2.58392 21.5703 2.58696 21.5737C2.60219 21.5953 2.61909 21.6163 2.63463 21.6379C2.71847 21.7536 2.80502 21.8678 2.89256 21.9807C2.92469 22.022 2.95713 22.0632 2.98959 22.1044C3.06768 22.2024 3.14712 22.2999 3.22792 22.3972C3.258 22.4337 3.28843 22.4702 3.31885 22.506C3.42737 22.6338 3.53791 22.7609 3.65082 22.8854C3.65289 22.8873 3.65556 22.8901 3.65756 22.8921C3.66231 22.8975 3.66636 22.9009 3.6704 22.9063C3.78061 23.0266 3.89352 23.1442 4.00779 23.2619C4.04328 23.2984 4.07946 23.3349 4.11597 23.3708C4.20454 23.46 4.29446 23.5479 4.38539 23.6351C4.42225 23.6703 4.45876 23.7061 4.4956 23.7399C4.61696 23.8542 4.73968 23.9664 4.86476 24.076C4.86683 24.0779 4.86846 24.0794 4.8705 24.0807C4.89179 24.0996 4.91377 24.1172 4.93473 24.1354C5.04494 24.2308 5.15718 24.3254 5.27007 24.4188C5.31605 24.4559 5.36271 24.4924 5.40902 24.5297C5.50131 24.6033 5.5946 24.6763 5.68858 24.748C5.73828 24.7859 5.78797 24.8237 5.83801 24.8616C5.94178 24.938 6.04625 25.0131 6.15174 25.0867C6.19022 25.1145 6.22745 25.1415 6.26599 25.1679C6.27678 25.1753 6.28658 25.1828 6.29743 25.1902C6.39747 25.2591 6.49988 25.3254 6.60202 25.3917C6.64595 25.4207 6.68956 25.4512 6.73383 25.4796C6.89069 25.579 7.04993 25.677 7.21087 25.7716C7.25448 25.7967 7.29874 25.821 7.34268 25.846C7.461 25.9143 7.57998 25.9812 7.70067 26.0468C7.76592 26.082 7.83287 26.1151 7.89878 26.1489C7.98395 26.1935 8.06847 26.2389 8.15502 26.2821C8.17462 26.2916 8.19488 26.3011 8.21415 26.3105C8.24901 26.3274 8.28413 26.3436 8.31899 26.3612C8.45317 26.4255 8.5884 26.4883 8.725 26.5492C8.75407 26.562 8.78209 26.5749 8.81084 26.5877C8.96737 26.656 9.12523 26.7216 9.28446 26.7844C9.32267 26.8 9.36121 26.8149 9.39976 26.8298C9.54715 26.8865 9.69659 26.9427 9.84668 26.9954C9.86562 27.0021 9.88384 27.0083 9.90278 27.015C10.0674 27.0725 10.2337 27.1259 10.4011 27.1779C10.4409 27.1894 10.4812 27.2023 10.5214 27.2137C10.6918 27.2652 10.8602 27.3267 11.0359 27.3591C22.1992 29.3949 25.4418 20.6507 25.4418 20.6507C22.7184 24.1988 17.8842 25.1345 13.304 24.0927C13.1306 24.0535 12.9622 23.9994 12.7929 23.9493C12.7499 23.9365 12.7077 23.9237 12.6655 23.9108C12.5001 23.8601 12.3361 23.8067 12.1732 23.7506C12.1509 23.7425 12.1283 23.7343 12.1056 23.7263C11.9596 23.6748 11.8152 23.6208 11.6716 23.5653C11.631 23.5491 11.5904 23.5335 11.5498 23.5173C11.3923 23.4551 11.2358 23.3902 11.0813 23.3226C11.0495 23.3091 11.0191 23.2949 10.9877 23.2814C10.8548 23.2212 10.7233 23.1603 10.5925 23.0975C10.5546 23.0792 10.5168 23.0616 10.4782 23.0427C10.3755 22.9926 10.2739 22.9391 10.1725 22.8871C10.1046 22.8513 10.0357 22.8175 9.96835 22.7801C9.84457 22.714 9.72303 22.645 9.60201 22.5747C9.56103 22.5517 9.51946 22.5295 9.47822 22.5057C9.31734 22.411 9.15837 22.3129 9.00105 22.2136C8.95757 22.1859 8.91522 22.1562 8.87227 22.1277C8.75815 22.054 8.64463 21.979 8.53275 21.902C8.49566 21.8768 8.45994 21.8499 8.42337 21.825C8.31538 21.7486 8.2085 21.6713 8.10241 21.5929C8.0542 21.5572 8.00684 21.5212 7.96008 21.4855C7.86287 21.411 7.76618 21.3359 7.67042 21.2589C7.62714 21.2245 7.58386 21.19 7.54124 21.1555C7.41956 21.0555 7.2992 20.9547 7.18055 20.8512C7.16805 20.8404 7.1545 20.8297 7.14102 20.8181C7.0125 20.7052 6.88642 20.5896 6.76171 20.4733C6.72554 20.4388 6.69035 20.405 6.6549 20.3706C6.56256 20.2826 6.47166 20.1941 6.38241 20.1035C6.34656 20.0676 6.31072 20.0325 6.27559 19.9967C6.16201 19.8804 6.05043 19.7627 5.94124 19.6431C5.93584 19.6369 5.93009 19.6316 5.92469 19.6255C5.80907 19.499 5.69616 19.3699 5.58561 19.2394C5.55553 19.2036 5.52645 19.1691 5.4967 19.134C5.41421 19.0346 5.3324 18.9338 5.25262 18.8324C5.22272 18.7959 5.1928 18.7585 5.16317 18.7208C5.06707 18.5962 4.9732 18.4719 4.88126 18.3456C2.33836 14.877 1.42484 10.0929 3.45726 6.16406" fill="#1C71FF"/>
<path d="M8.82401 5.65397C7.15465 8.0562 7.24528 11.2719 8.54744 13.8125C8.76586 14.2384 9.01126 14.6515 9.28572 15.045C9.53592 15.4033 9.81315 15.83 10.1451 16.118C10.2655 16.2505 10.3912 16.3796 10.5196 16.5068C10.5521 16.5398 10.5852 16.5717 10.6183 16.6041C10.7431 16.7251 10.8698 16.8441 11.001 16.9597C11.0064 16.9638 11.0112 16.9692 11.0166 16.9733C11.018 16.9747 11.0193 16.9753 11.0203 16.9768C11.1653 17.1038 11.315 17.2262 11.4672 17.3465C11.501 17.3723 11.5345 17.3993 11.5686 17.4257C11.7211 17.5427 11.8765 17.6576 12.0361 17.7671C12.0408 17.7706 12.0449 17.7739 12.0497 17.7772C12.12 17.826 12.1917 17.8712 12.263 17.9179C12.2971 17.9402 12.3296 17.9639 12.364 17.9848C12.478 18.0578 12.5933 18.1288 12.7105 18.1971C12.7271 18.2072 12.7434 18.216 12.7595 18.2255C12.8606 18.2837 12.9631 18.3411 13.0658 18.3965C13.1017 18.4168 13.1382 18.4344 13.1747 18.4533C13.2457 18.4905 13.3167 18.5284 13.389 18.5642C13.3998 18.5696 13.411 18.5744 13.4215 18.5791C13.5685 18.6515 13.7169 18.7211 13.8684 18.7873C13.9008 18.8015 13.9343 18.8144 13.9671 18.8279C14.0881 18.8793 14.2105 18.9293 14.3335 18.9767C14.3856 18.9963 14.4383 19.0152 14.4904 19.0341C14.6019 19.0754 14.7138 19.1132 14.8267 19.1511C14.8778 19.1673 14.9278 19.1842 14.9789 19.1998C15.1394 19.2498 15.298 19.3127 15.4653 19.3404C24.0843 20.7683 26.0741 14.1324 26.0741 14.1324C24.2804 16.7158 20.8069 17.9483 17.1001 16.9862C16.9355 16.9429 16.7732 16.8956 16.6119 16.8449C16.5626 16.83 16.5143 16.8138 16.4652 16.7975C16.3506 16.7604 16.2367 16.7212 16.1238 16.6799C16.0721 16.661 16.0204 16.6421 15.9696 16.6225C15.8459 16.5751 15.7235 16.5258 15.6022 16.4744C15.569 16.4602 15.5356 16.4474 15.5031 16.4324C15.351 16.3662 15.2012 16.2966 15.0535 16.2236C14.9774 16.1864 14.9027 16.1471 14.828 16.1086C14.7848 16.0863 14.7412 16.064 14.6979 16.0417C14.6019 15.9896 14.5065 15.9355 14.4125 15.8807C14.3903 15.8679 14.3669 15.8558 14.3442 15.8422C14.2276 15.7739 14.1127 15.7036 13.9987 15.6313C13.9636 15.609 13.9298 15.5846 13.8946 15.5616C13.8196 15.513 13.7445 15.4636 13.6709 15.4136C13.512 15.3041 13.3575 15.1891 13.205 15.0728C13.1699 15.0451 13.1347 15.018 13.1002 14.9903C11.4776 13.7092 10.1916 11.9587 9.58012 9.97365C8.9393 7.91492 9.07749 5.60391 10.1877 3.72852" fill="#1C71FF"/>
<path d="M14.8457 3.56522C13.8616 5.01345 13.7649 6.81202 14.4478 8.41159C15.1678 10.1093 16.6434 11.4412 18.3655 12.0726C18.4366 12.099 18.5075 12.1227 18.5795 12.147C18.611 12.1565 18.6421 12.1673 18.6739 12.1768C18.7753 12.2085 18.876 12.2457 18.9808 12.2653C23.7399 13.1849 25.0307 9.82319 25.3744 9.32845C24.2436 10.9565 22.3433 11.3473 20.0119 10.7814C19.8277 10.7366 19.6252 10.6701 19.4477 10.6072C19.2201 10.5261 18.9957 10.4335 18.7778 10.3289C18.3638 10.1301 17.9692 9.88856 17.6034 9.61219C15.5169 8.02919 14.2208 5.00926 15.5822 2.5498" fill="#1C71FF"/>
<path d="M68.4447 31.7724L67.0727 34.8968H65.5586L65.6823 32.0579L64.5676 34.8968H63.101L63.0625 31.7724L63.2244 31.001H64.263L64.0628 34.0869L65.2156 31.001H66.6636L66.559 34.1253L67.7021 31.001H68.6065L68.4447 31.7724Z" fill="#2A2A52"/>
<path d="M70.8377 32.6975C70.9712 32.0877 70.9331 31.9734 70.6187 31.9734H70.1418L69.8373 33.4027L69.3703 34.8976H68.4844L69.2085 31.5068L69.3138 31.0112H70.1234L70.228 31.2397C70.228 31.2397 70.695 30.9639 71.1514 30.9639C72.1235 30.9639 72.0472 31.6968 71.8374 32.6974L70.8377 32.6975Z" fill="#2A2A52"/>
<path d="M73.7176 30.5162C73.3276 30.5162 73.0803 30.4018 73.175 29.9259C73.2796 29.4492 73.5848 29.335 73.9656 29.335C74.3471 29.335 74.6042 29.4492 74.499 29.9259C74.4036 30.3924 74.0991 30.5162 73.7176 30.5162ZM73.2993 34.8981H72.4219L72.5942 33.3741L72.8988 31.9645L72.2891 31.8306L72.4607 31.0023H74.1274L73.2993 34.8981Z" fill="#2A2A52"/>
<path d="M77.0999 31.8282L76.0042 31.9621L75.6898 33.4482C75.6036 33.8579 75.6036 33.9721 75.966 33.9721H76.6994L76.5468 34.753C76.5468 34.753 75.8805 34.9532 75.5944 34.9532C74.4704 34.9532 74.4796 34.3339 74.6802 33.4097L74.9854 31.9526L74.375 31.8194L74.5559 30.9905H75.1945L75.5569 30.0088H76.4238L76.2133 30.9905H77.2808L77.0999 31.8282Z" fill="#2A2A52"/>
<path d="M79.37 31.8784C78.8564 31.8784 78.5893 32.1454 78.4848 32.6214L79.9515 32.4977C80.0179 32.1738 79.9515 31.8784 79.37 31.8784ZM78.342 33.3259C78.2749 33.8025 78.4558 33.9641 79.0655 33.9641H80.5987L80.4467 34.6883C80.4467 34.6883 79.5226 34.9452 78.8366 34.9452C77.1318 34.9452 77.1121 33.9837 77.3318 32.9547C77.5508 31.9446 77.9415 30.9453 79.5891 30.9453C81.1801 30.9453 81.2564 31.9067 80.8657 33.3259H78.342Z" fill="#2A2A52"/>
<path d="M84.3605 34.8972H83.4844L83.656 33.3733L84.275 30.4774L83.6652 30.3348L83.8461 29.5059H85.5134L84.3605 34.8972Z" fill="#2A2A52"/>
<path d="M87.5268 31.8784C87.0118 31.8784 86.7454 32.1454 86.6402 32.6214L88.1075 32.4977C88.1733 32.1738 88.1075 31.8784 87.5268 31.8784ZM86.4974 33.3259C86.431 33.8025 86.6119 33.9641 87.2209 33.9641H88.7547L88.6028 34.6883C88.6028 34.6883 87.678 34.9452 86.9927 34.9452C85.2872 34.9452 85.2688 33.9837 85.4878 32.9547C85.7069 31.9446 86.0975 30.9453 87.7451 30.9453C89.3361 30.9453 89.4124 31.9067 89.0218 33.3259H86.4974Z" fill="#2A2A52"/>
<path d="M93.0396 31.925C93.0396 31.925 91.9248 31.9345 91.6203 31.9345C90.9724 31.9345 90.906 32.134 90.8586 32.3435L90.8198 32.5342L92.8779 32.687C92.8779 32.687 92.8871 33.3442 92.8009 33.7154C92.6772 34.3347 92.0393 34.9627 90.8869 34.9627C90.3147 34.9627 89.3906 34.7444 89.3906 34.7444L89.5531 33.9919H90.9724C91.6012 33.9919 91.6867 33.8202 91.7255 33.6491L91.7729 33.4016L89.753 33.2489C89.753 33.2489 89.6774 32.7438 89.782 32.2394C89.9346 31.5532 90.5627 30.9629 91.7157 30.9629C92.2872 30.9629 93.2107 31.1718 93.2107 31.1718L93.0396 31.925Z" fill="#2A2A52"/>
<path d="M96.8671 31.925C96.8671 31.925 95.7529 31.9345 95.4478 31.9345C94.7999 31.9345 94.7335 32.134 94.6861 32.3435L94.6473 32.5342L96.7053 32.687C96.7053 32.687 96.7152 33.3442 96.629 33.7154C96.5054 34.3347 95.8667 34.9627 94.7144 34.9627C94.1428 34.9627 93.2188 34.7444 93.2188 34.7444L93.3806 33.9919H94.7999C95.4287 33.9919 95.5142 33.8202 95.553 33.6491L95.6004 33.4016L93.5805 33.2489C93.5805 33.2489 93.5049 32.7438 93.6094 32.2394C93.762 31.5532 94.3902 30.9629 95.5431 30.9629C96.1147 30.9629 97.0381 31.1718 97.0381 31.1718L96.8671 31.925Z" fill="#2A2A52"/>
<path d="M98.0708 35.5164H97.3091L97.3374 34.9443C97.0612 34.9261 96.9185 34.726 96.9849 34.392C97.0895 33.916 97.3848 33.8018 97.7755 33.8018C98.1563 33.8018 98.4128 33.916 98.3089 34.392L98.0708 35.5164Z" fill="#2A2A52"/>
<path d="M103.17 31.9635C102.599 31.9635 102.399 32.3063 102.265 32.9351C102.132 33.5639 102.17 33.935 102.741 33.935H103.532L103.97 31.9635H103.17ZM104.475 34.3921L104.37 34.8971L103.57 34.8877L103.456 34.6402C103.456 34.6402 102.751 34.9445 102.275 34.9445C101.055 34.9445 100.998 33.9445 101.217 32.9351C101.436 31.906 101.913 30.9344 103.122 30.9344C103.561 30.9344 104.151 31.1535 104.151 31.1535L104.637 29.5059H105.514L104.475 34.3921Z" fill="#2A2A52"/>
<path d="M107.626 31.9249C106.883 31.9249 106.645 32.3434 106.512 32.9532C106.388 33.5725 106.445 33.9918 107.178 33.9918C107.94 33.9918 108.169 33.582 108.302 32.9532C108.436 32.3623 108.397 31.9249 107.626 31.9249ZM106.979 34.954C105.407 34.954 105.282 33.9729 105.492 32.9533C105.712 31.9345 106.264 30.9629 107.836 30.9629C109.398 30.9629 109.541 31.9345 109.322 32.9533C109.102 33.9919 108.55 34.954 106.979 34.954Z" fill="#2A2A52"/>
<path d="M115.895 34.8958L116.066 33.3908L116.152 32.9621C116.276 32.3908 116.352 31.9717 115.752 31.9717H115.285C115.305 32.2671 115.247 32.6005 115.171 32.9527L114.762 34.8958H113.876L114.047 33.3908L114.133 32.9621C114.256 32.3908 114.332 31.9717 113.733 31.9717H113.351L112.723 34.8958H111.703L112.532 31.0002H113.332L113.456 31.2382C113.456 31.2382 113.999 30.9521 114.437 30.9521C114.771 30.9521 115.019 31.105 115.104 31.295C115.295 31.1902 115.838 30.9521 116.229 30.9521C117.447 30.9521 117.409 31.9427 117.19 32.9528L116.781 34.8959L115.895 34.8958Z" fill="#2A2A52"/>
<path d="M119.946 31.9249C119.203 31.9249 118.965 32.3434 118.832 32.9532C118.708 33.5725 118.765 33.9918 119.498 33.9918C120.26 33.9918 120.49 33.582 120.623 32.9532C120.756 32.3623 120.718 31.9249 119.946 31.9249ZM119.299 34.954C117.726 34.954 117.603 33.9729 117.813 32.9533C118.032 31.9345 118.584 30.9629 120.156 30.9629C121.718 30.9629 121.861 31.9345 121.641 32.9533C121.423 33.9919 120.87 34.954 119.299 34.954Z" fill="#2A2A52"/>
<path d="M124.29 32.6975C124.423 32.0877 124.386 31.9734 124.071 31.9734H123.595L123.29 33.4027L122.823 34.8976H121.938L122.661 31.5068L122.766 31.0112H123.576L123.68 31.2397C123.68 31.2397 124.147 30.9639 124.605 30.9639C125.576 30.9639 125.5 31.6968 125.29 32.6974L124.29 32.6975Z" fill="#2A2A52"/>
<path d="M127.698 31.8784C127.184 31.8784 126.917 32.1454 126.813 32.6214L128.279 32.4977C128.346 32.1738 128.279 31.8784 127.698 31.8784ZM126.669 33.3259C126.603 33.8025 126.784 33.9641 127.394 33.9641H128.927L128.775 34.6883C128.775 34.6883 127.851 34.9452 127.165 34.9452C125.46 34.9452 125.441 33.9837 125.659 32.9547C125.879 31.9446 126.27 30.9453 127.917 30.9453C129.508 30.9453 129.584 31.9067 129.194 33.3259H126.669Z" fill="#2A2A52"/>
<path d="M130.051 34.9549C129.65 34.9549 129.404 34.8406 129.508 34.3741C129.603 33.8968 129.898 33.7832 130.299 33.7832C130.671 33.7832 130.927 33.8968 130.832 34.3741C130.727 34.8311 130.423 34.9549 130.051 34.9549Z" fill="#2A2A52"/>
</g>
</svg>
