<svg width="107" height="40" viewBox="0 0 107 40" fill="none" xmlns="http://www.w3.org/2000/svg">
<g opacity="0.8">
<path d="M20.8029 14.8875C23.4154 14.8875 25.0445 13.425 25.0445 11.375V11.3208C25.0445 9.02081 23.3862 7.80831 20.8029 7.80831H16.7862V14.8875H20.8029ZM13.332 4.66248H21.082C25.6612 4.66248 28.5529 7.27498 28.5529 11.2333V11.2875C28.5529 15.7 25.0112 18 20.6904 18H16.7862V24.3208H13.332V4.66248ZM29.5487 4.81248H32.9445V24.325H29.5487V4.81248ZM44.757 18.1167C43.6695 17.7167 42.5195 17.5167 41.357 17.525C39.2237 17.525 37.957 18.3958 37.957 19.825V19.8792C37.957 21.2833 39.2195 22.0708 40.8237 22.0708C43.0695 22.0708 44.7528 20.8083 44.7528 18.9542V18.1167H44.757ZM44.6737 24.325V22.5C43.4862 23.9125 41.7153 24.7 39.8737 24.6333C37.0653 24.6333 34.5904 23.0333 34.5904 20.0542V20C34.5904 16.7125 37.1445 15.1416 40.6028 15.1416C41.9945 15.1166 43.382 15.325 44.7028 15.7583V15.4791C44.7028 13.4291 43.4112 12.3041 41.0528 12.3041C39.5903 12.3083 38.1445 12.625 36.8112 13.2291L35.882 10.5041C37.6445 9.66248 39.5778 9.24165 41.5278 9.26664C45.907 9.26664 48.0445 11.5666 48.0445 15.5292V24.3167L44.6737 24.325ZM48.9278 16.9958V16.9417C48.8695 12.7166 52.2445 9.24581 56.4695 9.18748C56.5195 9.18748 56.5737 9.18748 56.6237 9.18748C58.8862 9.08748 61.0695 10.0291 62.5487 11.7416L60.4445 14.0166C59.5028 12.8541 58.0903 12.1708 56.5945 12.1625C54.1237 12.1625 52.3237 14.2958 52.3237 16.8791V16.9375C52.3237 19.575 54.1487 21.7125 56.7612 21.7125C58.2487 21.6708 59.6487 20.9958 60.607 19.8583L62.657 21.8833C59.8987 25.175 54.9945 25.6042 51.7028 22.8458C49.9737 21.3917 48.9612 19.2542 48.9278 16.9958ZM73.7403 15.8708C73.5153 13.6791 72.2237 11.9666 69.9778 11.9666C67.9028 11.9666 66.4403 13.5666 66.132 15.8708H73.7403ZM62.7612 16.9667V16.9125C62.7612 12.6708 65.7653 9.18748 70.007 9.18748C74.7278 9.18748 77.1112 12.8958 77.1112 17.1625C77.1112 17.4708 77.082 17.775 77.057 18.1167H66.157C66.357 20.3042 68.2278 21.9583 70.4278 21.8792C71.957 21.8875 73.4195 21.2417 74.4445 20.1083L76.4362 21.8792C74.9612 23.7042 72.7153 24.7333 70.3695 24.6583C66.2862 24.7792 62.8778 21.5667 62.757 17.4833C62.7528 17.3083 62.7528 17.1375 62.7612 16.9667ZM89.9903 16.9375V16.8791C89.9903 14.0166 87.9695 12.1333 85.6987 12.1333C83.3653 12.1333 81.4278 13.9291 81.4278 16.8791V16.9375C81.4278 19.8 83.3945 21.6833 85.6987 21.6833C87.9695 21.6833 89.9903 19.775 89.9903 16.9375ZM77.9945 16.9375V16.8791C77.9945 11.9666 81.3362 9.18331 84.8737 9.18331C86.8862 9.17498 88.7737 10.15 89.9278 11.7958V4.81248H93.332V24.3208H89.932V21.85C88.8403 23.5875 86.9278 24.6417 84.8778 24.6292C81.3945 24.6333 77.9945 21.85 77.9945 16.9375Z" fill="#FFE7BB"/>
<path opacity="0.5" d="M54.5487 28.6334H53.2487C53.1612 28.6334 53.0903 28.7042 53.0903 28.7917V32.1209C53.0903 32.6584 52.8695 32.9542 52.3737 32.9542C51.8778 32.9542 51.657 32.6625 51.657 32.1209V28.7917C51.6612 28.7084 51.5945 28.6334 51.5112 28.6334C51.507 28.6334 51.5028 28.6334 51.4987 28.6334H50.1862C50.0987 28.6334 50.0279 28.7042 50.0279 28.7917V32.4417C50.0279 33.5667 50.8445 34.4834 52.3612 34.4834C53.8945 34.4834 54.7237 33.5792 54.7237 32.4417V28.7917C54.7195 28.7 54.6445 28.6292 54.5528 28.6292C54.5528 28.6334 54.5528 28.6334 54.5487 28.6334ZM63.9778 30.9667L63.0278 30.6459C62.7487 30.5459 62.7195 30.3959 62.7195 30.2959C62.7195 30.15 62.8653 30.0042 63.1445 30.0042C63.5695 30.0084 63.9778 30.1542 64.3112 30.4125C64.3695 30.4584 64.4528 30.4542 64.4987 30.4L65.2278 29.4792C65.2778 29.4167 65.2695 29.3292 65.2153 29.275C64.6278 28.7959 63.8862 28.5459 63.1278 28.5584C61.7695 28.5584 60.9528 29.4 60.9528 30.3209C60.9612 31.1125 61.4987 31.8042 62.2653 32L63.0987 32.2917C63.507 32.4375 63.582 32.5375 63.582 32.7167C63.582 32.875 63.4237 33.0542 63.0862 33.0542C62.5778 33.0125 62.0987 32.8084 61.7153 32.4709C61.657 32.425 61.5737 32.4292 61.5278 32.4834L60.782 33.475C60.7362 33.5375 60.7403 33.625 60.7945 33.6792C61.457 34.2292 62.2987 34.5167 63.157 34.4959C64.4278 34.4959 65.3612 33.75 65.3612 32.6417C65.3445 31.8334 64.7737 31.1375 63.9778 30.9667ZM58.0237 31.0834H57.182V30.0917H58.0237C58.507 30.0917 58.682 30.3125 58.682 30.5875C58.682 30.8667 58.4903 31.0834 58.0237 31.0834ZM59.307 32.2334C59.9737 31.95 60.3945 31.2792 60.357 30.5542C60.3112 29.45 59.382 28.5917 58.2778 28.6334C58.2362 28.6334 58.1945 28.6375 58.1529 28.6417H55.657C55.5737 28.65 55.5112 28.7167 55.5112 28.8V34.2292C55.5112 34.3084 55.5779 34.375 55.657 34.375H56.9987C57.0779 34.375 57.1445 34.3084 57.1445 34.2292V32.4792H57.6695L58.6195 34.2417C58.6653 34.3209 58.7487 34.3667 58.8403 34.3709H60.3862C60.4737 34.3709 60.5028 34.3125 60.4612 34.2417L59.307 32.2334ZM43.0362 28.6334H39.1404C39.0404 28.6292 38.957 28.7042 38.9529 28.8042V28.8084V34.2084C38.9529 34.2959 39.0237 34.3667 39.1112 34.3667H40.4237C40.507 34.3584 40.5695 34.2917 40.5695 34.2084V32.4584H42.232C42.3195 32.4584 42.3945 32.4 42.407 32.3125L42.657 31.1167C42.6779 31.0584 42.6445 30.9959 42.5904 30.975C42.5737 30.9709 42.557 30.9667 42.5404 30.9709H40.5862V30.0959H42.7904C42.8779 30.0959 42.9529 30.0375 42.9654 29.95L43.1945 28.825C43.2112 28.7375 43.1529 28.6542 43.0654 28.6375C43.0529 28.6375 43.0445 28.6334 43.0362 28.6334ZM92.9195 30.1084C93.007 30.1084 93.082 30.05 93.0945 29.9625L93.3237 28.8375C93.3362 28.7375 93.3237 28.65 93.1778 28.65H89.2528C89.1612 28.6459 89.082 28.7167 89.0778 28.8125C89.0778 28.8167 89.0778 28.8209 89.0778 28.825V34.225C89.0778 34.3125 89.1487 34.3834 89.2362 34.3834H92.8112C92.8987 34.3834 92.9737 34.325 92.9862 34.2375L93.2153 33.1125C93.2278 33.0125 93.2153 32.925 93.0695 32.925H90.6945V32.2667H92.357C92.4445 32.2667 92.5195 32.2084 92.532 32.1209L92.782 30.925C92.8028 30.8667 92.7695 30.8042 92.7153 30.7834C92.6987 30.7792 92.682 30.775 92.6653 30.7792H90.6945V30.1209H92.9153L92.9195 30.1084ZM80.1362 31.8875H79.6112L80.1362 30.1375L80.6612 31.8875H80.1362ZM81.2153 28.7625C81.1903 28.6875 81.1195 28.6334 81.0403 28.6334H79.2445C79.1653 28.6334 79.0945 28.6875 79.0695 28.7625L77.4153 34.2334C77.3903 34.2834 77.4153 34.3459 77.4653 34.3709C77.482 34.3792 77.4987 34.3834 77.5195 34.3792H78.9945C79.0778 34.3709 79.1487 34.3125 79.1695 34.2334L79.3987 33.4H80.8737L81.1237 34.2334C81.1445 34.3125 81.2153 34.3709 81.2987 34.3792H82.757C82.8195 34.375 82.8695 34.3209 82.8612 34.2584C82.8612 34.25 82.8612 34.2417 82.857 34.2334L81.2153 28.7625ZM76.9653 28.6334H75.6653C75.5778 28.6334 75.507 28.7042 75.507 28.7917V32.1209C75.507 32.6584 75.2862 32.9542 74.7903 32.9542C74.2945 32.9542 74.0737 32.6625 74.0737 32.1209V28.7917C74.0778 28.7084 74.0112 28.6334 73.9278 28.6334C73.9237 28.6334 73.9195 28.6334 73.9153 28.6334H72.6153C72.5278 28.6334 72.457 28.7042 72.457 28.7917V32.4417C72.457 33.5667 73.2737 34.4834 74.7903 34.4834C76.3237 34.4834 77.1528 33.5792 77.1528 32.4417V28.7917C77.1362 28.7042 77.057 28.6417 76.9653 28.6334ZM85.9403 31.0834H85.0987V30.0917H85.9403C86.407 30.0917 86.5987 30.3125 86.5987 30.5875C86.5987 30.8667 86.4112 31.0834 85.9403 31.0834ZM87.2278 32.2334C87.8987 31.95 88.3153 31.2792 88.2778 30.5542C88.232 29.45 87.3028 28.5917 86.1987 28.6334C86.157 28.6334 86.1153 28.6375 86.0737 28.6417H83.5778C83.4945 28.65 83.432 28.7167 83.432 28.8V34.2292C83.432 34.3084 83.4987 34.375 83.5778 34.375H84.9237C85.0028 34.375 85.0695 34.3084 85.0695 34.2292V32.4792H85.5945L86.5445 34.2417C86.5903 34.3209 86.6737 34.3667 86.7653 34.3709H88.3112C88.3987 34.3709 88.4278 34.3125 88.3862 34.2417L87.2278 32.2334ZM68.7653 32.9667C67.9612 33.0875 67.207 32.5334 67.0862 31.7292C66.9653 30.925 67.5195 30.1709 68.3237 30.05C69.1278 29.9292 69.882 30.4834 70.0028 31.2875C70.0153 31.3625 70.0195 31.4375 70.0195 31.5125C70.0862 32.25 69.5445 32.9 68.807 32.9667C68.7945 32.9667 68.7778 32.9667 68.7653 32.9667ZM71.7403 33.6667C71.4487 33.7834 71.1278 33.8084 70.8195 33.7417C70.8778 33.6834 70.9362 33.6417 70.9945 33.5834C71.7612 32.7459 71.9945 31.5542 71.607 30.4917C71.1903 29.4084 70.182 28.6625 69.0237 28.5792C67.3903 28.4042 65.9237 29.5875 65.7487 31.2209C65.6612 32.0334 65.9112 32.8459 66.4403 33.4667C67.1403 34.2459 68.1903 34.6209 69.2278 34.4584L69.2695 34.5C69.9028 35.0375 70.7028 35.3292 71.532 35.3334L71.8528 33.7584C71.8612 33.7 71.8153 33.6417 71.7403 33.6667ZM46.3487 32.9667C45.5445 33.0875 44.7904 32.5334 44.6695 31.7292C44.5487 30.925 45.1029 30.1709 45.907 30.05C46.7112 29.9292 47.4654 30.4834 47.5862 31.2875C47.5987 31.3625 47.6029 31.4375 47.6029 31.5125C47.682 32.2334 47.1654 32.8834 46.4445 32.9625C46.4112 32.9625 46.382 32.9667 46.3487 32.9667ZM46.6112 28.5584C44.9779 28.3834 43.5112 29.5667 43.3362 31.2C43.2487 32.0125 43.4987 32.825 44.0279 33.4459C45.207 34.7334 47.207 34.825 48.4945 33.6459C48.5237 33.6167 48.5528 33.5917 48.582 33.5625C49.707 32.3667 49.6487 30.4834 48.4529 29.3584C47.9487 28.8875 47.2987 28.6042 46.6112 28.5584ZM15.007 29.5584C15.1695 29.65 15.307 29.7834 15.3945 29.95C15.582 30.3125 15.582 30.7375 15.3945 31.1C15.307 31.2625 15.1737 31.4 15.0112 31.4917C14.8404 31.5875 14.6487 31.6334 14.457 31.6292C14.2904 31.6334 14.1279 31.5959 13.982 31.5209C13.8404 31.4459 13.7195 31.3375 13.632 31.2V32.4084H13.332V29.4334H13.6112V29.8625C13.6945 29.7209 13.8154 29.6084 13.9612 29.5334C14.1112 29.4542 14.282 29.4167 14.4487 29.4167C14.6445 29.4167 14.8362 29.4625 15.007 29.5584ZM14.8445 31.2625C14.9695 31.1917 15.0695 31.0875 15.1362 30.9625C15.207 30.825 15.2445 30.675 15.2404 30.5209C15.2445 30.3667 15.207 30.2167 15.1362 30.0792C15.0695 29.9542 14.9695 29.85 14.8445 29.7792C14.7195 29.7084 14.5779 29.6709 14.432 29.6709C14.2862 29.6667 14.1445 29.7042 14.0154 29.7792C13.8945 29.85 13.7945 29.9542 13.7279 30.0792C13.657 30.2125 13.6195 30.3667 13.6237 30.5209C13.6195 30.675 13.657 30.825 13.7279 30.9625C13.7945 31.0875 13.8945 31.1917 14.0154 31.2625C14.1404 31.3334 14.2862 31.3709 14.432 31.3667C14.5737 31.3709 14.7195 31.3334 14.8445 31.2625ZM16.3737 31.4875C16.207 31.3959 16.0695 31.2584 15.9779 31.0917C15.7862 30.7375 15.7862 30.3084 15.9779 29.95C16.0695 29.7834 16.207 29.65 16.3737 29.5584C16.7279 29.3709 17.1529 29.3709 17.507 29.5584C17.6737 29.65 17.807 29.7875 17.9029 29.95C18.0945 30.3042 18.0945 30.7334 17.9029 31.0917C17.8112 31.2584 17.6737 31.3959 17.507 31.4875C17.1487 31.675 16.7237 31.675 16.3737 31.4875ZM17.3529 31.2625C17.4737 31.1917 17.5737 31.0875 17.6404 30.9625C17.7779 30.6834 17.7779 30.3584 17.6404 30.0792C17.5737 29.9542 17.4779 29.85 17.3529 29.7792C17.0945 29.6375 16.782 29.6375 16.5237 29.7792C16.4029 29.85 16.2987 29.9542 16.2362 30.0792C16.0945 30.3584 16.0945 30.6834 16.2362 30.9625C16.3029 31.0875 16.4029 31.1917 16.5237 31.2625C16.782 31.4042 17.0945 31.4042 17.3529 31.2625ZM21.682 29.4334L20.8612 31.6042H20.5862L19.8987 29.825L19.2112 31.6042H18.9362L18.1154 29.4334H18.3945L19.0779 31.2792L19.7779 29.4334H20.032L20.7237 31.2792L21.4154 29.4334H21.682ZM23.8737 30.6125H22.057C22.0654 30.8209 22.1612 31.0209 22.3154 31.1584C22.482 31.3 22.6945 31.375 22.9112 31.3667C23.0404 31.3667 23.1654 31.3417 23.282 31.2959C23.3945 31.2459 23.4945 31.175 23.5737 31.0834L23.7404 31.275C23.6445 31.3917 23.5195 31.4834 23.3779 31.5375C23.2279 31.6 23.0654 31.6292 22.9029 31.6292C22.6945 31.6334 22.4904 31.5834 22.3112 31.4875C22.1445 31.3959 22.0029 31.2584 21.907 31.0917C21.807 30.9167 21.757 30.7209 21.7612 30.5209C21.757 30.3209 21.807 30.125 21.8987 29.95C21.9862 29.7875 22.1195 29.65 22.282 29.5584C22.4487 29.4625 22.6362 29.4167 22.8237 29.4167C23.0154 29.4125 23.1987 29.4625 23.3654 29.5584C23.5237 29.65 23.6529 29.7875 23.7404 29.95C23.832 30.125 23.882 30.3209 23.8779 30.5209L23.8737 30.6125ZM22.2987 29.8709C22.157 30.0084 22.0695 30.1959 22.057 30.3917H23.5987C23.5862 30.1917 23.5029 30.0084 23.357 29.8709C23.0529 29.6042 22.5987 29.6042 22.2987 29.8709ZM24.982 29.5292C25.1404 29.45 25.3112 29.4125 25.4862 29.4167V29.7H25.4154C25.2154 29.6875 25.0195 29.7667 24.8779 29.9125C24.7404 30.0792 24.6695 30.2875 24.682 30.5042V31.6125H24.3904V29.4417H24.6695V29.8667C24.7362 29.7209 24.8445 29.6042 24.982 29.5292ZM27.8029 30.6125H25.9862C25.9945 30.8209 26.0904 31.0209 26.2445 31.1584C26.4112 31.3 26.6237 31.375 26.8404 31.3667C26.9695 31.3667 27.0945 31.3417 27.2112 31.2959C27.3237 31.2459 27.4237 31.175 27.5029 31.0834L27.6695 31.275C27.5737 31.3917 27.4487 31.4834 27.307 31.5375C27.157 31.6 26.9945 31.6292 26.832 31.6292C26.6237 31.6334 26.4195 31.5834 26.2404 31.4875C26.0737 31.3959 25.932 31.2584 25.8362 31.0917C25.7362 30.9167 25.6862 30.7209 25.6904 30.5209C25.6862 30.3209 25.7362 30.125 25.8279 29.95C25.9154 29.7875 26.0487 29.65 26.2112 29.5584C26.5487 29.3709 26.957 29.3709 27.2945 29.5584C27.4529 29.65 27.582 29.7875 27.6695 29.95C27.7612 30.125 27.8112 30.3209 27.807 30.5209L27.8029 30.6125ZM26.2279 29.8709C26.0862 30.0084 25.9987 30.1959 25.9862 30.3917H27.5279C27.5154 30.1917 27.4279 30.0084 27.2862 29.8709C26.982 29.6042 26.532 29.6042 26.2279 29.8709ZM30.307 28.5459V31.6125H30.0279V31.1834C29.9445 31.325 29.8237 31.4417 29.6779 31.5167C29.5279 31.5959 29.357 31.6334 29.1904 31.6334C28.9987 31.6375 28.807 31.5875 28.6362 31.4917C28.4737 31.4 28.3404 31.2625 28.2487 31.1C28.0612 30.7417 28.0612 30.3084 28.2487 29.95C28.3404 29.7875 28.4737 29.65 28.6362 29.5584C28.807 29.4667 28.9945 29.4167 29.1904 29.4209C29.357 29.4167 29.5195 29.4542 29.6654 29.5292C29.807 29.6042 29.9279 29.7125 30.0154 29.85V28.5459H30.307ZM29.6237 31.2667C29.7445 31.1959 29.8487 31.0917 29.9112 30.9667C30.0529 30.6875 30.0529 30.3625 29.9112 30.0834C29.8445 29.9584 29.7445 29.8542 29.6237 29.7834C29.3654 29.6417 29.057 29.6417 28.7987 29.7834C28.6779 29.8542 28.5737 29.9584 28.5112 30.0834C28.3695 30.3625 28.3695 30.6875 28.5112 30.9667C28.5779 31.0917 28.6779 31.1959 28.7987 31.2667C29.057 31.4084 29.3654 31.4084 29.6237 31.2667ZM33.7154 29.5584C33.8779 29.65 34.0154 29.7834 34.1029 29.95C34.2904 30.3084 34.2904 30.7417 34.1029 31.1C34.0112 31.2625 33.8779 31.4 33.7154 31.4917C33.5445 31.5875 33.357 31.6334 33.1612 31.6334C32.9904 31.6375 32.8237 31.5959 32.6737 31.5167C32.5279 31.4375 32.407 31.325 32.3237 31.1834V31.6125H32.0445V28.5417H32.3362V29.8459C32.4237 29.7084 32.5404 29.6 32.6862 29.525C32.832 29.45 32.9987 29.4125 33.1612 29.4167C33.3529 29.4167 33.5445 29.4625 33.7154 29.5584ZM33.5529 31.2625C33.6779 31.1917 33.7779 31.0875 33.8445 30.9625C33.9862 30.6834 33.9862 30.3584 33.8445 30.0792C33.7779 29.9542 33.6779 29.85 33.5529 29.7792C33.2945 29.6375 32.982 29.6375 32.7237 29.7792C32.6029 29.85 32.4987 29.9542 32.4362 30.0792C32.2945 30.3584 32.2945 30.6834 32.4362 30.9625C32.5029 31.0875 32.6029 31.1917 32.7237 31.2625C32.982 31.4042 33.2945 31.4042 33.5529 31.2625ZM36.5237 29.4334L35.4362 31.8667C35.3737 32.0375 35.2695 32.1834 35.1279 32.3C35.007 32.3875 34.8612 32.4334 34.7112 32.4292C34.6112 32.4292 34.5112 32.4125 34.4195 32.3792C34.332 32.3459 34.2487 32.2959 34.1862 32.2292L34.3237 32.0084C34.4279 32.1167 34.5695 32.175 34.7195 32.175C34.8112 32.1792 34.8987 32.15 34.9737 32.0917C35.0612 32.0125 35.1279 31.9167 35.1695 31.8125L35.2654 31.6L34.2945 29.4334H34.6029L35.4154 31.2792L36.232 29.4334H36.5237Z" fill="#FFE7BB"/>
</g>
</svg>
