<svg width="183" height="40" viewBox="0 0 183 40" fill="none" xmlns="http://www.w3.org/2000/svg">
<g opacity="0.8" clip-path="url(#clip0_463_37722)">
<path opacity="0.25" d="M0.0664062 28.0591C0.0664062 27.1639 0.422124 26.3053 1.05531 25.6723C1.68849 25.0392 2.54727 24.6836 3.44273 24.6836H12.4112V37.0255H3.44273C2.54727 37.0255 1.68849 36.6699 1.05531 36.0368C0.422124 35.4037 0.0664062 34.5452 0.0664062 33.65V28.0591Z" fill="#024430"/>
<path opacity="0.5" d="M12.4102 15.5565C12.4206 15.1237 12.5162 14.6973 12.6915 14.3014C12.8668 13.9056 13.1185 13.5482 13.432 13.2496C13.7456 12.951 14.1149 12.7171 14.5188 12.5613C14.9228 12.4055 15.3536 12.3308 15.7864 12.3415H24.7549V37.0252H12.4102V15.5565Z" fill="#024430"/>
<path d="M24.7539 3.26416C24.7612 2.82816 24.8543 2.39785 25.0279 1.99783C25.2015 1.59779 25.4522 1.23587 25.7658 0.932725C26.0792 0.629583 26.4495 0.391161 26.8551 0.231077C27.2608 0.0709945 27.6942 -0.00761485 28.1303 -0.000260143H33.7224C34.1586 -0.00761485 34.5919 0.0709945 34.9975 0.231077C35.4032 0.391161 35.7735 0.629583 36.087 0.932725C36.4006 1.23587 36.6512 1.59779 36.8248 1.99783C36.9984 2.39785 37.0915 2.82816 37.0988 3.26416V33.761C37.0915 34.197 36.9984 34.6273 36.8248 35.0273C36.6512 35.4273 36.4006 35.7893 36.087 36.0923C35.7735 36.3955 35.4032 36.6339 34.9975 36.7941C34.5919 36.9541 34.1586 37.0327 33.7224 37.0254H24.7539V3.26416Z" fill="#024430"/>
<path d="M43.4901 13.8782C43.4901 17.7473 45.7369 20.2034 50.0268 21.1351L54.0327 22.0299C56.1067 22.4805 56.9708 23.4863 56.9708 25.1771C56.9708 27.2875 55.1191 28.565 52.1687 28.565C49.3355 28.565 47.6072 27.2875 47.5701 25.1401H43.1445C43.2495 29.6695 46.7739 32.5453 52.1687 32.5453C57.7237 32.5453 61.4272 29.503 61.4272 24.8007C61.4272 21.0365 59.3163 18.8273 54.9956 17.8893L51.0205 17.0253C48.9157 16.5439 47.9343 15.5443 47.9343 13.7423C47.9343 11.6381 49.6996 10.3237 52.4279 10.3237C54.8968 10.3237 56.4708 11.6011 56.5757 13.7794H61.0013C60.8593 9.21907 57.6127 6.37427 52.4957 6.37427C47.1567 6.38044 43.4901 9.45356 43.4901 13.8782Z" fill="#024430"/>
<path d="M64.4297 39.9995H68.6456V29.8051C69.7196 31.533 71.9293 32.5388 74.4846 32.5388C79.5645 32.5388 82.4717 28.6696 82.4717 23.3442C82.4717 18.0187 79.2929 14.5012 74.4846 14.5012C71.8922 14.5012 69.6454 15.6367 68.6085 17.5867L68.3369 14.9948H64.4297V39.9995ZM68.6825 23.5539C68.6825 20.4684 70.5837 18.3334 73.4846 18.3334C76.3857 18.3334 78.2189 20.5116 78.2189 23.5539C78.2189 26.5963 76.4536 28.7375 73.4846 28.7375C70.5157 28.7375 68.6825 26.6271 68.6825 23.5539Z" fill="#024430"/>
<path d="M93.1179 32.5388C97.5806 32.5388 100.691 30.2926 101.42 26.5592H97.5127C97.0251 28.1822 95.5067 29.0831 93.192 29.0831C90.3898 29.0831 88.7972 27.559 88.4886 24.5536H101.346V23.2392C101.346 17.9199 98.0991 14.5012 92.9822 14.5012C87.9702 14.5012 84.4766 18.2038 84.4766 23.5539C84.4766 28.9042 88.038 32.5388 93.1179 32.5388ZM93.0192 17.957C95.5375 17.957 97.1671 19.512 97.1671 21.857H88.5935C89.0071 19.3022 90.5318 17.957 93.0192 17.957Z" fill="#024430"/>
<path d="M108.595 32.0885V22.8937C108.595 20.1291 110.187 18.3334 112.78 18.3334C114.958 18.3334 116.372 19.7157 116.372 22.5851V32.0885H120.588V21.5978C120.588 17.1733 118.378 14.5135 114.094 14.5135C113.027 14.4675 111.966 14.6938 111.01 15.171C110.055 15.6482 109.236 16.3606 108.632 17.2411L108.286 15.0319H104.379V32.0885H108.595Z" fill="#024430"/>
<path d="M131.41 32.5395C134.002 32.5395 136.212 31.3979 137.249 29.454L137.526 32.0889H141.416V6.38086H137.23V17.1924C136.162 15.5015 134.052 14.5019 131.675 14.5019C126.521 14.5019 123.41 18.3031 123.41 23.6224C123.41 28.9417 126.465 32.5395 131.41 32.5395ZM132.342 28.6703C129.404 28.6703 127.601 26.5228 127.601 23.4867C127.601 20.4505 129.404 18.2661 132.342 18.2661C135.28 18.2661 137.181 20.4073 137.181 23.4867C137.181 26.566 135.28 28.6703 132.342 28.6703Z" fill="#024430"/>
<path d="M143.754 15.02V18.5436H146.222V32.0888H150.407V18.5436H157.197V32.0888H161.413V6.38069H157.197V15.02H150.407V12.9589C150.407 11.2619 150.821 10.1573 152.722 10.1573H154.21V6.55348C153.49 6.4282 152.761 6.37035 152.031 6.38069C148.574 6.38069 146.222 8.3122 146.222 12.9466V15.02H143.754Z" fill="#024430"/>
<path d="M164.488 23.5174C164.488 28.8429 168.322 32.5022 173.612 32.5022C178.902 32.5022 182.735 28.8429 182.735 23.5174C182.735 18.1918 178.902 14.5325 173.612 14.5325C168.322 14.5325 164.488 18.1981 164.488 23.5174ZM168.704 23.5174C168.704 20.4319 170.711 18.3029 173.643 18.3029C176.575 18.3029 178.55 20.4073 178.55 23.5174C178.55 26.6275 176.543 28.7379 173.643 28.7379C170.742 28.7379 168.704 26.6275 168.704 23.5174Z" fill="#024430"/>
</g>
<defs>
<clipPath id="clip0_463_37722">
<rect width="182.667" height="40" fill="white" transform="translate(0.0664062)"/>
</clipPath>
</defs>
</svg>
