<svg width="107" height="40" viewBox="0 0 107 40" fill="none" xmlns="http://www.w3.org/2000/svg">
<g opacity="0.8" clip-path="url(#clip0_463_37719)">
<path d="M0.992317 14.7L0.333984 5.3042H9.72981V14.2625L0.992317 14.7Z" fill="#024430"/>
<path opacity="0.5" d="M12.1341 5.7417L21.7633 6.40003V14.2667H11.6758L12.1341 5.7417Z" fill="#024430"/>
<path opacity="0.5" d="M0.992188 17.0042V23.9958L10.3839 25.0875V17.0042H0.992188Z" fill="#024430"/>
<path d="M12.5391 17.2334L12.5682 24.5959L20.8141 24.3042L21.1724 16.9584L12.5391 17.2334Z" fill="#024430"/>
<path d="M9.73007 27.2666V34.6916H1.20508L1.86341 26.825L9.73007 27.2666Z" fill="#024430"/>
<path d="M35.7577 30.7584C35.8077 31.2334 35.5618 31.6876 35.1368 31.9043C34.9118 31.9959 34.6743 32.0459 34.4285 32.0459C34.2035 32.0376 33.9868 31.9876 33.7785 31.9043C33.3577 31.6834 33.1118 31.2334 33.1577 30.7584V19.4334H31.7202C31.1743 19.4834 30.6952 19.0834 30.6452 18.5376C30.6368 18.4709 30.641 18.4001 30.6493 18.3334C30.5827 17.7918 30.966 17.3001 31.5077 17.2376C31.5785 17.2293 31.6493 17.2293 31.7202 17.2334H33.1743C33.1743 15.0876 33.1743 14.3251 33.6535 13.4792C34.3285 12.2084 35.741 11.7292 37.4702 11.7292C37.9202 11.7292 38.9368 11.7292 38.9368 12.8292C38.9368 13.8167 38.1202 13.9042 37.666 13.9292C36.9035 13.9876 36.566 14.0126 36.2285 14.3126C35.7493 14.6959 35.7493 15.0751 35.7493 17.2501H37.8327C38.216 17.2501 38.9077 17.3334 38.9077 18.3501C38.9577 18.9001 38.5493 19.3876 37.9993 19.4334C37.9368 19.4376 37.8743 19.4376 37.816 19.4334H35.7535L35.7577 30.7584ZM50.7577 30.8876C50.7327 31.1959 50.6743 32.0334 49.6118 32.0334C49.1618 32.0584 48.741 31.8168 48.5368 31.4126C48.4535 31.1876 48.4243 31.0709 48.4243 30.0584C47.3243 31.4334 45.641 32.2084 43.8785 32.1459C40.941 32.1459 39.1368 30.3418 39.1368 27.6584C39.1368 24.3001 41.9035 23.7626 43.4285 23.4584L45.8285 22.9501C46.7868 22.7501 47.2952 22.6418 47.5493 22.5668C48.141 22.4001 48.341 22.1834 48.341 21.4668C48.341 19.0668 45.9118 19.0668 45.4035 19.0668C42.9493 19.0668 42.5243 20.2793 42.2702 21.0459C42.1868 21.4293 42.0452 21.9501 41.0827 21.9501C40.0368 21.9501 39.7577 21.3584 39.7577 20.8501C39.8202 20.2626 40.0243 19.7043 40.3493 19.2126C41.4952 17.4918 43.4535 16.9834 45.3993 16.9834C47.0368 16.9834 48.7285 17.2918 49.7743 18.5126C50.7327 19.6584 50.7327 21.0834 50.7327 22.4626L50.7577 30.8876ZM44.9702 25.1626C44.4827 25.2543 43.9993 25.3793 43.5327 25.5459C42.5327 25.7709 41.8243 26.6668 41.8368 27.6918C41.8368 29.2459 43.0493 30.0334 44.4618 30.0334C45.6702 30.0376 46.816 29.4834 47.566 28.5376C48.2993 27.5209 48.3285 26.1918 48.3577 24.3043C47.7452 24.5584 47.1035 24.7376 46.4493 24.8418L44.9702 25.1626ZM62.8827 27.3668C63.0827 26.8334 63.3327 26.2668 64.0952 26.2668C64.4368 26.2668 65.4493 26.4668 65.4493 27.4543C65.3993 28.0584 65.1993 28.6418 64.8618 29.1459C64.4118 29.9376 63.1118 32.1376 59.1035 32.1376C53.9618 32.1376 52.2993 28.0459 52.2993 24.5001C52.2827 23.3876 52.4535 22.2793 52.8077 21.2251C54.3368 16.9334 58.1993 16.9334 59.2452 16.9334C62.5202 16.9334 63.8285 18.3168 64.591 19.5584C65.1827 20.4918 65.1827 20.8293 65.1827 21.0293C65.1577 21.7376 64.566 22.2959 63.8535 22.2751C63.8368 22.2751 63.816 22.2751 63.7993 22.2709C63.0077 22.2709 62.7535 21.7376 62.4452 21.0834C61.8702 19.7918 60.5452 18.9959 59.1327 19.0959C56.141 19.0959 54.9827 21.6668 54.9827 24.4043C54.9827 26.8334 55.716 29.9376 59.1327 29.9376C61.7202 29.9376 62.4577 28.2709 62.8827 27.3668ZM68.616 19.4334H67.1202C66.5702 19.4751 66.0868 19.0626 66.0452 18.5126C66.041 18.4543 66.041 18.3918 66.0493 18.3334C65.9827 17.7918 66.366 17.3001 66.9077 17.2376C66.9785 17.2293 67.0493 17.2293 67.1202 17.2334H68.6493V13.9292C68.6493 13.5459 68.7618 12.7167 69.9202 12.7167C71.0785 12.7167 71.2202 13.5334 71.2202 13.9292V17.2334H72.9702C73.5077 17.1834 73.9827 17.5751 74.0368 18.1126C74.0452 18.1834 74.041 18.2584 74.0327 18.3334C74.0868 18.8834 73.6827 19.3751 73.1285 19.4293C73.0743 19.4334 73.0202 19.4334 72.9702 19.4334H71.2202V26.6084C71.2202 28.3043 71.2452 28.5168 71.3327 28.8376C71.5327 29.6543 72.066 29.7959 72.8285 29.8543C73.5077 29.8834 74.2118 29.9376 74.2118 30.9293C74.2118 31.9168 73.3077 32.0376 72.5452 32.0376C68.6202 32.0376 68.6202 29.9168 68.6202 27.7209V19.4334H68.616ZM88.2118 30.7834C88.2452 31.2418 87.9993 31.6751 87.591 31.8834C87.1743 32.0543 86.7077 32.0543 86.291 31.8834C85.6993 31.5751 85.6993 31.1209 85.6993 29.9751C84.4868 31.5834 83.2702 32.1209 81.2077 32.1209C80.5327 32.1209 78.7202 32.0626 77.4535 30.6834C76.241 29.3293 76.241 27.5209 76.241 26.1918V18.3626C76.2702 17.6376 76.8827 17.0751 77.6077 17.1084C78.2785 17.1376 78.8202 17.6668 78.8618 18.3376V25.3626C78.8618 27.2709 78.9452 28.0334 79.3118 28.7209C79.9618 29.9084 81.291 29.9084 81.6243 29.9084C83.4577 29.9751 85.0702 28.7126 85.441 26.9168C85.5827 26.1334 85.6327 25.3376 85.5827 24.5459V18.3626C85.6202 17.6376 86.241 17.0834 86.966 17.1209C87.6368 17.1584 88.1702 17.6918 88.2077 18.3626L88.2118 30.7834ZM101.57 30.8876C101.545 31.1959 101.487 32.0334 100.424 32.0334C99.9743 32.0584 99.5535 31.8168 99.3493 31.4126C99.266 31.1876 99.2368 31.0709 99.2368 30.0584C98.1368 31.4334 96.4493 32.2084 94.691 32.1459C91.7535 32.1459 89.9493 30.3418 89.9493 27.6584C89.9493 24.3001 92.716 23.7626 94.241 23.4584L96.641 22.9501C97.5993 22.7501 98.1077 22.6418 98.3618 22.5668C98.9535 22.4001 99.1535 22.1834 99.1535 21.4668C99.1535 19.0668 96.7243 19.0668 96.216 19.0668C93.7618 19.0668 93.3368 20.2793 93.0827 21.0459C92.9993 21.4293 92.8577 21.9501 91.8952 21.9501C90.8493 21.9501 90.5702 21.3584 90.5702 20.8501C90.6327 20.2626 90.8368 19.7043 91.1618 19.2126C92.3077 17.4918 94.266 16.9834 96.2118 16.9834C97.8493 16.9834 99.5452 17.2918 100.587 18.5126C101.545 19.6584 101.545 21.0834 101.545 22.4626L101.57 30.8876ZM95.7952 25.1626C95.3077 25.2543 94.8243 25.3793 94.3577 25.5459C93.3577 25.7709 92.6493 26.6668 92.6618 27.6918C92.6618 29.2459 93.8743 30.0334 95.2868 30.0334C96.4952 30.0376 97.641 29.4834 98.391 28.5376C99.1243 27.5209 99.1535 26.1918 99.1827 24.3043C98.5702 24.5584 97.9285 24.7376 97.2743 24.8418L95.7952 25.1626ZM106.995 30.7584C106.995 31.4751 106.412 32.0543 105.695 32.0543C104.978 32.0543 104.399 31.4751 104.399 30.7584V13.0001C104.366 12.3459 104.866 11.7917 105.52 11.7542C105.578 11.7501 105.641 11.7542 105.699 11.7584C106.341 11.6834 106.92 12.1459 106.991 12.7876C106.999 12.8584 106.999 12.9292 106.995 13.0001V30.7584Z" fill="#024430"/>
</g>
<defs>
<clipPath id="clip0_463_37719">
<rect width="106.667" height="40" fill="white" transform="translate(0.333984)"/>
</clipPath>
</defs>
</svg>
