<svg width="23" height="29" viewBox="0 0 23 29" fill="none" xmlns="http://www.w3.org/2000/svg">
<path d="M19.2075 15.3658C19.2212 14.3025 19.5044 13.26 20.0308 12.3352C20.5571 11.4105 21.3095 10.6335 22.2179 10.0766C21.6408 9.25472 20.8795 8.57837 19.9945 8.10123C19.1094 7.6241 18.125 7.35934 17.1194 7.32796C14.9742 7.10342 12.8946 8.60799 11.8015 8.60799C10.6872 8.60799 9.00414 7.35026 7.19178 7.38743C6.0195 7.4252 4.87702 7.76514 3.87565 8.37413C2.87429 8.98311 2.04819 9.84038 1.47786 10.8624C-0.99267 15.1278 0.850124 21.3966 3.21672 24.8445C4.40079 26.5329 5.78461 28.4188 7.59535 28.3519C9.36725 28.2786 10.029 27.2252 12.1678 27.2252C14.2868 27.2252 14.9077 28.3519 16.7552 28.3094C18.6565 28.2786 19.8544 26.6136 20.997 24.9092C21.8477 23.7062 22.5024 22.3767 22.9367 20.9698C21.832 20.5039 20.8894 19.724 20.2262 18.7275C19.5631 17.7309 19.2088 16.5618 19.2075 15.3658Z" fill="white"/>
<path d="M15.7176 5.05984C16.7543 3.81882 17.265 2.2237 17.1414 0.61322C15.5575 0.779104 14.0945 1.53395 13.0438 2.72735C12.5301 3.31036 12.1367 3.98862 11.886 4.72335C11.6353 5.45808 11.5323 6.23488 11.5828 7.00934C12.375 7.01747 13.1587 6.84624 13.8749 6.50856C14.5912 6.17087 15.2212 5.67553 15.7176 5.05984V5.05984Z" fill="white"/>
</svg>
