<svg width="16" height="14" viewBox="0 0 16 14" fill="none" xmlns="http://www.w3.org/2000/svg">
<path d="M15.9293 2.42299C15.8347 2.26911 15.6616 2.1819 15.4814 2.19752L14.6836 2.26702L15.4462 0.729737C15.537 0.546643 15.5012 0.326049 15.357 0.181142C15.2128 0.0362357 14.9925 -0.000701863 14.8089 0.0891733L12.7906 1.07764C11.5436 0.41933 9.9857 0.614737 8.9137 1.59127C8.01901 2.40627 7.54873 3.65962 7.63642 4.90949C5.298 4.67512 3.31863 3.33665 2.14819 1.17396C2.07053 1.03049 1.92494 0.936644 1.76222 0.925112C1.59918 0.913769 1.44212 0.986019 1.34506 1.11718C0.61912 2.09786 0.568183 3.44249 1.13728 4.54871C0.980402 4.50909 0.813464 4.45546 0.628339 4.39362C0.469745 4.34059 0.294901 4.37456 0.167619 4.48306C0.0403378 4.59156 -0.0208498 4.75878 0.00636902 4.92381C0.231557 6.28906 1.02768 7.33831 2.28531 7.95938C2.12156 8.01641 1.95447 8.06272 1.78456 8.09813C1.61575 8.13331 1.47906 8.25681 1.42703 8.42122C1.375 8.5856 1.41568 8.76528 1.5335 8.89119C2.43916 9.85925 3.74741 10.3357 4.67666 10.5643C3.6201 11.3917 2.47956 11.5302 0.822246 11.4733C0.630401 11.4674 0.453651 11.5755 0.372995 11.7494C0.29237 11.9234 0.323651 12.1287 0.452495 12.2707C1.14337 13.0322 3.66044 13.8909 6.30644 13.9553C6.4111 13.9578 6.51785 13.9592 6.62685 13.9592C8.4847 13.9592 10.94 13.5609 12.7025 11.7985C14.0364 10.4646 14.8708 8.92891 15.1823 7.23434C15.434 5.86568 15.2749 4.76968 15.1985 4.24293C15.1929 4.20421 15.1869 4.16312 15.182 4.12718L15.9283 2.92437C16.0235 2.77093 16.0239 2.57687 15.9293 2.42299ZM14.2541 4.37993C14.3957 5.35568 14.8265 8.32494 12.0277 11.1237C10.4008 12.7506 8.0312 13.0427 6.32963 13.0014C4.87772 12.966 3.57903 12.6884 2.63778 12.3717C3.01994 12.3248 3.3605 12.2525 3.68197 12.1526C4.56819 11.8771 5.31688 11.3814 6.03807 10.5927C6.15829 10.4613 6.19523 10.2738 6.13394 10.1066C6.07266 9.93932 5.92329 9.82013 5.7466 9.79751C5.29163 9.73919 3.92456 9.50907 2.84806 8.7665C3.15828 8.63963 3.45747 8.48085 3.74316 8.29135C3.89988 8.18735 3.98094 8.00103 3.95006 7.8155C3.91922 7.63 3.78231 7.47984 3.60038 7.43216C2.71928 7.20116 1.6559 6.68428 1.16556 5.53043C1.47868 5.58531 1.81915 5.59859 2.18228 5.51718C2.35059 5.4795 2.48547 5.35387 2.53497 5.18862C2.5845 5.02337 2.541 4.84424 2.42119 4.72018C1.81106 4.08824 1.5829 3.17755 1.77865 2.39827C2.41972 3.33518 3.23188 4.12368 4.16238 4.70665C5.35272 5.45243 6.74204 5.86459 8.1802 5.89843C8.32654 5.90153 8.46692 5.83765 8.56011 5.72428C8.65323 5.61093 8.68904 5.46103 8.6572 5.31781C8.40976 4.20546 8.76267 3.01965 9.55629 2.29674C10.3794 1.54689 11.596 1.43314 12.5146 2.0203C12.6549 2.10996 12.8319 2.11999 12.9814 2.04674L13.9671 1.56399L13.4512 2.60402C13.3745 2.75855 13.3872 2.94243 13.4845 3.0849C13.5816 3.22737 13.7479 3.30646 13.92 3.29137L14.6151 3.23084L14.2949 3.74693C14.1874 3.92015 14.2097 4.07384 14.2541 4.37993Z" fill="#024430"/>
</svg>
