<svg width="16" height="16" viewBox="0 0 16 16" fill="none" xmlns="http://www.w3.org/2000/svg">
<path d="M14.0513 0H1.94866C0.874156 0 0 0.874156 0 1.94866V14.0513C0 15.1258 0.874156 16 1.94866 16H8.15187C8.41278 16 8.62431 15.7885 8.62431 15.5276V9.79912C8.62431 9.53822 8.41278 9.32669 8.15187 9.32669H6.45372V7.98191H8.15187C8.41278 7.98191 8.62431 7.77037 8.62431 7.50947V5.59722C8.62431 4.56234 9.46625 3.72041 10.5012 3.72041H12.1397V5.06519H10.5012C10.2078 5.06519 9.96912 5.30391 9.96912 5.59725V7.5095C9.96912 7.77041 10.1807 7.98194 10.4416 7.98194H12.1397V9.32672H10.4416C10.1807 9.32672 9.96912 9.53825 9.96912 9.79916V15.5276C9.96912 15.7885 10.1807 16 10.4416 16H14.0513C15.1258 16 16 15.1258 16 14.0513V1.94866C16 0.874156 15.1258 0 14.0513 0ZM15.0551 14.0513C15.0551 14.6048 14.6048 15.0552 14.0513 15.0552H10.914H10.9139V10.2716H12.6121C12.873 10.2716 13.0845 10.06 13.0845 9.79912V7.5095C13.0845 7.24859 12.873 7.03706 12.6121 7.03706H10.9139V6.01006H12.6121C12.873 6.01006 13.0845 5.79853 13.0845 5.53762V3.248C13.0845 2.98709 12.873 2.77556 12.6121 2.77556H10.5011C8.94525 2.77556 7.67944 4.04138 7.67944 5.59725V7.03706H5.98128C5.72038 7.03706 5.50884 7.24859 5.50884 7.5095V9.79912C5.50884 10.06 5.72038 10.2716 5.98128 10.2716H7.67944V15.0551H1.94866C1.39516 15.0551 0.944844 14.6048 0.944844 14.0513V1.94866C0.944844 1.39516 1.39512 0.944844 1.94866 0.944844H14.0513C14.6048 0.944844 15.0551 1.39512 15.0551 1.94866V14.0513Z" fill="#024430"/>
</svg>
