<svg width="75" height="75" viewBox="0 0 75 75" fill="none" xmlns="http://www.w3.org/2000/svg">
<g clip-path="url(#clip0_19_19689)">
<path d="M46.7712 73.6899H27.4766L27.577 66.993C27.577 61.957 32.3879 59.641 35.0447 59.087C35.796 58.7349 39.304 58.6842 40.0565 59.087C42.7127 59.641 47.5237 61.957 47.5237 66.993V73.7904L46.7712 73.6899Z" fill="white"/>
<path d="M47.5235 75.0001C47.4703 75.0001 47.4172 74.9965 47.364 74.9894L46.6901 74.8996H27.4764C27.1527 74.8996 26.8426 74.7703 26.6152 74.5393C26.3878 74.3084 26.262 73.9959 26.2667 73.6717L26.3671 66.9741C26.3671 61.263 31.5579 58.6103 34.7008 57.9228C35.8975 57.5058 39.1514 57.4503 40.4202 57.9269C43.5643 58.6198 48.7344 61.276 48.7344 66.9919V73.7904C48.7344 74.1389 48.5843 74.4714 48.3209 74.7C48.0994 74.8949 47.8153 75.0001 47.5235 75.0001V75.0001ZM28.7044 72.4803H46.315V66.9919C46.315 61.6889 40.0764 60.3256 39.8106 60.2701C39.6966 60.2459 39.5879 60.2069 39.4864 60.1526C38.9471 59.9506 36.1527 59.9647 35.5342 60.191C35.4799 60.2105 35.3482 60.2577 35.2915 60.2683C35.0251 60.3244 28.7865 61.6877 28.7865 66.9907L28.7044 72.4803Z" fill="#024430"/>
<path d="M31.1606 70.0609L31.2061 67.0461C31.2061 63.6339 35.7401 62.648 35.7849 62.638L36.2002 62.5524L36.3041 62.5039C36.5469 62.4726 37.0271 62.4313 37.6573 62.4313C38.1464 62.4313 38.4996 62.4567 38.704 62.4773L38.8044 62.5317L39.3159 62.638C39.3608 62.648 43.8947 63.6327 43.8947 66.9918V70.0609H31.1606Z" fill="#06D6A0"/>
<path d="M42.5118 49.4515C42.5118 46.6707 40.2679 44.4155 37.5001 44.4155C34.7322 44.4155 32.4883 46.6707 32.4883 49.4515C32.4883 52.233 34.7322 54.4875 37.5001 54.4875C40.2679 54.4875 42.5118 52.233 42.5118 49.4515Z" fill="white"/>
<path d="M37.4998 55.696C34.0692 55.696 31.2783 52.8956 31.2783 49.4515C31.2783 46.0079 34.0692 43.2058 37.4998 43.2058C40.9303 43.2058 43.7212 46.0079 43.7212 49.4515C43.7212 52.8956 40.9303 55.696 37.4998 55.696V55.696ZM37.4998 45.6252C35.4047 45.6252 33.6977 47.3422 33.6977 49.4515C33.6977 51.5601 35.4035 53.2766 37.4998 53.2766C39.596 53.2766 41.3019 51.5601 41.3019 49.4515C41.3019 47.3422 39.5949 45.6252 37.4998 45.6252V45.6252Z" fill="#024430"/>
<path d="M71.8292 73.6899H52.5352L52.6356 66.993C52.6356 61.957 57.4465 59.641 60.1027 59.087C60.8541 58.7349 64.362 58.6842 65.1145 59.087C67.7695 59.641 72.5805 61.9558 72.5805 66.9918V73.7904L71.8292 73.6899Z" fill="white"/>
<path d="M72.5808 75.0001C72.5277 75.0001 72.4745 74.9965 72.4202 74.9894L71.7486 74.8996H52.5355C52.2112 74.8996 51.9017 74.7703 51.6743 74.5393C51.4469 74.3084 51.3211 73.9959 51.3258 73.6717L51.4262 66.9741C51.4262 61.263 56.617 58.6103 59.7593 57.9228C60.956 57.5046 64.2099 57.4491 65.4775 57.9281C68.6204 58.6198 73.7905 61.2748 73.7905 66.9918V73.7904C73.7905 74.1389 73.6405 74.4714 73.377 74.7012C73.1567 74.8949 72.8726 75.0001 72.5808 75.0001V75.0001ZM53.7617 72.4803H71.3711V66.9918C71.3711 61.6889 65.1331 60.3256 64.8668 60.2701C64.7534 60.2459 64.6429 60.2069 64.5413 60.1514C64.0044 59.9517 61.21 59.9659 60.5915 60.1898C60.5372 60.2104 60.4055 60.2577 60.3488 60.2683C60.0824 60.3244 53.8444 61.6865 53.8444 66.9907L53.7617 72.4803Z" fill="#024430"/>
<path d="M56.2188 70.0609L56.2648 67.0461C56.2648 63.6339 60.7976 62.648 60.843 62.638L61.2583 62.5524L61.3634 62.5039C61.6068 62.4726 62.087 62.4313 62.716 62.4313C63.2033 62.4313 63.5554 62.4567 63.7597 62.4773L63.8602 62.5317L64.3734 62.638C64.4177 62.648 68.9517 63.6339 68.9517 66.9918V70.0609H56.2188Z" fill="#06D6A0"/>
<path d="M67.5689 49.4515C67.5689 46.6707 65.3255 44.4155 62.5571 44.4155C59.7892 44.4155 57.5459 46.6707 57.5459 49.4515C57.5459 52.233 59.7892 54.4875 62.5571 54.4875C65.3255 54.4875 67.5689 52.233 67.5689 49.4515V49.4515Z" fill="white"/>
<path d="M62.5573 55.696C59.1267 55.696 56.3364 52.8956 56.3364 49.4515C56.3364 46.0079 59.1267 43.2058 62.5573 43.2058C65.9884 43.2058 68.7799 46.0079 68.7799 49.4515C68.7799 52.8956 65.9884 55.696 62.5573 55.696V55.696ZM62.5573 45.6252C60.4622 45.6252 58.7558 47.3422 58.7558 49.4515C58.7558 51.5601 60.461 53.2766 62.5573 53.2766C64.6541 53.2766 66.3606 51.5601 66.3606 49.4515C66.3594 47.3422 64.6541 45.6252 62.5573 45.6252Z" fill="#024430"/>
<path d="M21.714 73.6899H2.41943L2.51985 66.993C2.51985 61.957 7.3308 59.641 9.9876 59.087C10.7383 58.7349 14.2469 58.6842 14.9988 59.087C17.6556 59.641 22.4665 61.957 22.4665 66.993V73.7904L21.714 73.6899Z" fill="white"/>
<path d="M22.4652 75.0001C22.412 75.0001 22.3583 74.9965 22.3039 74.9894L21.633 74.8996H2.41928C2.095 74.8996 1.7855 74.7703 1.55809 74.5393C1.33069 74.3084 1.20488 73.9959 1.2096 73.6717L1.31001 66.9741C1.31001 61.263 6.50076 58.6103 9.64368 57.9228C10.8386 57.5046 14.0937 57.4491 15.3619 57.9281C18.506 58.6198 23.6761 61.276 23.6761 66.9918V73.7904C23.6761 74.1389 23.526 74.4714 23.262 74.7012C23.0405 74.8949 22.7564 75.0001 22.4652 75.0001V75.0001ZM3.64727 72.4803H21.2567V66.9918C21.2567 61.6877 15.0181 60.3256 14.7523 60.2701C14.6383 60.2459 14.5285 60.2069 14.4269 60.1514C13.8894 59.9517 11.0949 59.9659 10.4771 60.1898C10.4228 60.2104 10.291 60.2577 10.2337 60.2683C9.96795 60.3244 3.72937 61.6865 3.72937 66.9907L3.64727 72.4803Z" fill="#024430"/>
<path d="M6.10254 70.0609L6.14861 67.0461C6.14861 63.6339 10.6814 62.648 10.7274 62.638L11.1421 62.5524L11.2478 62.5039C11.4906 62.4726 11.9708 62.4313 12.5998 62.4313C13.0877 62.4313 13.4398 62.4567 13.6441 62.4773L13.7445 62.5317L14.2572 62.638C14.3033 62.648 18.836 63.6327 18.836 66.9918V70.0609H6.10254Z" fill="#06D6A0"/>
<path d="M17.4547 49.4515C17.4547 46.6707 15.2108 44.4155 12.4429 44.4155C9.67508 44.4155 7.43115 46.6707 7.43115 49.4515C7.43115 52.233 9.67508 54.4875 12.4429 54.4875C15.2108 54.4875 17.4547 52.233 17.4547 49.4515Z" fill="white"/>
<path d="M12.4428 55.696C9.01228 55.696 6.22021 52.8956 6.22021 49.4515C6.22021 46.0079 9.01228 43.2058 12.4428 43.2058C15.8734 43.2058 18.6643 46.0079 18.6643 49.4515C18.6643 52.8956 15.8734 55.696 12.4428 55.696ZM12.4428 45.6252C10.3466 45.6252 8.63957 47.3422 8.63957 49.4515C8.63957 51.5601 10.3454 53.2766 12.4428 53.2766C14.5379 53.2766 16.2449 51.5601 16.2449 49.4515C16.2449 47.3422 14.5391 45.6252 12.4428 45.6252Z" fill="#024430"/>
<path d="M25.9976 1.20972H69.0486V31.4263H25.9976V1.20972Z" fill="#06D6A0"/>
<path d="M69.0483 32.6359H25.9973C25.3281 32.6359 24.7876 32.0954 24.7876 31.4262V1.20968C24.7876 0.540457 25.3281 0 25.9973 0H69.0483C69.7176 0 70.258 0.540457 70.258 1.20968V31.4262C70.258 32.0937 69.7176 32.6359 69.0483 32.6359ZM27.207 30.2165H67.8387V2.41936H27.207V30.2165Z" fill="#024430"/>
<path d="M29.6265 4.83875H65.4195V27.7972H29.6265V4.83875Z" fill="#06D6A0"/>
<path d="M45.5166 14.8912H47.936V27.2166H45.5166V14.8912Z" fill="white"/>
<path d="M50.3979 19.3176H52.8173V27.2166H50.3979V19.3176Z" fill="white"/>
<path d="M55.1011 15.6691H57.5204V27.2165H55.1011V15.6691Z" fill="white"/>
<path d="M60.3789 6.33252H62.7983V27.2166H60.3789V6.33252Z" fill="white"/>
<path d="M32.2622 28.4192L26.6131 25.3406L23.7271 20.753C22.8152 19.3041 21.3101 18.2769 19.609 18.1393C19.4643 18.1269 19.3178 18.121 19.1702 18.121H11.9422C11.0013 18.121 10.0746 18.31 9.21455 18.6703C8.4018 19.0111 7.72313 19.6148 7.22343 20.3442C5.48393 22.8847 4.55127 25.8959 4.55127 28.9779V34.8385C4.55127 35.92 5.28074 36.9023 6.33566 37.1167C7.78574 37.4114 9.06098 36.3051 9.06098 34.8993V26.8527V40.0558H22.0804L22.1123 29.6011L22.1182 27.7151L22.1123 29.6023L29.8724 33.848C31.4412 34.4817 33.2303 33.6654 33.7743 32.0346C34.2403 30.6413 33.5457 29.1191 32.2622 28.4192V28.4192Z" fill="#FFD166"/>
<path d="M22.0813 41.2643H9.0607C8.39148 41.2643 7.85102 40.7239 7.85102 40.0546V38.2124C7.29343 38.389 6.69096 38.4244 6.09439 38.301C4.50019 37.9791 3.34131 36.5213 3.34131 34.8385V28.9791C3.34131 25.6366 4.33776 22.4139 6.22492 19.6608C6.88292 18.7004 7.75533 17.9721 8.74469 17.5563C9.7624 17.1281 10.8362 16.9125 11.9419 16.9125H19.1711C19.35 16.9125 19.529 16.9196 19.7068 16.9343C21.7151 17.0962 23.601 18.2828 24.7511 20.1086L27.4693 24.4304L32.8414 27.3583C34.689 28.366 35.5643 30.4936 34.9235 32.4168C34.5531 33.5249 33.7693 34.4032 32.7144 34.8893C31.6813 35.3683 30.4781 35.3967 29.4197 34.9684C29.376 34.9513 29.3334 34.9306 29.2938 34.9076L23.3175 31.6389L23.2921 40.06C23.2886 40.725 22.7481 41.2643 22.0813 41.2643V41.2643ZM10.2704 38.845H20.8757L20.9023 29.5958L20.9082 27.7086C20.9106 27.0412 21.451 26.5031 22.1179 26.5031H22.1214C22.7889 26.5054 23.3276 27.0459 23.3276 27.7127V27.7163L23.324 28.8834L30.3824 32.7446C30.8166 32.9047 31.2808 32.884 31.6996 32.6891C32.1426 32.4859 32.4728 32.1155 32.6287 31.6489C32.8945 30.8515 32.4882 29.9189 31.6837 29.48L26.0346 26.4015C25.8532 26.3022 25.7008 26.1593 25.5898 25.9827L22.7021 21.3944C21.9566 20.2101 20.7629 19.4446 19.5107 19.3442C19.3973 19.3342 19.2833 19.3295 19.1699 19.3295H11.9408C11.1593 19.3295 10.4009 19.483 9.68207 19.7843C9.12094 20.0188 8.61534 20.4494 8.22077 21.0253C6.61122 23.3761 5.76066 26.1256 5.76066 28.9768V34.8385C5.76066 35.3671 6.11152 35.8367 6.57578 35.93C7.01405 36.0181 7.32119 35.8367 7.46236 35.7204C7.70926 35.5184 7.85102 35.2183 7.85102 34.8982V26.851C7.85102 26.1823 8.39148 25.6413 9.0607 25.6413C9.72933 25.6413 10.2704 26.1823 10.2704 26.851V38.845Z" fill="#024430"/>
<path d="M20.9509 8.78371C20.9509 5.68982 18.4542 3.18127 15.3751 3.18127C12.2959 3.18127 9.7998 5.68982 9.7998 8.78371C9.7998 11.8776 12.2959 14.3856 15.3751 14.3856C18.4542 14.3856 20.9509 11.8776 20.9509 8.78371Z" fill="white"/>
<path d="M15.3748 15.5965C11.6335 15.5965 8.58984 12.541 8.58984 8.78379C8.58984 5.02895 11.6347 1.97168 15.3748 1.97168C19.1155 1.97168 22.1603 5.02718 22.1603 8.78379C22.1603 12.5398 19.1166 15.5965 15.3748 15.5965ZM15.3748 4.39103C12.9678 4.39103 11.0092 6.36149 11.0092 8.78379C11.0092 11.2067 12.9678 13.1771 15.3748 13.1771C17.7823 13.1771 19.741 11.2067 19.741 8.78379C19.741 6.36149 17.7823 4.39103 15.3748 4.39103V4.39103Z" fill="#024430"/>
<path d="M28.4253 30.7487L39.0933 16.1191L41.0466 17.5444L30.3792 32.1734L28.4253 30.7487Z" fill="#024430"/>
</g>
<defs>
<clipPath id="clip0_19_19689">
<rect width="75" height="75" fill="white"/>
</clipPath>
</defs>
</svg>
