<svg width="77" height="31" viewBox="0 0 77 31" fill="none" xmlns="http://www.w3.org/2000/svg">
<g opacity="0.8">
<path d="M76.9566 0.205566H0.964182V2.95458H76.9566V0.205566ZM76.9566 28.0652H0.964182V30.7944H76.9566V28.0652ZM74.2527 15.4643C74.2527 13.0807 74.0229 11.6227 72.4218 11.6227H71.0822V19.2739H72.4218C74.0229 19.2739 74.2527 17.8199 74.2527 15.4285V15.4643ZM76.9566 15.4285C76.9566 19.1309 75.9139 21.8959 72.4218 21.8959H68.6751C68.6422 21.8982 68.609 21.8926 68.5781 21.8794C68.5471 21.8663 68.519 21.8458 68.4956 21.8196C68.4722 21.7933 68.4541 21.7617 68.4424 21.7269C68.4306 21.6921 68.4257 21.6549 68.4278 21.6177V9.25507C68.4257 9.21795 68.4306 9.18074 68.4424 9.14602C68.4541 9.11121 68.4722 9.07963 68.4956 9.05326C68.519 9.02697 68.5471 9.00655 68.5781 8.99341C68.609 8.98026 68.6422 8.97472 68.6751 8.97704H72.4218C75.9139 8.97704 76.9566 11.7578 76.9566 15.4443V15.4285ZM63.0128 19.5639V21.6336C63.0149 21.6707 63.0099 21.7079 62.9983 21.7428C62.9866 21.7776 62.9684 21.8091 62.945 21.8354C62.9216 21.8617 62.8934 21.8821 62.8625 21.8953C62.8315 21.9084 62.7985 21.914 62.7654 21.9117H55.5585C55.5255 21.914 55.4924 21.9084 55.4615 21.8953C55.4305 21.8821 55.4024 21.8617 55.379 21.8354C55.3556 21.8091 55.3374 21.7776 55.3257 21.7428C55.314 21.7079 55.3091 21.6707 55.3111 21.6336V9.25507C55.3091 9.21795 55.314 9.18074 55.3257 9.14602C55.3374 9.11121 55.3556 9.07963 55.379 9.05326C55.4024 9.02697 55.4305 9.00655 55.4615 8.99341C55.4924 8.98026 55.5255 8.97472 55.5585 8.97704H62.7513C62.7843 8.97472 62.8174 8.98026 62.8484 8.99341C62.8793 9.00655 62.9074 9.02697 62.9308 9.05326C62.9543 9.07963 62.9724 9.11121 62.9841 9.14602C62.9958 9.18074 63.0008 9.21795 62.9987 9.25507V11.3287C63.0008 11.3659 62.9958 11.4031 62.9841 11.4379C62.9724 11.4727 62.9543 11.5043 62.9308 11.5305C62.9074 11.5569 62.8793 11.5773 62.8484 11.5904C62.8174 11.6036 62.7843 11.6092 62.7513 11.6069H57.9691V14.1096H62.3484C62.3814 14.1073 62.4145 14.1128 62.4454 14.126C62.4764 14.1392 62.5045 14.1595 62.5279 14.1858C62.5513 14.2122 62.5694 14.2438 62.5812 14.2786C62.5929 14.3134 62.5978 14.3505 62.5957 14.3876V16.4574C62.5978 16.4945 62.5929 16.5317 62.5812 16.5665C62.5694 16.6013 62.5513 16.6328 62.5279 16.6591C62.5045 16.6855 62.4764 16.7058 62.4454 16.7191C62.4145 16.7322 62.3814 16.7378 62.3484 16.7354H57.9691V19.3137H62.769C62.8015 19.31 62.8343 19.3145 62.8651 19.3267C62.8959 19.339 62.924 19.3586 62.9473 19.3844C62.9706 19.4102 62.9885 19.4415 62.9999 19.4759C63.0111 19.5103 63.0156 19.5472 63.0128 19.5838V19.5639ZM50.0164 18.245C50.0164 21.0258 48.5354 22.2176 45.6371 22.2176C42.9331 22.2176 41.6042 21.1847 41.3957 18.5986C41.3886 18.5609 41.3894 18.5217 41.3978 18.4844C41.4062 18.447 41.4222 18.4123 41.4442 18.3828C41.4664 18.3533 41.4942 18.3299 41.5256 18.3142C41.557 18.2987 41.5911 18.2913 41.6254 18.2927H43.6047C43.7532 18.2927 43.8098 18.396 43.8522 18.543C44.0678 19.2064 44.5909 19.5322 45.6194 19.5322C46.7222 19.5322 47.4043 19.1825 47.4043 18.3404C47.4043 17.4982 47.157 17.0215 45.5629 16.6679C43.5234 16.215 41.5512 15.2656 41.5512 12.6596C41.5512 10.2761 42.8413 8.80615 45.5629 8.80615C47.9876 8.80615 49.4509 9.83906 49.6559 12.3339C49.6637 12.3731 49.6637 12.4139 49.6559 12.4533C49.6481 12.4926 49.6327 12.5295 49.6107 12.5613C49.5888 12.5932 49.5609 12.6193 49.529 12.6376C49.4971 12.656 49.4619 12.6661 49.4261 12.6675H47.62C47.4715 12.6675 47.415 12.5364 47.3726 12.3894C47.2171 11.8531 46.6975 11.4678 45.6301 11.4678C44.6509 11.4678 44.1596 11.9763 44.1596 12.6596C44.1596 13.2118 44.1279 13.7878 45.5912 14.1017C47.7472 14.5506 50.0235 15.4007 50.0235 18.2371L50.0164 18.245ZM30.9617 15.0829H32.6936C33.6869 15.0829 34.0756 14.8882 34.0756 13.3389C34.0756 11.7896 33.6904 11.6029 32.6936 11.6029H30.9617V15.0829ZM36.4897 21.9117H34.4503C34.3881 21.917 34.3261 21.8988 34.2743 21.8599C34.2224 21.821 34.1836 21.7637 34.164 21.6972L32.5947 17.7246H30.9582V21.6495C30.9603 21.6866 30.9553 21.7238 30.9436 21.7586C30.9319 21.7934 30.9137 21.825 30.8904 21.8513C30.8669 21.8777 30.8389 21.898 30.8079 21.9112C30.7769 21.9243 30.7438 21.9299 30.7108 21.9276H28.5335C28.5002 21.9298 28.4668 21.9242 28.4355 21.9112C28.4042 21.8981 28.3756 21.8778 28.3517 21.8516C28.3278 21.8255 28.3089 21.794 28.2964 21.7592C28.2839 21.7244 28.2779 21.687 28.2791 21.6495V9.25507C28.2779 9.21762 28.2839 9.18025 28.2964 9.14544C28.3089 9.11064 28.3278 9.07914 28.3517 9.05301C28.3756 9.02681 28.4042 9.00655 28.4355 8.99349C28.4668 8.98043 28.5002 8.97481 28.5335 8.97704H32.676C35.7828 8.97704 36.5957 10.566 36.5957 13.3469C36.5957 15.2854 36.1999 16.6362 34.9275 17.2797L36.6629 21.582C36.7407 21.7806 36.6629 21.9117 36.4756 21.9117H36.4897ZM22.8359 19.5639V21.6336C22.838 21.6707 22.8329 21.7079 22.8212 21.7428C22.8096 21.7776 22.7914 21.8091 22.768 21.8354C22.7446 21.8617 22.7164 21.8821 22.6856 21.8953C22.6546 21.9084 22.6215 21.914 22.5884 21.9117H15.3815C15.3485 21.914 15.3154 21.9084 15.2845 21.8953C15.2535 21.8821 15.2253 21.8617 15.202 21.8354C15.1786 21.8091 15.1605 21.7776 15.1487 21.7428C15.137 21.7079 15.1321 21.6707 15.1341 21.6336V9.25507C15.1321 9.21795 15.137 9.18074 15.1487 9.14602C15.1605 9.11121 15.1786 9.07963 15.202 9.05326C15.2253 9.02697 15.2535 9.00655 15.2845 8.99341C15.3154 8.98026 15.3485 8.97472 15.3815 8.97704H22.5743C22.6073 8.97472 22.6404 8.98026 22.6714 8.99341C22.7024 9.00655 22.7304 9.02697 22.7539 9.05326C22.7772 9.07963 22.7954 9.11121 22.8071 9.14602C22.8188 9.18074 22.8238 9.21795 22.8217 9.25507V11.3287C22.8238 11.3659 22.8188 11.4031 22.8071 11.4379C22.7954 11.4727 22.7772 11.5043 22.7539 11.5305C22.7304 11.5569 22.7024 11.5773 22.6714 11.5904C22.6404 11.6036 22.6073 11.6092 22.5743 11.6069H17.7886V14.1096H22.1714C22.2044 14.1073 22.2375 14.1128 22.2684 14.126C22.2994 14.1392 22.3275 14.1595 22.3509 14.1858C22.3743 14.2122 22.3925 14.2438 22.4042 14.2786C22.4159 14.3134 22.4208 14.3505 22.4188 14.3876V16.4574C22.4208 16.4945 22.4159 16.5317 22.4042 16.5665C22.3925 16.6013 22.3743 16.6328 22.3509 16.6591C22.3275 16.6855 22.2994 16.7058 22.2684 16.7191C22.2375 16.7322 22.2044 16.7378 22.1714 16.7354H17.7886V19.3137H22.5884C22.6211 19.3101 22.654 19.3146 22.6851 19.3268C22.716 19.339 22.7442 19.3586 22.7678 19.3843C22.7913 19.4101 22.8096 19.4412 22.8213 19.4756C22.8331 19.5101 22.838 19.547 22.8359 19.5838V19.5639ZM7.71514 8.97704H9.92424C10.1045 8.97704 10.1539 9.10807 10.1222 9.29086L7.47478 21.6853C7.45852 21.7531 7.42174 21.8124 7.37077 21.853C7.31981 21.8935 7.25785 21.913 7.19555 21.9078H3.89078C3.82848 21.913 3.76652 21.8935 3.71556 21.853C3.66459 21.8124 3.62781 21.7531 3.61155 21.6853L0.964182 9.29086C0.921768 9.10807 0.981856 8.97704 1.16212 8.97704H3.36413C3.42708 8.96753 3.4909 8.98514 3.54272 9.02648C3.59454 9.06773 3.6305 9.12957 3.64336 9.19951L5.41062 18.8051H5.65804L7.4253 9.19951C7.43816 9.12957 7.47412 9.06773 7.52594 9.02648C7.57776 8.98514 7.64158 8.96753 7.70453 8.97704" fill="#024430"/>
</g>
</svg>
