<svg width="29" height="63" viewBox="0 0 29 63" fill="none" xmlns="http://www.w3.org/2000/svg">
<g clip-path="url(#clip0_1279_393)">
<mask id="mask0_1279_393" style="mask-type:luminance" maskUnits="userSpaceOnUse" x="0" y="0" width="29" height="63">
<path d="M28.6117 0H0V63H28.6117V0Z" fill="white"/>
</mask>
<g mask="url(#mask0_1279_393)">
<path fill-rule="evenodd" clip-rule="evenodd" d="M14.1789 49.6084C10.4882 49.6084 7.63636 49.0564 6.26496 48.7273C5.32714 48.5024 4.57409 48.2696 4.00201 48.0305L5.83104 51.1419L6.5465 60.8636C6.5465 61.9535 10.0237 62.837 14.313 62.837C18.6024 62.837 22.0796 61.9535 22.0796 60.8636L22.646 51.036L24.3766 48.0213C23.8022 48.2637 23.0424 48.4996 22.0928 48.7273C20.7213 49.0564 17.8696 49.6084 14.1789 49.6084ZM24.436 17.9736C21.7272 18.3503 18.1322 18.5578 14.313 18.5578C10.4939 18.5578 6.89882 18.3503 4.19004 17.9736C2.84823 17.787 1.78665 17.567 1.03474 17.3199C0.855382 17.2608 0.551445 17.16 0.258951 16.9995L1.93723 32.3788C2.01522 32.114 2.10204 31.8494 2.19833 31.5858C2.39535 31.0457 2.62326 30.5176 2.88191 30.0018C3.14073 29.4859 3.42242 28.9985 3.72701 28.5392C4.03145 28.0801 4.35565 27.6574 4.69916 27.2711C5.04282 26.885 5.39532 26.5528 5.7573 26.2745C6.11912 25.9964 6.48437 25.7789 6.85306 25.6223C7.2219 25.4658 7.58714 25.3873 7.94897 25.3873C8.36571 25.3873 8.76889 25.5007 9.15833 25.7276C9.54762 25.9544 9.91155 26.3218 10.2506 26.8296C10.3285 26.943 10.3778 27.0578 10.3983 27.1738C10.4191 27.2901 10.4292 27.3995 10.4292 27.5021C10.4292 27.745 10.3708 27.9371 10.2541 28.0774C10.1373 28.2178 9.9987 28.288 9.83847 28.288C9.69166 28.288 9.55546 28.211 9.42957 28.0572C9.30352 27.9032 9.16275 27.6831 9.00694 27.3967C8.86028 27.1374 8.69892 26.9499 8.52267 26.8336C8.34625 26.7176 8.15513 26.6595 7.94897 26.6595C7.62834 26.6595 7.28599 26.7918 6.92188 27.0565C6.55761 27.321 6.19694 27.6709 5.83987 28.1057C5.48246 28.5407 5.1401 29.0375 4.81263 29.5967C4.48514 30.1557 4.19527 30.7282 3.94331 31.3143C3.69137 31.9007 3.49126 32.4787 3.34232 33.0485C3.19336 33.6182 3.11898 34.1301 3.11898 34.5838C3.11898 34.7352 3.12944 34.8907 3.14987 35.0496C3.17064 35.2092 3.20939 35.3536 3.26677 35.4834C3.32383 35.6131 3.40182 35.7195 3.50025 35.8031C3.59883 35.8871 3.72359 35.9287 3.87465 35.9287C4.04419 35.9287 4.23646 35.872 4.45196 35.7586C4.66711 35.6455 4.89045 35.4967 5.12164 35.3132C5.35298 35.1294 5.58547 34.9215 5.8191 34.6891C6.05291 34.4569 6.27035 34.2221 6.47178 33.9843C6.6732 33.7467 6.85191 33.5183 7.00755 33.2997C7.16337 33.0809 7.28009 32.8904 7.35809 32.7283L7.99703 30.8242C8.07485 30.619 8.17671 30.4732 8.30277 30.3867C8.42865 30.3002 8.55814 30.2569 8.69106 30.2569C8.75499 30.2569 8.81908 30.2679 8.88333 30.2893C8.94759 30.311 9.00464 30.3448 9.05517 30.3906C9.10553 30.4367 9.14558 30.4959 9.17534 30.569C9.2051 30.6419 9.21997 30.7269 9.21997 30.8242C9.21997 31.0835 9.19709 31.3263 9.15131 31.5534C9.10553 31.7806 9.04716 32.0017 8.97604 32.2179C8.90508 32.4338 8.82595 32.6513 8.73897 32.8701C8.65199 33.0889 8.56714 33.3171 8.4849 33.555C8.46659 33.582 8.4334 33.6668 8.38517 33.8098C8.33709 33.9533 8.27889 34.133 8.21006 34.3489C8.14139 34.5651 8.06684 34.8067 7.98673 35.074C7.90645 35.3415 7.82421 35.6143 7.73952 35.8924C7.65467 36.1706 7.57342 36.4435 7.49559 36.711C7.41759 36.9782 7.34762 37.22 7.28599 37.4361C7.22419 37.6521 7.17269 37.8329 7.13132 37.979C7.09012 38.1248 7.06494 38.211 7.05578 38.2385C7.0329 38.3246 6.9961 38.4207 6.94591 38.5258C6.89555 38.631 6.83605 38.7312 6.76722 38.8256C6.69855 38.9201 6.62301 38.9987 6.54045 39.0605C6.45805 39.1226 6.37336 39.1538 6.28621 39.1538C6.13972 39.1538 6.03312 39.1051 5.96691 39.0081C5.90037 38.9107 5.86733 38.7325 5.86733 38.4733V38.3599C5.86733 38.322 5.86945 38.2813 5.87404 38.2385C5.87846 38.1519 5.91295 37.9896 5.9772 37.7518C6.04129 37.5144 6.11797 37.2457 6.20741 36.9459C6.29668 36.646 6.39297 36.3354 6.49597 36.0139C6.59882 35.6925 6.69168 35.4051 6.77424 35.1511C6.53113 35.4213 6.26806 35.69 5.98407 35.9574C5.69991 36.2247 5.40905 36.4652 5.1115 36.6784C4.8136 36.8919 4.5136 37.066 4.21146 37.2011C3.90915 37.3361 3.61829 37.4039 3.33887 37.4039C3.01827 37.4039 2.74228 37.3335 2.51078 37.1929C2.46909 37.1675 2.42969 37.139 2.39044 37.1106L3.32432 46.8598C3.56745 47.4665 8.14433 48.9573 14.1789 48.9573C20.2163 48.9573 24.795 47.4651 25.0339 46.8588L26.3754 35.2678C26.2644 35.3692 26.1563 35.4684 26.053 35.5644C25.6681 35.9207 25.305 36.2273 24.9638 36.4839C24.6228 36.7404 24.2894 36.9392 23.9642 37.0794C23.6389 37.22 23.2907 37.2902 22.9198 37.2902C22.5717 37.2902 22.3024 37.2145 22.1124 37.0633C21.9225 36.9122 21.8273 36.7043 21.8273 36.4394V36.3787C21.8273 36.3598 21.8295 36.3367 21.8343 36.3096C21.8525 36.1479 21.9238 35.9612 22.0473 35.7506C22.1709 35.5398 22.3198 35.3212 22.4936 35.0945C22.6678 34.8676 22.8532 34.6378 23.0502 34.4056C23.2472 34.1734 23.4294 33.9533 23.5967 33.7451C23.7637 33.5375 23.9022 33.3471 24.012 33.1741C24.1222 33.0011 24.1772 32.8608 24.1772 32.7528C24.1772 32.6879 24.1541 32.6366 24.1085 32.5985C24.0625 32.5611 23.9869 32.5418 23.8818 32.5418C23.6984 32.5418 23.5094 32.5892 23.3151 32.6837C23.1202 32.7781 22.9276 32.9054 22.7376 33.0646C22.5477 33.2239 22.3621 33.4065 22.1811 33.6117C22.0004 33.8169 21.8308 34.0303 21.6728 34.2515C21.5146 34.4732 21.3707 34.696 21.24 34.9202C21.1094 35.1444 20.9984 35.351 20.9067 35.5398C20.8791 35.5994 20.8402 35.6833 20.7897 35.7911C20.7394 35.8991 20.6844 36.0209 20.625 36.1558C20.5653 36.291 20.5022 36.4301 20.4359 36.5729C20.3695 36.7164 20.3089 36.8514 20.2539 36.9782C20.1991 37.1053 20.1498 37.2184 20.1065 37.3185C20.0626 37.4183 20.0318 37.4873 20.0135 37.5253C19.9905 37.5737 19.9528 37.6654 19.9001 37.8005C19.8475 37.9357 19.7867 38.0937 19.7182 38.2746C19.6495 38.4554 19.5773 38.6459 19.5015 38.8459C19.4263 39.0455 19.355 39.2349 19.2887 39.4132C19.2222 39.5913 19.1638 39.748 19.1135 39.883C19.0632 40.0178 19.0309 40.1098 19.0171 40.1585C18.9714 40.299 18.9175 40.431 18.8558 40.5557C18.7939 40.6799 18.7231 40.7892 18.6428 40.884C18.5628 40.9783 18.4712 41.0539 18.368 41.1105C18.2649 41.1676 18.1493 41.1957 18.0213 41.1957C17.8561 41.1957 17.7201 41.1563 17.6121 41.0782C17.5048 40.9998 17.4508 40.8497 17.4508 40.6285C17.4508 40.5204 17.4645 40.4097 17.492 40.2965C17.5195 40.1829 17.554 40.0706 17.5951 39.9601C17.6364 39.849 17.6788 39.7413 17.7223 39.636C17.7657 39.5305 17.8059 39.4294 17.8424 39.3321C18.09 38.792 18.3419 38.2504 18.5983 37.7074C18.8547 37.1647 19.1008 36.6273 19.3368 36.0952C19.386 35.9841 19.4311 35.8753 19.4789 35.7649C19.4646 35.779 19.4505 35.7937 19.4365 35.8073C19.1386 36.0939 18.8421 36.3461 18.5467 36.5649C18.2512 36.7837 17.958 36.9579 17.6675 37.0877C17.3764 37.2171 17.0936 37.2821 16.8186 37.2821C16.6309 37.2821 16.4741 37.2524 16.3483 37.1929C16.2221 37.1334 16.1217 37.0524 16.0459 36.95C15.9702 36.8474 15.9163 36.7258 15.8843 36.5853C15.8735 36.5372 15.8667 36.4871 15.8597 36.4372C15.7792 36.4995 15.6981 36.5602 15.6164 36.6178C15.3325 36.8174 15.053 36.9782 14.7782 37.0998C14.5035 37.2213 14.2559 37.2821 14.0364 37.2821C13.8163 37.2821 13.6378 37.2091 13.5001 37.0633C13.3628 36.9176 13.2943 36.669 13.2943 36.318C13.2943 36.0692 13.3309 35.7803 13.404 35.451C13.2849 35.6616 13.1362 35.8751 12.9576 36.0908C12.7788 36.3071 12.5751 36.5043 12.3462 36.6826C12.1168 36.8607 11.8604 37.0053 11.5766 37.116C11.2924 37.2267 10.9833 37.2821 10.6491 37.2821C10.4979 37.2821 10.3525 37.2632 10.2127 37.2254C10.0729 37.1874 9.95047 37.1227 9.84518 37.0308C9.73973 36.9392 9.65519 36.8161 9.59095 36.6623C9.52686 36.5085 9.49481 36.315 9.49481 36.083C9.49481 36.0776 9.50396 35.9952 9.52228 35.8357C9.54059 35.6762 9.59896 35.4251 9.69755 35.082C9.79596 34.7392 9.94834 34.2948 10.1542 33.7492C10.3605 33.2036 10.6514 32.5418 11.0269 31.7642C11.1231 31.5588 11.2342 31.4116 11.36 31.3227C11.4862 31.2334 11.6222 31.1888 11.7687 31.1888C11.833 31.1888 11.8993 31.1984 11.968 31.2171C12.037 31.2362 12.1009 31.2658 12.1606 31.3062C12.22 31.3468 12.2682 31.3983 12.305 31.4603C12.3413 31.5223 12.3599 31.5938 12.3599 31.6749C12.3599 31.7289 12.3529 31.7806 12.3391 31.8288C12.3161 31.921 12.2669 32.0409 12.1917 32.1893C12.116 32.3381 12.0277 32.5082 11.9268 32.7C11.8263 32.8917 11.7197 33.0983 11.6075 33.32C11.4952 33.5413 11.391 33.7709 11.2949 34.0087C11.1988 34.2465 11.1162 34.488 11.0475 34.7338C10.9789 34.9797 10.9398 35.2188 10.9308 35.451C10.9308 35.5481 10.9535 35.6372 10.9995 35.7182C11.0452 35.7993 11.1209 35.8398 11.2262 35.8398C11.5238 35.8398 11.8078 35.7424 12.0782 35.5481C12.3483 35.3536 12.5978 35.1118 12.827 34.823C13.0561 34.5339 13.2632 34.2231 13.4488 33.891C13.6344 33.5586 13.7889 33.255 13.9124 32.9794C13.9997 32.7961 14.0762 32.5985 14.1427 32.388C14.209 32.1772 14.2814 31.983 14.3591 31.8046C14.4372 31.6262 14.5263 31.4778 14.6271 31.3589C14.7277 31.2402 14.8538 31.1806 15.0048 31.1806C15.1699 31.1806 15.3002 31.2429 15.3967 31.367C15.4928 31.4914 15.5407 31.6399 15.5407 31.8126C15.5407 31.9097 15.51 32.0437 15.4479 32.2138C15.386 32.3839 15.3082 32.5786 15.2144 32.7972C15.1204 33.016 15.0185 33.2497 14.9088 33.498C14.7989 33.7467 14.6967 33.999 14.6033 34.2557C14.5089 34.5123 14.4314 34.7635 14.3694 35.0093C14.3075 35.2549 14.2767 35.4834 14.2767 35.6938C14.2767 35.8884 14.3774 35.9857 14.5789 35.9857C14.721 35.9857 14.8972 35.937 15.108 35.8398C15.3186 35.7424 15.5397 35.6061 15.7709 35.4305C15.8286 35.3867 15.8868 35.3409 15.9445 35.2928C16.0091 35.0277 16.0848 34.7825 16.1729 34.5597C16.3331 34.1381 16.4959 33.7197 16.6608 33.3037C16.8256 32.8878 16.9766 32.5069 17.1144 32.1611L19.1959 26.9348C19.2783 26.7242 19.3896 26.5756 19.529 26.4891C19.669 26.4029 19.8097 26.3596 19.9518 26.3596C20.0936 26.3596 20.2229 26.4055 20.3398 26.4972C20.4566 26.5893 20.5152 26.7377 20.5152 26.943C20.5152 27.0402 20.4957 27.143 20.4566 27.2509C20.4178 27.3589 20.3686 27.4751 20.3089 27.5992C20.1946 27.8533 20.0583 28.1639 19.9001 28.5311C19.7421 28.8985 19.5725 29.2983 19.3917 29.7303C19.2107 30.1625 19.0251 30.6122 18.8351 31.0794C18.6452 31.5467 18.4596 32.0017 18.2786 32.4447C18.0979 32.8878 17.9282 33.3075 17.7702 33.7047C17.6121 34.1017 17.4762 34.4463 17.3614 34.7378C17.3111 34.8619 17.2618 35.0067 17.2139 35.1714C17.1657 35.336 17.1418 35.4834 17.1418 35.6131C17.1418 35.6938 17.1555 35.7586 17.1831 35.8073C17.2105 35.856 17.2631 35.8804 17.341 35.8804C17.4371 35.8804 17.5573 35.8467 17.7016 35.779C17.8458 35.7117 18.0015 35.6223 18.1687 35.5115C18.3362 35.401 18.5101 35.2741 18.6908 35.1307C18.8719 34.9877 19.0516 34.8392 19.2302 34.6851C19.4089 34.5311 19.5795 34.3772 19.7421 34.2231C19.9046 34.0693 20.0502 33.9276 20.1786 33.7978C20.2087 33.7668 20.2447 33.7447 20.2842 33.7283C20.3615 33.4983 20.4321 33.273 20.4945 33.0525C20.5311 32.9553 20.5816 32.8177 20.6457 32.6392C20.7096 32.4609 20.783 32.2854 20.8654 32.1125C20.9478 31.9398 21.0409 31.7896 21.1435 31.6629C21.2468 31.5361 21.3579 31.4724 21.4769 31.4724C21.6601 31.4724 21.7931 31.5144 21.8755 31.5979C21.9579 31.6819 21.999 31.8046 21.999 31.9667C21.999 31.9991 21.9946 32.0504 21.9853 32.1207C21.9761 32.1909 21.9649 32.2653 21.9512 32.3436C21.9375 32.4217 21.9225 32.4962 21.9064 32.5665C21.8902 32.6366 21.8755 32.6879 21.8618 32.7203C22.0309 32.5366 22.2143 32.3544 22.4112 32.1735C22.6083 31.9924 22.812 31.8288 23.0227 31.6832C23.2337 31.5371 23.4488 31.4186 23.6689 31.3263C23.8884 31.2348 24.1085 31.1888 24.3283 31.1888C24.4793 31.1888 24.6295 31.2104 24.7782 31.2537C24.927 31.2969 25.0601 31.3603 25.1767 31.4441C25.2936 31.5281 25.3887 31.6332 25.4618 31.7601C25.5351 31.887 25.5716 32.0342 25.5716 32.2016C25.5716 32.4233 25.5157 32.6596 25.4034 32.9108C25.2912 33.162 25.1504 33.4145 24.9809 33.6681C24.8114 33.9222 24.6282 34.1692 24.4315 34.4097C24.2344 34.65 24.0501 34.8686 23.8784 35.0658C23.7065 35.2633 23.5621 35.4305 23.4452 35.5682C23.3288 35.7063 23.2677 35.7993 23.2633 35.848C23.2633 35.9129 23.284 35.9654 23.3253 36.006C23.3664 36.0465 23.4351 36.0668 23.5312 36.0668C23.6091 36.0668 23.7238 36.0235 23.8747 35.937C24.0257 35.8506 24.2378 35.7009 24.5102 35.4875C24.7826 35.2741 25.1287 34.9877 25.5477 34.6283C25.8352 34.3822 26.1716 34.0887 26.5509 33.7548L28.3678 16.9989C28.0752 17.1599 27.7708 17.2608 27.5913 17.3199C26.8395 17.567 25.778 17.787 24.436 17.9736ZM14.3022 13.998C6.44651 13.998 0.078125 14.8727 0.078125 15.9516C0.078125 17.0304 6.44651 17.9051 14.3022 17.9051C22.1579 17.9051 28.5263 17.0304 28.5263 15.9516C28.5263 14.8727 22.1579 13.998 14.3022 13.998ZM19.9817 16.5225C19.9817 16.7756 19.2249 16.9808 18.2911 16.9808C17.3576 16.9808 16.6008 16.7756 16.6008 16.5225C16.6008 16.2692 17.3576 16.0639 18.2911 16.0639C19.2249 16.0639 19.9817 16.2692 19.9817 16.5225Z" fill="#EB4A4B"/>
<path fill-rule="evenodd" clip-rule="evenodd" d="M16.9423 16.3202C16.9339 16.3334 16.9297 16.3469 16.9297 16.3609C16.9297 16.5248 17.539 16.6574 18.2904 16.6574C19.0419 16.6574 19.6512 16.5248 19.6512 16.3609L21.4285 9.18533L28.497 1.75478C28.4992 1.75251 28.5015 1.75018 28.5036 1.74775C28.6532 1.57925 28.3496 1.05784 27.8459 0.610652C27.3421 0.163465 26.7983 0.0120698 26.6291 0.182349L26.6254 0.186223L19.0839 8.08779L16.9423 16.3202Z" fill="#EB4A4B"/>
</g>
</g>
<defs>
<clipPath id="clip0_1279_393">
<rect width="29" height="63" fill="white"/>
</clipPath>
</defs>
</svg>
