<svg width="57" height="57" viewBox="0 0 57 57" fill="none" xmlns="http://www.w3.org/2000/svg">
<path d="M40.0827 34.883L38.06 32.9441C38.1435 32.7206 38.2633 32.5311 38.3477 32.3431C38.4151 32.137 38.5336 31.9135 38.5829 31.6913L41.4321 31.6562C41.9188 31.6504 42.3129 31.2527 42.29 30.7921L42.2451 25.8227C42.2384 25.3446 41.8339 24.9568 41.3662 24.9797L38.517 25.0147C38.4617 24.7929 38.3554 24.59 38.266 24.3683C38.1942 24.1645 38.0694 23.9436 37.9635 23.7744L39.9364 21.7871C40.2794 21.441 40.2906 20.9117 39.9207 20.5575L36.2976 17.0835C35.9456 16.7459 35.407 16.736 35.0474 17.0992L33.0744 19.0869C32.8473 19.0039 32.6552 18.8872 32.463 18.8037C32.2534 18.7372 32.0263 18.6205 31.8 18.5729L31.765 15.7722C31.7587 15.2946 31.3543 14.9063 30.8865 14.9292L25.8143 14.9911C25.3277 14.9965 24.9336 15.3947 24.9565 15.8553L24.9915 18.6555C24.7661 18.7099 24.5592 18.8144 24.3338 18.9029C24.1265 18.9738 23.902 19.0959 23.7301 19.2005L21.7073 17.2617C21.3554 16.9246 20.8167 16.9142 20.4571 17.2774L16.9058 20.8556C16.5454 21.1847 16.5517 21.731 16.8865 22.0515L18.9088 23.9908C18.8253 24.2139 18.7059 24.4033 18.6211 24.5918C18.5367 24.7804 18.4357 25.021 18.3859 25.2436L15.5717 25.3119C15.0855 25.3173 14.6909 25.7154 14.7138 26.176L14.7762 31.1615C14.783 31.6396 15.1874 32.0275 15.6552 32.0046L18.5044 31.9696C18.5596 32.1913 18.6664 32.3942 18.7553 32.616C18.8271 32.8202 18.9519 33.0407 19.0579 33.2099L17.0849 35.1976C16.742 35.5433 16.7312 36.0726 17.1007 36.4267L20.7413 39.9174C21.0932 40.255 21.6319 40.2649 21.9915 39.9017L23.9644 37.9144C24.1915 37.997 24.3837 38.1137 24.5758 38.1972C24.7679 38.2803 25.0126 38.3804 25.2388 38.4279L25.2739 41.2287C25.2801 41.7067 25.6846 42.0946 26.1524 42.0717L31.2245 42.0098C31.7111 42.0044 32.1053 41.6062 32.0824 41.1456L32.0474 38.3454C32.2727 38.291 32.4797 38.1864 32.705 38.098C32.9124 38.0271 33.1368 37.905 33.3088 37.8004L35.3315 39.7392C35.6835 40.0763 36.2222 40.0866 36.5817 39.7235L40.133 36.1453C40.4239 35.7502 40.4347 35.2205 40.0827 34.883V34.883Z" fill="#06D6A0"/>
<path d="M26.0911 42.9929C25.6777 42.9929 25.2427 42.8209 24.9163 42.5139C24.5653 42.1835 24.361 41.7193 24.3548 41.2403L24.3269 39.091C24.2874 39.0744 24.2488 39.0578 24.2111 39.0412C24.1945 39.034 24.1779 39.0268 24.1613 39.0201L22.6435 40.5508C21.9365 41.2605 20.8223 41.2718 20.1027 40.5813L16.4626 37.0916C16.1088 36.7522 15.9104 36.3042 15.9055 35.8292C15.8992 35.3521 16.0859 34.8978 16.4325 34.5503L17.9318 33.0389C17.9152 32.9994 17.9009 32.9599 17.8869 32.9212L17.8757 32.8984L15.6649 32.9248C15.2393 32.9504 14.7639 32.7731 14.4174 32.4477C14.0659 32.1177 13.8621 31.6544 13.8553 31.1746L13.7929 26.1877C13.7709 25.7567 13.9375 25.3087 14.2638 24.9613C14.5974 24.6058 15.0701 24.3988 15.5598 24.3925L17.7249 24.3391C17.7433 24.2969 17.7608 24.2561 17.7792 24.2157C17.7828 24.2076 17.7868 24.2004 17.7904 24.1928L16.2476 22.7145C15.9028 22.3837 15.708 21.9182 15.7143 21.4401C15.721 20.962 15.9279 20.5005 16.2844 20.176L19.8029 16.6292C20.5072 15.9204 21.6223 15.9064 22.3432 16.5982L23.8951 18.0854C23.9427 18.0661 23.9893 18.0486 24.0356 18.0334L24.0621 18.0212L24.0356 15.8669C24.0136 15.436 24.1797 14.9884 24.506 14.6405C24.84 14.285 25.3127 14.0781 25.8016 14.0718L30.8746 14.0098C31.3132 13.9919 31.7765 14.1625 32.1221 14.487C32.4732 14.8174 32.6774 15.2816 32.6837 15.7606L32.7106 17.9184C32.7196 17.9211 32.7282 17.9238 32.7362 17.9265C32.7668 17.9355 32.7968 17.9467 32.8274 17.9606C32.844 17.9678 32.8597 17.9741 32.8758 17.9817L34.394 16.451C35.0979 15.7422 36.2134 15.7282 36.9348 16.4195L40.557 19.8932C40.9112 20.2321 41.1087 20.681 41.1146 21.1555C41.12 21.6322 40.9332 22.0856 40.5885 22.4331L39.0882 23.9454C39.1048 23.9858 39.1192 24.0244 39.1331 24.063L39.1443 24.0873L41.3552 24.0603C41.7781 24.0383 42.257 24.2121 42.6036 24.5393C42.9542 24.8693 43.1589 25.3339 43.1638 25.8129L43.2096 30.7836C43.2316 31.2123 43.0651 31.6598 42.7387 32.0073C42.4052 32.3633 41.9325 32.5698 41.4427 32.5765L39.2314 32.603C39.2287 32.6106 39.226 32.6187 39.2233 32.6259C39.213 32.6582 39.2013 32.6905 39.1865 32.7215C39.1838 32.7291 39.1802 32.7354 39.1771 32.7417L40.72 34.2204C41.3893 34.8628 41.4544 35.9015 40.8753 36.6907C40.8488 36.7275 40.8183 36.7621 40.786 36.7944L37.2356 40.3726C36.5277 41.0832 35.4135 41.0935 34.6944 40.4027L33.1434 38.9164C33.0949 38.9357 33.0478 38.9532 33.002 38.9689L32.9755 38.9805L33.002 41.1348C33.024 41.5658 32.8574 42.0138 32.5311 42.3612C32.1976 42.7168 31.7249 42.9237 31.236 42.93L26.1638 42.992C26.14 42.9929 26.1149 42.9929 26.0911 42.9929V42.9929ZM23.9629 36.995C24.0679 36.995 24.1743 37.013 24.2771 37.0498C24.4504 37.1127 24.6066 37.1899 24.7574 37.2653C24.8189 37.2963 24.8795 37.3268 24.9392 37.3533C25.0295 37.3919 25.2647 37.4942 25.4303 37.5288C25.8496 37.619 26.1508 37.9876 26.1567 38.4163L26.1912 41.2165L31.1624 41.0913L31.1274 38.3566C31.122 37.927 31.4142 37.5521 31.8317 37.4507C31.9421 37.4242 32.044 37.3762 32.1518 37.3313L32.3686 37.2419C32.5118 37.1917 32.6676 37.1136 32.8319 37.0144C33.1869 36.7998 33.6448 36.8478 33.9451 37.1365L35.9679 39.0753L39.4137 35.5662C39.4209 35.5505 39.4253 35.5375 39.4271 35.5276L37.4232 33.6063C37.1575 33.3513 37.0691 32.9616 37.1997 32.6169C37.2643 32.4459 37.3433 32.2896 37.4214 32.1397C37.4452 32.0921 37.4708 32.045 37.4928 31.9983C37.5224 31.9144 37.5566 31.8291 37.5916 31.7415C37.6252 31.6589 37.6647 31.5745 37.6841 31.4897C37.777 31.0722 38.1437 30.7746 38.5715 30.7688L41.37 30.7351L41.3242 25.8295L38.5262 25.9314C38.0697 25.9588 37.7258 25.6472 37.6235 25.2324C37.5979 25.126 37.5489 25.0277 37.504 24.9245L37.412 24.7121C37.3761 24.6129 37.3213 24.4823 37.1822 24.2601C36.9559 23.8978 37.0085 23.4278 37.3092 23.1244L39.2821 21.1362L35.6608 17.7434L33.7265 19.7311C33.4747 19.9856 33.0967 20.0705 32.7591 19.947C32.5863 19.8846 32.4301 19.8074 32.2801 19.732C32.2299 19.7073 32.1809 19.6817 32.1325 19.6593C32.0458 19.6301 31.9574 19.596 31.8676 19.5601C31.781 19.526 31.6948 19.4865 31.6063 19.4681C31.1871 19.3783 30.8859 19.0093 30.88 18.581L30.845 15.7808L25.8743 15.9056L25.9093 18.6407C25.9147 19.0694 25.6225 19.4452 25.2059 19.5466C25.0954 19.5731 24.9926 19.6207 24.884 19.6669L24.6681 19.7558C24.5244 19.8065 24.3691 19.8846 24.2048 19.9838C23.8506 20.1993 23.3928 20.1504 23.0915 19.8617L21.0697 17.9229L17.5974 21.4585L19.5434 23.3241C19.8092 23.5787 19.8976 23.9683 19.767 24.3131C19.7028 24.4832 19.6247 24.6385 19.5474 24.7867C19.516 24.8473 19.4846 24.9061 19.4581 24.9649C19.4195 25.0506 19.3163 25.2814 19.2826 25.4376C19.1924 25.8515 18.831 26.15 18.4072 26.1603L15.6317 26.2281L15.6941 31.1494L18.4925 31.0502C18.9212 31.0677 19.2943 31.3344 19.3957 31.7492C19.4213 31.8547 19.4702 31.953 19.5151 32.0553L19.6071 32.2685C19.6431 32.3677 19.6978 32.4984 19.8379 32.7215C20.0628 33.0838 20.0107 33.5538 19.7099 33.8563L17.7379 35.8436L21.3776 39.2526L23.312 37.2653C23.4866 37.0893 23.7231 36.995 23.9629 36.995V36.995ZM31.1642 41.1806V41.1927V41.1806ZM41.3718 30.8249V30.8379V30.8249ZM15.6299 26.128V26.1401C15.6299 26.1365 15.6299 26.1316 15.6299 26.128ZM25.8725 15.8072V15.8194C25.8725 15.8158 25.8725 15.8122 25.8725 15.8072Z" fill="#024430"/>
<path d="M33.3025 28.3954C33.2876 27.2018 32.8226 26.014 31.879 25.1148C30.9358 24.2156 29.7094 23.791 28.4884 23.8058C27.2678 23.8206 26.0522 24.2744 25.1329 25.1969C24.2135 26.119 23.7785 27.3176 23.7933 28.5112C23.8081 29.7044 24.2732 30.8922 25.2168 31.7913C26.16 32.6905 27.3864 33.1152 28.6074 33.1003C29.8279 33.0855 31.0436 32.6317 31.9629 31.7096C32.8823 30.7871 33.3016 29.5729 33.3025 28.3954Z" fill="white"/>
<path d="M27.7305 4.93524H29.5692V11.0085H27.7305V4.93524Z" fill="#024430"/>
<path d="M31.0767 3.32454C31.0767 1.99623 29.9751 0.919312 28.6162 0.919312C27.2574 0.919312 26.1562 1.99623 26.1562 3.32454C26.1562 4.6524 27.2574 5.72932 28.6162 5.72932C29.9751 5.72932 31.0767 4.6524 31.0767 3.32454Z" fill="white"/>
<path d="M28.6176 6.64782C26.7551 6.64782 25.2383 5.15656 25.2383 3.32368C25.2383 1.49036 26.7551 0 28.6176 0C30.4801 0 31.9974 1.49126 31.9974 3.32458C31.9974 5.15746 30.4801 6.64782 28.6176 6.64782ZM28.6176 1.83871C27.7683 1.83871 27.077 2.50533 27.077 3.32458C27.077 4.14338 27.7683 4.81 28.6176 4.81C29.467 4.81 30.1587 4.14338 30.1587 3.32458C30.1587 2.50533 29.467 1.83871 28.6176 1.83871V1.83871Z" fill="#024430"/>
<path d="M7.20703 17.3658L8.19776 15.8167L13.691 19.3298L12.7003 20.8789L7.20703 17.3658Z" fill="#024430"/>
<path d="M7.48524 13.7306C6.30822 13.0667 4.80439 13.4604 4.12475 14.6105C3.44556 15.7606 3.84912 17.2316 5.0248 17.8951C6.20093 18.559 7.70566 18.1653 8.3853 17.0152C9.06449 15.8651 8.66182 14.3954 7.48524 13.7306Z" fill="white"/>
<path d="M6.24828 19.1354C5.67817 19.1354 5.10177 18.994 4.57431 18.696C3.78469 18.2502 3.22087 17.5275 2.98834 16.6606C2.7585 15.8037 2.8806 14.9099 3.33309 14.1432C4.26457 12.5657 6.33222 12.0235 7.93705 12.9298C8.72802 13.3755 9.29139 14.0983 9.52393 14.966C9.75377 15.823 9.63077 16.7167 9.17827 17.4835C8.5534 18.5424 7.41498 19.1354 6.24828 19.1354V19.1354ZM6.25591 14.3272C5.72081 14.3272 5.20233 14.5966 4.91728 15.0782C4.71751 15.4158 4.66409 15.8082 4.76465 16.1852C4.86745 16.5704 5.12108 16.8941 5.47706 17.0956C6.2191 17.5109 7.16763 17.2702 7.59409 16.5484C7.79385 16.2099 7.84817 15.8176 7.74761 15.4414C7.64482 15.0553 7.39029 14.7326 7.03431 14.5315C7.03431 14.5315 7.03431 14.5315 7.03341 14.5315C6.78786 14.3932 6.51941 14.3272 6.25591 14.3272Z" fill="#024430"/>
<path d="M7.05273 39.3796L12.5451 35.8665L13.5363 37.4166L8.04391 40.9293L7.05273 39.3796Z" fill="#024430"/>
<path d="M4.90976 38.9061C3.73319 39.57 3.33052 41.041 4.00971 42.1911C4.68935 43.3412 6.19408 43.7354 7.37021 43.071C8.54678 42.4071 8.94945 40.936 8.27026 39.7859C7.59152 38.6367 6.08679 38.2426 4.90976 38.9061Z" fill="white"/>
<path d="M6.14657 44.3122C4.97897 44.3122 3.8419 43.7183 3.21658 42.6589C2.76408 41.8931 2.64108 40.9997 2.87092 40.1428C3.10255 39.2759 3.66593 38.5523 4.45779 38.1065C6.06173 37.2007 8.12848 37.7434 9.06175 39.319C9.51425 40.0858 9.63635 40.9795 9.40651 41.836C9.17398 42.7033 8.6115 43.4256 7.82053 43.8718C7.29397 44.1703 6.71668 44.3122 6.14657 44.3122V44.3122ZM6.13939 39.5026C5.87454 39.5026 5.60699 39.5691 5.36054 39.7069C5.00366 39.9093 4.75003 40.2321 4.64723 40.6182C4.54668 40.9939 4.601 41.3867 4.80076 41.7238C5.22632 42.4448 6.17306 42.6903 6.91779 42.2719C7.27467 42.0708 7.5274 41.7472 7.6302 41.3607C7.73075 40.9849 7.67733 40.5921 7.47757 40.2541C7.19297 39.7724 6.67313 39.5026 6.13939 39.5026ZM4.90894 38.906H4.91837H4.90894Z" fill="#024430"/>
<path d="M27.4316 45.9906H29.2703V52.0638H27.4316V45.9906Z" fill="#024430"/>
<path d="M30.8443 53.6754C30.8443 52.3476 29.7431 51.2706 28.3843 51.2706C27.0254 51.2706 25.9238 52.3476 25.9238 53.6754C25.9238 55.0037 27.0254 56.0806 28.3843 56.0806C29.7431 56.0806 30.8443 55.0037 30.8443 53.6754V53.6754Z" fill="white"/>
<path d="M28.3837 57C26.5212 57 25.0039 55.5088 25.0039 53.6754C25.0039 51.8426 26.5203 50.3513 28.3837 50.3513C30.2471 50.3513 31.7631 51.8426 31.7631 53.6754C31.7631 55.5088 30.2462 57 28.3837 57V57ZM28.3837 52.1909C27.5344 52.1909 26.8426 52.8575 26.8426 53.6763C26.8426 54.4956 27.5344 55.1613 28.3837 55.1613C29.233 55.1613 29.9243 54.4947 29.9243 53.6754C29.9243 52.8566 29.233 52.1909 28.3837 52.1909V52.1909Z" fill="#024430"/>
<path d="M43.3203 37.6698L44.311 36.1206L49.8038 39.6337L48.8135 41.1824L43.3203 37.6698Z" fill="#024430"/>
<path d="M49.5152 43.2694C50.6923 43.9333 52.1961 43.5397 52.8757 42.3896C53.5549 41.2395 53.1514 39.7684 51.9757 39.1049C50.7986 38.441 49.2948 38.8347 48.6152 39.9848C47.936 41.1349 48.3387 42.6046 49.5152 43.2694V43.2694Z" fill="white"/>
<path d="M50.7383 44.5088C50.1682 44.5088 49.5918 44.367 49.0652 44.0694C48.2742 43.6236 47.7109 42.9009 47.4783 42.0331C47.2485 41.1762 47.3715 40.2824 47.824 39.5157C48.7541 37.9391 50.82 37.3946 52.428 38.3032C53.2176 38.749 53.7814 39.4717 54.0139 40.3385C54.2438 41.1955 54.1217 42.0888 53.6692 42.856C53.043 43.9158 51.905 44.5088 50.7383 44.5088V44.5088ZM50.7455 39.7006C50.2117 39.7006 49.6919 39.9691 49.4082 40.4516C49.2084 40.7901 49.1541 41.1825 49.2547 41.5586C49.3575 41.9447 49.612 42.2675 49.968 42.4686H49.9689C50.7127 42.8878 51.6603 42.6414 52.085 41.9218C52.2848 41.5842 52.3382 41.1919 52.2376 40.8148C52.1348 40.4296 51.8812 40.106 51.5252 39.9044C51.2788 39.7657 51.0103 39.7006 50.7455 39.7006Z" fill="#024430"/>
<path d="M43.4609 19.5843L48.9533 16.0712L49.9445 17.6212L44.4521 21.1339L43.4609 19.5843Z" fill="#024430"/>
<path d="M52.0929 18.0939C53.2694 17.43 53.6721 15.9589 52.9929 14.8088C52.3133 13.6588 50.8085 13.2646 49.6324 13.929C48.4558 14.5929 48.0532 16.064 48.7324 17.2141C49.4111 18.3633 50.9158 18.7574 52.0929 18.0939Z" fill="white"/>
<path d="M50.8695 19.333C49.7028 19.333 48.5657 18.7391 47.9386 17.681C47.4861 16.9143 47.364 16.0205 47.5938 15.164C47.8263 14.2967 48.3888 13.5744 49.1798 13.1282C50.7851 12.2201 52.8536 12.7641 53.7837 14.342C54.2362 15.1079 54.3592 16.0012 54.1294 16.8581C53.8978 17.725 53.3344 18.4486 52.5425 18.8944C52.016 19.1915 51.4396 19.333 50.8695 19.333V19.333ZM50.8614 14.5238C50.5974 14.5238 50.329 14.5903 50.0825 14.7281C49.7256 14.9292 49.4729 15.2529 49.3701 15.6394C49.2696 16.0151 49.323 16.4079 49.5227 16.7459C49.9483 17.466 50.8968 17.7097 51.6398 17.2931C51.9967 17.0907 52.2503 16.7679 52.3531 16.3819C52.4536 16.0061 52.3993 15.6133 52.1996 15.2762C51.9159 14.7932 51.396 14.5238 50.8614 14.5238Z" fill="#024430"/>
</svg>
