<svg width="107" height="40" viewBox="0 0 107 40" fill="none" xmlns="http://www.w3.org/2000/svg">
<g opacity="0.8" clip-path="url(#clip0_463_37720)">
<path d="M21.5 9.29578V30.7375H18.5625V9.29578H21.5ZM0 30.7416V9.29578H9.20416H10.0375C12.5208 9.29578 13.9583 9.92078 14.85 10.8666C15.7583 11.8124 16.4417 13.4624 16.4417 16.0749C16.4417 18.5749 15.7417 20.0708 14.7917 20.9791C13.8625 21.8874 12.3292 22.5499 9.75416 22.5499L8.7875 22.5708H2.9V30.7333H0V30.7416ZM2.9 20.1499H8.31666C10.5917 20.1499 11.8042 19.6958 12.4292 19.2416C13.075 18.7666 13.6208 17.9166 13.6208 16.2499C13.6208 14.2791 13.1667 13.1999 12.7292 12.6874C12.2917 12.1749 11.4583 11.7583 9.90833 11.7583C8.35833 11.7583 2.87917 11.7416 2.87917 11.7416V20.1541H2.9V20.1499ZM26.7833 19.9041H24.1708C24.3583 18.0666 24.8333 17.3291 25.5917 16.6458C26.35 15.9624 27.9042 15.1124 30.2708 15.1124C33.0167 15.1124 34.3041 15.7374 35.2333 16.5708C36.35 17.5541 36.8625 19.0124 36.8625 21.9124C36.8625 21.9124 36.8625 28.2208 36.8625 28.9958C36.8625 30.1125 37.1291 30.625 37.1291 30.625V30.7583H34.4208L34.3625 29.5666L34.3041 29.5458C33.0541 30.8708 31.9 31.0041 29.5292 31.0416C26.1 31.0791 23.6958 29.45 23.6583 26.5125C23.6375 24.6958 24.1875 23.5 25.0583 22.7791C25.9125 22.0791 27.3333 21.4166 29.6042 21.3958C32.0667 21.3583 33.6583 21.7166 34.3208 22.6666L34.3792 22.6458V21.6249C34.3792 19.8999 34 18.9166 33.5083 18.4041C33.0333 17.8916 32.1625 17.3416 30.5333 17.3624C28.0333 17.3874 26.975 18.1999 26.7833 19.9041ZM30.2125 23.5416C28.5625 23.5625 27.6167 23.7708 27.0125 24.225C26.425 24.6625 26.1417 25.2083 26.1417 26.3458C26.1625 27.5208 26.5375 27.7875 27.0875 28.1833C27.6542 28.6 28.5083 28.7875 30.0042 28.7708C33.0333 28.7333 34.2291 28.2416 34.1916 26.25C34.1708 25.1125 33.925 24.6 33.4333 24.225C32.9041 23.8083 31.9167 23.5041 30.2125 23.5416ZM49.6125 25.3041H52.2083C52.0583 27.5583 51.8291 28.1625 50.9958 29.1875C50.125 30.2291 48.9291 30.9125 46.2041 30.9125C43.4375 30.9125 41.8833 30.6666 40.6333 29.3416C39.6291 28.2791 39.025 26.1791 39.025 22.9374C39.025 19.8874 39.65 18.1999 40.6166 17.0458C41.5458 15.9458 43.2291 15.1124 45.7291 15.1124C48.0958 15.1124 49.65 15.5874 50.675 16.3833C51.7 17.1791 52.2083 18.5624 52.2083 20.5874H49.6125C49.6125 19.6791 49.2541 18.5041 48.5708 18.0874C47.8875 17.6916 47.0166 17.4999 45.5791 17.4999C44.0625 17.4999 43.0208 18.2374 42.5666 18.8833C42.075 19.5833 41.7333 20.7583 41.7333 23.1458C41.7333 25.475 42.2625 26.9916 42.7541 27.6333C43.2666 28.2791 44.3458 28.5041 46.2 28.5041C47.7708 28.5041 48.2833 28.1458 48.7 27.7291C49.1583 27.2916 49.5166 26.875 49.6125 25.3041ZM65.675 16.3624C64.5375 15.5083 63.4583 15.1124 61.0166 15.1124C58.6291 15.1124 56.7916 15.8333 55.8083 16.8916C54.8416 17.9541 54.0833 19.8833 54.0833 22.9333C54.0833 26.4208 54.7666 28.275 55.9208 29.3375C57.3208 30.6083 58.6875 30.9291 61.2041 30.9291C64.025 30.9291 65.4833 30.075 66.3375 29.0166C66.9625 28.2416 67.3208 27.5 67.475 26.025L64.825 25.7208C64.75 26.65 64.3708 27.2375 64.0291 27.5583C63.575 27.9541 63.1583 28.45 61.5458 28.45C59.6333 28.45 58.6666 28.2625 58.0583 27.5958C57.5083 26.9916 56.9208 25.8708 56.9041 23.5791H67.7791V21.5708C67.7583 19.3958 67.075 17.4041 65.675 16.3624ZM56.9625 21.2874C57.0958 19.9791 57.4166 19.1833 57.8166 18.7124C58.3833 18.0499 59.4833 17.4791 60.8458 17.4791C62.3416 17.4791 63.1958 17.7999 63.9541 18.3499C64.8625 19.0124 65.0708 19.7124 65.0708 21.2874H56.9625Z" fill="#024430"/>
<path opacity="0.5" d="M97.3471 18.9374C97.3846 21.1541 97.3846 22.6332 97.1763 23.1791L93.8805 20.6791L91.8721 23.4457L95.6971 26.2124C95.3013 26.7041 94.2555 26.7999 92.8555 26.7999C90.1096 26.7999 88.9721 26.4791 88.2721 25.8332C87.5721 25.1707 87.1346 23.8082 87.1346 20.8499C87.1346 16.9457 87.343 15.6207 87.968 14.5416C88.5555 13.5374 89.768 13.0082 92.3263 13.0082C94.468 13.0082 95.6221 13.4041 96.268 13.9916C97.1221 14.7707 97.3471 16.7207 97.3471 18.9374ZM106.668 9.97908V29.9999C106.668 33.5791 104.793 36.4791 99.5471 36.4791H76.7971C72.4763 36.4791 70.168 34.1124 70.168 30.3041V10.3207C70.168 6.41658 72.4221 3.52075 77.1388 3.52075H99.8138C104.264 3.52075 106.668 5.86658 106.668 9.97908ZM79.7888 9.99992H75.6388V30.4582H79.7888V9.99992ZM103.26 27.5791L100.985 25.9291C101.289 24.8124 101.551 22.8416 101.551 19.6791C101.551 15.2291 101.155 12.8582 99.5638 11.3249C98.293 10.0916 96.2471 9.31658 92.2721 9.31658C88.218 9.31658 86.418 9.97908 85.0555 11.5916C83.4471 13.4874 82.9888 15.7207 82.9888 20.6666C82.9888 24.9082 83.6888 27.1457 84.8846 28.5291C86.2096 30.0624 88.3513 30.6332 92.3305 30.6332C95.9471 30.6332 97.9388 30.3291 99.2638 29.0416L101.176 30.4249L103.26 27.5791Z" fill="#024430"/>
</g>
<defs>
<clipPath id="clip0_463_37720">
<rect width="106.667" height="40" fill="white"/>
</clipPath>
</defs>
</svg>
