<svg width="90" height="22" viewBox="0 0 90 22" fill="none" xmlns="http://www.w3.org/2000/svg">
<g opacity="0.8">
<path d="M8.90901 0.950424V1.57726C8.17408 1.65814 7.6775 1.77946 7.37955 1.92101C7.0816 2.06255 6.92269 2.38608 6.92269 2.87137C6.92269 3.09379 6.96242 3.31622 7.02201 3.51843C7.0816 3.72063 7.18092 4.02393 7.33982 4.42835L11.7693 15.2665L15.5235 5.68201C15.7022 5.21695 15.8612 4.71144 16.0201 4.20592C16.1789 3.68019 16.2584 3.296 16.2584 3.03314C16.2584 2.48718 16.0002 2.08277 15.5037 1.84013C15.1858 1.69858 14.7687 1.6177 14.2323 1.57726V0.950424H20.092V1.57726C19.4166 1.63792 18.9201 1.86035 18.6222 2.28497C18.3242 2.68939 17.8872 3.61953 17.3112 5.09562L11.2728 20.4632C11.1536 20.726 11.0741 20.9081 10.9946 21.0092C10.9152 21.1103 10.8358 21.1709 10.7166 21.1709C10.5776 21.1709 10.4584 21.09 10.359 20.9282C10.2597 20.7665 10.1604 20.5643 10.0412 20.3216L3.62539 4.671C3.10895 3.3971 2.55277 2.54784 1.97674 2.08277C1.6192 1.8199 1.12262 1.65814 0.447266 1.57726V0.950424H8.90901ZM27.8188 0.889763V14.5386C27.8188 15.5092 27.9578 16.2776 28.2161 16.8639C28.7325 17.9356 29.7059 18.4816 31.0963 18.4816C32.0497 18.4816 32.9833 18.1581 33.9169 17.5312C34.4334 17.1875 34.9696 16.682 35.5059 16.0551V4.36769C35.5059 3.25556 35.2874 2.54784 34.8703 2.2041C34.4532 1.86035 33.619 1.65814 32.3676 1.57726V0.869543H39.0615V16.0551C39.0615 16.9853 39.2204 17.6323 39.558 17.9963C39.8957 18.3603 40.5909 18.5018 41.6437 18.4614V19.0882C40.8889 19.2904 40.3327 19.4521 39.9752 19.5532C39.6177 19.6543 39.0217 19.8566 38.1875 20.1194C37.8299 20.2408 37.0552 20.5441 35.8436 21.0293C35.7641 21.0293 35.7443 20.9889 35.7245 20.9282C35.7046 20.8676 35.7046 20.7867 35.7046 20.6856V17.1875C34.7511 18.34 33.8772 19.1893 33.0826 19.7555C31.8909 20.6047 30.6196 21.0293 29.2887 21.0293C28.0771 21.0293 26.9251 20.5845 25.8325 19.715C24.7401 18.8455 24.1839 17.3897 24.1839 15.3475V4.2868C24.1839 3.15445 23.9654 2.38608 23.4887 2.00189C23.1907 1.75924 22.5551 1.59748 21.5818 1.49638V0.869543H27.8188V0.889763ZM46.3513 3.70041C48.0794 1.77946 50.3041 0.829102 53.0254 0.829102C55.7267 0.829102 57.9713 1.73902 59.759 3.55887C61.5269 5.37871 62.4206 7.78495 62.4206 10.818C62.4206 13.5882 61.5666 16.0147 59.8385 18.057C58.1104 20.0992 55.8857 21.1304 53.1445 21.1304C50.5226 21.1304 48.2979 20.1397 46.4705 18.1783C44.643 16.2169 43.7492 13.7298 43.7492 10.7574C43.7492 7.96693 44.6033 5.62136 46.3513 3.70041ZM49.6088 3.11401C48.2383 4.38791 47.5431 6.59193 47.5431 9.70589C47.5431 12.193 48.0992 14.5183 49.2116 16.6617C50.3239 18.8253 51.8534 19.897 53.8199 19.897C55.3692 19.897 56.5411 19.1691 57.3755 17.7334C58.2097 16.2977 58.6268 14.3971 58.6268 12.0717C58.6268 9.64523 58.0905 7.38053 57.0378 5.23717C55.9849 3.0938 54.4356 2.02211 52.4295 2.02211C51.3369 2.02211 50.4034 2.38608 49.6088 3.11401ZM64.4864 20.3216C65.7775 20.2205 66.6317 19.9779 67.0488 19.6139C67.4659 19.2702 67.6844 18.522 67.6844 17.3694V7.68384C67.6844 6.28863 67.5454 5.27761 67.2871 4.671C67.0289 4.06438 66.5522 3.76107 65.857 3.76107C65.718 3.76107 65.5193 3.78129 65.3008 3.82174C65.0625 3.86218 64.8241 3.90262 64.5659 3.96327V3.27578C65.3605 2.9927 66.1947 2.70961 67.0289 2.42652C67.8831 2.12322 68.4591 1.92101 68.7968 1.77946C69.492 1.5166 70.2269 1.21329 70.9818 0.869543C71.081 0.869543 71.1407 0.909984 71.1605 0.990866C71.1804 1.07175 71.2002 1.23351 71.2002 1.47616V5.01474C72.0742 3.74085 72.9283 2.72983 73.7427 2.02211C74.5571 1.31439 75.4113 0.950424 76.2852 0.950424C76.9805 0.950424 77.5565 1.17285 77.9935 1.6177C78.4305 2.06255 78.649 2.6085 78.649 3.27578C78.649 3.86218 78.4901 4.36769 78.1524 4.77209C77.8147 5.1765 77.3976 5.37871 76.8812 5.37871C76.3647 5.37871 75.8483 5.13606 75.3119 4.63055C74.7955 4.12504 74.3784 3.8824 74.0804 3.8824C73.6037 3.8824 73.0276 4.2868 72.3126 5.0754C71.6174 5.88422 71.2598 6.71326 71.2598 7.56252V17.147C71.2598 18.3603 71.5379 19.1893 72.1139 19.6543C72.6701 20.1194 73.6235 20.3419 74.9346 20.3216V21.0092H64.4864V20.3216ZM86.5943 0.950424C86.773 0.889763 86.7532 1.15263 86.7532 1.27395V16.5809C86.7532 18.1985 86.9518 19.2095 87.3292 19.6139C87.7265 20.0183 88.5806 20.2811 89.9512 20.4025V21.0293H79.7414V20.4025C81.2511 20.261 82.1847 19.9981 82.5819 19.6342C82.9791 19.2499 83.1579 18.2592 83.1579 16.6011V6.28863C83.1579 5.37871 83.0983 4.73166 82.9791 4.38791C82.7607 3.80152 82.3435 3.51843 81.6682 3.51843C81.5093 3.51843 81.3703 3.53865 81.2312 3.55887C81.0921 3.57909 80.6751 3.70041 79.9798 3.90262V3.07358C79.9798 3.05336 82.9791 2.103 86.5943 0.950424Z" fill="#024430"/>
</g>
</svg>
