<svg width="12" height="14" viewBox="0 0 12 14" fill="none" xmlns="http://www.w3.org/2000/svg">
<path d="M8.46665 3.75039C8.46665 4.43995 8.19272 5.10127 7.70513 5.58887C7.21753 6.07646 6.55621 6.35039 5.86665 6.35039C5.17709 6.35039 4.51577 6.07646 4.02817 5.58887C3.54058 5.10127 3.26665 4.43995 3.26665 3.75039C3.26665 3.06083 3.54058 2.39951 4.02817 1.91191C4.51577 1.42432 5.17709 1.15039 5.86665 1.15039C6.55621 1.15039 7.21753 1.42432 7.70513 1.91191C8.19272 2.39951 8.46665 3.06083 8.46665 3.75039V3.75039ZM5.86665 8.30039C4.65992 8.30039 3.50261 8.77976 2.64931 9.63305C1.79602 10.4863 1.31665 11.6437 1.31665 12.8504H10.4167C10.4167 11.6437 9.93728 10.4863 9.08399 9.63305C8.2307 8.77976 7.07339 8.30039 5.86665 8.30039V8.30039Z" stroke="#8EA4AC" stroke-width="1.3" stroke-linecap="round" stroke-linejoin="round"/>
</svg>
