<svg width="46" height="48" viewBox="0 0 46 48" fill="none" xmlns="http://www.w3.org/2000/svg">
<path fill-rule="evenodd" clip-rule="evenodd" d="M1.94922 29.7681H9.22563V46.6873H1.94922V29.7681ZM25.1707 25.4152H32.4427V46.6873H25.1707V25.4152ZM36.7748 14.6726H44.0467V46.6873H36.7748V14.6726ZM20.8297 46.6873H13.5577V20.5291H20.8297V46.6873Z" fill="#06D6A0"/>
<path fill-rule="evenodd" clip-rule="evenodd" d="M8.66313 46.1249H2.51172V30.3307H8.66313V46.1249ZM9.60063 28.4557H1.57422C1.05681 28.4557 0.636719 28.8754 0.636719 29.3932V47.0624C0.636719 47.5803 1.05681 48.0004 1.57422 48.0004H9.60063C10.118 48.0004 10.5337 47.5803 10.5337 47.0624V29.3932C10.5338 28.8754 10.118 28.4557 9.60063 28.4557ZM31.8802 46.1249H25.7332V25.9778H31.8802V46.1249ZM32.8177 24.1028H24.7913C24.2739 24.1028 23.8538 24.5228 23.8538 25.0403V47.0624C23.8538 47.5803 24.2739 48.0004 24.7913 48.0004H32.8177C33.3351 48.0004 33.7552 47.5803 33.7552 47.0624V25.0403C33.7552 24.5229 33.3351 24.1028 32.8177 24.1028V24.1028ZM43.4842 46.1249H37.3372V15.2352H43.4842V46.1249ZM44.4218 13.3601H36.3998C35.8824 13.3601 35.4623 13.7797 35.4623 14.2976V47.0624C35.4623 47.5803 35.8824 48.0004 36.3998 48.0004H44.4218C44.9392 48.0004 45.3593 47.5803 45.3593 47.0624V14.2977C45.3593 13.7798 44.9392 13.3601 44.4218 13.3601V13.3601ZM20.2672 46.1249H14.1202V21.0917H20.2672V46.1249ZM21.2047 19.2161H13.1827C12.6653 19.2161 12.2452 19.6362 12.2452 20.1536V47.0624C12.2452 47.5803 12.6653 48.0004 13.1827 48.0004H21.2047C21.7265 48.0004 22.1422 47.5803 22.1422 47.0624V20.1537C22.1423 19.6363 21.7266 19.2161 21.2047 19.2161V19.2161ZM5.58522 16.9617C7.10209 16.9617 8.33144 18.192 8.33144 19.7048C8.33144 21.2173 7.102 22.448 5.58522 22.448C4.07275 22.448 2.84341 21.2172 2.84341 19.7048C2.84341 18.192 4.07284 16.9617 5.58522 16.9617ZM17.1981 6.49322C18.7062 6.49322 19.9399 7.72397 19.9399 9.23681C19.9399 10.7493 18.7061 11.9799 17.1981 11.9799C15.6813 11.9799 14.4519 10.7492 14.4519 9.23681C14.4519 7.72397 15.6813 6.49322 17.1981 6.49322ZM28.8022 12.3435C30.3191 12.3435 31.5484 13.5738 31.5484 15.0866C31.5484 16.5991 30.319 17.8298 28.8022 17.8298C27.2898 17.8298 26.0604 16.599 26.0604 15.0866C26.0604 13.5738 27.2898 12.3435 28.8022 12.3435ZM40.4152 1.875C41.9277 1.875 43.157 3.10575 43.157 4.61859C43.157 6.13097 41.9276 7.36172 40.4152 7.36172C38.8983 7.36172 37.669 6.13097 37.669 4.61859C37.6689 3.10575 38.8983 1.875 40.4152 1.875ZM5.58522 24.3231C3.04234 24.3231 0.968313 22.2512 0.968313 19.7048C0.968313 17.158 3.04234 15.0866 5.58522 15.0866C6.60672 15.0866 7.54872 15.4196 8.31822 15.9821L13.2137 11.5673C12.8112 10.8828 12.5768 10.0863 12.5768 9.23681C12.5768 6.69 14.6508 4.61859 17.1981 4.61859C19.7409 4.61859 21.815 6.69 21.815 9.23681C21.815 9.65072 21.7576 10.0523 21.6558 10.4344L25.1893 12.2157C26.0384 11.1521 27.3429 10.4684 28.8023 10.4684C29.8238 10.4684 30.7702 10.8014 31.5353 11.3634L36.4263 6.94913C36.0284 6.26409 35.794 5.46806 35.794 4.61859C35.7939 2.07178 37.8679 0 40.4152 0C42.9581 0 45.0321 2.07178 45.0321 4.61859C45.0321 7.16494 42.9581 9.23681 40.4152 9.23681C39.3937 9.23681 38.4473 8.90334 37.6822 8.34131L32.7868 12.7561C33.1893 13.4407 33.4236 14.2367 33.4236 15.0866C33.4236 17.633 31.3496 19.7048 28.8023 19.7048C26.2595 19.7048 24.1854 17.6331 24.1854 15.0866C24.1854 14.6722 24.2429 14.2712 24.3446 13.8886L20.8112 12.1073C19.9621 13.1713 18.6575 13.855 17.1981 13.855C16.1766 13.855 15.2302 13.5216 14.4651 12.9595L9.57409 17.3743C9.97216 18.0589 10.2064 18.8554 10.2064 19.7048C10.2065 22.2512 8.1325 24.3231 5.58522 24.3231V24.3231Z" fill="#024430"/>
</svg>
