<svg width="41" height="56" viewBox="0 0 41 56" fill="none" xmlns="http://www.w3.org/2000/svg">
<mask id="mask0_1279_379" style="mask-type:luminance" maskUnits="userSpaceOnUse" x="1" y="0" width="40" height="56">
<path d="M40.2213 0.472656H1.00781V55.4545H40.2213V0.472656Z" fill="white"/>
</mask>
<g mask="url(#mask0_1279_379)">
<path d="M40.2214 11.2783L36.6488 51.0327L20.5906 55.455L4.57648 51.0389L1.00781 11.2783H40.2214Z" fill="#0070BA"/>
<path d="M33.5931 48.5011L36.6459 14.5293H20.6172V52.0746L33.5931 48.5011Z" fill="#28A9E1"/>
<path d="M9.1875 29.2754L9.62749 34.1518H20.6132V29.2754H9.1875Z" fill="#EBEBEB"/>
<path d="M20.6144 19.4053H20.5975H8.30469L8.75095 24.2819H20.6144V19.4053Z" fill="#EBEBEB"/>
<path d="M20.6179 47.0134V41.9399L20.5964 41.9455L15.129 40.4791L14.7796 36.5898H12.1229H9.85156L10.5394 44.2466L20.5953 47.0196L20.6179 47.0134Z" fill="#EBEBEB"/>
<path d="M10.2344 0.472656H16.1802V2.94254H12.7208V5.41243H16.1802V7.88232H10.2344V0.472656Z" fill="black"/>
<path d="M17.375 0.472656H23.3208V2.62038H19.8614V3.04992H23.3208V7.98971H17.375V5.73459H20.8344V5.30504H17.375V0.472656Z" fill="black"/>
<path d="M24.5078 0.472656H30.4535V2.62038H26.9942V3.04992H30.4535V7.98971H24.5078V5.73459H27.9672V5.30504H24.5078V0.472656Z" fill="black"/>
<path d="M26.6388 34.1518L26.069 40.4762L20.5938 41.9442V47.0176L30.6577 44.2469L30.7315 43.423L31.8851 30.5848L32.0049 29.2754L32.8912 19.4053H20.5938V24.2819H27.5112L27.0645 29.2754H20.5938V34.1518H26.6388Z" fill="white"/>
</g>
</svg>
