<svg width="40" height="42" viewBox="0 0 40 42" fill="none" xmlns="http://www.w3.org/2000/svg">
<path fill-rule="evenodd" clip-rule="evenodd" d="M1.58008 26.0472H7.94693V40.8515H1.58008V26.0472ZM21.8989 22.2384H28.2619V40.8515H21.8989V22.2384ZM32.0525 12.8386H38.4154V40.8515H32.0525V12.8386ZM18.1005 40.8515H11.7375V17.963H18.1005V40.8515Z" fill="#06D6A0"/>
<path fill-rule="evenodd" clip-rule="evenodd" d="M7.45475 40.3593H2.07227V26.5393H7.45475V40.3593ZM8.27506 24.8987H1.25195C0.799223 24.8987 0.431641 25.266 0.431641 25.719V41.1796C0.431641 41.6327 0.799223 42.0003 1.25195 42.0003H8.27506C8.72779 42.0003 9.09152 41.6327 9.09152 41.1796V25.719C9.0916 25.266 8.72779 24.8987 8.27506 24.8987ZM27.7697 40.3593H22.3911V22.7306H27.7697V40.3593ZM28.59 21.0899H21.5669C21.1142 21.0899 20.7466 21.4575 20.7466 21.9102V41.1796C20.7466 41.6327 21.1142 42.0003 21.5669 42.0003H28.59C29.0427 42.0003 29.4103 41.6327 29.4103 41.1796V21.9103C29.4103 21.4576 29.0427 21.0899 28.59 21.0899V21.0899ZM37.9232 40.3593H32.5446V13.3308H37.9232V40.3593ZM38.7436 11.6901H31.7244C31.2716 11.6901 30.904 12.0573 30.904 12.5104V41.1796C30.904 41.6327 31.2716 42.0003 31.7244 42.0003H38.7436C39.1963 42.0003 39.5639 41.6327 39.5639 41.1796V12.5105C39.5639 12.0574 39.1963 11.6901 38.7436 11.6901V11.6901ZM17.6083 40.3593H12.2297V18.4552H17.6083V40.3593ZM18.4286 16.8141H11.4094C10.9567 16.8141 10.5891 17.1817 10.5891 17.6344V41.1796C10.5891 41.6327 10.9567 42.0003 11.4094 42.0003H18.4286C18.8852 42.0003 19.249 41.6327 19.249 41.1796V17.6345C19.249 17.1818 18.8853 16.8141 18.4286 16.8141V16.8141ZM4.76158 14.8415C6.08884 14.8415 7.16452 15.918 7.16452 17.2417C7.16452 18.5651 6.08876 19.642 4.76158 19.642C3.43817 19.642 2.36249 18.5651 2.36249 17.2417C2.36249 15.918 3.43825 14.8415 4.76158 14.8415ZM14.9229 5.68157C16.2424 5.68157 17.322 6.75847 17.322 8.08221C17.322 9.40562 16.2423 10.4824 14.9229 10.4824C13.5956 10.4824 12.5199 9.40554 12.5199 8.08221C12.5199 6.75847 13.5957 5.68157 14.9229 5.68157ZM25.0765 10.8006C26.4037 10.8006 27.4794 11.8771 27.4794 13.2008C27.4794 14.5242 26.4036 15.601 25.0765 15.601C23.753 15.601 22.6774 14.5241 22.6774 13.2008C22.6774 11.8771 23.7531 10.8006 25.0765 10.8006ZM35.2378 1.64062C36.5612 1.64062 37.6369 2.71753 37.6369 4.04127C37.6369 5.3646 36.5612 6.4415 35.2378 6.4415C33.9106 6.4415 32.8349 5.3646 32.8349 4.04127C32.8348 2.71753 33.9106 1.64062 35.2378 1.64062ZM4.76158 21.2827C2.53656 21.2827 0.721785 19.4698 0.721785 17.2417C0.721785 15.0133 2.53656 13.2008 4.76158 13.2008C5.65539 13.2008 6.47964 13.4922 7.15295 13.9844L11.4365 10.1214C11.0843 9.52243 10.8792 8.8255 10.8792 8.08221C10.8792 5.85375 12.694 4.04127 14.9229 4.04127C17.1478 4.04127 18.9627 5.85375 18.9627 8.08221C18.9627 8.44438 18.9124 8.79572 18.8234 9.13008L21.9151 10.6888C22.6581 9.75811 23.7996 9.15985 25.0765 9.15985C25.9703 9.15985 26.7985 9.45123 27.4679 9.94301L31.7476 6.08048C31.3993 5.48108 31.1943 4.78455 31.1943 4.04127C31.1942 1.81281 33.009 0 35.2378 0C37.4628 0 39.2776 1.81281 39.2776 4.04127C39.2776 6.26932 37.4628 8.08221 35.2378 8.08221C34.344 8.08221 33.5159 7.79042 32.8465 7.29865L28.5629 11.1616C28.9151 11.7606 29.1202 12.4571 29.1202 13.2008C29.1202 15.4288 27.3054 17.2417 25.0765 17.2417C22.8516 17.2417 21.0367 15.4289 21.0367 13.2008C21.0367 12.8382 21.087 12.4873 21.176 12.1525L18.0843 10.5939C17.3413 11.5249 16.1999 12.1232 14.9229 12.1232C14.0291 12.1232 13.201 11.8314 12.5315 11.3396L8.25184 15.2025C8.60015 15.8015 8.80515 16.4985 8.80515 17.2417C8.80523 19.4698 6.99045 21.2827 4.76158 21.2827V21.2827Z" fill="#024430"/>
</svg>
