<svg width="42" height="42" viewBox="0 0 42 42" fill="none" xmlns="http://www.w3.org/2000/svg">
<g clip-path="url(#clip0_109_28048)">
<path d="M33.3572 23.9063L25.9297 20.7983L22.0091 27.6814C21.5768 28.4408 20.423 28.4408 19.991 27.6814L16.0707 20.7983L8.72266 23.5656C7.94832 23.8567 7.45117 24.5003 7.45117 25.2095V41.3227H34.5479V25.5191C34.5479 24.8364 34.0865 24.2119 33.3572 23.9063Z" fill="white"/>
<path d="M34.5476 41.9999H7.45086C7.07709 41.9999 6.77344 41.6963 6.77344 41.3225V25.2093C6.77344 24.217 7.44424 23.3223 8.48253 22.9313L15.8313 20.1641C16.1448 20.0467 16.4945 20.174 16.6589 20.4628L20.5792 27.3461C20.6992 27.5575 20.9314 27.5737 20.9999 27.5737C21.0684 27.5737 21.2999 27.5575 21.42 27.3468L25.3416 20.4634C25.511 20.1654 25.8794 20.0414 26.1917 20.174L33.6182 23.2816C34.5943 23.6901 35.2257 24.5686 35.2257 25.5189V41.3225C35.2251 41.6963 34.9224 41.9999 34.5476 41.9999ZM8.12828 40.6451H33.8702V25.5189C33.8702 25.1098 33.5735 24.731 33.0946 24.5313L26.2215 21.6549L22.5965 28.0173C22.2721 28.5878 21.6747 28.9285 20.9999 28.9292C20.3245 28.9292 19.7271 28.5885 19.402 28.0173L15.7674 21.6367L8.96017 24.2002C8.45475 24.3897 8.12828 24.7859 8.12828 25.2093V40.6451Z" fill="#024430"/>
<path d="M9.48438 39.2903V25.4568L15.1644 23.3127L18.2257 28.6874C18.7873 29.6715 19.8501 30.2834 21.0012 30.2834C22.1523 30.2834 23.2157 29.6715 23.7767 28.6874L26.8072 23.3677L32.5166 25.7575V39.2903H9.48438Z" fill="#06D6A0"/>
<path d="M13.0938 10.6301V8.142C13.0938 4.03151 16.6462 0.67749 20.9998 0.67749C25.3535 0.67749 28.9059 4.03151 28.9059 8.142V10.6301C28.9059 14.7415 25.3544 18.0946 20.9998 18.0946C16.6452 18.0946 13.0938 14.7415 13.0938 10.6301Z" fill="white"/>
<path d="M21.0008 18.7719C16.2685 18.7719 12.418 15.1192 12.418 10.63V8.14193C12.418 3.65271 16.2685 0 21.0008 0C25.7332 0 29.5843 3.65271 29.5843 8.14193V10.63C29.5843 15.1199 25.7332 18.7719 21.0008 18.7719ZM21.0008 1.35484C17.015 1.35484 13.7728 4.39992 13.7728 8.14193V10.63C13.7728 14.372 17.0157 17.4171 21.0008 17.4171C24.986 17.4171 28.2295 14.372 28.2295 10.63V8.14193C28.2295 4.39992 24.9866 1.35484 21.0008 1.35484Z" fill="#024430"/>
</g>
<defs>
<clipPath id="clip0_109_28048">
<rect width="42" height="42" fill="white"/>
</clipPath>
</defs>
</svg>
