<svg width="55" height="55" viewBox="0 0 55 55" fill="none" xmlns="http://www.w3.org/2000/svg">
<path fill-rule="evenodd" clip-rule="evenodd" d="M29.9458 6.04528L25.4982 3.47783C25.3606 3.39834 25.1905 3.39812 25.0529 3.47772C24.9154 3.55721 24.8299 3.70449 24.8299 3.86336V8.99826C24.8299 9.15701 24.9152 9.30441 25.0527 9.38379C25.1204 9.42286 25.1972 9.44335 25.2754 9.44335C25.3537 9.44335 25.4304 9.42297 25.4982 9.38379L29.9458 6.81634C30.0833 6.73696 30.1685 6.58967 30.1685 6.43081C30.1685 6.27194 30.0833 6.12454 29.9458 6.04528V6.04528ZM49.5532 43.5766C49.6809 43.3678 49.6142 43.0921 49.4056 42.9645L47.3646 41.7156C47.2272 41.6315 47.054 41.6282 46.9133 41.7066C46.7731 41.7848 46.6864 41.9346 46.6864 42.0949V47.2073L46.2258 47.0186C45.9647 46.9116 45.687 46.8565 45.4048 46.8565C44.2068 46.8565 43.2331 47.832 43.2331 49.0297C43.2331 50.2267 44.2076 51.2019 45.4048 51.2019C46.6021 51.2019 47.5769 50.227 47.5769 49.0297V42.8898L48.9401 43.7243C49.1492 43.8522 49.4252 43.7857 49.5532 43.5766ZM24.1585 35.8916L21.469 37.4447C19.8103 38.4026 17.6756 37.8297 16.7182 36.171C16.2557 35.3698 16.1358 34.4266 16.3753 33.5335C16.6155 32.6379 17.188 31.8841 17.9915 31.4202L20.681 29.8676L24.1585 35.8916ZM24.6469 36.6385L22.9563 37.6142L27.6224 43.8583L29.0508 42.5632L24.6469 36.6385ZM29.0833 20.3704C28.8995 20.0521 28.8522 19.6762 28.9473 19.3214C29.0425 18.9658 29.2707 18.6653 29.5894 18.4811C29.7988 18.3601 30.0345 18.2969 30.2762 18.2969C30.3987 18.2969 30.5202 18.3133 30.6386 18.3449C30.9948 18.4402 31.2951 18.6677 31.4795 18.9872L38.9806 31.9798C39.3615 32.6395 39.1342 33.4886 38.4742 33.8689C38.1559 34.0523 37.78 34.1011 37.4251 34.0058C37.0694 33.9103 36.7686 33.6826 36.5845 33.3635L29.0833 20.3704ZM21.2889 11.635C20.9709 11.635 20.7087 11.3722 20.7087 11.0543V1.80713C20.7087 1.48917 20.9708 1.22644 21.2889 1.22644H33.7095C34.0275 1.22644 34.2908 1.48917 34.2908 1.80713V11.0543C34.2908 11.3722 34.0275 11.635 33.7095 11.635H21.2889ZM46.4257 39.0782C50.4768 39.0782 53.773 42.3744 53.773 46.4255C53.773 50.4767 50.4768 53.7734 46.4257 53.7734C42.3737 53.7734 39.0778 50.4774 39.0778 46.4255C39.0778 42.3736 42.3738 39.0782 46.4257 39.0782ZM11.765 53.7735H1.22656V44.759H5.34804C5.59385 44.759 5.79302 44.5597 5.79302 44.314V40.1914H11.765V53.7735Z" fill="#06D6A0"/>
<path fill-rule="evenodd" clip-rule="evenodd" d="M46.3527 49.0297C46.3527 48.5064 45.9274 48.081 45.4051 48.081C44.8829 48.081 44.4581 48.5064 44.4581 49.0297C44.4581 49.552 44.8829 49.9774 45.4051 49.9774C45.9274 49.9774 46.3527 49.552 46.3527 49.0297ZM49.8385 43.7509C49.6133 44.1181 49.1335 44.2338 48.7662 44.0092L47.9113 43.4858V49.0297C47.9113 50.4111 46.7872 51.5359 45.4052 51.5359C44.0239 51.5359 42.8996 50.4111 42.8996 49.0297C42.8996 47.6467 44.0238 46.5225 45.4052 46.5225C45.7404 46.5225 46.0601 46.5895 46.3529 46.7096V42.0949C46.3529 41.8136 46.5053 41.5527 46.751 41.4149C46.9972 41.2782 47.2989 41.2834 47.5394 41.4306L49.5804 42.6795C49.9474 42.9042 50.0622 43.3842 49.8385 43.7509ZM53.4396 46.4257C53.4396 50.2933 50.2922 53.4396 46.4262 53.4396C42.5586 53.4396 39.4123 50.2933 39.4123 46.4257C39.4123 42.558 42.5587 39.4123 46.4262 39.4123C50.2922 39.4122 53.4396 42.558 53.4396 46.4257ZM37.9517 47.7295C29.9042 51.8942 19.9866 50.8345 12.9899 45.0432V39.746C12.9899 39.3154 12.64 38.967 12.2104 38.967H7.82888C4.38505 33.0741 3.77843 26.0298 6.17766 19.5664C8.49417 13.3251 13.3105 8.50152 19.4847 6.18656V11.0543C19.4847 12.0497 20.2941 12.8595 21.2893 12.8595H33.71C34.7054 12.8595 35.5157 12.0497 35.5157 11.0543V6.18656C41.5065 8.43606 46.2559 13.0858 48.6394 19.0866C51.0942 25.266 50.7558 32.1091 47.73 37.9527C47.3046 37.8867 46.8693 37.8537 46.4261 37.8537C41.6993 37.8537 37.8537 41.6989 37.8537 46.4256C37.8537 46.8689 37.8872 47.3042 37.9517 47.7295ZM11.4315 40.5254H6.12734V44.314C6.12734 44.7435 5.77899 45.093 5.34837 45.093H1.56088V53.4396H11.4313V40.5254H11.4315ZM2.66314 43.5345H4.56886V41.6277L2.66314 43.5345ZM21.0432 11.0543C21.0432 11.1879 21.1559 11.301 21.2894 11.301H33.7101C33.8437 11.301 33.9574 11.1879 33.9574 11.0543V1.80714C33.9574 1.67354 33.8437 1.56044 33.7101 1.56044H21.2893C21.1557 1.56044 21.0431 1.67366 21.0431 1.80714V11.0543H21.0432ZM54.9985 46.4257C54.9985 51.153 51.1518 54.998 46.4261 54.998C42.6988 54.998 39.5207 52.6066 38.3425 49.278C34.9368 50.9748 31.2322 51.8098 27.539 51.8098C22.379 51.8098 17.2468 50.1853 12.9899 47.0239V54.2185C12.9899 54.6497 12.64 54.998 12.2104 54.998H0.781473C0.350855 54.998 0.00195312 54.6497 0.00195312 54.2185V44.314C0.00195312 44.107 0.083668 43.9085 0.230398 43.7629L4.79741 39.1949C4.94303 39.0493 5.14108 38.967 5.34849 38.967H6.0405C2.7522 32.8347 2.2588 25.6433 4.7157 19.0238C7.25954 12.1718 12.6249 6.91799 19.4848 4.52867V1.80714C19.4848 0.811754 20.2942 0.00195312 21.2894 0.00195312H33.7101C34.7055 0.00195312 35.5158 0.811865 35.5158 1.80714V4.52855C42.1767 6.84975 47.4693 11.9175 50.0875 18.5114C52.6638 24.9982 52.3589 32.1704 49.2776 38.3436C52.6061 39.5212 54.9985 42.6984 54.9985 46.4257ZM26.0554 7.64819L28.165 6.43071L26.0554 5.21322V7.64819ZM24.4964 8.99816C24.4964 9.27625 24.6457 9.53353 24.8861 9.6728C25.0077 9.7425 25.1423 9.77712 25.2759 9.77712C25.4105 9.77712 25.5452 9.7425 25.6656 9.6728L30.1132 7.10536C30.3537 6.96653 30.503 6.70936 30.503 6.4306C30.503 6.15239 30.3537 5.89522 30.1132 5.75584L25.6656 3.18839C25.4252 3.04912 25.1276 3.04912 24.8861 3.18839C24.6457 3.32777 24.4964 3.58494 24.4964 3.86315V8.99816ZM38.6919 32.1468L31.1907 19.1542C31.0519 18.9132 30.8256 18.7404 30.5527 18.6676C30.4616 18.643 30.3694 18.6309 30.2766 18.6309C30.0954 18.6309 29.9173 18.6776 29.757 18.7703C29.5165 18.9091 29.3436 19.1359 29.2702 19.4079C29.198 19.6798 29.2336 19.9626 29.3729 20.2037L36.8739 33.1969C37.0133 33.4374 37.2401 33.6097 37.512 33.6835C37.7844 33.7557 38.0673 33.7191 38.3077 33.5797C38.8093 33.2915 38.9816 32.6477 38.6919 32.1468V32.1468ZM28.6024 42.5193L24.5566 37.0764L23.4492 37.7156L27.6704 43.3644L28.6024 42.5193ZM21.3025 37.1555L23.7028 35.7693L20.5591 30.3238L18.1588 31.7094C17.4354 32.127 16.9163 32.8059 16.6983 33.6199C16.4799 34.4334 16.5904 35.2805 17.0079 36.004C17.8749 37.5059 19.8011 38.0214 21.3025 37.1555V37.1555ZM22.0584 29.8026L24.9039 34.7321C28.2771 33.2977 31.657 32.4963 34.6251 32.4171L28.9229 22.5409C27.3713 25.0722 24.9862 27.5977 22.0584 29.8026V29.8026ZM35.6414 23.7464L36.9406 25.9958C37.3749 25.5794 37.4896 24.9052 37.1747 24.3609C36.861 23.817 36.2193 23.5781 35.6414 23.7464V23.7464ZM39.0874 34.9302C40.3331 34.2109 40.7606 32.6132 40.0423 31.3674L37.7311 27.3652C38.906 26.5029 39.2696 24.8722 38.5252 23.5814C37.7803 22.2911 36.1846 21.7909 34.8513 22.3776L32.5412 18.3748C32.1938 17.7734 31.6307 17.3428 30.9571 17.162C30.2823 16.9807 29.5798 17.0729 28.979 17.4202C28.3766 17.7676 27.9454 18.3302 27.7652 19.0044C27.5849 19.6786 27.6761 20.3811 28.0235 20.9825V20.9835C26.6164 23.5829 24.2003 26.2352 21.1432 28.5401C21.1122 28.527 21.0797 28.515 21.0468 28.5066C20.8461 28.4526 20.6334 28.4809 20.4543 28.5842L17.3792 30.3596C16.2948 30.9856 15.519 32.0003 15.1926 33.2167C14.8667 34.4325 15.0323 35.6992 15.6582 36.7837C16.5278 38.2914 18.112 39.1337 19.738 39.1337C20.5353 39.1337 21.3436 38.9315 22.0818 38.505L22.0897 38.5003L26.4294 44.3073C26.6886 44.6547 27.0846 44.8773 27.5168 44.9197C27.5671 44.924 27.6169 44.9265 27.6661 44.9265C28.0522 44.9265 28.4278 44.7825 28.7159 44.5211L29.65 43.674C30.2456 43.1329 30.3315 42.2355 29.848 41.5865L25.7488 36.0681C29.2037 34.6307 32.6291 33.8972 35.5261 33.9774C35.8729 34.5772 36.4355 35.0083 37.1086 35.1885C37.3349 35.2482 37.5644 35.2786 37.7912 35.2786C38.2424 35.2785 38.6877 35.1606 39.0874 34.9302V34.9302ZM40.0969 26.8134C40.0969 27.2435 40.4458 27.5924 40.8764 27.5924H43.6429C44.0725 27.5924 44.4224 27.2435 44.4224 26.8134C44.4224 26.3828 44.0725 26.0339 43.6429 26.0339H40.8764C40.4458 26.034 40.0969 26.3828 40.0969 26.8134ZM36.5121 20.6042C36.6347 20.6749 36.7694 20.7085 36.9009 20.7085C37.1702 20.7085 37.4331 20.5692 37.5766 20.3193L38.9601 17.9238C39.1754 17.5508 39.0471 17.0746 38.6741 16.8593C38.3027 16.6439 37.8249 16.7712 37.6102 17.1443L36.2271 19.5398C36.0114 19.9122 36.1392 20.3889 36.5121 20.6042ZM39.7176 22.8929C39.8622 23.1427 40.1241 23.2827 40.3934 23.2827C40.5259 23.2827 40.659 23.2492 40.7816 23.1779L43.053 21.8672C43.4259 21.6519 43.5538 21.1752 43.338 20.8023C43.1232 20.4298 42.6465 20.3025 42.2735 20.5173L40.0026 21.8285C39.6306 22.0438 39.5028 22.5205 39.7176 22.8929Z" fill="#024430"/>
</svg>
