<svg width="40" height="28" viewBox="0 0 40 28" fill="none" xmlns="http://www.w3.org/2000/svg">
<g clip-path="url(#clip0_497_31636)">
<path d="M32.3399 18.2537C33.2019 20.4288 34.5644 22.5822 36.389 24.6547C36.9696 25.3142 37.0433 26.2556 36.5722 26.9971C36.2095 27.5675 35.5994 27.8924 34.9534 27.8924C34.7714 27.8924 34.5862 27.8668 34.4035 27.8136C30.5365 26.6837 21.5163 22.6706 21.274 9.84297C21.1805 4.88968 24.8033 0.634323 29.5207 0.154946C32.1208 -0.105258 34.7221 0.739415 36.6498 2.48194C38.5801 4.22639 39.6875 6.7168 39.6875 9.31553C39.6875 13.651 36.6101 17.4424 32.3399 18.2537ZM34.89 4.42954C33.664 3.32147 32.1208 2.73123 30.4846 2.73123C30.2533 2.73123 30.02 2.74276 29.7861 2.76711C26.417 3.10869 23.8311 6.19512 23.899 9.79296C24.0663 18.669 28.8722 22.6648 32.852 24.4522C31.5927 22.7488 30.6032 20.9966 29.8995 19.2208C29.6252 18.5293 29.6707 17.7564 30.0238 17.1002C30.3936 16.4119 31.0531 15.9235 31.8317 15.7601C34.863 15.1263 37.0625 12.4154 37.0625 9.31551C37.0625 7.45829 36.2704 5.67732 34.89 4.42954Z" fill="#024430"/>
<path d="M15.6126 26.9972C15.2499 27.5675 14.6398 27.8925 13.9938 27.8925C13.8118 27.8925 13.6272 27.8668 13.4439 27.8136C9.57691 26.6838 0.557322 22.6706 0.315073 9.84302V9.84237C0.222792 4.88909 3.84498 0.634359 8.56306 0.154995C11.1663 -0.109684 13.7631 0.738821 15.6908 2.48199C17.6211 4.22644 18.7285 6.71685 18.7285 9.31558C18.7285 13.6511 15.6511 17.4424 11.3816 18.2538C12.2442 20.4308 13.6067 22.5841 15.4306 24.6554C16.0112 25.3155 16.0843 26.2563 15.6126 26.9972ZM8.94119 19.2221C8.6669 18.5306 8.71176 17.7577 9.06424 17.1015C9.43466 16.4126 10.0935 15.9242 10.8728 15.7602C13.9041 15.1263 16.1035 12.4155 16.1035 9.31558C16.1035 7.45769 15.3114 5.67736 13.931 4.42958C12.7057 3.32152 11.1624 2.73127 9.52566 2.73127C9.29495 2.73127 9.06166 2.74281 8.82711 2.76716C5.45869 3.10874 2.87215 6.19517 2.94009 9.79301C3.10671 18.6697 7.91323 22.6649 11.893 24.4523C10.6344 22.7501 9.64613 20.998 8.94119 19.2221Z" fill="#024430"/>
</g>
<defs>
<clipPath id="clip0_497_31636">
<rect width="40" height="28" fill="white" transform="matrix(-1 0 0 1 40 0)"/>
</clipPath>
</defs>
</svg>
