<svg width="110" height="44" viewBox="0 0 110 44" fill="none" xmlns="http://www.w3.org/2000/svg">
<g clip-path="url(#clip0_1280_603)">
<mask id="mask0_1280_603" style="mask-type:luminance" maskUnits="userSpaceOnUse" x="0" y="0" width="110" height="44">
<path d="M109.772 0.37207H0.515625V43.5721H109.772V0.37207Z" fill="white"/>
</mask>
<g mask="url(#mask0_1280_603)">
<path d="M32.1908 9.55224C33.2211 9.50264 34.2532 9.5048 35.2833 9.5588C36.5586 13.3538 37.9362 17.1193 39.2623 20.8938C38.3425 20.8938 37.4186 20.8938 36.498 20.8938C36.282 20.2207 36.0485 19.5518 35.825 18.8787C34.3835 18.8862 32.9419 18.8787 31.5004 18.9026C31.301 19.56 31.0983 20.2174 30.898 20.8749C29.9719 20.888 29.0449 20.8935 28.1172 20.8914C29.4706 17.1119 30.8781 13.3473 32.1908 9.55224ZM33.6291 11.5837C33.2967 13.2766 32.6744 14.8996 32.1676 16.5498C33.1588 16.5498 34.1466 16.5498 35.1379 16.5432C34.651 14.8832 34.0552 13.2569 33.6291 11.5837Z" fill="#868686"/>
<path d="M41.4073 10.3976C43.2077 9.20926 45.5316 9.39007 47.5415 9.88559C47.5348 10.635 47.5327 11.3848 47.5348 12.1349C46.2694 11.6417 44.7806 11.1873 43.4778 11.7995C42.9028 12.0239 42.7408 12.8235 43.2144 13.2286C44.3477 14.2057 45.972 14.3792 47.0779 15.4006C48.5327 16.6621 48.31 19.3197 46.5794 20.2434C44.6302 21.2337 42.2888 21.0168 40.2648 20.3536C40.2648 19.554 40.2648 18.7511 40.2549 17.9506C41.5601 18.664 43.1628 19.2557 44.6326 18.6903C45.3198 18.5399 45.5798 17.5693 45.0256 17.1239C43.8882 16.1304 42.2406 15.9734 41.1306 14.9355C39.8237 13.7587 39.9491 11.3993 41.4073 10.3976Z" fill="#868686"/>
<path d="M49.9486 9.51912C52.0598 9.6432 54.2691 9.1904 56.313 9.90704C58.671 10.7905 58.8886 14.325 57.0334 15.8141C55.8053 16.9186 54.0489 16.9251 52.4927 16.8947C52.496 18.2304 52.496 19.5647 52.4927 20.8977H49.9486C49.9412 17.1026 49.9486 13.3109 49.9486 9.51912ZM52.4927 11.5169C52.496 12.6411 52.496 13.7642 52.4927 14.8862C53.3892 14.8362 54.4718 15.0432 55.1656 14.3274C55.7646 13.6042 55.7073 12.273 54.8108 11.7938C54.1029 11.4035 53.2612 11.5638 52.4927 11.5169Z" fill="#868686"/>
<path d="M61.7451 9.52253C62.6723 9.52253 63.6029 9.52254 64.5301 9.5127C66.2317 12.1194 67.9441 14.713 69.605 17.3436C69.5377 14.7369 69.5817 12.1293 69.571 9.51926H72.0244C72.0311 13.3143 72.0311 17.1072 72.0244 20.8978C71.1512 20.8978 70.2747 20.8978 69.4023 20.888C67.67 18.204 65.8969 15.5463 64.1678 12.8557C64.2285 15.5365 64.1878 18.2171 64.1986 20.8978H61.7451C61.7412 17.1061 61.7412 13.3143 61.7451 9.52253Z" fill="#868686"/>
<path d="M74.6507 9.52256C76.8402 9.51592 79.0282 9.51592 81.2143 9.52256V11.5269C79.8745 11.5236 78.5358 11.5261 77.1981 11.5342C77.1981 12.4213 77.1981 13.308 77.1981 14.1944C78.4399 14.2043 79.6818 14.2076 80.9239 14.2043C80.9239 14.8743 80.9239 15.5438 80.9239 16.2127C79.6774 16.2127 78.4402 16.2127 77.1981 16.2127V18.8794C78.6197 18.8869 80.0404 18.8869 81.4642 18.8869V20.8945C79.1946 20.8945 76.9239 20.8945 74.6573 20.8945C74.6484 17.1027 74.6462 13.3121 74.6507 9.52256Z" fill="#868686"/>
<path d="M82.3877 9.52256C85.403 9.51592 88.4166 9.51592 91.4287 9.52256V11.5302C90.3489 11.5302 89.2683 11.5302 88.1837 11.5302C88.1805 14.653 88.1805 17.7758 88.1837 20.8986C87.3239 20.8986 86.4641 20.8986 85.6076 20.8986C85.6108 17.7758 85.6108 14.6543 85.6076 11.5342C84.5278 11.5342 83.4594 11.5342 82.3828 11.5277C82.3836 10.8579 82.3877 10.1882 82.3877 9.52256Z" fill="#868686"/>
<path d="M49.0401 23.9799C49.9299 23.6347 51.1346 24.2338 51.0673 25.261C51.1346 26.5759 49.1722 27.0789 48.4485 26.0681C47.8428 25.4156 48.2117 24.2502 49.0401 23.9799Z" fill="#FF9656"/>
<path d="M53.0781 23.9053C53.9031 23.9053 54.729 23.9053 55.5582 23.9053C55.5649 27.9211 55.5649 31.9372 55.5582 35.9536H53.0781C53.0814 31.9399 53.0814 27.9238 53.0781 23.9053Z" fill="#FF9656"/>
<path d="M82.8535 23.9053C83.6793 23.9053 84.5051 23.9053 85.3333 23.9053C85.3414 27.9214 85.3333 31.9374 85.3333 35.9536C84.5091 35.9536 83.6833 35.9536 82.8567 35.9536C82.851 31.9383 82.8502 27.9222 82.8535 23.9053Z" fill="#FF9656"/>
<path d="M28.2891 24.5821C30.1494 24.6388 32.0279 24.4342 33.8815 24.6988C35.1436 24.8993 36.409 25.8567 36.3741 27.2258C36.5403 28.5506 35.3696 29.4307 34.3211 29.9797C35.6064 30.2138 36.8926 31.205 36.8277 32.6094C36.9358 34.2661 35.4984 35.618 33.9198 35.8456C32.0554 36.097 30.1643 35.8925 28.2932 35.9524C28.2938 32.1612 28.2924 28.3711 28.2891 24.5821ZM30.8382 26.5873V29.2778C31.6573 29.2113 32.6552 29.4652 33.295 28.8127C33.7544 28.4108 33.7444 27.6983 33.5143 27.1798C32.8529 26.3991 31.7396 26.6234 30.8382 26.5873ZM30.8382 31.2715C30.8382 32.1615 30.8382 33.0523 30.8382 33.9423C31.7787 33.8922 32.8787 34.1766 33.6705 33.5314C34.2621 33.1098 34.2994 32.1196 33.707 31.6841C32.8936 31.0471 31.7911 31.3282 30.8382 31.2715Z" fill="#FF9656"/>
<path d="M96.9814 25.9471C97.812 25.7095 98.6435 25.4753 99.479 25.251V27.5799L101.288 27.6005C101.288 28.1527 101.288 28.705 101.288 29.2572C100.687 29.2638 100.085 29.2671 99.4855 29.2703C99.5332 30.6559 99.3472 32.0644 99.6036 33.4303C99.8923 34.2135 100.734 33.8617 101.339 33.7516C101.194 34.3843 101.57 35.3508 100.822 35.6795C99.5122 36.3953 97.4416 35.8233 97.1205 34.2537C96.8228 32.6101 97.0428 30.9337 96.9846 29.2736C96.5454 29.2736 96.1094 29.2638 95.6719 29.2605C95.6719 28.705 95.6719 28.1527 95.6719 27.5972C96.1062 27.5906 96.5422 27.5873 96.9781 27.584C96.9749 27.0383 96.9749 26.4927 96.9814 25.9471Z" fill="#FF9656"/>
<path d="M40.9849 27.7779C42.4563 27.3792 44.1554 27.5313 45.3967 28.464C47.6608 30.2572 47.2072 34.4541 44.477 35.5783C42.6566 36.2949 40.2471 36.0977 38.931 34.5379C37.1854 32.3626 38.0379 28.4032 40.9849 27.7779ZM41.6496 29.7501C40.2728 30.4331 40.2288 32.5853 41.2342 33.592C42.4862 34.5667 44.5401 33.5961 44.3 31.9427C44.6489 30.4413 43.1135 28.9826 41.6479 29.7518L41.6496 29.7501Z" fill="#FF9656"/>
<path d="M48.3438 27.5945C49.1696 27.5945 49.9988 27.5879 50.8239 27.5879C50.8283 30.3787 50.8283 33.1687 50.8239 35.9578H48.3438C48.3482 33.1697 48.3482 30.382 48.3438 27.5945Z" fill="#FF9656"/>
<path d="M58.973 28.1128C60.5259 27.2089 62.7858 27.4201 63.9531 28.8393C64.8089 29.9003 64.7483 31.3252 64.7616 32.604C62.9752 32.6278 61.1889 32.5809 59.4059 32.6475C59.8728 34.7891 62.5698 34.5212 64.0786 33.6748C64.0719 34.2637 64.0686 34.8527 64.0686 35.4416C62.0995 36.1212 59.5579 36.3792 57.9577 34.7842C56.3068 32.862 56.6956 29.408 58.973 28.1128ZM59.3959 30.9176C60.4411 30.9472 61.483 30.944 62.5291 30.9069C62.3903 30.1813 62.092 29.1968 61.1515 29.2544C60.1437 29.1352 59.7208 30.1748 59.3959 30.9176Z" fill="#FF9656"/>
<path d="M66.2812 27.5911C67.1121 27.5911 67.9496 27.5911 68.7812 27.5911C68.758 28.0793 68.7339 28.5715 68.7073 29.0638C69.2756 28.0258 70.3549 27.4202 71.5563 27.5508C71.5596 28.2806 71.5663 29.009 71.5763 29.736C70.6931 29.5322 69.5664 29.445 69.1128 30.409C68.4331 32.1758 68.8967 34.1202 68.7613 35.9562C67.9355 35.9562 67.1104 35.9562 66.2846 35.9562C66.2846 33.167 66.2834 30.3786 66.2812 27.5911Z" fill="#FF9656"/>
<path d="M72.7031 27.5906H75.1832C75.1832 28.0624 75.1832 28.5308 75.1832 29.0025C75.715 28.5275 76.1985 27.9341 76.9122 27.7205C78.4585 27.1921 80.3603 28.0492 80.8306 29.632C81.5619 31.7473 81.1324 34.7485 78.8207 35.7092C77.5354 36.3214 76.0498 35.8464 75.1649 34.7986C75.1957 36.4118 75.1783 38.0249 75.1783 39.6381H72.7064C72.7064 35.6223 72.7053 31.6065 72.7031 27.5906ZM76.182 29.7487C74.4903 30.6091 74.7811 34.2299 77.0477 33.9521C78.5299 33.7113 78.7925 31.8574 78.4552 30.665C78.2284 29.7191 76.997 29.3074 76.182 29.7487Z" fill="#FF9656"/>
<path d="M87.8035 28.2404C89.3936 27.6914 91.2418 27.1926 92.8384 28.0028C93.8236 28.4606 94.2514 29.5643 94.3137 30.5792C94.4286 32.3699 94.3372 34.1639 94.3542 35.9578C93.5623 35.9578 92.7753 35.9578 91.9859 35.9578C91.9964 35.6571 92.0159 35.0539 92.0264 34.7498C91.1367 35.7704 89.6751 36.3334 88.3705 35.7639C86.5264 35.0949 86.5296 32.1266 88.2759 31.3327C89.4737 30.7739 90.8511 30.8512 92.1226 30.5504C91.6292 28.4516 89.0337 29.3416 87.7825 30.1987C87.7906 29.5462 87.797 28.8928 87.8035 28.2404ZM89.5328 32.5703C89.0022 33.1563 89.4211 33.9427 89.9388 34.3709C90.4734 34.2608 91.1164 34.2945 91.5014 33.8392C92.0498 33.3536 91.9422 32.5703 92.0401 31.9211C91.2111 32.0937 90.213 31.9852 89.5328 32.5703Z" fill="#FF9656"/>
<path d="M103.99 28.1031C105.543 27.209 107.789 27.4268 108.954 28.8427C109.811 29.9004 109.746 31.3253 109.769 32.6008C107.983 32.6344 106.197 32.5843 104.41 32.6476C104.864 34.7957 107.567 34.5212 109.076 33.6814C109.069 34.2706 109.069 34.8599 109.069 35.4483C107.094 36.1213 104.535 36.3925 102.942 34.7728C101.304 32.8383 101.706 29.3916 103.99 28.1031ZM104.406 30.9177C105.445 30.944 106.486 30.9393 107.529 30.9037C107.4 30.1781 107.085 29.1969 106.155 29.2544C105.141 29.1352 104.718 30.1674 104.403 30.9177H104.406Z" fill="#FF9656"/>
<path d="M22.0077 10.722V39.9548C22.0077 39.9548 14.9004 39.9318 11.8039 38.0351C11.8039 38.0351 11.2223 37.3949 15.0857 38.1945C18.9493 38.9941 16.6569 37.3259 14.0223 37.2577C11.3876 37.1895 4.29211 34.8803 2.42434 33.8514C0.556572 32.8225 -0.19203 31.8396 1.33342 31.5882C2.85888 31.3367 7.80496 30.7195 8.59097 30.5592C9.37699 30.399 10.7404 30.3078 11.6419 31.7023C12.5434 33.097 13.9766 34.0338 13.9766 33.9212C13.9766 33.8087 14.5581 34.1727 13.0751 31.5438C11.592 28.9148 12.9364 24.6859 14.623 21.0741C16.3096 17.4623 15.2478 14.0963 13.3086 11.7953C11.3694 9.49426 12.6613 9.12034 12.7536 9.0521C12.8458 8.98394 13.6318 8.68642 14.279 10.058C14.9262 11.4295 15.8045 10.8576 15.3882 10.1147C14.9719 9.37178 13.5861 6.92614 11.5862 4.87988C9.58631 2.83361 11.5862 1.39384 13.1814 1.66832C14.7767 1.94279 15.4688 4.91029 16.0678 6.52182C16.6669 8.13338 17.6855 10.6826 17.6855 10.6826L22.0077 10.722Z" fill="#868686"/>
<path d="M22.0573 8.40723H18.3359V9.41307H22.0573V8.40723Z" fill="#868686"/>
<path d="M23.4269 0.37207H22.375V43.5721H23.4269V0.37207Z" fill="#868686"/>
<path d="M57.3388 18.37C58.2154 17.8481 59.5689 18.5072 59.5281 19.5649C59.5481 20.7153 57.9786 21.3325 57.1253 20.6093C56.3102 20.0817 56.449 18.7398 57.3388 18.37Z" fill="#868686"/>
</g>
</g>
<defs>
<clipPath id="clip0_1280_603">
<rect width="110" height="44" fill="white"/>
</clipPath>
</defs>
</svg>
