<svg width="73" height="58" viewBox="0 0 73 58" fill="none" xmlns="http://www.w3.org/2000/svg">
<g clip-path="url(#clip0_1279_337)">
<mask id="mask0_1279_337" style="mask-type:luminance" maskUnits="userSpaceOnUse" x="0" y="0" width="73" height="58">
<path d="M72.1853 0.490234H0.492188V57.4357H72.1853V0.490234Z" fill="white"/>
</mask>
<g mask="url(#mask0_1279_337)">
<path fill-rule="evenodd" clip-rule="evenodd" d="M15.3828 0.490234C11.2921 0.490234 8.26571 4.06049 8.40097 7.93223C8.53092 11.6514 8.36218 16.4691 7.14565 20.3974C5.92546 24.3378 3.86247 26.8285 0.492188 27.1485V30.7774C3.8626 31.0975 5.92546 33.5881 7.14565 37.5285C8.36218 41.4568 8.53092 46.2745 8.40111 49.9939C8.26571 53.8654 11.2921 57.4357 15.3828 57.4357H57.2999C61.3906 57.4357 64.4169 53.8654 64.2817 49.9939C64.1517 46.2745 64.3204 41.4568 65.5369 37.5285C66.7572 33.5881 68.815 31.0975 72.1853 30.7774V27.1485C68.815 26.8285 66.7572 24.3378 65.5369 20.3974C64.3204 16.4691 64.1517 11.6514 64.2817 7.93223C64.4169 4.06049 61.3906 0.490234 57.2999 0.490234H15.3828ZM48.5071 35.5374C48.5071 40.8686 44.5162 44.1009 37.8934 44.1009H25.4029V13.8137H37.8287C43.3513 13.8137 46.9754 16.7942 46.9754 21.3698C46.9754 24.5811 44.5378 27.4565 41.4313 27.9603V28.1282C45.6595 28.5901 48.5071 31.5075 48.5071 35.5374ZM36.6638 17.6546H30.2352V26.701H35.65C39.835 26.701 42.1431 25.0218 42.1431 22.0204C42.1431 19.2079 40.1586 17.6546 36.6638 17.6546ZM30.2352 30.2901V40.2599H36.901C41.2588 40.2599 43.567 38.5178 43.567 35.2435C43.567 31.9692 41.1939 30.2901 36.6205 30.2901H30.2352Z" fill="#7F12FB"/>
</g>
</g>
<defs>
<clipPath id="clip0_1279_337">
<rect width="73" height="58" fill="white"/>
</clipPath>
</defs>
</svg>
