<svg width="62" height="62" viewBox="0 0 62 62" fill="none" xmlns="http://www.w3.org/2000/svg">
<path d="M2 36H8L9 38L13 37L15 56H12H11V58L2 59V36Z" fill="#AEE6B9"/>
<path d="M36.5238 13C33.7302 14.8464 27.5143 20.7547 25 29.6172C28.8413 33.6792 38.619 39.366 47 29.6172C46.3016 25.186 43.2286 15.6588 36.5238 13Z" fill="#AEE6B9"/>
<path d="M13.871 37.7762L13.6828 36.8351C13.5887 36.3645 13.2122 35.988 12.7416 36.0821L9.3534 36.1762L9.25928 35.7998C9.16516 35.3292 8.78869 34.9527 8.31811 34.9527H1.82399C1.25928 34.9527 0.882812 35.3292 0.882812 35.8939V60.1762C0.882812 60.741 1.44752 61.2115 2.01222 61.1174L11.8005 59.0468C12.271 58.9527 12.6475 58.4821 12.5534 58.0115L12.4593 57.1645L15.8475 57.0704C16.4122 57.0704 16.8828 56.5057 16.7887 55.941L16.5063 53.9645H17.071C22.4358 51.6115 26.671 55.0939 26.8593 55.0939C32.224 58.4821 39.1887 58.1998 44.271 54.341L59.424 42.7645C61.4005 41.2586 61.871 38.4351 60.1769 36.2704C59.0475 34.7645 57.1652 34.1998 55.3769 34.5762C57.9181 30.2468 59.0475 25.1645 58.2946 19.8939C56.8828 9.91742 48.6005 2.01154 38.624 1.07037C25.3534 -0.247281 14.1534 10.1998 14.1534 23.188C14.1534 24.3174 14.2475 25.4468 14.4358 26.5762L12.0828 24.8821C11.6122 24.5998 11.0475 24.6939 10.7652 25.0704C10.4828 25.541 10.5769 26.1057 10.9534 26.388L15.1887 29.3998C15.6593 29.6821 16.224 29.588 16.5063 29.2115L19.5181 24.9762C19.8005 24.5057 19.7063 23.941 19.3299 23.6586C18.8593 23.3762 18.2946 23.4704 18.0122 23.8468L16.224 26.2939C16.0358 25.2586 15.9416 24.2233 15.9416 23.0939C15.9416 11.6115 25.5416 2.29389 37.2122 2.8586C47.5652 3.32919 56.0358 11.7998 56.6005 22.0586C56.8828 28.2704 54.4357 34.1057 49.9181 38.1527C49.071 38.8115 48.3181 39.3762 47.7534 39.7527C47.3769 40.0351 47.2828 40.6939 47.5652 41.0704C47.8475 41.4468 48.5063 41.541 48.8828 41.2586C51.0475 39.6586 54.624 36.9292 54.7181 36.8351C55.9416 35.8939 57.7299 36.1762 58.7652 37.4939C59.6122 38.6233 59.3299 40.3174 58.1063 41.1645L43.0475 52.741C38.624 56.1292 32.5063 56.4115 27.8005 53.3998C27.5181 53.3057 22.7181 49.2586 16.224 52.0821C16.224 52.0821 16.1299 52.0821 16.1299 52.1762L14.1534 39.8468C17.071 37.4939 20.9299 36.6468 24.6005 37.4939L40.9769 41.4468C42.0122 41.7292 42.7652 42.4821 42.8593 43.5174C42.9534 45.1174 41.6358 46.341 40.224 46.0586L31.5652 44.9292C31.0005 44.8351 30.5299 45.2115 30.5299 45.7762C30.4358 46.2468 30.8122 46.7174 31.3769 46.8115L40.0357 47.941C42.3887 48.2233 44.4593 46.6233 44.8358 44.2704C45.1181 42.1057 43.7063 40.1292 41.6358 39.5645L25.1652 35.6115C21.2122 34.8586 17.071 35.6115 13.871 37.7762V37.7762ZM2.76517 58.9527V36.9292H7.47105L10.5769 57.3527L2.76517 58.9527ZM12.1769 55.188L9.63575 38.0586L11.9887 37.9645C12.9299 43.6115 14.2475 52.1762 14.7181 55.0939L12.1769 55.188Z" fill="#024430"/>
<path d="M25.0703 28.3647C25.0703 32.9765 29.588 35.9882 36.6468 35.9882C43.7056 35.9882 48.2233 32.9765 48.2233 28.3647C48.2233 24.3177 44.7409 16.3177 39.7527 13.7765C41.9174 12.0824 43.3291 8.97648 43.3291 7.28236C43.3291 6.90589 43.1409 6.62354 42.8585 6.4353C42.5762 6.24706 42.1997 6.24706 41.9174 6.4353C39.9409 7.56471 38.9056 7.94118 37.1174 7.09412C35.3291 6.24707 32.788 5.21177 30.5291 6.4353C30.2468 6.62354 30.0585 6.90589 30.0585 7.28236C30.0585 8.97648 31.4703 12.0824 33.635 13.7765C28.5527 16.4118 25.0703 24.4118 25.0703 28.3647V28.3647ZM31.9409 7.94118C33.3527 7.56471 35.0468 8.22354 36.2703 8.88236C38.1527 9.82354 39.6585 9.72942 41.0703 9.16471C40.2233 11.0471 38.3409 13.5882 36.2703 13.2118C34.1056 12.7412 32.3174 9.72942 31.9409 7.94118V7.94118ZM36.0821 15C36.6468 15.0941 36.6468 15.0941 37.2115 15C42.1056 15.6588 46.3409 24.4118 46.3409 28.4588C46.3409 32.6941 41.1644 34.2 36.6468 34.2C32.2233 34.2 26.9527 32.6941 26.9527 28.4588C26.9527 24.4118 31.188 15.6588 36.0821 15V15Z" fill="#024430"/>
<path d="M37.1175 29.0233C36.1763 29.0233 35.4234 28.2703 35.4234 27.3291C35.4234 26.7644 35.0469 26.388 34.4822 26.388C33.9175 26.388 33.541 26.7644 33.541 27.3291C33.541 28.9291 34.6704 30.3409 36.1763 30.7174V31.3762C36.1763 31.9409 36.5528 32.3174 37.1175 32.3174C37.6822 32.3174 38.0587 31.9409 38.0587 31.3762V30.7174C39.5645 30.3409 40.694 28.9291 40.694 27.3291C40.694 25.3527 39.094 23.7527 37.1175 23.7527C36.1763 23.7527 35.4234 22.9997 35.4234 22.0585C35.4234 21.1174 36.1763 20.3644 37.1175 20.3644C38.0587 20.3644 38.8116 21.1174 38.8116 22.0585C38.8116 22.6233 39.1881 22.9997 39.7528 22.9997C40.3175 22.9997 40.694 22.6233 40.694 22.0585C40.694 20.4585 39.5645 19.0468 38.0587 18.6703V18.0115C38.0587 17.4468 37.6822 17.0703 37.1175 17.0703C36.5528 17.0703 36.1763 17.4468 36.1763 18.0115V18.6703C34.6704 19.0468 33.541 20.4585 33.541 22.0585C33.541 24.035 35.141 25.635 37.1175 25.635C38.0587 25.635 38.8116 26.388 38.8116 27.3291C38.8116 28.2703 38.0587 29.0233 37.1175 29.0233V29.0233Z" fill="#024430"/>
</svg>
