<svg width="64" height="64" viewBox="0 0 64 64" fill="none" xmlns="http://www.w3.org/2000/svg">
<rect width="64" height="64" rx="32" fill="#FFE7BB"/>
<path d="M40.4853 23.5147L35.7707 28.2293M35.7707 35.7707L40.4853 40.4853M28.2293 28.2293L23.5147 23.5147M28.2293 35.7707L23.5147 40.4853M44 32C44 33.5759 43.6896 35.1363 43.0866 36.5922C42.4835 38.0481 41.5996 39.371 40.4853 40.4853C39.371 41.5996 38.0481 42.4835 36.5922 43.0866C35.1363 43.6896 33.5759 44 32 44C30.4241 44 28.8637 43.6896 27.4078 43.0866C25.9519 42.4835 24.629 41.5996 23.5147 40.4853C22.4004 39.371 21.5165 38.0481 20.9134 36.5922C20.3104 35.1363 20 33.5759 20 32C20 28.8174 21.2643 25.7652 23.5147 23.5147C25.7652 21.2643 28.8174 20 32 20C35.1826 20 38.2348 21.2643 40.4853 23.5147C42.7357 25.7652 44 28.8174 44 32ZM37.3333 32C37.3333 33.4145 36.7714 34.771 35.7712 35.7712C34.771 36.7714 33.4145 37.3333 32 37.3333C30.5855 37.3333 29.229 36.7714 28.2288 35.7712C27.2286 34.771 26.6667 33.4145 26.6667 32C26.6667 30.5855 27.2286 29.229 28.2288 28.2288C29.229 27.2286 30.5855 26.6667 32 26.6667C33.4145 26.6667 34.771 27.2286 35.7712 28.2288C36.7714 29.229 37.3333 30.5855 37.3333 32V32Z" stroke="#024430" stroke-width="2" stroke-linecap="round" stroke-linejoin="round"/>
</svg>
