<svg width="42" height="42" viewBox="0 0 42 42" fill="none" xmlns="http://www.w3.org/2000/svg">
<g clip-path="url(#clip0_109_41298)">
<path d="M23.5557 15.5393H18.444C18.7466 16.434 18.5389 17.4197 17.8985 18.1223L17.4629 18.5999H24.5361L24.1005 18.1223C23.4608 17.4204 23.2524 16.434 23.5557 15.5393Z" fill="white"/>
<path d="M24.5371 19.2774H17.4645C17.1962 19.2774 16.9531 19.1196 16.845 18.8735C16.7365 18.6284 16.7831 18.3419 16.9634 18.1435L17.399 17.6658C17.8717 17.1475 18.0262 16.4159 17.8032 15.7566C17.7334 15.5502 17.7675 15.322 17.8948 15.145C18.0222 14.9677 18.2266 14.8625 18.4456 14.8625H23.5573C23.7756 14.8625 23.9807 14.9677 24.108 15.145C24.2354 15.3227 24.2695 15.5509 24.1997 15.7566C23.9761 16.4165 24.1312 17.1482 24.6032 17.6658L25.0388 18.1435C25.2198 18.3419 25.2657 18.6284 25.1576 18.8735C25.0484 19.1196 24.8053 19.2774 24.5371 19.2774ZM18.8657 17.9225H23.1352C22.8528 17.3989 22.7188 16.8081 22.7466 16.2167H19.255C19.2821 16.8088 19.1481 17.3989 18.8657 17.9225V17.9225Z" fill="#024430"/>
<path d="M10.8926 14.5749V14.7935C10.8926 15.2053 11.2319 15.5394 11.6507 15.5394H30.3485C30.7673 15.5394 31.1067 15.2053 31.1067 14.7935V12.3352H10.8926V14.5749Z" fill="#FFD166"/>
<path d="M30.3482 16.2167H11.6504C10.8589 16.2167 10.2148 15.5786 10.2148 14.7927V12.3344C10.2148 11.9596 10.5182 11.657 10.8923 11.657H31.1064C31.4805 11.657 31.7838 11.9596 31.7838 12.3344V14.7927C31.7838 15.5786 31.1398 16.2167 30.3482 16.2167ZM11.5697 13.0125V14.7934C11.5697 14.8314 11.6054 14.8625 11.6504 14.8625H30.3482C30.3932 14.8625 30.4289 14.8314 30.4289 14.7934V13.0125H11.5697Z" fill="#024430"/>
<path d="M30.3485 0.67749H11.6507C11.2319 0.67749 10.8926 1.01157 10.8926 1.42338V12.3345H31.1067V1.42338C31.1067 1.01157 30.7673 0.67749 30.3485 0.67749Z" fill="white"/>
<path d="M31.1064 13.0125H10.8923C10.5182 13.0125 10.2148 12.7099 10.2148 12.3351V1.42397C10.2148 0.638058 10.8589 0 11.6504 0H30.3482C31.1398 0 31.7838 0.638058 31.7838 1.42397V12.3351C31.7838 12.7099 31.4805 13.0125 31.1064 13.0125ZM11.5697 11.6577H30.4289V1.42397C30.4289 1.38593 30.3932 1.35484 30.3482 1.35484H11.6504C11.6054 1.35484 11.5697 1.38593 11.5697 1.42397V11.6577Z" fill="#024430"/>
<path d="M6.60093 28.1563H5.24609V24.4467C5.24609 24.0723 5.54941 23.7693 5.92351 23.7693H36.0773C36.4514 23.7693 36.7547 24.0723 36.7547 24.4467V27.8196H35.3999V25.1241H6.60093V28.1563Z" fill="#024430"/>
<path d="M20.3223 21.0752H21.6771V28.1563H20.3223V21.0752Z" fill="#024430"/>
<path d="M20.9993 25.7149C20.1532 25.7149 19.4648 25.0329 19.4648 24.1947C19.4648 23.3569 20.1532 22.6748 20.9993 22.6748C21.8454 22.6748 22.5337 23.3569 22.5337 24.1947C22.5337 25.0329 21.8454 25.7149 20.9993 25.7149V25.7149ZM20.9993 24.0296C20.9004 24.0296 20.8197 24.1034 20.8197 24.1947C20.8197 24.3776 21.1782 24.3776 21.1782 24.1947C21.1789 24.1034 21.0982 24.0296 20.9993 24.0296Z" fill="#024430"/>
<path d="M22.4853 24.1947C22.4853 23.3879 21.8204 22.7336 21.0005 22.7336C20.1805 22.7336 19.5156 23.3879 19.5156 24.1947C19.5156 25.0017 20.1805 25.656 21.0005 25.656C21.8204 25.656 22.4853 25.0017 22.4853 24.1947V24.1947Z" fill="white"/>
<path d="M21.0001 26.3334C19.808 26.3334 18.8379 25.3741 18.8379 24.1946C18.8379 23.0154 19.808 22.0562 21.0001 22.0562C22.1922 22.0562 23.1624 23.0154 23.1624 24.1946C23.1624 25.3741 22.1922 26.3334 21.0001 26.3334V26.3334ZM21.0001 23.411C20.5549 23.411 20.1927 23.7633 20.1927 24.1946C20.1927 24.6262 20.5549 24.9785 21.0001 24.9785C21.4454 24.9785 21.8076 24.6262 21.8076 24.1946C21.8076 23.7633 21.4454 23.411 21.0001 23.411Z" fill="#024430"/>
<path d="M10.2724 41.3226H2.03289C1.65912 41.3226 1.35547 41.0189 1.35547 40.6452V31.8278C1.35547 31.454 1.65912 31.1504 2.03289 31.1504H10.2724C10.6462 31.1504 10.9498 31.454 10.9498 31.8278V40.6452C10.9498 41.0189 10.6468 41.3226 10.2724 41.3226Z" fill="#06D6A0"/>
<path d="M10.2721 42.0001H2.03257C1.28536 42.0001 0.677734 41.3925 0.677734 40.6453V31.8273C0.677734 31.08 1.28536 30.4724 2.03257 30.4724H10.2721C11.0193 30.4724 11.6269 31.08 11.6269 31.8273V40.6453C11.6269 41.3925 11.0193 42.0001 10.2721 42.0001ZM2.03257 31.8273V40.6453H10.2734L10.2727 31.8273H2.03257Z" fill="#024430"/>
<path d="M3.66016 32.8616H6.58748V34.2164H3.66016V32.8616Z" fill="white"/>
<path d="M3.66016 35.5593H8.64256V36.9142H3.66016V35.5593Z" fill="white"/>
<path d="M3.66016 38.2566H8.64256V39.6114H3.66016V38.2566Z" fill="white"/>
<path d="M25.1207 41.3226H16.8805C16.5068 41.3226 16.2031 41.0189 16.2031 40.6452V31.8278C16.2031 31.454 16.5068 31.1504 16.8805 31.1504H25.1201C25.4938 31.1504 25.7975 31.454 25.7975 31.8278V40.6452C25.7981 41.0189 25.4945 41.3226 25.1207 41.3226Z" fill="#06D6A0"/>
<path d="M25.1204 42.0001H16.8802C16.133 42.0001 15.5254 41.3925 15.5254 40.6453V31.8273C15.5254 31.08 16.133 30.4724 16.8802 30.4724H25.1197C25.867 30.4724 26.4746 31.08 26.4746 31.8273V40.6453C26.4752 41.3925 25.8676 42.0001 25.1204 42.0001ZM16.8802 31.8273V40.6453H25.1211L25.1204 31.8273H16.8802Z" fill="#024430"/>
<path d="M18.5078 32.8616H21.4345V34.2164H18.5078V32.8616Z" fill="white"/>
<path d="M18.5078 35.5593H23.4902V36.9142H18.5078V35.5593Z" fill="white"/>
<path d="M18.5078 38.2566H23.4902V39.6114H18.5078V38.2566Z" fill="white"/>
<path d="M39.9677 41.3226H31.7282C31.3544 41.3226 31.0508 41.0189 31.0508 40.6452V31.8278C31.0508 31.454 31.3544 31.1504 31.7282 31.1504H39.9677C40.3415 31.1504 40.6451 31.454 40.6451 31.8278V40.6452C40.6451 41.0189 40.3415 41.3226 39.9677 41.3226Z" fill="#FFD166"/>
<path d="M39.9674 42.0001H31.7279C30.9807 42.0001 30.373 41.3925 30.373 40.6453V31.8273C30.373 31.08 30.9807 30.4724 31.7279 30.4724H39.9674C40.7146 30.4724 41.3222 31.08 41.3222 31.8273V40.6453C41.3222 41.3925 40.7146 42.0001 39.9674 42.0001ZM31.7279 31.8273V40.6453H39.9687L39.9674 31.8273H31.7279Z" fill="#024430"/>
<path d="M33.3574 32.8616H36.2838V34.2164H33.3574V32.8616Z" fill="white"/>
<path d="M33.3574 35.5593H38.3398V36.9142H33.3574V35.5593Z" fill="white"/>
<path d="M33.3574 38.2566H38.3398V39.6114H33.3574V38.2566Z" fill="white"/>
</g>
<defs>
<clipPath id="clip0_109_41298">
<rect width="42" height="42" fill="white"/>
</clipPath>
</defs>
</svg>
