<svg width="64" height="64" viewBox="0 0 64 64" fill="none" xmlns="http://www.w3.org/2000/svg">
<path fill-rule="evenodd" clip-rule="evenodd" d="M33.6648 28C36.3497 31.8852 41.8706 38.2672 47 39C48.8507 38.2068 51.4668 36.6902 54 34.5001V60C54 61.1046 53.1046 62 52 62H4C2.89543 62 2 61.1046 2 60V30C2 28.8954 2.89543 28 4 28H33.6648Z" fill="#AEE6B9"/>
<path d="M61.44 4.39372C58.88 4.22732 52.5024 3.52332 48.64 0.577189C47.6401 -0.197605 46.2426 -0.197605 45.2427 0.577189C41.3781 3.52332 35.0027 4.22732 32.4427 4.39372C30.9993 4.48357 29.8729 5.67719 29.8667 7.12332V15.7356C29.8676 19.9027 30.8445 24.0117 32.7189 27.7335H5.33333C2.38928 27.737 0.00352653 30.1227 0 33.0668V58.6668C0.00352653 61.6108 2.38928 63.9966 5.33333 64.0001H50.1333C53.0774 63.9966 55.4631 61.6108 55.4667 58.6668V35.3228C60.8915 30.2505 63.9795 23.1623 64 15.7356V7.12332C63.9944 5.68296 62.877 4.4916 61.44 4.39372V4.39372ZM53.3333 58.6668C53.3333 60.4341 51.9006 61.8668 50.1333 61.8668H5.33333C3.56602 61.8668 2.13333 60.4341 2.13333 58.6668V33.0668C2.13333 31.2995 3.56602 29.8668 5.33333 29.8668H33.92C34.0853 30.1324 34.24 30.4001 34.4139 30.6647C37.2401 34.8734 41.1867 38.2082 45.808 40.2924C46.5256 40.6159 47.3475 40.6159 48.0651 40.2924C49.9349 39.4448 51.7024 38.3873 53.3333 37.1404V58.6668ZM61.8667 15.7356C61.8312 25.501 56.0893 34.3437 47.1829 38.3489C47.0237 38.4199 46.8419 38.4199 46.6827 38.3489C42.4234 36.4284 38.7862 33.3547 36.1824 29.4753C33.4511 25.4141 31.9947 20.6298 32 15.7356V7.12332C32.0022 6.80444 32.2513 6.54187 32.5696 6.52279C35.9925 6.30092 42.3563 5.45612 46.5269 2.27319C46.7654 2.08684 47.1002 2.08684 47.3387 2.27319C51.5104 5.45399 57.8741 6.30092 61.2971 6.52279C61.6154 6.54187 61.8644 6.80444 61.8667 7.12332V15.7356Z" fill="#024430"/>
<path d="M57.9131 8.32029C54.4425 7.89885 51.0765 6.85418 47.9771 5.23655C47.3296 4.86972 46.5371 4.86972 45.8896 5.23655C42.79 6.8545 39.4236 7.89918 35.9526 8.32029C34.9087 8.47542 34.1351 9.37053 34.1328 10.4259V15.7358C34.1282 20.2052 35.4574 24.5744 37.9504 28.284C39.9856 31.3054 42.7074 33.802 45.8928 35.5694C46.5394 35.9234 47.3219 35.9234 47.9686 35.5694C55.2048 31.5892 59.7097 23.9943 59.7328 15.7358V10.4259C59.7306 9.37053 58.957 8.47542 57.9131 8.32029V8.32029ZM57.5995 15.7358C57.5776 23.2204 53.4926 30.1028 46.9328 33.707H46.9222C44.0323 32.1021 41.5636 29.8359 39.7179 27.0936C37.4627 23.7355 36.2608 19.7808 36.2662 15.7358L36.2544 10.428C39.9884 9.98015 43.6081 8.84915 46.9328 7.09149C50.254 8.84713 53.8697 9.97738 57.5995 10.4259V15.7358Z" fill="#024430"/>
<path d="M8.53398 41.6002H12.8007C14.568 41.6002 16.0007 40.1675 16.0007 38.4002V36.2669C16.0007 34.4996 14.568 33.0669 12.8007 33.0669H8.53398C6.76667 33.0669 5.33398 34.4996 5.33398 36.2669V38.4002C5.33398 40.1675 6.76667 41.6002 8.53398 41.6002ZM7.46732 36.2669C7.46732 35.6778 7.94488 35.2002 8.53398 35.2002H12.8007C13.3898 35.2002 13.8673 35.6778 13.8673 36.2669V38.4002C13.8673 38.9893 13.3898 39.4669 12.8007 39.4669H8.53398C7.94488 39.4669 7.46732 38.9893 7.46732 38.4002V36.2669Z" fill="#024430"/>
<path d="M6.40065 46.9336H10.6673C11.2564 46.9336 11.734 46.4561 11.734 45.867C11.734 45.2779 11.2564 44.8003 10.6673 44.8003H6.40065C5.81155 44.8003 5.33398 45.2779 5.33398 45.867C5.33398 46.4561 5.81155 46.9336 6.40065 46.9336Z" fill="#024430"/>
<path d="M19.2005 44.8003H14.9339C14.3448 44.8003 13.8672 45.2779 13.8672 45.867C13.8672 46.4561 14.3448 46.9336 14.9339 46.9336H19.2005C19.7896 46.9336 20.2672 46.4561 20.2672 45.867C20.2672 45.2779 19.7896 44.8003 19.2005 44.8003Z" fill="#024430"/>
<path d="M27.7337 44.8003H23.4671C22.878 44.8003 22.4004 45.2779 22.4004 45.867C22.4004 46.4561 22.878 46.9336 23.4671 46.9336H27.7337C28.3228 46.9336 28.8004 46.4561 28.8004 45.867C28.8004 45.2779 28.3228 44.8003 27.7337 44.8003Z" fill="#024430"/>
<path d="M36.2669 44.8003H32.0003C31.4112 44.8003 30.9336 45.2779 30.9336 45.867C30.9336 46.4561 31.4112 46.9336 32.0003 46.9336H36.2669C36.856 46.9336 37.3336 46.4561 37.3336 45.867C37.3336 45.2779 36.856 44.8003 36.2669 44.8003Z" fill="#024430"/>
<path d="M45.8668 45.867C45.8668 45.2779 45.3892 44.8003 44.8001 44.8003H40.5335C39.9444 44.8003 39.4668 45.2779 39.4668 45.867C39.4668 46.4561 39.9444 46.9336 40.5335 46.9336H44.8001C45.3892 46.9336 45.8668 46.4561 45.8668 45.867Z" fill="#024430"/>
<path d="M13.8663 51.2002H10.6663C10.0772 51.2002 9.59961 51.6778 9.59961 52.2669C9.59961 52.856 10.0772 53.3335 10.6663 53.3335H13.8663C14.4554 53.3335 14.9329 52.856 14.9329 52.2669C14.9329 51.6778 14.4554 51.2002 13.8663 51.2002Z" fill="#024430"/>
<path d="M13.8673 55.4668H6.40065C5.81155 55.4668 5.33398 55.9444 5.33398 56.5335C5.33398 57.1226 5.81155 57.6001 6.40065 57.6001H13.8673C14.4564 57.6001 14.934 57.1226 14.934 56.5335C14.934 55.9444 14.4564 55.4668 13.8673 55.4668Z" fill="#024430"/>
<path d="M43.7329 14.9334V16.0001C42.5547 16.0001 41.5996 16.9552 41.5996 18.1334V24.5334C41.5996 25.7116 42.5547 26.6667 43.7329 26.6667H50.1329C51.3111 26.6667 52.2663 25.7116 52.2663 24.5334V18.1334C52.2663 16.9552 51.3111 16.0001 50.1329 16.0001V14.9334C50.1329 13.1661 48.7003 11.7334 46.9329 11.7334C45.1656 11.7334 43.7329 13.1661 43.7329 14.9334ZM45.8663 14.9334C45.8663 14.3443 46.3438 13.8667 46.9329 13.8667C47.522 13.8667 47.9996 14.3443 47.9996 14.9334V16.0001H45.8663V14.9334ZM49.0663 18.1334H50.1329V24.5334H43.7329V18.1334H49.0663Z" fill="#024430"/>
<path d="M46.9339 22.3999C47.523 22.3999 48.0005 21.9224 48.0005 21.3333C48.0005 20.7442 47.523 20.2666 46.9339 20.2666C46.3447 20.2666 45.8672 20.7442 45.8672 21.3333C45.8672 21.9224 46.3447 22.3999 46.9339 22.3999Z" fill="#024430"/>
<path d="M47.9996 56.5335H42.6663C42.0772 56.5335 41.5996 57.0111 41.5996 57.6002C41.5996 58.1893 42.0772 58.6669 42.6663 58.6669H49.0663C49.6554 58.6669 50.1329 58.1893 50.1329 57.6002V52.2669C50.1329 51.6778 49.6554 51.2002 49.0663 51.2002C48.4772 51.2002 47.9996 51.6778 47.9996 52.2669V56.5335Z" fill="#024430"/>
</svg>
