<svg width="63" height="63" viewBox="0 0 63 63" fill="none" xmlns="http://www.w3.org/2000/svg">
<g clip-path="url(#clip0_1279_520)">
<mask id="mask0_1279_520" style="mask-type:luminance" maskUnits="userSpaceOnUse" x="0" y="0" width="63" height="63">
<path d="M62.2842 0.532227H0.429688V62.3868H62.2842V0.532227Z" fill="white"/>
</mask>
<g mask="url(#mask0_1279_520)">
<path fill-rule="evenodd" clip-rule="evenodd" d="M31.3562 0.532227C23.1202 0.532227 15.6361 3.75156 10.0938 9.00049L24.726 24.0127V18.6729H26.7846V26.1247L31.3562 30.815V18.6729H40.2864V20.5382H33.4632V26.395H39.8226V28.2506H33.4632V34.3588H40.7311L40.7214 36.2917H36.6945L44.9788 44.7911L53.2631 53.2904C58.8375 47.6967 62.2835 39.9805 62.2835 31.4595C62.2835 14.3788 48.4369 0.532227 31.3562 0.532227ZM49.4295 20.5382H54.5518V18.6729H42.3066V20.5382H47.3708V36.2917H49.4295V20.5382ZM28.9187 43.6065C29.163 43.501 29.428 43.4521 29.6939 43.4633C29.9549 43.4495 30.2155 43.4965 30.4553 43.6005C30.6951 43.7045 30.9076 43.8626 31.076 44.0625C31.4266 44.5467 31.5974 45.1379 31.5592 45.7345C31.5984 46.3282 31.4274 46.9167 31.076 47.3968C30.9052 47.5927 30.6918 47.7467 30.4523 47.8472C30.2126 47.9477 29.9533 47.9921 29.6939 47.9767C29.429 47.9877 29.165 47.9396 28.9209 47.8359C28.6768 47.7324 28.4589 47.5757 28.2829 47.3775C27.9132 46.9199 27.7272 46.3411 27.7609 45.7539C27.7255 45.1486 27.911 44.551 28.2829 44.0721C28.4571 43.8711 28.6745 43.7119 28.9187 43.6065ZM41.3303 43.927C41.5998 44.2852 41.7365 44.7259 41.7169 45.1737L38.5856 45.1834C38.6376 44.7233 38.8377 44.2925 39.1558 43.9559C39.298 43.8042 39.4703 43.6837 39.6616 43.6021C39.853 43.5206 40.0592 43.4798 40.2672 43.4824C40.4665 43.4715 40.6656 43.506 40.8497 43.583C41.0337 43.66 41.1981 43.7775 41.3303 43.927Z" fill="#5C2D91"/>
<path fill-rule="evenodd" clip-rule="evenodd" d="M31.357 62.3873C39.9166 62.3873 47.6641 58.9099 53.2638 53.2909L44.9795 44.7916L36.6952 36.2922H31.357V30.8154L26.7853 26.1251V36.2922H24.2532L15.1973 22.2396C14.9717 21.8934 14.7838 21.5241 14.6368 21.1378H14.5594C14.6455 21.9402 14.6778 22.7474 14.6561 23.5541V36.2922H12.5975V18.6734H15.2747L24.0889 32.4746C24.4562 33.048 24.6945 33.4412 24.804 33.6538H24.8524C24.7504 32.7943 24.7084 31.9288 24.7267 31.0635V24.0132L10.0945 9.00098C4.14245 14.6378 0.429688 22.6154 0.429688 31.46C0.429688 48.5407 14.2763 62.3873 31.357 62.3873ZM7.58133 36.5338C7.40092 36.5366 7.22189 36.502 7.05553 36.4322C6.88918 36.3623 6.73913 36.2588 6.61486 36.1279C6.48717 36.0018 6.38627 35.8512 6.31818 35.6851C6.25009 35.519 6.21623 35.3409 6.2186 35.1614C6.21731 34.9821 6.25168 34.8044 6.31971 34.6384C6.38773 34.4725 6.48805 34.3218 6.61486 34.195C6.73791 34.0619 6.88752 33.9562 7.054 33.8846C7.22048 33.813 7.40013 33.7771 7.58133 33.7794C7.76228 33.779 7.9414 33.8156 8.10762 33.8871C8.27385 33.9586 8.42365 34.0634 8.54781 34.195C8.6768 34.3206 8.77919 34.4709 8.84893 34.637C8.91866 34.803 8.9543 34.9813 8.95374 35.1614C8.95542 35.3417 8.92029 35.5204 8.85049 35.6866C8.78069 35.8527 8.67769 36.003 8.54781 36.1279C8.42249 36.2574 8.27224 36.36 8.10612 36.4298C7.94002 36.4995 7.76149 36.5349 7.58133 36.5338ZM25.6742 48.2765C24.9765 48.6144 24.2069 48.7771 23.432 48.7502C22.9173 48.7733 22.4034 48.6861 21.9249 48.4945C21.4465 48.3027 21.0147 48.011 20.6583 47.6387C19.9481 46.8438 19.574 45.8044 19.6144 44.7392C19.5884 44.1625 19.6786 43.5865 19.8795 43.0452C20.0804 42.504 20.388 42.0086 20.784 41.5885C21.1699 41.1931 21.6338 40.8825 22.1462 40.6762C22.6587 40.4699 23.2085 40.3724 23.7606 40.3901C24.4215 40.3675 25.0798 40.4827 25.6936 40.7283V41.6948C25.1025 41.3676 24.4361 41.201 23.7606 41.2116C23.3348 41.1996 22.9114 41.2797 22.5194 41.4465C22.1275 41.6134 21.776 41.8629 21.4894 42.1781C20.8867 42.8647 20.5748 43.759 20.6196 44.6715C20.5745 45.536 20.8654 46.3846 21.4315 47.0394C21.703 47.3314 22.0344 47.5612 22.4032 47.7131C22.7718 47.8648 23.169 47.9351 23.5674 47.9189C24.3094 47.9384 25.0423 47.751 25.684 47.3777L25.6742 48.2765ZM29.627 48.7504C29.2422 48.7629 28.8593 48.6924 28.5042 48.5441C28.149 48.3956 27.8299 48.1727 27.5684 47.8903C27.0399 47.3005 26.7655 46.5259 26.8048 45.735C26.7808 45.3206 26.8392 44.9056 26.9769 44.5139C27.1147 44.1224 27.3289 43.7622 27.607 43.454C27.8909 43.177 28.2287 42.9611 28.5994 42.8198C28.9702 42.6785 29.3659 42.6148 29.7623 42.6326C30.1369 42.6126 30.5114 42.674 30.8601 42.8125C31.2087 42.951 31.5233 43.1632 31.7822 43.4348C32.2959 44.0538 32.555 44.845 32.507 45.648C32.5477 46.4629 32.2665 47.2612 31.7242 47.8709C31.4578 48.1589 31.1327 48.3864 30.7709 48.538C30.4092 48.6898 30.0191 48.7622 29.627 48.7504ZM37.0205 43.7536C36.8118 43.6168 36.564 43.5523 36.3151 43.57C36.1203 43.5771 35.9304 43.6319 35.7618 43.7296C35.5933 43.8273 35.4514 43.965 35.3485 44.1305C35.0609 44.586 34.9224 45.1198 34.9523 45.6575V48.615H33.9858V42.8161H34.9523V44.0242C35.0585 43.6504 35.2698 43.315 35.5612 43.0577C35.8132 42.8389 36.1359 42.7189 36.4697 42.7195C36.6565 42.7111 36.8432 42.7373 37.0205 42.7968V43.7536ZM42.6841 45.9571H38.5959C38.5685 46.4973 38.7443 47.0283 39.0888 47.4454C39.2679 47.6241 39.4828 47.7629 39.7193 47.8528C39.9558 47.9428 40.2086 47.9818 40.4613 47.9674C41.1163 47.9608 41.75 47.7325 42.2588 47.3197V48.1896C41.6614 48.5835 40.9537 48.7765 40.2389 48.7405C39.8782 48.7588 39.5181 48.6971 39.184 48.5601C38.8498 48.4231 38.5501 48.2141 38.306 47.948C37.8028 47.3204 37.5513 46.528 37.6005 45.7251C37.5657 44.9202 37.8387 44.1324 38.3639 43.5215C38.603 43.2453 38.9005 43.0259 39.2347 42.8788C39.5691 42.7316 39.9318 42.6607 40.2969 42.671C40.6265 42.6526 40.9561 42.709 41.2608 42.8363C41.5654 42.9634 41.8373 43.1582 42.0559 43.4056C42.5009 43.9924 42.7204 44.7194 42.6744 45.4545L42.6841 45.9571Z" fill="#6D429C"/>
<path fill-rule="evenodd" clip-rule="evenodd" d="M28.9199 43.6065C29.1643 43.501 29.4292 43.4521 29.6951 43.4633C29.956 43.4495 30.2166 43.4965 30.4565 43.6005C30.6962 43.7045 30.9087 43.8626 31.0771 44.0625C31.4277 44.5466 31.5986 45.1379 31.5603 45.7345C31.5995 46.3282 31.4285 46.9167 31.0771 47.3968C30.9063 47.5926 30.6929 47.7467 30.4534 47.8472C30.2137 47.9477 29.9544 47.9921 29.6951 47.9767C29.4301 47.9877 29.1661 47.9396 28.922 47.8359C28.6779 47.7324 28.46 47.5757 28.284 47.3775C27.9143 46.9199 27.7283 46.3411 27.7621 45.7538C27.7266 45.1486 27.9121 44.551 28.284 44.0721C28.4582 43.8711 28.6756 43.7118 28.9199 43.6065ZM41.3314 43.927C41.6009 44.2851 41.7377 44.7259 41.718 45.1737L38.5867 45.1834C38.6387 44.7233 38.8388 44.2925 39.1569 43.9559C39.2991 43.8042 39.4714 43.6837 39.6627 43.6021C39.8541 43.5206 40.0603 43.4798 40.2683 43.4824C40.4676 43.4715 40.6667 43.506 40.8508 43.583C41.0348 43.66 41.1992 43.7775 41.3314 43.927Z" fill="white"/>
<path fill-rule="evenodd" clip-rule="evenodd" d="M28.9199 43.6065C29.1643 43.501 29.4292 43.4521 29.6951 43.4633C29.956 43.4495 30.2166 43.4965 30.4565 43.6005C30.6962 43.7045 30.9087 43.8626 31.0771 44.0625C31.4277 44.5466 31.5986 45.1379 31.5603 45.7345C31.5995 46.3282 31.4285 46.9167 31.0771 47.3968C30.9063 47.5926 30.6929 47.7467 30.4534 47.8472C30.2137 47.9477 29.9544 47.9921 29.6951 47.9767C29.4301 47.9877 29.1661 47.9396 28.922 47.8359C28.6779 47.7324 28.46 47.5757 28.284 47.3775C27.9143 46.9199 27.7283 46.3411 27.7621 45.7538C27.7266 45.1486 27.9121 44.551 28.284 44.0721C28.4582 43.8711 28.6756 43.7118 28.9199 43.6065ZM41.3314 43.927C41.6009 44.2851 41.7377 44.7259 41.718 45.1737L38.5867 45.1834C38.6387 44.7233 38.8388 44.2925 39.1569 43.9559C39.2991 43.8042 39.4714 43.6837 39.6627 43.6021C39.8541 43.5206 40.0603 43.4798 40.2683 43.4824C40.4676 43.4715 40.6667 43.506 40.8508 43.583C41.0348 43.66 41.1992 43.7775 41.3314 43.927Z" fill="#6D429C"/>
</g>
</g>
<defs>
<clipPath id="clip0_1279_520">
<rect width="63" height="63" fill="white"/>
</clipPath>
</defs>
</svg>
