<svg width="48" height="48" viewBox="0 0 48 48" fill="none" xmlns="http://www.w3.org/2000/svg">
<path fill-rule="evenodd" clip-rule="evenodd" d="M20.2377 12.071C19.6291 12.7429 19.1254 13.5173 18.7068 14.3196C18.4624 14.7878 18.2461 15.2711 18.0518 15.7623L17.8614 16.2438L17.3658 16.0937C16.4872 15.8276 15.6232 15.495 14.8042 15.079L14.0938 14.7182L14.6716 14.1696C16.0909 12.8219 17.7865 11.7922 19.6394 11.1608L21.6968 10.4599L20.2377 12.071ZM25.1232 11.1164C26.7045 11.6688 27.8824 13.237 28.6286 14.6667C28.8207 15.0349 28.9938 15.4132 29.1533 15.7967L29.4168 16.4303L28.7438 16.5643C27.4979 16.8124 26.2275 16.9529 24.9584 16.9998L24.3752 17.0212V10.8551L25.1232 11.1164ZM23.6251 17.7708V23.6251H17.3521L17.3738 23.0417C17.4413 21.225 17.7007 19.3881 18.2045 17.6394L18.3494 17.1364L18.8616 17.2449C20.2479 17.5387 21.6664 17.7024 23.0822 17.7517L23.6251 17.7708ZM17.2247 31.664C16.2192 31.9638 15.2274 32.3452 14.2969 32.832L13.8957 33.0418L13.605 32.6947C11.7754 30.5106 10.681 27.821 10.4773 24.9779L10.4342 24.3753H16.603L16.6219 24.9182C16.6926 26.9499 16.9976 29.0142 17.6013 30.9581L17.7701 31.5015L17.2247 31.664ZM24.3753 24.3752H30.6485L30.6268 24.9586C30.5532 26.9375 30.2517 28.9495 29.6517 30.8396L29.4986 31.3222L29.0025 31.2204C27.6597 30.9447 26.2877 30.7886 24.9179 30.7402L24.3753 30.7211V24.3752ZM30.907 16.7908C31.9628 16.4678 33.0027 16.0516 33.9698 15.5165L34.3897 15.2842L34.6853 15.6622C36.3437 17.7832 37.331 20.3362 37.5233 23.0226L37.5664 23.6252H31.3976L31.3786 23.0823C31.3131 21.1996 31.0469 19.2962 30.5305 17.4829L30.3793 16.9522L30.907 16.7908ZM32.9622 34.1649C31.6204 35.3501 30.0561 36.2623 28.3609 36.8391L26.3038 37.5389L27.763 35.9288C28.3717 35.2572 28.8751 34.4822 29.2936 33.68C29.4669 33.348 29.6266 33.0088 29.7744 32.6647L29.9706 32.2079L30.4481 32.3466C31.2612 32.5827 32.0618 32.8744 32.8287 33.2341L33.6043 33.5978L32.9622 34.1649ZM35.1682 8.00072C33.324 8.00072 31.8239 6.50072 31.8239 4.65656C31.8239 2.81241 33.3239 1.3125 35.1682 1.3125C37.0123 1.3125 38.5122 2.81241 38.5122 4.65656C38.5122 6.50081 37.0123 8.00072 35.1682 8.00072ZM16.1765 43.3432C16.1765 45.1877 14.6768 46.6878 12.8323 46.6878C11.9402 46.6878 11.0987 46.3387 10.4678 45.7081C9.83694 45.0775 9.48828 44.2351 9.48828 43.3432C9.48828 41.499 10.9882 39.9996 12.8323 39.9996C14.6765 39.9996 16.1765 41.499 16.1765 43.3432V43.3432Z" fill="#06D6A0"/>
<path fill-rule="evenodd" clip-rule="evenodd" d="M31.9403 23.0628C31.8698 21.0387 31.5731 19.0915 31.0711 17.3288C32.2292 16.9746 33.2971 16.5315 34.2417 16.0087C35.7859 17.9838 36.7722 20.4146 36.9618 23.0628H31.9403ZM30.936 31.125C31.5197 29.2455 31.8638 27.137 31.9403 24.9378H36.9618C36.7611 27.7406 35.6672 30.3003 33.9639 32.3336C33.0533 31.8574 32.0338 31.4523 30.936 31.125V31.125ZM29.7919 33.9402C29.9682 33.6028 30.1346 33.2503 30.2908 32.8868C31.1131 33.1256 31.8842 33.4127 32.5895 33.7434C31.3157 34.8685 29.8211 35.7481 28.1793 36.3067C28.7664 35.6587 29.3084 34.8676 29.7919 33.9402V33.9402ZM17.7088 32.8868C17.865 33.2504 18.0313 33.6028 18.2077 33.9402C18.6912 34.8676 19.2331 35.6587 19.8203 36.3066C18.1785 35.748 16.6838 34.8684 15.4101 33.7433C16.1154 33.4127 16.8865 33.1256 17.7088 32.8868V32.8868ZM16.0593 24.9378C16.1358 27.137 16.4799 29.2455 17.0636 31.125C15.9658 31.4523 14.9463 31.8574 14.0358 32.3336C12.3325 30.3003 11.2387 27.7406 11.0379 24.9378H16.0593ZM16.9286 17.3287C16.4266 19.0914 16.1298 21.0386 16.0594 23.0627H11.0379C11.2274 20.4146 12.2138 17.9837 13.7579 16.0087C14.7025 16.5314 15.7704 16.9746 16.9286 17.3287ZM18.2078 14.0594C17.9611 14.5321 17.7352 15.0327 17.5283 15.5555C16.6359 15.2853 15.8064 14.9575 15.0585 14.5777C16.4054 13.2987 18.0252 12.3051 19.8203 11.6934C19.2332 12.3417 18.6912 13.133 18.2078 14.0594V14.0594ZM29.7919 14.0594C29.3083 13.133 28.7664 12.3418 28.1793 11.6934C29.9745 12.3051 31.5943 13.2987 32.9412 14.5777C32.1932 14.9575 31.3637 15.2853 30.4713 15.5555C30.2645 15.0327 30.0386 14.5321 29.7919 14.0594V14.0594ZM24.9374 16.4377C26.2195 16.3903 27.4631 16.2458 28.6337 16.0127C28.477 15.6359 28.3099 15.272 28.1297 14.9271C27.2283 13.1997 26.1009 12.0539 24.9375 11.6475V16.4377H24.9374ZM24.9374 23.0628V18.3141C26.4337 18.2618 27.8883 18.0849 29.2551 17.7953C29.7184 19.4033 29.9948 21.1921 30.0644 23.0628H24.9374ZM24.9374 30.1782V24.9378H30.0643C29.9879 26.9906 29.6629 28.9444 29.1153 30.6695C27.7863 30.3967 26.3786 30.229 24.9374 30.1782V30.1782ZM24.9374 32.0542V36.3526C26.1008 35.9457 27.2282 34.8012 28.1296 33.0734C28.2358 32.8696 28.3366 32.6577 28.4347 32.4432C27.3201 32.2314 26.1439 32.0993 24.9374 32.0542V32.0542ZM23.0622 32.0542C21.8557 32.0993 20.6796 32.2315 19.565 32.4433C19.6631 32.6578 19.7638 32.8696 19.87 33.0735C20.7714 34.8013 21.8988 35.9458 23.0622 36.3527V32.0542ZM23.0622 24.9378V30.1782C21.621 30.2291 20.2132 30.3967 18.8843 30.6696C18.3367 28.9445 18.0116 26.9906 17.9354 24.9379H23.0622V24.9378ZM23.0622 18.3141V23.0627H17.9355C18.005 21.1921 18.2813 19.4032 18.7447 17.7952C20.1114 18.085 21.5659 18.2619 23.0622 18.3141V18.3141ZM23.0622 16.4377V11.6475C21.8988 12.0539 20.7714 13.1997 19.87 14.9271C19.6898 15.272 19.5227 15.6359 19.3659 16.0127C20.5365 16.2458 21.7801 16.3904 23.0622 16.4377V16.4377ZM23.9999 9.129C15.7999 9.129 9.12872 15.8004 9.12872 24.0003C9.12872 32.2006 15.7998 38.8707 23.9999 38.8707C32.1998 38.8707 38.8709 32.2006 38.8709 24.0003C38.8709 15.8004 32.1998 9.129 23.9999 9.129ZM23.9999 45.3988C35.7988 45.3988 45.3982 35.7994 45.3982 24.0002C45.3982 17.9001 42.8242 12.1533 38.308 8.09194C37.4794 8.84991 36.3768 9.31341 35.1677 9.31341C32.6 9.31341 30.5109 7.22428 30.5109 4.65675C30.5109 4.31044 30.5501 3.97303 30.6224 3.648C28.4899 2.95369 26.2664 2.60213 23.9998 2.60213C12.2007 2.60213 2.60147 12.2012 2.60147 24.0003C2.60147 30.1004 5.17537 35.8477 9.6915 39.9086C10.5202 39.1502 11.6228 38.6872 12.8318 38.6872C15.3996 38.6872 17.4886 40.7758 17.4886 43.3433C17.4886 43.6905 17.4494 44.0271 17.3771 44.3526C19.5099 45.0468 21.7333 45.3988 23.9999 45.3988ZM12.8318 46.1254C12.0889 46.1254 11.3904 45.8357 10.865 45.3103C10.3397 44.7854 10.0504 44.0862 10.0504 43.3433C10.0504 41.8096 11.2981 40.5621 12.8319 40.5621C14.3659 40.5621 15.6137 41.8096 15.6137 43.3433C15.6136 44.8775 14.3659 46.1254 12.8318 46.1254V46.1254ZM35.1678 1.87509C36.7016 1.87509 37.9493 3.12309 37.9493 4.65675C37.9493 6.19041 36.7016 7.43841 35.1678 7.43841C33.6339 7.43841 32.386 6.19041 32.386 4.65675C32.386 3.12309 33.6339 1.87509 35.1678 1.87509ZM39.4138 6.56494C39.6767 5.98209 39.8242 5.33644 39.8242 4.65675C39.8242 2.08913 37.7355 0 35.1678 0C33.6179 0 32.2435 0.762 31.3966 1.92994C29.0175 1.13213 26.5332 0.727125 23.9999 0.727125C17.7833 0.727125 11.939 3.14784 7.54312 7.54369C3.14747 11.9394 0.726562 17.7835 0.726562 24.0004C0.726562 30.7024 3.58191 37.0117 8.58581 41.4357C8.32294 42.0181 8.17538 42.6642 8.17538 43.3435C8.17538 44.588 8.65978 45.7567 9.53925 46.6364C10.4188 47.5153 11.5882 48 12.8318 48C14.3817 48 15.7561 47.238 16.603 46.071C18.9823 46.8679 21.4665 47.2734 23.9998 47.2734C30.2163 47.2734 36.0607 44.8531 40.4565 40.4569C44.852 36.0611 47.2732 30.2167 47.2732 24.0002C47.2732 17.2983 44.4177 10.989 39.4138 6.56494V6.56494Z" fill="#024430"/>
</svg>
