<svg width="57" height="57" viewBox="0 0 57 57" fill="none" xmlns="http://www.w3.org/2000/svg">
<path d="M40.0808 34.8825L38.0581 32.9436C38.1416 32.7201 38.2614 32.5306 38.3458 32.3426C38.4132 32.1365 38.5317 31.913 38.581 31.6908L41.4302 31.6557C41.9169 31.6499 42.311 31.2522 42.2881 30.7916L42.2432 25.8222C42.2365 25.3441 41.832 24.9563 41.3643 24.9792L38.5151 25.0142C38.4598 24.7924 38.3535 24.5895 38.2641 24.3678C38.1923 24.164 38.0675 23.9431 37.9616 23.7739L39.9345 21.7866C40.2775 21.4405 40.2887 20.9112 39.9188 20.557L36.2957 17.083C35.9437 16.7454 35.4051 16.7355 35.0455 17.0987L33.0725 19.0864C32.8454 19.0034 32.6533 18.8867 32.4611 18.8032C32.2515 18.7367 32.0244 18.62 31.7981 18.5724L31.7631 15.7717C31.7568 15.2941 31.3524 14.9058 30.8846 14.9287L25.8124 14.9906C25.3258 14.996 24.9317 15.3942 24.9546 15.8548L24.9896 18.655C24.7642 18.7094 24.5573 18.8139 24.3319 18.9024C24.1246 18.9733 23.9001 19.0954 23.7282 19.2L21.7054 17.2612C21.3535 16.9241 20.8148 16.9137 20.4552 17.2769L16.9039 20.8551C16.5435 21.1842 16.5498 21.7305 16.8846 22.051L18.9069 23.9903C18.8234 24.2134 18.704 24.4028 18.6192 24.5913C18.5348 24.7799 18.4338 25.0205 18.384 25.2431L15.5698 25.3114C15.0836 25.3168 14.689 25.7149 14.7119 26.1755L14.7743 31.161C14.7811 31.6391 15.1855 32.027 15.6533 32.0041L18.5025 31.9691C18.5577 32.1908 18.6645 32.3937 18.7534 32.6155C18.8252 32.8197 18.95 33.0402 19.056 33.2094L17.083 35.1971C16.7401 35.5428 16.7293 36.0721 17.0988 36.4262L20.7394 39.9169C21.0913 40.2545 21.63 40.2644 21.9896 39.9012L23.9625 37.9139C24.1896 37.9965 24.3818 38.1132 24.5739 38.1967C24.766 38.2798 25.0107 38.3799 25.2369 38.4274L25.272 41.2282C25.2782 41.7062 25.6827 42.0941 26.1505 42.0712L31.2226 42.0093C31.7092 42.0039 32.1034 41.6057 32.0805 41.1451L32.0455 38.3449C32.2708 38.2905 32.4778 38.1859 32.7031 38.0975C32.9105 38.0266 33.1349 37.9045 33.3069 37.7999L35.3296 39.7387C35.6816 40.0758 36.2203 40.0861 36.5798 39.723L40.1311 36.1448C40.422 35.7497 40.4328 35.22 40.0808 34.8825Z" fill="#5B92F2"/>
<path d="M26.0892 42.9922C25.6758 42.9922 25.2408 42.8202 24.9144 42.5132C24.5634 42.1828 24.3591 41.7186 24.3529 41.2396L24.325 39.0903C24.2855 39.0737 24.2469 39.0571 24.2092 39.0405C24.1926 39.0333 24.176 39.0261 24.1594 39.0194L22.6416 40.5501C21.9346 41.2598 20.8204 41.2711 20.1008 40.5806L16.4607 37.0909C16.1069 36.7515 15.9085 36.3035 15.9036 35.8285C15.8973 35.3514 16.084 34.8971 16.4306 34.5496L17.9299 33.0382C17.9133 32.9987 17.899 32.9592 17.885 32.9205L17.8738 32.8977L15.663 32.9241C15.2374 32.9497 14.762 32.7724 14.4155 32.447C14.064 32.117 13.8602 31.6537 13.8534 31.1739L13.791 26.187C13.769 25.756 13.9356 25.308 14.2619 24.9606C14.5955 24.6051 15.0682 24.3981 15.5579 24.3918L17.723 24.3384C17.7414 24.2962 17.7589 24.2554 17.7773 24.215C17.7809 24.2069 17.7849 24.1997 17.7885 24.1921L16.2457 22.7138C15.9009 22.383 15.7061 21.9175 15.7124 21.4394C15.7191 20.9613 15.926 20.4998 16.2825 20.1753L19.801 16.6285C20.5053 15.9197 21.6204 15.9057 22.3413 16.5975L23.8932 18.0847C23.9408 18.0654 23.9874 18.0479 24.0337 18.0327L24.0602 18.0205L24.0337 15.8662C24.0117 15.4353 24.1778 14.9877 24.5041 14.6398C24.8381 14.2843 25.3108 14.0774 25.7997 14.0711L30.8727 14.0091C31.3113 13.9912 31.7746 14.1618 32.1202 14.4863C32.4713 14.8167 32.6755 15.2809 32.6818 15.7599L32.7087 17.9177C32.7177 17.9204 32.7263 17.9231 32.7343 17.9258C32.7649 17.9348 32.7949 17.946 32.8255 17.9599C32.8421 17.9671 32.8578 17.9734 32.8739 17.981L34.3921 16.4503C35.096 15.7415 36.2115 15.7275 36.9329 16.4188L40.5551 19.8925C40.9093 20.2314 41.1068 20.6803 41.1127 21.1548C41.1181 21.6315 40.9313 22.0849 40.5866 22.4324L39.0863 23.9447C39.1029 23.9851 39.1173 24.0237 39.1312 24.0623L39.1424 24.0866L41.3533 24.0596C41.7762 24.0376 42.2551 24.2114 42.6017 24.5386C42.9523 24.8686 43.157 25.3332 43.1619 25.8122L43.2077 30.7829C43.2297 31.2116 43.0632 31.6591 42.7368 32.0066C42.4033 32.3626 41.9306 32.5691 41.4408 32.5758L39.2295 32.6023C39.2268 32.6099 39.2241 32.618 39.2214 32.6252C39.2111 32.6575 39.1994 32.6898 39.1846 32.7208C39.1819 32.7284 39.1783 32.7347 39.1752 32.741L40.7181 34.2197C41.3874 34.8621 41.4525 35.9008 40.8734 36.69C40.8469 36.7268 40.8164 36.7614 40.7841 36.7937L37.2337 40.3719C36.5258 41.0825 35.4116 41.0928 34.6925 40.402L33.1415 38.9157C33.093 38.935 33.0459 38.9525 33.0001 38.9682L32.9736 38.9798L33.0001 41.1341C33.0221 41.5651 32.8555 42.0131 32.5292 42.3605C32.1957 42.7161 31.723 42.923 31.2341 42.9293L26.1619 42.9913C26.1381 42.9922 26.113 42.9922 26.0892 42.9922ZM23.961 36.9943C24.066 36.9943 24.1724 37.0123 24.2752 37.0491C24.4485 37.112 24.6047 37.1892 24.7555 37.2646C24.817 37.2956 24.8776 37.3261 24.9373 37.3526C25.0276 37.3912 25.2628 37.4935 25.4284 37.5281C25.8477 37.6183 26.1489 37.9869 26.1548 38.4156L26.1893 41.2158L31.1605 41.0906L31.1255 38.3559C31.1201 37.9263 31.4123 37.5514 31.8298 37.45C31.9402 37.4235 32.0421 37.3755 32.1499 37.3306L32.3667 37.2412C32.5099 37.191 32.6657 37.1129 32.83 37.0137C33.185 36.7991 33.6429 36.8471 33.9432 37.1358L35.966 39.0746L39.4118 35.5655C39.419 35.5498 39.4234 35.5368 39.4252 35.5269L37.4213 33.6056C37.1556 33.3506 37.0672 32.9609 37.1978 32.6162C37.2624 32.4452 37.3414 32.2889 37.4195 32.139C37.4433 32.0914 37.4689 32.0443 37.4909 31.9976C37.5205 31.9137 37.5547 31.8284 37.5897 31.7408C37.6233 31.6582 37.6628 31.5738 37.6822 31.489C37.7751 31.0715 38.1418 30.7739 38.5696 30.7681L41.3681 30.7344L41.3223 25.8288L38.5243 25.9307C38.0678 25.9581 37.7239 25.6465 37.6216 25.2317C37.596 25.1253 37.547 25.027 37.5021 24.9238L37.4101 24.7114C37.3742 24.6122 37.3194 24.4816 37.1803 24.2594C36.954 23.8971 37.0066 23.4271 37.3073 23.1237L39.2802 21.1355L35.6589 17.7427L33.7246 19.7304C33.4728 19.9849 33.0948 20.0698 32.7572 19.9463C32.5844 19.8839 32.4282 19.8067 32.2782 19.7313C32.228 19.7066 32.179 19.681 32.1306 19.6586C32.0439 19.6294 31.9555 19.5953 31.8657 19.5594C31.7791 19.5253 31.6929 19.4858 31.6044 19.4674C31.1852 19.3776 30.884 19.0086 30.8781 18.5803L30.8431 15.7801L25.8724 15.9049L25.9074 18.64C25.9128 19.0687 25.6206 19.4445 25.204 19.5459C25.0935 19.5724 24.9907 19.62 24.8821 19.6662L24.6662 19.7551C24.5225 19.8058 24.3672 19.8839 24.2029 19.9831C23.8487 20.1986 23.3909 20.1497 23.0896 19.861L21.0678 17.9222L17.5955 21.4578L19.5415 23.3234C19.8073 23.578 19.8957 23.9676 19.7651 24.3124C19.7009 24.4825 19.6228 24.6378 19.5455 24.786C19.5141 24.8466 19.4827 24.9054 19.4562 24.9642C19.4176 25.0499 19.3144 25.2807 19.2807 25.4369C19.1905 25.8508 18.8291 26.1493 18.4053 26.1596L15.6298 26.2274L15.6922 31.1487L18.4906 31.0495C18.9193 31.067 19.2924 31.3337 19.3938 31.7485C19.4194 31.854 19.4683 31.9523 19.5132 32.0546L19.6052 32.2678C19.6412 32.367 19.6959 32.4977 19.836 32.7208C20.0609 33.0831 20.0088 33.5531 19.708 33.8556L17.736 35.8429L21.3757 39.2519L23.3101 37.2646C23.4847 37.0886 23.7212 36.9943 23.961 36.9943ZM15.628 26.1273V26.1394C15.628 26.1358 15.628 26.1309 15.628 26.1273ZM25.8706 15.8065V15.8187C25.8706 15.8151 25.8706 15.8115 25.8706 15.8065Z" fill="#464646"/>
<path d="M33.2986 28.3947C33.2837 27.2011 32.8187 26.0133 31.8751 25.1141C30.9319 24.2149 29.7055 23.7903 28.4845 23.8051C27.2639 23.8199 26.0483 24.2737 25.129 25.1962C24.2096 26.1183 23.7746 27.3169 23.7894 28.5105C23.8042 29.7037 24.2693 30.8915 25.2129 31.7906C26.1561 32.6898 27.3825 33.1145 28.6035 33.0996C29.824 33.0848 31.0397 32.631 31.959 31.7089C32.8784 30.7864 33.2977 29.5722 33.2986 28.3947Z" fill="#D5F0FC"/>
<path d="M27.7344 4.93555H29.5731V11.0088H27.7344V4.93555Z" fill="#464646"/>
<path d="M31.0767 3.32515C31.0767 1.99684 29.9751 0.919922 28.6162 0.919922C27.2574 0.919922 26.1562 1.99684 26.1562 3.32515C26.1562 4.65301 27.2574 5.72993 28.6162 5.72993C29.9751 5.72993 31.0767 4.65301 31.0767 3.32515Z" fill="#D5F0FC"/>
<path d="M28.6215 6.64782C26.759 6.64782 25.2422 5.15656 25.2422 3.32368C25.2422 1.49036 26.759 0 28.6215 0C30.484 0 32.0013 1.49126 32.0013 3.32458C32.0013 5.15746 30.484 6.64782 28.6215 6.64782ZM28.6215 1.83871C27.7722 1.83871 27.0809 2.50533 27.0809 3.32458C27.0809 4.14338 27.7722 4.81 28.6215 4.81C29.4709 4.81 30.1626 4.14338 30.1626 3.32458C30.1626 2.50533 29.4709 1.83871 28.6215 1.83871Z" fill="#464646"/>
<path d="M7.20312 17.3655L8.19385 15.8164L13.6871 19.3295L12.6964 20.8786L7.20312 17.3655Z" fill="#464646"/>
<path d="M7.48719 13.7308C6.31017 13.0669 4.80634 13.4606 4.1267 14.6107C3.44751 15.7608 3.85107 17.2318 5.02675 17.8953C6.20288 18.5592 7.70761 18.1655 8.38725 17.0154C9.06644 15.8653 8.66377 14.3956 7.48719 13.7308Z" fill="#D5F0FC"/>
<path d="M6.24828 19.1347C5.67817 19.1347 5.10177 18.9933 4.57431 18.6953C3.78469 18.2495 3.22087 17.5268 2.98834 16.6599C2.7585 15.803 2.8806 14.9092 3.33309 14.1425C4.26457 12.565 6.33222 12.0228 7.93705 12.9291C8.72802 13.3748 9.29139 14.0976 9.52393 14.9653C9.75377 15.8223 9.63077 16.716 9.17827 17.4828C8.5534 18.5417 7.41498 19.1347 6.24828 19.1347ZM6.25591 14.3265C5.72081 14.3265 5.20233 14.5959 4.91728 15.0775C4.71751 15.4151 4.66409 15.8075 4.76465 16.1845C4.86745 16.5697 5.12108 16.8934 5.47706 17.0949C6.2191 17.5102 7.16763 17.2695 7.59409 16.5477C7.79385 16.2092 7.84817 15.8169 7.74761 15.4407C7.64482 15.0546 7.39029 14.7319 7.03431 14.5308C6.78876 14.3925 6.51941 14.3265 6.25591 14.3265Z" fill="#464646"/>
<path d="M7.05469 39.3803L12.5471 35.8672L13.5383 37.4173L8.04587 40.93L7.05469 39.3803Z" fill="#464646"/>
<path d="M4.90976 38.9062C3.73319 39.5701 3.33052 41.0411 4.00971 42.1912C4.68935 43.3413 6.19408 43.7355 7.37021 43.0711C8.54678 42.4072 8.94945 40.9361 8.27026 39.786C7.59152 38.6368 6.08679 38.2427 4.90976 38.9062Z" fill="#D5F0FC"/>
<path d="M6.14657 44.3121C4.97897 44.3121 3.8419 43.7182 3.21658 42.6588C2.76408 41.893 2.64108 40.9996 2.87092 40.1427C3.10255 39.2758 3.66593 38.5522 4.45779 38.1064C6.06173 37.2006 8.12848 37.7433 9.06175 39.3189C9.51425 40.0857 9.63635 40.9794 9.40651 41.8359C9.17398 42.7032 8.6115 43.4255 7.82053 43.8717C7.29397 44.1702 6.71668 44.3121 6.14657 44.3121ZM6.13939 39.5025C5.87454 39.5025 5.60699 39.569 5.36054 39.7068C5.00366 39.9092 4.75003 40.232 4.64723 40.6181C4.54668 40.9938 4.601 41.3866 4.80076 41.7237C5.22632 42.4447 6.17306 42.6902 6.91779 42.2718C7.27467 42.0707 7.5274 41.7471 7.6302 41.3606C7.73075 40.9848 7.67733 40.592 7.47757 40.254C7.19297 39.7723 6.67313 39.5025 6.13939 39.5025Z" fill="#464646"/>
<path d="M27.4297 45.9902H29.2684V52.0634H27.4297V45.9902Z" fill="#464646"/>
<path d="M30.8424 53.6763C30.8424 52.3485 29.7412 51.2715 28.3824 51.2715C27.0235 51.2715 25.9219 52.3485 25.9219 53.6763C25.9219 55.0046 27.0235 56.0815 28.3824 56.0815C29.7412 56.0815 30.8424 55.0046 30.8424 53.6763Z" fill="#D5F0FC"/>
<path d="M28.3798 57.0003C26.5173 57.0003 25 55.5091 25 53.6757C25 51.8429 26.5164 50.3516 28.3798 50.3516C30.2432 50.3516 31.7592 51.8429 31.7592 53.6757C31.7592 55.5091 30.2423 57.0003 28.3798 57.0003ZM28.3798 52.1912C27.5305 52.1912 26.8387 52.8578 26.8387 53.6766C26.8387 54.4959 27.5305 55.1616 28.3798 55.1616C29.2291 55.1616 29.9204 54.495 29.9204 53.6757C29.9204 52.8569 29.2291 52.1912 28.3798 52.1912Z" fill="#464646"/>
<path d="M43.3203 37.6703L44.311 36.1211L49.8038 39.6342L48.8135 41.1829L43.3203 37.6703Z" fill="#464646"/>
<path d="M49.5191 43.2703C50.6962 43.9342 52.2 43.5406 52.8796 42.3905C53.5588 41.2404 53.1553 39.7693 51.9796 39.1058C50.8025 38.4419 49.2987 38.8356 48.6191 39.9857C47.9399 41.1358 48.3426 42.6055 49.5191 43.2703Z" fill="#D5F0FC"/>
<path d="M50.7403 44.5088C50.1702 44.5088 49.5938 44.367 49.0672 44.0694C48.2762 43.6236 47.7129 42.9009 47.4803 42.0331C47.2505 41.1762 47.3735 40.2824 47.826 39.5157C48.7561 37.9391 50.822 37.3946 52.43 38.3032C53.2196 38.749 53.7834 39.4717 54.0159 40.3385C54.2458 41.1955 54.1237 42.0888 53.6712 42.856C53.045 43.9158 51.907 44.5088 50.7403 44.5088ZM50.7475 39.7006C50.2137 39.7006 49.6939 39.9691 49.4102 40.4516C49.2104 40.7901 49.1561 41.1825 49.2567 41.5586C49.3595 41.9447 49.614 42.2675 49.97 42.4686C50.7138 42.8878 51.6623 42.6414 52.087 41.9218C52.2868 41.5842 52.3402 41.1919 52.2396 40.8148C52.1368 40.4296 51.8832 40.106 51.5272 39.9044C51.2808 39.7657 51.0123 39.7006 50.7475 39.7006Z" fill="#464646"/>
<path d="M43.4609 19.5834L48.9533 16.0703L49.9445 17.6203L44.4521 21.133L43.4609 19.5834Z" fill="#464646"/>
<path d="M52.0968 18.0932C53.2733 17.4293 53.676 15.9582 52.9968 14.8081C52.3172 13.6581 50.8124 13.2639 49.6363 13.9283C48.4597 14.5922 48.0571 16.0633 48.7363 17.2134C49.415 18.3626 50.9197 18.7567 52.0968 18.0932Z" fill="#D5F0FC"/>
<path d="M50.8734 19.3339C49.7067 19.3339 48.5696 18.74 47.9425 17.6819C47.49 16.9152 47.3679 16.0214 47.5977 15.1649C47.8302 14.2976 48.3927 13.5753 49.1837 13.1291C50.789 12.221 52.8575 12.765 53.7876 14.3429C54.2401 15.1088 54.3631 16.0021 54.1333 16.859C53.9017 17.7259 53.3383 18.4495 52.5464 18.8953C52.0199 19.1924 51.4435 19.3339 50.8734 19.3339ZM50.8653 14.5247C50.6013 14.5247 50.3329 14.5912 50.0864 14.729C49.7295 14.9301 49.4768 15.2538 49.374 15.6403C49.2735 16.016 49.3269 16.4088 49.5266 16.7468C49.9522 17.4669 50.9007 17.7106 51.6437 17.294C52.0006 17.0916 52.2542 16.7688 52.357 16.3828C52.4575 16.007 52.4032 15.6142 52.2035 15.2771C51.9198 14.7941 51.3999 14.5247 50.8653 14.5247Z" fill="#464646"/>
</svg>
