<svg width="63" height="63" viewBox="0 0 63 63" fill="none" xmlns="http://www.w3.org/2000/svg">
<mask id="mask0_1279_497" style="mask-type:luminance" maskUnits="userSpaceOnUse" x="3" y="3" width="57" height="57">
<path d="M59.6308 3.18359H3.07812V59.7363H59.6308V3.18359Z" fill="white"/>
</mask>
<g mask="url(#mask0_1279_497)">
<mask id="mask1_1279_497" style="mask-type:luminance" maskUnits="userSpaceOnUse" x="3" y="3" width="57" height="57">
<path d="M59.6308 3.18359H3.07812V59.7363H59.6308V3.18359Z" fill="white"/>
</mask>
<g mask="url(#mask1_1279_497)">
<mask id="mask2_1279_497" style="mask-type:alpha" maskUnits="userSpaceOnUse" x="3" y="3" width="57" height="57">
<path d="M13.4458 51.0174L4.02098 43.9484C3.72713 43.7302 3.48867 43.4459 3.32489 43.1184C3.16111 42.7908 3.07659 42.4296 3.07815 42.0637V20.8562C3.07659 20.4902 3.16111 20.1289 3.32489 19.8015C3.48867 19.474 3.72713 19.1897 4.02098 18.9715L13.4458 11.9023C13.1927 12.1401 13.0014 12.436 12.8884 12.7645C12.7756 13.093 12.7446 13.444 12.7982 13.7872V49.1327C12.7446 49.4759 12.7756 49.8269 12.8884 50.1554C13.0014 50.4839 13.1927 50.7796 13.4458 51.0174Z" fill="white"/>
<path d="M58.5767 12.9982C58.1882 12.7431 57.7334 12.6078 57.2687 12.6094C56.9678 12.6069 56.6691 12.6639 56.3903 12.777C56.1111 12.8902 55.8573 13.0572 55.6429 13.2685L55.4785 13.4338L36.6747 31.4599L26.2709 41.439L16.6454 50.6641L16.4802 50.8293C16.266 51.0409 16.0122 51.2083 15.7332 51.3217C15.4541 51.4348 15.1554 51.4919 14.8542 51.4892C14.3445 51.4883 13.8487 51.3229 13.4405 51.0175L4.01562 43.9485C4.49447 44.308 5.09238 44.4718 5.68765 44.4061C6.28293 44.3405 6.83077 44.0504 7.21969 43.595L17.6819 31.4485L26.2709 21.4811L41.3167 4.00802C41.535 3.74927 41.8074 3.5414 42.1147 3.39899C42.422 3.25657 42.7566 3.18307 43.0954 3.18361C43.5601 3.18211 44.0149 3.31731 44.403 3.57241L58.5767 12.9982Z" fill="white"/>
<path d="M58.5767 49.9219L44.4386 59.3475C43.9575 59.6616 43.3794 59.7917 42.8101 59.7138C42.2413 59.6361 41.7192 59.3553 41.3404 58.9236L26.2709 41.4393L17.6819 31.4487L7.21969 19.3127C6.82732 18.862 6.27895 18.5762 5.68463 18.513C5.09035 18.4498 4.49412 18.6137 4.01562 18.9717L13.4405 11.9027C13.8487 11.5973 14.3445 11.4318 14.8542 11.4307C15.1554 11.4282 15.4541 11.4853 15.7332 11.5985C16.0122 11.7117 16.266 11.8791 16.4802 12.0908L16.6454 12.2561L26.2709 21.4813L36.6747 31.4602L55.4785 49.4864L55.6429 49.6515C55.8573 49.863 56.1111 50.0299 56.3903 50.1431C56.6691 50.2563 56.9678 50.3133 57.2687 50.3107C57.7334 50.3123 58.1882 50.177 58.5767 49.9219Z" fill="white"/>
<path d="M59.6289 14.964V47.9538C59.6292 48.3426 59.5337 48.7255 59.3507 49.0684C59.1677 49.4117 58.903 49.7043 58.5799 49.9207L44.4419 59.3463C44.7649 59.1299 45.0296 58.837 45.2126 58.4937C45.3952 58.1505 45.4908 57.7675 45.4904 57.3785V5.53915C45.4854 5.14731 45.3838 4.76283 45.1947 4.41961C45.0056 4.0764 44.7348 3.78504 44.4062 3.57129L58.5799 12.9971C58.902 13.2142 59.1665 13.5071 59.349 13.85C59.5321 14.1929 59.628 14.5754 59.6289 14.964Z" fill="white"/>
</mask>
<g mask="url(#mask2_1279_497)">
<path d="M13.4458 51.0174L4.02098 43.9485C3.72713 43.7302 3.48867 43.4456 3.32489 43.1184C3.16111 42.7908 3.07659 42.4296 3.07815 42.0637V20.8562C3.07659 20.4902 3.16111 20.1289 3.32489 19.8015C3.48867 19.474 3.72713 19.1897 4.02098 18.9715L13.4458 11.9023C13.1927 12.1401 13.0014 12.436 12.8884 12.7645C12.7756 13.093 12.7446 13.444 12.7982 13.7872V49.1327C12.7446 49.4759 12.7756 49.8269 12.8884 50.1554C13.0014 50.4839 13.1927 50.7796 13.4458 51.0174Z" fill="#5E438F"/>
<g filter="url(#filter0_dd_1279_497)">
<path d="M58.5765 12.9982C58.1884 12.7431 57.7335 12.6078 57.2688 12.6094C56.9679 12.6069 56.6693 12.6639 56.3902 12.777C56.1112 12.8902 55.8574 13.0572 55.6431 13.2685L55.4786 13.4338L45.4633 23.0363L36.6748 31.4599L26.2709 41.439L16.6454 50.6641L16.4802 50.8293C16.266 51.0409 16.0122 51.2083 15.7332 51.3217C15.4541 51.4348 15.1554 51.4919 14.8543 51.4892C14.3445 51.4883 13.8487 51.3229 13.4405 51.0175L4.01562 43.9485C4.49444 44.308 5.09238 44.4718 5.68765 44.4061C6.28293 44.3405 6.83077 44.0504 7.21969 43.595L12.4985 37.4688L17.6819 31.4485L26.2709 21.4811L41.3166 4.00802C41.5351 3.74927 41.8075 3.5414 42.1148 3.39899C42.4219 3.25657 42.7568 3.18307 43.0952 3.18361C43.5599 3.18211 44.0147 3.31731 44.4031 3.57241L58.5765 12.9982Z" fill="#7252AA"/>
</g>
<g filter="url(#filter1_dd_1279_497)">
<path d="M58.5765 49.9219L44.4384 59.3478C43.9576 59.6619 43.3795 59.7917 42.8103 59.7138C42.2412 59.6359 41.7194 59.3555 41.3405 58.9234L26.2709 41.4391L17.6819 31.4487L12.4985 25.4398L7.21969 19.3128C6.82731 18.862 6.27892 18.5763 5.68463 18.5129C5.09035 18.4497 4.49412 18.6136 4.01562 18.9717L13.4405 11.9026C13.8487 11.5973 14.3445 11.4317 14.8543 11.4307C15.1554 11.4282 15.4541 11.4852 15.7332 11.5985C16.0122 11.7118 16.266 11.879 16.4802 12.0908L16.6454 12.256L26.2709 21.4812L36.6748 31.4601L45.4758 39.8963L55.4786 49.4864L55.6431 49.6517C55.8574 49.8629 56.1112 50.0299 56.3902 50.1429C56.6693 50.2561 56.9679 50.3132 57.2688 50.3106C57.7335 50.3122 58.1884 50.177 58.5765 49.9219Z" fill="#A97CDF"/>
</g>
<g filter="url(#filter2_dd_1279_497)">
<path d="M59.6289 14.964V47.9536C59.6292 48.3427 59.5337 48.7254 59.3507 49.0685C59.1677 49.4115 58.903 49.7044 58.5799 49.9208L44.4415 59.3464C44.7649 59.13 45.0296 58.8371 45.2123 58.4939C45.3952 58.1506 45.4908 57.7677 45.4904 57.3786V5.53913C45.4854 5.14733 45.3838 4.7628 45.1947 4.41959C45.0056 4.07638 44.7348 3.78503 44.4062 3.57129L58.5799 12.997C58.902 13.2142 59.1661 13.5071 59.349 13.85C59.5317 14.1929 59.628 14.5754 59.6289 14.964Z" fill="#CE98FA"/>
</g>
</g>
</g>
</g>
<defs>
<filter id="filter0_dd_1279_497" x="2.56603" y="2.0964" width="57.4617" height="51.2049" filterUnits="userSpaceOnUse" color-interpolation-filters="sRGB">
<feFlood flood-opacity="0" result="BackgroundImageFix"/>
<feColorMatrix in="SourceAlpha" type="matrix" values="0 0 0 0 0 0 0 0 0 0 0 0 0 0 0 0 0 0 127 0" result="hardAlpha"/>
<feOffset dy="0.0688556"/>
<feGaussianBlur stdDeviation="0.0688556"/>
<feColorMatrix type="matrix" values="0 0 0 0 0 0 0 0 0 0 0 0 0 0 0 0 0 0 0.24 0"/>
<feBlend mode="normal" in2="BackgroundImageFix" result="effect1_dropShadow_1279_497"/>
<feColorMatrix in="SourceAlpha" type="matrix" values="0 0 0 0 0 0 0 0 0 0 0 0 0 0 0 0 0 0 127 0" result="hardAlpha"/>
<feOffset dy="0.362399"/>
<feGaussianBlur stdDeviation="0.724798"/>
<feColorMatrix type="matrix" values="0 0 0 0 0 0 0 0 0 0 0 0 0 0 0 0 0 0 0.22 0"/>
<feBlend mode="normal" in2="effect1_dropShadow_1279_497" result="effect2_dropShadow_1279_497"/>
<feBlend mode="normal" in="SourceGraphic" in2="effect2_dropShadow_1279_497" result="shape"/>
</filter>
<filter id="filter1_dd_1279_497" x="2.56603" y="10.3435" width="57.4617" height="51.2049" filterUnits="userSpaceOnUse" color-interpolation-filters="sRGB">
<feFlood flood-opacity="0" result="BackgroundImageFix"/>
<feColorMatrix in="SourceAlpha" type="matrix" values="0 0 0 0 0 0 0 0 0 0 0 0 0 0 0 0 0 0 127 0" result="hardAlpha"/>
<feOffset dy="0.0688556"/>
<feGaussianBlur stdDeviation="0.0688556"/>
<feColorMatrix type="matrix" values="0 0 0 0 0 0 0 0 0 0 0 0 0 0 0 0 0 0 0.24 0"/>
<feBlend mode="normal" in2="BackgroundImageFix" result="effect1_dropShadow_1279_497"/>
<feColorMatrix in="SourceAlpha" type="matrix" values="0 0 0 0 0 0 0 0 0 0 0 0 0 0 0 0 0 0 127 0" result="hardAlpha"/>
<feOffset dy="0.362399"/>
<feGaussianBlur stdDeviation="0.724798"/>
<feColorMatrix type="matrix" values="0 0 0 0 0 0 0 0 0 0 0 0 0 0 0 0 0 0 0.22 0"/>
<feBlend mode="normal" in2="effect1_dropShadow_1279_497" result="effect2_dropShadow_1279_497"/>
<feBlend mode="normal" in="SourceGraphic" in2="effect2_dropShadow_1279_497" result="shape"/>
</filter>
<filter id="filter2_dd_1279_497" x="40.0575" y="-0.777491" width="23.9163" height="64.473" filterUnits="userSpaceOnUse" color-interpolation-filters="sRGB">
<feFlood flood-opacity="0" result="BackgroundImageFix"/>
<feColorMatrix in="SourceAlpha" type="matrix" values="0 0 0 0 0 0 0 0 0 0 0 0 0 0 0 0 0 0 127 0" result="hardAlpha"/>
<feOffset/>
<feGaussianBlur stdDeviation="0.0362399"/>
<feColorMatrix type="matrix" values="0 0 0 0 0 0 0 0 0 0 0 0 0 0 0 0 0 0 0.24 0"/>
<feBlend mode="normal" in2="BackgroundImageFix" result="effect1_dropShadow_1279_497"/>
<feColorMatrix in="SourceAlpha" type="matrix" values="0 0 0 0 0 0 0 0 0 0 0 0 0 0 0 0 0 0 127 0" result="hardAlpha"/>
<feOffset/>
<feGaussianBlur stdDeviation="2.17439"/>
<feColorMatrix type="matrix" values="0 0 0 0 0 0 0 0 0 0 0 0 0 0 0 0 0 0 0.3 0"/>
<feBlend mode="normal" in2="effect1_dropShadow_1279_497" result="effect2_dropShadow_1279_497"/>
<feBlend mode="normal" in="SourceGraphic" in2="effect2_dropShadow_1279_497" result="shape"/>
</filter>
</defs>
</svg>
