<svg width="148" height="39" viewBox="0 0 148 39" fill="none" xmlns="http://www.w3.org/2000/svg">
<g clip-path="url(#clip0_1280_710)">
<mask id="mask0_1280_710" style="mask-type:luminance" maskUnits="userSpaceOnUse" x="0" y="0" width="148" height="39">
<path d="M147.305 0.329102H0.6875V38.62H147.305V0.329102Z" fill="white"/>
</mask>
<g mask="url(#mask0_1280_710)">
<path d="M69.7259 11.6199C68.9452 11.5953 68.3109 12.2089 68.2865 12.9698C68.2865 12.9944 68.2865 13.0435 68.2865 13.068V20.039C64.9443 17.339 60.0408 17.8789 57.3573 21.2416C56.2595 22.6408 55.6496 24.359 55.6496 26.1508C55.5764 30.4708 58.9918 34.0298 63.2854 34.1035C67.579 34.1771 71.1163 30.7408 71.1896 26.4208C71.1896 26.3226 71.1896 26.249 71.1896 26.1508V13.068C71.1896 12.6753 71.043 12.3071 70.7752 12.0371C70.482 11.7671 70.1162 11.6199 69.7259 11.6199ZM67.8962 28.0408C67.4083 29.2189 66.4812 30.1517 65.3103 30.6671C64.0905 31.1825 62.7243 31.1825 61.5045 30.6671C60.3336 30.1762 59.4309 29.2189 58.943 28.0653C58.4307 26.8625 58.4307 25.488 58.943 24.2607C59.4309 23.0826 60.358 22.1499 61.5045 21.6589C62.7243 21.1434 64.0905 21.1434 65.3103 21.6589C66.4812 22.1744 67.4083 23.1071 67.8962 24.2853C68.4085 25.4635 68.4085 26.838 67.8962 28.0408Z" fill="#0092E6"/>
<path d="M85.951 20.6274C82.9261 17.5838 77.9984 17.5838 74.9736 20.6274C73.5098 22.1002 72.7043 24.0884 72.7043 26.1502C72.631 30.4702 76.047 34.0293 80.3404 34.1029C84.6338 34.1765 88.171 30.7402 88.2443 26.4202C88.2443 26.322 88.2443 26.2483 88.2443 26.1502C88.2443 25.1193 88.0491 24.1129 87.6593 23.1556C87.2689 22.1984 86.6832 21.3392 85.951 20.6274ZM84.9509 28.0156C84.7071 28.6047 84.3413 29.1202 83.9022 29.562C83.4632 30.0038 82.9262 30.372 82.3652 30.6175C81.1452 31.1329 79.7794 31.1329 78.5594 30.6175C77.3881 30.1265 76.4614 29.1692 75.9737 28.0156C75.4613 26.8129 75.4613 25.4383 75.9737 24.2111C76.4614 23.0329 77.3881 22.1247 78.5594 21.6093C79.7794 21.0938 81.1452 21.0938 82.3652 21.6093C82.9508 21.8547 83.4632 22.2229 83.9022 22.6647C84.3413 23.1066 84.7071 23.6465 84.9509 24.2111C85.4633 25.4629 85.4633 26.8375 84.9509 28.0156Z" fill="#0092E6"/>
<path d="M118.083 19.7692C118.083 19.5729 118.034 19.3765 117.961 19.2046C117.887 19.0328 117.765 18.8855 117.643 18.7383C117.522 18.6156 117.35 18.4928 117.18 18.4192C117.009 18.3456 116.814 18.2965 116.619 18.2965C116.35 18.2965 116.082 18.3701 115.838 18.5174L107.544 23.9419V13.0928C107.544 12.7001 107.397 12.3319 107.128 12.062C106.861 11.7919 106.494 11.6201 106.104 11.6201C105.299 11.6201 104.665 12.2583 104.641 13.0683C104.641 13.0683 104.641 13.0683 104.641 13.0928V32.4838C104.641 32.8765 104.787 33.2447 105.055 33.5146C105.324 33.8092 105.689 33.9565 106.08 33.9565C106.47 33.9565 106.836 33.8092 107.104 33.5146C107.373 33.2447 107.544 32.8765 107.519 32.4838V27.4519L109.203 26.3474L115.619 33.5883C115.887 33.8337 116.228 33.981 116.594 33.9565C116.789 33.9565 116.985 33.9319 117.155 33.8337C117.326 33.7601 117.472 33.6619 117.619 33.5146C117.741 33.3674 117.863 33.2201 117.936 33.0483C118.009 32.8765 118.058 32.6801 118.058 32.4838C118.058 32.1155 117.911 31.7474 117.667 31.4774L111.715 24.7274L117.522 20.9228C117.911 20.6774 118.107 20.2356 118.083 19.7692Z" fill="#0092E6"/>
<path d="M94.0056 22.6657C94.4446 22.2238 94.9817 21.8557 95.5673 21.6102C96.1769 21.3647 96.8112 21.2175 97.4702 21.2175C98.0558 21.2175 98.6168 21.3156 99.1532 21.512C99.6902 21.7329 100.203 22.0275 100.642 22.4202C100.91 22.6411 101.251 22.7393 101.593 22.7393C101.983 22.7638 102.373 22.6165 102.642 22.322C102.91 22.052 103.057 21.6592 103.057 21.2666C103.057 20.8493 102.886 20.432 102.544 20.162C101.154 18.9102 99.3484 18.2229 97.4702 18.272C93.1761 18.272 89.6875 21.782 89.6875 26.102C89.6875 30.422 93.1521 33.9074 97.4209 33.932C99.2997 33.932 101.105 33.2693 102.52 32.042C102.812 31.772 102.984 31.3793 102.984 30.962C103.008 30.1766 102.398 29.5384 101.642 29.5138C101.617 29.5138 101.568 29.5138 101.544 29.5138C101.203 29.5138 100.885 29.612 100.617 29.8083C100.178 30.2011 99.6902 30.4957 99.1532 30.7165C98.6168 30.9129 98.0312 31.0111 97.4702 31.0111C96.8112 31.0111 96.1769 30.8883 95.5673 30.6183C94.9817 30.3729 94.4693 30.0047 94.0056 29.5629C92.1027 27.6484 92.1027 24.5556 93.9816 22.6411C94.0056 22.6902 94.0056 22.6902 94.0056 22.6657Z" fill="#0092E6"/>
<path d="M146.892 19.302C146.599 19.032 146.282 18.8356 145.916 18.7129C145.501 18.5656 145.062 18.4675 144.623 18.4183C144.184 18.3693 143.744 18.3447 143.305 18.3447C142.427 18.3447 141.524 18.492 140.695 18.8111C139.865 19.1056 139.109 19.5474 138.426 20.0875V19.7929C138.402 18.9829 137.719 18.3693 136.914 18.3938C136.158 18.4183 135.548 19.032 135.523 19.7929V32.532C135.548 33.342 136.231 33.9556 137.036 33.931C137.792 33.9065 138.402 33.2929 138.426 32.532V26.1747C138.426 25.512 138.548 24.8738 138.817 24.2602C139.061 23.6711 139.402 23.1556 139.865 22.7138C140.305 22.272 140.842 21.9038 141.403 21.6583C142.013 21.4129 142.647 21.2656 143.305 21.2656C143.964 21.2656 144.599 21.3884 145.208 21.6092C145.403 21.7074 145.599 21.7565 145.819 21.7565C146.014 21.7565 146.208 21.732 146.38 21.6338C146.55 21.5602 146.697 21.462 146.843 21.3147C146.965 21.192 147.087 21.0202 147.16 20.8483C147.233 20.6765 147.282 20.4802 147.282 20.2838C147.306 19.9156 147.16 19.5719 146.892 19.302Z" fill="#0092E6"/>
<path d="M133.424 23.1556C132.18 20.2593 129.35 18.3693 126.227 18.3447C121.934 18.3447 118.47 21.8302 118.445 26.1502C118.445 30.4702 121.934 33.9802 126.227 33.9802C128.082 33.9802 129.887 33.3175 131.302 32.0902C131.326 32.0656 131.35 32.0411 131.35 32.0411C131.473 31.9429 131.595 31.8201 131.667 31.6729C132.131 30.9856 131.961 30.0774 131.302 29.611C130.741 29.2429 130.009 29.3165 129.521 29.7829C129.472 29.832 129.325 29.9547 129.325 29.9793L129.301 30.0038C128.886 30.3474 128.423 30.642 127.911 30.8138C127.374 31.0102 126.813 31.1084 126.227 31.0838C125.691 31.0838 125.179 31.0102 124.666 30.8383C124.179 30.6665 123.715 30.4456 123.3 30.1266C122.885 29.832 122.52 29.4638 122.226 29.0465C121.909 28.6292 121.69 28.1383 121.543 27.6474H132.522C132.912 27.6474 133.278 27.5002 133.546 27.2301C133.839 26.9602 133.985 26.592 133.961 26.1993C133.985 25.1438 133.79 24.1129 133.424 23.1556ZM121.543 24.7265C121.69 24.211 121.909 23.7447 122.226 23.3274C122.52 22.9101 122.885 22.542 123.3 22.2474C123.715 21.9529 124.179 21.7074 124.666 21.5356C125.154 21.3638 125.691 21.2901 126.203 21.2901C126.716 21.2901 127.252 21.3638 127.74 21.5356C128.716 21.8547 129.57 22.4929 130.18 23.3274C130.497 23.7447 130.716 24.2356 130.887 24.7265H121.543Z" fill="#0092E6"/>
<path d="M141.938 31.8457C141.377 31.8457 140.938 32.3121 140.938 32.8766C140.938 33.4412 141.401 33.883 141.962 33.883C142.523 33.883 142.962 33.4166 142.962 32.8766C142.962 32.2875 142.499 31.8457 141.938 31.8457ZM141.938 33.662C141.498 33.6866 141.133 33.3429 141.108 32.9012C141.083 32.4593 141.425 32.0911 141.864 32.0666C142.303 32.0421 142.669 32.3857 142.694 32.8275C142.694 32.852 142.694 32.852 142.694 32.8766C142.718 33.2939 142.377 33.662 141.962 33.662C141.962 33.662 141.962 33.662 141.938 33.662Z" fill="#0092E6"/>
<path d="M142.181 32.876C142.303 32.8514 142.376 32.7532 142.376 32.6305C142.376 32.5324 142.352 32.4587 142.278 32.4096C142.181 32.3605 142.059 32.3359 141.937 32.3359C141.815 32.3359 141.669 32.3359 141.547 32.3605V33.3669H141.766V32.9741H141.864C141.986 32.9741 142.059 33.0233 142.083 33.1214C142.108 33.1951 142.133 33.2932 142.156 33.3669H142.4C142.352 33.2932 142.328 33.1951 142.328 33.1214C142.352 33.0233 142.278 32.9251 142.181 32.876ZM141.889 32.8023H141.766V32.5077C141.815 32.5077 141.864 32.5077 141.889 32.5077C142.035 32.5077 142.108 32.5814 142.108 32.655C142.133 32.7532 142.011 32.8268 141.889 32.8023Z" fill="#0092E6"/>
<path d="M52.9941 14.9088C52.8477 14.786 51.5303 13.7797 48.7005 13.7797C47.9686 13.7797 47.2123 13.8533 46.4804 13.9761C45.9437 10.2206 42.8455 8.40423 42.7235 8.30609L41.9672 7.86426L41.4793 8.57604C40.8694 9.53332 40.4059 10.6133 40.1375 11.7179C39.6252 13.8533 39.9424 15.8661 41.0158 17.5843C39.7229 18.3206 37.6248 18.4925 37.1857 18.517H2.54394C1.6413 18.517 0.909434 19.2533 0.909434 20.1615C0.860643 23.2052 1.37295 26.2488 2.42196 29.1206C3.61735 32.2624 5.39822 34.5942 7.69142 36.0179C10.2773 37.6133 14.4978 38.5215 19.2549 38.5215C21.4017 38.5215 23.5486 38.3252 25.671 37.9324C28.6229 37.3924 31.4528 36.3616 34.063 34.8642C36.2099 33.6124 38.1371 32.017 39.7716 30.1516C42.5284 27.0342 44.1628 23.5488 45.3582 20.4561C45.529 20.4561 45.6753 20.4561 45.8462 20.4561C48.8468 20.4561 50.7009 19.2533 51.7255 18.2224C52.4086 17.5843 52.9209 16.7988 53.2868 15.9151L53.5064 15.277L52.9941 14.9088Z" fill="#0092E6"/>
<path d="M5.76629 17.5112H10.4014C10.621 17.5112 10.8162 17.3394 10.8162 17.0939V12.9212C10.8162 12.7003 10.6454 12.5039 10.4014 12.5039H5.76629C5.54673 12.5039 5.35156 12.6757 5.35156 12.9212V17.0939C5.37596 17.3394 5.54673 17.5112 5.76629 17.5112Z" fill="#0092E6"/>
<path d="M12.1569 17.5112H16.7921C17.0116 17.5112 17.2068 17.3394 17.2068 17.0939V12.9212C17.2068 12.7003 17.0361 12.5039 16.7921 12.5039H12.1569C11.9373 12.5039 11.7422 12.6757 11.7422 12.9212V17.0939C11.7666 17.3394 11.9373 17.5112 12.1569 17.5112Z" fill="#0092E6"/>
<path d="M18.6725 17.5112H23.3076C23.5272 17.5112 23.7224 17.3394 23.7224 17.0939V12.9212C23.7224 12.7003 23.5516 12.5039 23.3076 12.5039H18.6725C18.453 12.5039 18.2578 12.6757 18.2578 12.9212V17.0939C18.2578 17.3394 18.4286 17.5112 18.6725 17.5112Z" fill="#0092E6"/>
<path d="M25.0866 17.5112H29.7217C29.9413 17.5112 30.1365 17.3394 30.1365 17.0939V12.9212C30.1365 12.7003 29.9657 12.5039 29.7217 12.5039H25.0866C24.867 12.5039 24.6719 12.6757 24.6719 12.9212V17.0939C24.6719 17.3394 24.867 17.5112 25.0866 17.5112Z" fill="#0092E6"/>
<path d="M12.1569 11.5464H16.7921C17.0116 11.5464 17.2068 11.35 17.2068 11.1291V6.95634C17.2068 6.73543 17.0361 6.53906 16.7921 6.53906H12.1569C11.9373 6.53906 11.7422 6.71088 11.7422 6.95634V11.1291C11.7666 11.35 11.9373 11.5464 12.1569 11.5464Z" fill="#0092E6"/>
<path d="M18.6725 11.5464H23.3076C23.5272 11.5464 23.7224 11.35 23.7224 11.1291V6.95634C23.7224 6.73543 23.5516 6.53906 23.3076 6.53906H18.6725C18.453 6.53906 18.2578 6.71088 18.2578 6.95634V11.1291C18.2578 11.35 18.4286 11.5464 18.6725 11.5464Z" fill="#0092E6"/>
<path d="M25.0866 11.5464H29.7217C29.9413 11.5464 30.1365 11.35 30.1365 11.1291V6.95634C30.1365 6.73543 29.9413 6.53906 29.7217 6.53906H25.0866C24.867 6.53906 24.6719 6.71088 24.6719 6.95634V11.1291C24.6719 11.35 24.867 11.5464 25.0866 11.5464Z" fill="#0092E6"/>
<path d="M25.0866 5.55708H29.7217C29.9413 5.55708 30.1365 5.38526 30.1365 5.1398V0.967081C30.1365 0.746171 29.9413 0.549805 29.7217 0.549805H25.0866C24.867 0.549805 24.6719 0.721622 24.6719 0.967081V5.1398C24.6719 5.36071 24.867 5.55708 25.0866 5.55708Z" fill="#0092E6"/>
<path d="M31.5476 17.5112H36.1827C36.4022 17.5112 36.5975 17.3394 36.5975 17.0939V12.9212C36.5975 12.7003 36.4267 12.5039 36.1827 12.5039H31.5476C31.328 12.5039 31.1328 12.6757 31.1328 12.9212V17.0939C31.1572 17.3394 31.328 17.5112 31.5476 17.5112Z" fill="#0092E6"/>
</g>
</g>
<defs>
<clipPath id="clip0_1280_710">
<rect width="148" height="39" fill="white"/>
</clipPath>
</defs>
</svg>
