<svg width="52" height="52" viewBox="0 0 52 52" fill="none" xmlns="http://www.w3.org/2000/svg">
<g clip-path="url(#clip0_167_6679)">
<path d="M38.1489 51.1612H3.81137C2.16098 51.1612 0.839844 49.8192 0.839844 48.1418V3.85806C0.839844 2.18064 2.16098 0.838623 3.81137 0.838623H38.067C39.7174 0.838623 41.0385 2.18064 41.0385 3.85806V48.2257C41.0385 49.8192 39.7174 51.1612 38.1489 51.1612Z" fill="white"/>
<path d="M38.1478 52H3.81023C1.70936 52 0 50.2698 0 48.1419V3.85815C0 1.73025 1.70936 0 3.81023 0H38.0659C40.1667 0 41.8761 1.73025 41.8761 3.85815V48.2258C41.8761 50.2714 40.1692 52 38.1478 52ZM3.81023 1.67742C2.61442 1.67742 1.67742 2.6353 1.67742 3.85815V48.1419C1.67742 49.3647 2.61442 50.3226 3.81023 50.3226H38.1478C39.2592 50.3226 40.1979 49.3622 40.1979 48.2258V3.85815C40.1979 2.6353 39.2609 1.67742 38.0646 1.67742H3.81023Z" fill="#024430"/>
<path d="M5.29688 5.11792H36.9893V46.8814H5.29688V5.11792Z" fill="white"/>
<path d="M37.8308 47.7201H4.46094V4.28003H37.8308V47.7201ZM6.13836 46.0427H36.1534V5.95745H6.13836V46.0427Z" fill="#024430"/>
<path d="M20.4093 14.4333L16.0933 10.5919L11.7773 14.4333V0.935303H20.4093V14.4333Z" fill="#AEE6B9"/>
<path d="M20.4082 15.2721C20.2067 15.2721 20.0073 15.1992 19.8504 15.06L16.0922 11.7149L12.334 15.06C12.0866 15.2795 11.7324 15.3352 11.433 15.1984C11.132 15.0632 10.9375 14.7631 10.9375 14.4334V0.934169C10.9375 0.470585 11.313 0.095459 11.7762 0.095459H20.409C20.8722 0.095459 21.2477 0.470585 21.2477 0.934169V14.4334C21.2477 14.7639 21.054 15.0632 20.7522 15.1984C20.642 15.2487 20.5249 15.2721 20.4082 15.2721ZM16.0922 9.75332C16.2916 9.75332 16.4907 9.82375 16.65 9.96545L19.5695 12.5647V1.77288H12.6141V12.5639L15.5336 9.96463C15.6937 9.82375 15.8928 9.75332 16.0922 9.75332Z" fill="#024430"/>
<path d="M11.6367 25.7249H30.658V27.4023H11.6367V25.7249Z" fill="#024430"/>
<path d="M11.6328 32.7473H30.659V34.4247H11.6328V32.7473Z" fill="#024430"/>
<path d="M11.6367 39.3657H30.658V41.0431H11.6367V39.3657Z" fill="#024430"/>
<path d="M11.6367 18.5332H30.658V20.2106H11.6367V18.5332Z" fill="#024430"/>
<path d="M51.163 29.1611C51.163 24.171 47.182 20.1257 42.271 20.1257C37.3599 20.1257 33.3789 24.171 33.3789 29.1611C33.3789 34.1512 37.3599 38.1965 42.271 38.1965C47.182 38.1965 51.163 34.1512 51.163 29.1611V29.1611Z" fill="white"/>
<path d="M42.2667 39.0352C36.9015 39.0352 32.5352 34.6062 32.5352 29.1611C32.5352 23.7169 36.9007 19.2878 42.2667 19.2878C47.6327 19.2878 51.9983 23.716 51.9983 29.1611C51.9983 34.6062 47.6327 39.0352 42.2667 39.0352V39.0352ZM42.2667 20.9644C37.8258 20.9644 34.2126 24.6412 34.2126 29.1603C34.2126 33.679 37.8258 37.357 42.2667 37.357C46.7076 37.357 50.3209 33.6802 50.3209 29.1611C50.3209 24.642 46.7076 20.9644 42.2667 20.9644V20.9644Z" fill="#024430"/>
<path d="M48.6441 29.1611C48.6441 25.5605 45.7893 22.6418 42.2674 22.6418C38.7454 22.6418 35.8906 25.5605 35.8906 29.1611C35.8906 32.7616 38.7454 35.6803 42.2674 35.6803C45.7893 35.6803 48.6441 32.7616 48.6441 29.1611V29.1611Z" fill="#06D6A0"/>
<path d="M41.5039 24.0649H43.1813V34.2564H41.5039V24.0649Z" fill="white"/>
<path d="M42.3434 35.096C42.3369 35.096 42.3303 35.096 42.3242 35.096C42.1002 35.0899 41.888 34.9961 41.7345 34.8335L38.1523 31.0483L39.3703 29.895L42.3713 33.0652L45.6934 29.8672L46.8568 31.0757L42.925 34.8609C42.7689 35.0121 42.5609 35.096 42.3434 35.096V35.096Z" fill="white"/>
</g>
<defs>
<clipPath id="clip0_167_6679">
<rect width="52" height="52" fill="white"/>
</clipPath>
</defs>
</svg>
