<svg width="102" height="35" viewBox="0 0 102 35" fill="none" xmlns="http://www.w3.org/2000/svg">
<g clip-path="url(#clip0_1279_487)">
<path d="M17.4787 20.1558C19.0892 20.1558 20.3948 18.8554 20.3948 17.2513C20.3948 15.6471 19.0892 14.3467 17.4787 14.3467C15.8682 14.3467 14.5625 15.6471 14.5625 17.2513C14.5625 18.8554 15.8682 20.1558 17.4787 20.1558Z" fill="#E90052"/>
<path d="M51.3058 7.68298C49.7705 7.66951 48.2554 8.03131 46.8932 8.73668C45.531 9.44205 44.3632 10.4693 43.4924 11.7287C42.6214 12.9882 42.074 14.4411 41.8979 15.9602C41.7218 17.4792 41.9224 19.0182 42.4823 20.4421C43.0422 21.866 43.9441 23.1314 45.1091 24.1275C46.2742 25.1234 47.6666 25.8197 49.1644 26.155C50.6625 26.4903 52.22 26.4546 53.7009 26.051C55.1817 25.6473 56.5406 24.8881 57.6584 23.8398V25.5333H60.6015V17.4765C60.609 17.3032 60.6134 17.1286 60.6119 16.9524C60.5827 14.503 59.5929 12.1622 57.854 10.4301C56.115 8.69801 53.7648 7.71206 51.3058 7.68298ZM51.3463 23.4739C50.0568 23.4981 48.7894 23.1377 47.7072 22.4391C46.6248 21.7406 45.7769 20.7357 45.2722 19.5536C44.7676 18.3714 44.6293 17.066 44.8749 15.805C45.1208 14.5439 45.7395 13.3848 46.6515 12.4766C47.5635 11.5683 48.7274 10.9524 49.9935 10.7079C51.2595 10.4635 52.5701 10.6016 53.7568 11.1045C54.9435 11.6074 55.9522 12.4523 56.6533 13.5306C57.3545 14.6087 57.7159 15.871 57.6913 17.1554C57.6913 17.2197 57.6913 17.2823 57.6823 17.3451H57.6598V17.6602C57.5001 19.2296 56.77 20.6867 55.607 21.7574C54.4439 22.8281 52.9281 23.4386 51.3447 23.4739H51.3463Z" fill="#38003C"/>
<path d="M71.8082 7.68296C69.3772 7.6584 67.032 8.57753 65.2698 10.2456V2.0918H62.3281V17.345H62.3446C62.4061 19.1766 63.0065 20.9495 64.0713 22.444C65.1361 23.9383 66.6183 25.0881 68.3337 25.7505C70.049 26.4128 71.922 26.5584 73.7198 26.1693C75.5177 25.7803 77.1611 24.8735 78.4458 23.5617C79.7304 22.2501 80.5998 20.5913 80.946 18.7916C81.2922 16.9918 81.0998 15.1304 80.3927 13.4387C79.6854 11.747 78.4947 10.2996 76.9686 9.27625C75.4423 8.25296 73.648 7.69891 71.8082 7.68296ZM71.8442 23.4739C70.1633 23.5058 68.5359 22.8843 67.3072 21.7414C66.0784 20.5983 65.345 19.0236 65.2622 17.351V16.6955C65.3285 15.4429 65.7603 14.237 66.5049 13.2256C67.2494 12.2142 68.2743 11.4412 69.4536 11.0017C70.6329 10.5621 71.9154 10.4751 73.1437 10.7514C74.372 11.0274 75.4926 11.6549 76.368 12.5564C77.2434 13.4578 77.8355 14.5944 78.0716 15.8262C78.3077 17.0582 78.1776 18.332 77.6972 19.4914C77.2169 20.6507 76.4071 21.6451 75.3673 22.3526C74.3276 23.06 73.1031 23.4497 71.8442 23.4739Z" fill="#38003C"/>
<path d="M92.3125 7.68129C91.0654 7.67034 89.8302 7.90678 88.6756 8.37684C87.5228 8.84688 86.4745 9.54116 85.5927 10.4191C84.712 11.2969 84.0146 12.341 83.5422 13.49C83.0707 14.6391 82.833 15.8704 82.8439 17.1119C82.8439 17.1895 82.8439 17.2612 82.8439 17.3433H82.8281V32.5981H85.7691V23.8022C86.8791 24.8496 88.2291 25.6111 89.7016 26.0204C91.1742 26.4297 92.7248 26.4745 94.2179 26.1508C95.7119 25.8271 97.1039 25.1447 98.2722 24.163C99.4414 23.1813 100.352 21.9301 100.923 20.5181C101.496 19.1062 101.714 17.5763 101.557 16.0616C101.4 14.5469 100.874 13.0933 100.025 11.8272C99.1756 10.561 98.0288 9.52076 96.6839 8.79694C95.3382 8.07308 93.8365 7.68752 92.3074 7.67383L92.3125 7.68129ZM92.3545 23.4722C90.6771 23.5039 89.0528 22.8851 87.8254 21.7467C86.5979 20.6081 85.8616 19.0389 85.7742 17.3703V17.3433C85.7742 17.194 85.7631 17.0552 85.7742 16.9088C85.7999 15.6456 86.1976 14.4177 86.9185 13.3781C87.6385 12.3383 88.6499 11.5327 89.8268 11.0613C91.0045 10.5899 92.2945 10.4735 93.5374 10.7268C94.7802 10.98 95.9202 11.5916 96.8168 12.4856C97.7134 13.3795 98.3254 14.5161 98.5791 15.7543C98.8319 16.9924 98.7136 18.2772 98.2388 19.4489C97.7648 20.6205 96.9539 21.6274 95.9091 22.3441C94.8651 23.0608 93.6316 23.4556 92.3639 23.4796L92.3545 23.4722Z" fill="#38003C"/>
<path d="M17.4746 7.65449e-06C14.8253 -0.00247009 12.2102 0.596613 9.82812 1.75172V5.49261C11.9504 4.1431 14.3946 3.37923 16.9105 3.27914C19.4264 3.17903 21.9239 3.74629 24.1475 4.9229C26.3711 6.09949 28.2411 7.84323 29.5663 9.97568C30.8914 12.1083 31.6242 14.5531 31.6895 17.0603V27.5826C33.5652 24.9786 34.6836 21.9099 34.9217 18.714C35.1598 15.518 34.5084 12.3185 33.039 9.46733C31.5696 6.61627 29.3394 4.22402 26.5934 2.55374C23.8474 0.883434 20.6921 -0.000200087 17.4746 7.65449e-06Z" fill="#38003C"/>
<path d="M17.4771 31.5811C13.8251 31.581 10.3134 30.1804 7.67052 27.6702C5.02773 25.1598 3.45657 21.7323 3.28317 18.099H3.2667V7.26758C0.711107 10.825 -0.407453 15.2097 0.133038 19.5507C0.673528 23.8917 2.83362 27.8714 6.18427 30.6992C9.53494 33.527 13.8309 34.9959 18.2187 34.8144C22.6066 34.6328 26.7653 32.8138 29.8689 29.7189V24.3576C28.6334 26.5492 26.8341 28.3736 24.6563 29.6431C22.4785 30.9125 20.0005 31.5816 17.4771 31.5811Z" fill="#38003C"/>
<path d="M17.4728 21.8848C16.4162 21.8858 15.3899 21.5334 14.5583 20.8843V24.2145C16.0744 24.8357 17.7508 24.9549 19.3402 24.5549C20.9297 24.1549 22.3479 23.2566 23.3858 21.9926C24.4236 20.7286 25.0262 19.1657 25.1045 17.5346C25.1828 15.9036 24.7328 14.2907 23.8207 12.9338C22.9087 11.5768 21.5831 10.5479 20.0392 9.99858C18.4953 9.44925 16.815 9.40871 15.2463 9.88291C13.6775 10.357 12.3034 11.321 11.3264 12.6322C10.3494 13.9436 9.82143 15.5329 9.82031 17.1658V26.9578C10.7094 27.6551 11.6901 28.2278 12.735 28.6602V17.1614C12.735 16.228 13.0129 15.3156 13.5335 14.5395C14.0541 13.7636 14.7941 13.1587 15.6597 12.8015C16.5255 12.4443 17.478 12.3509 18.3971 12.5329C19.3161 12.715 20.1604 13.1645 20.8229 13.8244C21.4856 14.4844 21.9368 15.3252 22.1195 16.2406C22.3025 17.1561 22.2085 18.1049 21.8501 18.9672C21.4914 19.8296 20.8841 20.5665 20.105 21.085C19.3259 21.6036 18.4099 21.8804 17.4728 21.8804V21.8848Z" fill="#38003C"/>
<path d="M8.00666 25.2038V17.2515C8.00754 15.2603 8.64103 13.3203 9.81652 11.7095C10.992 10.0987 12.6489 8.89978 14.5503 8.28426C16.4517 7.66877 18.4998 7.66834 20.4014 8.28305C22.303 8.89773 23.9605 10.0961 25.1367 11.7064C26.3127 13.3166 26.9471 15.2564 26.9488 17.2476C26.9505 19.239 26.3196 21.1798 25.1463 22.7922C23.973 24.4045 22.3176 25.6056 20.4171 26.2237C18.5166 26.8417 16.4685 26.8449 14.566 26.2327V29.2493C16.7113 29.7666 18.9563 29.7039 21.069 29.0676C23.1817 28.4313 25.0855 27.2444 26.5833 25.6297C28.0814 24.015 29.1191 22.0312 29.5894 19.8832C30.0597 17.7352 29.9455 15.5011 29.2586 13.4118C28.5717 11.3226 27.3369 9.45397 25.682 7.99922C24.0272 6.54447 22.0122 5.55639 19.8455 5.13711C17.6787 4.71783 15.439 4.8826 13.3577 5.61435C11.2763 6.34609 9.429 7.6183 8.00666 9.29938V5.2673V2.77637C6.95152 3.45308 5.97232 4.24061 5.08594 5.12544V17.6219C5.16869 20.4059 6.19847 23.0792 8.00666 25.2038Z" fill="#38003C"/>
</g>
<defs>
<clipPath id="clip0_1279_487">
<rect width="102" height="35" fill="white"/>
</clipPath>
</defs>
</svg>
