<svg width="105" height="24" viewBox="0 0 105 24" fill="none" xmlns="http://www.w3.org/2000/svg">
<g opacity="0.8">
<path d="M64.941 10.4474L59.3279 4.73207V4.69246C58.9864 4.36313 58.5345 4.1837 58.0675 4.19202C57.6005 4.20033 57.1549 4.39574 56.8246 4.73703C56.4943 5.07832 56.3052 5.53882 56.2971 6.0214C56.2891 6.50399 56.4627 6.97094 56.7814 7.32379L56.8198 7.35774L62.3508 13.1523H64.9684V10.4474H64.941Z" fill="#FFE7BB"/>
<path d="M65.9004 16.8192L71.5026 22.5346L71.5409 22.5742C71.8786 22.9224 72.3363 23.1177 72.8133 23.1172C73.2904 23.1167 73.7477 22.9203 74.0846 22.5714C74.4216 22.2225 74.6106 21.7495 74.6101 21.2566C74.6096 20.7636 74.4196 20.2911 74.0819 19.9429L74.049 19.9089L68.518 14.1143H65.9004V16.8192Z" fill="#FFE7BB"/>
<path d="M68.5016 13.1523L74.0326 7.35768L74.0709 7.32373C74.3896 6.97088 74.5633 6.50393 74.5552 6.02134C74.5472 5.53876 74.3581 5.07826 74.0278 4.73697C73.6975 4.39568 73.2519 4.20027 72.7849 4.19196C72.3179 4.18364 71.866 4.36307 71.5245 4.6924L71.4916 4.73201L65.9004 10.4474V13.1523H68.5016Z" fill="#FFE7BB"/>
<path d="M62.3244 14.1143L56.7989 19.9033L56.7605 19.9372C56.4228 20.2892 56.2343 20.7653 56.2363 21.2609C56.2374 21.5063 56.2851 21.7491 56.377 21.9754C56.4688 22.2017 56.6028 22.4071 56.7715 22.5799C56.9401 22.7526 57.14 22.8894 57.3598 22.9823C57.5796 23.0753 57.815 23.1226 58.0524 23.1215C58.5321 23.1194 58.9912 22.9205 59.3289 22.5686L59.3617 22.5289L64.9694 16.8192V14.1087H62.3463L62.3244 14.1143Z" fill="#FFE7BB"/>
<path d="M15.5676 20.2994L14.9049 10.4984C14.8283 9.36662 14.779 8.41594 14.779 7.43697C14.5709 8.49517 14.4176 9.13461 14.1109 10.2664L11.3016 20.2994H8.26773L5.73771 10.6795C5.50771 9.77971 5.19008 8.48951 5.02032 7.43131C5.02032 8.5178 4.97103 9.59863 4.89437 10.7304L4.28103 20.2994H0.732422L2.3753 1.95927H6.94796L9.26989 11.1435C9.52385 12.0992 9.72859 13.0683 9.88323 14.0464C10.0527 13.0414 10.272 12.046 10.5404 11.0643L12.939 1.95927H17.4843L19.0669 20.2994H15.5676ZM31.1091 20.9841C30.3331 20.672 29.6838 20.0949 29.2691 19.3487C29.0245 19.6071 28.7609 19.8455 28.4805 20.0617C27.6971 20.5826 26.7773 20.8414 25.8465 20.803C22.9386 20.803 21.356 19.2695 21.356 16.5816C21.356 13.4127 23.4753 11.9357 27.6372 11.9357H28.4039V11.3698C28.4039 9.86459 28.1191 9.36096 26.8705 9.36096C25.7753 9.36096 24.4938 9.92684 23.0919 10.8945L21.6352 8.35936C22.3058 7.91425 23.0153 7.53533 23.7546 7.2276C24.8802 6.70911 26.0982 6.43927 27.3305 6.43537C29.521 6.43537 31.0325 7.27853 31.5418 8.78376C31.7738 9.56914 31.852 10.3944 31.7718 11.2114L31.6951 15.7384C31.6951 17.2154 31.7718 17.8491 32.9218 18.7489L31.1091 20.9841ZM28.1958 14.386C25.8246 14.386 25.0031 14.8387 25.0031 16.4458C24.9812 16.666 25.0035 16.8885 25.0687 17.0993C25.1338 17.3102 25.2404 17.5049 25.3818 17.6712C25.5232 17.8375 25.6963 17.9718 25.8903 18.0657C26.0843 18.1596 26.295 18.2111 26.5091 18.217C26.8537 18.1998 27.191 18.1083 27.4994 17.9485C27.8078 17.7887 28.0804 17.564 28.2998 17.2889L28.3491 14.386H28.1958ZM39.0661 20.6163C37.3302 20.6163 35.9501 19.8241 35.5449 18.6357C35.3229 17.967 35.2445 17.2564 35.3149 16.5533V9.19686H34.0116V6.79187H35.3149C35.2873 5.72442 35.3294 4.65626 35.4409 3.59466L38.9128 2.70057C38.7791 4.05998 38.7115 5.42546 38.7102 6.79187H41.7714L40.9061 9.21949H38.7157V16.01C38.7157 17.7077 39.0223 18.1717 40.1942 18.1717C40.6127 18.1433 41.0255 18.0557 41.4209 17.9114L41.8535 20.0221C40.9716 20.4089 40.0242 20.6109 39.0661 20.6163ZM49.7612 9.87591C49.4585 9.69617 49.1136 9.6061 48.7646 9.61561C48.3562 9.63102 47.9564 9.74066 47.5945 9.93649C47.2325 10.1323 46.9175 10.4094 46.6726 10.7474V20.2994H43.25V11.2736C43.299 9.93495 43.1363 8.59696 42.7681 7.31248L45.8293 6.46932C46.1564 7.05692 46.3441 7.71627 46.3769 8.39331C47.1162 7.36341 48.1676 6.46932 49.4436 6.46932C49.8856 6.4533 50.3244 6.55255 50.7196 6.75792L49.7612 9.87591ZM53.3591 5.25834C53.0823 5.25686 52.8084 5.19904 52.5531 5.08818C52.2979 4.97732 52.0663 4.8156 51.8715 4.61224C51.6767 4.40888 51.5226 4.16788 51.418 3.90298C51.3134 3.63809 51.2603 3.35449 51.2617 3.06839C51.2675 2.48453 51.4964 1.92669 51.8985 1.51647C52.3006 1.10626 52.8434 0.876917 53.4084 0.878441C53.685 0.879164 53.9587 0.936553 54.2136 1.04729C54.4686 1.15802 54.6998 1.3199 54.8938 1.52356C55.0879 1.72722 55.2409 1.96861 55.3441 2.23378C55.4472 2.49895 55.4985 2.78262 55.4949 3.06839C55.4956 3.35763 55.4407 3.64413 55.3335 3.91129C55.2262 4.17844 55.0686 4.42092 54.87 4.62465C54.6713 4.82838 54.4354 4.9893 54.1761 5.09808C53.9167 5.20687 53.639 5.26134 53.3591 5.25834ZM51.6615 20.2994V7.02388L55.0841 6.458V20.2994H51.6615ZM77.4546 5.25834C77.178 5.25686 76.9044 5.199 76.6494 5.08807C76.3945 4.97714 76.1632 4.81533 75.9689 4.6119C75.7746 4.40847 75.621 4.16742 75.517 3.90255C75.4129 3.63769 75.3605 3.35423 75.3627 3.06839C75.367 2.48504 75.5947 1.9272 75.9959 1.51682C76.3972 1.10645 76.9393 0.876928 77.5039 0.878441C77.7805 0.879164 78.0542 0.936553 78.3091 1.04729C78.5641 1.15802 78.7953 1.3199 78.9893 1.52356C79.1833 1.72722 79.3364 1.96861 79.4395 2.23378C79.5427 2.49895 79.594 2.78262 79.5903 3.06839C79.5911 3.35763 79.5362 3.64413 79.4289 3.91129C79.3217 4.17844 79.1641 4.42092 78.9654 4.62465C78.7667 4.82838 78.5309 4.9893 78.2715 5.09808C78.0122 5.20687 77.7345 5.26134 77.4546 5.25834ZM75.757 20.2994V7.02388L79.1741 6.458V20.2994H75.757ZM90.7071 20.9841C89.9311 20.672 89.2818 20.0949 88.8671 19.3487C88.6237 19.6084 88.3599 19.8469 88.0785 20.0617C87.295 20.5826 86.3753 20.8414 85.4444 20.803C82.5366 20.803 80.9539 19.2695 80.9539 16.5816C80.9539 13.4127 83.0732 11.9357 87.2352 11.9357H88.0018V11.3698C88.0018 9.86459 87.7171 9.36096 86.4685 9.36096C85.3733 9.36096 84.0918 9.92684 82.6899 10.8945L81.2332 8.39897C81.9037 7.95386 82.6133 7.57494 83.3525 7.26721C84.4781 6.74872 85.6961 6.47888 86.9285 6.47498C89.119 6.47498 90.6304 7.31814 91.1397 8.82338C91.3717 9.60875 91.4499 10.434 91.3697 11.251L91.2931 15.778C91.2931 17.255 91.3697 17.8888 92.5198 18.7885L90.7071 20.9841ZM87.8047 14.386C85.4335 14.386 84.6175 14.8387 84.6175 16.4458C84.5947 16.6661 84.6165 16.889 84.6813 17.1002C84.7462 17.3114 84.8527 17.5065 84.9943 17.6729C85.1358 17.8394 85.3093 17.9737 85.5037 18.0674C85.698 18.161 85.9091 18.212 86.1235 18.217C86.4653 18.1974 86.7994 18.1049 87.1048 17.9452C87.4102 17.7854 87.6802 17.562 87.8978 17.2889L87.9471 14.386H87.8047ZM101.101 20.2994V11.5113C101.101 9.98343 100.844 9.53072 99.951 9.53072C99.0477 9.64453 98.2092 10.0738 97.5743 10.7474V20.2994H94.1517V10.4984C94.1682 9.4231 94.0128 8.35239 93.6917 7.32946L96.731 6.43537C97.0335 6.94783 97.2015 7.53296 97.2184 8.133C97.7007 7.76855 98.2036 7.43409 98.7243 7.1314C99.4562 6.7623 100.259 6.56886 101.074 6.56552C102.53 6.56552 103.812 7.35209 104.217 8.5178C104.41 9.13875 104.495 9.79013 104.469 10.4418V20.2994H101.101Z" fill="#FFE7BB"/>
</g>
</svg>
