<svg width="32" height="32" viewBox="0 0 32 32" fill="none" xmlns="http://www.w3.org/2000/svg">
<g clip-path="url(#clip0_501_32709)">
<path d="M25.4156 18.8455L19.7566 16.4453L16.0003 31.4839L12.2445 16.4453L6.64598 18.5822C6.05651 18.8072 5.67773 19.3042 5.67773 19.8518V31.4602H26.3229V20.0907C26.3229 19.5633 25.9713 19.0814 25.4156 18.8455V18.8455Z" fill="#AEE6B9"/>
<path d="M15.9989 31.9999C15.9452 31.9999 15.893 31.9916 15.8441 31.9762H5.67629C5.39075 31.9762 5.16016 31.7449 5.16016 31.4601V19.8517C5.16016 19.0889 5.67049 18.4008 6.46081 18.0999L12.0594 15.9628C12.197 15.9107 12.3509 15.9195 12.4815 15.987C12.6125 16.0551 12.708 16.1763 12.7436 16.32L15.9989 29.3542L19.2552 16.3205C19.2912 16.1738 19.3902 16.0511 19.5251 15.9833C19.6609 15.9162 19.8182 15.9112 19.957 15.9704L25.6153 18.3704C26.3575 18.6854 26.8376 19.3605 26.8376 20.0906V31.4601C26.8376 31.7449 26.607 31.9762 26.3214 31.9762H16.1536C16.1047 31.9916 16.0525 31.9999 15.9989 31.9999V31.9999ZM16.6657 30.9439H25.8053V20.0906C25.8053 19.7708 25.5783 19.4754 25.2123 19.3202L20.1098 17.1561L16.6657 30.9439ZM6.19241 30.9439H15.332L11.8827 17.135L6.82825 19.0642C6.44166 19.2118 6.19241 19.5208 6.19241 19.8517V30.9439Z" fill="#024430"/>
<path d="M17.3199 16.203C17.1805 16.0498 16.9761 15.9722 16.7697 15.9722H15.2299C15.0235 15.9722 14.8196 16.0493 14.6797 16.203C14.4635 16.4404 14.4325 16.7837 14.5857 17.0516L14.9895 17.6652C15.2604 18.077 15.3771 18.572 15.3194 19.0629L15.023 21.581L15.7818 23.6166C15.8557 23.8215 16.143 23.8215 16.2168 23.6166L16.9756 21.581L16.6792 19.0629C16.6215 18.5725 16.7387 18.077 17.0091 17.6652L17.4126 17.0516C17.5676 16.7837 17.5361 16.4404 17.3199 16.203Z" fill="white"/>
<path d="M15.9994 24.2867C15.9994 24.2867 15.9989 24.2867 15.9984 24.2867C15.6798 24.2867 15.4049 24.0921 15.2965 23.7917L14.4958 21.6451L14.8071 19.0029C14.8504 18.6335 14.7622 18.2592 14.5583 17.949L14.1546 17.3353C13.8693 16.8399 13.9338 16.2562 14.2983 15.8557C14.5288 15.6022 14.8686 15.4565 15.2302 15.4565H16.7695C17.1307 15.4565 17.4704 15.6022 17.7015 15.8562H17.702C18.0654 16.2562 18.1299 16.8394 17.8625 17.3081L17.4424 17.9495C17.238 18.2597 17.1498 18.6335 17.1937 19.0029L17.5044 21.6456L16.7022 23.7978C16.5934 24.0926 16.3179 24.2867 15.9994 24.2867ZM15.7335 23.4366C15.7325 23.4381 15.732 23.4397 15.7315 23.4412L15.7335 23.4366ZM16.2637 23.4308L16.2657 23.4361C16.2652 23.4344 16.2647 23.4329 16.2637 23.4308ZM15.5503 21.5175L15.9994 22.7227L16.4485 21.518L16.1672 19.1231C16.0949 18.5127 16.2415 17.8943 16.579 17.3812L16.982 16.768C17.0104 16.7166 16.9991 16.6178 16.9371 16.5503C16.9021 16.5117 16.8391 16.4888 16.769 16.4888H15.2297C15.1591 16.4888 15.0961 16.5122 15.0611 16.5508C14.9996 16.6186 14.9883 16.7171 15.0331 16.7955L15.4207 17.383C15.7572 17.8948 15.9038 18.5132 15.832 19.1236L15.5503 21.5175Z" fill="#024430"/>
<path d="M10.2852 8.20235V6.28073C10.2852 3.10608 12.8535 0.516113 16.0014 0.516113C19.1493 0.516113 21.7176 3.10608 21.7176 6.28073V8.20235C21.7176 11.377 19.1493 13.967 16.0014 13.967C12.8535 13.967 10.2852 11.377 10.2852 8.20235Z" fill="white"/>
<path d="M16.0014 14.4836C12.5649 14.4836 9.76953 11.6661 9.76953 8.20287V6.28125C9.76953 2.81754 12.5649 0 16.0014 0C19.4379 0 22.2332 2.81754 22.2332 6.28075V8.20237C22.2332 11.6661 19.4379 14.4836 16.0014 14.4836ZM16.0014 1.03226C13.1342 1.03226 10.8018 3.38685 10.8018 6.28075V8.20237C10.8018 11.0963 13.1347 13.4509 16.0014 13.4509C18.8681 13.4509 21.201 11.0968 21.201 8.20237V6.28075C21.201 3.38685 18.8686 1.03226 16.0014 1.03226Z" fill="#024430"/>
</g>
<defs>
<clipPath id="clip0_501_32709">
<rect width="32" height="32" fill="white"/>
</clipPath>
</defs>
</svg>
