<svg width="57" height="57" viewBox="0 0 57 57" fill="none" xmlns="http://www.w3.org/2000/svg">
<g clip-path="url(#clip0_1172_87)">
<mask id="mask0_1172_87" style="mask-type:luminance" maskUnits="userSpaceOnUse" x="0" y="0" width="57" height="57">
<path d="M57 0H0V57H57V0Z" fill="white"/>
</mask>
<g mask="url(#mask0_1172_87)">
<path d="M35.5467 56.005H20.8828L20.9591 50.9154C20.9591 47.088 24.6154 45.3278 26.6346 44.9068C27.2056 44.6392 29.8716 44.6007 30.4435 44.9068C32.4622 45.3278 36.1186 47.088 36.1186 50.9154V56.0814L35.5467 56.005Z" fill="white"/>
<path d="M36.124 56.9997C36.0836 56.9997 36.0432 56.9969 36.0028 56.9915L35.4906 56.9233H20.8882C20.6422 56.9233 20.4065 56.825 20.2337 56.6494C20.0609 56.474 19.9653 56.2365 19.9688 55.9901L20.0451 50.8999C20.0451 46.5595 23.9902 44.5434 26.3788 44.0209C27.2883 43.704 29.7612 43.6618 30.7255 44.024C33.115 44.5506 37.0443 46.5693 37.0443 50.9134V56.0803C37.0443 56.3451 36.9302 56.5978 36.73 56.7716C36.5617 56.9197 36.3458 56.9997 36.124 56.9997ZM21.8215 55.0846H35.2056V50.9134C35.2056 46.8831 30.4642 45.847 30.2622 45.8049C30.1756 45.7865 30.093 45.7568 30.0158 45.7156C29.606 45.562 27.4822 45.5728 27.0121 45.7447C26.9709 45.7596 26.8708 45.7954 26.8277 45.8035C26.6252 45.8461 21.8839 46.8822 21.8839 50.9125L21.8215 55.0846Z" fill="#373737"/>
<path d="M23.6875 53.2458L23.7221 50.9545C23.7221 48.3612 27.1679 47.612 27.202 47.6044L27.5176 47.5393L27.5966 47.5024C27.7811 47.4787 28.146 47.4473 28.625 47.4473C28.9967 47.4473 29.2651 47.4666 29.4205 47.4822L29.4968 47.5236L29.8855 47.6044C29.9197 47.612 33.3654 48.3603 33.3654 50.9132V53.2458H23.6875Z" fill="#5B92F2"/>
<path d="M32.3132 37.5832C32.3132 35.4698 30.6078 33.7559 28.5043 33.7559C26.4007 33.7559 24.6953 35.4698 24.6953 37.5832C24.6953 39.6972 26.4007 41.4106 28.5043 41.4106C30.6078 41.4106 32.3132 39.6972 32.3132 37.5832Z" fill="white"/>
<path d="M28.5018 42.3285C25.8945 42.3285 23.7734 40.2002 23.7734 37.5827C23.7734 34.9655 25.8945 32.8359 28.5018 32.8359C31.109 32.8359 33.23 34.9655 33.23 37.5827C33.23 40.2002 31.109 42.3285 28.5018 42.3285ZM28.5018 34.6747C26.9095 34.6747 25.6122 35.9796 25.6122 37.5827C25.6122 39.1852 26.9086 40.4897 28.5018 40.4897C30.0949 40.4897 31.3914 39.1852 31.3914 37.5827C31.3914 35.9796 30.0941 34.6747 28.5018 34.6747Z" fill="#373737"/>
<path d="M54.5931 56.005H39.9297L40.006 50.9154C40.006 47.088 43.6623 45.3278 45.681 44.9068C46.2521 44.6392 48.9181 44.6007 49.49 44.9068C51.5078 45.3278 55.1641 47.0871 55.1641 50.9144V56.0814L54.5931 56.005Z" fill="white"/>
<path d="M55.1617 57.0002C55.1214 57.0002 55.0809 56.9975 55.0396 56.9921L54.5292 56.9238H39.9273C39.6808 56.9238 39.4456 56.8256 39.2728 56.65C39.0999 56.4745 39.0043 56.237 39.0079 55.9906L39.0842 50.9005C39.0842 46.56 43.0292 44.544 45.4174 44.0215C46.3269 43.7036 48.7998 43.6615 49.7632 44.0255C52.1518 44.5512 56.0811 46.569 56.0811 50.9139V56.0808C56.0811 56.3457 55.9671 56.5984 55.7668 56.7731C55.5994 56.9203 55.3835 57.0002 55.1617 57.0002ZM40.8592 55.0852H54.2423V50.9139C54.2423 46.8837 49.5015 45.8476 49.2991 45.8054C49.2129 45.787 49.1289 45.7574 49.0517 45.7152C48.6436 45.5634 46.5199 45.5742 46.0498 45.7444C46.0086 45.76 45.9085 45.796 45.8654 45.804C45.6629 45.8467 40.922 46.8819 40.922 50.9131L40.8592 55.0852Z" fill="#373737"/>
<path d="M42.7266 53.2458L42.7615 50.9545C42.7615 48.3612 46.2064 47.612 46.241 47.6044L46.5566 47.5393L46.6365 47.5024C46.8214 47.4787 47.1864 47.4473 47.6644 47.4473C48.0348 47.4473 48.3024 47.4666 48.4576 47.4822L48.534 47.5236L48.9241 47.6044C48.9577 47.612 52.4036 48.3612 52.4036 50.9132V53.2458H42.7266Z" fill="#5B92F2"/>
<path d="M51.3519 37.5832C51.3519 35.4698 49.6469 33.7559 47.5429 33.7559C45.4393 33.7559 43.7344 35.4698 43.7344 37.5832C43.7344 39.6972 45.4393 41.4106 47.5429 41.4106C49.6469 41.4106 51.3519 39.6972 51.3519 37.5832Z" fill="white"/>
<path d="M47.5482 42.3285C44.9409 42.3285 42.8203 40.2002 42.8203 37.5827C42.8203 34.9655 44.9409 32.8359 47.5482 32.8359C50.1558 32.8359 52.2774 34.9655 52.2774 37.5827C52.2774 40.2002 50.1558 42.3285 47.5482 42.3285ZM47.5482 34.6747C45.9559 34.6747 44.6591 35.9796 44.6591 37.5827C44.6591 39.1852 45.955 40.4897 47.5482 40.4897C49.1418 40.4897 50.4387 39.1852 50.4387 37.5827C50.4378 35.9796 49.1418 34.6747 47.5482 34.6747Z" fill="#373737"/>
<path d="M16.5076 56.005H1.84375L1.92007 50.9154C1.92007 47.088 5.57639 45.3278 7.59556 44.9068C8.16609 44.6392 10.8326 44.6007 11.4041 44.9068C13.4232 45.3278 17.0795 47.088 17.0795 50.9154V56.0814L16.5076 56.005Z" fill="white"/>
<path d="M17.0762 57.0002C17.0358 57.0002 16.995 56.9975 16.9536 56.9921L16.4438 56.9238H1.84133C1.59488 56.9238 1.35966 56.8256 1.18682 56.65C1.014 56.4745 0.918385 56.237 0.921972 55.9906L0.998284 50.9005C0.998284 46.56 4.94325 44.544 7.33187 44.0215C8.24001 43.7036 10.7139 43.6615 11.6777 44.0255C14.0672 44.5512 17.9965 46.5699 17.9965 50.9139V56.0808C17.9965 56.3457 17.8824 56.5984 17.6818 56.7731C17.5135 56.9203 17.2975 57.0002 17.0762 57.0002ZM2.7746 55.0852H16.1578V50.9139C16.1578 46.8828 11.4164 45.8476 11.2144 45.8054C11.1278 45.787 11.0443 45.7574 10.9671 45.7152C10.5586 45.5634 8.4348 45.5742 7.96527 45.7444C7.924 45.76 7.82384 45.796 7.78029 45.804C7.57832 45.8467 2.837 46.8819 2.837 50.9131L2.7746 55.0852Z" fill="#373737"/>
<path d="M4.64062 53.2458L4.67564 50.9545C4.67564 48.3612 8.12056 47.612 8.15552 47.6044L8.47069 47.5393L8.55102 47.5024C8.73555 47.4787 9.1005 47.4473 9.57854 47.4473C9.94935 47.4473 10.2169 47.4666 10.3722 47.4822L10.4485 47.5236L10.8382 47.6044C10.8732 47.612 14.3181 48.3603 14.3181 50.9132V53.2458H4.64062Z" fill="#5B92F2"/>
<path d="M13.2663 37.5832C13.2663 35.4698 11.561 33.7559 9.45737 33.7559C7.35382 33.7559 5.64844 35.4698 5.64844 37.5832C5.64844 39.6972 7.35382 41.4106 9.45737 41.4106C11.561 41.4106 13.2663 39.6972 13.2663 37.5832Z" fill="white"/>
<path d="M9.45573 42.3285C6.84854 42.3285 4.72656 40.2002 4.72656 37.5827C4.72656 34.9655 6.84854 32.8359 9.45573 32.8359C12.063 32.8359 14.1841 34.9655 14.1841 37.5827C14.1841 40.2002 12.063 42.3285 9.45573 42.3285ZM9.45573 34.6747C7.86262 34.6747 6.56528 35.9796 6.56528 37.5827C6.56528 39.1852 7.86171 40.4897 9.45573 40.4897C11.048 40.4897 12.3453 39.1852 12.3453 37.5827C12.3453 35.9796 11.0489 34.6747 9.45573 34.6747Z" fill="#373737"/>
<path d="M19.7578 0.919922H52.4766V23.8845H19.7578V0.919922Z" fill="#5B92F2"/>
<path d="M52.4819 24.8033H19.7631C19.2545 24.8033 18.8438 24.3925 18.8438 23.8839V0.919357C18.8438 0.410747 19.2545 0 19.7631 0H52.4819C52.9906 0 53.4013 0.410747 53.4013 0.919357V23.8839C53.4013 24.3912 52.9906 24.8033 52.4819 24.8033ZM20.6825 22.9645H51.5626V1.83871H20.6825V22.9645Z" fill="#373737"/>
<path d="M22.5156 3.67773H49.7183V21.1262H22.5156V3.67773Z" fill="#5B92F2"/>
<path d="M34.5938 11.3164H36.4325V20.6837H34.5938V11.3164Z" fill="white"/>
<path d="M38.3047 14.6816H40.1434V20.6849H38.3047V14.6816Z" fill="white"/>
<path d="M41.8828 11.9082H43.7215V20.6842H41.8828V11.9082Z" fill="white"/>
<path d="M45.8906 4.8125H47.7294V20.6844H45.8906V4.8125Z" fill="white"/>
<path d="M24.5212 21.5981L20.2279 19.2584L18.0346 15.7718C17.3415 14.6706 16.1976 13.89 14.9048 13.7854C14.7948 13.776 14.6835 13.7715 14.5713 13.7715H9.07804C8.36296 13.7715 7.65867 13.9151 7.00503 14.189C6.38734 14.448 5.87155 14.9068 5.49178 15.4611C4.16976 17.3919 3.46094 19.6804 3.46094 22.0227V26.4768C3.46094 27.2987 4.01533 28.0453 4.81707 28.2082C5.91913 28.4322 6.88832 27.5914 6.88832 26.523V20.4076V30.4419H16.7831L16.8073 22.4964L16.8118 21.063L16.8073 22.4973L22.705 25.724C23.8973 26.2056 25.257 25.5852 25.6704 24.3458C26.0246 23.2869 25.4967 22.13 24.5212 21.5981Z" fill="#5B92F2"/>
<path d="M16.7815 31.3609H6.8858C6.37719 31.3609 5.96644 30.9502 5.96644 30.4415V29.0414C5.54267 29.1757 5.0848 29.2026 4.6314 29.1088C3.41981 28.8641 2.53906 27.7562 2.53906 26.4773V22.0241C2.53906 19.4838 3.29636 17.0346 4.73061 14.9422C5.23069 14.2123 5.89372 13.6588 6.64563 13.3428C7.41909 13.0174 8.23518 12.8535 9.07551 12.8535H14.5697C14.7057 12.8535 14.8417 12.8589 14.9768 12.8701C16.5031 12.9931 17.9364 13.8949 18.8105 15.2826L20.8763 18.5671L24.9591 20.7923C26.3633 21.5582 27.0285 23.1752 26.5415 24.6368C26.26 25.4789 25.6643 26.1464 24.8626 26.5159C24.0775 26.8799 23.163 26.9015 22.3586 26.576C22.3254 26.563 22.2931 26.5473 22.263 26.5298L17.721 24.0456L17.7017 30.4456C17.699 30.951 17.2882 31.3609 16.7815 31.3609ZM7.80517 29.5222H15.8652L15.8854 22.4928L15.8899 21.0586C15.8917 20.5513 16.3024 20.1424 16.8093 20.1424H16.8119C17.3192 20.1441 17.7286 20.5549 17.7286 21.0617V21.0644L17.7259 21.9514L23.0903 24.8859C23.4203 25.0076 23.7731 24.9919 24.0914 24.8437C24.428 24.6893 24.679 24.4078 24.7975 24.0532C24.9995 23.4472 24.6907 22.7384 24.0793 22.4048L19.786 20.0652C19.6481 19.9897 19.5323 19.8811 19.4479 19.7469L17.2533 16.2598C16.6867 15.3597 15.7795 14.7779 14.8278 14.7016C14.7416 14.694 14.655 14.6904 14.5688 14.6904H9.07467C8.48073 14.6904 7.90435 14.8071 7.35804 15.0361C6.93158 15.2143 6.54733 15.5416 6.24745 15.9792C5.02419 17.7659 4.37777 19.8555 4.37777 22.0224V26.4773C4.37777 26.879 4.64442 27.2359 4.99726 27.3068C5.33034 27.3738 5.56377 27.2359 5.67106 27.1475C5.8587 26.994 5.96644 26.7659 5.96644 26.5226V20.4068C5.96644 19.8986 6.37719 19.4874 6.8858 19.4874C7.39396 19.4874 7.80517 19.8986 7.80517 20.4068V29.5222Z" fill="#373737"/>
<path d="M15.928 6.67582C15.928 4.32447 14.0305 2.41797 11.6904 2.41797C9.35016 2.41797 7.45312 4.32447 7.45312 6.67582C7.45312 9.02718 9.35016 10.9333 11.6904 10.9333C14.0305 10.9333 15.928 9.02718 15.928 6.67582Z" fill="white"/>
<path d="M11.6878 11.8529C8.84443 11.8529 6.53125 9.53073 6.53125 6.67525C6.53125 3.82157 8.84534 1.49805 11.6878 1.49805C14.5308 1.49805 16.8448 3.82023 16.8448 6.67525C16.8448 9.52982 14.5316 11.8529 11.6878 11.8529ZM11.6878 3.33675C9.8585 3.33675 8.36996 4.8343 8.36996 6.67525C8.36996 8.51666 9.8585 10.0142 11.6878 10.0142C13.5175 10.0142 15.0061 8.51666 15.0061 6.67525C15.0061 4.8343 13.5175 3.33675 11.6878 3.33675Z" fill="#373737"/>
<path d="M21.6094 23.3685L29.7171 12.25L31.2016 13.3332L23.0943 24.4513L21.6094 23.3685Z" fill="#373737"/>
</g>
</g>
<defs>
<clipPath id="clip0_1172_87">
<rect width="57" height="57" fill="white"/>
</clipPath>
</defs>
</svg>
