<svg width="87" height="32" viewBox="0 0 87 32" fill="none" xmlns="http://www.w3.org/2000/svg">
<g opacity="0.75">
<path d="M86.7253 22.2235C86.3523 22.6658 86.0482 23.222 85.5935 23.5275C84.565 24.2205 83.525 23.8406 82.6084 22.5701C78.8 24.2768 75.5352 23.5609 73.4452 20.5624C72.511 19.2167 72.0277 17.5789 72.0722 15.909C72.1166 14.2391 72.6862 12.6328 73.6905 11.3449C74.7551 9.99009 76.2403 9.08113 77.8799 8.78093C79.5196 8.48072 81.2065 8.80889 82.6385 9.70662C83.7445 8.4908 84.6324 8.19748 85.6236 8.88442C86.074 9.19598 86.3681 9.75982 86.7324 10.2097L86.7253 22.2235ZM75.7805 16.1535C75.7974 17.0751 76.1558 17.9526 76.7782 18.5967C77.4005 19.2407 78.237 19.5996 79.107 19.5958C80.9072 19.5822 82.4277 17.9864 82.4176 16.1186C82.4076 14.2508 80.8813 12.6322 79.1113 12.6231C78.2284 12.6259 77.3826 12.9988 76.7585 13.6603C76.1344 14.3218 75.7828 15.2182 75.7805 16.1535ZM59.5054 23.3847V27.7312C59.5054 28.1112 59.5183 28.4911 59.5054 28.8711C59.4423 30.1705 58.5414 31.0778 57.315 31.093C56.0885 31.1082 55.1275 30.2085 55.0486 28.9455C54.9984 28.1385 55.0256 27.3239 55.0242 26.5139C55.0242 21.4986 55.0371 16.4833 55.0141 11.468C55.0141 10.3449 55.2379 9.39051 56.2349 8.84491C57.1859 8.3221 58.0666 8.50904 58.8929 9.22941C59.022 9.34035 59.372 9.26285 59.5771 9.16862C63.8661 7.1929 68.8163 9.81453 69.7544 14.6094C70.3167 17.4818 69.5852 20.0123 67.5382 21.9941C65.4497 24.0169 62.9839 24.5215 60.2728 23.6461C60.0619 23.5716 59.8611 23.5002 59.5054 23.3847ZM62.6138 12.5942C62.1542 12.5896 61.6983 12.6814 61.2723 12.8643C60.8463 13.0471 60.4587 13.3175 60.1318 13.6598C59.8048 14.0021 59.545 14.4095 59.3674 14.8586C59.1897 15.3077 59.0977 15.7897 59.0966 16.2766C59.0935 17.0078 59.2949 17.7235 59.6755 18.3334C60.0562 18.9433 60.5988 19.4201 61.235 19.7034C61.8712 19.9867 62.5724 20.0639 63.25 19.9253C63.9275 19.7867 64.5511 19.4384 65.042 18.9245C65.5329 18.4105 65.869 17.754 66.0079 17.0378C66.1468 16.3216 66.0823 15.5779 65.8224 14.9005C65.5626 14.2231 65.1191 13.6426 64.5481 13.2321C63.977 12.8216 63.3039 12.5996 62.6138 12.5942ZM41.8188 23.3847C41.8188 25.2737 41.8345 27.0443 41.8116 28.8148C41.8131 29.2878 41.6737 29.7492 41.4134 30.1334C41.153 30.5176 40.7849 30.805 40.3614 30.9547C39.4519 31.2586 38.5482 31.1431 37.9501 30.3164C37.5934 29.8196 37.3877 29.2195 37.3605 28.596C37.3175 22.7463 37.3361 16.8937 37.3333 11.0471C37.3333 10.0501 37.6991 9.27197 38.5525 8.81603C39.406 8.3601 40.2911 8.43913 41.0255 9.11087C41.4042 9.45586 41.671 9.25373 41.9909 9.11087C46.2569 7.24154 51.0278 9.77805 52.0176 14.4879C52.6358 17.418 51.9029 19.9743 49.81 21.9971C47.7172 24.0199 45.2944 24.4956 42.6177 23.6506C42.3868 23.5807 42.1645 23.5047 41.8188 23.3847ZM44.8526 19.953C45.5402 19.9563 46.2133 19.7434 46.7866 19.3414C47.36 18.9393 47.808 18.366 48.0738 17.6942C48.3396 17.0223 48.4113 16.282 48.2799 15.5669C48.1486 14.8518 47.8199 14.1941 47.3356 13.677C46.8513 13.1598 46.2331 12.8065 45.5593 12.6617C44.8854 12.5168 44.1861 12.587 43.5499 12.8634C42.9137 13.1397 42.3692 13.6098 41.9852 14.2142C41.6012 14.8185 41.395 15.5299 41.3927 16.2584C41.387 18.2432 42.9807 19.9454 44.8526 19.9591V19.953ZM19.7715 11.4255V3.44208C19.7743 1.89495 20.6709 0.891891 22.0307 0.891891C23.3906 0.891891 24.2699 1.9299 24.2699 3.46488C24.2699 8.40721 24.2799 13.3435 24.2613 18.2919C24.2613 18.9393 24.3717 19.3557 25.0143 19.6278C26.0629 20.0837 26.5234 21.2798 26.2049 22.3983C26.0562 22.9516 25.726 23.4306 25.2737 23.749C24.8214 24.0675 24.2768 24.2045 23.7377 24.1354C21.3407 23.8588 19.7959 22.0381 19.7758 19.4089C19.7543 16.7478 19.7715 14.0866 19.7715 11.4255ZM11.8003 16.3207L15.3362 19.7539C16.445 20.8314 16.5841 22.3269 15.6733 23.3786C14.7624 24.4303 13.3495 24.4075 12.2306 23.3315C10.4605 21.6354 8.6914 19.9383 6.92321 18.2402C5.77566 17.1368 5.76562 15.576 6.90743 14.462C8.6957 12.7153 10.4921 10.9751 12.2966 9.24157C13.3595 8.2218 14.7968 8.25675 15.6876 9.29172C16.5784 10.3267 16.4637 11.7826 15.4251 12.8115C14.2431 13.9818 13.0368 15.1262 11.8003 16.3207ZM29.1928 16.2706C29.1928 14.5243 29.1842 12.7751 29.1928 11.0319C29.2015 9.53185 30.1439 8.52575 31.5095 8.53487C32.8263 8.54247 33.7587 9.55464 33.763 11.0212C33.7716 14.541 33.7716 18.0598 33.763 21.5776C33.763 23.0685 32.7718 24.1613 31.4822 24.1506C30.1582 24.1339 29.2 23.0731 29.1871 21.5868C29.1857 19.8147 29.1928 18.0426 29.1928 16.2706ZM0.749396 7.00749C0.749396 5.84334 0.735051 4.67919 0.749396 3.51199C0.780953 1.89039 1.666 0.891891 3.02728 0.891891C4.42299 0.89949 5.32238 1.95574 5.33099 3.57734C5.33099 5.95732 5.33959 8.3373 5.33099 10.7203C5.34026 11.2303 5.19513 11.73 4.91686 12.1463C4.6386 12.5626 4.24182 12.8734 3.78466 13.0334C2.85945 13.3541 1.7951 13.0942 1.27727 12.2599C0.980819 11.7511 0.80739 11.1727 0.772347 10.5759C0.697756 9.39203 0.75083 8.19748 0.749396 7.00749Z" fill="#FFE7BB"/>
<path d="M5.21335 21.6233C5.21335 23.0869 4.36129 24.0246 3.02296 24.0231C1.74918 24.0231 0.839747 23.0474 0.83401 21.675C0.828272 20.3026 1.79652 19.2312 3.04878 19.2434C4.30104 19.2555 5.21048 20.2495 5.21335 21.6233Z" fill="#FFE7BB"/>
</g>
</svg>
