<svg width="183" height="40" viewBox="0 0 183 40" fill="none" xmlns="http://www.w3.org/2000/svg">
<g opacity="0.8" clip-path="url(#clip0_499_32543)">
<path opacity="0.25" d="M0.0664062 28.0591C0.0664062 27.1639 0.422124 26.3053 1.05531 25.6723C1.68849 25.0392 2.54727 24.6836 3.44273 24.6836H12.4112V37.0255H3.44273C2.54727 37.0255 1.68849 36.6699 1.05531 36.0368C0.422124 35.4037 0.0664062 34.5452 0.0664062 33.65V28.0591Z" fill="#FFE7BB"/>
<path opacity="0.5" d="M12.4102 15.5565C12.4206 15.1237 12.5162 14.6973 12.6915 14.3015C12.8668 13.9056 13.1185 13.5483 13.432 13.2496C13.7456 12.9511 14.1149 12.7172 14.5188 12.5614C14.9228 12.4056 15.3536 12.3308 15.7864 12.3415H24.7549V37.0252H12.4102V15.5565Z" fill="#FFE7BB"/>
<path d="M24.7539 3.26425C24.7612 2.82825 24.8543 2.39794 25.0279 1.99792C25.2015 1.59788 25.4522 1.23596 25.7658 0.932817C26.0792 0.629674 26.4495 0.391253 26.8551 0.231169C27.2608 0.0710861 27.6942 -0.0075233 28.1303 -0.00016859H33.7224C34.1586 -0.0075233 34.5919 0.0710861 34.9975 0.231169C35.4032 0.391253 35.7735 0.629674 36.087 0.932817C36.4006 1.23596 36.6512 1.59788 36.8248 1.99792C36.9984 2.39794 37.0915 2.82825 37.0988 3.26425V33.7611C37.0915 34.1971 36.9984 34.6273 36.8248 35.0274C36.6512 35.4274 36.4006 35.7894 36.087 36.0924C35.7735 36.3956 35.4032 36.634 34.9975 36.7942C34.5919 36.9542 34.1586 37.0328 33.7224 37.0255H24.7539V3.26425Z" fill="#FFE7BB"/>
<path d="M43.4901 13.8783C43.4901 17.7473 45.7369 20.2035 50.0268 21.1352L54.0327 22.03C56.1067 22.4805 56.9708 23.4864 56.9708 25.1772C56.9708 27.2876 55.1191 28.5651 52.1687 28.5651C49.3355 28.5651 47.6072 27.2876 47.5701 25.1402H43.1445C43.2495 29.6696 46.7739 32.5454 52.1687 32.5454C57.7237 32.5454 61.4272 29.5031 61.4272 24.8008C61.4272 21.0365 59.3163 18.8273 54.9956 17.8893L51.0205 17.0253C48.9157 16.544 47.9343 15.5444 47.9343 13.7424C47.9343 11.6382 49.6996 10.3238 52.4279 10.3238C54.8968 10.3238 56.4708 11.6011 56.5757 13.7795H61.0013C60.8593 9.21916 57.6127 6.37436 52.4957 6.37436C47.1567 6.38053 43.4901 9.45365 43.4901 13.8783Z" fill="#FFE7BB"/>
<path d="M64.4297 39.9996H68.6456V29.8052C69.7196 31.5331 71.9293 32.5389 74.4846 32.5389C79.5645 32.5389 82.4717 28.6697 82.4717 23.3443C82.4717 18.0188 79.2929 14.5013 74.4846 14.5013C71.8922 14.5013 69.6454 15.6368 68.6085 17.5868L68.3369 14.9949H64.4297V39.9996ZM68.6825 23.554C68.6825 20.4685 70.5837 18.3335 73.4846 18.3335C76.3857 18.3335 78.2189 20.5117 78.2189 23.554C78.2189 26.5964 76.4536 28.7376 73.4846 28.7376C70.5157 28.7376 68.6825 26.6272 68.6825 23.554Z" fill="#FFE7BB"/>
<path d="M93.1179 32.5389C97.5806 32.5389 100.691 30.2927 101.42 26.5593H97.5127C97.0251 28.1823 95.5067 29.0832 93.192 29.0832C90.3898 29.0832 88.7972 27.5591 88.4886 24.5537H101.346V23.2393C101.346 17.92 98.0991 14.5013 92.9822 14.5013C87.9702 14.5013 84.4766 18.2039 84.4766 23.554C84.4766 28.9043 88.038 32.5389 93.1179 32.5389ZM93.0192 17.9571C95.5375 17.9571 97.1671 19.5121 97.1671 21.8571H88.5935C89.0071 19.3023 90.5318 17.9571 93.0192 17.9571Z" fill="#FFE7BB"/>
<path d="M108.595 32.0885V22.8937C108.595 20.1292 110.187 18.3335 112.78 18.3335C114.958 18.3335 116.372 19.7157 116.372 22.5852V32.0885H120.588V21.5979C120.588 17.1733 118.378 14.5136 114.094 14.5136C113.027 14.4676 111.966 14.6939 111.01 15.1711C110.055 15.6483 109.236 16.3607 108.632 17.2412L108.286 15.032H104.379V32.0885H108.595Z" fill="#FFE7BB"/>
<path d="M131.41 32.5395C134.002 32.5395 136.212 31.3979 137.249 29.454L137.526 32.0889H141.416V6.38086H137.23V17.1924C136.162 15.5015 134.052 14.5019 131.675 14.5019C126.521 14.5019 123.41 18.3031 123.41 23.6224C123.41 28.9417 126.465 32.5395 131.41 32.5395ZM132.342 28.6703C129.404 28.6703 127.601 26.5228 127.601 23.4867C127.601 20.4505 129.404 18.2661 132.342 18.2661C135.28 18.2661 137.181 20.4073 137.181 23.4867C137.181 26.566 135.28 28.6703 132.342 28.6703Z" fill="#FFE7BB"/>
<path d="M143.754 15.02V18.5436H146.222V32.0888H150.407V18.5436H157.197V32.0888H161.413V6.38074H157.197V15.02H150.407V12.959C150.407 11.262 150.821 10.1574 152.722 10.1574H154.21V6.55353C153.49 6.42825 152.761 6.37039 152.031 6.38074C148.574 6.38074 146.222 8.31225 146.222 12.9466V15.02H143.754Z" fill="#FFE7BB"/>
<path d="M164.488 23.5174C164.488 28.8429 168.322 32.5022 173.612 32.5022C178.902 32.5022 182.735 28.8429 182.735 23.5174C182.735 18.1918 178.902 14.5325 173.612 14.5325C168.322 14.5325 164.488 18.1981 164.488 23.5174ZM168.704 23.5174C168.704 20.432 170.711 18.3029 173.643 18.3029C176.575 18.3029 178.55 20.4073 178.55 23.5174C178.55 26.6276 176.543 28.738 173.643 28.738C170.742 28.738 168.704 26.6276 168.704 23.5174Z" fill="#FFE7BB"/>
</g>
<defs>
<clipPath id="clip0_499_32543">
<rect width="182.667" height="40" fill="white" transform="translate(0.0664062)"/>
</clipPath>
</defs>
</svg>
