<svg width="42" height="42" viewBox="0 0 42 42" fill="none" xmlns="http://www.w3.org/2000/svg">
<path fill-rule="evenodd" clip-rule="evenodd" d="M17.7084 10.5622C17.176 11.1501 16.7352 11.8278 16.3689 12.5297C16.1551 12.9394 15.9658 13.3623 15.7958 13.7921L15.6292 14.2134L15.1956 14.0821C14.4268 13.8493 13.6708 13.5582 12.9542 13.1942L12.3326 12.8785L12.8382 12.3984C14.08 11.2192 15.5636 10.3182 17.185 9.76582L18.9852 9.15247L17.7084 10.5622ZM21.9833 9.72694C23.367 10.2103 24.3976 11.5825 25.0505 12.8335C25.2186 13.1556 25.3701 13.4867 25.5096 13.8222L25.7402 14.3766L25.1513 14.4939C24.0612 14.7109 22.9496 14.8339 21.8391 14.8749L21.3288 14.8937V9.49832L21.9833 9.72694ZM20.6725 15.5495V20.672H15.1836L15.2025 20.1616C15.2616 18.572 15.4886 16.9646 15.9294 15.4346L16.0562 14.9944L16.5044 15.0894C17.7174 15.3465 18.9586 15.4897 20.1974 15.5329L20.6725 15.5495ZM15.0721 27.7061C14.1922 27.9684 13.3244 28.3022 12.5103 28.7281L12.1593 28.9117L11.9049 28.608C10.304 26.6968 9.34634 24.3434 9.16816 21.8557L9.13043 21.3285H14.5281L14.5447 21.8035C14.6065 23.5813 14.8734 25.3875 15.4016 27.0884L15.5493 27.5639L15.0721 27.7061ZM21.3289 21.3284H26.8179L26.7989 21.8389C26.7345 23.5704 26.4707 25.3309 25.9458 26.9848L25.8117 27.407L25.3777 27.318C24.2027 27.0767 23.0022 26.9401 21.8037 26.8978L21.3289 26.8811V21.3284ZM27.0441 14.692C27.9679 14.4094 28.8779 14.0452 29.724 13.577L30.0915 13.3737L30.3501 13.7045C31.8012 15.5604 32.6651 17.7943 32.8334 20.1448L32.8711 20.6721H27.4734L27.4568 20.1971C27.3994 18.5497 27.1666 16.8842 26.7146 15.2976L26.5824 14.8333L27.0441 14.692ZM28.8425 29.8944C27.6683 30.9314 26.2996 31.7296 24.8163 32.2343L23.0163 32.8466L24.2931 31.4378C24.8257 30.8501 25.2662 30.172 25.6324 29.4701C25.784 29.1796 25.9238 28.8828 26.0531 28.5817L26.2248 28.182L26.6425 28.3033C27.354 28.51 28.0545 28.7652 28.7256 29.0799L29.4043 29.3982L28.8425 29.8944ZM30.7727 7.00071C29.159 7.00071 27.8464 5.68821 27.8464 4.07457C27.8464 2.46094 29.1589 1.14852 30.7727 1.14852C32.3863 1.14852 33.6987 2.46094 33.6987 4.07457C33.6986 5.68829 32.3863 7.00071 30.7727 7.00071ZM14.1549 37.9254C14.1549 39.5393 12.8427 40.8519 11.2288 40.8519C10.4482 40.8519 9.71187 40.5465 9.1598 39.9947C8.60781 39.4429 8.30273 38.7058 8.30273 37.9254C8.30273 36.3117 9.61515 34.9997 11.2288 34.9997C12.8424 34.9997 14.1549 36.3117 14.1549 37.9254V37.9254Z" fill="#06D6A0"/>
<path fill-rule="evenodd" clip-rule="evenodd" d="M27.9488 20.1799C27.8871 18.4089 27.6275 16.7051 27.1882 15.1627C28.2015 14.8527 29.1359 14.4651 29.9625 14.0077C31.3136 15.7358 32.1767 17.8628 32.3425 20.1799H27.9488ZM27.07 27.2344C27.5807 25.5898 27.8818 23.7448 27.9488 21.8206H32.3425C32.1669 24.273 31.2098 26.5127 29.7194 28.2919C28.9227 27.8752 28.0306 27.5207 27.07 27.2344V27.2344ZM26.0689 29.6977C26.2232 29.4025 26.3688 29.094 26.5054 28.776C27.2249 28.9849 27.8996 29.2361 28.5168 29.5255C27.4022 30.51 26.0945 31.2796 24.6578 31.7683C25.1716 31.2014 25.6458 30.5091 26.0689 29.6977V29.6977ZM15.4962 28.776C15.6329 29.0941 15.7784 29.4025 15.9327 29.6977C16.3558 30.5091 16.8299 31.2014 17.3437 31.7682C15.9072 31.2795 14.5993 30.5099 13.4848 29.5254C14.102 29.2361 14.7767 28.9849 15.4962 28.776V28.776ZM14.0528 21.8206C14.1198 23.7448 14.4209 25.5898 14.9316 27.2344C13.9711 27.5207 13.079 27.8752 12.2823 28.2919C10.7919 26.5127 9.8348 24.273 9.65917 21.8206H14.0528ZM14.8135 15.1627C14.3742 16.705 14.1145 18.4088 14.0529 20.1799H9.65917C9.82496 17.8628 10.688 15.7357 12.0391 14.0076C12.8657 14.465 13.8001 14.8527 14.8135 15.1627ZM15.9328 12.302C15.7169 12.7156 15.5192 13.1536 15.3383 13.611C14.5574 13.3746 13.8316 13.0878 13.1772 12.7554C14.3557 11.6364 15.773 10.7669 17.3438 10.2318C16.83 10.799 16.3558 11.4913 15.9328 12.302V12.302ZM26.0689 12.302C25.6457 11.4913 25.1716 10.7991 24.6578 10.2318C26.2287 10.7669 27.646 11.6364 28.8245 12.7554C28.17 13.0878 27.4442 13.3746 26.6633 13.611C26.4824 13.1536 26.2848 12.7156 26.0689 12.302V12.302ZM21.8212 14.3829C22.9431 14.3415 24.0312 14.215 25.0555 14.0111C24.9184 13.6814 24.7721 13.363 24.6145 13.0612C23.8257 11.5498 22.8393 10.5472 21.8213 10.1916V14.3829H21.8212ZM21.8212 20.1799V16.0248C23.1305 15.9791 24.4032 15.8243 25.5992 15.5709C26.0046 16.9778 26.2465 18.5431 26.3073 20.1799H21.8212ZM21.8212 26.4059V21.8206H26.3072C26.2404 23.6168 25.956 25.3263 25.4768 26.8358C24.314 26.5971 23.0823 26.4504 21.8212 26.4059V26.4059ZM21.8212 28.0474V31.8085C22.8392 31.4525 23.8256 30.4511 24.6144 28.9392C24.7073 28.7609 24.7955 28.5755 24.8813 28.3878C23.906 28.2025 22.8769 28.0868 21.8212 28.0474V28.0474ZM20.1804 28.0474C19.1248 28.0868 18.0956 28.2026 17.1203 28.3879C17.2062 28.5756 17.2943 28.7609 17.3873 28.9393C18.176 30.4511 19.1624 31.4526 20.1804 31.8086V28.0474ZM20.1804 21.8206V26.4059C18.9194 26.4505 17.6876 26.5971 16.5248 26.8359C16.0456 25.3264 15.7611 23.6168 15.6945 21.8206H20.1804V21.8206ZM20.1804 16.0248V20.1799H15.6945C15.7553 18.5431 15.9972 16.9778 16.4026 15.5708C17.5985 15.8244 18.8711 15.9792 20.1804 16.0248V16.0248ZM20.1804 14.3829V10.1916C19.1624 10.5472 18.176 11.5498 17.3873 13.0612C17.2296 13.363 17.0833 13.6814 16.9462 14.0111C17.9704 14.215 19.0586 14.3416 20.1804 14.3829V14.3829ZM21.0009 7.98787C13.8259 7.98787 7.98861 13.8254 7.98861 21.0002C7.98861 28.1755 13.8258 34.0119 21.0009 34.0119C28.1758 34.0119 34.013 28.1755 34.013 21.0002C34.013 13.8254 28.1758 7.98787 21.0009 7.98787ZM21.0009 39.724C31.3249 39.724 39.7244 31.3245 39.7244 21.0002C39.7244 15.6626 37.4721 10.6341 33.5205 7.08045C32.7954 7.74367 31.8307 8.14923 30.7727 8.14923C28.5259 8.14923 26.698 6.32125 26.698 4.07466C26.698 3.77163 26.7323 3.4764 26.7956 3.192C24.9296 2.58448 22.9841 2.27686 21.0008 2.27686C10.6766 2.27686 2.27726 10.676 2.27726 21.0002C2.27726 26.3379 4.52943 31.3667 8.48104 34.92C9.20611 34.2564 10.1709 33.8513 11.2288 33.8513C13.4756 33.8513 15.3035 35.6788 15.3035 37.9254C15.3035 38.2292 15.2692 38.5237 15.206 38.8085C17.0722 39.4159 19.0176 39.724 21.0009 39.724ZM11.2288 40.3597C10.5787 40.3597 9.96761 40.1062 9.50782 39.6465C9.0482 39.1872 8.79505 38.5754 8.79505 37.9253C8.79505 36.5834 9.88681 35.4918 11.2289 35.4918C12.5711 35.4918 13.663 36.5834 13.663 37.9253C13.6629 39.2678 12.5711 40.3597 11.2288 40.3597V40.3597ZM30.7728 1.64071C32.1149 1.64071 33.2067 2.73271 33.2067 4.07466C33.2067 5.41661 32.1149 6.50861 30.7728 6.50861C29.4307 6.50861 28.3388 5.41661 28.3388 4.07466C28.3388 2.73271 29.4307 1.64071 30.7728 1.64071ZM34.4881 5.74432C34.7181 5.23433 34.8472 4.66938 34.8472 4.07466C34.8472 1.82798 33.0195 0 30.7728 0C29.4166 0 28.2141 0.66675 27.473 1.6887C25.3913 0.990609 23.2175 0.636234 21.0009 0.636234C15.5614 0.636234 10.4476 2.75436 6.60121 6.60073C2.75501 10.447 0.636719 15.5606 0.636719 21.0003C0.636719 26.8646 3.13514 32.3852 7.51356 36.2563C7.28355 36.7658 7.15443 37.3312 7.15443 37.9256C7.15443 39.0145 7.57829 40.0372 8.34782 40.8069C9.11744 41.5759 10.1406 42 11.2288 42C12.585 42 13.7876 41.3333 14.5286 40.3121C16.6105 41.0094 18.7842 41.3643 21.0008 41.3643C26.4402 41.3643 31.5541 39.2465 35.4004 35.3998C39.2464 31.5535 41.365 26.4396 41.365 21.0002C41.3651 15.136 38.8665 9.61537 34.4881 5.74432V5.74432Z" fill="#024430"/>
</svg>
