<svg width="64" height="64" viewBox="0 0 64 64" fill="none" xmlns="http://www.w3.org/2000/svg">
<rect width="64" height="64" rx="32" fill="#FFE7BB"/>
<path d="M21.334 21.3336V28.0002H22.11M42.5847 30.6669C42.2898 28.324 41.2259 26.1452 39.5598 24.4719C37.8937 22.7986 35.7195 21.7254 33.3779 21.4204C31.0364 21.1154 28.6598 21.596 26.6207 22.7867C24.5816 23.9774 22.9951 25.8111 22.11 28.0002M22.11 28.0002H28.0007M42.6673 42.6669V36.0002H41.8927M41.8927 36.0002C41.0062 38.1881 39.4194 40.0203 37.3804 41.21C35.3415 42.3996 32.9656 42.8796 30.6248 42.5747C28.2839 42.2699 26.1102 41.1974 24.444 39.5252C22.7778 37.853 21.7131 35.6755 21.4167 33.3336M41.8927 36.0002H36.0007" stroke="#024430" stroke-width="2" stroke-linecap="round" stroke-linejoin="round"/>
</svg>
