<svg width="40" height="28" viewBox="0 0 40 28" fill="none" xmlns="http://www.w3.org/2000/svg">
<g clip-path="url(#clip0_1239_133)">
<mask id="mask0_1239_133" style="mask-type:luminance" maskUnits="userSpaceOnUse" x="0" y="0" width="40" height="28">
<path d="M40 0H0V28H40V0Z" fill="white"/>
</mask>
<g mask="url(#mask0_1239_133)">
<mask id="mask1_1239_133" style="mask-type:luminance" maskUnits="userSpaceOnUse" x="0" y="0" width="40" height="28">
<path d="M0 0H40V28H0V0Z" fill="white"/>
</mask>
<g mask="url(#mask1_1239_133)">
<path d="M32.3411 18.2544C33.2031 20.4295 34.5656 22.5829 36.3902 24.6554C36.9708 25.3149 37.0445 26.2563 36.5734 26.9978C36.2107 27.5682 35.6006 27.8931 34.9546 27.8931C34.7726 27.8931 34.5874 27.8675 34.4047 27.8143C30.5377 26.6844 21.5175 22.6713 21.2752 9.8437C21.1817 4.89041 24.8045 0.635055 29.5219 0.155678C32.122 -0.104526 34.7233 0.740147 36.651 2.48267C38.5813 4.22712 39.6887 6.71753 39.6887 9.31626C39.6887 13.6517 36.6113 17.4431 32.3411 18.2544ZM34.8912 4.43027C33.6652 3.3222 32.122 2.73196 30.4858 2.73196C30.2545 2.73196 30.0212 2.74349 29.7873 2.76784C26.4182 3.10942 23.8323 6.19585 23.9002 9.79369C24.0675 18.6697 28.8734 22.6655 32.8532 24.4529C31.5939 22.7495 30.6044 20.9973 29.9007 19.2215C29.6264 18.53 29.6719 17.7571 30.025 17.1009C30.3948 16.4126 31.0543 15.9242 31.8329 15.7608C34.8642 15.127 37.0637 12.4161 37.0637 9.31624C37.0637 7.45902 36.2716 5.67805 34.8912 4.43027Z" fill="#494949"/>
<path d="M15.6117 26.9992C15.249 27.5695 14.6389 27.8945 13.9929 27.8945C13.8109 27.8945 13.6263 27.8688 13.443 27.8156C9.57606 26.6858 0.556473 22.6726 0.314224 9.84497C0.221944 4.89169 3.84413 0.636312 8.56221 0.156948C11.1654 -0.107731 13.7622 0.740774 15.6899 2.48394C17.6202 4.22839 18.7276 6.7188 18.7276 9.31753C18.7276 13.6531 15.6502 17.4444 11.3807 18.2558C12.2433 20.4328 13.6058 22.5861 15.4297 24.6574C16.0103 25.3175 16.0834 26.2583 15.6117 26.9992ZM8.94034 19.2241C8.66605 18.5326 8.71091 17.7597 9.06339 17.1035C9.43381 16.4146 10.0926 15.9262 10.8719 15.7622C13.9032 15.1283 16.1026 12.4175 16.1026 9.31753C16.1026 7.45964 15.3105 5.67931 13.9301 4.43153C12.7048 3.32347 11.1615 2.73322 9.52481 2.73322C9.2941 2.73322 9.06081 2.74476 8.82626 2.76911C5.45784 3.11069 2.8713 6.19712 2.93924 9.79496C3.10586 18.6717 7.91238 22.6669 11.8921 24.4543C10.6335 22.7521 9.64528 21 8.94034 19.2241Z" fill="#494949"/>
</g>
</g>
</g>
<defs>
<clipPath id="clip0_1239_133">
<rect width="40" height="28" fill="white"/>
</clipPath>
</defs>
</svg>
