<svg width="16" height="16" viewBox="0 0 16 16" fill="none" xmlns="http://www.w3.org/2000/svg">
<g clip-path="url(#clip0_15_18235)">
<path d="M11.6138 0H4.38616C1.96762 0 0 1.96763 0 4.38619V11.6138C0 14.0324 1.96762 16 4.38616 16H11.6138C14.0324 16 16 14.0324 16 11.6138V4.38619C16 1.96763 14.0324 0 11.6138 0ZM15.0551 11.6138C15.0551 13.5114 13.5114 15.0551 11.6138 15.0551H4.38616C2.48862 15.0551 0.944875 13.5114 0.944875 11.6138V4.38619C0.944875 2.48863 2.48862 0.944875 4.38616 0.944875H11.6138C13.5114 0.944875 15.0551 2.48863 15.0551 4.38619V11.6138Z" fill="#024430"/>
<path d="M7.9998 3.61133C5.57998 3.61133 3.61133 5.57998 3.61133 7.9998C3.61133 10.4196 5.57995 12.3883 7.9998 12.3883C10.4196 12.3883 12.3883 10.4196 12.3883 7.99977C12.3883 5.57995 10.4196 3.61133 7.9998 3.61133ZM7.9998 11.4434C6.10098 11.4434 4.55617 9.89858 4.55617 7.99977C4.55617 6.10095 6.10098 4.55614 7.9998 4.55614C9.89864 4.55614 11.4435 6.10098 11.4435 7.9998C11.4435 9.89861 9.89864 11.4434 7.9998 11.4434Z" fill="#024430"/>
<path d="M12.6517 2.01562C11.9165 2.01562 11.3184 2.61378 11.3184 3.34897C11.3184 4.08416 11.9165 4.68228 12.6517 4.68228C13.3869 4.68228 13.985 4.08413 13.985 3.34894C13.985 2.61375 13.3869 2.01562 12.6517 2.01562ZM12.6517 3.73738C12.4375 3.73738 12.2632 3.56313 12.2632 3.34894C12.2632 3.13475 12.4375 2.9605 12.6517 2.9605C12.8659 2.9605 13.0401 3.13478 13.0401 3.34894C13.0401 3.56309 12.8659 3.73738 12.6517 3.73738Z" fill="#024430"/>
</g>
<defs>
<clipPath id="clip0_15_18235">
<rect width="16" height="16" fill="white"/>
</clipPath>
</defs>
</svg>
