<svg width="57" height="57" viewBox="0 0 57 57" fill="none" xmlns="http://www.w3.org/2000/svg">
<g clip-path="url(#clip0_1151_275)">
<mask id="mask0_1151_275" style="mask-type:luminance" maskUnits="userSpaceOnUse" x="0" y="0" width="57" height="57">
<path d="M57 0H0V57H57V0Z" fill="white"/>
</mask>
<g mask="url(#mask0_1151_275)">
<path d="M0 45.666H56.1994V47.5046H0V45.666Z" fill="black"/>
<path d="M51.0302 51.4772L49.8828 50.0403L54.5356 46.3284L49.9246 43.1663L50.9642 41.6504L56.5997 45.5145C56.8407 45.6793 56.9884 45.9486 56.9988 46.2399C57.01 46.5304 56.8811 46.81 56.654 46.9918L51.0302 51.4772Z" fill="black"/>
<path d="M36.2059 47.5075L35.4679 45.8232C42.842 42.5916 47.6057 35.3796 47.6057 27.4494C47.6057 16.3692 38.476 7.35626 27.2535 7.35626C16.0567 7.35626 6.94806 16.3701 6.94806 27.4494C6.94806 27.9382 6.96512 28.4239 7.00013 28.9047L5.16638 29.038C5.12867 28.5128 5.10938 27.9845 5.10938 27.4494C5.10938 15.3561 15.0426 5.51758 27.2535 5.51758C39.4901 5.51758 49.4444 15.3561 49.4444 27.4494C49.4444 36.1086 44.2484 43.9819 36.2059 47.5075Z" fill="black"/>
<path d="M5.22806 30.5883C5.17283 30.5883 5.11672 30.5834 5.0615 30.5726C4.7787 30.5201 4.53584 30.3392 4.40701 30.0815L1.26562 23.8459L2.9077 23.0195L5.50367 28.1724L10.0631 24.0057L11.3038 25.3636L5.84977 30.3482C5.67784 30.5044 5.45609 30.5883 5.22806 30.5883Z" fill="black"/>
<path d="M39.1623 26.551C39.1623 20.054 33.8303 14.7871 27.253 14.7871C20.6758 14.7871 15.3438 20.054 15.3438 26.551C15.3438 33.0479 20.6758 38.3148 27.253 38.3148C33.8303 38.3148 39.1623 33.0479 39.1623 26.551Z" fill="#5B92F2"/>
<path d="M27.2583 39.2344C20.185 39.2344 14.4297 33.5446 14.4297 26.5503C14.4297 19.556 20.185 13.8672 27.2583 13.8672C34.3316 13.8672 40.0869 19.5569 40.0869 26.5503C40.0869 33.5437 34.3316 39.2344 27.2583 39.2344ZM27.2583 15.7058C21.1991 15.7058 16.2684 20.571 16.2684 26.5503C16.2684 32.5306 21.1982 37.3957 27.2583 37.3957C33.3184 37.3957 38.2482 32.5306 38.2482 26.5503C38.2482 20.571 33.3175 15.7058 27.2583 15.7058Z" fill="black"/>
<path d="M27.2549 29.2483C25.7498 29.2483 24.5234 28.0385 24.5234 26.5499C24.5234 25.0614 25.7489 23.8516 27.2549 23.8516C28.7601 23.8516 29.9865 25.0614 29.9865 26.5499C29.9865 28.0385 28.761 29.2483 27.2549 29.2483Z" fill="#D5F0FC"/>
<path d="M26.3359 18.5195H28.1746V24.9464H26.3359V18.5195Z" fill="#D5F0FC"/>
<path d="M28.8359 25.6309H35.8154V27.4696H28.8359V25.6309Z" fill="#D5F0FC"/>
</g>
</g>
<defs>
<clipPath id="clip0_1151_275">
<rect width="57" height="57" fill="white"/>
</clipPath>
</defs>
</svg>
