<svg width="48" height="48" viewBox="0 0 48 48" fill="none" xmlns="http://www.w3.org/2000/svg">
<path d="M38.0799 23.9999C38.0799 31.776 31.776 38.0799 23.9999 38.0799C16.2239 38.0799 9.91992 31.776 9.91992 23.9999C9.91992 16.2239 16.2239 9.91992 23.9999 9.91992C31.776 9.91992 38.0799 16.2239 38.0799 23.9999Z" fill="#06D6A0"/>
<path d="M38.3673 14.4496C35.176 9.6559 29.8269 6.79426 24.0579 6.79426C18.7149 6.79426 13.7711 9.20832 10.4933 13.4161L9.27148 12.4646C12.8442 7.87654 18.2333 5.24512 24.0579 5.24512C30.3467 5.24512 36.177 8.36533 39.6556 13.5911L38.3673 14.4496Z" fill="#FFD166"/>
<path d="M39.707 15.2253H36.8594V13.6769H38.9264L38.9109 11.8064L40.4593 11.7939L40.4805 14.4443C40.482 14.6507 40.4007 14.8491 40.2559 14.9954C40.1119 15.1425 39.9138 15.2253 39.707 15.2253V15.2253Z" fill="#FFD166"/>
<path d="M29.6226 41.6431L29.1641 40.1643C36.3681 37.9309 41.2083 31.3805 41.2083 23.8639C41.2083 21.7526 40.8265 19.6932 40.0727 17.7422L41.5164 17.1838C42.3393 19.3129 42.7567 21.5606 42.7567 23.8631C42.7567 32.0632 37.4783 39.2083 29.6226 41.6431V41.6431Z" fill="#024430"/>
<path d="M30.7912 42.7394L28.3602 41.6579C28.1526 41.5656 27.9972 41.3876 27.9322 41.171C27.868 40.954 27.902 40.7196 28.0252 40.5291L29.4681 38.3018L30.7674 39.144L29.8167 40.6119L31.4191 41.3248L30.7912 42.7394Z" fill="#024430"/>
<path d="M24.0587 42.4815C13.7477 42.4815 5.35938 34.1295 5.35938 23.8638C5.35938 21.5673 6.44166 18.7703 7.23211 16.7279L7.3406 16.4478L8.78541 17.0057L8.67616 17.287C7.92994 19.2153 6.90701 21.8569 6.90701 23.8638C6.90701 33.2763 14.6009 40.9331 24.058 40.9331C24.2961 40.9331 24.5324 40.9286 24.7679 40.9192L24.8295 42.466C24.5751 42.4762 24.3173 42.4815 24.0587 42.4815V42.4815Z" fill="#024430"/>
<path d="M8.48387 19.5616L7.68813 17.7841L6.03805 18.6177L5.33984 17.236L7.71346 16.0358C7.90323 15.9405 8.12248 15.9258 8.32208 15.9972C8.52092 16.0675 8.68271 16.2169 8.76966 16.4104L9.89768 18.9284L8.48387 19.5616Z" fill="#024430"/>
</svg>
