<svg width="225" height="209" viewBox="0 0 225 209" fill="none" xmlns="http://www.w3.org/2000/svg">
<g opacity="0.5" clip-path="url(#clip0_320_19925)">
<path d="M181.39 -7.3696V75.0563C181.39 126.188 139.944 167.786 89.0003 167.786C38.0568 167.786 -3.38984 126.187 -3.38984 75.0563C-3.38984 52.3311 -21.8106 33.8433 -44.4519 33.8433V13.2365C-10.4893 13.2365 17.1415 40.9689 17.1415 75.0563C17.1415 114.825 49.3774 147.179 89.001 147.179C128.625 147.179 160.86 114.825 160.86 75.0563V-7.37029C160.86 -36.6499 181.246 -61.2398 208.521 -67.5948C211.615 -61.3625 214.244 -54.8601 216.352 -48.1266C196.593 -45.1582 181.39 -28.0141 181.39 -7.3696Z" fill="white"/>
<path d="M88.9988 209C15.4133 209 -44.4541 148.913 -44.4541 75.0565V54.4497C-33.1335 54.4497 -23.9227 63.6936 -23.9227 75.0565C-23.9227 137.55 26.7339 188.393 88.9988 188.393C151.264 188.393 201.92 137.55 201.92 75.0565V-7.37006C201.92 -18.236 210.345 -27.1583 220.982 -27.9186C221.947 -21.4368 222.452 -14.8055 222.452 -8.05696V75.0565C222.452 148.913 162.584 209 88.9988 209Z" fill="white"/>
<path d="M88.9988 126.574C60.6965 126.574 37.6707 103.464 37.6707 75.0573C37.6707 29.6077 0.829796 -7.36929 -44.4541 -7.36929V-8.0562C-44.4541 -14.8177 -43.948 -21.4627 -42.9794 -27.9583C-16.091 -27.5812 9.11844 -16.9155 28.1499 2.18585C47.5283 21.6362 58.2014 47.5155 58.2014 75.0573C58.2014 92.1013 72.0171 105.967 88.9981 105.967C105.979 105.967 119.795 92.1006 119.795 75.0573C119.795 -6.88872 59.9103 -75.0518 -18.2412 -87.6871C-13.4846 -94.1223 -8.16715 -100.114 -2.3634 -105.594C30.9366 -97.8579 61.4888 -80.9489 86.2338 -56.1122C121.115 -21.1021 140.325 25.4807 140.325 75.0573C140.327 103.464 117.301 126.574 88.9988 126.574Z" fill="white"/>
<path d="M88.999 85.3577C83.3298 85.3577 78.7337 80.7446 78.7337 75.0546C78.7337 8.96596 26.8018 -45.1771 -38.2546 -48.4293C-36.0628 -55.3752 -33.3211 -62.0771 -30.0801 -68.4849C2.90305 -65.2251 33.4757 -50.7711 57.1935 -26.9662C84.3236 0.264328 99.2643 36.4961 99.2643 75.0546C99.2643 80.7446 94.6682 85.3577 88.999 85.3577Z" fill="white"/>
</g>
<defs>
<clipPath id="clip0_320_19925">
<rect width="272" height="351" fill="white" transform="matrix(1 0 0 -1 -47 209)"/>
</clipPath>
</defs>
</svg>
