<svg width="57" height="57" viewBox="0 0 57 57" fill="none" xmlns="http://www.w3.org/2000/svg">
<path d="M34.7923 26.2441C33.4968 28.0267 31.1617 29.2248 28.4984 29.2248C25.8351 29.2248 23.5008 28.0258 22.2044 26.2441L18.1899 28.1995C17.6418 28.4671 17.3047 28.9582 17.3047 29.4897V42.9292H39.6912V29.737C39.6912 29.2329 39.3881 28.7642 38.8849 28.4882L34.7923 26.2441Z" fill="white"/>
<path d="M39.6895 43.85H17.3022C16.7945 43.85 16.3828 43.4384 16.3828 42.9307V29.4912C16.3828 28.6078 16.9197 27.7957 17.7847 27.3746L21.7992 25.4193C22.1992 25.2235 22.6826 25.3447 22.9457 25.7052C24.1133 27.3105 26.2397 28.307 28.4958 28.307C30.752 28.307 32.8793 27.3105 34.046 25.7052C34.3171 25.3313 34.8253 25.219 35.2311 25.4395L39.3246 27.6835C40.129 28.1239 40.608 28.8915 40.608 29.7385V42.9316C40.6089 43.4384 40.1972 43.85 39.6895 43.85V43.85ZM18.2215 42.0114H38.7702V29.7376C38.7702 29.5756 38.6445 29.4055 38.442 29.295L35.0179 27.4177C33.4503 29.1379 31.0716 30.1448 28.4967 30.1448C25.9079 30.1448 23.5176 29.128 21.95 27.3904L18.5909 29.0266C18.3629 29.1379 18.2224 29.3157 18.2224 29.4903V42.0114H18.2215Z" fill="#4A73CF"/>
<path d="M20.0625 40.172V30.3556L21.6134 29.5996C23.462 31.1178 25.9026 31.9828 28.4982 31.9828C31.0546 31.9828 33.4607 31.1434 35.2994 29.6678L36.9338 30.5634V40.172H20.0625Z" fill="#154CC7"/>
<path d="M22.1953 18.3496V16.2905C22.1953 12.8888 25.0278 10.1133 28.501 10.1133C31.9741 10.1133 34.8066 12.8888 34.8066 16.2905V18.3496C34.8066 21.7514 31.9741 24.5269 28.501 24.5269C25.0278 24.5269 22.1953 21.7514 22.1953 18.3496V18.3496Z" fill="white"/>
<path d="M28.4984 25.4457C24.5149 25.4457 21.2734 22.2616 21.2734 18.3491V16.29C21.2734 12.3769 24.5149 9.19336 28.4984 9.19336C32.4819 9.19336 35.7234 12.3769 35.7234 16.29V18.3491C35.7234 22.2616 32.4819 25.4457 28.4984 25.4457V25.4457ZM28.4984 11.032C25.529 11.032 23.1121 13.3901 23.1121 16.29V18.3491C23.1121 21.2485 25.5281 23.607 28.4984 23.607C31.4688 23.607 33.8847 21.2485 33.8847 18.3491V16.29C33.8847 13.3901 31.4679 11.032 28.4984 11.032V11.032Z" fill="#4A73CF"/>
<path d="M55.2701 34.5772L50.22 32.3848L47.554 37.2405C47.2595 37.7765 46.4757 37.7765 46.1812 37.2405L43.5152 32.3848L38.5204 34.3366C37.9947 34.5413 37.6562 34.9955 37.6562 35.4965V46.8635H56.0799V35.7147C56.0799 35.233 55.7665 34.7926 55.2701 34.5772V34.5772Z" fill="#D5F0FC"/>
<path d="M56.0773 47.7832H37.6537C37.1465 47.7832 36.7344 47.3711 36.7344 46.8639V35.4969C36.7344 34.6162 37.3036 33.8248 38.1843 33.4809L43.1801 31.5282C43.6101 31.3608 44.0994 31.5385 44.3198 31.9421L46.8664 36.5801L49.413 31.9421C49.6419 31.5255 50.1492 31.3518 50.5851 31.5412L55.6352 33.7337C56.4625 34.0932 56.9976 34.8712 56.9976 35.7151V46.8639C56.9967 47.3711 56.5846 47.7832 56.0773 47.7832ZM38.5731 45.9445H55.158V35.7151C55.158 35.6056 55.0552 35.487 54.9017 35.4206L50.621 33.5617L48.3586 37.683C48.0605 38.2249 47.4899 38.562 46.8664 38.562C46.2442 38.562 45.6724 38.2258 45.3743 37.683L43.097 33.5352L38.8527 35.1935C38.6853 35.259 38.5731 35.3802 38.5731 35.4969V45.9445Z" fill="#4A73CF"/>
<path d="M51.839 26.5297L52.2816 24.1716V22.5363C52.2816 19.3747 49.8661 16.7949 46.9061 16.7949C46.8939 16.7949 46.8832 16.7967 46.871 16.7967C46.8589 16.7967 46.8481 16.7949 46.836 16.7949C43.876 16.7949 41.4609 19.3747 41.4609 22.5363V24.1716L41.9031 26.5297C42.6294 28.5102 44.3541 29.9615 46.4123 30.164C46.5519 30.1806 46.6937 30.1904 46.836 30.1904C46.8481 30.1904 46.8589 30.1886 46.871 30.1886C46.8832 30.1886 46.8939 30.1904 46.9061 30.1904C47.0484 30.1904 47.1902 30.1806 47.3298 30.164C49.3893 29.9615 51.114 28.5102 51.839 26.5297V26.5297Z" fill="white"/>
<path d="M46.9044 31.1092C46.6544 31.1092 46.4771 31.0966 46.3011 31.0764C43.9691 30.8475 41.8956 29.1861 41.0373 26.8456C41.0198 26.7975 41.0059 26.7491 40.9965 26.6983L40.5543 24.3412C40.5444 24.2851 40.5391 24.2281 40.5391 24.1711V22.5357C40.5391 18.8629 43.3631 15.875 46.8335 15.875C50.3748 15.875 53.1984 18.8629 53.1984 22.5357V24.1711C53.1984 24.2281 53.1926 24.2851 53.1827 24.3412L52.7405 26.6983C52.7311 26.7482 52.7172 26.7967 52.7001 26.8456C51.8423 29.1852 49.7688 30.8475 47.4175 31.0782C47.2599 31.0966 47.0826 31.1092 46.9044 31.1092V31.1092ZM42.7885 26.2809C43.4201 27.9265 44.8691 29.0878 46.4991 29.2476C46.6221 29.2624 46.7271 29.2696 46.8335 29.2696C46.8564 29.2696 46.9327 29.2696 46.9569 29.2714C47.0099 29.2696 47.1149 29.2615 47.2195 29.2494C48.8679 29.0878 50.3178 27.9265 50.9485 26.2809L51.3606 24.0858V22.5348C51.3606 19.876 49.3617 17.7128 46.9044 17.7128C46.8815 17.7128 46.8043 17.7128 46.781 17.711C44.3771 17.7128 42.3777 19.8751 42.3777 22.5348V24.0858L42.7885 26.2809ZM51.8364 26.5291H51.8459H51.8364Z" fill="#4A73CF"/>
<path d="M0.921875 36.3892V46.888H20.2621V36.3892C20.2621 34.7113 18.8737 33.3516 17.1612 33.3516H14.4682L10.5925 39.4265L6.71668 33.3516H4.02285C2.30986 33.3525 0.921875 34.7122 0.921875 36.3892V36.3892Z" fill="#154CC7"/>
<path d="M20.2596 47.8059H0.91934C0.412087 47.8059 0 47.3943 0 46.8866V36.3887C0 34.2061 1.80277 32.4316 4.02032 32.4316H6.71414C7.02747 32.4316 7.31971 32.5919 7.48894 32.8563L10.5908 37.7169L13.6918 32.8563C13.861 32.5919 14.1533 32.4316 14.4666 32.4316H17.1595C19.3762 32.4316 21.1798 34.207 21.1798 36.3887V46.8866C21.1789 47.3943 20.7668 47.8059 20.2596 47.8059ZM1.83868 45.9672H19.3403V36.3887C19.3403 35.2202 18.3621 34.2703 17.1586 34.2703H14.9698L11.3647 39.9206C11.0267 40.4494 10.1522 40.4494 9.81467 39.9206L6.20914 34.2703H4.02032C2.81683 34.2694 1.83868 35.2202 1.83868 36.3887V45.9672Z" fill="#4A73CF"/>
<path d="M4.94531 24.2515V22.3953C4.94531 19.3294 7.48113 16.8281 10.5884 16.8281C13.6957 16.8281 16.2315 19.3294 16.2315 22.3953V24.2515C16.2315 27.3175 13.6957 29.8192 10.5884 29.8192C7.48113 29.8192 4.94531 27.3175 4.94531 24.2515Z" fill="white"/>
<path d="M10.5937 30.7399C6.97511 30.7399 4.03125 27.8302 4.03125 24.2529V22.3967C4.03125 18.8199 6.97511 15.9102 10.5937 15.9102C14.2122 15.9102 17.1561 18.8199 17.1561 22.3967V24.2529C17.1547 27.8302 14.2113 30.7399 10.5937 30.7399ZM10.5937 17.7497C7.98917 17.7497 5.86993 19.8349 5.86993 22.3976V24.2538C5.86993 26.817 7.98917 28.9021 10.5937 28.9021C13.1982 28.9021 15.3174 26.817 15.3174 24.2538V22.3967C15.3161 19.8349 13.1982 17.7497 10.5937 17.7497Z" fill="#4A73CF"/>
</svg>
