<svg width="105" height="24" viewBox="0 0 105 24" fill="none" xmlns="http://www.w3.org/2000/svg">
<g opacity="0.8">
<path d="M64.7418 10.4475L59.1287 4.7321V4.69249C58.7872 4.36316 58.3353 4.18373 57.8683 4.19205C57.4013 4.20037 56.9556 4.39577 56.6254 4.73706C56.2951 5.07835 56.106 5.53885 56.0979 6.02143C56.0899 6.50402 56.2635 6.97098 56.5822 7.32382L56.6206 7.35777L62.1516 13.1524H64.7692V10.4475H64.7418Z" fill="#024430"/>
<path d="M65.7012 16.8193L71.3034 22.5347L71.3417 22.5743C71.6794 22.9225 72.1371 23.1178 72.6141 23.1172C73.0912 23.1167 73.5485 22.9204 73.8854 22.5714C74.2224 22.2225 74.4114 21.7495 74.4109 21.2566C74.4104 20.7637 74.2204 20.2911 73.8827 19.9429L73.8498 19.909L68.3188 14.1144H65.7012V16.8193Z" fill="#024430"/>
<path d="M68.3024 13.1522L73.8334 7.35765L73.8717 7.3237C74.1904 6.97085 74.3641 6.5039 74.356 6.02131C74.348 5.53873 74.1589 5.07823 73.8286 4.73694C73.4983 4.39565 73.0527 4.20024 72.5856 4.19193C72.1186 4.18361 71.6667 4.36304 71.3253 4.69236L71.2924 4.73198L65.7012 10.4473V13.1522H68.3024Z" fill="#024430"/>
<path d="M62.1252 14.1143L56.5996 19.9032L56.5613 19.9372C56.2236 20.2891 56.0351 20.7653 56.0371 21.2609C56.0381 21.5063 56.0859 21.749 56.1777 21.9753C56.2696 22.2017 56.4036 22.4071 56.5723 22.5798C56.7409 22.7526 56.9408 22.8894 57.1606 22.9823C57.3804 23.0753 57.6158 23.1225 57.8532 23.1215C58.3328 23.1194 58.792 22.9205 59.1297 22.5685L59.1625 22.5289L64.7702 16.8192V14.1086H62.1471L62.1252 14.1143Z" fill="#024430"/>
<path d="M15.3683 20.2994L14.7057 10.4984C14.6291 9.3666 14.5798 8.41593 14.5798 7.43696C14.3717 8.49515 14.2183 9.13459 13.9117 10.2664L11.1024 20.2994H8.06852L5.53849 10.6794C5.30849 9.7797 4.99087 8.48949 4.8211 7.4313C4.8211 8.51779 4.77182 9.59861 4.69515 10.7304L4.08181 20.2994H0.533203L2.17608 1.95925H6.74874L9.07067 11.1435C9.32463 12.0992 9.52937 13.0682 9.68401 14.0464C9.85347 13.0414 10.0728 12.046 10.3412 11.0642L12.7398 1.95925H17.285L18.8677 20.2994H15.3683ZM30.9099 20.9841C30.1339 20.672 29.4846 20.0949 29.0699 19.3487C28.8253 19.6071 28.5616 19.8455 28.2813 20.0617C27.4979 20.5826 26.5781 20.8414 25.6473 20.803C22.7394 20.803 21.1567 19.2695 21.1567 16.5816C21.1567 13.4126 23.276 11.9357 27.438 11.9357H28.2047V11.3698C28.2047 9.86458 27.9199 9.36094 26.6713 9.36094C25.5761 9.36094 24.2946 9.92682 22.8927 10.8945L21.436 8.35934C22.1065 7.91424 22.8161 7.53531 23.5553 7.22758C24.6809 6.70909 25.8989 6.43926 27.1313 6.43535C29.3218 6.43535 30.8333 7.27851 31.3426 8.78375C31.5746 9.56913 31.6527 10.3944 31.5726 11.2114L31.4959 15.7384C31.4959 17.2153 31.5726 17.8491 32.7226 18.7489L30.9099 20.9841ZM27.9966 14.3859C25.6254 14.3859 24.8039 14.8386 24.8039 16.4457C24.782 16.6659 24.8043 16.8884 24.8694 17.0993C24.9346 17.3102 25.0412 17.5049 25.1826 17.6711C25.324 17.8374 25.4971 17.9718 25.6911 18.0657C25.8851 18.1596 26.0957 18.2111 26.3099 18.2169C26.6545 18.1997 26.9918 18.1083 27.3002 17.9485C27.6086 17.7887 27.8812 17.564 28.1006 17.2889L28.1499 14.3859H27.9966ZM38.8669 20.6163C37.1309 20.6163 35.7509 19.824 35.3457 18.6357C35.1237 17.967 35.0452 17.2564 35.1157 16.5533V9.19684H33.8123V6.79186H35.1157C35.0881 5.7244 35.1302 4.65625 35.2416 3.59464L38.7136 2.70055C38.5799 4.05996 38.5123 5.42545 38.511 6.79186H41.5722L40.7069 9.21948H38.5164V16.01C38.5164 17.7077 38.8231 18.1717 39.995 18.1717C40.4135 18.1433 40.8263 18.0557 41.2217 17.9114L41.6543 20.0221C40.7724 20.4089 39.825 20.6109 38.8669 20.6163ZM49.562 9.87589C49.2592 9.69615 48.9144 9.60609 48.5653 9.61559C48.157 9.631 47.7572 9.74064 47.3952 9.93648C47.0333 10.1323 46.7183 10.4094 46.4734 10.7473V20.2994H43.0508V11.2736C43.0998 9.93493 42.937 8.59695 42.5689 7.31246L45.6301 6.46931C45.9572 7.05691 46.1448 7.71626 46.1777 8.39329C46.917 7.36339 47.9684 6.46931 49.2444 6.46931C49.6864 6.45328 50.1252 6.55253 50.5204 6.7579L49.562 9.87589ZM53.1599 5.25833C52.883 5.25684 52.6092 5.19902 52.3539 5.08816C52.0987 4.97731 51.867 4.81558 51.6723 4.61222C51.4775 4.40887 51.3234 4.16786 51.2188 3.90297C51.1142 3.63807 51.0611 3.35448 51.0625 3.06838C51.0683 2.48451 51.2972 1.92668 51.6993 1.51646C52.1014 1.10624 52.6441 0.876902 53.2092 0.878426C53.4858 0.879149 53.7595 0.936537 54.0144 1.04727C54.2694 1.158 54.5006 1.31988 54.6946 1.52354C54.8887 1.7272 55.0417 1.9686 55.1448 2.23376C55.248 2.49893 55.2993 2.78261 55.2956 3.06838C55.2964 3.35761 55.2415 3.64412 55.1343 3.91127C55.027 4.17842 54.8694 4.4209 54.6707 4.62463C54.4721 4.82836 54.2362 4.98929 53.9768 5.09807C53.7175 5.20685 53.4398 5.26132 53.1599 5.25833ZM51.4623 20.2994V7.02387L54.8849 6.45799V20.2994H51.4623ZM77.2554 5.25833C76.9788 5.25685 76.7051 5.19898 76.4502 5.08806C76.1953 4.97713 75.964 4.81531 75.7697 4.61188C75.5753 4.40845 75.4218 4.1674 75.3177 3.90254C75.2137 3.63768 75.1613 3.35421 75.1635 3.06838C75.1678 2.48503 75.3955 1.92718 75.7967 1.51681C76.198 1.10643 76.7401 0.876912 77.3047 0.878426C77.5812 0.879149 77.8549 0.936537 78.1099 1.04727C78.3649 1.158 78.5961 1.31988 78.7901 1.52354C78.9841 1.7272 79.1372 1.9686 79.2403 2.23376C79.3435 2.49893 79.3947 2.78261 79.3911 3.06838C79.3919 3.35761 79.337 3.64412 79.2297 3.91127C79.1225 4.17842 78.9649 4.4209 78.7662 4.62463C78.5675 4.82836 78.3317 4.98929 78.0723 5.09807C77.813 5.20685 77.5353 5.26132 77.2554 5.25833ZM75.5577 20.2994V7.02387L78.9749 6.45799V20.2994H75.5577ZM90.5079 20.9841C89.7319 20.672 89.0826 20.0949 88.6679 19.3487C88.4245 19.6084 88.1607 19.8469 87.8793 20.0617C87.0958 20.5826 86.1761 20.8414 85.2452 20.803C82.3373 20.803 80.7547 19.2695 80.7547 16.5816C80.7547 13.4126 82.874 11.9357 87.036 11.9357H87.8026V11.3698C87.8026 9.86458 87.5179 9.36094 86.2693 9.36094C85.174 9.36094 83.8926 9.92682 82.4907 10.8945L81.034 8.39895C81.7045 7.95385 82.4141 7.57493 83.1533 7.26719C84.2789 6.74871 85.4969 6.47887 86.7293 6.47496C88.9198 6.47496 90.4312 7.31812 90.9405 8.82336C91.1725 9.60874 91.2507 10.434 91.1705 11.251L91.0938 15.778C91.0938 17.255 91.1705 17.8887 92.3205 18.7885L90.5079 20.9841ZM87.6055 14.3859C85.2343 14.3859 84.4183 14.8386 84.4183 16.4457C84.3955 16.6661 84.4172 16.8889 84.4821 17.1002C84.5469 17.3114 84.6535 17.5064 84.7951 17.6729C84.9366 17.8394 85.1101 17.9737 85.3044 18.0674C85.4988 18.161 85.7099 18.2119 85.9243 18.2169C86.266 18.1974 86.6002 18.1049 86.9056 17.9451C87.211 17.7854 87.481 17.562 87.6986 17.2889L87.7479 14.3859H87.6055ZM100.902 20.2994V11.5113C100.902 9.98341 100.644 9.53071 99.7518 9.53071C98.8485 9.64451 98.01 10.0738 97.3751 10.7473V20.2994H93.9524V10.4984C93.969 9.42309 93.8136 8.35238 93.4924 7.32944L96.5318 6.43535C96.8343 6.94781 97.0023 7.53294 97.0191 8.13299C97.5015 7.76853 98.0043 7.43407 98.5251 7.13138C99.257 6.76228 100.06 6.56884 100.874 6.56551C102.331 6.56551 103.613 7.35208 104.018 8.51779C104.211 9.13874 104.296 9.79011 104.27 10.4418V20.2994H100.902Z" fill="#024430"/>
</g>
</svg>
