<svg width="84" height="56" viewBox="0 0 84 56" fill="none" xmlns="http://www.w3.org/2000/svg">
<mask id="mask0_1280_641" style="mask-type:luminance" maskUnits="userSpaceOnUse" x="0" y="0" width="83" height="56">
<path d="M82.9036 0H0.0703125V56H82.9036V0Z" fill="white"/>
</mask>
<g mask="url(#mask0_1280_641)">
<path d="M3.17142 32.792C3.17142 31.3799 2.26329 29.867 -0.359375 29.7662V26.2363C2.25395 26.1355 3.17142 24.6216 3.17142 23.2104C3.17142 20.6886 2.76823 19.0758 2.76823 16.1498C2.76823 11.7118 4.38289 10.2997 8.01355 10.2997H17.6968V13.5271H9.82889C8.11435 13.5271 7.60943 14.1319 7.60943 16.3514L7.81103 23.0088C7.81103 26.1355 6.80303 27.346 4.78516 27.851V28.0526C6.80303 28.5566 7.81103 29.7671 7.81103 32.8947L7.60943 39.5522C7.60943 41.7716 8.11342 42.4772 9.82889 42.4772H10.6362V45.6039H8.02289C4.39222 45.6039 2.77756 44.1918 2.77756 39.7538C2.77756 36.8287 3.18076 35.3158 3.18076 32.7939L3.17142 32.792ZM11.7459 10.6002H17.7986V33.296C17.7986 34.6074 18.4034 35.0106 18.9092 35.0106C19.1108 35.0106 19.3124 35.0106 19.6158 34.9098L20.3223 39.3478C19.6158 39.6502 18.6078 39.8518 17.2964 39.8518C13.1618 39.8518 11.7487 37.1283 11.7487 32.9918L11.7459 10.6002ZM28.7932 18.4682C34.5426 18.4682 37.4686 22.7055 37.4686 28.2523C37.4686 29.363 37.3678 30.2702 37.267 30.7742H24.8592C25.3632 33.9008 27.4726 35.2122 30.2054 35.2122C31.7174 35.2122 33.1304 34.809 34.6434 33.9008L36.6612 37.5315C34.5426 38.9436 31.8191 39.8518 29.398 39.8518C23.5479 39.8518 19.109 35.9178 19.109 29.1595C19.0082 22.6028 23.8503 18.4672 28.7923 18.4672L28.7932 18.4682ZM32.324 27.0427C32.324 24.7224 31.316 23.0079 28.894 23.0079C26.9779 23.0079 25.3632 24.3192 24.96 27.0427H32.324ZM40.8986 33.296C42.7139 34.7082 44.4294 35.4147 46.1439 35.4147C47.9592 35.4147 48.7572 34.7082 48.7572 33.7002C48.7572 32.3888 46.7394 31.6823 44.6226 30.8759C42.2015 29.9678 39.2764 28.2626 39.2764 24.924C39.2764 21.1907 42.4031 18.568 47.0436 18.568C50.1703 18.568 52.4906 19.8794 54.2051 21.1814L51.4816 24.812C49.9696 23.7014 48.6574 23.0975 47.1444 23.0975C45.6315 23.0975 44.8242 23.7023 44.8242 24.7122C44.8242 26.0235 46.7403 26.5275 48.859 27.3255C51.4723 28.2336 54.4067 29.7466 54.4067 33.479C54.4067 37.2114 51.4816 40.0356 46.0347 40.0356C43.4214 40.0356 40.2854 38.925 38.2675 37.2114L40.8986 33.296ZM57.3411 33.296C59.1564 34.7082 60.8719 35.4147 62.5864 35.4147C64.4018 35.4147 65.1998 34.7082 65.1998 33.7002C65.1998 32.3888 63.1819 31.6823 61.0651 30.8759C58.644 29.9678 55.719 28.2626 55.719 24.924C55.719 21.1907 58.8456 18.568 63.4862 18.568C66.6128 18.568 68.9331 19.8794 70.6476 21.1814L67.9242 24.812C66.4122 23.7014 65.0999 23.0975 63.587 23.0975C62.074 23.0975 61.2667 23.7023 61.2667 24.7122C61.2667 26.0235 63.1828 26.5275 65.2007 27.3255C67.814 28.2336 70.7484 29.7466 70.7484 33.479C70.7484 37.2114 67.8234 40.0356 62.3764 40.0356C59.7631 40.0356 56.6271 38.925 54.6092 37.2114L57.3411 33.296ZM72.2688 42.3736C73.9834 42.3736 74.4883 41.7688 74.4883 39.4486C74.4883 37.2291 74.2867 35.2112 74.2867 32.7911C74.2867 29.6644 75.2947 28.4539 77.3126 27.949V27.7474C75.2947 27.2434 74.2867 26.0328 74.2867 22.9052C74.2867 20.4842 74.4883 18.3664 74.4883 16.2478C74.4883 14.0283 74.0851 13.4235 72.2688 13.4235H71.4615V10.2969H74.0748C77.7055 10.2969 79.3202 11.709 79.3202 16.147C79.3202 18.9712 78.917 20.585 78.917 23.2076C78.917 24.6198 79.8251 26.1327 82.4478 26.2335V29.7643C79.8344 29.8651 78.917 31.379 78.917 32.7902C78.917 35.4035 79.3202 36.9248 79.3202 39.8508C79.3202 44.2888 77.7055 45.701 74.0748 45.701H71.4615V42.4763L72.2688 42.3736Z" fill="#2A4D80"/>
</g>
</svg>
