<svg width="108" height="40" viewBox="0 0 108 40" fill="none" xmlns="http://www.w3.org/2000/svg">
<g opacity="0.8" clip-path="url(#clip0_463_37718)">
<path opacity="0.5" d="M20.4919 14.0333L12.1711 18.8333L3.87109 14.0333L12.1711 9.21667L20.4919 14.0333Z" fill="white"/>
<path d="M10.3206 19.9L2.94141 24.175V15.625L10.3206 19.9Z" fill="white"/>
<path opacity="0.5" d="M20.4902 25.7667L12.1861 30.5833L3.86523 25.7667L12.1861 20.9708L20.4902 25.7667Z" fill="white"/>
<path d="M1.37852 27.0916L11.4952 32.9375C11.9368 33.1916 12.4785 33.1916 12.9202 32.9375L23.0827 27.0625C24.0327 26.5125 24.0285 25.1458 23.0827 24.6L14.9618 19.9166L22.9452 15.3125C23.8952 14.7666 23.8952 13.3958 22.9452 12.85L12.9077 7.0583C12.466 6.80413 11.9243 6.80413 11.4868 7.0583L1.37852 12.8916C0.936849 13.1458 0.666016 13.6166 0.666016 14.125V25.8625C0.666016 26.3708 0.936849 26.8375 1.37852 27.0916ZM12.1702 9.72913L19.6035 14.0125L12.1702 18.3L4.73685 14.0166L12.1702 9.72913ZM9.43268 19.9L3.38685 23.4041V16.3958L9.43268 19.9ZM12.1702 30.0708L4.75768 25.7875L12.1868 21.5L19.6202 25.7833L12.1702 30.0708Z" fill="#024430"/>
<path d="M36.991 15.6708C37.7368 15.6708 38.4493 15.8667 39.0702 16.2208C39.6577 16.5583 40.4035 16.45 40.8827 15.9708C41.5743 15.2792 41.4535 14.1042 40.5993 13.6042C39.516 12.9833 38.2868 12.6458 36.991 12.6458C33.0077 12.6458 29.791 15.8833 29.791 19.8833C29.791 23.8667 33.0285 27.1208 36.991 27.1208C38.2702 27.1208 39.516 26.7833 40.5993 26.1625C41.4535 25.6666 41.5785 24.4917 40.8827 23.8167C40.4035 23.3375 39.6577 23.2292 39.0702 23.5667C38.4493 23.9208 37.7202 24.1167 36.991 24.1167C34.6785 24.1167 32.7952 22.2125 32.7952 19.8833C32.7952 17.5708 34.6785 15.6708 36.991 15.6708ZM54.3618 12.6625C53.5243 12.6625 52.8493 13.3375 52.8493 14.175V19.8292C52.8493 22.1958 51.3368 24.1125 49.4868 24.1125C47.6368 24.1125 46.1243 22.1917 46.1243 19.8292V14.175C46.1243 13.3375 45.4493 12.6625 44.6118 12.6625C43.7743 12.6625 43.0993 13.3375 43.0993 14.175V19.8292C43.0993 23.8458 45.9618 27.1208 49.466 27.1208C52.9868 27.1208 55.8327 23.85 55.8327 19.8292V14.175C55.8743 13.3375 55.1993 12.6625 54.3618 12.6625ZM79.8952 12.6625C78.3827 12.6625 76.9618 13.1583 75.8243 13.9791V9.64165C75.8243 8.80415 75.1493 8.12915 74.3118 8.12915C73.4743 8.12915 72.7993 8.80415 72.7993 9.64165V19.8833C72.7993 23.8667 75.9827 27.1208 79.8952 27.1208C83.8077 27.1208 86.991 23.8833 86.991 19.8833C86.9743 15.9167 83.791 12.6625 79.8952 12.6625ZM79.8952 24.1333C77.6368 24.1333 75.8243 22.2291 75.8243 19.9C75.8243 17.5708 77.6577 15.6666 79.8952 15.6666C82.1535 15.6666 83.9827 17.5708 83.9827 19.9C83.9702 22.2291 82.1368 24.1333 79.8952 24.1333ZM90.0493 12.6625C89.2118 12.6625 88.5368 13.3375 88.5368 14.175V25.625C88.5368 26.4625 89.2118 27.1375 90.0493 27.1375C90.8868 27.1375 91.5618 26.4625 91.5618 25.625V14.175C91.5618 13.3375 90.8868 12.6625 90.0493 12.6625ZM64.3368 12.6625C60.4243 12.6625 57.241 15.9 57.241 19.9C57.241 23.8833 60.5493 27.1375 64.6202 27.1375C65.9368 27.1375 67.216 26.8 68.3202 26.1583C69.1743 25.6791 69.316 24.5042 68.641 23.8125C68.1618 23.3333 67.4327 23.2083 66.8452 23.5458C66.1868 23.9208 65.4243 24.1333 64.641 24.1333C62.7743 24.1333 61.191 22.9958 60.5535 21.4125H69.941C70.7785 21.4125 71.4535 20.7375 71.4535 19.9C71.4327 15.9166 68.2493 12.6625 64.3368 12.6625ZM60.516 18.3875C61.1035 16.8042 62.5952 15.6666 64.3368 15.6666C66.0785 15.6666 67.5743 16.8042 68.1577 18.3875H60.516ZM90.0493 8.16665C89.2118 8.16665 88.5368 8.84165 88.5368 9.67915C88.5368 10.5166 89.2118 11.1917 90.0493 11.1917C90.8868 11.1917 91.5618 10.5166 91.5618 9.67915C91.5618 8.82498 90.8868 8.16665 90.0493 8.16665ZM100.22 12.6625C96.3077 12.6625 93.1243 15.9 93.1243 19.9C93.1243 23.8833 96.3077 27.1375 100.22 27.1375C101.733 27.1375 103.154 26.6416 104.308 25.8041V30.1416C104.308 30.9791 104.983 31.6542 105.82 31.6542C106.658 31.6542 107.333 30.9791 107.333 30.1416V19.9C107.316 15.9166 104.133 12.6625 100.22 12.6625ZM100.22 24.1333C97.9618 24.1333 96.1327 22.2291 96.1327 19.9C96.1327 17.5708 97.966 15.6666 100.22 15.6666C102.479 15.6666 104.308 17.5708 104.308 19.9C104.308 22.2291 102.479 24.1333 100.22 24.1333Z" fill="#024430"/>
</g>
<defs>
<clipPath id="clip0_463_37718">
<rect width="106.667" height="40" fill="white" transform="translate(0.666016)"/>
</clipPath>
</defs>
</svg>
