<svg width="48" height="48" viewBox="0 0 48 48" fill="none" xmlns="http://www.w3.org/2000/svg">
<g clip-path="url(#clip0_151_27122)">
<path d="M20.9204 26.8396C19.4347 29.0159 16.7583 30.4792 13.705 30.4792C10.6513 30.4792 7.97492 29.0159 6.48929 26.8396L1.88684 29.228C1.25819 29.5546 0.871094 30.1549 0.871094 30.8036V47.2162H26.5386V31.1056C26.5386 30.4906 26.1912 29.9171 25.6143 29.5803L20.9204 26.8396Z" fill="#FFD166"/>
<path d="M26.5393 47.9905H0.87185C0.444683 47.9905 0.0976562 47.6438 0.0976562 47.2163V30.8036C0.0976562 29.8669 0.646547 28.9997 1.53075 28.5415L6.13319 26.1528C6.48022 25.9717 6.90814 26.0802 7.12891 26.4038C8.51928 28.4406 11.0392 29.7058 13.7058 29.7058C16.372 29.7058 18.8919 28.4406 20.2823 26.4038C20.5102 26.0685 20.9608 25.9664 21.312 26.1717L26.0059 28.9124C26.8251 29.3898 27.3135 30.2097 27.3135 31.1057V47.217C27.3135 47.6446 26.9676 47.9905 26.5393 47.9905V47.9905ZM1.64604 46.4421H25.7651V31.1057C25.7651 30.7666 25.5633 30.4468 25.2249 30.249L21.1279 27.8569C19.3867 29.9962 16.6653 31.2542 13.7058 31.2542C10.7334 31.2542 8.00139 29.9859 6.26172 27.8308L2.2437 29.9156C1.87513 30.1069 1.64604 30.4475 1.64604 30.8036V46.4421Z" fill="#024430"/>
<path d="M13.7048 6.68262C9.7231 6.68262 6.47511 10.072 6.47511 14.2265V16.3755L4.47461 20.7996L7.24855 19.3827C8.43933 21.8508 10.8851 24.2842 13.7048 24.2842C17.6866 24.2842 20.9342 20.8944 20.9342 16.7403V14.2257C20.9342 10.072 17.6866 6.68262 13.7048 6.68262Z" fill="white"/>
<path d="M13.7043 25.0592C10.8196 25.0592 8.31252 22.8285 6.92139 20.4193L4.82563 21.4891C4.53304 21.6403 4.17694 21.5866 3.93916 21.3598C3.70063 21.133 3.63258 20.7799 3.76829 20.4805L5.69962 16.2085V14.2258C5.69962 9.63957 9.29047 5.90771 13.7035 5.90771C18.1162 5.90771 21.7071 9.63957 21.7071 14.2258V16.7404C21.7086 21.3273 18.1177 25.0592 13.7043 25.0592ZM7.24801 18.6093C7.33117 18.6093 7.41471 18.6226 7.49523 18.6494C7.69256 18.7159 7.85511 18.8592 7.94584 19.0467C9.01716 21.2687 11.2135 23.5108 13.7043 23.5108C17.2638 23.5108 20.1594 20.4741 20.1594 16.7411V14.2265C20.1594 10.4935 17.263 7.45686 13.7043 7.45686C10.1452 7.45686 7.24876 10.4935 7.24876 14.2265V16.3756C7.24876 16.4856 7.2257 16.5948 7.17996 16.6946L6.09012 19.1045L6.89607 18.6929C7.00569 18.6373 7.12666 18.6093 7.24801 18.6093ZM6.47457 16.3756H6.48251H6.47457Z" fill="#024430"/>
<path d="M46.0963 27.3212L38.455 23.7693L34.4207 31.6356C33.9757 32.5035 32.7895 32.5035 32.3442 31.6356L28.3107 23.7693L20.7509 26.9318C19.9548 27.2645 19.4434 28.0001 19.4434 28.8106V47.2257H47.3219V29.1644C47.3219 28.3842 46.8475 27.6705 46.0963 27.3212Z" fill="white"/>
<path d="M47.3219 48.0001H19.4441C19.0166 48.0001 18.6699 47.6531 18.6699 47.2259V28.8108C18.6699 27.6892 19.3696 26.6712 20.4519 26.2172L28.0128 23.0554C28.3836 22.9 28.8157 23.0562 28.9998 23.4164L33.0333 31.2831C33.1362 31.4827 33.2964 31.5129 33.3834 31.5129C33.4692 31.5129 33.6295 31.4827 33.7323 31.2831L37.7662 23.4164C37.9556 23.0456 38.4039 22.8913 38.7808 23.0679L46.4222 26.619C47.4542 27.0991 48.0953 28.0748 48.0953 29.1646V47.2259C48.0961 47.6531 47.7491 48.0001 47.3219 48.0001V48.0001ZM20.2183 46.4517H46.5477V29.1646C46.5477 28.6838 46.2498 28.2464 45.7705 28.0234L38.8042 24.786L35.1106 31.9896C34.7715 32.6508 34.1103 33.0613 33.3841 33.0613C32.658 33.0613 31.996 32.65 31.6569 31.9896L27.95 24.761L21.0503 27.6465C20.5457 27.8578 20.2191 28.3156 20.2191 28.8116L20.2183 46.4517Z" fill="#024430"/>
<path d="M21.7676 44.9033V29.0247L27.2262 26.7415L30.2788 32.695C30.8844 33.8755 32.0744 34.6089 33.3843 34.6089C34.6941 34.6089 35.8841 33.8755 36.4886 32.695L39.5033 26.8182L45.0002 29.3729V44.9033H21.7676Z" fill="#06D6A0"/>
<path d="M25.25 12.1485V9.30504C25.25 4.60734 28.904 0.77417 33.3836 0.77417C37.8632 0.77417 41.5171 4.60734 41.5171 9.30504V12.1485C41.5171 16.8474 37.8632 20.6794 33.3836 20.6794C28.904 20.6794 25.25 16.8474 25.25 12.1485Z" fill="white"/>
<path d="M33.3843 21.4536C28.4727 21.4536 24.4766 17.2791 24.4766 12.1486V9.30507C24.4766 4.17452 28.4719 0 33.3843 0C38.2964 0 42.2921 4.17452 42.2921 9.30507V12.1486C42.2921 17.2799 38.2956 21.4536 33.3843 21.4536ZM33.3843 1.54839C29.3259 1.54839 26.0249 5.02848 26.0249 9.30507V12.1486C26.0249 16.4252 29.3259 19.9052 33.3843 19.9052C37.4424 19.9052 40.7437 16.4252 40.7437 12.1486V9.30507C40.7437 5.02848 37.4417 1.54839 33.3843 1.54839Z" fill="#024430"/>
</g>
<defs>
<clipPath id="clip0_151_27122">
<rect width="48" height="48" fill="white"/>
</clipPath>
</defs>
</svg>
