<svg width="75" height="75" viewBox="0 0 75 75" fill="none" xmlns="http://www.w3.org/2000/svg">
<g clip-path="url(#clip0_19_19653)">
<path d="M25.9173 53.8076H16.166V51.3883H24.7076V36.2513H27.1269V52.5979C27.1269 52.9198 27 53.227 26.7725 53.4532C26.5451 53.6794 26.238 53.8076 25.9173 53.8076Z" fill="#024430"/>
<path d="M59.2329 53.8077H49.4817C48.813 53.8077 48.272 53.2672 48.272 52.598V36.2532H50.6913V51.3895H59.2329V53.8077Z" fill="#024430"/>
<path d="M36.6045 36.4438H39.0238V54.2659H36.6045V36.4438Z" fill="#024430"/>
<path d="M1.20947 45.7368H15.4876V60.3918H1.20947V45.7368Z" fill="#06D6A0"/>
<path d="M15.4878 61.6014H1.20968C0.542229 61.6014 0 61.0609 0 60.3917V45.7368C0 45.0676 0.542229 44.5271 1.20968 44.5271H15.4878C16.1552 44.5271 16.6974 45.0676 16.6974 45.7368V60.3917C16.6974 61.0609 16.1552 61.6014 15.4878 61.6014ZM2.41935 59.182H14.2781V46.9465H2.41935V59.182Z" fill="#024430"/>
<path d="M4.83887 49.3658H11.8589V56.7627H4.83887V49.3658Z" fill="white"/>
<path d="M9.59435 53.2305C9.44314 53.1 9.26653 52.986 9.06807 52.8933C8.87787 52.8047 8.67823 52.7178 8.46559 52.6346C8.30848 52.5749 8.16435 52.517 8.035 52.4639C7.91509 52.4142 7.81114 52.3575 7.72549 52.2955C7.64752 52.24 7.58846 52.1768 7.54888 52.1095C7.51226 52.0451 7.49277 51.963 7.49277 51.8649C7.49277 51.686 7.55715 51.5507 7.69005 51.455C7.83772 51.3487 8.05567 51.2938 8.34096 51.2938C8.61444 51.2938 8.84303 51.3192 9.02081 51.3676C9.20687 51.4172 9.36163 51.4668 9.48626 51.5141L9.64751 51.5743L9.87019 50.6381L9.74438 50.5926C9.62211 50.5477 9.45968 50.5005 9.24822 50.4485C9.07988 50.4072 8.89973 50.3782 8.70894 50.3635V49.4349H7.74085V50.4036C7.33802 50.4834 7.02024 50.6505 6.79402 50.8986C6.54239 51.1756 6.4154 51.53 6.4154 51.9571C6.4154 52.1986 6.4597 52.4083 6.54712 52.5784C6.63158 52.7456 6.74558 52.8909 6.88202 53.009C7.01729 53.1266 7.16968 53.2246 7.33565 53.302C7.49631 53.3782 7.65993 53.4473 7.82295 53.5076C7.98656 53.5684 8.14604 53.631 8.3008 53.6942C8.45319 53.758 8.58018 53.8259 8.69063 53.9021C8.79341 53.9724 8.87551 54.0545 8.93635 54.1467C8.99187 54.2323 9.01963 54.3339 9.01963 54.4573C9.01963 54.6192 8.95643 54.7474 8.82826 54.8519C8.73434 54.9281 8.52466 55.0197 8.0604 55.0197C7.74676 55.0197 7.48214 54.9895 7.27304 54.9281C7.05509 54.8637 6.86903 54.7946 6.72018 54.7231L6.56366 54.6469L6.27246 55.5448L6.37996 55.605C6.50341 55.6765 6.68002 55.7456 6.93637 55.8277C7.15196 55.8956 7.42307 55.9381 7.74203 55.9547V56.9942H8.70776V55.9163C9.1549 55.8401 9.49748 55.6824 9.72843 55.4432C9.9836 55.1744 10.1141 54.8236 10.1141 54.3995C10.1141 54.1343 10.0657 53.9045 9.9706 53.7167C9.87609 53.5306 9.75028 53.3664 9.59435 53.2305V53.2305Z" fill="#024430"/>
<path d="M30.9556 55.5057H45.2337V70.1613H30.9556V55.5057Z" fill="#06D6A0"/>
<path d="M45.2346 71.371H30.9553C30.2878 71.371 29.7456 70.8305 29.7456 70.1613V55.5075C29.7456 54.8383 30.2878 54.2979 30.9553 54.2979H45.2334C45.902 54.2979 46.4431 54.8383 46.4431 55.5075V70.1613C46.4442 70.8305 45.902 71.371 45.2346 71.371ZM32.165 68.9516H44.0237V56.7172H32.165V68.9516Z" fill="#024430"/>
<path d="M34.5854 59.1366H41.6055V66.5323H34.5854V59.1366Z" fill="white"/>
<path d="M39.8119 62.8524C39.6619 62.7207 39.4841 62.6067 39.2833 62.5122C39.0943 62.4242 38.8946 62.3373 38.6808 62.2535C38.5237 62.1944 38.3796 62.1365 38.2502 62.0828C38.1303 62.0331 38.0263 61.9764 37.9401 61.915C37.8627 61.8595 37.8037 61.7963 37.7635 61.7284C37.7275 61.6646 37.708 61.5825 37.708 61.4844C37.708 61.3043 37.7724 61.1696 37.9053 61.0739C38.0529 60.9676 38.2721 60.9132 38.5562 60.9132C38.8296 60.9132 39.057 60.9386 39.236 60.9871C39.4221 61.0367 39.5768 61.0863 39.7015 61.1336L39.8627 61.1938L40.0866 60.2588L39.9608 60.2115C39.8409 60.1666 39.6796 60.12 39.4646 60.0674C39.2963 60.0267 39.1161 59.9977 38.9253 59.9829V59.0538H37.9584V60.0231C37.5556 60.1028 37.2378 60.27 37.0116 60.5187C36.76 60.7945 36.6318 61.1489 36.6318 61.576C36.6318 61.817 36.6761 62.0272 36.7647 62.1979C36.848 62.3639 36.962 62.5086 37.0996 62.6297C37.2301 62.7437 37.3825 62.8418 37.5544 62.9227C37.7157 62.9977 37.8775 63.0662 38.0423 63.1282C38.2053 63.1885 38.3648 63.2505 38.5195 63.3131C38.6648 63.3751 38.7954 63.4436 38.9082 63.5216C39.0133 63.5937 39.0943 63.674 39.1551 63.7655C39.2106 63.8506 39.2372 63.9522 39.2372 64.0768C39.2372 64.2387 39.174 64.3668 39.047 64.4708C38.9531 64.547 38.7422 64.6391 38.278 64.6391C37.9643 64.6391 37.6997 64.609 37.4906 64.547C37.275 64.4832 37.089 64.4153 36.9366 64.3426L36.7812 64.2688L36.4912 65.1642L36.5987 65.2245C36.7257 65.2971 36.9088 65.3698 37.1551 65.4472C37.3731 65.5163 37.643 65.5582 37.9596 65.5753V66.6131H38.9265V65.5352C39.3725 65.459 39.715 65.3019 39.946 65.0626C40.2023 64.7951 40.3317 64.4442 40.3317 64.0184C40.3317 63.7537 40.2833 63.5251 40.1882 63.3361C40.0948 63.1501 39.9679 62.9865 39.8119 62.8524Z" fill="#024430"/>
<path d="M59.5122 44.5148H73.7903V59.1703H59.5122V44.5148Z" fill="#06D6A0"/>
<path d="M73.7902 60.38H59.5109C58.8423 60.38 58.3013 59.8389 58.3013 59.1703V44.516C58.3013 43.8473 58.8423 43.3063 59.5109 43.3063H73.7902C74.4594 43.3063 74.9999 43.8473 74.9999 44.516V59.1703C74.9999 59.8389 74.4594 60.38 73.7902 60.38ZM60.7206 57.9606H72.5805V45.7256H60.7206V57.9606Z" fill="#024430"/>
<path d="M63.1401 48.1449H70.1613V55.5412H63.1401V48.1449Z" fill="white"/>
<path d="M68.4126 52.3452C68.3204 52.1603 68.1934 51.9967 68.0375 51.8614C67.8863 51.7285 67.7097 51.6145 67.51 51.5212C67.321 51.4332 67.1202 51.3458 66.9076 51.2625C66.7504 51.2034 66.6063 51.1449 66.4782 51.0918C66.3582 51.0422 66.2531 50.9855 66.1686 50.924C66.0907 50.8679 66.0304 50.8053 65.992 50.7374C65.9542 50.6736 65.9359 50.5939 65.9359 50.4934C65.9359 50.3127 66.0015 50.1786 66.1332 50.0829C66.2797 49.9766 66.4988 49.9223 66.7829 49.9223C67.0576 49.9223 67.285 49.9477 67.464 49.9961C67.65 50.0457 67.8048 50.0953 67.9294 50.1426L68.0907 50.2028L68.3133 49.2678L68.1875 49.2206C68.0664 49.1757 67.9052 49.1284 67.6914 49.0764C67.523 49.0357 67.3429 49.0067 67.1521 48.992V48.0629H66.1864V49.0321C65.7835 49.1119 65.4646 49.2785 65.2395 49.5277C64.9879 49.8024 64.8609 50.1579 64.8609 50.585C64.8609 50.8283 64.9052 51.0374 64.9926 51.207C65.0747 51.3712 65.1876 51.5165 65.3275 51.6387C65.4634 51.7563 65.6158 51.8543 65.78 51.9305C65.9412 52.0067 66.1054 52.0752 66.2691 52.1373C66.4321 52.1975 66.5916 52.2595 66.7451 52.3221C66.8928 52.3853 67.0233 52.4539 67.1338 52.5289C67.2413 52.6039 67.321 52.6836 67.3807 52.7746C67.4374 52.8608 67.464 52.9624 67.464 53.0853C67.464 53.2477 67.4008 53.3759 67.2726 53.4798C67.1787 53.556 66.9678 53.6482 66.5047 53.6482C66.1899 53.6482 65.9253 53.6181 65.7162 53.556C65.4971 53.4911 65.3122 53.4231 65.1645 53.3517L65.0068 53.2755L64.7168 54.1733L64.8243 54.2335C64.9501 54.3062 65.1326 54.3788 65.3807 54.4562C65.5998 54.5253 65.8698 54.5672 66.1864 54.5844V55.6222H67.1521V54.5442C67.5992 54.468 67.9418 54.3109 68.1739 54.0705C68.4291 53.8029 68.5585 53.4509 68.5585 53.0274C68.5573 52.7663 68.5088 52.5365 68.4126 52.3452V52.3452Z" fill="#024430"/>
<path d="M18.0254 34.1599C18.0254 35.2018 18.8517 36.0482 19.8653 36.0482H55.4504C56.4657 36.0482 57.2903 35.2006 57.2903 34.1599V11.5959H18.0254V34.1599Z" fill="white"/>
<path d="M55.4501 37.259H19.865C18.184 37.259 16.8154 35.8692 16.8154 34.1598V11.5959C16.8154 10.9273 17.3577 10.3862 18.0251 10.3862H57.2888C57.958 10.3862 58.4985 10.9273 58.4985 11.5959V34.1598C58.4985 35.868 57.1317 37.259 55.4501 37.259V37.259ZM19.2348 12.8056V34.1598C19.2348 34.5349 19.5177 34.8397 19.865 34.8397H55.4501C55.7974 34.8397 56.0803 34.5349 56.0803 34.1598V12.8056H19.2348Z" fill="#024430"/>
<path d="M57.2903 11.5959V6.72828C57.448 5.68694 56.6228 4.83875 55.6081 4.83875H20.0348C19.0088 4.83875 18.1825 5.68694 18.0254 6.76844V11.6237L57.2903 11.5959Z" fill="#AEE6B9"/>
<path d="M18.0251 12.8333C17.705 12.8333 17.3961 12.7063 17.1698 12.4789C16.9436 12.2515 16.8154 11.9456 16.8154 11.6236V6.7684C16.8154 6.70993 16.819 6.65086 16.8278 6.59297C17.0783 4.87474 18.4268 3.62903 20.0345 3.62903H55.6078C56.4725 3.62903 57.2865 3.99937 57.8405 4.64261C58.3532 5.23918 58.5906 6.02298 58.4997 6.80679V11.5959C58.4997 12.2639 57.9592 12.8056 57.2912 12.8056L18.0251 12.8333ZM57.2888 11.5959H57.3012H57.2888ZM19.2348 6.87V10.414L56.0792 10.3886V6.72824C56.0792 6.66799 56.0839 6.60597 56.0939 6.5469C56.1134 6.41991 56.0839 6.31359 56.0053 6.22027C55.9126 6.11099 55.7673 6.04838 55.6078 6.04838H20.0345C19.6642 6.04838 19.3305 6.39687 19.2348 6.87Z" fill="#024430"/>
<path d="M54.4619 8.24505C54.4619 7.57051 53.9291 7.02356 53.2717 7.02356C52.6143 7.02356 52.0815 7.57051 52.0815 8.24505C52.0815 8.92018 52.6143 9.46713 53.2717 9.46713C53.9291 9.46713 54.4619 8.92018 54.4619 8.24505Z" fill="white"/>
<path d="M50.8921 8.24505C50.8921 7.57051 50.3593 7.02356 49.7019 7.02356C49.0445 7.02356 48.5117 7.57051 48.5117 8.24505C48.5117 8.92018 49.0445 9.46713 49.7019 9.46713C50.3593 9.46713 50.8921 8.92018 50.8921 8.24505Z" fill="white"/>
<path d="M47.3229 8.24505C47.3229 7.57051 46.7901 7.02356 46.1327 7.02356C45.4753 7.02356 44.9419 7.57051 44.9419 8.24505C44.9419 8.92018 45.4753 9.46713 46.1327 9.46713C46.7901 9.46713 47.3229 8.92018 47.3229 8.24505Z" fill="white"/>
<path d="M37.4249 28.0039C38.2477 28.0039 38.8248 27.8687 39.1549 27.6011C39.4863 27.3329 39.6517 26.9892 39.6517 26.5728C39.6517 26.2656 39.5796 26.0034 39.4355 25.783C39.2914 25.5627 39.0988 25.3719 38.8584 25.2072C38.6186 25.0429 38.3404 24.8941 38.0262 24.7636C37.7102 24.6324 37.3877 24.5066 37.0569 24.3849C36.7368 24.2639 36.4184 24.131 36.103 23.9821C35.7882 23.8345 35.5076 23.6531 35.2619 23.4399C35.0162 23.2261 34.8153 22.9691 34.6618 22.6667C34.507 22.3655 34.4296 21.9957 34.4296 21.5574C34.4296 20.7784 34.657 20.1399 35.1107 19.6413C35.5643 19.1434 36.2247 18.8274 37.09 18.6969V16.8062H38.4207V18.6472C38.8897 18.6691 39.328 18.7282 39.7344 18.8274C40.1396 18.9266 40.4597 19.0188 40.6948 19.1068L40.39 20.3891C40.1331 20.2911 39.8141 20.1895 39.4296 20.0855C39.0445 19.9816 38.5643 19.9296 37.9872 19.9296C37.3463 19.9296 36.8525 20.0566 36.5058 20.3082C36.1585 20.5598 35.9843 20.9166 35.9843 21.3773C35.9843 21.6289 36.0351 21.8433 36.1366 22.0188C36.2382 22.1942 36.3847 22.3501 36.5767 22.4866C36.7692 22.6248 36.9967 22.7482 37.2577 22.8557C37.5194 22.9656 37.8106 23.0808 38.1313 23.203C38.5477 23.3661 38.9429 23.5379 39.3168 23.711C39.6907 23.8876 40.0185 24.0979 40.3014 24.3448C40.5843 24.5917 40.8117 24.8841 40.9824 25.2243C41.1531 25.5639 41.2388 25.9756 41.2388 26.4582C41.2388 27.2361 41.009 27.864 40.5495 28.3418C40.0911 28.8185 39.38 29.1167 38.419 29.2367V31.3583H37.0888V29.2863C36.341 29.2644 35.7315 29.1788 35.2619 29.0323C34.7917 28.8834 34.4397 28.7446 34.2046 28.6123L34.6051 27.3796C34.9258 27.5338 35.3103 27.6761 35.758 27.8067C36.2069 27.9366 36.7622 28.0039 37.4249 28.0039V28.0039Z" fill="#024430"/>
<path d="M38.7205 31.6595H36.7867V29.5768C36.1476 29.5414 35.6047 29.4558 35.1718 29.3187C34.6745 29.1628 34.31 29.0175 34.056 28.8751L33.8398 28.7529L34.4252 26.9555L34.7371 27.1067C35.0371 27.2502 35.4086 27.3884 35.844 27.5154C36.2639 27.6389 36.7961 27.7003 37.4252 27.7003C38.3566 27.7003 38.7766 27.519 38.965 27.3654C39.2237 27.1563 39.3484 26.8958 39.3484 26.5727C39.3484 26.3252 39.294 26.1203 39.1818 25.949C39.0607 25.7647 38.8947 25.5993 38.6868 25.4576C38.4665 25.3064 38.2054 25.1675 37.9077 25.0417C37.597 24.9136 37.2775 24.7889 36.9509 24.6678C36.6207 24.5432 36.2952 24.4062 35.9721 24.2538C35.6372 24.0967 35.3313 23.8994 35.0625 23.6684C34.7879 23.4292 34.5616 23.1386 34.3903 22.8037C34.2137 22.4611 34.124 22.0418 34.124 21.5562C34.124 20.7039 34.3791 19.9898 34.8847 19.4358C35.3372 18.9384 35.9763 18.6047 36.7843 18.4417V16.5013H38.7181V18.3619C39.0991 18.3921 39.4635 18.4488 39.802 18.532C40.2314 18.6378 40.558 18.7329 40.7979 18.8226L41.0471 18.9172L40.6006 20.7931L40.2787 20.6697C40.0294 20.574 39.7152 20.4759 39.346 20.3761C38.9892 20.2792 38.5309 20.2296 37.9828 20.2296C37.4104 20.2296 36.9727 20.3383 36.6786 20.5509C36.408 20.747 36.2822 21.0087 36.2822 21.3761C36.2822 21.5734 36.3194 21.7382 36.3933 21.8663C36.473 22.004 36.5917 22.1298 36.7465 22.2385C36.9207 22.3643 37.1298 22.4759 37.3696 22.5763C37.6295 22.685 37.9178 22.799 38.2344 22.9183C38.6602 23.0866 39.0607 23.2597 39.4405 23.4363C39.8422 23.6247 40.1966 23.8551 40.4978 24.1173C40.8097 24.3908 41.0625 24.7163 41.2491 25.0902C41.4399 25.4688 41.5368 25.9295 41.5368 26.4593C41.5368 27.3122 41.2769 28.0163 40.7642 28.5509C40.3005 29.0299 39.6136 29.3483 38.7169 29.4977V31.6595H38.7205ZM37.3915 31.0547H38.1168V28.9696L38.382 28.9366C39.2674 28.8255 39.9243 28.5556 40.333 28.1309C40.74 27.7062 40.9367 27.1599 40.9367 26.4581C40.9367 26.0252 40.8605 25.6548 40.7116 25.3595C40.5616 25.0571 40.356 24.7937 40.1032 24.5733C39.8445 24.3459 39.5362 24.1487 39.1877 23.9856C38.8197 23.8137 38.4305 23.6454 38.0194 23.4836C37.6986 23.3613 37.4033 23.2461 37.1399 23.1351C36.8593 23.0175 36.6089 22.8823 36.3992 22.7322C36.1753 22.5739 35.9975 22.3849 35.8741 22.1699C35.7459 21.9473 35.6809 21.682 35.6809 21.3773C35.6809 20.815 35.8983 20.3731 36.3265 20.0636C36.7258 19.7736 37.2846 19.6271 37.9863 19.6271C38.5888 19.6271 39.1009 19.6838 39.5084 19.7949C39.7524 19.8616 39.9751 19.9272 40.1735 19.9933L40.3371 19.3064C40.154 19.2497 39.9302 19.1877 39.6608 19.1239C39.2775 19.0294 38.8552 18.9715 38.4063 18.9508L38.1168 18.9372V17.1085H37.3915V18.9567L37.1352 18.9957C36.3437 19.1168 35.7388 19.4021 35.3348 19.8445C34.9296 20.2899 34.7312 20.8498 34.7312 21.5574C34.7312 21.9449 34.7979 22.2727 34.9308 22.5291C35.0672 22.7954 35.2456 23.0252 35.4606 23.2125C35.6868 23.4074 35.9456 23.5751 36.2314 23.7086C36.5398 23.8551 36.8505 23.9856 37.1641 24.1014C37.4966 24.2248 37.8233 24.3507 38.144 24.4842C38.4801 24.6241 38.779 24.7848 39.0318 24.959C39.3041 25.1457 39.525 25.3672 39.6898 25.6188C39.8664 25.887 39.9556 26.2077 39.9556 26.5727C39.9556 27.0837 39.7512 27.5083 39.3472 27.8362C38.9579 28.1528 38.3289 28.3063 37.4263 28.3063C36.7394 28.3063 36.1499 28.2349 35.675 28.0972C35.3431 28.0004 35.0507 27.8988 34.7902 27.7925L34.574 28.4575C34.776 28.5473 35.0371 28.643 35.3543 28.7434C35.8008 28.8822 36.3874 28.9643 37.0997 28.9838L37.3939 28.9921V31.0547H37.3915Z" fill="#024430"/>
</g>
<defs>
<clipPath id="clip0_19_19653">
<rect width="75" height="75" fill="white"/>
</clipPath>
</defs>
</svg>
