<svg width="46" height="60" viewBox="0 0 46 60" fill="none" xmlns="http://www.w3.org/2000/svg">
<mask id="mask0_1279_369" style="mask-type:luminance" maskUnits="userSpaceOnUse" x="0" y="0" width="46" height="60">
<path d="M45.1618 0.436523H0.804688V59.3456H45.1618V0.436523Z" fill="white"/>
</mask>
<g mask="url(#mask0_1279_369)">
<path d="M5.9375 0.436523H8.59431V3.05982H11.0432V0.436523H13.7V8.37545H11.0432V5.72913H8.61741V8.37545H5.9375M17.2116 3.08283H14.8667V0.436523H22.2249V3.08283H19.8684V8.37545H17.2116M23.3916 0.436523H26.1755L27.885 3.2324L29.5947 0.436523H32.3786V8.37545H29.7217V4.4405L27.8619 7.29391L26.0022 4.4405V8.37545H23.3916M33.6954 0.436523H36.3522V5.75215H40.1179V8.37545H33.6954" fill="black"/>
<path d="M5.84319 54.6278L2.03125 12.0107H43.9395L40.1275 54.6047L22.9507 59.3452" fill="#E44D26"/>
<path d="M22.9844 55.7211V15.5088H40.115L36.8459 51.8667" fill="#F16529"/>
<path d="M9.82031 20.7207H22.9889V25.9443H15.5729L16.058 31.2944H22.9889V36.5065H11.2526M11.4837 39.1298H16.7512L17.1208 43.3063L22.9889 44.8711V50.3248L12.223 47.3333" fill="#EBEBEB"/>
<path d="M36.1063 20.7207H22.9609V25.9443H35.6211M35.1475 31.2944H22.9609V36.518H29.4296L28.8174 43.3063L22.9609 44.8711V50.3018L33.7037 47.3333" fill="white"/>
</g>
</svg>
