<svg width="29" height="33" viewBox="0 0 29 33" fill="none" xmlns="http://www.w3.org/2000/svg">
<path d="M13.5414 15.6757L0.529297 29.449C0.529786 29.4518 0.530763 29.4542 0.531252 29.4571C0.930298 30.9526 2.30001 32.0538 3.92565 32.0538C4.57548 32.0538 5.1856 31.8786 5.70882 31.571L5.75038 31.5468L20.3971 23.118L13.5414 15.6757" fill="#EB3131"/>
<path d="M26.706 13.3303L26.6935 13.3218L20.3701 9.66602L13.2461 15.9881L20.3949 23.1165L26.6849 19.4971C27.7877 18.9034 28.5363 17.744 28.5363 16.407C28.5363 15.0797 27.7978 13.926 26.706 13.3303" fill="#F6B60B"/>
<path d="M0.529491 3.30786C0.451271 3.59552 0.410156 3.89682 0.410156 4.20971V28.5477C0.410156 28.86 0.450782 29.1623 0.52998 29.449L13.9899 16.028L0.529491 3.30786Z" fill="#5778C5"/>
<path d="M13.6378 16.3784L20.3728 9.66367L5.74268 1.20443C5.2109 0.88679 4.59027 0.703473 3.92613 0.703473C2.3005 0.703473 0.928953 1.80668 0.529785 3.30406C0.529297 3.30553 0.529297 3.3065 0.529297 3.30784L13.6378 16.3784Z" fill="#3BAD49"/>
</svg>
