<svg width="87" height="32" viewBox="0 0 87 32" fill="none" xmlns="http://www.w3.org/2000/svg">
<g opacity="0.75">
<path d="M86.7253 22.2235C86.3523 22.6658 86.0482 23.222 85.5935 23.5275C84.565 24.2205 83.525 23.8405 82.6084 22.57C78.8 24.2767 75.5352 23.5609 73.4452 20.5624C72.511 19.2166 72.0277 17.5789 72.0722 15.909C72.1166 14.2391 72.6862 12.6327 73.6905 11.3449C74.7551 9.99004 76.2403 9.08109 77.8799 8.78088C79.5196 8.48068 81.2065 8.80884 82.6385 9.70658C83.7445 8.49075 84.6324 8.19743 85.6236 8.88438C86.074 9.19593 86.3681 9.75977 86.7324 10.2096L86.7253 22.2235ZM75.7805 16.1535C75.7974 17.0751 76.1558 17.9526 76.7782 18.5966C77.4005 19.2407 78.237 19.5996 79.107 19.5958C80.9072 19.5821 82.4277 17.9863 82.4176 16.1185C82.4076 14.2507 80.8813 12.6322 79.1113 12.623C78.2284 12.6258 77.3826 12.9988 76.7585 13.6603C76.1344 14.3218 75.7828 15.2182 75.7805 16.1535ZM59.5054 23.3846V27.7312C59.5054 28.1111 59.5183 28.4911 59.5054 28.871C59.4423 30.1704 58.5414 31.0777 57.315 31.0929C56.0885 31.1081 55.1275 30.2084 55.0486 28.9455C54.9984 28.1385 55.0256 27.3239 55.0242 26.5138C55.0242 21.4986 55.0371 16.4833 55.0141 11.468C55.0141 10.3449 55.2379 9.39046 56.2349 8.84486C57.1859 8.32206 58.0666 8.50899 58.8929 9.22937C59.022 9.34031 59.372 9.2628 59.5771 9.16857C63.8661 7.19286 68.8163 9.81448 69.7544 14.6094C70.3167 17.4818 69.5852 20.0122 67.5382 21.994C65.4497 24.0168 62.9839 24.5214 60.2728 23.646C60.0619 23.5715 59.8611 23.5001 59.5054 23.3846ZM62.6138 12.5942C62.1542 12.5895 61.6983 12.6813 61.2723 12.8642C60.8463 13.0471 60.4587 13.3175 60.1318 13.6597C59.8048 14.002 59.545 14.4095 59.3674 14.8586C59.1897 15.3077 59.0977 15.7896 59.0966 16.2766C59.0935 17.0077 59.2949 17.7235 59.6755 18.3334C60.0562 18.9433 60.5988 19.42 61.235 19.7033C61.8712 19.9867 62.5724 20.0639 63.25 19.9253C63.9275 19.7866 64.5511 19.4383 65.042 18.9244C65.5329 18.4105 65.869 17.754 66.0079 17.0378C66.1468 16.3216 66.0823 15.5778 65.8224 14.9005C65.5626 14.2231 65.1191 13.6425 64.5481 13.232C63.977 12.8215 63.3039 12.5996 62.6138 12.5942ZM41.8188 23.3846C41.8188 25.2737 41.8345 27.0442 41.8116 28.8148C41.8131 29.2878 41.6737 29.7492 41.4134 30.1334C41.153 30.5176 40.7849 30.805 40.3614 30.9546C39.4519 31.2586 38.5482 31.1431 37.9501 30.3163C37.5934 29.8195 37.3877 29.2195 37.3605 28.5959C37.3175 22.7463 37.3361 16.8936 37.3333 11.047C37.3333 10.05 37.6991 9.27192 38.5525 8.81598C39.406 8.36005 40.2911 8.43908 41.0255 9.11082C41.4042 9.45581 41.671 9.25368 41.9909 9.11082C46.2569 7.24149 51.0278 9.77801 52.0176 14.4878C52.6358 17.4179 51.9029 19.9742 49.81 21.997C47.7172 24.0199 45.2944 24.4956 42.6177 23.6506C42.3868 23.5807 42.1645 23.5047 41.8188 23.3846ZM44.8526 19.9529C45.5402 19.9562 46.2133 19.7434 46.7866 19.3413C47.36 18.9392 47.808 18.366 48.0738 17.6941C48.3396 17.0223 48.4113 16.282 48.2799 15.5669C48.1486 14.8518 47.8199 14.1941 47.3356 13.6769C46.8513 13.1598 46.2331 12.8064 45.5593 12.6616C44.8854 12.5168 44.1861 12.587 43.5499 12.8634C42.9137 13.1397 42.3692 13.6098 41.9852 14.2141C41.6012 14.8184 41.395 15.5299 41.3927 16.2584C41.387 18.2432 42.9807 19.9453 44.8526 19.959V19.9529ZM19.7715 11.4254V3.44204C19.7743 1.8949 20.6709 0.891846 22.0307 0.891846C23.3906 0.891846 24.2699 1.92986 24.2699 3.46484C24.2699 8.40716 24.2799 13.3434 24.2613 18.2918C24.2613 18.9392 24.3717 19.3557 25.0143 19.6277C26.0629 20.0836 26.5234 21.2797 26.2049 22.3983C26.0562 22.9516 25.726 23.4305 25.2737 23.749C24.8214 24.0674 24.2768 24.2044 23.7377 24.1354C21.3407 23.8588 19.7959 22.0381 19.7758 19.4089C19.7543 16.7477 19.7715 14.0866 19.7715 11.4254ZM11.8003 16.3207L15.3362 19.7539C16.445 20.8314 16.5841 22.3268 15.6733 23.3785C14.7624 24.4302 13.3495 24.4074 12.2306 23.3314C10.4605 21.6353 8.6914 19.9382 6.92321 18.2401C5.77566 17.1368 5.76562 15.576 6.90743 14.462C8.6957 12.7152 10.4921 10.9751 12.2966 9.24152C13.3595 8.22175 14.7968 8.25671 15.6876 9.29168C16.5784 10.3266 16.4637 11.7826 15.4251 12.8115C14.2431 13.9817 13.0368 15.1261 11.8003 16.3207ZM29.1928 16.2705C29.1928 14.5243 29.1842 12.775 29.1928 11.0318C29.2015 9.5318 30.1439 8.52571 31.5095 8.53483C32.8263 8.54242 33.7587 9.5546 33.763 11.0212C33.7716 14.541 33.7716 18.0598 33.763 21.5776C33.763 23.0685 32.7718 24.1612 31.4822 24.1506C30.1582 24.1339 29.2 23.0731 29.1871 21.5867C29.1857 19.8146 29.1928 18.0426 29.1928 16.2705ZM0.749396 7.00745C0.749396 5.84329 0.735051 4.67914 0.749396 3.51195C0.780953 1.89034 1.666 0.891846 3.02728 0.891846C4.42299 0.899445 5.32238 1.95569 5.33099 3.5773C5.33099 5.95728 5.33959 8.33725 5.33099 10.7203C5.34026 11.2303 5.19513 11.73 4.91686 12.1463C4.6386 12.5625 4.24182 12.8734 3.78466 13.0334C2.85945 13.3541 1.7951 13.0942 1.27727 12.2598C0.980819 11.751 0.80739 11.1727 0.772347 10.5759C0.697756 9.39198 0.75083 8.19743 0.749396 7.00745Z" fill="#024430"/>
<path d="M5.21335 21.6232C5.21335 23.0868 4.36129 24.0245 3.02296 24.023C1.74918 24.023 0.839747 23.0473 0.83401 21.6749C0.828272 20.3026 1.79652 19.2311 3.04878 19.2433C4.30104 19.2554 5.21048 20.2494 5.21335 21.6232Z" fill="#024430"/>
</g>
</svg>
