<svg width="42" height="40" viewBox="0 0 42 40" fill="none" xmlns="http://www.w3.org/2000/svg">
<path fill-rule="evenodd" clip-rule="evenodd" d="M7.83633 20.0258C7.83633 18.7441 8.87829 17.7011 10.1603 17.7011C11.4423 17.7011 12.4842 18.7441 12.4842 20.0258V31.7556C12.4842 33.0371 11.4421 34.0802 10.1603 34.0802C8.87846 34.0802 7.83633 33.0371 7.83633 31.7556V20.0258ZM34.156 18.6279C34.154 18.6394 34.1524 18.651 34.1506 18.6625L34.1401 18.7342L34.17 18.8001C34.2588 18.9956 34.3265 19.1999 34.3705 19.41L34.4109 19.6033L34.6084 19.6057C35.0648 19.6112 35.5194 19.6655 35.9639 19.7691L36.2145 19.8275L36.2617 19.5746C36.3007 19.366 36.3351 19.1565 36.365 18.9465C36.4697 18.2102 36.5241 17.4653 36.5241 16.7216C36.5241 12.5242 34.8889 8.5759 31.9208 5.60801C28.9527 2.6402 25.0045 1.00434 20.8072 1.00434C16.6101 1.00434 12.661 2.6402 9.69319 5.60809C6.7253 8.57598 5.08984 12.5244 5.08984 16.7217C5.08984 17.4653 5.1439 18.2106 5.24898 18.9467C5.27901 19.1568 5.31354 19.3663 5.35267 19.5749L5.40009 19.8276L5.65044 19.7691C6.09489 19.6655 6.54934 19.6112 7.0056 19.6057L7.20272 19.6034L7.24341 19.4105C7.28779 19.2003 7.35563 18.9958 7.44439 18.8002L7.47638 18.7297L7.46227 18.6536C7.46096 18.6464 7.45997 18.639 7.45891 18.6317C7.36884 17.9997 7.32667 17.36 7.32667 16.7218C7.32667 13.1207 8.72867 9.73615 11.2752 7.18982C13.8217 4.64349 17.2058 3.24133 20.8071 3.24133C24.4082 3.24133 27.7929 4.64324 30.3391 7.18982C32.8849 9.73607 34.2872 13.121 34.2872 16.7218C34.2873 17.3585 34.2454 17.9973 34.156 18.6279ZM29.13 20.0258C29.13 18.7442 30.1722 17.7011 31.4539 17.7011C32.7359 17.7011 33.7779 18.7441 33.7779 20.0258V31.7556C33.7779 33.0371 32.7358 34.0802 31.4539 34.0802C30.1724 34.0802 29.13 33.037 29.13 31.7556V20.0258ZM22.4788 32.8823C22.4788 33.8041 21.7289 34.5536 20.8073 34.5536C19.8856 34.5536 19.1361 33.804 19.1361 32.8823C19.1361 31.9609 19.8857 31.2108 20.8073 31.2108C21.7288 31.2108 22.4788 31.9608 22.4788 32.8823Z" fill="#06D6A0"/>
<path fill-rule="evenodd" clip-rule="evenodd" d="M34.6797 31.2716V20.5099C37.582 20.5867 39.92 22.9699 39.92 25.8903C39.92 28.8111 37.582 31.1943 34.6797 31.2716ZM33.5313 31.7556C33.5313 32.9012 32.5995 33.8342 31.4535 33.8342C30.3078 33.8342 29.3756 32.9012 29.3756 31.7556V20.0258C29.3756 18.8798 30.3078 17.9472 31.4535 17.9472C32.5995 17.9472 33.5313 18.8799 33.5313 20.0258V31.7556ZM30.5128 7.01568C33.1048 9.60771 34.533 13.0547 34.533 16.7216C34.533 17.3844 34.4878 18.0386 34.3986 18.6663C34.3968 18.6771 34.3952 18.6879 34.3936 18.6983C34.489 18.9083 34.5627 19.1291 34.6109 19.3596C35.095 19.3654 35.566 19.4236 36.0195 19.5294C36.0581 19.3229 36.0917 19.1168 36.1211 18.9118C36.2253 18.1783 36.2777 17.4419 36.2777 16.7216C36.2777 12.5887 34.6685 8.70364 31.7465 5.78202C28.8245 2.85998 24.9394 1.25036 20.8069 1.25036C16.6747 1.25036 12.7889 2.85998 9.86687 5.78202C6.94525 8.70364 5.33563 12.5887 5.33563 16.7216C5.33563 17.4419 5.38813 18.1792 5.49231 18.9118C5.522 19.1168 5.55564 19.3237 5.59419 19.5294C6.04774 19.4236 6.51868 19.3653 7.00226 19.3596C7.0509 19.1292 7.12465 18.9083 7.21997 18.6983C7.21808 18.6879 7.21652 18.6771 7.21497 18.6663C7.12539 18.0378 7.08027 17.3844 7.08027 16.7216C7.08027 13.0547 8.50769 9.60762 11.1009 7.01568C13.6932 4.42251 17.1398 2.99508 20.8068 2.99508C24.4735 2.99517 27.9205 4.42259 30.5128 7.01568ZM10.1599 17.9472C11.3059 17.9472 12.2377 18.8799 12.2377 20.0258V31.7556C12.2377 32.9012 11.3059 33.8342 10.1599 33.8342C9.01383 33.8342 8.08204 32.9012 8.08204 31.7556V20.0258C8.08204 18.8798 9.01383 17.9472 10.1599 17.9472ZM1.69336 25.8903C1.69336 22.9699 4.03133 20.5867 6.93368 20.5099V31.2716C4.03133 31.1943 1.69336 28.8111 1.69336 25.8903ZM19.3818 32.8824C19.3818 32.0968 20.0209 31.4568 20.8069 31.4568C21.5928 31.4568 22.2324 32.0968 22.2324 32.8824C22.2324 33.6682 21.5928 34.3075 20.8069 34.3075C20.021 34.3074 19.3818 33.6682 19.3818 32.8824ZM41.0684 25.8903C41.0684 23.2053 39.4402 20.8943 37.1184 19.8911C37.172 19.6179 37.2195 19.3442 37.2581 19.0732C37.3697 18.2865 37.4264 17.496 37.4264 16.7217C37.4264 12.2819 35.6979 8.10891 32.5586 4.96991C29.4193 1.83016 25.2454 0.102089 20.8068 0.102089C16.3682 0.102089 12.1943 1.83024 9.05501 4.96991C5.91567 8.10883 4.18719 12.2819 4.18719 16.7217C4.18719 17.496 4.24355 18.2877 4.35552 19.0732C4.39416 19.345 4.44157 19.6178 4.49489 19.8911C2.17349 20.8944 0.544922 23.2054 0.544922 25.8903C0.544922 29.4674 3.43488 32.3806 7.00226 32.4214C7.31029 33.8824 8.60884 34.9825 10.1597 34.9825C11.9391 34.9825 13.3863 33.5346 13.3863 31.7556V20.0258C13.3863 18.2463 11.9391 16.7989 10.1597 16.7989C9.44523 16.7989 8.7848 17.0324 8.24938 17.4269C8.23707 17.1942 8.22895 16.9587 8.22895 16.7217C8.22895 13.3615 9.53711 10.2033 11.913 7.82787C14.2884 5.45209 17.4466 4.14352 20.8068 4.14352C24.167 4.14352 27.3248 5.45209 29.7006 7.82787C32.0761 10.2033 33.3846 13.3615 33.3846 16.7217C33.3846 16.9587 33.3765 17.1942 33.3641 17.4269C32.8283 17.0324 32.1679 16.7989 31.4534 16.7989C29.6743 16.7989 28.2272 18.2464 28.2272 20.0258V31.7556C28.2272 33.3385 29.3732 34.6583 30.8794 34.93V37.9578C30.8794 38.3874 30.5297 38.7371 30.1001 38.7371H22.1601C21.7305 38.7371 21.3808 38.3874 21.3808 37.9578V35.3909C22.5245 35.1284 23.381 34.104 23.381 32.8823C23.381 31.4634 22.2257 30.3085 20.8068 30.3085C19.3875 30.3085 18.2333 31.4634 18.2333 32.8823C18.2333 34.104 19.0891 35.1284 20.2324 35.3909V37.9578C20.2324 39.0208 21.097 39.8854 22.1601 39.8854H30.1001C31.1632 39.8854 32.0278 39.0208 32.0278 37.9578V34.93C33.3162 34.6976 34.3419 33.6979 34.6109 32.4214C38.1788 32.3806 41.0684 29.4674 41.0684 25.8903Z" fill="#024430"/>
</svg>
