<svg width="48" height="48" viewBox="0 0 48 48" fill="none" xmlns="http://www.w3.org/2000/svg">
<g clip-path="url(#clip0_151_13150)">
<path d="M35.5223 24H12.2715L23.8731 44.0871H23.9211L35.5223 24Z" fill="white"/>
<path d="M23.9139 3.87085L12.2715 23.9999H35.5223L23.9139 3.87085Z" fill="#06D6A0"/>
<path d="M47.1303 44.1291L35.5231 24L23.9219 44.0871L47.1303 44.1291Z" fill="#06D6A0"/>
<path d="M12.2714 24L0.677734 44.0455L23.873 44.0871L12.2714 24Z" fill="#06D6A0"/>
<path d="M47.128 44.9032C47.1272 44.9032 47.1272 44.9032 47.1264 44.9032L0.674744 44.8197C0.399164 44.8189 0.142863 44.6719 0.00601782 44.4318C-0.132717 44.1918 -0.131961 43.8977 0.00677391 43.6576L23.2428 3.48302C23.3812 3.24373 23.636 3.09668 23.9131 3.09668H23.9138C24.1894 3.09668 24.4457 3.24449 24.5837 3.48378L47.7986 43.7419C47.9373 43.9827 47.9373 44.2768 47.7978 44.5169C47.6598 44.7562 47.4039 44.9032 47.128 44.9032V44.9032ZM2.01673 43.2735L45.7863 43.3533L23.9123 5.41926L2.01673 43.2735Z" fill="#024430"/>
</g>
<defs>
<clipPath id="clip0_151_13150">
<rect width="48" height="48" fill="white"/>
</clipPath>
</defs>
</svg>
