<svg width="162" height="40" viewBox="0 0 162 40" fill="none" xmlns="http://www.w3.org/2000/svg">
<g opacity="0.8" clip-path="url(#clip0_463_37721)">
<path opacity="0.5" d="M13.4684 5.44992C16.507 -0.0145551 24.2466 -0.0145581 27.2852 5.44992C27.2852 5.44992 27.5694 5.9158 27.717 6.23194C28.9788 8.93418 27.7048 10.7795 26.3566 13.7485C25.6676 15.2654 24.7166 16.6741 23.6718 18.1017C23.3962 18.4783 23.1118 18.8592 22.8242 19.2442C22.0414 20.2924 21.236 21.3706 20.5269 22.4738C18.5453 25.5568 17.164 29.0534 18.355 33.7124C18.9371 35.9892 19.9257 37.5654 21.0176 38.6484H8.6144C2.53598 38.6484 -1.28635 31.9836 1.70596 26.6024L13.4684 5.44992Z" fill="#024430"/>
<path d="M35.757 37.7754C34.691 38.33 33.4694 38.649 32.1396 38.649H25.6956C25.0446 38.649 24.3852 38.5602 23.8186 38.2396C22.6344 37.5694 21.1602 36.1872 20.4079 33.2446C19.3933 29.2758 20.5213 26.327 22.3322 23.5098C23.0008 22.4698 23.7426 21.4764 24.5108 20.4478C24.8072 20.051 25.1076 19.6488 25.4092 19.2367C26.4732 17.7826 27.5228 16.2413 28.2974 14.5355C29.0632 12.8492 29.4932 11.2526 29.7062 9.80383L39.0478 26.6032C41.292 30.639 39.7032 35.3968 36.2042 37.5236C36.0584 37.6122 35.9094 37.6962 35.757 37.7754Z" fill="#024430"/>
<path d="M66.3028 30.8H70.7378L62.755 9.83771H58.0244L49.9824 30.8H54.299L56.0434 26.0104H64.5584L66.3028 30.8ZM60.301 14.3613L63.1984 22.285H57.4034L60.301 14.3613ZM77.0554 30.8V16.2535H73.1232V30.8H77.0554ZM72.65 11.4934C72.65 12.7943 73.744 13.8883 75.0744 13.8883C76.4346 13.8883 77.4988 12.7943 77.4988 11.4934C77.4988 10.1334 76.4346 9.03943 75.0744 9.03943C73.744 9.03943 72.65 10.1334 72.65 11.4934ZM90.1352 16.1944C89.8394 16.1648 89.5438 16.1353 89.2186 16.1353C87.9768 16.1353 85.9664 16.4901 85.0794 18.4119V16.2535H81.2654V30.8H85.1976V24.1476C85.1976 21.0136 86.942 20.038 88.9524 20.038C89.3072 20.038 89.6916 20.0676 90.1352 20.1562V16.1944ZM96.8334 30.8V22.285C96.8334 20.6884 97.8386 19.4171 99.5536 19.4171C101.327 19.4171 102.126 20.5998 102.126 22.1668V30.8H106.028V22.285C106.028 20.718 107.034 19.4171 108.719 19.4171C110.523 19.4171 111.291 20.5998 111.291 22.1668V30.8H115.105V21.3684C115.105 17.4657 112.533 15.8396 109.842 15.8396C107.921 15.8396 106.383 16.4901 105.23 18.264C104.491 16.697 102.894 15.8396 100.914 15.8396C99.317 15.8396 97.4544 16.6083 96.656 18.0275V16.2535H92.9012V30.8H96.8334ZM121.957 21.871C122.046 20.5406 123.169 19.0032 125.209 19.0032C127.456 19.0032 128.402 20.4224 128.461 21.871H121.957ZM128.846 25.6556C128.373 26.9564 127.368 27.873 125.534 27.873C123.583 27.873 121.957 26.4834 121.868 24.5616H132.275C132.275 24.5024 132.335 23.9112 132.335 23.3494C132.335 18.678 129.644 15.8101 125.15 15.8101C121.425 15.8101 117.995 18.8258 117.995 23.4676C117.995 28.3756 121.513 31.2434 125.505 31.2434C129.082 31.2434 131.388 29.1444 132.128 26.6312L128.846 25.6556ZM138.299 21.871C138.388 20.5406 139.511 19.0032 141.551 19.0032C143.798 19.0032 144.744 20.4224 144.804 21.871H138.299ZM145.188 25.6556C144.715 26.9564 143.71 27.873 141.877 27.873C139.925 27.873 138.299 26.4834 138.21 24.5616H148.618C148.618 24.5024 148.677 23.9112 148.677 23.3494C148.677 18.678 145.986 15.8101 141.492 15.8101C137.767 15.8101 134.337 18.8258 134.337 23.4676C134.337 28.3756 137.856 31.2434 141.847 31.2434C145.424 31.2434 147.731 29.1444 148.47 26.6312L145.188 25.6556ZM156.622 11.9073H153.074V13.9474C153.074 15.2483 152.365 16.2535 150.827 16.2535H150.088V19.7423H152.719V26.513C152.719 29.3216 154.493 31.007 157.332 31.007C158.485 31.007 159.194 30.8 159.549 30.6522V27.4C159.342 27.459 158.81 27.5182 158.337 27.5182C157.213 27.5182 156.622 27.1042 156.622 25.833V19.7423H159.549V16.2535H156.622V11.9073Z" fill="#024430"/>
</g>
<defs>
<clipPath id="clip0_463_37721">
<rect width="160.4" height="40" fill="white" transform="translate(0.666016)"/>
</clipPath>
</defs>
</svg>
