<svg width="116" height="97" viewBox="0 0 116 97" fill="none" xmlns="http://www.w3.org/2000/svg">
<g opacity="0.3">
<path d="M80.019 54.1616C78.1375 50.2632 75.9601 46.5012 73.498 42.9017C75.6312 36.6879 79.1675 30.9948 83.95 26.2169C88.1065 22.0647 92.9539 18.8516 98.2345 16.6821C100.439 18.8856 102.463 21.2699 104.284 23.8082C91.0657 28.0241 81.2337 39.8847 80.019 54.1616Z" fill="white"/>
<path d="M97.4011 57.151V92.1409C97.4011 113.846 79.7253 131.505 57.9994 131.505C36.2735 131.505 18.5977 113.846 18.5977 92.1409C18.5977 82.494 10.7418 74.646 1.08594 74.646V65.8983C15.57 65.8983 27.3537 77.6708 27.3537 92.1409C27.3537 109.023 41.1014 122.757 57.9997 122.757C74.898 122.757 88.6456 109.023 88.6456 92.1409V57.1507C88.6456 44.7215 97.3396 34.283 108.971 31.5853C110.291 34.2309 111.412 36.9912 112.311 39.8496C103.885 41.1097 97.4011 48.3874 97.4011 57.151Z" fill="white"/>
<path d="M77.7586 20.0315C74.8259 22.9614 72.2473 26.2231 70.095 29.7258L67.1803 34.4681L63.0127 30.274C52.9569 20.2279 40.8769 12.9336 27.6895 8.75609C31.0801 6.61625 34.7097 4.82215 38.5314 3.42789C48.3836 7.57544 57.5387 13.3786 65.6428 20.7037C67.4421 18.2822 69.4238 15.9875 71.5675 13.8462C74.8113 10.6055 78.3555 7.77362 82.1371 5.37507C85.2024 6.8153 88.1206 8.51774 90.8584 10.4588C86.083 12.9191 81.6658 16.1281 77.7586 20.0315Z" fill="white"/>
<path d="M57.9997 149C26.6176 149 1.08594 123.493 1.08594 92.1409V83.3933C5.91385 83.3933 9.84196 87.3173 9.84196 92.1409C9.84196 118.67 31.4455 140.252 57.9997 140.252C84.5538 140.252 106.157 118.67 106.157 92.1409V57.1507C106.157 52.5381 109.75 48.7505 114.287 48.4278C114.698 51.1794 114.913 53.9944 114.913 56.8591V92.1409C114.913 123.493 89.3817 149 57.9997 149Z" fill="white"/>
<path d="M57.9997 114.01C45.9296 114.01 36.1097 104.199 36.1097 92.1409C36.1097 72.8474 20.3982 57.1507 1.08594 57.1507V56.8591C1.08594 53.9888 1.30179 51.168 1.71484 48.4106C13.1819 48.5707 23.9331 53.0983 32.0494 61.2068C40.3137 69.4635 44.8655 80.4493 44.8655 92.1409C44.8655 99.3761 50.7575 105.262 57.9994 105.262C65.2412 105.262 71.1333 99.3758 71.1333 92.1409C71.1333 57.3547 45.5943 28.4193 12.265 23.0556C14.2935 20.3239 16.5613 17.7804 19.0364 15.454C33.2379 18.7381 46.2675 25.916 56.8205 36.4592C71.6963 51.321 79.889 71.0955 79.889 92.1409C79.8896 104.199 70.0697 114.01 57.9997 114.01Z" fill="white"/>
<path d="M65.3751 7.66035C65.1089 7.92605 64.8446 8.19437 64.5828 8.46472C60.6078 5.44369 56.4347 2.72008 52.0859 0.305819C54.03 0.104436 56.0024 -2.76566e-05 57.9992 -2.76566e-05C62.8583 -2.76566e-05 67.5764 0.612845 72.0816 1.76294C69.732 3.58295 67.487 5.55108 65.3751 7.66035Z" fill="white"/>
<path d="M58.0004 96.5149C55.5827 96.5149 53.6225 94.5567 53.6225 92.1412C53.6225 64.0865 31.4751 41.1027 3.73047 39.7221C4.66523 36.7736 5.83449 33.9286 7.21668 31.2085C21.283 32.5923 34.3214 38.728 44.4363 48.8332C56.0065 60.3927 62.3783 75.7731 62.3783 92.1412C62.3783 94.5567 60.4182 96.5149 58.0004 96.5149Z" fill="white"/>
</g>
</svg>
