<svg width="116" height="38" viewBox="0 0 116 38" fill="none" xmlns="http://www.w3.org/2000/svg">
<g clip-path="url(#clip0_1278_184)">
<path d="M6.23112 6.23335H27.6155L33.761 0.0759741C33.4468 0.0249852 33.129 -0.00042104 32.8107 5.27678e-06H6.02472C4.42686 5.27678e-06 2.89445 0.634976 1.7646 1.76523C0.63475 2.89549 5.2749e-06 4.42844 5.2749e-06 6.02687V32.8224C-0.000420889 33.1408 0.0249763 33.4587 0.075947 33.773L6.23112 27.6254V6.23335Z" fill="#00BB77"/>
<path d="M31.7661 31.776H10.372L4.22656 37.9236C4.54085 37.9736 4.85857 37.999 5.17681 37.9996H31.9628C33.5607 37.9996 35.0931 37.3646 36.2229 36.2344C37.3528 35.1041 37.9875 33.5711 37.9875 31.9727V5.17715C37.987 4.85879 37.9616 4.54096 37.9116 4.22656L31.7661 10.3742V31.776Z" fill="#061542"/>
<path d="M16.3047 25.8352H25.7312V16.4072" fill="#061542"/>
<path d="M21.489 12.2578H12.0625V21.6857" fill="#00BB77"/>
<path d="M61.0843 29.3121V33.1553H45.7188V30.1166L54.3683 19.8432H45.9388V16H60.7163V19.0407L52.0647 29.3121H61.0843Z" fill="#00BB77"/>
<path d="M76.9836 29.3704V33.1143H63.2109V15.959H76.6643V19.7107H68.0147V22.5955H75.6362V26.2245H68.0147V29.3626L76.9836 29.3704Z" fill="#00BB77"/>
<path d="M87.1804 28.5601H84.5322V33.1143H79.6797V15.959H87.5231C89.0809 15.959 90.4284 16.2187 91.5655 16.7382C92.6453 17.1985 93.5662 17.9659 94.2138 18.9451C94.8486 19.9524 95.1723 21.1246 95.1445 22.315C95.1714 23.4591 94.8693 24.5868 94.2741 25.5642C93.6684 26.5094 92.8058 27.2621 91.7875 27.7342L95.4872 33.126H90.2921L87.1804 28.5601ZM89.484 20.4528C88.9751 20.01 88.2235 19.7892 87.2291 19.7905H84.5322V24.8162H87.2349C88.2293 24.8162 88.9809 24.5993 89.4898 24.1656C89.9987 23.7318 90.2518 23.115 90.2492 22.315C90.2453 21.5112 89.9902 20.8905 89.484 20.4528Z" fill="#00BB77"/>
<path d="M101.576 32.3119C100.156 31.5707 98.9665 30.4544 98.1363 29.0843C97.3061 27.7142 96.8672 26.1428 96.8672 24.5406C96.8672 22.9385 97.3061 21.367 98.1363 19.997C98.9665 18.6269 100.156 17.5106 101.576 16.7694C103.094 16.011 104.768 15.6162 106.464 15.6162C108.161 15.6162 109.835 16.011 111.353 16.7694C112.773 17.5106 113.962 18.6269 114.793 19.997C115.623 21.367 116.062 22.9385 116.062 24.5406C116.062 26.1428 115.623 27.7142 114.793 29.0843C113.962 30.4544 112.773 31.5707 111.353 32.3119C109.835 33.0703 108.161 33.4651 106.464 33.4651C104.768 33.4651 103.094 33.0703 101.576 32.3119ZM108.818 28.829C109.522 28.4183 110.098 27.8202 110.483 27.1012C110.886 26.3074 111.097 25.4294 111.097 24.5387C111.097 23.648 110.886 22.77 110.483 21.9762C110.098 21.2576 109.521 20.6595 108.818 20.2484C108.099 19.8461 107.288 19.6349 106.464 19.6349C105.641 19.6349 104.83 19.8461 104.111 20.2484C103.407 20.6595 102.83 21.2575 102.444 21.9762C102.043 22.7706 101.833 23.6484 101.833 24.5387C101.833 25.429 102.043 26.3068 102.444 27.1012C102.83 27.8203 103.407 28.4184 104.111 28.829C104.83 29.2313 105.641 29.4425 106.464 29.4425C107.288 29.4425 108.099 29.2313 108.818 28.829Z" fill="#00BB77"/>
<path d="M51.419 10.4646H48.4884L47.9432 11.8125H45.9453L49.0044 4.88184H50.9341L54.0029 11.8125H51.9642L51.419 10.4646ZM50.8445 9.01922L49.9546 6.80248L49.0726 9.01922H50.8445Z" fill="#061542"/>
<path d="M55.9961 11.7419C55.5383 11.6344 55.1031 11.4464 54.7109 11.1868L55.3535 9.74142C55.6875 9.95736 56.0508 10.124 56.4323 10.2362C56.8226 10.3616 57.2296 10.4273 57.6396 10.431C58.3912 10.431 58.769 10.2362 58.769 9.86609C58.7677 9.76815 58.7359 9.67305 58.6779 9.5941C58.62 9.51516 58.5388 9.45633 58.4457 9.42586C58.111 9.29383 57.7649 9.19276 57.4117 9.12393C56.9686 9.03402 56.5321 8.91427 56.1052 8.76551C55.7581 8.63772 55.4488 8.42471 55.2055 8.14608C54.9413 7.82333 54.8072 7.41339 54.8297 6.9968C54.8233 6.5861 54.9436 6.18341 55.1744 5.84364C55.4356 5.48133 55.7951 5.20147 56.2103 5.0372C56.7464 4.8248 57.3202 4.72405 57.8966 4.74111C58.3494 4.74084 58.8008 4.79181 59.2421 4.89305C59.6522 4.98354 60.0462 5.13592 60.4105 5.34497L59.8068 6.80006C59.2217 6.46361 58.5616 6.27942 57.8869 6.26439C57.5927 6.24323 57.2984 6.3032 57.0359 6.43775C56.9559 6.4828 56.8892 6.54808 56.8424 6.62705C56.7956 6.70602 56.7703 6.79591 56.7691 6.88772C56.7712 6.98157 56.8028 7.07238 56.8594 7.14722C56.9161 7.22207 56.9949 7.27713 57.0846 7.30457C57.4149 7.43352 57.7565 7.53134 58.1049 7.59676C58.5498 7.68635 58.9877 7.80743 59.4154 7.95908C59.7611 8.08682 60.0705 8.29673 60.317 8.57072C60.5871 8.88862 60.7264 9.29738 60.7064 9.71415C60.7104 10.116 60.59 10.5093 60.3618 10.84C60.0981 11.202 59.7377 11.4822 59.322 11.6484C58.7865 11.8636 58.2125 11.9663 57.6357 11.9504C57.0825 11.9518 56.5314 11.8817 55.9961 11.7419Z" fill="#061542"/>
<path d="M67.0421 5.19363C67.483 5.37774 67.8575 5.69183 68.1156 6.09409C68.3737 6.49635 68.5032 6.96771 68.4869 7.44542C68.5034 7.92194 68.3739 8.39212 68.1156 8.79287C67.8574 9.19362 67.4828 9.50578 67.0421 9.68748C66.5258 9.90615 65.9689 10.0124 65.4084 9.99914H64.2011V11.8127H62.2422V4.88196H65.4084C65.9689 4.86871 66.5258 4.97496 67.0421 5.19363ZM66.2028 8.19342C66.3067 8.09973 66.3881 7.98383 66.441 7.85433C66.494 7.72483 66.517 7.58507 66.5086 7.44542C66.5169 7.30521 66.4938 7.16491 66.4409 7.0348C66.388 6.90469 66.3067 6.78808 66.2028 6.69353C65.9406 6.49746 65.616 6.40333 65.2896 6.42861H64.2011V8.45639H65.2896C65.6157 8.48117 65.9398 8.38784 66.2028 8.19342Z" fill="#061542"/>
<path d="M69.8279 11.584C69.7205 11.4804 69.6359 11.3555 69.5796 11.2173C69.5233 11.0791 69.4964 10.9306 69.5008 10.7814C69.4951 10.6326 69.5207 10.4842 69.5761 10.3459C69.6314 10.2077 69.7152 10.0826 69.8221 9.97888C70.0455 9.78167 70.3332 9.67285 70.6311 9.67285C70.9291 9.67285 71.2168 9.78167 71.4402 9.97888C71.5462 10.0831 71.6291 10.2083 71.6838 10.3466C71.7384 10.4848 71.7636 10.6329 71.7576 10.7814C71.7621 10.9301 71.7359 11.0781 71.6806 11.2162C71.6254 11.3543 71.5422 11.4795 71.4363 11.584C71.2177 11.787 70.9304 11.8998 70.6321 11.8998C70.3338 11.8998 70.0465 11.787 69.8279 11.584Z" fill="#061542"/>
<path d="M79.9585 4.88184V11.8125H78.3462L75.2872 8.11149V11.8125H73.3672V4.88184H74.9814L78.0386 8.58288V4.88184H79.9585Z" fill="#061542"/>
<path d="M87.5476 10.2971V11.8125H81.9844V4.88184H87.4269V6.39537H83.9219V7.56412H86.9985V9.02895H83.9219V10.2971H87.5476Z" fill="#061542"/>
<path d="M90.7611 6.42845H88.6328V4.87012H94.8328V6.42845H92.72V11.8047H90.7611V6.42845Z" fill="#061542"/>
</g>
<defs>
<clipPath id="clip0_1278_184">
<rect width="116" height="38" fill="white"/>
</clipPath>
</defs>
</svg>
