<svg width="150" height="150" viewBox="0 0 150 150" fill="none" xmlns="http://www.w3.org/2000/svg">
<path d="M113.612 40.6481C104.917 27.3159 90.4806 19.3562 74.9996 19.3562C60.2852 19.3562 46.2702 26.7016 37.5072 39.0061L33.5664 36.1993C43.2342 22.6225 58.7223 14.5176 74.9996 14.5176C92.1238 14.5176 108.074 23.297 117.667 38.0043L113.612 40.6481Z" fill="#4A73CF"/>
<path d="M96.7364 116.02L94.6289 111.662C107.72 105.336 117.39 92.8501 120.497 78.2598L125.232 79.2686C121.818 95.3084 111.164 109.048 96.7364 116.02V116.02Z" fill="#4A73CF"/>
<path d="M53.2467 116.011C38.8714 109.058 28.2314 95.3643 24.7891 79.3777L29.519 78.3594C32.6495 92.8989 42.3067 105.344 55.3542 111.653L53.2467 116.011Z" fill="#4A73CF"/>
<path d="M60.0859 115.931V133.065H89.9139V115.931C89.9139 113.193 87.7722 110.975 85.1308 110.975H80.9773L74.9988 120.888L69.0202 110.975H64.8667C62.2276 110.975 60.0859 113.193 60.0859 115.931V115.931Z" fill="#154CC7"/>
<path d="M89.911 135.484H60.0853C58.7481 135.484 57.666 134.4 57.666 133.064V115.931C57.666 111.861 60.8957 108.555 64.8684 108.555H69.0219C69.8713 108.555 70.658 109 71.0939 109.725L74.9981 116.201L78.9024 109.725C79.3406 109 80.1274 108.555 80.9744 108.555H85.1278C89.1006 108.555 92.3303 111.864 92.3303 115.931V133.064C92.3303 134.4 91.2482 135.484 89.911 135.484ZM62.5046 130.645H87.4916V115.931C87.4916 114.53 86.432 113.393 85.1278 113.393H82.3411L77.069 122.136C76.196 123.59 73.7979 123.59 72.925 122.136L67.6528 113.393H64.8661C63.5643 113.393 62.5023 114.532 62.5023 115.931L62.5046 130.645Z" fill="#4A73CF"/>
<path d="M80.507 125.807L82.6535 122.248V125.807H80.507ZM67.3438 125.807V122.248L69.4902 125.807H67.3438Z" fill="#154CC7"/>
<path d="M66.2969 96.1233V93.0944C66.2969 88.0916 70.207 84.0078 74.9996 84.0078C79.7921 84.0078 83.7022 88.0892 83.7022 93.0944V96.1233C83.7022 101.126 79.7921 105.21 74.9996 105.21C70.207 105.21 66.2969 101.126 66.2969 96.1233V96.1233Z" fill="white"/>
<path d="M74.999 107.628C68.868 107.628 63.877 102.468 63.877 96.1223V93.0958C63.877 86.7498 68.868 81.5898 74.999 81.5898C81.1299 81.5898 86.121 86.7498 86.121 93.0958V96.1223C86.121 102.468 81.1299 107.628 74.999 107.628V107.628ZM74.999 86.4285C71.5342 86.4285 68.7156 89.4184 68.7156 93.0958V96.1223C68.7156 99.7997 71.5342 102.79 74.999 102.79C78.4637 102.79 81.2823 99.7997 81.2823 96.1223V93.0958C81.2823 89.4184 78.4637 86.4285 74.999 86.4285V86.4285Z" fill="#4A73CF"/>
<path d="M30.9115 48.1478L30.9128 48.1487C31.4425 48.4713 31.7479 49.0153 31.7479 49.5822V68.7462H2.91992V49.2136C2.91992 48.6177 3.25982 48.0464 3.8376 47.7291C3.8378 47.729 3.838 47.7289 3.83821 47.7288L8.79049 45.0302C10.6515 47.6157 13.7862 49.3179 17.3327 49.3179C20.8692 49.3179 23.9982 47.6243 25.861 45.0495L30.9115 48.1478Z" fill="#154CC7" stroke="black"/>
<path d="M32.2473 71.6668H2.41932C1.0809 71.6668 0 70.5824 0 69.2475V49.2149C0 47.5387 0.936776 45.99 2.44058 45.1678L7.79072 42.2523C8.90114 41.6475 10.2845 41.9983 10.9767 43.058C12.3163 45.1193 14.7533 46.3999 17.3321 46.3999C19.9133 46.3999 22.3491 45.1193 23.6876 43.058C24.4034 41.957 25.86 41.6262 26.9799 42.3126L32.4363 45.6592C33.8314 46.5156 34.6666 47.9816 34.6666 49.5835V69.2475C34.6666 70.5824 33.5845 71.6668 32.2473 71.6668ZM4.82918 66.8282H29.828V49.5835L26.2935 47.5174C23.9994 49.8812 20.7886 51.2409 17.3321 51.2409C13.8532 51.2409 10.6259 49.8611 8.32703 47.4713L4.75358 49.4181L4.82918 66.8282Z" fill="#4A73CF"/>
<path d="M9.67773 61.9908V54.3359C12.0096 55.4653 14.618 56.0784 17.3326 56.0784C20.0472 56.0784 22.6579 55.4676 24.9898 54.3359V61.9908H9.67773Z" fill="#154CC7"/>
<path d="M8.62891 29.9682V26.9382C8.62891 21.9353 12.539 17.8516 17.3316 17.8516C22.1242 17.8516 26.0343 21.933 26.0343 26.9382V29.9682C26.0343 34.9711 22.1242 39.0548 17.3316 39.0548C12.539 39.0548 8.62891 34.9711 8.62891 29.9682Z" fill="white"/>
<path d="M17.3329 41.4747C11.202 41.4747 6.21094 36.3135 6.21094 29.9711V26.9422C6.21094 20.5986 11.202 15.4375 17.3329 15.4375C23.4663 15.4375 28.4573 20.5986 28.4573 26.9422V29.9711C28.4573 36.3112 23.4663 41.4747 17.3329 41.4747ZM17.3329 20.2738C13.8682 20.2738 11.0496 23.2648 11.0496 26.9387V29.9688C11.0496 33.6462 13.8682 36.6337 17.3329 36.6337C20.8001 36.6337 23.6187 33.6426 23.6187 29.9688V26.9387C23.6187 23.2648 20.8001 20.2738 17.3329 20.2738Z" fill="#4A73CF"/>
<path d="M146.266 47.9561L138.092 44.1582L133.775 52.5726C133.299 53.5012 132.029 53.5012 131.554 52.5726L127.238 44.1582L119.151 47.5403C118.299 47.8959 117.752 48.6826 117.752 49.5509V69.2492H147.578V49.9289C147.578 49.0937 147.07 48.3318 146.266 47.9561Z" fill="#154CC7"/>
<path d="M147.577 71.6669H117.749C116.412 71.6669 115.33 70.5825 115.33 69.2476V49.5493C115.33 47.7053 116.463 46.0408 118.211 45.3084L126.304 41.9263C127.473 41.4443 128.816 41.931 129.389 43.0533L132.665 49.4359L135.94 43.0533C136.531 41.8968 137.924 41.4113 139.115 41.9653L147.289 45.7632C148.937 46.5275 149.999 48.1636 149.999 49.9297V69.2476C149.997 70.5825 148.916 71.6669 147.577 71.6669ZM120.157 66.8283H145.158V50.1081L139.182 47.3308L135.926 53.6768C135.287 54.9183 134.038 55.6874 132.662 55.6874C132.66 55.6874 132.66 55.6874 132.657 55.6874C131.284 55.6874 130.033 54.916 129.398 53.6744L126.104 47.254L120.079 49.7749L120.157 66.8283ZM145.245 50.1494H145.271H145.245Z" fill="#4A73CF"/>
<path d="M125.008 61.9896V55.7109L125.098 55.8858C126.561 58.7481 129.463 60.5259 132.665 60.5259C135.858 60.5259 138.759 58.7504 140.228 55.8929L140.32 55.7133V61.9872L125.008 61.9896Z" fill="#154CC7"/>
<path d="M124.02 29.8745V26.8456C124.02 21.8416 127.928 17.7578 132.721 17.7578C137.514 17.7578 141.424 21.8392 141.424 26.8456V29.8745C141.424 34.8773 137.514 38.9611 132.721 38.9611C127.928 38.9587 124.02 34.8773 124.02 29.8745Z" fill="white"/>
<path d="M132.721 41.377C126.589 41.377 121.598 36.2171 121.598 29.8735V26.8446C121.598 20.501 126.589 15.3398 132.721 15.3398C138.852 15.3398 143.843 20.501 143.843 26.8446V29.8735C143.843 36.2171 138.854 41.377 132.721 41.377V41.377ZM132.721 20.1761C129.254 20.1761 126.436 23.1672 126.436 26.8422V29.8711C126.436 33.5485 129.254 36.536 132.721 36.536C136.186 36.536 139.004 33.5461 139.004 29.8711V26.8422C139.004 23.1672 136.186 20.1761 132.721 20.1761V20.1761Z" fill="#4A73CF"/>
</svg>
