<svg width="7" height="7" viewBox="0 0 7 7" fill="none" xmlns="http://www.w3.org/2000/svg">
<g clip-path="url(#clip0_1236_370)">
<path d="M4.27261 3.22266C4.11351 3.44157 3.82674 3.5887 3.49966 3.5887C3.17259 3.5887 2.88593 3.44146 2.72672 3.22266L2.23371 3.46279C2.1664 3.49565 2.125 3.55596 2.125 3.62123V5.2717H4.87422V3.6516C4.87422 3.5897 4.837 3.53214 4.77521 3.49824L4.27261 3.22266Z" fill="white"/>
<path d="M4.87395 5.38424H2.12462C2.06227 5.38424 2.01172 5.33368 2.01172 5.27133V3.62087C2.01172 3.51238 2.07765 3.41265 2.18388 3.36094L2.67689 3.12081C2.72601 3.09677 2.78538 3.11165 2.81768 3.15592C2.96107 3.35306 3.22221 3.47544 3.49928 3.47544C3.77635 3.47544 4.0376 3.35306 4.18088 3.15592C4.21418 3.11 4.27658 3.09622 4.32642 3.12329L4.82913 3.39887C4.92792 3.45295 4.98674 3.54722 4.98674 3.65124V5.27145C4.98685 5.33368 4.93629 5.38424 4.87395 5.38424V5.38424ZM2.23752 5.15843H4.76104V3.65113C4.76104 3.63123 4.74561 3.61034 4.72075 3.59678L4.30023 3.36623C4.10773 3.57748 3.81561 3.70113 3.49939 3.70113C3.18147 3.70113 2.88792 3.57627 2.69541 3.36287L2.28289 3.56381C2.25489 3.57748 2.23763 3.59931 2.23763 3.62076V5.15843H2.23752Z" fill="#4A73CF"/>
<path d="M2.46484 4.93313V3.7276L2.65531 3.63477C2.88233 3.82121 3.18205 3.92744 3.5008 3.92744C3.81475 3.92744 4.11024 3.82435 4.33604 3.64315L4.53676 3.75312V4.93313H2.46484Z" fill="#154CC7"/>
<path d="M2.72461 2.25367V2.0008C2.72461 1.58304 3.07246 1.24219 3.49899 1.24219C3.92551 1.24219 4.27337 1.58304 4.27337 2.0008V2.25367C4.27337 2.67143 3.92551 3.01228 3.49899 3.01228C3.07246 3.01228 2.72461 2.67143 2.72461 2.25367V2.25367Z" fill="white"/>
<path d="M3.50056 3.1248C3.01136 3.1248 2.61328 2.73378 2.61328 2.25329V2.00042C2.61328 1.51987 3.01136 1.12891 3.50056 1.12891C3.98976 1.12891 4.38784 1.51987 4.38784 2.00042V2.25329C4.38784 2.73378 3.98976 3.1248 3.50056 3.1248V3.1248ZM3.50056 1.35471C3.13589 1.35471 2.83908 1.64429 2.83908 2.00042V2.25329C2.83908 2.60936 3.13578 2.899 3.50056 2.899C3.86534 2.899 4.16204 2.60936 4.16204 2.25329V2.00042C4.16204 1.64429 3.86523 1.35471 3.50056 1.35471V1.35471Z" fill="#4A73CF"/>
<path d="M6.7881 4.24581L6.16791 3.97656L5.84051 4.57288C5.80435 4.6387 5.70809 4.6387 5.67193 4.57288L5.34453 3.97656L4.73112 4.21626C4.66657 4.2414 4.625 4.29718 4.625 4.35871V5.75465H6.88755V4.3855C6.88755 4.32635 6.84907 4.27227 6.7881 4.24581V4.24581Z" fill="white"/>
<path d="M6.88717 5.86729H4.62462C4.56233 5.86729 4.51172 5.81668 4.51172 5.75439V4.35845C4.51172 4.25029 4.58162 4.1531 4.68978 4.11087L5.3033 3.87106C5.35611 3.8505 5.4162 3.87233 5.44327 3.92189L5.756 4.49147L6.06874 3.92189C6.09686 3.87073 6.15915 3.8494 6.21268 3.87266L6.83287 4.14191C6.93447 4.18606 7.00018 4.2816 7.00018 4.38524V5.75439C7.00007 5.81668 6.94946 5.86729 6.88717 5.86729ZM4.73752 5.64149H6.77427V4.38524C6.77427 4.37179 6.76164 4.35724 6.74279 4.34908L6.21709 4.12079L5.93925 4.62692C5.90264 4.69346 5.83258 4.73486 5.756 4.73486C5.6796 4.73486 5.60937 4.69357 5.57276 4.62692L5.2931 4.11754L4.77187 4.32118C4.7513 4.32923 4.73752 4.34411 4.73752 4.35845V5.64149Z" fill="#4A73CF"/>
<path d="M6.36629 3.258L6.42065 2.96841V2.76758C6.42065 2.37932 6.12401 2.0625 5.7605 2.0625C5.75901 2.0625 5.75768 2.06272 5.7562 2.06272C5.75471 2.06272 5.75338 2.0625 5.7519 2.0625C5.38838 2.0625 5.0918 2.37932 5.0918 2.76758V2.96841L5.1461 3.258C5.23529 3.50122 5.44709 3.67945 5.69985 3.70431C5.717 3.70635 5.73442 3.70756 5.7519 3.70756C5.75338 3.70756 5.75471 3.70734 5.7562 3.70734C5.75768 3.70734 5.75901 3.70756 5.7605 3.70756C5.77797 3.70756 5.79539 3.70635 5.81254 3.70431C6.06546 3.67945 6.27726 3.50122 6.36629 3.258V3.258Z" fill="white"/>
<path d="M5.76023 3.82009C5.72952 3.82009 5.70774 3.81854 5.68613 3.81606C5.39975 3.78795 5.14511 3.58392 5.03971 3.29648C5.03756 3.29058 5.03585 3.28463 5.03469 3.2784L4.98039 2.98893C4.97918 2.98204 4.97852 2.97503 4.97852 2.96803V2.7672C4.97852 2.31615 5.32532 1.94922 5.75152 1.94922C6.18642 1.94922 6.53317 2.31615 6.53317 2.7672V2.96803C6.53317 2.97503 6.53245 2.98204 6.53124 2.98893L6.47694 3.2784C6.47578 3.28452 6.47407 3.29047 6.47198 3.29648C6.36663 3.58381 6.112 3.78795 5.82324 3.81628C5.80389 3.81854 5.78211 3.82009 5.76023 3.82009V3.82009ZM5.25476 3.22713C5.33232 3.42923 5.51028 3.57185 5.71045 3.59147C5.72555 3.59329 5.73845 3.59417 5.75152 3.59417C5.75433 3.59417 5.7637 3.59417 5.76668 3.59439C5.77318 3.59417 5.78608 3.59318 5.79893 3.59169C6.00135 3.57185 6.17942 3.42923 6.25687 3.22713L6.30748 2.95756V2.76709C6.30748 2.44057 6.06199 2.17491 5.76023 2.17491C5.75741 2.17491 5.74793 2.17491 5.74507 2.17469C5.44986 2.17491 5.20432 2.44046 5.20432 2.76709V2.95756L5.25476 3.22713ZM6.36591 3.25762H6.36707H6.36591Z" fill="#4A73CF"/>
<path d="M0.113281 4.46875V5.75808H2.4884V4.46875C2.4884 4.26268 2.31789 4.0957 2.10758 4.0957H1.77687L1.3009 4.84175L0.824924 4.0957H0.494103C0.283736 4.09581 0.113281 4.2628 0.113281 4.46875V4.46875Z" fill="#154CC7"/>
<path d="M2.48802 5.87049H0.112901C0.0506072 5.87049 0 5.81994 0 5.75759V4.46837C0 4.20034 0.221393 3.98242 0.493723 3.98242H0.824544C0.863023 3.98242 0.898911 4.0021 0.919694 4.03457L1.30063 4.63149L1.68145 4.03457C1.70223 4.0021 1.73812 3.98242 1.7766 3.98242H2.10731C2.37953 3.98242 2.60103 4.20045 2.60103 4.46837V5.75759C2.60092 5.81994 2.55031 5.87049 2.48802 5.87049ZM0.225803 5.64469H2.37512V4.46837C2.37512 4.32487 2.255 4.20822 2.1072 4.20822H1.8384L1.39567 4.90212C1.35416 4.96706 1.24677 4.96706 1.20531 4.90212L0.762526 4.20822H0.493723C0.345926 4.20811 0.225803 4.32487 0.225803 4.46837V5.64469Z" fill="#4A73CF"/>
<path d="M0.607422 2.97805V2.7501C0.607422 2.37358 0.918838 2.06641 1.30043 2.06641C1.68202 2.06641 1.99344 2.37358 1.99344 2.7501V2.97805C1.99344 3.35457 1.68202 3.6618 1.30043 3.6618C0.918838 3.6618 0.607422 3.35457 0.607422 2.97805Z" fill="white"/>
<path d="M1.30005 3.77432C0.855668 3.77432 0.494141 3.41698 0.494141 2.97767V2.74972C0.494141 2.31046 0.855668 1.95312 1.30005 1.95312C1.74444 1.95312 2.10596 2.31046 2.10596 2.74972V2.97767C2.1058 3.41698 1.74433 3.77432 1.30005 3.77432ZM1.30005 2.17904C0.980201 2.17904 0.719943 2.43511 0.719943 2.74983V2.97778C0.719943 3.29256 0.980201 3.54863 1.30005 3.54863C1.6199 3.54863 1.88016 3.29256 1.88016 2.97778V2.74972C1.87999 2.43511 1.6199 2.17904 1.30005 2.17904Z" fill="#4A73CF"/>
</g>
<defs>
<clipPath id="clip0_1236_370">
<rect width="7" height="7" fill="white"/>
</clipPath>
</defs>
</svg>
