<svg width="7" height="7" viewBox="0 0 7 7" fill="none" xmlns="http://www.w3.org/2000/svg">
<path d="M6.88933 0.331823V4.1302C6.88951 4.16029 6.88322 4.19012 6.87082 4.21798C6.85842 4.24584 6.84015 4.27119 6.81705 4.29257C6.79396 4.31396 6.76649 4.33096 6.73622 4.34261C6.70595 4.35426 6.67348 4.36032 6.64065 4.36046H0.357935C0.325119 4.36031 0.292656 4.35423 0.262402 4.34258C0.232148 4.33092 0.204696 4.31392 0.181614 4.29253C0.158532 4.27115 0.140272 4.24581 0.127878 4.21795C0.115483 4.1901 0.109198 4.16028 0.10938 4.1302V0.331823C0.109181 0.301737 0.115455 0.27191 0.127844 0.244049C0.140232 0.216189 0.158491 0.19084 0.181577 0.169454C0.204662 0.148067 0.232121 0.131063 0.262383 0.119414C0.292644 0.107764 0.325114 0.101698 0.357935 0.101562H6.64065C6.67348 0.101698 6.70595 0.107763 6.73622 0.119411C6.76649 0.13106 6.79396 0.148062 6.81705 0.169447C6.84015 0.190831 6.85842 0.216179 6.87082 0.244041C6.88322 0.271902 6.88951 0.301732 6.88933 0.331823Z" fill="white"/>
<path d="M6.88933 2.94531V4.12851C6.88951 4.1586 6.88322 4.18843 6.87082 4.21629C6.85842 4.24415 6.84015 4.2695 6.81705 4.29088C6.79396 4.31227 6.76649 4.32927 6.73622 4.34092C6.70595 4.35256 6.67348 4.35863 6.64065 4.35877H0.357935C0.325114 4.35863 0.292644 4.35256 0.262383 4.34091C0.232121 4.32926 0.204662 4.31226 0.181577 4.29087C0.158491 4.26949 0.140232 4.24414 0.127844 4.21628C0.115455 4.18842 0.109181 4.15859 0.10938 4.12851V2.94531C0.863964 3.4299 2.10059 3.45718 3.49936 3.45718C4.89812 3.45718 6.13462 3.4299 6.88933 2.94531Z" fill="white"/>
<path d="M6.88933 3.7832V4.12859C6.88951 4.15868 6.88322 4.18851 6.87082 4.21638C6.85842 4.24424 6.84015 4.26958 6.81705 4.29097C6.79396 4.31235 6.76649 4.32936 6.73622 4.341C6.70595 4.35265 6.67348 4.35872 6.64065 4.35885H0.357934C0.325118 4.3587 0.292655 4.35263 0.262402 4.34097C0.232148 4.32932 0.204696 4.31231 0.181613 4.29093C0.158531 4.26955 0.140271 4.2442 0.127877 4.21635C0.115483 4.1885 0.109197 4.15868 0.109379 4.12859V3.7832H6.88933Z" fill="white"/>
<path d="M5.75991 5.625H1.23995L0.863281 6.31555H6.13658L5.75991 5.625Z" fill="white"/>
<path d="M3.87637 4.35938H3.12305V5.62535H3.87637V4.35938Z" fill="white"/>
<path d="M6.64142 4.45991H0.358705C0.263379 4.45952 0.172113 4.42449 0.104919 4.3625C0.0377248 4.30052 8.50877e-05 4.21664 0.000252316 4.12926V1.26873C0.000252317 1.24202 0.0118307 1.21639 0.0324404 1.1975C0.0530501 1.17861 0.0810028 1.168 0.110149 1.168C0.139296 1.168 0.167248 1.17861 0.187858 1.1975C0.208468 1.21639 0.220046 1.24202 0.220046 1.26873V4.12926C0.219777 4.16318 0.234151 4.19582 0.260032 4.22006C0.285914 4.2443 0.321203 4.25818 0.358202 4.25867H6.64142C6.67853 4.25833 6.71398 4.24452 6.74 4.22026C6.76601 4.196 6.78047 4.16328 6.78021 4.12926V0.330884C6.78047 0.296867 6.76601 0.26414 6.74 0.239882C6.71398 0.215623 6.67853 0.201812 6.64142 0.201478H0.358705C0.321574 0.201782 0.286092 0.215579 0.260048 0.239841C0.234004 0.264103 0.219527 0.296847 0.219795 0.330884V0.748692C0.219795 0.775409 0.208217 0.801032 0.187607 0.819925C0.166997 0.838817 0.139045 0.84943 0.109898 0.84943C0.0807516 0.84943 0.0527989 0.838817 0.0321892 0.819925C0.0115795 0.801032 1.08129e-06 0.775409 1.08129e-06 0.748692V0.330884C-0.000232581 0.243421 0.0374122 0.159449 0.104668 0.0974096C0.171924 0.0353699 0.263291 0.000335312 0.358705 0H6.64142C6.73681 0.000365736 6.82815 0.0354138 6.89538 0.0974502C6.96261 0.159487 7.00023 0.243441 7 0.330884V4.12926C7.00017 4.21666 6.96251 4.30056 6.89529 4.36254C6.82807 4.42453 6.73677 4.45955 6.64142 4.45991Z" fill="#4A73CF"/>
<path d="M1.48631 3.88507H0.109897C0.0807505 3.88507 0.0527977 3.87446 0.0321881 3.85557C0.0115784 3.83667 0 3.81105 0 3.78433C0 3.75762 0.0115784 3.73199 0.0321881 3.7131C0.0527977 3.69421 0.0807505 3.68359 0.109897 3.68359H1.48631C1.51546 3.68359 1.54341 3.69421 1.56402 3.7131C1.58463 3.73199 1.59621 3.75762 1.59621 3.78433C1.59621 3.81105 1.58463 3.83667 1.56402 3.85557C1.54341 3.87446 1.51546 3.88507 1.48631 3.88507Z" fill="#4A73CF"/>
<path d="M6.88869 3.88507H2.35013C2.32098 3.88507 2.29303 3.87446 2.27242 3.85557C2.25181 3.83667 2.24023 3.81105 2.24023 3.78433C2.24023 3.75762 2.25181 3.73199 2.27242 3.7131C2.29303 3.69421 2.32098 3.68359 2.35013 3.68359H6.88869C6.91783 3.68359 6.94579 3.69421 6.9664 3.7131C6.98701 3.73199 6.99859 3.75762 6.99859 3.78433C6.99859 3.81105 6.98701 3.83667 6.9664 3.85557C6.94579 3.87446 6.91783 3.88507 6.88869 3.88507Z" fill="#4A73CF"/>
<path d="M6.13713 6.4157H0.863831C0.8451 6.4157 0.826678 6.41132 0.810315 6.40296C0.793952 6.3946 0.780191 6.38255 0.770338 6.36795C0.760485 6.35334 0.754868 6.33667 0.754019 6.31952C0.75317 6.30237 0.757119 6.2853 0.765489 6.26994L1.14228 5.57916C1.15139 5.56241 1.16542 5.54831 1.1828 5.53847C1.20017 5.52863 1.2202 5.52342 1.24062 5.52344H4.52208C4.55123 5.52344 4.57918 5.53405 4.59979 5.55294C4.6204 5.57184 4.63198 5.59746 4.63198 5.62418C4.63198 5.65089 4.6204 5.67652 4.59979 5.69541C4.57918 5.7143 4.55123 5.72492 4.52208 5.72492H1.30832L1.04168 6.21399H5.95991L5.69314 5.72492H5.26486C5.23571 5.72492 5.20776 5.7143 5.18715 5.69541C5.16654 5.67652 5.15496 5.65089 5.15496 5.62418C5.15496 5.59746 5.16654 5.57184 5.18715 5.55294C5.20776 5.53405 5.23571 5.52344 5.26486 5.52344H5.76046C5.78087 5.52341 5.80088 5.52862 5.81824 5.53847C5.83559 5.54831 5.8496 5.56241 5.85868 5.57916L6.23547 6.26994C6.24383 6.28529 6.24778 6.30235 6.24694 6.31949C6.2461 6.33664 6.24049 6.3533 6.23065 6.3679C6.22081 6.3825 6.20707 6.39455 6.19073 6.40292C6.17438 6.41128 6.15597 6.41568 6.13725 6.4157H6.13713Z" fill="#4A73CF"/>
<path d="M3.12357 5.72492C3.10913 5.72493 3.09483 5.72234 3.08149 5.71728C3.06815 5.71222 3.05603 5.7048 3.04582 5.69544C3.03562 5.68609 3.02752 5.67498 3.022 5.66275C3.01649 5.65052 3.01366 5.63741 3.01367 5.62418V4.35855C3.01367 4.33183 3.02525 4.30621 3.04586 4.28732C3.06647 4.26843 3.09442 4.25781 3.12357 4.25781C3.15272 4.25781 3.18067 4.26843 3.20128 4.28732C3.22189 4.30621 3.23347 4.33183 3.23347 4.35855V5.62498C3.23323 5.65156 3.22155 5.67698 3.20097 5.6957C3.18038 5.71441 3.15256 5.72492 3.12357 5.72492Z" fill="#4A73CF"/>
<path d="M3.87552 5.72492C3.86109 5.72493 3.84679 5.72234 3.83345 5.71728C3.82011 5.71222 3.80798 5.7048 3.79778 5.69544C3.78757 5.68609 3.77947 5.67498 3.77396 5.66275C3.76844 5.65052 3.76561 5.63741 3.76563 5.62418V4.35855C3.76563 4.33183 3.7772 4.30621 3.79781 4.28732C3.81842 4.26843 3.84638 4.25781 3.87552 4.25781C3.90467 4.25781 3.93262 4.26843 3.95323 4.28732C3.97384 4.30621 3.98542 4.33183 3.98542 4.35855V5.62498C3.98519 5.65156 3.97351 5.67698 3.95292 5.6957C3.93234 5.71441 3.90452 5.72492 3.87552 5.72492Z" fill="#4A73CF"/>
<path d="M2.92711 1.80279L3.15092 1.52083C3.05371 1.36334 3.0424 1.34676 2.94519 1.19133L2.56526 1.22863C2.47935 1.18511 2.41831 1.15196 2.33467 1.10637L2.17855 0.787109H1.76483L1.61098 1.10637C1.52507 1.15242 1.46629 1.18511 1.38038 1.22863L1.00096 1.19133C0.901484 1.34676 0.892441 1.36334 0.792969 1.52083L1.01904 1.80279V2.04709L0.792969 2.32905C0.892441 2.48655 0.901484 2.50312 1.00096 2.65855L1.38089 2.62125C1.46679 2.66477 1.52557 2.69792 1.61148 2.74352L1.76534 3.06277H2.17905L2.33517 2.74352C2.41882 2.69746 2.47986 2.66477 2.56576 2.62125L2.94569 2.65855C3.01125 2.55286 3.03838 2.51141 3.07908 2.44717C3.09716 2.41609 3.11977 2.38086 3.15142 2.32905L2.92711 2.04709V1.80279ZM1.97257 2.42449C1.90101 2.42476 1.83008 2.41211 1.76385 2.38726C1.69762 2.3624 1.63738 2.32584 1.58656 2.27964C1.53575 2.23345 1.49536 2.17853 1.4677 2.11802C1.44003 2.05752 1.42564 1.99261 1.42535 1.92701C1.42505 1.86141 1.43885 1.7964 1.46596 1.73569C1.49308 1.67497 1.53297 1.61975 1.58336 1.57317C1.68514 1.4791 1.82352 1.42594 1.96805 1.42539H1.97257C2.11708 1.42545 2.25566 1.4781 2.35785 1.57177C2.46003 1.66544 2.51747 1.79247 2.51753 1.92494C2.51661 2.05717 2.4589 2.18374 2.3569 2.27724C2.2549 2.37074 2.11682 2.42365 1.97257 2.42449Z" fill="white"/>
<path d="M2.92637 2.04721L3.15018 2.32916C3.11853 2.38097 3.09592 2.4162 3.07784 2.44729C2.84275 2.41242 2.62194 2.32105 2.43792 2.18249C2.48947 2.10509 2.51685 2.0162 2.51705 1.92552C2.51708 1.85988 2.50301 1.79489 2.47564 1.73424C2.44827 1.67359 2.40814 1.61848 2.35754 1.57205C2.30693 1.52562 2.24685 1.48878 2.18071 1.46364C2.11457 1.43849 2.04368 1.42554 1.97208 1.42551H1.96731C1.92836 1.21078 1.95255 0.990417 2.03739 0.787109H2.17756L2.33368 1.10637C2.41732 1.15242 2.47836 1.18511 2.56427 1.22863L2.9442 1.19133C3.04141 1.34676 3.05272 1.36334 3.14993 1.52083L2.92612 1.80279L2.92637 2.04721Z" fill="white"/>
<path d="M2.17777 3.16338H1.76406C1.74276 3.16342 1.72192 3.15776 1.70407 3.14711C1.68622 3.13646 1.67216 3.12127 1.66358 3.1034L1.52404 2.81384L1.47381 2.78702C1.435 2.76606 1.39845 2.74649 1.3565 2.72473L1.01136 2.75858C0.990308 2.76083 0.968999 2.75737 0.950069 2.74863C0.931139 2.7399 0.915419 2.72626 0.904854 2.70942C0.844316 2.6149 0.816936 2.57126 0.783025 2.51692L0.696489 2.37877C0.685752 2.36181 0.68065 2.34236 0.68181 2.32278C0.682971 2.30321 0.690342 2.28437 0.70302 2.26859L0.907743 2.01334V1.83489L0.70302 1.57953C0.690338 1.56377 0.682963 1.54495 0.681802 1.5254C0.680642 1.50584 0.685747 1.4864 0.696489 1.46947L0.782523 1.33258C0.816936 1.27766 0.844065 1.23426 0.904854 1.13939C0.915551 1.12266 0.931294 1.10912 0.95019 1.1004C0.969085 1.09168 0.990327 1.08814 1.01136 1.09023L1.3565 1.12408C1.39832 1.10255 1.43449 1.08298 1.47305 1.06214L1.52392 1.03485L1.66358 0.745645C1.67216 0.727771 1.68623 0.712571 1.70407 0.7019C1.72191 0.691228 1.74276 0.685547 1.76406 0.685547H2.17777C2.199 0.685526 2.21978 0.691134 2.23761 0.701696C2.25544 0.712257 2.26955 0.72732 2.27825 0.745069L2.42005 1.0352C2.47858 1.06709 2.52769 1.09357 2.5876 1.12431L2.93286 1.09034C2.95407 1.08834 2.97545 1.09201 2.99444 1.10089C3.01342 1.10978 3.0292 1.12351 3.03987 1.14043L3.11523 1.26131C3.15416 1.32325 3.18091 1.36597 3.24547 1.47039C3.25585 1.48723 3.26072 1.50646 3.25949 1.52578C3.25827 1.54509 3.251 1.56367 3.23856 1.5793L3.03585 1.83466V2.0138L3.23856 2.26905C3.25095 2.28462 3.25821 2.30313 3.25948 2.32237C3.26075 2.34161 3.25597 2.36078 3.24572 2.37761L3.21194 2.43242C3.19712 2.45613 3.18493 2.47582 3.17426 2.49401L3.14135 2.54594C3.11422 2.5883 3.08709 2.63102 3.03949 2.70781C3.02888 2.72484 3.01308 2.73866 2.99403 2.7476C2.97498 2.75653 2.95351 2.76019 2.93223 2.75812L2.58697 2.72427C2.52706 2.7549 2.47795 2.78184 2.41942 2.81327L2.27762 3.1034C2.26904 3.12114 2.25506 3.13624 2.23735 3.14688C2.21963 3.15752 2.19895 3.16325 2.17777 3.16338ZM1.83565 2.9619H2.10656L2.23354 2.70217C2.24281 2.68322 2.25826 2.66738 2.27775 2.65681C2.3624 2.61075 2.42432 2.57702 2.51136 2.53293C2.53117 2.52311 2.55379 2.51909 2.57617 2.52141L2.88463 2.55169C2.91226 2.50737 2.93223 2.47617 2.95195 2.4452L2.98272 2.39696C2.99189 2.38107 3.00445 2.36069 3.01965 2.33617L2.83741 2.10671C2.82374 2.08949 2.81639 2.06872 2.81643 2.04742V1.80231C2.81641 1.78101 2.82375 1.76025 2.83741 1.74302L3.01965 1.51356C2.97908 1.44817 2.95597 1.41121 2.92507 1.36217L2.88488 1.29792L2.57617 1.32832C2.55378 1.33082 2.5311 1.32679 2.51136 1.31681C2.42432 1.2726 2.3624 1.23909 2.27775 1.19293C2.25823 1.18234 2.24278 1.16644 2.23354 1.14745L2.10656 0.887831H1.83565L1.71081 1.14699C1.70127 1.16632 1.68537 1.18242 1.66534 1.19304L1.58471 1.23621C1.5356 1.26269 1.49013 1.28722 1.43286 1.31681C1.41307 1.32679 1.39035 1.33082 1.36793 1.32832L1.05871 1.29827C1.02191 1.35583 0.999679 1.39141 0.973178 1.43378L0.92294 1.51437L1.10656 1.74336C1.12039 1.76066 1.12783 1.78156 1.12779 1.803V2.04662C1.12783 2.0681 1.12039 2.08903 1.10656 2.10637L0.92294 2.33525L0.973806 2.41584C1.00018 2.45786 1.02229 2.49309 1.05884 2.55054L1.36805 2.52015C1.39047 2.51782 1.41313 2.52184 1.43299 2.53166C1.49051 2.56079 1.5361 2.58542 1.58546 2.61225L1.66547 2.65508C1.68552 2.66567 1.70143 2.68178 1.71093 2.70113L1.83565 2.9619ZM1.97205 2.52441C1.84253 2.52441 1.71592 2.4892 1.60823 2.42324C1.50054 2.35728 1.4166 2.26353 1.36704 2.15384C1.31747 2.04415 1.3045 1.92345 1.32977 1.80701C1.35504 1.69056 1.41741 1.5836 1.50899 1.49965C1.60058 1.4157 1.71726 1.35853 1.84429 1.33536C1.97132 1.3122 2.10299 1.32409 2.22265 1.36952C2.34231 1.41496 2.44459 1.4919 2.51654 1.59061C2.5885 1.68933 2.62691 1.80539 2.62691 1.92412C2.62598 2.08306 2.55669 2.23526 2.43408 2.34765C2.31147 2.46004 2.14544 2.52356 1.97205 2.52441ZM1.97205 1.52531C1.85666 1.52531 1.746 1.56732 1.66441 1.64212C1.58282 1.71691 1.53698 1.81835 1.53698 1.92412C1.53698 2.02989 1.58282 2.13133 1.66441 2.20612C1.746 2.28091 1.85666 2.32293 1.97205 2.32293C2.04683 2.32313 2.12037 2.30545 2.18543 2.27166C2.25049 2.23786 2.30482 2.18911 2.34306 2.1302L2.34406 2.12905C2.38516 2.0675 2.40689 1.99674 2.40686 1.92458C2.40673 1.81888 2.36088 1.71755 2.27938 1.64279C2.19787 1.56803 2.08735 1.52595 1.97205 1.52577V1.52531Z" fill="#4A73CF"/>
<path d="M5.28567 1.15185V1.42482L6.15254 0.966261L5.28567 0.507812V0.780786H3.46289V1.15185H5.28567Z" fill="white"/>
<path d="M6.15254 0.964844H3.46289V1.15043H5.28567V1.42341L6.15254 0.964844Z" fill="white"/>
<path d="M5.2862 1.52441C5.26691 1.52443 5.24796 1.51974 5.23131 1.51082C5.2146 1.50201 5.20071 1.48931 5.19106 1.47401C5.1814 1.45871 5.17631 1.44135 5.1763 1.42367V1.25098H3.46341C3.44898 1.25099 3.43468 1.2484 3.42134 1.24334C3.408 1.23828 3.39588 1.23086 3.38567 1.2215C3.37546 1.21215 3.36736 1.20103 3.36185 1.18881C3.35633 1.17658 3.3535 1.16347 3.35352 1.15024V0.778827C3.35352 0.752109 3.36509 0.726486 3.3857 0.707594C3.40631 0.688702 3.43427 0.678088 3.46341 0.678088H4.16449C4.19364 0.678088 4.22159 0.688702 4.2422 0.707594C4.26281 0.726486 4.27439 0.752109 4.27439 0.778827C4.27439 0.805545 4.26281 0.831168 4.2422 0.85006C4.22159 0.868952 4.19364 0.879566 4.16449 0.879566H3.57331V1.04927H5.2862C5.31534 1.04927 5.34329 1.05988 5.3639 1.07877C5.38451 1.09767 5.39609 1.12329 5.39609 1.15001V1.2489L5.93327 0.964302L5.39609 0.6797V0.778712C5.39609 0.80543 5.38451 0.831053 5.3639 0.849945C5.34329 0.868837 5.31534 0.879451 5.2862 0.879451H4.69451C4.66536 0.879451 4.63741 0.868837 4.6168 0.849945C4.59619 0.831053 4.58461 0.80543 4.58461 0.778712C4.58461 0.751994 4.59619 0.726371 4.6168 0.707479C4.63741 0.688587 4.66536 0.677973 4.69451 0.677973H5.1763V0.505278C5.17627 0.48753 5.18136 0.47009 5.19104 0.45472C5.20072 0.43935 5.21466 0.426594 5.23144 0.417741C5.24822 0.408887 5.26725 0.40425 5.28661 0.404297C5.30597 0.404344 5.32498 0.409074 5.34171 0.418009L6.20832 0.877148C6.22501 0.88601 6.23887 0.898737 6.2485 0.914053C6.25813 0.92937 6.2632 0.946738 6.2632 0.964417C6.2632 0.982096 6.25813 0.999464 6.2485 1.01478C6.23887 1.0301 6.22501 1.04282 6.20832 1.05169L5.34171 1.51082C5.32486 1.51982 5.30569 1.52451 5.2862 1.52441Z" fill="#4A73CF"/>
<path d="M5.23103 2.36378L5.40461 2.14503C5.32925 2.02288 5.32046 2.0101 5.2451 1.88956L4.95057 1.91845C4.88401 1.88472 4.83666 1.85905 4.77173 1.8237L4.65078 1.57617H4.33L4.21081 1.8237C4.14412 1.85905 4.09853 1.88472 4.03196 1.91845L3.73744 1.88956C3.66032 2.0101 3.65329 2.02288 3.57617 2.14503L3.75201 2.36378V2.55351L3.57617 2.77226C3.65329 2.89441 3.66032 2.90719 3.73744 3.02773L4.03196 2.99884C4.09853 3.03257 4.14412 3.05824 4.21081 3.09359L4.33 3.34112H4.65078L4.77173 3.09359C4.83666 3.05824 4.88401 3.03257 4.95057 2.99884L5.2451 3.02773C5.29597 2.94576 5.31694 2.91364 5.34846 2.86379C5.36253 2.83973 5.38012 2.81244 5.40461 2.77226L5.23103 2.55351V2.36378ZM4.49127 2.84594C4.43578 2.84615 4.3808 2.83635 4.32945 2.81708C4.2781 2.79781 4.23139 2.76946 4.192 2.73365C4.11243 2.66131 4.06747 2.56297 4.067 2.46026C4.06677 2.4094 4.07747 2.35899 4.09849 2.31192C4.11951 2.26485 4.15044 2.22204 4.18951 2.18592C4.22858 2.14981 4.27503 2.1211 4.3262 2.10144C4.37737 2.08179 4.43227 2.07156 4.48775 2.07135H4.49127C4.56617 2.07102 4.6398 2.08902 4.70458 2.12348C4.76936 2.15795 4.82294 2.20763 4.85979 2.2674C4.89664 2.32718 4.91542 2.39488 4.9142 2.46353C4.91298 2.53218 4.89181 2.59929 4.85286 2.65793C4.81576 2.7155 4.76285 2.76314 4.69941 2.79613C4.63597 2.82911 4.5642 2.84629 4.49127 2.84594Z" fill="white"/>
<path d="M5.23148 2.55397L5.40505 2.77272C5.37993 2.8129 5.36298 2.84019 5.34891 2.86425C5.16679 2.83692 4.9958 2.7659 4.8533 2.6584C4.89239 2.59977 4.9137 2.53265 4.91502 2.46395C4.91634 2.39526 4.89763 2.32748 4.86082 2.26763C4.82402 2.20778 4.77045 2.15802 4.70565 2.1235C4.64085 2.08897 4.56717 2.07093 4.49221 2.07123H4.4887C4.4584 1.90472 4.47717 1.73381 4.54308 1.57617H4.65172L4.77267 1.8237C4.83761 1.85905 4.88496 1.88472 4.95152 1.91845L5.24605 1.88956C5.3214 2.0101 5.33019 2.02288 5.40555 2.14503L5.23198 2.36378L5.23148 2.55397Z" fill="white"/>
<path d="M4.65158 3.44195H4.33068C4.30939 3.44191 4.28856 3.43621 4.27073 3.42554C4.2529 3.41487 4.23882 3.3997 4.2302 3.38185L4.12508 3.16403L4.09431 3.14745C4.06605 3.13225 4.03955 3.11786 4.0094 3.10232L3.74967 3.12776C3.72863 3.12992 3.70735 3.12642 3.68844 3.11769C3.66953 3.10896 3.6538 3.09538 3.64316 3.0786C3.59544 3.00388 3.57434 2.97026 3.54721 2.92686L3.48165 2.82255C3.4709 2.80562 3.4658 2.78618 3.46696 2.76662C3.46812 2.74707 3.47549 2.72825 3.48818 2.71248L3.64203 2.52045V2.39714L3.4883 2.20534C3.47562 2.18955 3.46825 2.17071 3.46709 2.15114C3.46593 2.13157 3.47103 2.11211 3.48177 2.09516L3.54721 1.99154C3.57446 1.94802 3.59544 1.9144 3.64329 1.83968C3.65391 1.82289 3.66964 1.8093 3.68856 1.80057C3.70747 1.79184 3.72875 1.78835 3.74979 1.79052L4.00953 1.81597C4.03904 1.80077 4.06504 1.78672 4.09255 1.77176L4.1252 1.75437L4.23008 1.53655C4.23873 1.51873 4.25281 1.50358 4.27064 1.49294C4.28847 1.4823 4.30928 1.47661 4.33055 1.47656H4.65145C4.6727 1.47654 4.69349 1.48216 4.71133 1.49274C4.72916 1.50333 4.74326 1.51842 4.75193 1.5362L4.85869 1.75495C4.89863 1.77671 4.93404 1.79547 4.97449 1.81654L5.23422 1.79098C5.25545 1.7888 5.27691 1.79239 5.29593 1.80129C5.31495 1.81019 5.33071 1.82403 5.34123 1.84106L5.40214 1.93823C5.43128 1.98429 5.45238 2.0179 5.50111 2.097C5.5115 2.11386 5.51639 2.1331 5.51519 2.15243C5.51399 2.17176 5.50675 2.19036 5.49433 2.20603L5.34186 2.39795V2.52206L5.49408 2.71306C5.50648 2.72864 5.51373 2.74716 5.51496 2.76641C5.51618 2.78567 5.51133 2.80484 5.50099 2.82163L5.47587 2.86169C5.46331 2.88115 5.45389 2.89692 5.44535 2.91154L5.41809 2.9546C5.39762 2.98672 5.37665 3.01954 5.34073 3.07756C5.33015 3.09463 5.31437 3.1085 5.29531 3.11746C5.27626 3.12642 5.25476 3.13008 5.23347 3.12799L4.97361 3.10243C4.93279 3.12361 4.89825 3.14227 4.85793 3.16403L4.75118 3.38277C4.74248 3.40033 4.72848 3.41524 4.71083 3.42573C4.69318 3.43622 4.67261 3.44185 4.65158 3.44195ZM4.40227 3.24047H4.58036L4.67218 3.05246C4.68144 3.03355 4.69683 3.01772 4.71626 3.0071C4.78232 2.97118 4.83043 2.94505 4.89812 2.91074C4.91793 2.90091 4.94055 2.89689 4.96293 2.89923L5.18599 2.9211C5.20282 2.89428 5.21601 2.87367 5.22882 2.8534L5.25394 2.8138C5.25934 2.80459 5.2665 2.79308 5.27466 2.77926L5.14291 2.61313C5.12915 2.59594 5.12176 2.57516 5.12181 2.55384V2.3641C5.12177 2.34278 5.12917 2.32201 5.14291 2.30481L5.27479 2.13937C5.24891 2.0978 5.23246 2.07133 5.21199 2.03828L5.18687 1.99787L4.96368 2.01975C4.9413 2.02219 4.91865 2.01816 4.89888 2.00823C4.83118 1.97369 4.78308 1.94779 4.71714 1.91187C4.69764 1.90125 4.6822 1.88537 4.67293 1.86639L4.58112 1.6785H4.40227L4.31196 1.86593C4.30246 1.88528 4.28656 1.90139 4.2665 1.91198L4.2037 1.94549C4.16602 1.9661 4.1301 1.98521 4.08551 2.00777C4.06575 2.0177 4.04309 2.02173 4.02071 2.01929L3.79689 1.9973C3.77265 2.03552 3.7567 2.06108 3.73761 2.09136L3.70759 2.13902L3.84047 2.30458C3.85428 2.32189 3.86171 2.34278 3.8617 2.36422V2.55384C3.86174 2.57528 3.8543 2.59618 3.84047 2.61347L3.70759 2.77915L3.73761 2.82681C3.7567 2.8572 3.77265 2.88265 3.79689 2.92087L4.02071 2.89888C4.04308 2.89655 4.06571 2.90057 4.08551 2.91039C4.13085 2.93342 4.16665 2.95265 4.20571 2.97372L4.26625 3.00618C4.2863 3.01677 4.30221 3.03289 4.31171 3.05223L4.40227 3.24047ZM4.49194 2.947C4.38664 2.947 4.28371 2.91838 4.19616 2.86476C4.1086 2.81113 4.04036 2.73491 4.00007 2.64573C3.95977 2.55655 3.94923 2.45843 3.96977 2.36376C3.99031 2.26909 4.04102 2.18213 4.11548 2.11387C4.18994 2.04562 4.2848 1.99914 4.38808 1.98031C4.49135 1.96148 4.5984 1.97114 4.69569 2.00808C4.79297 2.04502 4.87612 2.10757 4.93462 2.18783C4.99312 2.26809 5.02435 2.36244 5.02435 2.45897C5.02359 2.58819 4.96725 2.71192 4.86757 2.80329C4.76789 2.89467 4.63291 2.94631 4.49194 2.947ZM4.49194 2.17241C4.40903 2.17241 4.32952 2.2026 4.2709 2.25634C4.21227 2.31008 4.17933 2.38297 4.17933 2.45897C4.17933 2.53497 4.21227 2.60786 4.2709 2.6616C4.32952 2.71534 4.40903 2.74553 4.49194 2.74553C4.5456 2.74569 4.59837 2.73304 4.64506 2.70881C4.69175 2.68459 4.73075 2.64962 4.75821 2.60737L4.75934 2.60564C4.78883 2.56149 4.80447 2.51074 4.80455 2.45897C4.80445 2.383 4.77149 2.31016 4.71288 2.25644C4.65428 2.20272 4.57482 2.1725 4.49194 2.17241Z" fill="#4A73CF"/>
</svg>
