<svg width="65" height="64" viewBox="0 0 65 64" fill="none" xmlns="http://www.w3.org/2000/svg">
<g id="Frame 126">
<rect x="0.5" width="64" height="64" rx="7.70588" fill="#E0F1F4"/>
<g id="main icons" clip-path="url(#clip0_262_17825)">
<g id="Group">
<path id="Vector" d="M13.1484 43.0426H53.6692V44.3683H13.1484V43.0426Z" fill="#024430"/>
<path id="Vector_2" d="M49.9415 47.2337L49.1143 46.1977L52.469 43.5213L49.1444 41.2414L49.894 40.1484L53.9572 42.9345C54.1311 43.0533 54.2375 43.2475 54.245 43.4575C54.2531 43.667 54.1602 43.8686 53.9964 43.9997L49.9415 47.2337Z" fill="#024430"/>
<path id="Vector_3" d="M39.2493 44.3709L38.7172 43.1565C44.034 40.8265 47.4688 35.6265 47.4688 29.9086C47.4688 21.9196 40.8861 15.4211 32.7945 15.4211C24.7213 15.4211 18.1539 21.9203 18.1539 29.9086C18.1539 30.2611 18.1662 30.6113 18.1914 30.9579L16.8692 31.0541C16.842 30.6754 16.8281 30.2944 16.8281 29.9086C16.8281 21.1891 23.9902 14.0954 32.7945 14.0954C41.6172 14.0954 48.7945 21.1891 48.7945 29.9086C48.7945 36.1521 45.0481 41.8288 39.2493 44.3709Z" fill="#024430"/>
<path id="Vector_4" d="M16.9185 32.1717C16.8787 32.1717 16.8382 32.1681 16.7984 32.1604C16.5945 32.1225 16.4194 31.9921 16.3265 31.8063L14.0615 27.3103L15.2455 26.7144L17.1172 30.4297L20.4047 27.4255L21.2993 28.4046L17.3668 31.9985C17.2428 32.1112 17.0829 32.1717 16.9185 32.1717Z" fill="#024430"/>
</g>
<path id="Vector_5" d="M41.3865 29.261C41.3865 24.5766 37.542 20.7791 32.7997 20.7791C28.0574 20.7791 24.2129 24.5766 24.2129 29.261C24.2129 33.9454 28.0574 37.7429 32.7997 37.7429C37.542 37.7429 41.3865 33.9454 41.3865 29.261Z" fill="#06D6A0"/>
<path id="Vector_6" d="M32.7985 38.4058C27.6985 38.4058 23.5488 34.3034 23.5488 29.2603C23.5488 24.2173 27.6985 20.1155 32.7985 20.1155C37.8985 20.1155 42.0482 24.218 42.0482 29.2603C42.0482 34.3027 37.8985 38.4058 32.7985 38.4058ZM32.7985 21.4413C28.4297 21.4413 24.8746 24.9491 24.8746 29.2603C24.8746 33.5722 28.429 37.0801 32.7985 37.0801C37.168 37.0801 40.7224 33.5722 40.7224 29.2603C40.7224 24.9491 37.1673 21.4413 32.7985 21.4413Z" fill="#024430"/>
<path id="Vector_7" d="M32.7996 31.2059C31.7143 31.2059 30.8301 30.3336 30.8301 29.2603C30.8301 28.1871 31.7137 27.3148 32.7996 27.3148C33.8848 27.3148 34.7691 28.1871 34.7691 29.2603C34.7691 30.3336 33.8855 31.2059 32.7996 31.2059Z" fill="white"/>
<path id="Vector_8" d="M32.1377 23.4703H33.4634V28.1042H32.1377V23.4703Z" fill="white"/>
<path id="Vector_9" d="M33.9404 28.5975H38.9728V29.9232H33.9404V28.5975Z" fill="white"/>
</g>
</g>
<defs>
<clipPath id="clip0_262_17825">
<rect width="41.098" height="41.098" fill="white" transform="translate(13.1484 10.1176)"/>
</clipPath>
</defs>
</svg>
