<svg width="6" height="6" viewBox="0 0 6 6" fill="none" xmlns="http://www.w3.org/2000/svg">
<g clip-path="url(#clip0_1236_133)">
<path d="M4.40255 5.90411H0.440524C0.250095 5.90411 0.0976562 5.74926 0.0976562 5.55571V0.446053C0.0976562 0.252504 0.250095 0.0976562 0.440524 0.0976562H4.3931C4.58353 0.0976562 4.73597 0.252504 4.73597 0.446053V5.5654C4.73597 5.74926 4.58353 5.90411 4.40255 5.90411Z" fill="white"/>
<path d="M4.40167 6H0.439642C0.197234 6 0 5.80036 0 5.55483V0.445171C0 0.199644 0.197234 0 0.439642 0H4.39222C4.63462 0 4.83186 0.199644 4.83186 0.445171V5.56452C4.83186 5.80055 4.63491 6 4.40167 6ZM0.439642 0.193548C0.301663 0.193548 0.193548 0.304073 0.193548 0.445171V5.55483C0.193548 5.69593 0.301663 5.80645 0.439642 5.80645H4.40167C4.52991 5.80645 4.63822 5.69564 4.63822 5.56452V0.445171C4.63822 0.304073 4.5301 0.193548 4.39207 0.193548H0.439642Z" fill="#4A73CF"/>
<path d="M0.611328 0.589844H4.26815V5.40871H0.611328V0.589844Z" fill="white"/>
<path d="M4.36404 5.50646H0.513672V0.494141H4.36404V5.50646ZM0.70722 5.31291H4.17049V0.687689H0.70722V5.31291Z" fill="#4A73CF"/>
<path d="M2.35537 1.66488L1.85737 1.22165L1.35938 1.66488V0.107422H2.35537V1.66488Z" fill="white"/>
<path d="M2.35449 1.76092C2.33124 1.76092 2.30823 1.7525 2.29013 1.73644L1.85649 1.35048L1.42285 1.73644C1.39431 1.76177 1.35344 1.76819 1.31889 1.75241C1.28416 1.73682 1.26172 1.70218 1.26172 1.66414V0.10654C1.26172 0.0530494 1.30505 0.00976562 1.35849 0.00976562H2.35459C2.40803 0.00976562 2.45136 0.0530494 2.45136 0.10654V1.66414C2.45136 1.70227 2.42901 1.73682 2.39418 1.75241C2.38147 1.75822 2.36796 1.76092 2.35449 1.76092ZM1.85649 1.12413C1.8795 1.12413 1.90247 1.13226 1.92085 1.14861L2.25772 1.44853V0.203314H1.45517V1.44843L1.79204 1.14852C1.81052 1.13226 1.83348 1.12413 1.85649 1.12413Z" fill="#4A73CF"/>
<path d="M1.3418 2.9668H3.53656V3.16035H1.3418V2.9668Z" fill="#4A73CF"/>
<path d="M1.3418 3.77734H3.53713V3.97089H1.3418V3.77734Z" fill="#4A73CF"/>
<path d="M1.3418 4.54102H3.53656V4.73456H1.3418V4.54102Z" fill="#4A73CF"/>
<path d="M1.3418 2.13672H3.53656V2.33027H1.3418V2.13672Z" fill="#4A73CF"/>
<path d="M5.90357 3.36481C5.90357 2.78903 5.44423 2.32227 4.87757 2.32227C4.31091 2.32227 3.85156 2.78903 3.85156 3.36481C3.85156 3.94059 4.31091 4.40735 4.87757 4.40735C5.44423 4.40735 5.90357 3.94059 5.90357 3.36481V3.36481Z" fill="white"/>
<path d="M4.87678 4.50315C4.25772 4.50315 3.75391 3.99211 3.75391 3.36383C3.75391 2.73565 4.25762 2.22461 4.87678 2.22461C5.49594 2.22461 5.99965 2.73556 5.99965 3.36383C5.99965 3.99211 5.49594 4.50315 4.87678 4.50315V4.50315ZM4.87678 2.41806C4.36437 2.41806 3.94745 2.8423 3.94745 3.36374C3.94745 3.88513 4.36437 4.30951 4.87678 4.30951C5.38919 4.30951 5.80611 3.88527 5.80611 3.36383C5.80611 2.8424 5.38919 2.41806 4.87678 2.41806V2.41806Z" fill="#4A73CF"/>
<path d="M5.61218 3.3655C5.61218 2.95005 5.28278 2.61328 4.8764 2.61328C4.47003 2.61328 4.14062 2.95005 4.14062 3.3655C4.14062 3.78095 4.47003 4.11772 4.8764 4.11772C5.28278 4.11772 5.61218 3.78095 5.61218 3.3655V3.3655Z" fill="#154CC7"/>
<path d="M4.78906 2.77734H4.98261V3.95328H4.78906V2.77734Z" fill="white"/>
<path d="M4.88593 4.04864C4.88518 4.04864 4.88442 4.04864 4.88371 4.04864C4.85786 4.04793 4.83339 4.03711 4.81567 4.01835L4.40234 3.58159L4.54287 3.44853L4.88914 3.81431L5.27246 3.44531L5.40671 3.58476L4.95303 4.02152C4.93503 4.03895 4.91102 4.04864 4.88593 4.04864V4.04864Z" fill="white"/>
</g>
<defs>
<clipPath id="clip0_1236_133">
<rect width="6" height="6" fill="white"/>
</clipPath>
</defs>
</svg>
