<svg width="130" height="127" viewBox="0 0 130 127" fill="none" xmlns="http://www.w3.org/2000/svg">
<g clip-path="url(#clip0_1186_539)">
<path fill-rule="evenodd" clip-rule="evenodd" d="M7.98828 78.7625H27.6952V123.528H7.98828V78.7625ZM70.8799 67.2455H90.5748V123.528H70.8799V67.2455ZM102.308 38.8223H122.002V123.528H102.308V38.8223ZM59.123 123.528H39.428V54.3175H59.123V123.528Z" fill="#154CC7"/>
<path fill-rule="evenodd" clip-rule="evenodd" d="M26.1718 122.039H9.51172V80.2499H26.1718V122.039ZM28.7108 75.2889H6.97266C5.57135 75.2889 4.43359 76.3994 4.43359 77.7694V124.519C4.43359 125.889 5.57135 127.001 6.97266 127.001H28.7108C30.1122 127.001 31.238 125.889 31.238 124.519V77.7694C31.2382 76.3994 30.1122 75.2889 28.7108 75.2889ZM89.0514 122.039H72.4033V68.733H89.0514V122.039ZM91.5905 63.7719H69.8523C68.451 63.7719 67.3132 64.8834 67.3132 66.2523V124.519C67.3132 125.889 68.451 127.001 69.8523 127.001H91.5905C92.9918 127.001 94.1295 125.889 94.1295 124.519V66.2526C94.1295 64.8836 92.9918 63.7719 91.5905 63.7719V63.7719ZM120.479 122.039H103.831V40.3098H120.479V122.039ZM123.018 35.3487H101.292C99.8907 35.3487 98.7529 36.4589 98.7529 37.8291V124.519C98.7529 125.889 99.8907 127.001 101.292 127.001H123.018C124.42 127.001 125.557 125.889 125.557 124.519V37.8294C125.557 36.4592 124.42 35.3487 123.018 35.3487V35.3487ZM57.5995 122.039H40.9514V55.8051H57.5995V122.039ZM60.1386 50.8427H38.4123C37.011 50.8427 35.8733 51.9542 35.8733 53.3231V124.519C35.8733 125.889 37.011 127.001 38.4123 127.001H60.1386C61.5518 127.001 62.6777 125.889 62.6777 124.519V53.3234C62.6779 51.9544 61.5521 50.8427 60.1386 50.8427V50.8427ZM17.8358 44.8779C21.944 44.8779 25.2735 48.133 25.2735 52.1357C25.2735 56.1375 21.9437 59.3936 17.8358 59.3936C13.7395 59.3936 10.41 56.1372 10.41 52.1357C10.41 48.133 13.7398 44.8779 17.8358 44.8779ZM49.2874 17.18C53.3717 17.18 56.7132 20.4363 56.7132 24.4391C56.7132 28.4408 53.3715 31.6969 49.2874 31.6969C45.1792 31.6969 41.8497 28.4406 41.8497 24.4391C41.8497 20.4363 45.1795 17.18 49.2874 17.18ZM80.7152 32.6588C84.8234 32.6588 88.1528 35.914 88.1528 39.9167C88.1528 43.9184 84.8231 47.1745 80.7152 47.1745C76.6189 47.1745 73.2894 43.9182 73.2894 39.9167C73.2894 35.914 76.6192 32.6588 80.7152 32.6588ZM112.167 4.96094C116.263 4.96094 119.593 8.2173 119.593 12.22C119.593 16.2215 116.263 19.4779 112.167 19.4779C108.059 19.4779 104.729 16.2215 104.729 12.22C104.729 8.2173 108.059 4.96094 112.167 4.96094ZM17.8358 64.3548C10.9488 64.3548 5.33166 58.8729 5.33166 52.1357C5.33166 45.3973 10.9488 39.9167 17.8358 39.9167C20.6023 39.9167 23.1536 40.7978 25.2377 42.286L38.4961 30.6053C37.4061 28.794 36.7714 26.6866 36.7714 24.4391C36.7714 17.7006 42.3885 12.22 49.2874 12.22C56.1741 12.22 61.7915 17.7006 61.7915 24.4391C61.7915 25.5342 61.6359 26.5966 61.3604 27.6076L70.9301 32.3208C73.2297 29.5067 76.7629 27.6977 80.7154 27.6977C83.482 27.6977 86.0452 28.5787 88.1173 30.0658L101.364 18.3862C100.286 16.5737 99.6512 14.4676 99.6512 12.22C99.651 5.48159 105.268 0 112.167 0C119.054 0 124.671 5.48159 124.671 12.22C124.671 18.9572 119.054 24.4391 112.167 24.4391C109.4 24.4391 106.837 23.5568 104.765 22.0697L91.5067 33.7505C92.5967 35.5617 93.2315 37.6679 93.2315 39.9167C93.2315 46.6539 87.6143 52.1357 80.7154 52.1357C73.8287 52.1357 68.2113 46.6541 68.2113 39.9167C68.2113 38.8203 68.3669 37.7592 68.6424 36.7469L59.0727 32.034C56.7731 34.8491 53.24 36.6581 49.2874 36.6581C46.5208 36.6581 43.9577 35.7758 41.8855 34.2888L28.639 45.9695C29.7171 47.7808 30.3516 49.8882 30.3516 52.1357C30.3518 58.8729 24.7347 64.3548 17.8358 64.3548V64.3548Z" fill="#4A73CF"/>
</g>
<defs>
<clipPath id="clip0_1186_539">
<rect width="130" height="127" fill="white"/>
</clipPath>
</defs>
</svg>
