<svg width="64" height="64" viewBox="0 0 64 64" fill="none" xmlns="http://www.w3.org/2000/svg">
<g id="Frame 126">
<rect width="64" height="64" rx="7.70588" fill="#E0F1F4"/>
<g id="main icons" clip-path="url(#clip0_262_17815)">
<path id="Vector" d="M41.549 35.2689L40.0905 33.871C40.1507 33.7098 40.2371 33.5732 40.298 33.4376C40.3465 33.289 40.432 33.1278 40.4676 32.9676L42.5219 32.9424C42.8728 32.9382 43.1569 32.6514 43.1404 32.3193L43.1081 28.7363C43.1032 28.3916 42.8116 28.1119 42.4743 28.1285L40.42 28.1537C40.3802 27.9938 40.3035 27.8475 40.2391 27.6876C40.1873 27.5407 40.0973 27.3814 40.0209 27.2594L41.4434 25.8265C41.6907 25.577 41.6988 25.1954 41.4321 24.94L38.8198 22.4351C38.566 22.1917 38.1776 22.1846 37.9184 22.4465L36.4959 23.8797C36.3321 23.8198 36.1936 23.7356 36.055 23.6754C35.9039 23.6275 35.7401 23.5434 35.577 23.5091L35.5517 21.4897C35.5472 21.1453 35.2556 20.8654 34.9183 20.8819L31.2612 20.9265C30.9103 20.9304 30.6261 21.2175 30.6426 21.5496L30.6679 23.5686C30.5054 23.6078 30.3562 23.6832 30.1937 23.747C30.0442 23.7981 29.8824 23.8861 29.7584 23.9616L28.2999 22.5636C28.0462 22.3206 27.6578 22.3131 27.3985 22.575L24.838 25.1549C24.5781 25.3922 24.5826 25.7861 24.8241 26.0172L26.2822 27.4154C26.222 27.5763 26.1359 27.7129 26.0747 27.8488C26.0139 27.9847 25.941 28.1582 25.9051 28.3188L23.876 28.368C23.5255 28.3719 23.241 28.6589 23.2575 28.991L23.3025 32.5857C23.3074 32.9304 23.599 33.21 23.9363 33.1935L25.9906 33.1683C26.0304 33.3282 26.1074 33.4745 26.1715 33.6344C26.2233 33.7816 26.3133 33.9406 26.3897 34.0626L24.9671 35.4958C24.7199 35.745 24.7121 36.1266 24.9785 36.382L27.6034 38.8988C27.8572 39.1422 28.2456 39.1493 28.5048 38.8875L29.9273 37.4546C30.0911 37.5142 30.2296 37.5983 30.3682 37.6585C30.5067 37.7184 30.6831 37.7906 30.8462 37.8249L30.8715 39.8443C30.876 40.189 31.1676 40.4686 31.5049 40.4521L35.162 40.4074C35.5129 40.4036 35.7971 40.1165 35.7806 39.7844L35.7553 37.7653C35.9178 37.7262 36.067 37.6508 36.2295 37.587C36.379 37.5359 36.5408 37.4478 36.6648 37.3724L38.1233 38.7703C38.377 39.0134 38.7654 39.0208 39.0247 38.759L41.5852 36.179C41.7949 35.8942 41.8027 35.5123 41.549 35.2689V35.2689Z" fill="#06D6A0"/>
<path id="Vector_2" d="M31.4604 41.1163C31.1623 41.1163 30.8487 40.9923 30.6134 40.7709C30.3602 40.5327 30.213 40.198 30.2084 39.8527L30.1884 38.303C30.1599 38.291 30.1321 38.279 30.1049 38.267C30.0929 38.2619 30.0809 38.2567 30.0689 38.2518L28.9746 39.3555C28.4648 39.8673 27.6615 39.8754 27.1427 39.3775L24.518 36.8614C24.263 36.6167 24.1199 36.2936 24.1164 35.9512C24.1118 35.6071 24.2465 35.2796 24.4964 35.0291L25.5774 33.9393C25.5654 33.9108 25.5551 33.8823 25.545 33.8545L25.5369 33.838L23.9429 33.8571C23.636 33.8755 23.2933 33.7477 23.0434 33.513C22.79 33.2751 22.643 32.9411 22.6382 32.5951L22.5932 28.9995C22.5773 28.6887 22.6974 28.3657 22.9327 28.1152C23.1732 27.8589 23.514 27.7096 23.8671 27.7051L25.4282 27.6666C25.4415 27.6362 25.4541 27.6067 25.4674 27.5776C25.4699 27.5718 25.4729 27.5666 25.4755 27.5611L24.363 26.4952C24.1144 26.2567 23.974 25.9211 23.9785 25.5764C23.9833 25.2316 24.1326 24.8989 24.3895 24.6649L26.9265 22.1076C27.4343 21.5965 28.2383 21.5865 28.7581 22.0853L29.877 23.1576C29.9113 23.1437 29.945 23.131 29.9783 23.12L29.9974 23.1113L29.9783 21.558C29.9625 21.2473 30.0822 20.9246 30.3175 20.6738C30.5583 20.4174 30.8992 20.2682 31.2516 20.2637L34.9094 20.219C35.2256 20.2061 35.5596 20.3291 35.8089 20.5631C36.062 20.8013 36.2092 21.136 36.2138 21.4813L36.2332 23.0372C36.2397 23.0391 36.2458 23.0411 36.2516 23.043C36.2737 23.0495 36.2953 23.0576 36.3173 23.0676C36.3293 23.0728 36.3407 23.0773 36.3523 23.0828L37.447 21.9791C37.9545 21.468 38.7588 21.458 39.2789 21.9565L41.8906 24.461C42.146 24.7054 42.2884 25.029 42.2926 25.3711C42.2965 25.7149 42.1618 26.0418 41.9132 26.2923L40.8315 27.3827C40.8435 27.4119 40.8539 27.4397 40.8639 27.4675L40.872 27.485L42.4661 27.4656C42.771 27.4497 43.1163 27.575 43.3662 27.811C43.619 28.0489 43.7666 28.3838 43.7701 28.7292L43.8031 32.3132C43.819 32.6223 43.6989 32.945 43.4636 33.1955C43.2231 33.4522 42.8823 33.6011 42.5292 33.6059L40.9348 33.625C40.9329 33.6305 40.9309 33.6363 40.929 33.6415C40.9215 33.6648 40.9131 33.6881 40.9024 33.7105C40.9005 33.716 40.8979 33.7205 40.8956 33.725L42.0081 34.7912C42.4907 35.2543 42.5376 36.0033 42.1201 36.5723C42.101 36.5989 42.079 36.6238 42.0557 36.6471L39.4958 39.227C38.9853 39.7394 38.182 39.7469 37.6635 39.2487L36.5452 38.1771C36.5103 38.191 36.4763 38.2036 36.4433 38.2149L36.4242 38.2234L36.4433 39.7766C36.4591 40.0874 36.339 40.4104 36.1037 40.6609C35.8632 40.9172 35.5224 41.0664 35.1699 41.071L31.5128 41.1156C31.4957 41.1163 31.4775 41.1163 31.4604 41.1163V41.1163ZM29.9259 36.7918C30.0016 36.7918 30.0783 36.8047 30.1524 36.8313C30.2774 36.8766 30.39 36.9322 30.4988 36.9866C30.5431 37.0089 30.5868 37.031 30.6299 37.0501C30.6949 37.0779 30.8645 37.1517 30.984 37.1766C31.2863 37.2417 31.5034 37.5074 31.5076 37.8165L31.5326 39.8355L35.1169 39.7452L35.0916 37.7735C35.0877 37.4637 35.2984 37.1934 35.5995 37.1203C35.6791 37.1012 35.7525 37.0666 35.8302 37.0342L35.9866 36.9698C36.0898 36.9335 36.2021 36.8772 36.3206 36.8057C36.5766 36.651 36.9067 36.6856 37.1233 36.8937L38.5817 38.2916L41.0662 35.7615C41.0714 35.7502 41.0746 35.7408 41.0759 35.7337L39.6311 34.3484C39.4394 34.1646 39.3757 33.8836 39.4699 33.635C39.5165 33.5117 39.5734 33.3991 39.6298 33.291C39.6469 33.2567 39.6654 33.2227 39.6812 33.189C39.7026 33.1285 39.7272 33.067 39.7524 33.0039C39.7767 32.9443 39.8052 32.8835 39.8191 32.8223C39.8861 32.5213 40.1505 32.3067 40.459 32.3025L42.4767 32.2782L42.4437 28.7412L40.4263 28.8147C40.0971 28.8344 39.8492 28.6098 39.7754 28.3107C39.757 28.234 39.7217 28.1631 39.6893 28.0887L39.623 27.9356C39.5971 27.864 39.5576 27.7699 39.4573 27.6096C39.2941 27.3484 39.332 27.0096 39.5488 26.7908L40.9714 25.3572L38.3603 22.911L36.9657 24.3442C36.7841 24.5277 36.5116 24.5888 36.2682 24.4998C36.1435 24.4548 36.0309 24.3992 35.9228 24.3448C35.8865 24.327 35.8513 24.3085 35.8163 24.2924C35.7538 24.2713 35.6901 24.2467 35.6253 24.2208C35.5629 24.1962 35.5007 24.1678 35.437 24.1545C35.1347 24.0897 34.9175 23.8237 34.9133 23.5149L34.888 21.4959L31.3041 21.5859L31.3293 23.558C31.3332 23.8671 31.1225 24.138 30.8221 24.2111C30.7425 24.2302 30.6684 24.2645 30.59 24.2979L30.4344 24.362C30.3308 24.3985 30.2188 24.4548 30.1003 24.5264C29.845 24.6817 29.5148 24.6465 29.2976 24.4383L27.8398 23.0404L25.3363 25.5896L26.7394 26.9348C26.931 27.1183 26.9947 27.3993 26.9006 27.6478C26.8543 27.7705 26.798 27.8825 26.7423 27.9893C26.7196 28.033 26.697 28.0754 26.6779 28.1178C26.65 28.1796 26.5756 28.346 26.5513 28.4586C26.4863 28.757 26.2257 28.9723 25.9202 28.9797L23.9189 29.0286L23.9639 32.577L25.9817 32.5054C26.2908 32.5181 26.5597 32.7103 26.6329 33.0094C26.6513 33.0854 26.6866 33.1563 26.719 33.2301L26.7853 33.3839C26.8112 33.4554 26.8507 33.5496 26.9517 33.7105C27.1139 33.9717 27.0763 34.3105 26.8595 34.5287L25.4376 35.9616L28.0619 38.4195L29.4566 36.9866C29.5825 36.8597 29.753 36.7918 29.9259 36.7918V36.7918ZM35.1182 39.8096V39.8184V39.8096ZM42.478 32.343V32.3523V32.343ZM23.9176 28.9564V28.9652C23.9176 28.9626 23.9176 28.959 23.9176 28.9564ZM31.3028 21.515V21.5237C31.3028 21.5211 31.3028 21.5185 31.3028 21.515Z" fill="#024430"/>
<path id="Vector_3" d="M36.6602 30.5912C36.6495 29.7306 36.3142 28.8742 35.6339 28.2259C34.9539 27.5776 34.0696 27.2714 33.1892 27.2821C32.3092 27.2928 31.4327 27.62 30.7698 28.2851C30.1069 28.9499 29.7933 29.8141 29.804 30.6748C29.8147 31.5351 30.15 32.3915 30.8303 33.0398C31.5104 33.6881 32.3946 33.9943 33.275 33.9836C34.155 33.9729 35.0315 33.6457 35.6944 32.9809C36.3573 32.3158 36.6596 31.4402 36.6602 30.5912Z" fill="white"/>
<path id="Vector_4" d="M32.6436 13.6761H33.9693V18.055H32.6436V13.6761Z" fill="#024430"/>
<path id="Vector_5" d="M35.0575 12.5147C35.0575 11.557 34.2632 10.7805 33.2835 10.7805C32.3037 10.7805 31.5098 11.557 31.5098 12.5147C31.5098 13.4721 32.3037 14.2486 33.2835 14.2486C34.2632 14.2486 35.0575 13.4721 35.0575 12.5147Z" fill="white"/>
<path id="Vector_6" d="M33.2813 14.9108C31.9384 14.9108 30.8447 13.8356 30.8447 12.5141C30.8447 11.1922 31.9384 10.1176 33.2813 10.1176C34.6242 10.1176 35.7182 11.1929 35.7182 12.5147C35.7182 13.8363 34.6242 14.9108 33.2813 14.9108ZM33.2813 11.4434C32.6689 11.4434 32.1705 11.924 32.1705 12.5147C32.1705 13.1051 32.6689 13.5857 33.2813 13.5857C33.8937 13.5857 34.3924 13.1051 34.3924 12.5147C34.3924 11.924 33.8937 11.4434 33.2813 11.4434V11.4434Z" fill="#024430"/>
<path id="Vector_7" d="M17.8438 22.6387L18.5581 21.5218L22.5188 24.0548L21.8045 25.1718L17.8438 22.6387Z" fill="#024430"/>
<path id="Vector_8" d="M18.0456 20.0177C17.1969 19.539 16.1126 19.8228 15.6226 20.652C15.1329 21.4813 15.4238 22.5419 16.2715 23.0203C17.1195 23.499 18.2045 23.2152 18.6945 22.3859C19.1842 21.5567 18.8939 20.497 18.0456 20.0177Z" fill="white"/>
<path id="Vector_9" d="M17.1529 23.9146C16.7418 23.9146 16.3262 23.8127 15.9459 23.5978C15.3766 23.2764 14.9701 22.7553 14.8024 22.1303C14.6367 21.5124 14.7247 20.868 15.051 20.3151C15.7226 19.1778 17.2134 18.7868 18.3705 19.4403C18.9408 19.7617 19.347 20.2828 19.5147 20.9084C19.6804 21.5263 19.5917 22.1707 19.2655 22.7235C18.8149 23.4871 17.9941 23.9146 17.1529 23.9146V23.9146ZM17.1584 20.4478C16.7726 20.4478 16.3988 20.642 16.1932 20.9893C16.0492 21.2327 16.0107 21.5156 16.0832 21.7875C16.1573 22.0652 16.3402 22.2986 16.5968 22.4439C17.1319 22.7433 17.8158 22.5698 18.1233 22.0493C18.2673 21.8053 18.3064 21.5224 18.2339 21.2512C18.1598 20.9728 17.9763 20.7401 17.7196 20.5951C17.7196 20.5951 17.7196 20.5951 17.719 20.5951C17.5419 20.4954 17.3484 20.4478 17.1584 20.4478Z" fill="#024430"/>
<path id="Vector_10" d="M17.7334 38.5111L21.6935 35.9781L22.4081 37.0957L18.4481 39.6284L17.7334 38.5111Z" fill="#024430"/>
<path id="Vector_11" d="M16.1867 38.1696C15.3384 38.6483 15.048 39.709 15.5378 40.5382C16.0278 41.3674 17.1127 41.6516 17.9607 41.1726C18.8091 40.6939 19.0994 39.6332 18.6097 38.804C18.1203 37.9754 17.0354 37.6912 16.1867 38.1696Z" fill="white"/>
<path id="Vector_12" d="M17.0811 42.0675C16.2392 42.0675 15.4193 41.6393 14.9685 40.8755C14.6422 40.3233 14.5535 39.6792 14.7192 39.0613C14.8863 38.4363 15.2925 37.9146 15.8634 37.5932C17.0199 36.94 18.51 37.3313 19.183 38.4674C19.5092 39.0202 19.5972 39.6646 19.4315 40.2822C19.2639 40.9075 18.8583 41.4283 18.288 41.75C17.9083 41.9653 17.4921 42.0675 17.0811 42.0675V42.0675ZM17.0759 38.5998C16.8849 38.5998 16.692 38.6477 16.5143 38.747C16.257 38.893 16.0741 39.1257 16 39.4041C15.9275 39.675 15.9667 39.9582 16.1107 40.2013C16.4175 40.7211 17.1001 40.8981 17.6371 40.5965C17.8944 40.4515 18.0767 40.2181 18.1508 39.9394C18.2233 39.6685 18.1848 39.3853 18.0407 39.1416C17.8355 38.7943 17.4607 38.5998 17.0759 38.5998ZM16.1887 38.1696H16.1955H16.1887Z" fill="#024430"/>
<path id="Vector_13" d="M32.4277 43.2777H33.7535V47.6566H32.4277V43.2777Z" fill="#024430"/>
<path id="Vector_14" d="M34.8866 48.8186C34.8866 47.8612 34.0926 47.0847 33.1129 47.0847C32.1331 47.0847 31.3389 47.8612 31.3389 48.8186C31.3389 49.7763 32.1331 50.5528 33.1129 50.5528C34.0926 50.5528 34.8866 49.7763 34.8866 48.8186V48.8186Z" fill="white"/>
<path id="Vector_15" d="M33.1137 51.2157C31.7708 51.2157 30.6768 50.1405 30.6768 48.8186C30.6768 47.4971 31.7701 46.4218 33.1137 46.4218C34.4572 46.4218 35.5502 47.4971 35.5502 48.8186C35.5502 50.1405 34.4565 51.2157 33.1137 51.2157V51.2157ZM33.1137 47.7482C32.5013 47.7482 32.0025 48.2289 32.0025 48.8193C32.0025 49.4099 32.5013 49.8899 33.1137 49.8899C33.726 49.8899 34.2245 49.4093 34.2245 48.8186C34.2245 48.2282 33.726 47.7482 33.1137 47.7482V47.7482Z" fill="#024430"/>
<path id="Vector_16" d="M43.8838 37.2782L44.5981 36.1613L48.5585 38.6943L47.8445 39.8109L43.8838 37.2782Z" fill="#024430"/>
<path id="Vector_17" d="M48.3498 41.3156C49.1985 41.7943 50.2827 41.5105 50.7728 40.6813C51.2625 39.852 50.9715 38.7914 50.1238 38.313C49.2752 37.8343 48.1909 38.1181 47.7008 38.9474C47.2111 39.7766 47.5015 40.8363 48.3498 41.3156V41.3156Z" fill="white"/>
<path id="Vector_18" d="M49.2328 42.2093C48.8218 42.2093 48.4062 42.107 48.0265 41.8924C47.4562 41.571 47.05 41.0499 46.8823 40.4243C46.7166 39.8064 46.8053 39.162 47.1316 38.6091C47.8022 37.4724 49.2917 37.0798 50.4511 37.7349C51.0204 38.0563 51.427 38.5774 51.5946 39.2024C51.7603 39.8203 51.6723 40.4644 51.346 41.0175C50.8945 41.7817 50.074 42.2093 49.2328 42.2093V42.2093ZM49.238 38.7425C48.8531 38.7425 48.4783 38.936 48.2738 39.284C48.1297 39.528 48.0906 39.8109 48.1631 40.0821C48.2372 40.3605 48.4207 40.5932 48.6774 40.7382H48.678C49.2144 41.0405 49.8976 40.8628 50.2038 40.344C50.3478 40.1006 50.3864 39.8177 50.3139 39.5458C50.2397 39.2681 50.0569 39.0348 49.8002 38.8894C49.6225 38.7894 49.429 38.7425 49.238 38.7425Z" fill="#024430"/>
<path id="Vector_19" d="M43.9863 24.2383L47.9464 21.7053L48.6611 22.8229L44.701 25.3556L43.9863 24.2383Z" fill="#024430"/>
<path id="Vector_20" d="M50.2088 23.1637C51.0571 22.685 51.3474 21.6244 50.8577 20.7951C50.3677 19.9659 49.2828 19.6817 48.4348 20.1607C47.5864 20.6395 47.2961 21.7001 47.7858 22.5293C48.2752 23.3579 49.3601 23.6421 50.2088 23.1637Z" fill="white"/>
<path id="Vector_21" d="M49.3273 24.057C48.4861 24.057 47.6662 23.6288 47.2141 22.8659C46.8878 22.3131 46.7998 21.6687 46.9655 21.0511C47.1332 20.4258 47.5387 19.905 48.109 19.5833C49.2665 18.9285 50.7579 19.3208 51.4286 20.4585C51.7548 21.0107 51.8435 21.6548 51.6778 22.2727C51.5108 22.8977 51.1046 23.4194 50.5336 23.7408C50.154 23.9551 49.7384 24.057 49.3273 24.057V24.057ZM49.3215 20.5896C49.1312 20.5896 48.9376 20.6375 48.7599 20.7369C48.5026 20.8819 48.3204 21.1152 48.2463 21.3939C48.1738 21.6648 48.2123 21.948 48.3563 22.1917C48.6631 22.7109 49.3471 22.8867 49.8827 22.5863C50.14 22.4403 50.3229 22.2076 50.397 21.9292C50.4695 21.6583 50.4304 21.3751 50.2863 21.1321C50.0818 20.7838 49.707 20.5896 49.3215 20.5896Z" fill="#024430"/>
</g>
</g>
<defs>
<clipPath id="clip0_262_17815">
<rect width="41.098" height="41.098" fill="white" transform="translate(12.6484 10.1176)"/>
</clipPath>
</defs>
</svg>
