<svg width="150" height="150" viewBox="0 0 150 150" fill="none" xmlns="http://www.w3.org/2000/svg">
<path fill-rule="evenodd" clip-rule="evenodd" d="M81.4382 18.5405L69.7341 11.7841C69.372 11.5749 68.9243 11.5743 68.5622 11.7838C68.2004 11.993 67.9754 12.3806 67.9754 12.7986V26.3115C67.9754 26.7293 68.1998 27.1172 68.5616 27.3261C68.7397 27.4289 68.9419 27.4828 69.1479 27.4828C69.3538 27.4828 69.5557 27.4292 69.7341 27.3261L81.4382 20.5696C81.8 20.3607 82.0244 19.9731 82.0244 19.5551C82.0244 19.137 81.8 18.7491 81.4382 18.5405V18.5405ZM133.037 117.307C133.373 116.758 133.197 116.032 132.648 115.696L127.277 112.41C126.916 112.189 126.46 112.18 126.09 112.386C125.721 112.592 125.492 112.986 125.492 113.408V126.862L124.28 126.365C123.593 126.084 122.862 125.938 122.12 125.938C118.967 125.938 116.405 128.505 116.405 131.658C116.405 134.808 118.969 137.374 122.12 137.374C125.271 137.374 127.836 134.808 127.836 131.658V115.5L131.423 117.696C131.974 118.032 132.7 117.858 133.037 117.307ZM66.2085 97.0834L59.131 101.171C54.766 103.691 49.1483 102.184 46.6288 97.8188C45.4118 95.7103 45.0963 93.2282 45.7265 90.878C46.3584 88.5211 47.8651 86.5374 49.9795 85.3166L57.0573 81.2309L66.2085 97.0834ZM67.4937 99.0489L63.0447 101.617L75.3239 118.049L79.083 114.64L67.4937 99.0489ZM79.1686 56.2383C78.6849 55.4007 78.5604 54.4113 78.8106 53.4776C79.061 52.5419 79.6616 51.7512 80.5004 51.2663C81.0515 50.9479 81.6717 50.7817 82.3077 50.7817C82.63 50.7817 82.9499 50.8248 83.2613 50.908C84.1988 51.1588 84.989 51.7573 85.4744 52.5981L105.214 86.7894C106.216 88.5252 105.618 90.7597 103.881 91.7605C103.044 92.2433 102.055 92.3716 101.121 92.1208C100.185 91.8694 99.3931 91.2703 98.9085 90.4307L79.1686 56.2383ZM58.6569 33.2502C57.8202 33.2502 57.13 32.5588 57.13 31.7221V7.3875C57.13 6.55078 57.8199 5.85938 58.6569 5.85938H91.3429C92.1796 5.85938 92.8725 6.55078 92.8725 7.3875V31.7221C92.8725 32.5588 92.1796 33.2502 91.3429 33.2502H58.6569ZM124.806 105.469C135.467 105.469 144.141 114.144 144.141 124.804C144.141 135.465 135.467 144.141 124.806 144.141C114.143 144.141 105.47 135.467 105.47 124.804C105.47 114.142 114.143 105.469 124.806 105.469ZM33.594 144.141H5.86133V120.419H16.7073C17.3542 120.419 17.8783 119.894 17.8783 119.248V108.399H33.594V144.141Z" fill="#154CC7"/>
<path fill-rule="evenodd" clip-rule="evenodd" d="M124.613 131.657C124.613 130.28 123.493 129.161 122.119 129.161C120.744 129.161 119.626 130.28 119.626 131.657C119.626 133.032 120.744 134.151 122.119 134.151C123.493 134.151 124.613 133.032 124.613 131.657ZM133.786 117.766C133.193 118.732 131.93 119.036 130.964 118.445L128.714 117.068V131.657C128.714 135.292 125.756 138.252 122.119 138.252C118.484 138.252 115.525 135.292 115.525 131.657C115.525 128.018 118.484 125.059 122.119 125.059C123.001 125.059 123.842 125.236 124.613 125.551V113.408C124.613 112.667 125.014 111.981 125.66 111.618C126.309 111.258 127.102 111.272 127.735 111.659L133.106 114.946C134.072 115.537 134.374 116.8 133.786 117.766ZM143.262 124.804C143.262 134.982 134.98 143.262 124.806 143.262C114.628 143.262 106.348 134.982 106.348 124.804C106.348 114.626 114.628 106.348 124.806 106.348C134.98 106.348 143.262 114.626 143.262 124.804ZM102.504 128.236C81.327 139.195 55.2278 136.407 36.8156 121.166V107.226C36.8156 106.093 35.8948 105.176 34.7643 105.176H23.2339C14.1712 89.6687 12.5748 71.1311 18.8886 54.1222C24.9847 37.6978 37.6591 25.004 53.9071 18.912V31.7218C53.9071 34.3412 56.037 36.4723 58.6562 36.4723H91.3421C93.9615 36.4723 96.094 34.3412 96.094 31.7218V18.912C111.859 24.8317 124.358 37.0679 130.63 52.8595C137.09 69.121 136.199 87.1292 128.237 102.507C127.117 102.333 125.972 102.247 124.806 102.247C112.367 102.247 102.247 112.366 102.247 124.804C102.247 125.971 102.335 127.116 102.504 128.236ZM32.7144 109.277H18.7562V119.247C18.7562 120.378 17.8395 121.297 16.7062 121.297H6.73916V143.262H32.7141V109.277H32.7144ZM9.63984 117.196H14.6549V112.178L9.63984 117.196ZM58.0084 31.7218C58.0084 32.0733 58.3049 32.371 58.6564 32.371H91.3424C91.6939 32.371 91.9931 32.0733 91.9931 31.7218V7.38721C91.9931 7.03564 91.6939 6.73799 91.3424 6.73799H58.6562C58.3046 6.73799 58.0081 7.03594 58.0081 7.38721V31.7218H58.0084ZM147.364 124.804C147.364 137.245 137.242 147.363 124.806 147.363C114.997 147.363 106.633 141.07 103.533 132.311C94.5706 136.776 84.8215 138.973 75.1025 138.973C61.5237 138.973 48.0179 134.698 36.8156 126.379V145.312C36.8156 146.447 35.8948 147.363 34.7643 147.363H4.68809C3.55488 147.363 2.63672 146.447 2.63672 145.312V119.247C2.63672 118.703 2.85176 118.18 3.23789 117.797L15.2563 105.776C15.6396 105.393 16.1607 105.176 16.7065 105.176H18.5276C9.87422 89.0388 8.57578 70.1139 15.0413 52.6942C21.7356 34.6626 35.855 20.8368 53.9074 14.5491V7.38721C53.9074 4.76777 56.0373 2.63672 58.6564 2.63672H91.3424C93.9618 2.63672 96.0943 4.76807 96.0943 7.38721V14.5488C113.623 20.6572 127.551 33.9935 134.441 51.3457C141.221 68.4164 140.418 87.2906 132.309 103.536C141.069 106.635 147.364 114.996 147.364 124.804ZM71.1984 22.7584L76.7499 19.5545L71.1984 16.3506V22.7584ZM67.0957 26.3109C67.0957 27.0428 67.4886 27.7198 68.1214 28.0863C68.4413 28.2697 68.7955 28.3608 69.1471 28.3608C69.5013 28.3608 69.8558 28.2697 70.1728 28.0863L81.8769 21.3299C82.5097 20.9646 82.9025 20.2878 82.9025 19.5542C82.9025 18.8221 82.5097 18.1453 81.8769 17.7785L70.1728 11.0221C69.5399 10.6556 68.7568 10.6556 68.1214 11.0221C67.4886 11.3889 67.0957 12.0656 67.0957 12.7978V26.3109ZM104.452 87.2285L84.7125 53.0373C84.3472 52.403 83.7516 51.9483 83.0335 51.7567C82.7936 51.692 82.551 51.6604 82.3069 51.6604C81.83 51.6604 81.3612 51.7831 80.9394 52.0271C80.3065 52.3925 79.8516 52.9893 79.6585 53.705C79.4684 54.4204 79.5621 55.1648 79.9286 55.7991L99.6683 89.9918C100.035 90.6246 100.632 91.0781 101.347 91.2724C102.064 91.4625 102.809 91.3661 103.441 90.9993C104.761 90.2408 105.215 88.5466 104.452 87.2285V87.2285ZM77.901 114.524L67.2542 100.201L64.34 101.883L75.4485 116.748L77.901 114.524ZM58.6907 100.409L65.0074 96.7614L56.7346 82.4311L50.4179 86.0774C48.5142 87.1764 47.148 88.9629 46.5744 91.1051C45.9996 93.2458 46.2905 95.475 47.3892 97.379C49.6708 101.331 54.7397 102.688 58.6907 100.409V100.409ZM60.68 81.0595L68.1683 94.0318C77.0449 90.2572 85.9395 88.1481 93.7503 87.9398L78.7444 61.9497C74.6613 68.6109 68.3848 75.2572 60.68 81.0595V81.0595ZM96.4248 65.122L99.8438 71.0417C100.987 69.9457 101.288 68.1715 100.46 66.7392C99.6343 65.308 97.9456 64.6793 96.4248 65.122V65.122ZM105.493 94.553C108.771 92.6602 109.896 88.4558 108.006 85.1774L101.924 74.6452C105.016 72.3762 105.973 68.0848 104.014 64.6878C102.053 61.2923 97.8542 59.976 94.3456 61.5199L88.2662 50.9862C87.3522 49.4036 85.8703 48.2704 84.0976 47.7946C82.3219 47.3177 80.4732 47.5603 78.8921 48.4743C77.3068 49.3884 76.1722 50.869 75.6979 52.6433C75.2235 54.4175 75.4635 56.2661 76.3775 57.8487V57.8514C72.6747 64.6919 66.3167 71.6716 58.2715 77.7372C58.19 77.7026 58.1045 77.671 58.0178 77.649C57.4898 77.5069 56.93 77.5814 56.4586 77.8532L48.3662 82.5252C45.5127 84.1726 43.471 86.843 42.612 90.0439C41.7545 93.2435 42.1901 96.5769 43.8375 99.4307C46.1259 103.398 50.2948 105.615 54.5736 105.615C56.6719 105.615 58.7988 105.083 60.7415 103.961L60.7623 103.948L72.1825 119.23C72.8648 120.144 73.9069 120.73 75.0442 120.841C75.1767 120.853 75.3076 120.859 75.4371 120.859C76.4531 120.859 77.4416 120.48 78.1998 119.792L80.6578 117.563C82.2252 116.139 82.4514 113.778 81.179 112.07L70.3916 97.5478C79.4833 93.7649 88.4977 91.8349 96.1213 92.0458C97.0339 93.6243 98.5146 94.7587 100.286 95.233C100.881 95.39 101.485 95.47 102.082 95.47C103.269 95.4697 104.441 95.1595 105.493 94.553V94.553ZM108.15 73.1933C108.15 74.325 109.068 75.2432 110.201 75.2432H117.481C118.612 75.2432 119.533 74.325 119.533 73.1933C119.533 72.0601 118.612 71.1419 117.481 71.1419H110.201C109.068 71.1422 108.15 72.0601 108.15 73.1933ZM98.7161 56.8532C99.0387 57.0393 99.3932 57.1277 99.7392 57.1277C100.448 57.1277 101.14 56.7609 101.517 56.1035L105.158 49.7994C105.725 48.818 105.387 47.5646 104.406 46.998C103.428 46.4314 102.171 46.7663 101.606 47.748L97.9661 54.0521C97.3983 55.0321 97.7347 56.2866 98.7161 56.8532ZM107.152 62.8761C107.532 63.5335 108.221 63.9018 108.93 63.9018C109.279 63.9018 109.629 63.8136 109.951 63.6261L115.929 60.177C116.91 59.6104 117.247 58.3559 116.679 57.3744C116.114 56.3941 114.859 56.0593 113.878 56.6244L107.902 60.075C106.923 60.6416 106.586 61.8961 107.152 62.8761Z" fill="#4A73CF"/>
</svg>
