<svg width="10" height="10" viewBox="0 0 10 10" fill="none" xmlns="http://www.w3.org/2000/svg">
<path d="M2.37934 0.755859C2.05692 0.756691 1.74796 0.869584 1.51993 1.06989C1.29189 1.2702 1.16329 1.54165 1.1622 1.82499V4.25148C1.16024 4.39299 1.19027 4.53343 1.25054 4.66466C1.3108 4.79589 1.40011 4.9153 1.51329 5.01597C1.62646 5.11664 1.76125 5.19657 1.90984 5.25112C2.05842 5.30567 2.21786 5.33376 2.37889 5.33376C2.53992 5.33376 2.69935 5.30567 2.84794 5.25112C2.99653 5.19657 3.13132 5.11664 3.24449 5.01597C3.35766 4.9153 3.44697 4.79589 3.50724 4.66466C3.56751 4.53343 3.59753 4.39299 3.59558 4.25148V1.82499C3.59449 1.54179 3.46601 1.27045 3.23817 1.07017C3.01033 0.869883 2.7016 0.756899 2.37934 0.755859ZM2.74591 4.25148C2.74379 4.33567 2.70425 4.41577 2.63575 4.47465C2.56725 4.53353 2.47524 4.5665 2.37943 4.5665C2.28361 4.5665 2.1916 4.53353 2.1231 4.47465C2.0546 4.41577 2.01506 4.33567 2.01294 4.25148V1.82515C2.01186 1.78226 2.02054 1.7396 2.03847 1.6997C2.0564 1.65979 2.08323 1.62344 2.11737 1.59277C2.1515 1.56209 2.19227 1.53772 2.23727 1.52109C2.28227 1.50445 2.3306 1.49588 2.37943 1.49588C2.42825 1.49588 2.47658 1.50445 2.52158 1.52109C2.56658 1.53772 2.60735 1.56209 2.64149 1.59277C2.67563 1.62344 2.70245 1.65979 2.72038 1.6997C2.73831 1.7396 2.747 1.78226 2.74591 1.82515V4.25148Z" fill="white"/>
<path d="M2.37954 5.45821C2.01532 5.45783 1.66614 5.33051 1.40861 5.10417C1.15108 4.87783 1.00624 4.57095 1.00586 4.25088V1.82439C1.00999 1.5066 1.15655 1.20305 1.41373 0.979613C1.67091 0.756173 2.01798 0.630859 2.37963 0.630859C2.74128 0.630859 3.08834 0.756173 3.34552 0.979613C3.60271 1.20305 3.74926 1.5066 3.7534 1.82439V4.25088C3.75297 4.57097 3.60809 4.87784 3.35053 5.10418C3.09297 5.33051 2.74378 5.45783 2.37954 5.45821ZM2.37954 0.893295C2.09875 0.893629 1.82957 0.9918 1.63102 1.16628C1.43247 1.34076 1.32076 1.57732 1.32038 1.82407V4.25088C1.32038 4.37316 1.34778 4.49425 1.40103 4.60722C1.45429 4.7202 1.53234 4.82285 1.63073 4.90932C1.72912 4.99579 1.84593 5.06438 1.97449 5.11117C2.10305 5.15797 2.24084 5.18205 2.37999 5.18205C2.51914 5.18205 2.65692 5.15797 2.78548 5.11117C2.91404 5.06438 3.03085 4.99579 3.12924 4.90932C3.22764 4.82285 3.30569 4.7202 3.35894 4.60722C3.41219 4.49425 3.4396 4.37316 3.4396 4.25088V1.82439C3.43926 1.57745 3.32746 1.34073 3.12871 1.16616C2.92997 0.991597 2.66053 0.893462 2.37954 0.893295ZM2.37954 4.71106C2.24127 4.70947 2.10917 4.66049 2.01139 4.57456C1.91361 4.48863 1.85787 4.37255 1.85606 4.25104V1.82439C1.85606 1.70238 1.91121 1.58537 2.00938 1.4991C2.10756 1.41283 2.2407 1.36436 2.37954 1.36436C2.51837 1.36436 2.65152 1.41283 2.74969 1.4991C2.84786 1.58537 2.90302 1.70238 2.90302 1.82439V2.03815C2.90302 2.07476 2.88647 2.10987 2.85701 2.13576C2.82755 2.16165 2.7876 2.17619 2.74594 2.17619C2.70428 2.17619 2.66432 2.16165 2.63486 2.13576C2.60541 2.10987 2.58886 2.07476 2.58886 2.03815V1.82439C2.58886 1.7756 2.5668 1.72882 2.52755 1.69432C2.48829 1.65982 2.43505 1.64044 2.37954 1.64044C2.32402 1.64044 2.27078 1.65982 2.23153 1.69432C2.19227 1.72882 2.17022 1.7756 2.17022 1.82439V4.25088C2.17022 4.29967 2.19227 4.34645 2.23153 4.38095C2.27078 4.41545 2.32402 4.43483 2.37954 4.43483C2.43505 4.43483 2.48829 4.41545 2.52755 4.38095C2.5668 4.34645 2.58886 4.29967 2.58886 4.25088V2.50638C2.58886 2.46977 2.60541 2.43466 2.63486 2.40877C2.66432 2.38289 2.70428 2.36834 2.74594 2.36834C2.7876 2.36834 2.82755 2.38289 2.85701 2.40877C2.88647 2.43466 2.90302 2.46977 2.90302 2.50638V4.25088C2.9012 4.37239 2.84547 4.48848 2.74769 4.57441C2.64991 4.66033 2.51781 4.70931 2.37954 4.71091V4.71106Z" fill="#4A73CF"/>
<path d="M4.15665 2.75977H0.600739C0.355254 2.75977 0.15625 2.93465 0.15625 3.15038V5.34133C0.15625 5.55706 0.355254 5.73195 0.600739 5.73195H4.15665C4.40213 5.73195 4.60114 5.55706 4.60114 5.34133V3.15038C4.60114 2.93465 4.40213 2.75977 4.15665 2.75977Z" fill="white"/>
<path d="M4.15653 2.75977H0.849609V5.14556H4.60155V3.14975C4.60136 3.04618 4.55438 2.94691 4.47092 2.87378C4.38747 2.80065 4.27438 2.75964 4.15653 2.75977Z" fill="white"/>
<path d="M4.15748 5.86935H0.601568C0.442097 5.86923 0.289196 5.81351 0.176416 5.71443C0.0636362 5.61535 0.000190122 5.481 0 5.34086V5.13893C1.24156e-09 5.10232 0.0165493 5.06721 0.0460073 5.04132C0.0754654 5.01543 0.115419 5.00089 0.157079 5.00089C0.198739 5.00089 0.238693 5.01543 0.268151 5.04132C0.297609 5.06721 0.314158 5.10232 0.314158 5.13893V5.34086C0.314158 5.4078 0.34442 5.47201 0.398286 5.51934C0.452152 5.56668 0.52521 5.59327 0.601388 5.59327H4.15748C4.1952 5.59327 4.23255 5.58675 4.2674 5.57406C4.30224 5.56138 4.33391 5.54278 4.36058 5.51934C4.38725 5.4959 4.40841 5.46808 4.42284 5.43745C4.43728 5.40683 4.44471 5.37401 4.44471 5.34086V3.1499C4.44471 3.11675 4.43728 3.08393 4.42284 3.05331C4.40841 3.02268 4.38725 2.99486 4.36058 2.97142C4.33391 2.94798 4.30224 2.92939 4.2674 2.9167C4.23255 2.90402 4.1952 2.89749 4.15748 2.89749H0.601568C0.563848 2.89749 0.526498 2.90402 0.49165 2.9167C0.456801 2.92939 0.425137 2.94798 0.398465 2.97142C0.371794 2.99486 0.350636 3.02268 0.336202 3.05331C0.321767 3.08393 0.314338 3.11675 0.314338 3.1499V4.48344C0.314338 4.52005 0.297788 4.55516 0.26833 4.58105C0.238872 4.60693 0.198918 4.62148 0.157259 4.62148C0.115599 4.62148 0.075645 4.60693 0.0461869 4.58105C0.0167289 4.55516 0.000179506 4.52005 0.000179506 4.48344V3.1499C0.000322032 3.00972 0.0637414 2.87531 0.176521 2.77617C0.289301 2.67703 0.442229 2.62126 0.601747 2.62109H4.15748C4.317 2.62126 4.46992 2.67703 4.5827 2.77617C4.69548 2.87531 4.7589 3.00972 4.75905 3.1499V5.34086C4.75886 5.481 4.69541 5.61535 4.58263 5.71443C4.46985 5.81351 4.31695 5.86923 4.15748 5.86935Z" fill="#4A73CF"/>
<path d="M9.85053 8.66906V9.27517H2.8694V8.66906C2.86326 8.35787 2.96698 8.05266 3.16629 7.79538C3.3656 7.53811 3.65071 7.34142 3.98242 7.23235C4.14355 7.18346 4.3128 7.1584 4.48327 7.1582H8.23647C8.65445 7.16913 9.05233 7.3183 9.35054 7.5759C9.64876 7.83349 9.82534 8.18052 9.84496 8.54759C9.84838 8.58703 9.85053 8.62836 9.85053 8.66906Z" fill="white"/>
<path d="M9.84306 8.54759H4.44241C4.26479 8.54256 4.0967 8.47582 3.975 8.36202C3.8533 8.24821 3.78795 8.09663 3.79327 7.94053C3.7924 7.69493 3.85643 7.4525 3.98033 7.23235C4.14147 7.18346 4.31072 7.1584 4.48119 7.1582H8.23457C8.65254 7.16913 9.05042 7.3183 9.34864 7.5759C9.64685 7.83349 9.82343 8.18052 9.84306 8.54759Z" fill="white"/>
<path d="M9.8476 9.41628H5.02231C4.98065 9.41628 4.9407 9.40173 4.91124 9.37585C4.88178 9.34996 4.86523 9.31485 4.86523 9.27824C4.86523 9.24163 4.88178 9.20652 4.91124 9.18063C4.9407 9.15474 4.98065 9.1402 5.02231 9.1402H9.68981V8.6715C9.6911 8.47788 9.64716 8.28608 9.5607 8.10799C9.47424 7.92989 9.3471 7.76929 9.18715 7.63613C9.15737 7.61104 9.14002 7.57666 9.13884 7.54042C9.13766 7.50418 9.15275 7.46898 9.18086 7.44244C9.20896 7.4159 9.24782 7.40014 9.28904 7.39857C9.33026 7.39699 9.37052 7.40974 9.40114 7.43404C9.5925 7.59313 9.74467 7.78504 9.84824 7.99789C9.95181 8.21074 10.0046 8.44001 10.0032 8.6715V9.27824C10.0032 9.31463 9.98689 9.34955 9.95775 9.3754C9.9286 9.40126 9.88901 9.41595 9.8476 9.41628Z" fill="#4A73CF"/>
<path d="M4.15196 9.41374H2.86606C2.8244 9.41374 2.78445 9.3992 2.75499 9.37331C2.72553 9.34742 2.70898 9.31231 2.70898 9.2757V8.66896C2.70898 7.76059 3.50336 7.02148 4.47994 7.02148H8.2335C8.36345 7.02149 8.49296 7.03467 8.61947 7.06077C8.64064 7.06391 8.66086 7.07083 8.67887 7.0811C8.69688 7.09138 8.7123 7.10479 8.72418 7.12051C8.73606 7.13623 8.74415 7.15392 8.74794 7.1725C8.75173 7.19107 8.75115 7.21013 8.74623 7.2285C8.74132 7.24687 8.73216 7.26415 8.71934 7.27929C8.70652 7.29443 8.69031 7.3071 8.6717 7.31651C8.65309 7.32593 8.63248 7.33189 8.61115 7.33403C8.58981 7.33617 8.5682 7.33444 8.54766 7.32896C8.44466 7.30788 8.33925 7.2973 8.2335 7.2974H4.47976C3.67641 7.2974 3.02296 7.91267 3.02296 8.6688V9.13751H4.15178C4.19344 9.13751 4.23339 9.15205 4.26285 9.17794C4.29231 9.20382 4.30886 9.23894 4.30886 9.27555C4.30886 9.31216 4.29231 9.34727 4.26285 9.37315C4.23339 9.39904 4.19344 9.41358 4.15178 9.41358L4.15196 9.41374Z" fill="#4A73CF"/>
<path d="M5.32812 6.58594C5.32812 7.41039 5.78913 7.65507 6.35785 7.65507C6.92656 7.65507 7.38739 7.41039 7.38739 6.58594H5.32812Z" fill="white"/>
<path d="M6.35867 7.79443C5.81725 7.79443 5.17188 7.58508 5.17188 6.58726C5.17188 6.55065 5.18842 6.51554 5.21788 6.48965C5.24734 6.46376 5.28729 6.44922 5.32895 6.44922H7.38822C7.42988 6.44922 7.46983 6.46376 7.49929 6.48965C7.52875 6.51554 7.54529 6.55065 7.54529 6.58726C7.54529 7.58508 6.89992 7.79443 6.35867 7.79443ZM5.49106 6.7253C5.54348 7.43285 6.00574 7.51835 6.35867 7.51835C6.71161 7.51835 7.17369 7.43285 7.22629 6.7253H5.49106Z" fill="#4A73CF"/>
<path d="M8.87917 4.4264C8.87917 5.79654 7.75054 6.90669 6.35765 6.90669C5.20568 6.90669 4.23502 6.14708 3.93415 5.10997C3.8682 4.88676 3.8352 4.65701 3.83595 4.4264C3.83595 3.05626 4.96459 2.19727 6.35765 2.19727C7.75072 2.19727 8.87917 3.05626 8.87917 4.4264Z" fill="white"/>
<path d="M8.87958 4.42642C8.87958 5.48829 8.20135 6.39399 7.24721 6.74753C7.11297 6.76978 6.97667 6.78103 6.84006 6.78113C5.44717 6.78113 4.31836 5.67098 4.31836 4.30084C4.31836 3.2885 4.93339 2.55524 5.8177 2.24256C5.99568 2.21186 6.17668 2.19669 6.35805 2.19728C7.7513 2.19728 8.87958 3.05628 8.87958 4.42642Z" fill="white"/>
<path d="M6.36006 7.04573C4.88316 7.04573 3.68164 5.87106 3.68164 4.42693C3.68164 3.05538 4.80812 2.06055 6.36006 2.06055C7.912 2.06055 9.03831 3.05585 9.03831 4.42693C9.03831 5.87106 7.83679 7.04573 6.36006 7.04573ZM6.36006 2.33631C4.96807 2.33631 3.9958 3.1961 3.9958 4.42709C3.9958 5.71882 5.0564 6.76965 6.36006 6.76965C7.66373 6.76965 8.72415 5.71882 8.72415 4.42709C8.72415 3.1961 7.75205 2.33631 6.36006 2.33631Z" fill="#4A73CF"/>
<path d="M6.34889 6.24716C5.69975 6.24716 5.48361 5.97503 5.46117 5.94411C5.43836 5.91346 5.43034 5.87611 5.43888 5.84026C5.44741 5.80442 5.4718 5.77302 5.50667 5.75298C5.54155 5.73294 5.58406 5.7259 5.62484 5.7334C5.66563 5.7409 5.70136 5.76233 5.72416 5.79298C5.7335 5.80433 5.88088 5.97108 6.34889 5.97108C6.85028 5.97108 7.00467 5.79329 7.00629 5.7914C7.03055 5.76223 7.06673 5.74246 7.10723 5.73622C7.14773 5.72999 7.1894 5.73777 7.2235 5.75795C7.25727 5.7779 7.28077 5.80871 7.28893 5.84374C7.29709 5.87877 7.28926 5.91521 7.26713 5.94521C7.24415 5.97598 7.02388 6.24716 6.34889 6.24716Z" fill="#4A73CF"/>
<path d="M8.99864 4.15642C8.98999 4.35495 8.94968 4.55143 8.8789 4.74012C8.8789 4.74012 6.08307 5.11701 5.39624 4.10467C5.39624 4.10467 4.82447 4.87154 3.87697 4.87154C3.87697 4.87154 3.1422 3.48831 4.18215 2.55248C5.15442 1.67755 5.59173 2.28965 5.59173 2.28965C5.67429 2.22445 5.76326 2.16579 5.8576 2.11438C6.28306 1.87333 7.16073 1.55055 8.05671 2.25021C8.37075 2.4823 8.61926 2.77524 8.7827 3.106C8.94614 3.43675 9.02006 3.79631 8.99864 4.15642Z" fill="white"/>
<path d="M9.0017 4.15642C8.94354 4.15784 8.88358 4.15941 8.8238 4.15941C7.13991 4.15941 5.77539 3.41874 5.77539 2.50436C5.77557 2.37072 5.80489 2.23834 5.86174 2.11438C6.2872 1.87333 7.16487 1.55055 8.06085 2.25021C8.37469 2.4824 8.623 2.77538 8.78625 3.10613C8.9495 3.43688 9.02325 3.79639 9.0017 4.15642Z" fill="white"/>
<path d="M3.87894 5.0101C3.84914 5.01017 3.81994 5.00279 3.79473 4.98883C3.76952 4.97486 3.74935 4.95488 3.73658 4.93122C3.70481 4.87111 2.9686 3.44986 4.07246 2.45677C4.48374 2.08682 4.86666 1.9155 5.21079 1.948C5.35817 1.96166 5.49713 2.01505 5.60861 2.10086C5.65349 2.07057 5.70986 2.03539 5.77628 1.99832C5.97465 1.88429 6.19219 1.79836 6.42093 1.7437C6.44102 1.7386 6.46207 1.73708 6.48284 1.73923C6.50361 1.74137 6.52368 1.74714 6.54188 1.75619C6.56008 1.76525 6.57604 1.7774 6.58882 1.79195C6.6016 1.80649 6.61095 1.82313 6.61632 1.8409C6.62168 1.85866 6.62296 1.87718 6.62007 1.89538C6.61718 1.91359 6.61019 1.9311 6.5995 1.94689C6.58881 1.96269 6.57463 1.97644 6.55781 1.98736C6.54099 1.99828 6.52186 2.00613 6.50153 2.01047C6.30461 2.05812 6.11725 2.13225 5.9461 2.23023C5.86 2.27726 5.77862 2.33068 5.70285 2.38988C5.68594 2.40384 5.66572 2.41435 5.64365 2.42064C5.62157 2.42693 5.59818 2.42886 5.57516 2.42628C5.55214 2.4237 5.53005 2.41669 5.51048 2.40573C5.49091 2.39477 5.47433 2.38015 5.46194 2.3629C5.42771 2.32274 5.38427 2.28935 5.33441 2.26489C5.28456 2.24043 5.22942 2.22545 5.17256 2.22092C4.93433 2.20278 4.63095 2.34902 4.29794 2.64876C3.48436 3.38076 3.85309 4.42986 3.98324 4.73023C4.77151 4.67738 5.26267 4.03609 5.2677 4.02915C5.28322 4.01039 5.30346 3.99503 5.32684 3.98427C5.35023 3.97352 5.37613 3.96766 5.40252 3.96715C5.42908 3.96766 5.45507 3.97408 5.47805 3.9858C5.50103 3.99753 5.52025 4.01418 5.53393 4.0342C6.09044 4.85455 8.2741 4.66808 8.76114 4.61538C8.8848 4.20996 8.87473 3.782 8.73211 3.38142C8.58949 2.98083 8.32019 2.62415 7.95564 2.35296C7.76932 2.20218 7.5484 2.08825 7.30775 2.01883C7.26795 2.00799 7.23468 1.9837 7.21525 1.95131C7.19582 1.91891 7.19184 1.88106 7.20417 1.84608C7.2165 1.8111 7.24414 1.78186 7.281 1.76479C7.31787 1.74772 7.36094 1.74422 7.40074 1.75506C7.68401 1.83603 7.94419 1.9695 8.1637 2.14646C8.49549 2.39207 8.7579 2.702 8.93029 3.05185C9.10268 3.40169 9.18033 3.78192 9.15716 4.16262C9.14784 4.37567 9.1042 4.58648 9.02754 4.78876C9.0177 4.81168 9.00112 4.83189 8.97948 4.84732C8.95785 4.86276 8.93193 4.87288 8.90439 4.87663C8.79202 4.89241 6.28144 5.21802 5.39516 4.33394C5.1616 4.57453 4.634 5.0101 3.87894 5.0101Z" fill="#4A73CF"/>
<path d="M8.167 3.38356C8.13508 3.38363 8.10389 3.37517 8.07757 3.35931C8.05125 3.34345 8.03104 3.32093 8.01961 3.29474C7.9769 3.19363 7.90919 3.1021 7.82137 3.02675C7.73355 2.9514 7.62781 2.89411 7.51175 2.85901C7.47159 2.84927 7.43748 2.8259 7.41693 2.79405C7.39638 2.7622 7.39106 2.72448 7.40216 2.68919C7.41325 2.65389 7.43984 2.62392 7.47608 2.60586C7.51233 2.5878 7.55525 2.58313 7.59541 2.59287C7.75895 2.6399 7.90838 2.71862 8.03266 2.82319C8.15695 2.92777 8.25292 3.05555 8.31348 3.19709C8.32078 3.21404 8.3242 3.23208 8.32356 3.25019C8.32291 3.2683 8.31821 3.28612 8.30973 3.30263C8.30124 3.31914 8.28913 3.33402 8.2741 3.34642C8.25907 3.35882 8.2414 3.36849 8.22211 3.37489C8.20452 3.38078 8.18582 3.38372 8.167 3.38356Z" fill="white"/>
<path d="M3.65431 6.24842L3.95249 5.88842C3.82305 5.68728 3.80887 5.66614 3.67854 5.46752L3.17248 5.51485C3.05812 5.45931 2.9768 5.41703 2.86532 5.35882L2.65744 4.95117H2.10631L1.90077 5.35866C1.78641 5.41688 1.70796 5.45916 1.59361 5.51469L1.08754 5.46736C0.95506 5.66598 0.943929 5.68712 0.810547 5.88826L1.1125 6.24842V6.56063L0.811265 6.92016C0.94375 7.1213 0.95488 7.14244 1.08826 7.34091L1.59433 7.29358C1.70868 7.34927 1.78713 7.39155 1.90148 7.44976L2.10631 7.85757H2.65744L2.86532 7.44992C2.9768 7.3917 3.05812 7.34942 3.17248 7.29374L3.67854 7.34106C3.76579 7.20618 3.80187 7.15317 3.85608 7.07114C3.88032 7.03138 3.90994 6.98642 3.95249 6.92032L3.65431 6.56031V6.24842ZM2.38331 7.04243C2.19269 7.04057 2.01055 6.97289 1.87623 6.85402C1.74191 6.73515 1.66618 6.57461 1.66541 6.40709C1.66463 6.23957 1.73886 6.0785 1.87208 5.95867C2.00529 5.83883 2.18679 5.76986 2.37739 5.76663H2.38331C2.57579 5.76671 2.76036 5.83393 2.89648 5.95352C3.03261 6.07312 3.10914 6.2353 3.10929 6.40445C3.10802 6.57331 3.03112 6.73493 2.89525 6.85433C2.75938 6.97374 2.57546 7.04131 2.38331 7.04243Z" fill="white"/>
<path d="M3.65059 6.56031L3.94878 6.92032C3.90659 6.98642 3.87697 7.03075 3.85237 7.07114C3.53922 7.02633 3.24514 6.90947 3.00002 6.73243C3.06884 6.63359 3.10536 6.52001 3.10558 6.40413C3.10543 6.23498 3.02889 6.0728 2.89277 5.95321C2.75665 5.83362 2.57208 5.7664 2.3796 5.76631H2.37368C2.32185 5.49214 2.35407 5.21078 2.46703 4.95117H2.65373L2.86161 5.35882C2.97309 5.41703 3.05441 5.45931 3.16877 5.51484L3.67483 5.46752C3.80426 5.66614 3.81844 5.68728 3.94878 5.88842L3.65059 6.24858V6.56031Z" fill="white"/>
<path d="M2.65562 7.99529H2.1045C2.07408 7.99528 2.04431 7.98751 2.01881 7.97292C1.99332 7.95833 1.97319 7.93755 1.96089 7.9131L1.77652 7.54615L1.71512 7.5146C1.6636 7.48794 1.61531 7.46301 1.55966 7.43572L1.10332 7.47879C1.07323 7.48154 1.04287 7.47664 1.01585 7.46467C0.98883 7.4527 0.966291 7.43416 0.950913 7.41126C0.869411 7.289 0.833328 7.23363 0.786832 7.16248L0.673556 6.99005C0.658209 6.96682 0.650917 6.94016 0.652575 6.91334C0.654233 6.88652 0.66477 6.8607 0.682891 6.83907L0.953605 6.51567V6.2948L0.682891 5.96982C0.66477 5.94819 0.654233 5.92238 0.652575 5.89556C0.650917 5.86874 0.658209 5.84207 0.673556 5.81885L0.788089 5.64421C0.834046 5.574 0.870129 5.518 0.950913 5.39747C0.966478 5.37473 0.989056 5.35634 1.01603 5.34442C1.04301 5.33249 1.07327 5.32753 1.10332 5.33011L1.55966 5.37302C1.61459 5.34573 1.66217 5.32096 1.71315 5.29414L1.77652 5.26148L1.96089 4.89485C1.97315 4.87036 1.99326 4.84953 2.01876 4.83491C2.04426 4.82029 2.07405 4.8125 2.1045 4.8125H2.65562C2.686 4.81243 2.71574 4.82011 2.74124 4.83462C2.76674 4.84913 2.78689 4.86983 2.79924 4.89422L2.98684 5.2618C3.06241 5.30124 3.12668 5.33437 3.20387 5.37223L3.66021 5.32932C3.69055 5.32641 3.72119 5.33134 3.74839 5.3435C3.77559 5.35566 3.79816 5.37452 3.81334 5.39779L3.91297 5.55018C3.96557 5.63048 4.00112 5.68475 4.08783 5.81932C4.10267 5.84237 4.10963 5.8687 4.10788 5.89514C4.10613 5.92158 4.09574 5.94702 4.07795 5.9684L3.80993 6.29212V6.51456L4.07795 6.83828C4.09561 6.85959 4.10595 6.88489 4.10776 6.9112C4.10958 6.9375 4.10278 6.96371 4.08819 6.98674L4.04079 7.06041C4.02284 7.08928 4.00668 7.11326 3.99322 7.1355L3.94547 7.20744C3.91082 7.25982 3.87492 7.31377 3.81352 7.40843C3.79823 7.43168 3.77564 7.45058 3.74845 7.46286C3.72127 7.47514 3.69063 7.48029 3.66021 7.47768L3.20387 7.43461C3.1265 7.47263 3.06241 7.50561 2.98684 7.54505L2.79924 7.91278C2.78704 7.93733 2.76695 7.95821 2.74144 7.97287C2.71593 7.98752 2.6861 7.99532 2.65562 7.99529ZM2.20683 7.71921H2.55366L2.71989 7.39328C2.73314 7.36733 2.75513 7.34557 2.7829 7.33097C2.896 7.27181 2.97858 7.22905 3.09473 7.17321C3.12308 7.16 3.15526 7.1545 3.18718 7.15743L3.59092 7.19545C3.62449 7.14418 3.64944 7.10663 3.67368 7.06924L3.7182 7.0022C3.72969 6.98326 3.7453 6.95897 3.76397 6.92994L3.52539 6.64187C3.50577 6.6183 3.4952 6.58984 3.49523 6.56063V6.24858C3.49527 6.21938 3.50582 6.19094 3.52539 6.16734L3.76397 5.87927C3.71138 5.79802 3.68086 5.75148 3.64011 5.68996L3.59128 5.61518L3.18718 5.65336C3.1551 5.6563 3.12277 5.65052 3.09455 5.63679C2.9784 5.58047 2.896 5.5374 2.7829 5.47903C2.75514 5.46449 2.73314 5.44279 2.71989 5.41688L2.55366 5.09095H2.20683L2.04257 5.41451C2.02914 5.44106 2.00644 5.46316 1.97776 5.47761L1.87184 5.5322C1.80578 5.56643 1.74475 5.59782 1.66791 5.63521C1.63964 5.64898 1.60724 5.65476 1.5751 5.65178L1.17011 5.6136C1.12325 5.68428 1.09435 5.72845 1.05988 5.78114L0.995972 5.87848L1.23653 6.16576C1.25631 6.18952 1.267 6.21819 1.26705 6.24763V6.55984C1.26704 6.58929 1.25635 6.61797 1.23653 6.64172L0.995972 6.929L1.05844 7.02365C1.09435 7.07729 1.12253 7.12178 1.17011 7.19324L1.5751 7.15522C1.60709 7.1519 1.63947 7.15741 1.66773 7.171C1.74546 7.2087 1.80686 7.24057 1.87364 7.27512L1.97776 7.3286C2.00639 7.34311 2.02907 7.3652 2.04257 7.3917L2.20683 7.71921ZM2.3815 7.17999C2.24271 7.17999 2.10588 7.15123 1.98211 7.09605C1.85834 7.04088 1.75111 6.96083 1.66913 6.86242C1.58715 6.76401 1.53273 6.65 1.51028 6.52964C1.48782 6.40928 1.49798 6.28597 1.53991 6.1697C1.54596 6.15223 1.55589 6.13598 1.56914 6.1219C1.58238 6.10782 1.59868 6.0962 1.61707 6.08769C1.63547 6.07919 1.6556 6.07398 1.67631 6.07236C1.69701 6.07075 1.71787 6.07276 1.73768 6.07828C1.7575 6.0838 1.77587 6.09272 1.79173 6.10453C1.80759 6.11634 1.82062 6.13079 1.83008 6.14706C1.83954 6.16332 1.84523 6.18108 1.84682 6.19929C1.84841 6.2175 1.84587 6.23581 1.83935 6.25316C1.81234 6.32806 1.80581 6.40751 1.82029 6.48505C1.83476 6.56259 1.86984 6.63604 1.92267 6.69943C1.9755 6.76282 2.0446 6.81438 2.12435 6.84991C2.2041 6.88543 2.29226 6.90394 2.38168 6.90391C2.53215 6.90288 2.67612 6.84989 2.78252 6.75639C2.88893 6.66289 2.94922 6.53636 2.95039 6.40413C2.95042 6.32007 2.92632 6.23737 2.88031 6.16367C2.8343 6.08997 2.76788 6.02767 2.68719 5.98253C2.6065 5.93738 2.51415 5.91086 2.4187 5.90541C2.32325 5.89997 2.22778 5.91577 2.14112 5.95136C2.12245 5.95908 2.10223 5.96349 2.08162 5.96434C2.06101 5.96519 2.04041 5.96247 2.021 5.95632C2.00159 5.95018 1.98374 5.94073 1.96849 5.92852C1.95323 5.91632 1.94085 5.90159 1.93207 5.88518C1.92329 5.86877 1.91827 5.85101 1.91731 5.8329C1.91634 5.81478 1.91944 5.79668 1.92643 5.77962C1.93342 5.76256 1.94417 5.74688 1.95806 5.73347C1.97195 5.72006 1.98871 5.70919 2.00738 5.70147C2.12219 5.65393 2.24741 5.62895 2.37432 5.62827C2.49078 5.62771 2.60623 5.64735 2.71405 5.68606C2.82187 5.72477 2.91993 5.7818 3.00263 5.85387C3.08532 5.92594 3.15103 6.01165 3.19597 6.10607C3.24092 6.20049 3.26422 6.30178 3.26455 6.40413C3.26314 6.60946 3.16964 6.80602 3.00436 6.95115C2.83907 7.09628 2.61533 7.17828 2.38168 7.17936L2.3815 7.17999Z" fill="#4A73CF"/>
<path d="M3.10443 3.38741H2.577C2.53534 3.38741 2.49539 3.37286 2.46593 3.34698C2.43647 3.32109 2.41992 3.28598 2.41992 3.24937C2.41992 3.21276 2.43647 3.17765 2.46593 3.15176C2.49539 3.12587 2.53534 3.11133 2.577 3.11133H3.10443C3.14609 3.11133 3.18604 3.12587 3.2155 3.15176C3.24496 3.17765 3.26151 3.21276 3.26151 3.24937C3.26151 3.28598 3.24496 3.32109 3.2155 3.34698C3.18604 3.37286 3.14609 3.38741 3.10443 3.38741Z" fill="white"/>
</svg>
