<svg width="7" height="7" viewBox="0 0 7 7" fill="none" xmlns="http://www.w3.org/2000/svg">
<path d="M6.88964 0.302026V5.95085C6.88633 6.00758 6.85809 6.06084 6.81107 6.09907C6.76405 6.1373 6.70204 6.15741 6.63852 6.15503H0.360496C0.296977 6.15741 0.234971 6.1373 0.18795 6.09907C0.14093 6.06084 0.112693 6.00758 0.109375 5.95085V0.302026C0.112693 0.2453 0.14093 0.192035 0.18795 0.153803C0.234971 0.115572 0.296977 0.0954636 0.360496 0.0978462H6.63852C6.70204 0.0954636 6.76405 0.115572 6.81107 0.153803C6.85809 0.192035 6.88633 0.2453 6.88964 0.302026Z" fill="white"/>
<path d="M6.88992 0.302026V5.82329H0.737449C0.669464 5.81674 0.606477 5.78828 0.560262 5.74325C0.514046 5.69822 0.487764 5.6397 0.486328 5.57861V0.0978462H6.63879C6.70231 0.0954636 6.76432 0.115572 6.81134 0.153803C6.85836 0.192035 6.8866 0.2453 6.88992 0.302026Z" fill="white"/>
<path d="M6.88964 0.302026V1.01654H0.109375V0.302026C0.112693 0.2453 0.14093 0.192035 0.18795 0.153803C0.234971 0.115572 0.296977 0.0954636 0.360496 0.0978462H6.63852C6.70204 0.0954636 6.76405 0.115572 6.81107 0.153803C6.85809 0.192035 6.88633 0.2453 6.88964 0.302026Z" fill="white"/>
<path d="M6.88922 0.302026V0.710273H0.484375V0.0978462H6.6381C6.70162 0.0954636 6.76362 0.115572 6.81064 0.153803C6.85766 0.192035 6.8859 0.2453 6.88922 0.302026Z" fill="white"/>
<path d="M0.109866 4.7554C0.0954332 4.75542 0.0811392 4.75289 0.0678023 4.74796C0.0544653 4.74303 0.0423473 4.7358 0.0321421 4.72668C0.0219368 4.71757 0.0138448 4.70674 0.0083294 4.69482C0.00281399 4.68291 -1.64506e-05 4.67013 7.19208e-08 4.65724V0.302487C0.00317924 0.219679 0.042951 0.141369 0.110608 0.0847036C0.178265 0.0280376 0.268295 -0.00236774 0.360987 0.000144129H6.63901C6.7318 -0.00233574 6.8219 0.0281562 6.88957 0.084936C6.95724 0.141716 6.99695 0.220151 7 0.303048V2.59356C7 2.6196 6.98842 2.64457 6.96782 2.66298C6.94722 2.68139 6.91927 2.69173 6.89013 2.69173C6.861 2.69173 6.83305 2.68139 6.81245 2.66298C6.79184 2.64457 6.78027 2.6196 6.78027 2.59356V0.302487C6.77659 0.271945 6.75983 0.243857 6.7335 0.224099C6.70718 0.20434 6.67332 0.194441 6.63901 0.196471H0.360987C0.32668 0.194441 0.292824 0.20434 0.266498 0.224099C0.240172 0.243857 0.223415 0.271945 0.219731 0.302487V4.65724C0.219731 4.68327 0.208156 4.70824 0.187552 4.72665C0.166948 4.74506 0.139004 4.7554 0.109866 4.7554Z" fill="#4A73CF"/>
<path d="M6.63901 6.25414H0.360987C0.268295 6.25665 0.178265 6.22625 0.110608 6.16958C0.0429509 6.11292 0.00317917 6.03461 0 5.9518V5.17928C0 5.15325 0.0115751 5.12828 0.0321788 5.10987C0.0527826 5.09146 0.0807273 5.08112 0.109865 5.08112C0.139004 5.08112 0.166948 5.09146 0.187552 5.10987C0.208156 5.12828 0.219731 5.15325 0.219731 5.17928V5.9518C0.223385 5.98235 0.240134 6.01046 0.266467 6.03022C0.2928 6.04998 0.326673 6.05987 0.360987 6.05782H6.63901C6.67333 6.05987 6.7072 6.04998 6.73353 6.03022C6.75987 6.01046 6.77662 5.98235 6.78027 5.9518V3.07668C6.78027 3.05064 6.79184 3.02568 6.81245 3.00727C6.83305 2.98886 6.861 2.97852 6.89013 2.97852C6.91927 2.97852 6.94722 2.98886 6.96782 3.00727C6.98842 3.02568 7 3.05064 7 3.07668V5.9518C6.99679 6.0346 6.95701 6.11289 6.88936 6.16955C6.82171 6.22621 6.7317 6.25662 6.63901 6.25414Z" fill="#4A73CF"/>
<path d="M2.31408 1.1143H0.109865C0.0807273 1.1143 0.0527826 1.10395 0.0321788 1.08554C0.0115751 1.06713 0 1.04217 0 1.01613C0 0.990098 0.0115751 0.965129 0.0321788 0.94672C0.0527826 0.928311 0.0807273 0.917969 0.109865 0.917969H2.31408C2.34322 0.917969 2.37116 0.928311 2.39177 0.94672C2.41237 0.965129 2.42395 0.990098 2.42395 1.01613C2.42395 1.04217 2.41237 1.06713 2.39177 1.08554C2.37116 1.10395 2.34322 1.1143 2.31408 1.1143Z" fill="#4A73CF"/>
<path d="M6.88981 1.1143H2.90088C2.87174 1.1143 2.8438 1.10395 2.82319 1.08554C2.80259 1.06713 2.79102 1.04217 2.79102 1.01613C2.79102 0.990098 2.80259 0.965129 2.82319 0.94672C2.8438 0.928311 2.87174 0.917969 2.90088 0.917969H6.88981C6.91895 0.917969 6.9469 0.928311 6.9675 0.94672C6.9881 0.965129 6.99968 0.990098 6.99968 1.01613C6.99968 1.04217 6.9881 1.06713 6.9675 1.08554C6.9469 1.10395 6.91895 1.1143 6.88981 1.1143Z" fill="#4A73CF"/>
<path d="M6.30665 3.14164H4.03174C4.0026 3.14164 3.97466 3.1313 3.95405 3.11289C3.93345 3.09448 3.92188 3.06951 3.92188 3.04348C3.92188 3.01744 3.93345 2.99247 3.95405 2.97406C3.97466 2.95565 4.0026 2.94531 4.03174 2.94531H6.30665C6.33578 2.94531 6.36373 2.95565 6.38433 2.97406C6.40494 2.99247 6.41651 3.01744 6.41651 3.04348C6.41651 3.06951 6.40494 3.09448 6.38433 3.11289C6.36373 3.1313 6.33578 3.14164 6.30665 3.14164Z" fill="#4A73CF"/>
<path d="M2.26643 3.30766H0.691897C0.662759 3.30766 0.634814 3.29731 0.61421 3.2789C0.593606 3.26049 0.582031 3.23553 0.582031 3.20949C0.582031 3.18346 0.593606 3.15849 0.61421 3.14008C0.634814 3.12167 0.662759 3.11133 0.691897 3.11133H2.26643C2.29556 3.11133 2.32351 3.12167 2.34411 3.14008C2.36472 3.15849 2.37629 3.18346 2.37629 3.20949C2.37629 3.23553 2.36472 3.26049 2.34411 3.2789C2.32351 3.29731 2.29556 3.30766 2.26643 3.30766Z" fill="#4A73CF"/>
<path d="M1.92434 3.89359H0.69385C0.664712 3.89359 0.636767 3.88325 0.616163 3.86484C0.595559 3.84643 0.583984 3.82146 0.583984 3.79543C0.583984 3.76939 0.595559 3.74443 0.616163 3.72602C0.636767 3.70761 0.664712 3.69727 0.69385 3.69727H1.92434C1.95348 3.69727 1.98143 3.70761 2.00203 3.72602C2.02263 3.74443 2.03421 3.76939 2.03421 3.79543C2.03421 3.82146 2.02263 3.84643 2.00203 3.86484C1.98143 3.88325 1.95348 3.89359 1.92434 3.89359Z" fill="#4A73CF"/>
<path d="M6.30665 5.67875H4.03174C4.0026 5.67875 3.97466 5.66841 3.95405 5.65C3.93345 5.63159 3.92188 5.60662 3.92188 5.58059C3.92188 5.55455 3.93345 5.52958 3.95405 5.51117C3.97466 5.49276 4.0026 5.48242 4.03174 5.48242H6.30665C6.33578 5.48242 6.36373 5.49276 6.38433 5.51117C6.40494 5.52958 6.41651 5.55455 6.41651 5.58059C6.41651 5.60662 6.40494 5.63159 6.38433 5.65C6.36373 5.66841 6.33578 5.67875 6.30665 5.67875Z" fill="#4A73CF"/>
<path d="M3.49854 3.4084C3.48411 3.40842 3.46981 3.40589 3.45647 3.40096C3.44314 3.39603 3.43102 3.3888 3.42081 3.37968C3.41061 3.37056 3.40252 3.35974 3.397 3.34782C3.39149 3.3359 3.38866 3.32313 3.38867 3.31024V1.01613C3.38867 0.990098 3.40025 0.965129 3.42085 0.94672C3.44145 0.928311 3.4694 0.917969 3.49854 0.917969C3.52768 0.917969 3.55562 0.928311 3.57622 0.94672C3.59683 0.965129 3.6084 0.990098 3.6084 1.01613V3.31024C3.6084 3.33627 3.59683 3.36124 3.57622 3.37965C3.55562 3.39806 3.52768 3.4084 3.49854 3.4084Z" fill="#4A73CF"/>
<path d="M3.49854 6.25579C3.4694 6.25579 3.44145 6.24545 3.42085 6.22704C3.40025 6.20863 3.38867 6.18366 3.38867 6.15763V3.78566C3.38867 3.75963 3.40025 3.73466 3.42085 3.71625C3.44145 3.69784 3.4694 3.6875 3.49854 3.6875C3.52768 3.6875 3.55562 3.69784 3.57622 3.71625C3.59683 3.73466 3.6084 3.75963 3.6084 3.78566V6.15763C3.6084 6.18366 3.59683 6.20863 3.57622 6.22704C3.55562 6.24545 3.52768 6.25579 3.49854 6.25579Z" fill="#4A73CF"/>
<path d="M2.9191 1.45508H0.691406V2.62833H2.9191V1.45508Z" fill="white"/>
<path d="M0.691406 2.62897L1.66513 1.83984L2.16034 2.29431L2.55962 2.08127L2.9191 2.2344V2.62897H0.691406Z" fill="white"/>
<path d="M2.91959 2.72711H0.691897C0.662759 2.72711 0.634814 2.71677 0.61421 2.69836C0.593606 2.67995 0.582031 2.65498 0.582031 2.62895V1.45559C0.582031 1.42955 0.593606 1.40458 0.61421 1.38617C0.634814 1.36776 0.662759 1.35742 0.691897 1.35742H2.91959C2.94873 1.35742 2.97667 1.36776 2.99728 1.38617C3.01788 1.40458 3.02946 1.42955 3.02946 1.45559V2.62895C3.02946 2.65498 3.01788 2.67995 2.99728 2.69836C2.97667 2.71677 2.94873 2.72711 2.91959 2.72711ZM0.801762 2.53078H2.80973V1.55375H0.801762V2.53078Z" fill="#4A73CF"/>
<path d="M0.691624 2.72745C0.669495 2.7274 0.647899 2.72138 0.629663 2.71018C0.611427 2.69898 0.597401 2.68312 0.589422 2.66468C0.581443 2.64624 0.579883 2.62607 0.584945 2.60683C0.590007 2.58758 0.601457 2.57015 0.617794 2.55681L1.59152 1.76769C1.61259 1.75059 1.64027 1.74146 1.66873 1.74223C1.69719 1.74301 1.7242 1.75362 1.74407 1.77184L2.17864 2.17089L2.50296 1.99734C2.51854 1.98912 2.53613 1.98442 2.55421 1.98366C2.57228 1.9829 2.59029 1.98609 2.60667 1.99296L2.96603 2.1461C2.97905 2.15164 2.99073 2.15943 3.00039 2.16901C3.01005 2.17859 3.0175 2.18977 3.02232 2.20192C3.02714 2.21407 3.02924 2.22696 3.02849 2.23983C3.02774 2.25271 3.02415 2.26532 3.01795 2.27696C3.01174 2.2886 3.00303 2.29903 2.99231 2.30766C2.98158 2.31629 2.96907 2.32295 2.95547 2.32726C2.94187 2.33157 2.92745 2.33344 2.91304 2.33277C2.89863 2.3321 2.88451 2.3289 2.87148 2.32335L2.56574 2.19277L2.21681 2.379C2.19559 2.39028 2.17073 2.39486 2.14625 2.39199C2.12177 2.38912 2.09908 2.37897 2.08183 2.36318L1.66057 1.97658L0.765453 2.70198C0.745252 2.71839 0.718924 2.72747 0.691624 2.72745Z" fill="#4A73CF"/>
<path d="M2.91797 5.58064V4.00195H2.49835V5.58064H2.91797Z" fill="white"/>
<path d="M2.91797 5.58064V4.00195H2.70816V5.58064H2.91797Z" fill="white"/>
<path d="M2.91816 5.67931H2.49854C2.48411 5.67933 2.46981 5.6768 2.45647 5.67187C2.44314 5.66694 2.43102 5.65971 2.42081 5.6506C2.41061 5.64148 2.40252 5.63065 2.397 5.61873C2.39149 5.60682 2.38866 5.59405 2.38867 5.58115V4.00246C2.38867 3.97643 2.40025 3.95146 2.42085 3.93305C2.44145 3.91464 2.4694 3.9043 2.49854 3.9043H2.91816C2.9473 3.9043 2.97524 3.91464 2.99585 3.93305C3.01645 3.95146 3.02803 3.97643 3.02803 4.00246V5.58115C3.02803 5.60719 3.01645 5.63215 2.99585 5.65056C2.97524 5.66897 2.9473 5.67931 2.91816 5.67931ZM2.6084 5.48299H2.8083V4.10062H2.6084V5.48299Z" fill="#4A73CF"/>
<path d="M1.10938 5.57902V4.75781H0.689752V5.57902H1.10938Z" fill="white"/>
<path d="M1.10938 5.57902V4.75781H0.899563V5.57902H1.10938Z" fill="white"/>
<path d="M1.10957 5.67769H0.689944C0.675511 5.6777 0.661217 5.67518 0.64788 5.67025C0.634543 5.66532 0.622425 5.65809 0.61222 5.64897C0.602015 5.63985 0.593923 5.62903 0.588407 5.61711C0.582892 5.60519 0.580062 5.59242 0.580078 5.57953V4.75832C0.580078 4.73229 0.591653 4.70732 0.612257 4.68891C0.632861 4.6705 0.660806 4.66016 0.689944 4.66016H1.10957C1.13871 4.66016 1.16665 4.6705 1.18725 4.68891C1.20786 4.70732 1.21943 4.73229 1.21943 4.75832V5.57953C1.21943 5.60556 1.20786 5.63053 1.18725 5.64894C1.16665 5.66735 1.13871 5.67769 1.10957 5.67769ZM0.799809 5.48136H0.999702V4.85648H0.799809V5.48136Z" fill="#4A73CF"/>
<path d="M2.01367 5.58081V4.4668H1.59405V5.58081H2.01367Z" fill="white"/>
<path d="M2.01367 5.58081V4.4668H1.80386V5.58081H2.01367Z" fill="white"/>
<path d="M2.01386 5.67937H1.59424C1.5651 5.67937 1.53716 5.66903 1.51655 5.65062C1.49595 5.63221 1.48437 5.60724 1.48438 5.58121V4.4673C1.48438 4.44127 1.49595 4.4163 1.51655 4.39789C1.53716 4.37948 1.5651 4.36914 1.59424 4.36914H2.01386C2.043 4.36914 2.07095 4.37948 2.09155 4.39789C2.11215 4.4163 2.12373 4.44127 2.12373 4.4673V5.58121C2.12373 5.60724 2.11215 5.63221 2.09155 5.65062C2.07095 5.66903 2.043 5.67937 2.01386 5.67937ZM1.70411 5.48304H1.904V4.56547H1.70411V5.48304Z" fill="#4A73CF"/>
<path d="M5.35897 0.641736C5.35887 0.698611 5.33991 0.754184 5.30448 0.801437C5.26906 0.84869 5.21875 0.885503 5.15992 0.907227C5.10109 0.928951 5.03638 0.934612 4.97395 0.923495C4.91152 0.912377 4.85418 0.88498 4.80917 0.844763C4.76416 0.804546 4.7335 0.753314 4.72106 0.697536C4.70861 0.641758 4.71495 0.583937 4.73926 0.531374C4.76358 0.478811 4.80478 0.433865 4.85766 0.402212C4.91055 0.370558 4.97275 0.353617 5.0364 0.353528C5.07888 0.353169 5.121 0.360378 5.16032 0.374735C5.19964 0.389091 5.23536 0.410307 5.26539 0.437141C5.29542 0.463976 5.31917 0.49589 5.33524 0.53102C5.3513 0.566149 5.35937 0.603788 5.35897 0.641736Z" fill="white"/>
<path d="M5.35978 0.641611C5.35983 0.692132 5.34489 0.741762 5.31646 0.785434C5.27761 0.800152 5.23586 0.807781 5.19366 0.807872C5.1513 0.807886 5.10935 0.800442 5.0702 0.785963C5.03106 0.771485 4.99549 0.750256 4.96554 0.723491C4.93558 0.696725 4.91182 0.664947 4.89562 0.629974C4.87941 0.595 4.87108 0.557516 4.8711 0.519664C4.87084 0.46917 4.88576 0.41954 4.91429 0.375953C4.95319 0.36125 4.99498 0.353622 5.03721 0.353516C5.12273 0.353545 5.20474 0.383904 5.26522 0.437923C5.3257 0.491942 5.35971 0.565202 5.35978 0.641611Z" fill="white"/>
<path d="M5.03832 1.02871C4.93814 1.02883 4.84103 0.997851 4.76358 0.941079C4.68613 0.884307 4.63315 0.805264 4.6137 0.71746C4.59425 0.629656 4.60953 0.538541 4.65693 0.459687C4.70433 0.380834 4.78091 0.319137 4.87358 0.285141C4.92572 0.265682 4.98169 0.255727 5.03819 0.255861C5.15288 0.255861 5.26287 0.296568 5.34397 0.369026C5.42506 0.441485 5.47062 0.53976 5.47062 0.642232C5.47062 0.744704 5.42506 0.842979 5.34397 0.915437C5.26287 0.987896 5.15288 1.0286 5.03819 1.0286L5.03832 1.02871ZM5.03832 0.4523C5.01074 0.45221 4.98341 0.457055 4.95796 0.466547C4.92659 0.477942 4.89872 0.495869 4.87667 0.518835C4.85462 0.5418 4.83903 0.56914 4.8312 0.598577C4.82337 0.628014 4.82353 0.658697 4.83165 0.68807C4.83978 0.717443 4.85564 0.744656 4.87792 0.767444C4.9002 0.790232 4.92825 0.807934 4.95973 0.819077C4.99121 0.830221 5.02522 0.834482 5.05892 0.831506C5.09262 0.828531 5.12504 0.818405 5.15347 0.801971C5.18191 0.785538 5.20553 0.763272 5.22239 0.737029C5.24119 0.708229 5.25103 0.675461 5.25089 0.64212C5.25066 0.59181 5.22819 0.54362 5.18837 0.508046C5.14856 0.472471 5.09462 0.452506 5.03832 0.4523Z" fill="#4A73CF"/>
<path d="M6.44686 0.641728C6.44676 0.698603 6.4278 0.754176 6.39237 0.801429C6.35695 0.848682 6.30664 0.885495 6.24781 0.907219C6.18898 0.928944 6.12427 0.934604 6.06184 0.923487C5.99942 0.912369 5.94208 0.884972 5.89706 0.844755C5.85205 0.804539 5.82139 0.753306 5.80895 0.697528C5.7965 0.64175 5.80284 0.583929 5.82715 0.531366C5.85147 0.478803 5.89267 0.433857 5.94556 0.402204C5.99844 0.37055 6.06064 0.353609 6.12429 0.353521C6.16672 0.353297 6.20878 0.3606 6.24803 0.375004C6.28728 0.389409 6.32294 0.41063 6.35294 0.437437C6.38294 0.464244 6.40669 0.496105 6.42282 0.531172C6.43894 0.56624 6.44711 0.603818 6.44686 0.641728Z" fill="white"/>
<path d="M6.44767 0.641611C6.44771 0.692115 6.43281 0.741732 6.40448 0.785434C6.36558 0.800141 6.32379 0.807768 6.28155 0.807872C6.23919 0.807886 6.19724 0.800442 6.15809 0.785963C6.11895 0.771485 6.08338 0.750256 6.05343 0.723491C6.02347 0.696725 5.99971 0.664947 5.98351 0.629974C5.9673 0.595 5.95897 0.557516 5.95899 0.519664C5.95873 0.46917 5.97365 0.41954 6.00218 0.375953C6.04108 0.36125 6.08287 0.353622 6.1251 0.353516C6.21062 0.353545 6.29263 0.383904 6.35311 0.437923C6.41359 0.491942 6.4476 0.565202 6.44767 0.641611Z" fill="white"/>
<path d="M6.12621 1.02871C6.02603 1.02883 5.92892 0.99785 5.85147 0.941078C5.77402 0.884306 5.72104 0.805264 5.70159 0.71746C5.68214 0.629655 5.69742 0.53854 5.74482 0.459687C5.79222 0.380833 5.8688 0.319137 5.96147 0.285141C6.01367 0.265713 6.06967 0.255759 6.12621 0.25586C6.2409 0.25586 6.35089 0.296567 6.43198 0.369026C6.51308 0.441484 6.55864 0.539759 6.55864 0.642231C6.55864 0.744703 6.51308 0.842978 6.43198 0.915437C6.35089 0.987895 6.2409 1.0286 6.12621 1.0286V1.02871ZM6.12621 0.452299C6.09858 0.452227 6.07121 0.45711 6.04572 0.466659C5.99701 0.484638 5.95752 0.518174 5.93496 0.560736C5.9124 0.603299 5.90837 0.65184 5.92367 0.696909C5.93896 0.741977 5.97248 0.780347 6.0177 0.804546C6.06292 0.828745 6.1166 0.837041 6.16829 0.827819C6.21998 0.818597 6.26597 0.792516 6.29732 0.754656C6.32867 0.716796 6.34313 0.669867 6.33788 0.623006C6.33263 0.576145 6.30804 0.532708 6.26892 0.501153C6.22979 0.469597 6.17892 0.452182 6.12621 0.452299Z" fill="#4A73CF"/>
<path d="M4.27498 0.641736C4.27489 0.698611 4.25592 0.754184 4.2205 0.801437C4.18507 0.84869 4.13477 0.885503 4.07594 0.907227C4.01711 0.928951 3.95239 0.934612 3.88997 0.923495C3.82754 0.912377 3.7702 0.88498 3.72519 0.844763C3.68018 0.804546 3.64952 0.753314 3.63707 0.697536C3.62463 0.641758 3.63097 0.583937 3.65528 0.531374C3.67959 0.478811 3.72079 0.433865 3.77368 0.402212C3.82657 0.370558 3.88876 0.353617 3.95242 0.353528C3.99489 0.353169 4.03702 0.360378 4.07633 0.374735C4.11565 0.389091 4.15137 0.410307 4.1814 0.437141C4.21144 0.463976 4.23518 0.49589 4.25125 0.53102C4.26732 0.566149 4.27539 0.603788 4.27498 0.641736Z" fill="white"/>
<path d="M4.27579 0.641611C4.27585 0.692132 4.2609 0.741762 4.23248 0.785434C4.19362 0.80014 4.15187 0.807769 4.10968 0.807872C4.06731 0.807886 4.02536 0.800442 3.98622 0.785963C3.94708 0.771485 3.91151 0.750256 3.88155 0.723491C3.8516 0.696725 3.82784 0.664947 3.81163 0.629974C3.79543 0.595 3.7871 0.557516 3.78711 0.519664C3.78686 0.46917 3.80177 0.41954 3.83031 0.375953C3.8692 0.36125 3.91099 0.353622 3.95323 0.353516C4.03875 0.353545 4.12075 0.383904 4.18124 0.437923C4.24172 0.491942 4.27573 0.565202 4.27579 0.641611Z" fill="white"/>
<path d="M3.95195 1.0286C3.85184 1.02863 3.75482 0.997603 3.67745 0.940829C3.60009 0.884056 3.54718 0.805052 3.52775 0.717303C3.50832 0.629555 3.52358 0.538501 3.57092 0.459685C3.61827 0.38087 3.69476 0.319178 3.78734 0.285141C3.83948 0.265693 3.89544 0.255738 3.95195 0.25586C4.06664 0.25586 4.17663 0.296567 4.25772 0.369026C4.33882 0.441485 4.38438 0.539759 4.38438 0.642231C4.38438 0.744703 4.33882 0.842978 4.25772 0.915437C4.17663 0.987896 4.06664 1.0286 3.95195 1.0286ZM3.95195 0.452187C3.92431 0.452103 3.89694 0.456987 3.87146 0.466547C3.84008 0.477933 3.81219 0.495857 3.79012 0.518825C3.76806 0.541792 3.75246 0.569139 3.74462 0.598586C3.73678 0.628033 3.73694 0.658727 3.74507 0.68811C3.7532 0.717494 3.76907 0.744715 3.79136 0.767507C3.81365 0.790299 3.84172 0.808001 3.87322 0.819138C3.90472 0.830274 3.93874 0.834523 3.97245 0.83153C4.00616 0.828537 4.03858 0.818389 4.06701 0.801931C4.09544 0.785473 4.11906 0.763183 4.13589 0.736917C4.15484 0.70816 4.16477 0.675376 4.16465 0.642007C4.16442 0.591678 4.14193 0.543471 4.10209 0.507894C4.06224 0.472316 4.00828 0.452364 3.95195 0.452187Z" fill="#4A73CF"/>
<path d="M6.12587 4.39568C6.12568 4.56446 6.06949 4.72939 5.96442 4.86965C5.85935 5.00991 5.71011 5.1192 5.53556 5.18371C5.361 5.24821 5.16896 5.26504 4.9837 5.23207C4.79844 5.1991 4.62828 5.11781 4.49471 4.99847C4.36114 4.87912 4.27015 4.72708 4.23325 4.56156C4.19635 4.39603 4.21519 4.22445 4.28739 4.06848C4.35958 3.91252 4.4819 3.77917 4.63888 3.6853C4.79586 3.59142 4.98046 3.54122 5.16935 3.54104C5.29524 3.54016 5.42007 3.56166 5.53656 3.6043C5.65306 3.64694 5.7589 3.70986 5.84792 3.78939C5.93693 3.86893 6.00735 3.9635 6.05507 4.06758C6.10279 4.17167 6.12686 4.2832 6.12587 4.39568Z" fill="white"/>
<path d="M6.12463 4.39565C6.12477 4.54538 6.08054 4.69246 5.99644 4.82196C5.88108 4.86497 5.75731 4.88705 5.63231 4.88692C5.50669 4.88695 5.38229 4.86486 5.26623 4.82192C5.15016 4.77899 5.0447 4.71603 4.95587 4.63667C4.86705 4.5573 4.79659 4.46308 4.74853 4.35937C4.70048 4.25567 4.67576 4.14452 4.67579 4.03228C4.67504 3.8825 4.71927 3.73528 4.80386 3.60597C4.9192 3.56293 5.04299 3.54084 5.16799 3.54102C5.42167 3.54105 5.66496 3.63109 5.84436 3.79136C6.02375 3.95163 6.12457 4.16899 6.12463 4.39565Z" fill="white"/>
<path d="M6.12461 4.3961C6.12478 4.54587 6.08041 4.69299 5.99604 4.82241C5.98207 4.84488 5.96673 4.86664 5.95009 4.88759L5.89622 4.85394L5.16797 4.39846V3.54102C5.42172 3.5411 5.66505 3.63123 5.84444 3.79158C6.02384 3.95193 6.12461 4.16938 6.12461 4.3961Z" fill="white"/>
<path d="M4.21094 4.3961C4.21073 4.54586 4.25506 4.69299 4.33939 4.82241C4.35344 4.84485 4.36882 4.86661 4.38547 4.88759L4.43933 4.85394L5.16758 4.39846V3.54102C4.91383 3.5411 4.67051 3.63123 4.49111 3.79158C4.31172 3.95193 4.21094 4.16938 4.21094 4.3961Z" fill="white"/>
<path d="M5.16616 3.54102V4.39767L4.88829 4.57145C4.74905 4.41932 4.67324 4.2287 4.67384 4.03217C4.6731 3.88235 4.71747 3.7351 4.80229 3.60586C4.84464 3.59016 4.88819 3.57719 4.93262 3.56704C4.96037 3.56087 4.98899 3.55582 5.01762 3.55078C5.06682 3.5444 5.11645 3.54114 5.16616 3.54102Z" fill="white"/>
<path d="M5.1677 5.35092C4.92086 5.35092 4.68168 5.27439 4.49095 5.1344C4.30022 4.9944 4.16976 4.79961 4.12185 4.58327C4.07393 4.36692 4.11151 4.14242 4.22819 3.94807C4.34487 3.75372 4.5334 3.60156 4.76163 3.51756C4.89023 3.4695 5.0283 3.44494 5.1677 3.44532C5.45052 3.44532 5.72176 3.5457 5.92175 3.72439C6.12173 3.90307 6.23408 4.14542 6.23408 4.39812C6.23408 4.65082 6.12173 4.89317 5.92175 5.07185C5.72176 5.25054 5.45052 5.35092 5.1677 5.35092ZM5.1677 3.64164C5.05721 3.6413 4.94778 3.6608 4.84588 3.69897C4.65188 3.77065 4.49466 3.90427 4.40483 4.07382C4.31501 4.24336 4.299 4.4367 4.35993 4.61621C4.42086 4.79572 4.55437 4.94855 4.73446 5.04496C4.91455 5.14136 5.12835 5.17445 5.33425 5.13777C5.54014 5.10109 5.72339 4.99728 5.84833 4.84653C5.97328 4.69579 6.03097 4.5089 6.01019 4.32223C5.98942 4.13557 5.89165 3.9625 5.73592 3.8367C5.58019 3.7109 5.37764 3.64137 5.1677 3.64164Z" fill="#4A73CF"/>
<path d="M5.9502 4.98765C5.92773 4.98766 5.9058 4.98147 5.88742 4.96993L5.10543 4.48068C5.09099 4.4716 5.0792 4.45956 5.07105 4.44556C5.0629 4.43156 5.05863 4.41602 5.05859 4.40025V3.54348C5.05859 3.51744 5.07017 3.49247 5.09077 3.47406C5.11138 3.45565 5.13932 3.44531 5.16846 3.44531C5.1976 3.44531 5.22554 3.45565 5.24615 3.47406C5.26675 3.49247 5.27832 3.51744 5.27832 3.54348V4.34909L6.01336 4.80905C6.03249 4.82101 6.04687 4.83811 6.05439 4.85786C6.06191 4.87762 6.0622 4.899 6.0552 4.91891C6.0482 4.93881 6.03429 4.95621 6.01548 4.96857C5.99666 4.98093 5.97393 4.98762 5.95058 4.98765H5.9502Z" fill="#4A73CF"/>
<path d="M4.38702 4.98579C4.36366 4.98576 4.34093 4.97907 4.32212 4.96671C4.3033 4.95435 4.28939 4.93695 4.28239 4.91704C4.27539 4.89714 4.27568 4.87575 4.2832 4.856C4.29073 4.83625 4.3051 4.81915 4.32424 4.80719L5.10623 4.31795C5.13013 4.30443 5.15895 4.29968 5.18668 4.30467C5.2144 4.30966 5.23891 4.32402 5.25509 4.34475C5.27127 4.36548 5.27788 4.39099 5.27354 4.41596C5.2692 4.44093 5.25424 4.46345 5.23179 4.47882L4.4498 4.96807C4.43139 4.97958 4.40948 4.98576 4.38702 4.98579Z" fill="#4A73CF"/>
<path d="M5.17123 2.25777C5.10032 2.25782 5.03098 2.23907 4.972 2.2039C4.91302 2.16874 4.86703 2.11873 4.83986 2.06021C4.81269 2.00168 4.80555 1.93728 4.81936 1.87513C4.83316 1.81299 4.86728 1.75589 4.91741 1.71108C4.96753 1.66626 5.0314 1.63574 5.10095 1.62336C5.17049 1.61098 5.24258 1.61731 5.3081 1.64155C5.37362 1.66578 5.42962 1.70684 5.46902 1.75951C5.50842 1.81219 5.52945 1.87412 5.52945 1.93748C5.52945 1.96352 5.51788 1.98848 5.49727 2.00689C5.47667 2.0253 5.44872 2.03564 5.41959 2.03564C5.39045 2.03564 5.3625 2.0253 5.3419 2.00689C5.32129 1.98848 5.30972 1.96352 5.30972 1.93748C5.30972 1.91297 5.30159 1.889 5.28635 1.86862C5.27111 1.84824 5.24944 1.83235 5.2241 1.82296C5.19875 1.81358 5.17086 1.81111 5.14395 1.81589C5.11704 1.82066 5.09232 1.83246 5.07291 1.84978C5.0535 1.86711 5.04028 1.88919 5.03491 1.91323C5.02954 1.93727 5.03227 1.96219 5.04276 1.98484C5.05324 2.0075 5.071 2.02687 5.0938 2.0405C5.1166 2.05414 5.14341 2.06142 5.17085 2.06145C5.19999 2.06145 5.22793 2.07179 5.24854 2.0902C5.26914 2.10861 5.28072 2.13358 5.28072 2.15961C5.28072 2.18564 5.26914 2.21061 5.24854 2.22902C5.22793 2.24743 5.19999 2.25777 5.17085 2.25777H5.17123Z" fill="#4A73CF"/>
<path d="M5.17085 2.70063C5.07583 2.70051 4.98474 2.66672 4.91756 2.60668C4.85038 2.54663 4.8126 2.46524 4.8125 2.38034C4.8125 2.3543 4.82407 2.32933 4.84468 2.31092C4.86528 2.29251 4.89323 2.28217 4.92237 2.28217C4.9515 2.28217 4.97945 2.29251 5.00005 2.31092C5.02066 2.32933 5.03223 2.3543 5.03223 2.38034C5.03211 2.4049 5.04015 2.42895 5.05535 2.44942C5.07055 2.46989 5.09221 2.48587 5.11759 2.49532C5.14297 2.50477 5.17092 2.50727 5.19789 2.50251C5.22486 2.49774 5.24964 2.48592 5.26908 2.46855C5.28852 2.45118 5.30175 2.42904 5.30708 2.40494C5.31242 2.38084 5.30962 2.35587 5.29904 2.3332C5.28846 2.31052 5.27058 2.29117 5.24766 2.27759C5.22475 2.26401 5.19784 2.25682 5.17035 2.25693C5.14121 2.25693 5.11326 2.24659 5.09266 2.22818C5.07206 2.20977 5.06048 2.1848 5.06048 2.15877C5.06048 2.13273 5.07206 2.10776 5.09266 2.08935C5.11326 2.07095 5.14121 2.0606 5.17035 2.0606C5.21798 2.05981 5.26531 2.0675 5.30958 2.08324C5.35384 2.09897 5.39415 2.12243 5.42815 2.15225C5.46215 2.18206 5.48916 2.21764 5.5076 2.25689C5.52604 2.29613 5.53553 2.33827 5.53553 2.38084C5.53553 2.42341 5.52604 2.46554 5.5076 2.50479C5.48916 2.54404 5.46215 2.57961 5.42815 2.60943C5.39415 2.63925 5.35384 2.66271 5.30958 2.67844C5.26531 2.69418 5.21798 2.70187 5.17035 2.70108L5.17085 2.70063Z" fill="#4A73CF"/>
<path d="M5.17041 2.87989C5.14127 2.87989 5.11333 2.86955 5.09273 2.85114C5.07212 2.83273 5.06055 2.80776 5.06055 2.78173V2.60402C5.06055 2.57799 5.07212 2.55302 5.09273 2.53461C5.11333 2.5162 5.14127 2.50586 5.17041 2.50586C5.19955 2.50586 5.2275 2.5162 5.2481 2.53461C5.2687 2.55302 5.28028 2.57799 5.28028 2.60402V2.78173C5.28028 2.80776 5.2687 2.83273 5.2481 2.85114C5.2275 2.86955 5.19955 2.87989 5.17041 2.87989Z" fill="#4A73CF"/>
<path d="M5.17041 1.81544C5.14127 1.81544 5.11333 1.80509 5.09273 1.78669C5.07212 1.76828 5.06055 1.74331 5.06055 1.71727V1.53957C5.06055 1.51354 5.07212 1.48857 5.09273 1.47016C5.11333 1.45175 5.14127 1.44141 5.17041 1.44141C5.19955 1.44141 5.2275 1.45175 5.2481 1.47016C5.2687 1.48857 5.28028 1.51354 5.28028 1.53957V1.71727C5.28028 1.74331 5.2687 1.76828 5.2481 1.78669C5.2275 1.80509 5.19955 1.81544 5.17041 1.81544Z" fill="#4A73CF"/>
</svg>
