<svg width="6" height="6" viewBox="0 0 6 6" fill="none" xmlns="http://www.w3.org/2000/svg">
<g clip-path="url(#clip0_1242_163)">
<path d="M3.74083 5.89599H2.19727L2.2053 5.36023C2.2053 4.95735 2.59017 4.77207 2.80272 4.72775C2.86282 4.69959 3.14346 4.69552 3.20366 4.72775C3.41616 4.77207 3.80103 4.95735 3.80103 5.36023V5.90402L3.74083 5.89599Z" fill="white"/>
<path d="M3.80211 6.00027C3.79786 6.00027 3.79361 5.99998 3.78936 5.99942L3.73544 5.99224H2.19835C2.17245 5.99224 2.14764 5.98189 2.12945 5.96341C2.11126 5.94494 2.10119 5.91994 2.10157 5.894L2.10961 5.35819C2.10961 4.9013 2.52487 4.68909 2.7763 4.63409C2.87203 4.60073 3.13235 4.59629 3.23385 4.63442C3.48538 4.68985 3.89898 4.90234 3.89898 5.35961V5.90349C3.89898 5.93137 3.88698 5.95798 3.86591 5.97626C3.84819 5.99186 3.82546 6.00027 3.80211 6.00027V6.00027ZM2.29659 5.79869H3.70544V5.35961C3.70544 4.93537 3.20635 4.82631 3.18508 4.82187C3.17596 4.81993 3.16727 4.81682 3.15914 4.81247C3.116 4.79631 2.89245 4.79744 2.84297 4.81554C2.83863 4.8171 2.82809 4.82088 2.82355 4.82173C2.80224 4.82622 2.30315 4.93528 2.30315 5.35952L2.29659 5.79869Z" fill="#4A73CF"/>
<path d="M2.49219 5.60451L2.49583 5.36333C2.49583 5.09035 2.85854 5.01148 2.86213 5.01068L2.89535 5.00383L2.90367 4.99995C2.92309 4.99745 2.9615 4.99414 3.01192 4.99414C3.05105 4.99414 3.07931 4.99617 3.09566 4.99783L3.10369 5.00217L3.14461 5.01068C3.1482 5.01148 3.51092 5.09025 3.51092 5.35898V5.60451H2.49219Z" fill="#154CC7"/>
<path d="M3.40149 3.95561C3.40149 3.73315 3.22198 3.55273 3.00055 3.55273C2.77912 3.55273 2.59961 3.73315 2.59961 3.95561C2.59961 4.17813 2.77912 4.35849 3.00055 4.35849C3.22198 4.35849 3.40149 4.17813 3.40149 3.95561Z" fill="white"/>
<path d="M2.99967 4.45624C2.72522 4.45624 2.50195 4.23222 2.50195 3.95668C2.50195 3.6812 2.72522 3.45703 2.99967 3.45703C3.27411 3.45703 3.49739 3.6812 3.49739 3.95668C3.49739 4.23222 3.27411 4.45624 2.99967 4.45624V4.45624ZM2.99967 3.65058C2.83206 3.65058 2.6955 3.78794 2.6955 3.95668C2.6955 4.12538 2.83197 4.2627 2.99967 4.2627C3.16737 4.2627 3.30384 4.12538 3.30384 3.95668C3.30384 3.78794 3.16728 3.65058 2.99967 3.65058V3.65058Z" fill="#4A73CF"/>
<path d="M5.74665 5.89599H4.20312L4.21116 5.36023C4.21116 4.95735 4.59603 4.77207 4.80853 4.72775C4.86864 4.69959 5.14927 4.69552 5.20947 4.72775C5.42188 4.77207 5.80675 4.95726 5.80675 5.36014V5.90402L5.74665 5.89599Z" fill="white"/>
<path d="M5.80588 6.00033C5.80163 6.00033 5.79737 6.00004 5.79303 5.99948L5.7393 5.99229H4.20225C4.17631 5.99229 4.15155 5.98194 4.13336 5.96347C4.11517 5.94499 4.1051 5.92 4.10548 5.89405L4.11351 5.35825C4.11351 4.90136 4.52877 4.68915 4.78016 4.63415C4.87589 4.60069 5.13621 4.59625 5.23761 4.63457C5.48905 4.68991 5.90265 4.90231 5.90265 5.35967V5.90355C5.90265 5.93143 5.89065 5.95803 5.86958 5.97642C5.85195 5.99192 5.82922 6.00033 5.80588 6.00033V6.00033ZM4.30035 5.79874H5.70911V5.35967C5.70911 4.93543 5.21007 4.82637 5.18875 4.82193C5.17968 4.81999 5.17085 4.81687 5.16272 4.81243C5.11977 4.79646 4.89621 4.79759 4.84674 4.8155C4.84239 4.81716 4.83185 4.82094 4.82732 4.82179C4.80601 4.82628 4.30697 4.93524 4.30697 5.35958L4.30035 5.79874Z" fill="#4A73CF"/>
<path d="M4.49805 5.60451L4.50173 5.36333C4.50173 5.09035 4.86435 5.01148 4.86799 5.01068L4.90121 5.00383L4.90962 4.99995C4.92909 4.99745 4.96751 4.99414 5.01783 4.99414C5.05681 4.99414 5.08498 4.99617 5.10133 4.99783L5.10936 5.00217L5.15042 5.01068C5.15397 5.01148 5.51668 5.09035 5.51668 5.35898V5.60451H4.49805Z" fill="#154CC7"/>
<path d="M5.40535 3.95561C5.40535 3.73315 5.22589 3.55273 5.00441 3.55273C4.78298 3.55273 4.60352 3.73315 4.60352 3.95561C4.60352 4.17813 4.78298 4.35849 5.00441 4.35849C5.22589 4.35849 5.40535 4.17813 5.40535 3.95561V3.95561Z" fill="white"/>
<path d="M5.00548 4.45624C4.73104 4.45624 4.50781 4.23222 4.50781 3.95668C4.50781 3.6812 4.73104 3.45703 5.00548 3.45703C5.27997 3.45703 5.50329 3.6812 5.50329 3.95668C5.50329 4.23222 5.27997 4.45624 5.00548 4.45624V4.45624ZM5.00548 3.65058C4.83787 3.65058 4.70136 3.78794 4.70136 3.95668C4.70136 4.12538 4.83778 4.2627 5.00548 4.2627C5.17323 4.2627 5.30974 4.12538 5.30974 3.95668C5.30965 3.78794 5.17323 3.65058 5.00548 3.65058Z" fill="#4A73CF"/>
<path d="M1.73693 5.89599H0.193359L0.201392 5.36023C0.201392 4.95735 0.586268 4.77207 0.798812 4.72775C0.858871 4.69959 1.13955 4.69552 1.19971 4.72775C1.41225 4.77207 1.79713 4.95735 1.79713 5.36023V5.90402L1.73693 5.89599Z" fill="white"/>
<path d="M1.79811 6.00033C1.79386 6.00033 1.78956 6.00004 1.78521 5.99948L1.73153 5.99229H0.194441C0.168499 5.99229 0.143738 5.98194 0.125546 5.96347C0.107353 5.94499 0.0972885 5.92 0.0976665 5.89405L0.1057 5.35825C0.1057 4.90136 0.520959 4.68915 0.772393 4.63415C0.867985 4.60069 1.1284 4.59625 1.22985 4.63457C1.48138 4.68991 1.89498 4.9024 1.89498 5.35967V5.90355C1.89498 5.93143 1.88298 5.95803 1.86186 5.97642C1.84414 5.99192 1.82141 6.00033 1.79811 6.00033V6.00033ZM0.29268 5.79874H1.70143V5.35967C1.70143 4.93534 1.20235 4.82637 1.18108 4.82193C1.17196 4.81999 1.16317 4.81687 1.15505 4.81243C1.11205 4.79646 0.888493 4.79759 0.839067 4.8155C0.834719 4.81716 0.824182 4.82094 0.819598 4.82179C0.798334 4.82628 0.299248 4.93524 0.299248 5.35958L0.29268 5.79874Z" fill="#4A73CF"/>
<path d="M0.488281 5.60451L0.491967 5.36333C0.491967 5.09035 0.854587 5.01148 0.858272 5.01068L0.891444 5.00383L0.899902 4.99995C0.919323 4.99745 0.95774 4.99414 1.00806 4.99414C1.0471 4.99414 1.07526 4.99617 1.09161 4.99783L1.09964 5.00217L1.14066 5.01068C1.14434 5.01148 1.50696 5.09025 1.50696 5.35898V5.60451H0.488281Z" fill="#154CC7"/>
<path d="M1.39563 3.95561C1.39563 3.73315 1.21612 3.55273 0.994692 3.55273C0.773264 3.55273 0.59375 3.73315 0.59375 3.95561C0.59375 4.17813 0.773264 4.35849 0.994692 4.35849C1.21612 4.35849 1.39563 4.17813 1.39563 3.95561Z" fill="white"/>
<path d="M0.995858 4.45624C0.721412 4.45624 0.498047 4.23222 0.498047 3.95668C0.498047 3.6812 0.721412 3.45703 0.995858 3.45703C1.2703 3.45703 1.49357 3.6812 1.49357 3.95668C1.49357 4.23222 1.2703 4.45624 0.995858 4.45624ZM0.995858 3.65058C0.828157 3.65058 0.691595 3.78794 0.691595 3.95668C0.691595 4.12538 0.828062 4.2627 0.995858 4.2627C1.16346 4.2627 1.30003 4.12538 1.30003 3.95668C1.30003 3.78794 1.16356 3.65058 0.995858 3.65058Z" fill="#4A73CF"/>
<path d="M2.08008 0.0976562H5.52416V2.51498H2.08008V0.0976562Z" fill="#154CC7"/>
<path d="M5.52328 2.61087H2.0792C2.02566 2.61087 1.98242 2.56763 1.98242 2.5141V0.0967742C1.98242 0.0432365 2.02566 0 2.0792 0H5.52328C5.57682 0 5.62005 0.0432365 5.62005 0.0967742V2.5141C5.62005 2.56749 5.57682 2.61087 5.52328 2.61087ZM2.17597 2.41732H5.42651V0.193548H2.17597V2.41732Z" fill="#4A73CF"/>
<path d="M2.37109 0.386719H5.23453V2.2234H2.37109V0.386719Z" fill="white"/>
<path d="M3.64258 1.19336H3.83613V2.17939H3.64258V1.19336Z" fill="#154CC7"/>
<path d="M4.0332 1.54688H4.22675V2.17879H4.0332V1.54688Z" fill="#154CC7"/>
<path d="M4.41016 1.25391H4.6037V2.1777H4.41016V1.25391Z" fill="#154CC7"/>
<path d="M4.83203 0.507812H5.02558V2.17854H4.83203V0.507812Z" fill="#154CC7"/>
<path d="M2.58016 2.27308L2.12823 2.02679L1.89735 1.65978C1.82439 1.54387 1.70399 1.46169 1.5679 1.45068C1.55633 1.44969 1.54461 1.44922 1.53279 1.44922H0.954558C0.879284 1.44922 0.805144 1.46434 0.736344 1.49316C0.671324 1.52043 0.61703 1.56872 0.577054 1.62708C0.437894 1.83031 0.363281 2.07121 0.363281 2.31778V2.78662C0.363281 2.87314 0.421639 2.95172 0.506033 2.96888C0.622039 2.99246 0.724058 2.90395 0.724058 2.79149V2.14776V3.20401H1.76561L1.76816 2.36763L1.76863 2.21675L1.76816 2.36772L2.38897 2.70738C2.51448 2.75808 2.6576 2.69278 2.70112 2.56231C2.73841 2.45084 2.68284 2.32907 2.58016 2.27308V2.27308Z" fill="white"/>
<path d="M1.76677 3.30166H0.725129C0.671592 3.30166 0.628355 3.25843 0.628355 3.20489V3.05751C0.583748 3.07164 0.53555 3.07447 0.487824 3.06459C0.360289 3.03884 0.267578 2.92222 0.267578 2.7876V2.31885C0.267578 2.05144 0.347294 1.79363 0.498267 1.57338C0.550907 1.49655 0.6207 1.43829 0.699849 1.40502C0.781266 1.37076 0.867172 1.35352 0.955629 1.35352H1.53396C1.54828 1.35352 1.56259 1.35408 1.57682 1.35526C1.73748 1.36821 1.88836 1.46314 1.98036 1.6092L2.19782 1.95495L2.62758 2.18919C2.77539 2.2698 2.84542 2.44 2.79415 2.59386C2.76452 2.68251 2.70182 2.75277 2.61742 2.79166C2.53478 2.82998 2.43852 2.83225 2.35385 2.79799C2.35035 2.79662 2.34695 2.79497 2.34378 2.79313L1.86568 2.53163L1.86364 3.20531C1.86336 3.25852 1.82012 3.30166 1.76677 3.30166V3.30166ZM0.821903 3.10811H1.67033L1.67246 2.36818L1.67293 2.21721C1.67312 2.16381 1.71636 2.12076 1.7697 2.12076H1.76999C1.82338 2.12095 1.86648 2.16419 1.86648 2.21754V2.21782L1.8662 2.31119L2.43087 2.62009C2.4656 2.63289 2.50274 2.63124 2.53624 2.61564C2.57168 2.59939 2.5981 2.56976 2.61057 2.53243C2.63184 2.46864 2.59933 2.39403 2.53497 2.35892L2.08304 2.11264C2.06853 2.1047 2.05634 2.09326 2.04746 2.07913L1.81644 1.71207C1.7568 1.61733 1.66131 1.55609 1.56113 1.54806C1.55206 1.54725 1.54294 1.54687 1.53386 1.54687H0.955535C0.893019 1.54687 0.832346 1.55916 0.774839 1.58326C0.729949 1.60202 0.6895 1.63647 0.657935 1.68254C0.529171 1.87061 0.461127 2.09057 0.461127 2.31866V2.7876C0.461127 2.82989 0.489195 2.86746 0.526336 2.87492C0.561397 2.88196 0.585969 2.86746 0.597262 2.85815C0.617014 2.84199 0.628355 2.81798 0.628355 2.79237V2.14859C0.628355 2.0951 0.671592 2.05182 0.725129 2.05182C0.77862 2.05182 0.821903 2.0951 0.821903 2.14859V3.10811Z" fill="#4A73CF"/>
<path d="M1.67529 0.702101C1.67529 0.45459 1.47555 0.253906 1.22922 0.253906C0.982894 0.253906 0.783203 0.45459 0.783203 0.702101C0.783203 0.949613 0.982894 1.15025 1.22922 1.15025C1.47555 1.15025 1.67529 0.949613 1.67529 0.702101Z" fill="white"/>
<path d="M1.2303 1.24819C0.930995 1.24819 0.6875 1.00375 0.6875 0.703172C0.6875 0.402785 0.931089 0.158203 1.2303 0.158203C1.52955 0.158203 1.77314 0.402643 1.77314 0.703172C1.77314 1.00365 1.52964 1.24819 1.2303 1.24819ZM1.2303 0.351752C1.03774 0.351752 0.881048 0.509388 0.881048 0.703172C0.881048 0.897004 1.03774 1.05464 1.2303 1.05464C1.4229 1.05464 1.57959 0.897004 1.57959 0.703172C1.57959 0.509388 1.4229 0.351752 1.2303 0.351752V0.351752Z" fill="#4A73CF"/>
<path d="M2.27344 2.45943L3.12687 1.28906L3.28314 1.40308L2.42975 2.5734L2.27344 2.45943Z" fill="#4A73CF"/>
</g>
<defs>
<clipPath id="clip0_1242_163">
<rect width="6" height="6" fill="white"/>
</clipPath>
</defs>
</svg>
