<svg width="7" height="7" viewBox="0 0 7 7" fill="none" xmlns="http://www.w3.org/2000/svg">
<path d="M5.7832 0.0957031H0.314453C0.193641 0.0957031 0.0957031 0.193641 0.0957031 0.314453V3.92383C0.0957031 4.04464 0.193641 4.14258 0.314453 4.14258H5.7832C5.90402 4.14258 6.00195 4.04464 6.00195 3.92383V0.314453C6.00195 0.193641 5.90402 0.0957031 5.7832 0.0957031Z" fill="white"/>
<path d="M6.00195 0.314453V3.78711H0.642578C0.584615 3.78694 0.529076 3.76383 0.48809 3.72285C0.447104 3.68186 0.424001 3.62632 0.423828 3.56836V0.0957031H5.7832C5.84117 0.0958762 5.89671 0.118979 5.93769 0.159965C5.97868 0.200951 6.00178 0.25649 6.00195 0.314453Z" fill="white"/>
<path d="M6.00195 0.314453V1.08008H0.0957031V0.314453C0.0958762 0.25649 0.118979 0.200951 0.159965 0.159965C0.200951 0.118979 0.25649 0.0958762 0.314453 0.0957031H5.7832C5.84117 0.0958762 5.89671 0.118979 5.93769 0.159965C5.97868 0.200951 6.00178 0.25649 6.00195 0.314453Z" fill="white"/>
<path d="M6.00305 0.314453V0.751953H0.423828V0.0957031H5.7843C5.84226 0.0958762 5.8978 0.118979 5.93878 0.159965C5.97977 0.200951 6.00287 0.25649 6.00305 0.314453Z" fill="white"/>
<path d="M4.74969 0.589917C4.74964 0.650897 4.73153 0.710495 4.69762 0.761182C4.66372 0.811868 4.61555 0.851367 4.55921 0.874688C4.50286 0.898009 4.44087 0.904105 4.38106 0.892206C4.32126 0.880307 4.26632 0.850946 4.22319 0.807835C4.18006 0.764723 4.15068 0.709795 4.13876 0.649992C4.12684 0.590188 4.13292 0.528193 4.15622 0.471841C4.17952 0.415488 4.219 0.367307 4.26968 0.333386C4.32035 0.299464 4.37994 0.281325 4.44092 0.28126C4.48155 0.280925 4.52185 0.288679 4.55945 0.304071C4.59706 0.319462 4.63122 0.342183 4.65996 0.37091C4.6887 0.399637 4.71143 0.433796 4.72684 0.471395C4.74224 0.508995 4.75001 0.549285 4.74969 0.589917Z" fill="white"/>
<path d="M4.75089 0.589907C4.75092 0.644 4.73662 0.697135 4.70944 0.743907C4.67221 0.759514 4.63223 0.76751 4.59186 0.767422C4.55132 0.767422 4.51117 0.759435 4.47372 0.743917C4.43626 0.728399 4.40223 0.705653 4.37357 0.67698C4.34491 0.648307 4.32217 0.614268 4.30667 0.576808C4.29116 0.539347 4.28319 0.499199 4.28321 0.458657C4.28296 0.404548 4.29724 0.351365 4.32455 0.304657C4.3618 0.289137 4.40177 0.281181 4.44213 0.28125C4.52399 0.281279 4.60249 0.313804 4.66039 0.371679C4.71828 0.429554 4.75084 0.508045 4.75089 0.589907Z" fill="white"/>
<path d="M4.44047 0.994596C4.34699 0.994289 4.2565 0.96163 4.18437 0.902166C4.11224 0.842703 4.06292 0.760102 4.04479 0.668397C4.02666 0.576692 4.04084 0.481539 4.08492 0.399102C4.12899 0.316665 4.20025 0.252029 4.28658 0.216175C4.33531 0.195771 4.38764 0.185357 4.44047 0.185549C4.54489 0.189757 4.64364 0.234199 4.71604 0.309571C4.78843 0.384943 4.82886 0.4854 4.82886 0.589909C4.82886 0.694418 4.78843 0.794875 4.71604 0.870246C4.64364 0.945618 4.54489 0.99006 4.44047 0.994268V0.994596ZM4.44047 0.377284C4.4128 0.377188 4.3854 0.382617 4.35986 0.393253C4.31098 0.413341 4.27133 0.450904 4.24862 0.498626C4.22592 0.546348 4.22179 0.600812 4.23704 0.65141C4.25229 0.702009 4.28583 0.74512 4.33113 0.772347C4.37642 0.799573 4.43023 0.808967 4.48206 0.798697C4.5339 0.788428 4.58007 0.759231 4.61156 0.716792C4.64305 0.674354 4.65762 0.621713 4.65243 0.569122C4.64724 0.51653 4.62266 0.467753 4.58348 0.432291C4.5443 0.396829 4.49332 0.37722 4.44047 0.377284Z" fill="#4A73CF"/>
<path d="M5.66961 0.589916C5.66957 0.6509 5.65145 0.710503 5.61754 0.761192C5.58363 0.811881 5.53546 0.85138 5.4791 0.874698C5.42275 0.898016 5.36076 0.904105 5.30095 0.892197C5.24113 0.880289 5.1862 0.850918 5.14307 0.807795C5.09995 0.764673 5.07058 0.709734 5.05867 0.649924C5.04676 0.590113 5.05285 0.528115 5.07617 0.471764C5.09949 0.415413 5.13899 0.36724 5.18968 0.333332C5.24037 0.299424 5.29997 0.281303 5.36095 0.28126C5.40158 0.280939 5.44186 0.288704 5.47945 0.304102C5.51704 0.3195 5.55119 0.342223 5.57992 0.370949C5.60865 0.399674 5.63137 0.433827 5.64677 0.47142C5.66217 0.509013 5.66993 0.549293 5.66961 0.589916Z" fill="white"/>
<path d="M5.67082 0.589907C5.67087 0.64399 5.65661 0.697125 5.62947 0.743907C5.5922 0.759514 5.55219 0.76751 5.51179 0.767422C5.47124 0.767422 5.4311 0.759435 5.39364 0.743917C5.35619 0.728399 5.32216 0.705653 5.29349 0.67698C5.26483 0.648307 5.2421 0.614268 5.22659 0.576808C5.21109 0.539347 5.20311 0.499199 5.20313 0.458657C5.20287 0.404576 5.21707 0.351407 5.24425 0.304657C5.28155 0.289137 5.32155 0.281181 5.36194 0.28125C5.40249 0.281236 5.44264 0.289208 5.48011 0.304712C5.51758 0.320216 5.55162 0.342947 5.5803 0.371608C5.60899 0.40027 5.63174 0.4343 5.64727 0.471756C5.6628 0.509211 5.6708 0.549359 5.67082 0.589907Z" fill="white"/>
<path d="M5.36547 0.994268C5.27213 0.993782 5.18183 0.961045 5.10986 0.901604C5.0379 0.842162 4.98869 0.759671 4.97058 0.668104C4.95247 0.576537 4.96657 0.481525 5.01049 0.399164C5.05441 0.316802 5.12545 0.252155 5.21158 0.216174C5.26031 0.195771 5.31264 0.185357 5.36547 0.185549C5.46989 0.189757 5.56864 0.234199 5.64104 0.309571C5.71343 0.384943 5.75386 0.4854 5.75386 0.589909C5.75386 0.694418 5.71343 0.794875 5.64104 0.870246C5.56864 0.945618 5.46989 0.990061 5.36547 0.994268ZM5.36547 0.376956C5.33777 0.376872 5.31033 0.3823 5.28475 0.392924C5.23585 0.413017 5.19617 0.450593 5.17345 0.498333C5.15073 0.546074 5.14659 0.600562 5.16184 0.651186C5.17709 0.701811 5.21063 0.744948 5.25594 0.772198C5.30125 0.799447 5.35508 0.808857 5.40695 0.798596C5.45881 0.788336 5.505 0.759138 5.53652 0.71669C5.56804 0.674241 5.58264 0.621581 5.57746 0.568963C5.57228 0.516346 5.54771 0.467538 5.50852 0.432045C5.46934 0.396552 5.41834 0.376914 5.36547 0.376956Z" fill="#4A73CF"/>
<path d="M3.82391 0.589916C3.82386 0.6509 3.80574 0.710503 3.77183 0.761192C3.73793 0.811881 3.68975 0.85138 3.6334 0.874698C3.57705 0.898016 3.51505 0.904105 3.45524 0.892197C3.39543 0.880289 3.34049 0.850918 3.29737 0.807795C3.25425 0.764673 3.22488 0.709734 3.21297 0.649924C3.20106 0.590113 3.20715 0.528115 3.23047 0.471764C3.25379 0.415413 3.29328 0.36724 3.34397 0.333332C3.39466 0.299424 3.45427 0.281303 3.51525 0.28126C3.55587 0.280939 3.59615 0.288704 3.63375 0.304102C3.67134 0.3195 3.70549 0.342223 3.73422 0.370949C3.76294 0.399674 3.78567 0.433827 3.80106 0.47142C3.81646 0.509013 3.82423 0.549293 3.82391 0.589916Z" fill="white"/>
<path d="M3.82511 0.589907C3.82517 0.64399 3.81091 0.697125 3.78377 0.743907C3.74654 0.759514 3.70656 0.76751 3.66619 0.767422C3.62564 0.767437 3.58548 0.75946 3.54801 0.743948C3.51055 0.728436 3.4765 0.705693 3.44783 0.677019C3.41915 0.648345 3.39641 0.614301 3.3809 0.576833C3.36539 0.539366 3.35741 0.499208 3.35742 0.458657C3.35721 0.404538 3.37152 0.351354 3.39888 0.304657C3.43613 0.289137 3.4761 0.281181 3.51646 0.28125C3.59831 0.281279 3.6768 0.313808 3.73468 0.371686C3.79255 0.429564 3.82508 0.508055 3.82511 0.589907Z" fill="white"/>
<path d="M3.51402 0.994267C3.42067 0.993806 3.33035 0.961087 3.25836 0.901654C3.18638 0.842221 3.13715 0.75973 3.11903 0.668156C3.10091 0.576583 3.115 0.48156 3.15892 0.399187C3.20283 0.316815 3.27388 0.252158 3.36002 0.216174C3.40879 0.195801 3.46115 0.185389 3.51402 0.185549C3.61844 0.189756 3.71719 0.234199 3.78958 0.30957C3.86198 0.384942 3.90241 0.485399 3.90241 0.589908C3.90241 0.694417 3.86198 0.794874 3.78958 0.870246C3.71719 0.945618 3.61844 0.99006 3.51402 0.994267ZM3.51402 0.376955C3.48637 0.37679 3.45896 0.382144 3.43341 0.392705C3.40207 0.405544 3.37424 0.425677 3.35225 0.451431C3.33025 0.477185 3.31472 0.507816 3.30694 0.54078C3.29916 0.573743 3.29936 0.608087 3.30752 0.640958C3.31569 0.673828 3.33157 0.704276 3.35387 0.729772C3.37616 0.755267 3.40422 0.775074 3.43571 0.787547C3.4672 0.80002 3.50121 0.804798 3.53491 0.801485C3.56862 0.798172 3.60105 0.786863 3.62951 0.768498C3.65796 0.750132 3.68163 0.725241 3.69853 0.695892C3.71746 0.663666 3.72739 0.626953 3.7273 0.58958C3.72721 0.533071 3.7047 0.478906 3.66471 0.438979C3.62472 0.399052 3.57052 0.376627 3.51402 0.376627V0.376955Z" fill="#4A73CF"/>
<path d="M5.99919 3.20108C5.97381 3.20108 5.94946 3.191 5.93152 3.17305C5.91357 3.1551 5.90348 3.13076 5.90348 3.10537V0.314453C5.90343 0.281837 5.89044 0.250573 5.86738 0.22751C5.84432 0.204447 5.81305 0.191464 5.78044 0.191406H2.99805C2.97266 0.191406 2.94832 0.181323 2.93037 0.163375C2.91243 0.145428 2.90234 0.121085 2.90234 0.0957031C2.90234 0.0703211 2.91243 0.0459786 2.93037 0.0280308C2.94832 0.010083 2.97266 7.56444e-10 2.99805 0H5.78044C5.8638 0.000115741 5.94372 0.0332827 6.00266 0.092229C6.06161 0.151175 6.09477 0.231091 6.09489 0.314453V3.10537C6.09489 3.13076 6.08481 3.1551 6.06686 3.17305C6.04891 3.191 6.02457 3.20108 5.99919 3.20108Z" fill="#4A73CF"/>
<path d="M5.7832 4.23828H0.314453C0.231091 4.23817 0.151175 4.205 0.092229 4.14605C0.0332827 4.08711 0.000115741 4.00719 0 3.92383V0.314453C0.000115741 0.231091 0.0332827 0.151175 0.092229 0.092229C0.151175 0.0332827 0.231091 0.000115741 0.314453 0H2.39487C2.42026 7.56444e-10 2.4446 0.010083 2.46255 0.0280308C2.4805 0.0459786 2.49058 0.0703211 2.49058 0.0957031C2.49058 0.121085 2.4805 0.145428 2.46255 0.163375C2.4446 0.181323 2.42026 0.191406 2.39487 0.191406H0.314453C0.281837 0.191464 0.250573 0.204447 0.22751 0.22751C0.204447 0.250573 0.191464 0.281837 0.191406 0.314453V3.92383C0.191464 3.95644 0.204447 3.98771 0.22751 4.01077C0.250573 4.03383 0.281837 4.04682 0.314453 4.04688H5.7832C5.81582 4.04682 5.84708 4.03383 5.87015 4.01077C5.89321 3.98771 5.90619 3.95644 5.90625 3.92383V3.62458C5.90625 3.5992 5.91633 3.57485 5.93428 3.55691C5.95223 3.53896 5.97657 3.52887 6.00195 3.52887C6.02734 3.52887 6.05168 3.53896 6.06963 3.55691C6.08757 3.57485 6.09766 3.5992 6.09766 3.62458V3.92383C6.09754 4.00719 6.06437 4.08711 6.00543 4.14605C5.94648 4.205 5.86657 4.23817 5.7832 4.23828Z" fill="#4A73CF"/>
<path d="M6.00195 1.17578H0.0957031C0.0703211 1.17578 0.0459786 1.1657 0.0280308 1.14775C0.010083 1.1298 0 1.10546 0 1.08008C0 1.0547 0.010083 1.03035 0.0280308 1.01241C0.0459786 0.994458 0.0703211 0.984375 0.0957031 0.984375H6.00195C6.02734 0.984375 6.05168 0.994458 6.06963 1.01241C6.08757 1.03035 6.09766 1.0547 6.09766 1.08008C6.09766 1.10546 6.08757 1.1298 6.06963 1.14775C6.05168 1.1657 6.02734 1.17578 6.00195 1.17578Z" fill="#4A73CF"/>
<path d="M5.55095 1.86523H3.50673C3.43829 1.86523 3.38281 1.92072 3.38281 1.98916V4.64894C3.38281 4.71738 3.43829 4.77286 3.50673 4.77286H5.55095C5.61939 4.77286 5.67488 4.71738 5.67488 4.64894V1.98916C5.67488 1.92072 5.61939 1.86523 5.55095 1.86523Z" fill="white"/>
<path d="M5.55077 1.86523H3.58398V4.46311C3.58407 4.49593 3.59714 4.52738 3.62034 4.5506C3.64353 4.57382 3.67498 4.58692 3.7078 4.58703H5.67469V1.98937C5.67463 1.95651 5.66156 1.925 5.63834 1.90174C5.61512 1.87847 5.58363 1.86535 5.55077 1.86523Z" fill="white"/>
<path d="M5.55095 4.86834H3.50673C3.4485 4.86829 3.39268 4.84513 3.3515 4.80395C3.31032 4.76278 3.28717 4.70695 3.28711 4.64872V1.98905C3.28717 1.93083 3.31033 1.87501 3.35151 1.83385C3.39268 1.79269 3.44851 1.76956 3.50673 1.76953H4.53737C4.56276 1.76953 4.5871 1.77961 4.60505 1.79756C4.623 1.81551 4.63308 1.83985 4.63308 1.86523C4.63308 1.89062 4.623 1.91496 4.60505 1.93291C4.5871 1.95085 4.56276 1.96094 4.53737 1.96094H3.50673C3.4993 1.96102 3.49218 1.96401 3.48691 1.96926C3.48164 1.97451 3.47863 1.98161 3.47852 1.98905V4.64905C3.47863 4.6565 3.48164 4.66361 3.48691 4.66888C3.49217 4.67414 3.49929 4.67715 3.50673 4.67727H5.55095C5.5584 4.67715 5.56551 4.67414 5.57078 4.66888C5.57605 4.66361 5.57906 4.6565 5.57917 4.64905V1.98905C5.57906 1.98161 5.57605 1.97451 5.57077 1.96926C5.5655 1.96401 5.55839 1.96102 5.55095 1.96094H5.12198C5.0966 1.96094 5.07226 1.95085 5.05431 1.93291C5.03636 1.91496 5.02628 1.89062 5.02628 1.86523C5.02628 1.83985 5.03636 1.81551 5.05431 1.79756C5.07226 1.77961 5.0966 1.76953 5.12198 1.76953H5.55095C5.60917 1.76956 5.665 1.79269 5.70618 1.83385C5.74736 1.87501 5.77052 1.93083 5.77058 1.98905V4.64905C5.77043 4.70722 5.74724 4.76296 5.70607 4.80407C5.66491 4.84517 5.60913 4.86829 5.55095 4.86834Z" fill="#4A73CF"/>
<path d="M5.34389 2.19336H3.71289V3.05031H5.34389V2.19336Z" fill="#F5F5F5"/>
<path d="M5.34389 3.14602H3.71289C3.68751 3.14602 3.66317 3.13593 3.64522 3.11798C3.62727 3.10004 3.61719 3.07569 3.61719 3.05031V2.19336C3.61719 2.16798 3.62727 2.14363 3.64522 2.12569C3.66317 2.10774 3.68751 2.09766 3.71289 2.09766H5.34389C5.36927 2.09766 5.39361 2.10774 5.41156 2.12569C5.42951 2.14363 5.43959 2.16798 5.43959 2.19336V3.05031C5.43959 3.07569 5.42951 3.10004 5.41156 3.11798C5.39361 3.13593 5.36927 3.14602 5.34389 3.14602ZM3.80859 2.95461H5.24819V2.28906H3.80859V2.95461Z" fill="#4A73CF"/>
<path d="M5.34389 3.64648H3.71289C3.68751 3.64648 3.66317 3.6364 3.64522 3.61845C3.62727 3.60051 3.61719 3.57616 3.61719 3.55078C3.61719 3.5254 3.62727 3.50106 3.64522 3.48311C3.66317 3.46516 3.68751 3.45508 3.71289 3.45508H5.34389C5.36927 3.45508 5.39361 3.46516 5.41156 3.48311C5.42951 3.50106 5.43959 3.5254 5.43959 3.55078C5.43959 3.57616 5.42951 3.60051 5.41156 3.61845C5.39361 3.6364 5.36927 3.64648 5.34389 3.64648Z" fill="#4A73CF"/>
<path d="M5.34389 4.08789H3.71289C3.68751 4.08789 3.66317 4.07781 3.64522 4.05986C3.62727 4.04191 3.61719 4.01757 3.61719 3.99219C3.61719 3.96681 3.62727 3.94246 3.64522 3.92452C3.66317 3.90657 3.68751 3.89648 3.71289 3.89648H5.34389C5.36927 3.89648 5.39361 3.90657 5.41156 3.92452C5.42951 3.94246 5.43959 3.96681 5.43959 3.99219C5.43959 4.01757 5.42951 4.04191 5.41156 4.05986C5.39361 4.07781 5.36927 4.08789 5.34389 4.08789Z" fill="#4A73CF"/>
<path d="M4.52598 4.53516H3.71289C3.68751 4.53516 3.66317 4.52507 3.64522 4.50713C3.62727 4.48918 3.61719 4.46484 3.61719 4.43945C3.61719 4.41407 3.62727 4.38973 3.64522 4.37178C3.66317 4.35383 3.68751 4.34375 3.71289 4.34375H4.52598C4.55137 4.34375 4.57571 4.35383 4.59366 4.37178C4.6116 4.38973 4.62169 4.41407 4.62169 4.43945C4.62169 4.46484 4.6116 4.48918 4.59366 4.50713C4.57571 4.52507 4.55137 4.53516 4.52598 4.53516Z" fill="#4A73CF"/>
<path d="M2.59197 2.6582H0.54775C0.47931 2.6582 0.423828 2.71368 0.423828 2.78212V5.87941C0.423828 5.94785 0.47931 6.00333 0.54775 6.00333H2.59197C2.66041 6.00333 2.71589 5.94785 2.71589 5.87941V2.78212C2.71589 2.71368 2.66041 2.6582 2.59197 2.6582Z" fill="white"/>
<path d="M2.59178 2.6582H0.625V5.69358C0.625115 5.72638 0.638197 5.75781 0.661391 5.781C0.684586 5.80419 0.716011 5.81728 0.748813 5.81739H2.7157V2.78202C2.71559 2.7492 2.70249 2.71775 2.67927 2.69456C2.65606 2.67136 2.6246 2.65829 2.59178 2.6582Z" fill="white"/>
<path d="M2.59197 6.09914H0.54775C0.48952 6.09908 0.433691 6.07592 0.392516 6.03475C0.351341 5.99357 0.328183 5.93775 0.328125 5.87952V5.54406C0.328125 5.51868 0.338208 5.49434 0.356156 5.47639C0.374104 5.45844 0.398446 5.44836 0.423828 5.44836C0.44921 5.44836 0.473553 5.45844 0.4915 5.47639C0.509448 5.49434 0.519531 5.51868 0.519531 5.54406V5.8793C0.519616 5.88675 0.522617 5.89388 0.527891 5.89916C0.533164 5.90443 0.540292 5.90743 0.54775 5.90752H2.59197C2.59943 5.90743 2.60655 5.90443 2.61183 5.89916C2.6171 5.89388 2.6201 5.88675 2.62019 5.8793V4.87305C2.62019 4.84766 2.63027 4.82332 2.64822 4.80537C2.66617 4.78743 2.69051 4.77734 2.71589 4.77734C2.74127 4.77734 2.76561 4.78743 2.78356 4.80537C2.80151 4.82332 2.81159 4.84766 2.81159 4.87305V5.8793C2.81159 5.93757 2.78846 5.99345 2.74728 6.03467C2.7061 6.0759 2.65024 6.09908 2.59197 6.09914Z" fill="#4A73CF"/>
<path d="M0.423828 5.15677C0.398446 5.15677 0.374104 5.14668 0.356156 5.12873C0.338208 5.11079 0.328125 5.08644 0.328125 5.06106V2.78202C0.328183 2.7238 0.351344 2.66798 0.392522 2.62682C0.433701 2.58566 0.48953 2.56253 0.54775 2.5625H2.59197C2.65019 2.56253 2.70602 2.58566 2.7472 2.62682C2.78837 2.66798 2.81154 2.7238 2.81159 2.78202V4.36872C2.81159 4.3941 2.80151 4.41844 2.78356 4.43639C2.76561 4.45434 2.74127 4.46442 2.71589 4.46442C2.69051 4.46442 2.66617 4.45434 2.64822 4.43639C2.63027 4.41844 2.62019 4.3941 2.62019 4.36872V2.78202C2.62007 2.77458 2.61706 2.76748 2.61179 2.76223C2.60652 2.75698 2.59941 2.75399 2.59197 2.75391H0.54775C0.540311 2.75399 0.533199 2.75698 0.527928 2.76223C0.522658 2.76748 0.519645 2.77458 0.519531 2.78202V5.06106C0.519531 5.08644 0.509448 5.11079 0.4915 5.12873C0.473553 5.14668 0.44921 5.15677 0.423828 5.15677Z" fill="#4A73CF"/>
<path d="M2.38881 2.98633H0.757812V3.588H2.38881V2.98633Z" fill="#F5F5F5"/>
<path d="M2.38881 3.68359H0.757812C0.73243 3.68359 0.708088 3.67351 0.69014 3.65556C0.672192 3.63762 0.662109 3.61327 0.662109 3.58789V2.98633C0.662109 2.96095 0.672192 2.9366 0.69014 2.91866C0.708088 2.90071 0.73243 2.89062 0.757812 2.89062H2.38881C2.41419 2.89063 2.43854 2.90071 2.45648 2.91866C2.47443 2.9366 2.48452 2.96095 2.48452 2.98633V3.58789C2.48452 3.61327 2.47443 3.63762 2.45648 3.65556C2.43854 3.67351 2.41419 3.68359 2.38881 3.68359ZM0.853516 3.49219H2.29311V3.08203H0.853516V3.49219Z" fill="#4A73CF"/>
<path d="M2.38881 3.99805H0.757812C0.73243 3.99805 0.708088 3.98796 0.69014 3.97002C0.672192 3.95207 0.662109 3.92773 0.662109 3.90234C0.662109 3.87696 0.672192 3.85262 0.69014 3.83467C0.708088 3.81672 0.73243 3.80664 0.757812 3.80664H2.38881C2.41419 3.80664 2.43854 3.81672 2.45648 3.83467C2.47443 3.85262 2.48452 3.87696 2.48452 3.90234C2.48452 3.92773 2.47443 3.95207 2.45648 3.97002C2.43854 3.98796 2.41419 3.99805 2.38881 3.99805Z" fill="#4A73CF"/>
<path d="M2.38881 4.43945H0.757812C0.73243 4.43945 0.708088 4.42937 0.69014 4.41142C0.672192 4.39347 0.662109 4.36913 0.662109 4.34375C0.662109 4.31837 0.672192 4.29403 0.69014 4.27608C0.708088 4.25813 0.73243 4.24805 0.757812 4.24805H2.38881C2.41419 4.24805 2.43854 4.25813 2.45648 4.27608C2.47443 4.29403 2.48452 4.31837 2.48452 4.34375C2.48452 4.36913 2.47443 4.39347 2.45648 4.41142C2.43854 4.42937 2.41419 4.43945 2.38881 4.43945Z" fill="#4A73CF"/>
<path d="M2.38881 4.88672H0.757812C0.73243 4.88672 0.708088 4.87664 0.69014 4.85869C0.672192 4.84074 0.662109 4.8164 0.662109 4.79102C0.662109 4.76563 0.672192 4.74129 0.69014 4.72334C0.708088 4.7054 0.73243 4.69531 0.757812 4.69531H2.38881C2.41419 4.69531 2.43854 4.7054 2.45648 4.72334C2.47443 4.74129 2.48452 4.76563 2.48452 4.79102C2.48452 4.8164 2.47443 4.84074 2.45648 4.85869C2.43854 4.87664 2.41419 4.88672 2.38881 4.88672Z" fill="#4A73CF"/>
<path d="M2.38881 5.32812H0.757812C0.73243 5.32813 0.708088 5.31804 0.69014 5.30009C0.672192 5.28215 0.662109 5.2578 0.662109 5.23242C0.662109 5.20704 0.672192 5.1827 0.69014 5.16475C0.708088 5.1468 0.73243 5.13672 0.757812 5.13672H2.38881C2.41419 5.13672 2.43854 5.1468 2.45648 5.16475C2.47443 5.1827 2.48452 5.20704 2.48452 5.23242C2.48452 5.2578 2.47443 5.28215 2.45648 5.30009C2.43854 5.31804 2.41419 5.32812 2.38881 5.32812Z" fill="#4A73CF"/>
<path d="M1.62188 5.77539H0.757812C0.73243 5.77539 0.708088 5.76531 0.69014 5.74736C0.672192 5.72941 0.662109 5.70507 0.662109 5.67969C0.662109 5.65431 0.672192 5.62996 0.69014 5.61202C0.708088 5.59407 0.73243 5.58398 0.757812 5.58398H1.62188C1.64726 5.58398 1.6716 5.59407 1.68955 5.61202C1.7075 5.62996 1.71758 5.65431 1.71758 5.67969C1.71758 5.70507 1.7075 5.72941 1.68955 5.74736C1.6716 5.76531 1.64726 5.77539 1.62188 5.77539Z" fill="#4A73CF"/>
<path d="M5.0555 1.56836H3.38086C3.35548 1.56836 3.33113 1.55828 3.31319 1.54033C3.29524 1.52238 3.28516 1.49804 3.28516 1.47266C3.28516 1.44727 3.29524 1.42293 3.31319 1.40498C3.33113 1.38704 3.35548 1.37695 3.38086 1.37695H5.0555C5.08088 1.37695 5.10522 1.38704 5.12317 1.40498C5.14112 1.42293 5.1512 1.44727 5.1512 1.47266C5.1512 1.49804 5.14112 1.52238 5.12317 1.54033C5.10522 1.55828 5.08088 1.56836 5.0555 1.56836Z" fill="#4A73CF"/>
<path d="M5.67292 6.09766H3.38086C3.35548 6.09766 3.33113 6.08757 3.31319 6.06963C3.29524 6.05168 3.28516 6.02734 3.28516 6.00195C3.28516 5.97657 3.29524 5.95223 3.31319 5.93428C3.33113 5.91633 3.35548 5.90625 3.38086 5.90625H5.67292C5.6983 5.90625 5.72265 5.91633 5.74059 5.93428C5.75854 5.95223 5.76862 5.97657 5.76862 6.00195C5.76862 6.02734 5.75854 6.05168 5.74059 6.06963C5.72265 6.08757 5.6983 6.09766 5.67292 6.09766Z" fill="#4A73CF"/>
<path d="M5.09519 5.44141H3.38281C3.35743 5.44141 3.33309 5.43132 3.31514 5.41338C3.29719 5.39543 3.28711 5.37109 3.28711 5.3457C3.28711 5.32032 3.29719 5.29598 3.31514 5.27803C3.33309 5.26008 3.35743 5.25 3.38281 5.25H5.09519C5.12057 5.25 5.14491 5.26008 5.16286 5.27803C5.18081 5.29598 5.19089 5.32032 5.19089 5.3457C5.19089 5.37109 5.18081 5.39543 5.16286 5.41338C5.14491 5.43132 5.12057 5.44141 5.09519 5.44141Z" fill="#4A73CF"/>
<path d="M5.67487 5.76953H3.38281C3.35743 5.76953 3.33309 5.75945 3.31514 5.7415C3.29719 5.72355 3.28711 5.69921 3.28711 5.67383C3.28711 5.64845 3.29719 5.6241 3.31514 5.60616C3.33309 5.58821 3.35743 5.57812 3.38281 5.57812H5.67487C5.70026 5.57813 5.7246 5.58821 5.74255 5.60616C5.76049 5.6241 5.77058 5.64845 5.77058 5.67383C5.77058 5.69921 5.76049 5.72355 5.74255 5.7415C5.7246 5.75945 5.70026 5.76953 5.67487 5.76953Z" fill="#4A73CF"/>
<path d="M3.04883 4.23927C3.02345 4.23927 2.9991 4.22918 2.98116 4.21123C2.96321 4.19329 2.95312 4.16894 2.95312 4.14356V1.08008C2.95312 1.0547 2.96321 1.03035 2.98116 1.01241C2.9991 0.994458 3.02345 0.984375 3.04883 0.984375C3.07421 0.984375 3.09855 0.994458 3.1165 1.01241C3.13445 1.03035 3.14453 1.0547 3.14453 1.08008V4.14356C3.14453 4.16894 3.13445 4.19329 3.1165 4.21123C3.09855 4.22918 3.07421 4.23927 3.04883 4.23927Z" fill="#4A73CF"/>
<path d="M2.69587 1.4707H0.423828V2.26378H2.69587V1.4707Z" fill="#F5F5F5"/>
<path d="M2.69577 2.35938H2.29764C2.27226 2.35938 2.24792 2.34929 2.22997 2.33134C2.21202 2.3134 2.20194 2.28905 2.20194 2.26367C2.20194 2.23829 2.21202 2.21395 2.22997 2.196C2.24792 2.17805 2.27226 2.16797 2.29764 2.16797H2.60039V1.56641H0.519531V2.16797H1.85391C1.87929 2.16797 1.90363 2.17805 1.92158 2.196C1.93953 2.21395 1.94961 2.23829 1.94961 2.26367C1.94961 2.28905 1.93953 2.3134 1.92158 2.33134C1.90363 2.34929 1.87929 2.35938 1.85391 2.35938H0.423828C0.398446 2.35938 0.374104 2.34929 0.356156 2.33134C0.338208 2.3134 0.328125 2.28905 0.328125 2.26367V1.4707C0.328125 1.44532 0.338208 1.42098 0.356156 1.40303C0.374104 1.38508 0.398446 1.375 0.423828 1.375H2.69577C2.70834 1.37499 2.72079 1.37745 2.73241 1.38226C2.74402 1.38706 2.75458 1.39411 2.76347 1.403C2.77236 1.41189 2.77941 1.42244 2.78421 1.43406C2.78902 1.44568 2.79148 1.45813 2.79147 1.4707V2.26367C2.79147 2.28905 2.78139 2.3134 2.76344 2.33134C2.74549 2.34929 2.72115 2.35938 2.69577 2.35938Z" fill="#4A73CF"/>
<path d="M1.00661 0.519531H0.625C0.599618 0.519531 0.575276 0.509448 0.557328 0.4915C0.53938 0.473553 0.529297 0.44921 0.529297 0.423828C0.529297 0.398446 0.53938 0.374104 0.557328 0.356156C0.575276 0.338208 0.599618 0.328125 0.625 0.328125H1.00661C1.03199 0.328125 1.05633 0.338208 1.07428 0.356156C1.09223 0.374104 1.10231 0.398446 1.10231 0.423828C1.10231 0.44921 1.09223 0.473553 1.07428 0.4915C1.05633 0.509448 1.03199 0.519531 1.00661 0.519531Z" fill="white"/>
</svg>
