<svg width="105" height="34" viewBox="0 0 105 34" fill="none" xmlns="http://www.w3.org/2000/svg">
<path d="M29.5411 21.7529H28.1992V23.026H29.5411V21.7529Z" fill="black"/>
<path d="M28.1992 24.454H29.5411V32.8928C29.5411 32.9179 29.5312 32.9419 29.5135 32.9596C29.4958 32.9773 29.4718 32.9873 29.4467 32.9873H28.2936C28.2686 32.9873 28.2446 32.9773 28.2269 32.9596C28.2092 32.9419 28.1992 32.9179 28.1992 32.8928V24.454Z" fill="black"/>
<path d="M31.9688 24.4858L33.3289 24.4707L33.431 32.8299C33.4313 32.8545 33.422 32.8783 33.405 32.8962C33.388 32.914 33.3647 32.9245 33.3401 32.9254L32.1879 32.9673C32.1753 32.9678 32.1628 32.9657 32.1511 32.9613C32.1393 32.9568 32.1285 32.9501 32.1194 32.9414C32.1103 32.9327 32.103 32.9223 32.098 32.9108C32.0929 32.8993 32.0903 32.8869 32.0901 32.8743L31.9688 24.4858Z" fill="black"/>
<path d="M33.1676 25.8133L33.6853 25.3677C34.1839 24.9351 34.7749 24.6224 35.4131 24.4537C35.7421 24.3669 36.0793 24.3151 36.4192 24.2993C37.6579 24.2477 39.5675 24.1101 40.3589 24.7122C41.1503 25.3144 41.245 25.6671 41.4643 26.3552C41.5833 26.7284 41.5361 32.0745 41.5295 32.7604C41.5293 32.7797 41.5215 32.7981 41.5077 32.8117C41.4939 32.8252 41.4754 32.8327 41.4561 32.8326H40.3797C40.3604 32.8326 40.3419 32.825 40.3281 32.8115C40.3144 32.7979 40.3065 32.7795 40.3062 32.7602L40.2127 26.5875C40.2127 26.5875 40.0665 25.5724 39.1202 25.452C38.174 25.3316 35.645 25.0649 34.6127 25.581C33.5586 26.1081 33.1504 26.6907 33.1504 26.6907L33.1676 25.8133Z" fill="black"/>
<path d="M44.4733 27.9663C44.4471 27.9659 44.4213 27.9603 44.3974 27.9497C44.3734 27.9391 44.3518 27.9238 44.3339 27.9047C44.316 27.8856 44.3021 27.8631 44.2931 27.8385C44.2841 27.8139 44.2801 27.7878 44.2814 27.7616L44.301 26.1909C44.3035 26.1328 44.317 26.0757 44.3407 26.0226L44.3443 26.0149C44.4734 25.7401 44.6784 25.5081 44.9352 25.3462C45.192 25.1843 45.4898 25.0993 45.7933 25.1013C46.1855 25.1014 46.6886 25.1058 46.9136 25.1253C47.2187 25.1519 48.7822 25.1886 49.4819 25.2041C49.9455 25.21 50.3889 25.3944 50.72 25.7189C50.9609 26.063 51.3394 26.1745 51.2705 28.0224L51.2877 28.7964L52.5136 28.7869C52.5688 28.0288 52.5645 27.2675 52.5007 26.51C52.4234 25.9596 52.4488 25.4821 51.8178 24.8722C51.4675 24.5412 51.0295 24.3176 50.556 24.228C50.1858 24.1473 49.8085 24.1035 49.4297 24.0971C48.7348 24.0823 46.599 24.0359 45.7394 24.0322C45.3046 24.0251 44.8737 24.116 44.4787 24.2981C44.1101 24.4829 43.7987 24.7642 43.5776 25.1122C43.3565 25.4601 43.234 25.8616 43.2233 26.2737C43.133 28.3898 43.1846 31.0995 43.1846 31.0995C43.1846 31.0995 43.1588 32.493 44.9136 32.7511C46.2812 32.9522 49.4214 32.8893 50.7408 32.8518C51.0344 32.8485 51.3221 32.7683 51.575 32.6191C51.8279 32.4699 52.0373 32.257 52.1821 32.0016C52.205 31.959 52.2264 31.9149 52.246 31.8691C52.4861 31.3378 52.5923 30.7558 52.5554 30.174L51.3572 30.179C51.354 30.1767 51.3458 31.2758 50.9394 31.4777C50.5102 31.6909 46.2396 31.6625 46.2396 31.6625C46.2396 31.6625 45.0124 31.6809 44.7027 31.4401C44.7027 31.4401 44.2448 31.2412 44.262 30.0197L44.2471 29.0207C44.2494 28.9453 44.2811 28.8739 44.3355 28.8216C44.3898 28.7693 44.4625 28.7404 44.5379 28.741L51.3243 28.7963L51.3157 28.0221L44.4733 27.9663Z" fill="black"/>
<path d="M96.9108 28.0843C96.8847 28.0839 96.8588 28.0782 96.8349 28.0676C96.8109 28.057 96.7894 28.0417 96.7714 28.0226C96.7535 28.0035 96.7397 27.981 96.7306 27.9564C96.7216 27.9318 96.7176 27.9057 96.7189 27.8795L96.7385 26.3089C96.741 26.2508 96.7545 26.1937 96.7783 26.1406L96.7818 26.1328C96.9109 25.8581 97.116 25.626 97.3727 25.4641C97.6295 25.3022 97.9273 25.2172 98.2308 25.2192C98.623 25.2193 99.1261 25.2237 99.3511 25.2432C99.6562 25.2698 101.22 25.3065 101.919 25.322C102.383 25.3279 102.826 25.5123 103.158 25.8368C103.398 26.1809 103.777 26.2924 103.708 28.1403L103.725 28.9143L104.951 28.9048C105.006 28.1467 105.002 27.3854 104.938 26.6279C104.861 26.0775 104.886 25.6001 104.255 24.9901C103.905 24.6591 103.467 24.4355 102.993 24.3459C102.623 24.2652 102.246 24.2214 101.867 24.215C101.172 24.2002 99.0365 24.1539 98.1769 24.1502C97.7421 24.143 97.3112 24.2339 96.9162 24.4161C96.5477 24.6008 96.2362 24.8821 96.0151 25.2301C95.794 25.578 95.6715 25.9795 95.6608 26.3916C95.5705 28.5077 95.6221 31.2174 95.6221 31.2174C95.6221 31.2174 95.5963 32.6109 97.3511 32.869C98.7187 33.0701 101.859 33.0072 103.178 32.9697C103.472 32.9665 103.76 32.8862 104.012 32.737C104.265 32.5879 104.475 32.3749 104.62 32.1195C104.642 32.077 104.664 32.0328 104.684 31.987C104.924 31.4558 105.03 30.8738 104.993 30.2919L103.795 30.2969C103.792 30.2946 103.783 31.3937 103.377 31.5956C102.948 31.8088 98.6771 31.7804 98.6771 31.7804C98.6771 31.7804 97.4499 31.7988 97.1402 31.558C97.1402 31.558 96.6823 31.3591 96.6995 30.1376L96.6846 29.1386C96.6869 29.0633 96.7186 28.9918 96.773 28.9395C96.8273 28.8873 96.9 28.8583 96.9754 28.859L103.762 28.9142L103.753 28.14L96.9108 28.0843Z" fill="black"/>
<path d="M54.9551 24.555V25.4669L56.1892 25.4688C56.1991 25.4689 56.2089 25.4708 56.218 25.4747C56.2271 25.4785 56.2354 25.484 56.2424 25.4911C56.2494 25.4981 56.2549 25.5064 56.2586 25.5156C56.2623 25.5248 56.2642 25.5346 56.2641 25.5445L56.2073 32.8135C56.2071 32.8342 56.2152 32.8541 56.2296 32.8689C56.2441 32.8837 56.2638 32.8922 56.2845 32.8925L57.3339 32.9072C57.3442 32.9074 57.3545 32.9055 57.3641 32.9016C57.3737 32.8977 57.3825 32.892 57.3899 32.8848C57.3973 32.8775 57.4031 32.8688 57.4072 32.8593C57.4112 32.8497 57.4133 32.8395 57.4133 32.8291L57.4343 25.5698C57.4344 25.5385 57.4468 25.5085 57.4689 25.4864C57.491 25.4642 57.521 25.4517 57.5523 25.4516L61.4217 25.4346V24.4979L57.5555 24.5002C57.4722 24.4989 57.3774 24.4427 57.3787 24.3593V23.4647C57.3787 23.3703 57.3753 23.1505 57.3766 23.0561C57.3787 22.9013 57.4475 22.7895 57.7314 22.6991C58.1099 22.5787 61.5765 22.6647 61.5765 22.6647V21.6497H57.7821C57.5406 21.6464 57.3016 21.6983 57.0832 21.8014C56.8648 21.9046 56.6729 22.0562 56.522 22.2448C56.3963 22.3963 56.3173 22.581 56.2949 22.7766C56.252 23.3187 56.3065 24.1673 56.2911 24.4382C56.2897 24.4621 56.2794 24.4846 56.2621 24.5011C56.2449 24.5177 56.2221 24.5271 56.1982 24.5276L54.9551 24.555Z" fill="black"/>
<path d="M75.879 25.9508C75.879 25.9508 76.7306 24.7723 77.0575 24.5831C77.0902 24.5642 77.1241 24.5461 77.1586 24.5289C77.4938 24.3675 77.8618 24.286 78.2338 24.2906H81.2324C81.5255 24.2868 81.8154 24.3516 82.0789 24.4799C82.2302 24.541 82.3652 24.6367 82.4731 24.7591C82.5809 24.8815 82.6588 25.0274 82.7004 25.1852C82.7754 25.7629 82.8049 26.3455 82.7889 26.9278C82.7883 26.9588 82.7756 26.9883 82.7534 27.0099C82.7312 27.0315 82.7014 27.0435 82.6704 27.0433H81.7277C81.6986 27.0433 81.6705 27.0323 81.649 27.0126C81.6275 26.9929 81.6141 26.9659 81.6116 26.9369L81.5908 26.6992C81.5839 26.1449 80.9989 25.4309 80.4465 25.3852L80.4209 25.3831C80.1595 25.3547 79.8964 25.3452 79.6336 25.3548C77.2553 25.3917 76.8632 25.9657 75.9392 27.0605L75.9722 32.6374C75.9725 32.7033 75.9471 32.7666 75.9012 32.8139C75.8554 32.8612 75.7928 32.8886 75.727 32.8902L74.8376 32.9121C74.8041 32.913 74.7708 32.9071 74.7396 32.8948C74.7084 32.8826 74.6799 32.8642 74.6559 32.8408C74.6319 32.8174 74.6128 32.7894 74.5998 32.7585C74.5868 32.7276 74.5801 32.6944 74.5801 32.6609V24.2473H75.922L75.8962 25.7014L75.879 25.9508Z" fill="black"/>
<path d="M92.4135 27.479L93.6794 27.4562C93.7038 27.4559 93.7279 27.4506 93.7501 27.4406C93.7724 27.4307 93.7924 27.4163 93.8089 27.3983C93.8253 27.3803 93.838 27.3591 93.846 27.3361C93.854 27.3131 93.8572 27.2886 93.8554 27.2643C93.8529 27.2285 93.8529 27.1927 93.8556 27.1569C93.9436 25.9469 93.6595 24.3336 90.5226 24.2423C90.5127 24.242 90.5027 24.2418 90.4928 24.2417C89.4949 24.2245 85.7444 24.3449 85.7444 24.3449C85.7444 24.3449 84.1444 24.6374 83.9208 26.1169C83.6971 27.5965 83.9575 32.0067 83.9575 32.0067C83.9575 32.0067 84.0435 32.6776 85.007 33.0045C85.007 33.0045 85.8156 33.0036 86.4865 33.0641C86.9763 33.1083 89.3749 33.0469 90.5989 33.0601C91.3379 33.068 92.4654 33.0942 93.1317 32.7744C93.6978 32.5027 93.8372 31.9328 93.8685 31.3809C93.8985 30.982 93.9077 30.5818 93.8959 30.182C93.8936 30.1457 93.8773 30.1117 93.8505 30.0872C93.8236 30.0626 93.7883 30.0494 93.752 30.0504L92.4101 30.0718C92.3758 30.0724 92.3431 30.0863 92.3189 30.1106C92.2947 30.1349 92.2809 30.1677 92.2805 30.202L92.2721 30.9168C92.2703 31.17 92.1802 31.4146 92.0173 31.6085C91.8545 31.8024 91.6291 31.9334 91.3801 31.9789L91.353 31.9836C90.4411 32.1384 86.1424 31.9206 86.1424 31.9206C86.1424 31.9206 85.631 31.8198 85.5403 31.4905C85.4274 30.9297 85.3683 30.3594 85.364 29.7873L85.3003 26.5548C85.2941 26.3725 85.3453 26.1929 85.4466 26.0413C85.548 25.8897 85.6944 25.7737 85.8652 25.7098C85.8707 25.7078 85.8764 25.7059 85.882 25.704C86.39 25.5347 90.0835 25.5796 90.8347 25.5893C90.9128 25.5904 90.9764 25.5897 91.1128 25.5965C91.2503 25.5997 91.3855 25.6314 91.5102 25.6894C91.6348 25.7474 91.7461 25.8305 91.837 25.9336C92.2573 26.2929 92.2359 27.0005 92.2483 27.3233C92.2499 27.3658 92.2681 27.4059 92.299 27.435C92.3299 27.4641 92.3711 27.4799 92.4135 27.479Z" fill="black"/>
<path d="M64.9361 24.612C64.3727 24.678 63.843 24.9151 63.4184 25.2913C62.5512 26.014 62.291 26.8234 62.291 28.7024C62.291 32.0269 63.3895 32.9953 67.2054 33.0097C70.3419 33.0097 71.5127 32.4749 72.1198 30.726C72.51 29.613 72.51 27.7485 72.1198 26.6066C71.7006 25.3636 70.949 24.771 69.5614 24.5686C68.0248 24.3726 66.4687 24.3872 64.9361 24.612ZM69.677 25.5515C70.5443 25.8116 70.8912 26.2597 71.108 27.3582C71.2913 28.4803 71.2322 29.6287 70.9345 30.726C70.8044 31.2608 70.7033 31.3764 69.9806 31.7378C69.2145 32.128 69.0844 32.1425 67.1331 32.1425C65.1529 32.1425 65.0662 32.128 64.488 31.7522C64.0111 31.4343 63.8521 31.203 63.6642 30.5959C63.2305 29.1071 63.5052 26.5343 64.17 25.9273C64.6326 25.5081 65.9768 25.2768 67.639 25.3491C68.3224 25.366 69.0036 25.4336 69.677 25.5515Z" fill="black"/>
<path d="M1.01075e-05 15.7561H6.90463L13.6174 25.5518C13.6174 25.5518 14.7611 27.3419 16.0042 25.5518C17.0867 23.993 28.4254 5.84319 31.337 1.17982C31.5836 0.780375 31.9383 0.458937 32.36 0.252706C32.7817 0.0464741 33.2532 -0.036119 33.7199 0.0144854C34.5556 0.110721 35.4767 0.452648 35.9243 1.4129C36.0953 1.791 36.1682 2.20615 36.1361 2.6199C36.104 3.03365 35.968 3.4326 35.7406 3.77978L17.162 32.7169C16.8149 33.2603 16.2707 33.6481 15.6437 33.7988C14.9862 33.9551 14.1502 33.9647 13.4682 33.3585C12.6106 32.5961 7.34941 25.6243 3.66094 20.6876C2.15863 18.6769 0.938328 17.0331 1.01075e-05 15.7561Z" fill="#4A73CF"/>
</svg>
