<svg xmlns="http://www.w3.org/2000/svg" xmlns:xlink="http://www.w3.org/1999/xlink" width="105" zoomAndPan="magnify" viewBox="0 0 78.75 30.000001" height="40" preserveAspectRatio="xMidYMid meet" version="1.0"><defs><clipPath id="96a3838dc4"><path d="M 1.148438 0 L 77.359375 0 L 77.359375 29.03125 L 1.148438 29.03125 Z M 1.148438 0 " clip-rule="nonzero"/></clipPath><clipPath id="a5347b08b1"><path d="M 21 19 L 23 19 L 23 25.777344 L 21 25.777344 Z M 21 19 " clip-rule="nonzero"/></clipPath><clipPath id="eca1bd1237"><path d="M 24 19 L 26 19 L 26 25.777344 L 24 25.777344 Z M 24 19 " clip-rule="nonzero"/></clipPath><clipPath id="6f773c5d7a"><path d="M 32 18 L 40 18 L 40 25.777344 L 32 25.777344 Z M 32 18 " clip-rule="nonzero"/></clipPath><clipPath id="859bed5644"><path d="M 69 18 L 76.460938 18 L 76.460938 25.777344 L 69 25.777344 Z M 69 18 " clip-rule="nonzero"/></clipPath><clipPath id="209532f324"><path d="M 40 17 L 46 17 L 46 25.777344 L 40 25.777344 Z M 40 17 " clip-rule="nonzero"/></clipPath><clipPath id="3704fefdeb"><path d="M 54 18 L 61 18 L 61 25.777344 L 54 25.777344 Z M 54 18 " clip-rule="nonzero"/></clipPath><clipPath id="ae33826c08"><path d="M 61 18 L 69 18 L 69 25.777344 L 61 25.777344 Z M 61 18 " clip-rule="nonzero"/></clipPath><clipPath id="9180b56371"><path d="M 46 19 L 54 19 L 54 25.777344 L 46 25.777344 Z M 46 19 " clip-rule="nonzero"/></clipPath><clipPath id="f4a8461b06"><path d="M 1.703125 1.824219 L 28 1.824219 L 28 25.777344 L 1.703125 25.777344 Z M 1.703125 1.824219 " clip-rule="nonzero"/></clipPath></defs><g clip-path="url(#96a3838dc4)"><path fill="#ffffff" d="M 1.148438 0 L 77.359375 0 L 77.359375 29.03125 L 1.148438 29.03125 Z M 1.148438 0 " fill-opacity="1" fill-rule="nonzero"/><path fill="#ffffff" d="M 1.148438 0 L 77.359375 0 L 77.359375 29.03125 L 1.148438 29.03125 Z M 1.148438 0 " fill-opacity="1" fill-rule="nonzero"/></g><path fill="#000000" d="M 21.78125 17.191406 L 22.738281 17.191406 L 22.738281 18.085938 L 21.78125 18.085938 Z M 21.78125 17.191406 " fill-opacity="1" fill-rule="nonzero"/><g clip-path="url(#a5347b08b1)"><path fill="#000000" d="M 21.78125 19.09375 L 22.738281 19.09375 L 22.738281 25.042969 C 22.738281 25.085938 22.714844 25.109375 22.667969 25.109375 L 21.847656 25.109375 C 21.804688 25.109375 21.78125 25.085938 21.78125 25.042969 Z M 21.78125 19.09375 " fill-opacity="1" fill-rule="nonzero"/></g><g clip-path="url(#eca1bd1237)"><path fill="#000000" d="M 24.464844 19.117188 L 25.433594 19.105469 L 25.503906 24.996094 C 25.507812 25.039062 25.484375 25.0625 25.441406 25.066406 L 24.621094 25.09375 C 24.574219 25.09375 24.550781 25.074219 24.550781 25.027344 Z M 24.464844 19.117188 " fill-opacity="1" fill-rule="nonzero"/></g><path fill="#000000" d="M 25.320312 20.050781 L 25.691406 19.738281 C 26.050781 19.429688 26.460938 19.214844 26.917969 19.09375 C 27.15625 19.03125 27.394531 18.996094 27.636719 18.984375 C 28.519531 18.949219 29.878906 18.851562 30.441406 19.273438 C 31.003906 19.699219 31.070312 19.949219 31.226562 20.433594 C 31.3125 20.695312 31.277344 24.464844 31.273438 24.949219 C 31.273438 24.980469 31.257812 25 31.222656 25 L 30.457031 25 C 30.421875 25 30.402344 24.980469 30.402344 24.949219 L 30.335938 20.597656 C 30.335938 20.597656 30.234375 19.882812 29.558594 19.796875 C 28.886719 19.710938 27.085938 19.523438 26.351562 19.886719 C 25.597656 20.257812 25.308594 20.667969 25.308594 20.667969 Z M 25.320312 20.050781 " fill-opacity="1" fill-rule="nonzero"/><g clip-path="url(#6f773c5d7a)"><path fill="#000000" d="M 33.367188 21.570312 C 33.273438 21.566406 33.226562 21.519531 33.230469 21.425781 L 33.246094 20.316406 C 33.246094 20.277344 33.257812 20.238281 33.273438 20.199219 L 33.277344 20.195312 C 33.371094 19.996094 33.507812 19.839844 33.695312 19.722656 C 33.882812 19.605469 34.085938 19.546875 34.308594 19.550781 C 34.585938 19.550781 34.945312 19.554688 35.105469 19.566406 C 35.320312 19.585938 36.433594 19.609375 36.933594 19.621094 C 37.277344 19.625 37.570312 19.746094 37.816406 19.984375 C 37.984375 20.226562 38.253906 20.304688 38.207031 21.609375 L 38.21875 22.152344 L 39.089844 22.148438 C 39.132812 21.613281 39.128906 21.078125 39.082031 20.542969 C 39.027344 20.15625 39.046875 19.816406 38.597656 19.386719 C 38.339844 19.148438 38.042969 19 37.699219 18.933594 C 37.433594 18.878906 37.167969 18.847656 36.894531 18.84375 C 36.402344 18.832031 34.878906 18.796875 34.269531 18.796875 C 33.957031 18.789062 33.65625 18.851562 33.371094 18.984375 C 33.105469 19.117188 32.890625 19.308594 32.730469 19.558594 C 32.570312 19.808594 32.484375 20.078125 32.476562 20.375 C 32.414062 21.867188 32.449219 23.777344 32.449219 23.777344 C 32.449219 23.777344 32.429688 24.757812 33.679688 24.941406 C 34.65625 25.082031 36.890625 25.039062 37.828125 25.011719 C 38.289062 25.007812 38.628906 24.808594 38.855469 24.414062 C 38.871094 24.382812 38.886719 24.351562 38.902344 24.320312 C 39.074219 23.941406 39.148438 23.542969 39.121094 23.125 L 38.269531 23.128906 C 38.265625 23.128906 38.261719 23.902344 37.972656 24.042969 C 37.664062 24.195312 34.625 24.175781 34.625 24.175781 C 34.625 24.175781 33.75 24.1875 33.53125 24.015625 C 33.53125 24.015625 33.203125 23.878906 33.21875 23.015625 L 33.207031 22.3125 C 33.210938 22.179688 33.28125 22.113281 33.414062 22.113281 L 38.246094 22.152344 L 38.238281 21.609375 Z M 33.367188 21.570312 " fill-opacity="1" fill-rule="nonzero"/></g><g clip-path="url(#859bed5644)"><path fill="#000000" d="M 70.703125 21.652344 C 70.605469 21.652344 70.558594 21.601562 70.566406 21.507812 L 70.578125 20.402344 C 70.582031 20.359375 70.589844 20.320312 70.605469 20.28125 L 70.609375 20.277344 C 70.703125 20.078125 70.84375 19.921875 71.03125 19.804688 C 71.21875 19.6875 71.421875 19.632812 71.640625 19.632812 C 71.921875 19.632812 72.277344 19.636719 72.4375 19.648438 C 72.65625 19.667969 73.769531 19.695312 74.269531 19.707031 C 74.609375 19.710938 74.902344 19.832031 75.148438 20.066406 C 75.320312 20.3125 75.589844 20.390625 75.539062 21.691406 L 75.554688 22.238281 L 76.425781 22.230469 C 76.464844 21.695312 76.460938 21.160156 76.417969 20.625 C 76.363281 20.238281 76.378906 19.902344 75.929688 19.472656 C 75.675781 19.234375 75.375 19.082031 75.03125 19.015625 C 74.769531 18.960938 74.5 18.929688 74.230469 18.925781 C 73.734375 18.914062 72.214844 18.882812 71.601562 18.878906 C 71.289062 18.875 70.992188 18.9375 70.707031 19.066406 C 70.4375 19.199219 70.222656 19.390625 70.0625 19.640625 C 69.902344 19.890625 69.820312 20.164062 69.8125 20.460938 C 69.746094 21.949219 69.785156 23.859375 69.785156 23.859375 C 69.785156 23.859375 69.765625 24.84375 71.015625 25.023438 C 71.988281 25.167969 74.222656 25.121094 75.164062 25.097656 C 75.621094 25.089844 75.964844 24.890625 76.191406 24.496094 C 76.207031 24.464844 76.222656 24.433594 76.234375 24.402344 C 76.410156 24.023438 76.484375 23.625 76.457031 23.207031 L 75.601562 23.210938 C 75.601562 23.210938 75.59375 23.984375 75.304688 24.128906 C 75 24.277344 71.960938 24.257812 71.960938 24.257812 C 71.960938 24.257812 71.085938 24.269531 70.863281 24.101562 C 70.863281 24.101562 70.539062 23.960938 70.550781 23.097656 L 70.539062 22.394531 C 70.542969 22.261719 70.613281 22.195312 70.746094 22.199219 L 75.578125 22.238281 L 75.574219 21.691406 Z M 70.703125 21.652344 " fill-opacity="1" fill-rule="nonzero"/></g><g clip-path="url(#209532f324)"><path fill="#000000" d="M 40.828125 19.164062 L 40.828125 19.808594 L 41.707031 19.808594 C 41.742188 19.808594 41.761719 19.828125 41.761719 19.863281 L 41.722656 24.984375 C 41.722656 25.023438 41.738281 25.039062 41.777344 25.042969 L 42.523438 25.050781 C 42.5625 25.050781 42.578125 25.035156 42.578125 24.996094 L 42.59375 19.878906 C 42.59375 19.824219 42.621094 19.796875 42.679688 19.796875 L 45.433594 19.785156 L 45.433594 19.125 L 42.679688 19.125 C 42.621094 19.125 42.554688 19.085938 42.554688 19.027344 L 42.554688 18.394531 C 42.554688 18.328125 42.550781 18.175781 42.554688 18.109375 C 42.554688 18 42.605469 17.921875 42.804688 17.855469 C 43.074219 17.773438 45.542969 17.832031 45.542969 17.832031 L 45.542969 17.117188 L 42.84375 17.117188 C 42.472656 17.113281 42.175781 17.25 41.945312 17.535156 C 41.855469 17.644531 41.800781 17.769531 41.785156 17.910156 C 41.753906 18.292969 41.792969 18.890625 41.78125 19.082031 C 41.777344 19.125 41.757812 19.144531 41.714844 19.144531 Z M 40.828125 19.164062 " fill-opacity="1" fill-rule="nonzero"/></g><g clip-path="url(#3704fefdeb)"><path fill="#000000" d="M 55.730469 20.148438 C 55.730469 20.148438 56.335938 19.316406 56.566406 19.183594 C 56.589844 19.171875 56.613281 19.160156 56.640625 19.144531 C 56.882812 19.03125 57.136719 18.976562 57.40625 18.976562 L 59.539062 18.976562 C 59.75 18.976562 59.953125 19.019531 60.144531 19.113281 C 60.375 19.203125 60.523438 19.371094 60.585938 19.609375 C 60.640625 20.015625 60.660156 20.425781 60.648438 20.835938 C 60.648438 20.890625 60.621094 20.917969 60.5625 20.917969 L 59.894531 20.917969 C 59.84375 20.917969 59.816406 20.894531 59.808594 20.84375 L 59.796875 20.675781 C 59.789062 20.285156 59.375 19.78125 58.980469 19.75 L 58.960938 19.75 C 58.777344 19.726562 58.589844 19.722656 58.402344 19.726562 C 56.707031 19.753906 56.429688 20.160156 55.773438 20.929688 L 55.796875 24.863281 C 55.796875 24.976562 55.738281 25.035156 55.621094 25.039062 L 54.988281 25.054688 C 54.863281 25.058594 54.804688 25 54.804688 24.878906 L 54.804688 18.949219 L 55.757812 18.949219 L 55.742188 19.972656 Z M 55.730469 20.148438 " fill-opacity="1" fill-rule="nonzero"/></g><g clip-path="url(#ae33826c08)"><path fill="#000000" d="M 67.5 21.226562 L 68.402344 21.210938 C 68.492188 21.207031 68.53125 21.164062 68.527344 21.074219 C 68.523438 21.050781 68.523438 21.023438 68.527344 21 C 68.589844 20.144531 68.386719 19.007812 66.152344 18.945312 C 66.148438 18.945312 66.140625 18.945312 66.132812 18.945312 C 65.421875 18.929688 62.75 19.015625 62.75 19.015625 C 62.75 19.015625 61.613281 19.222656 61.453125 20.265625 C 61.292969 21.308594 61.480469 24.417969 61.480469 24.417969 C 61.480469 24.417969 61.539062 24.890625 62.226562 25.121094 C 62.226562 25.121094 62.800781 25.121094 63.28125 25.164062 C 63.628906 25.195312 65.335938 25.148438 66.207031 25.160156 C 66.734375 25.164062 67.535156 25.183594 68.011719 24.957031 C 68.414062 24.765625 68.511719 24.363281 68.535156 23.976562 C 68.558594 23.695312 68.5625 23.414062 68.554688 23.128906 C 68.550781 23.066406 68.515625 23.035156 68.453125 23.039062 L 67.496094 23.054688 C 67.4375 23.054688 67.40625 23.085938 67.40625 23.144531 L 67.398438 23.648438 C 67.398438 23.832031 67.335938 23.996094 67.21875 24.136719 C 67.097656 24.277344 66.945312 24.363281 66.765625 24.398438 L 66.746094 24.402344 C 66.09375 24.511719 63.035156 24.355469 63.035156 24.355469 C 63.035156 24.355469 62.671875 24.285156 62.605469 24.054688 C 62.527344 23.65625 62.484375 23.257812 62.480469 22.851562 L 62.433594 20.574219 C 62.425781 20.28125 62.558594 20.082031 62.835938 19.980469 C 62.839844 19.976562 62.84375 19.976562 62.851562 19.972656 C 63.210938 19.855469 65.839844 19.886719 66.375 19.894531 C 66.429688 19.894531 66.476562 19.894531 66.574219 19.898438 C 66.78125 19.902344 66.953125 19.984375 67.089844 20.136719 C 67.386719 20.390625 67.375 20.886719 67.382812 21.117188 C 67.386719 21.191406 67.425781 21.226562 67.5 21.226562 Z M 67.5 21.226562 " fill-opacity="1" fill-rule="nonzero"/></g><g clip-path="url(#9180b56371)"><path fill="#000000" d="M 47.9375 19.203125 C 47.527344 19.253906 47.167969 19.410156 46.855469 19.683594 C 46.238281 20.191406 46.054688 20.761719 46.054688 22.085938 C 46.054688 24.429688 46.835938 25.113281 49.554688 25.125 C 51.785156 25.125 52.621094 24.746094 53.050781 23.515625 C 53.328125 22.730469 53.328125 21.414062 53.050781 20.609375 C 52.753906 19.734375 52.21875 19.316406 51.230469 19.175781 C 50.132812 19.035156 49.035156 19.046875 47.9375 19.203125 Z M 51.3125 19.867188 C 51.929688 20.050781 52.175781 20.367188 52.332031 21.140625 C 52.464844 21.941406 52.421875 22.730469 52.207031 23.515625 C 52.117188 23.890625 52.042969 23.972656 51.527344 24.226562 C 50.984375 24.503906 50.890625 24.511719 49.5 24.511719 C 48.09375 24.511719 48.03125 24.503906 47.617188 24.238281 C 47.277344 24.011719 47.164062 23.851562 47.03125 23.421875 C 46.722656 22.375 46.917969 20.558594 47.390625 20.132812 C 47.722656 19.835938 48.679688 19.671875 49.863281 19.722656 C 50.347656 19.734375 50.832031 19.785156 51.3125 19.867188 Z M 51.3125 19.867188 " fill-opacity="1" fill-rule="nonzero"/></g><g clip-path="url(#f4a8461b06)"><path fill="#4a73cf" d="M 1.703125 12.960938 L 6.621094 12.960938 L 11.398438 19.867188 C 11.398438 19.867188 12.214844 21.128906 13.097656 19.867188 C 13.871094 18.769531 21.941406 5.976562 24.015625 2.6875 C 24.195312 2.402344 24.4375 2.183594 24.742188 2.035156 C 25.050781 1.886719 25.375 1.832031 25.710938 1.867188 C 26.308594 1.933594 26.964844 2.175781 27.28125 2.851562 C 27.40625 3.125 27.457031 3.40625 27.433594 3.703125 C 27.410156 4 27.316406 4.273438 27.152344 4.519531 L 13.921875 24.917969 C 13.667969 25.316406 13.304688 25.570312 12.84375 25.679688 C 12.375 25.789062 11.777344 25.796875 11.292969 25.371094 C 10.683594 24.832031 6.9375 19.917969 4.3125 16.4375 C 3.242188 15.019531 2.371094 13.863281 1.703125 12.960938 Z M 1.703125 12.960938 " fill-opacity="1" fill-rule="nonzero"/></g></svg>