<svg width="225" height="60" viewBox="0 0 225 60" fill="none" xmlns="http://www.w3.org/2000/svg">
<path d="M136.907 13.0208C136.978 13.0453 136.978 13.0453 137.049 13.0703C138.103 13.4454 139.039 14.0002 139.866 14.7721C139.974 14.8729 139.974 14.8729 140.085 14.9758C141.797 16.6242 142.756 19.0246 142.839 21.4217C142.862 22.7519 142.689 24.0321 142.233 25.2797C142.214 25.3299 142.196 25.3801 142.177 25.4319C141.754 26.5651 141.133 27.5319 140.31 28.4015C140.25 28.4665 140.191 28.5315 140.13 28.5984C139.729 29.0266 139.318 29.3787 138.83 29.6959C138.73 29.7628 138.73 29.7628 138.628 29.831C137.73 30.4032 136.763 30.7333 135.724 30.9142C135.667 30.9242 135.609 30.9342 135.55 30.9445C133.45 31.2431 131.469 30.5846 129.759 29.3658C129.389 29.0637 129.046 28.7283 128.697 28.4015C128.673 31.4167 128.648 34.432 128.623 37.5386C127.33 37.5386 126.036 37.5386 124.703 37.5386C124.703 29.5482 124.703 21.5579 124.703 13.3254C125.997 13.3254 127.29 13.3254 128.623 13.3254C128.648 13.9787 128.672 14.632 128.697 15.3051C128.88 15.1166 128.88 15.1166 129.067 14.9244C131.069 12.9032 134.225 12.0751 136.907 13.0208ZM130.077 18.7136C129.21 19.8825 128.945 21.1696 129.067 22.6147C129.246 23.724 129.777 24.649 130.546 25.432C130.597 25.486 130.648 25.5399 130.7 25.5956C131.628 26.5203 132.901 26.8993 134.171 26.8787C135.547 26.7538 136.821 26.1302 137.716 25.0352C138.33 24.1811 138.761 23.2297 138.83 22.1579C138.834 22.1087 138.838 22.0595 138.842 22.0088C138.895 20.7766 138.443 19.6129 137.721 18.6553C137.687 18.6077 137.653 18.5601 137.618 18.5111C136.939 17.6193 135.772 16.9748 134.688 16.8279C132.833 16.6815 131.298 17.2348 130.077 18.7136Z" fill="#F05A22"/>
<path d="M184.317 5.86328C185.562 5.86328 186.807 5.86328 188.089 5.86328C188.089 13.929 188.089 21.9948 188.089 30.3049C186.844 30.3049 185.599 30.3049 184.317 30.3049C184.292 29.6014 184.268 28.8978 184.243 28.1729C184.075 28.3504 183.907 28.5278 183.734 28.7107C183.316 29.1448 182.904 29.5302 182.394 29.8481C182.294 29.9142 182.294 29.9142 182.193 29.9816C180.55 31.0326 178.504 31.3718 176.606 30.9801C174.46 30.4505 172.584 29.0778 171.429 27.1399C170.165 24.9416 169.655 22.3288 170.182 19.8044C170.579 18.229 171.17 16.8602 172.187 15.6095C172.234 15.5488 172.28 15.4882 172.329 15.4257C173.537 13.9245 175.418 12.9303 177.29 12.7161C179.71 12.5468 181.882 13.1163 183.725 14.7719C183.896 14.9478 184.067 15.1237 184.243 15.3049C184.267 12.1892 184.292 9.07343 184.317 5.86328ZM175.663 18.1222C175.619 18.1657 175.575 18.2093 175.53 18.2542C174.628 19.2224 174.282 20.6195 174.297 21.9233C174.353 23.4427 174.977 24.7827 176.051 25.8268C176.988 26.6429 178.156 27.1062 179.391 27.0115C180.759 26.8416 181.886 26.2172 182.764 25.1272C183.646 23.904 183.99 22.4844 183.811 20.9839C183.618 19.6439 182.977 18.4071 181.947 17.5553C179.895 15.9883 177.423 16.2661 175.663 18.1222Z" fill="#F05A22"/>
<path d="M176.332 32.9688C182.775 32.9688 189.219 32.9688 195.858 32.9688C195.858 34.3507 195.858 35.7327 195.858 37.1566C190.757 37.1566 185.656 37.1566 180.4 37.1566C180.4 42.584 180.4 48.0114 180.4 53.6033C173.761 53.6033 167.121 53.6033 160.281 53.6033C160.281 52.1459 160.281 50.6885 160.281 49.187C165.578 49.187 170.874 49.187 176.332 49.187C176.332 43.835 176.332 38.483 176.332 32.9688Z" fill="#1FB04C"/>
<path d="M11.4635 10.127C12.6839 10.127 13.9044 10.127 15.1618 10.127C14.9676 11.1262 14.7684 12.1216 14.5515 13.1155C14.46 13.5364 14.3685 13.9573 14.2742 14.3909C15.2505 14.3909 16.2268 14.3909 17.2328 14.3909C17.2831 14.1255 17.3334 13.8601 17.3853 13.5867C17.6079 12.428 17.8645 11.2784 18.1203 10.127C19.3407 10.127 20.5612 10.127 21.8186 10.127C21.7237 10.7127 21.6241 11.2858 21.4944 11.8628C21.4782 11.9358 21.462 12.0089 21.4453 12.0842C21.3943 12.3138 21.3429 12.5434 21.2916 12.7729C21.2566 12.9301 21.2216 13.0874 21.1867 13.2446C21.1018 13.6268 21.0164 14.0088 20.931 14.3909C21.6876 14.3909 22.4443 14.3909 23.2239 14.3909C23.2239 15.597 23.2239 16.8031 23.2239 18.0457C22.1987 18.0709 21.1736 18.096 20.1174 18.1219C20.0435 18.46 19.9696 18.7981 19.8935 19.1465C19.8466 19.3606 19.7998 19.5747 19.7529 19.7888C19.6785 20.1287 19.6041 20.4686 19.5299 20.8085C19.47 21.0825 19.4101 21.3565 19.35 21.6305C19.3271 21.7351 19.3043 21.8397 19.2815 21.9443C19.2495 22.0907 19.2174 22.237 19.1853 22.3834C19.1671 22.4668 19.1489 22.5501 19.1301 22.636C19.0819 22.8427 19.0819 22.8427 19.0079 23.0711C19.7646 23.0711 20.5212 23.0711 21.3008 23.0711C21.3008 24.2772 21.3008 25.4833 21.3008 26.7259C20.2757 26.7259 19.2505 26.7259 18.1943 26.7259C18.1409 27.0055 18.0875 27.285 18.0325 27.573C17.9029 28.2442 17.7673 28.9137 17.6211 29.5813C17.6055 29.653 17.59 29.7248 17.5739 29.7987C17.5521 29.8972 17.5521 29.8972 17.5298 29.9977C17.517 30.0553 17.5043 30.113 17.4911 30.1724C17.4546 30.3046 17.4546 30.3046 17.3807 30.3808C17.2694 30.3878 17.1579 30.3897 17.0464 30.3894C16.9398 30.3894 16.9398 30.3894 16.831 30.3894C16.7537 30.389 16.6765 30.3886 16.5968 30.3882C16.4788 30.388 16.4788 30.388 16.3584 30.3879C16.1059 30.3874 15.8534 30.3865 15.6009 30.3855C15.4302 30.3851 15.2595 30.3848 15.0888 30.3845C14.6693 30.3836 14.2499 30.3824 13.8304 30.3808C13.9473 29.5918 14.1129 28.8175 14.2834 28.0394C14.378 27.6059 14.4726 27.1725 14.57 26.7259C13.5693 26.7259 12.5686 26.7259 11.5375 26.7259C11.4399 27.2285 11.3422 27.731 11.2416 28.2488C11.1648 28.6079 11.087 28.9662 11.0059 29.3243C10.9867 29.4106 10.9674 29.4968 10.9477 29.5857C10.8074 30.2088 10.8074 30.2088 10.7239 30.3808C9.55228 30.3808 8.38069 30.3808 7.17359 30.3808C7.25681 29.6954 7.25681 29.6954 7.30909 29.4475C7.32069 29.3919 7.3323 29.3362 7.34425 29.2789C7.35658 29.2212 7.36891 29.1634 7.38161 29.1039C7.39446 29.0428 7.40732 28.9816 7.42056 28.9187C7.44754 28.7906 7.47465 28.6626 7.50187 28.5346C7.54356 28.3385 7.58483 28.1423 7.62604 27.9461C7.6524 27.8213 7.67879 27.6964 7.70521 27.5715C7.71753 27.513 7.72986 27.4545 7.74257 27.3942C7.79099 27.167 7.84174 26.9467 7.91323 26.7259C7.08335 26.7259 6.25347 26.7259 5.39844 26.7259C5.39844 25.5198 5.39844 24.3138 5.39844 23.0711C6.49681 23.0711 7.59518 23.0711 8.72684 23.0711C8.77566 22.7696 8.82447 22.4681 8.87477 22.1574C8.90588 21.9967 8.93827 21.8362 8.97304 21.6762C8.99968 21.5529 8.99968 21.5529 9.02685 21.427C9.0455 21.3418 9.06416 21.2566 9.08337 21.1687C9.11261 21.0338 9.11261 21.0338 9.14244 20.8961C9.204 20.6122 9.2659 20.3283 9.3278 20.0445C9.36991 19.8505 9.412 19.6566 9.45406 19.4627C9.55653 18.9903 9.65945 18.518 9.76234 18.0457C8.98128 18.0457 8.20021 18.0457 7.39548 18.0457C7.39548 16.8396 7.39548 15.6336 7.39548 14.3909C8.44503 14.3909 9.49459 14.3909 10.576 14.3909C10.6248 14.0894 10.6736 13.7879 10.7239 13.4772C10.7745 13.2219 10.8264 12.9675 10.8813 12.7131C10.9029 12.6119 10.9029 12.6119 10.925 12.5087C10.955 12.3681 10.9851 12.2276 11.0154 12.087C11.0617 11.8716 11.1077 11.6561 11.1537 11.4406C11.1831 11.3032 11.2125 11.1658 11.2419 11.0285C11.2556 10.9642 11.2694 10.9 11.2835 10.8338C11.2963 10.7743 11.3092 10.7147 11.3224 10.6534C11.3392 10.5751 11.3392 10.5751 11.3564 10.4952C11.3859 10.3707 11.4242 10.2485 11.4635 10.127ZM13.3866 18.0457C13.2023 18.8927 13.2023 18.8927 13.0185 19.7397C12.9436 20.0852 12.8687 20.4306 12.7935 20.776C12.7329 21.0544 12.6725 21.3328 12.6122 21.6113C12.5892 21.7176 12.5661 21.8239 12.5429 21.9302C12.5104 22.0789 12.4783 22.2276 12.4462 22.3764C12.4278 22.4611 12.4094 22.5458 12.3904 22.6331C12.3441 22.8445 12.3441 22.8445 12.3511 23.0711C13.3518 23.0711 14.3526 23.0711 15.3836 23.0711C15.6476 21.9174 15.9099 20.7636 16.158 19.6062C16.181 19.4989 16.2041 19.3917 16.2274 19.2845C16.2599 19.134 16.292 18.9833 16.3241 18.8327C16.3425 18.7468 16.3609 18.6608 16.3798 18.5723C16.428 18.338 16.428 18.338 16.4191 18.0457C15.4184 18.0457 14.4177 18.0457 13.3866 18.0457Z" fill="#F05A22"/>
<path d="M67.755 14.1618C68.0152 14.3774 68.2579 14.6047 68.4947 14.847C68.5358 14.8883 68.5768 14.9295 68.6192 14.972C68.7021 15.0561 68.7835 15.1417 68.8645 15.2277C68.8889 15.2529 68.9133 15.278 68.9384 15.3039C68.9629 14.6003 68.9873 13.8968 69.0124 13.1719C70.2816 13.1719 71.5509 13.1719 72.8586 13.1719C72.8586 18.8255 72.8586 24.479 72.8586 30.3039C71.5893 30.3039 70.3201 30.3039 69.0124 30.3039C68.988 29.6255 68.9636 28.947 68.9384 28.248C68.8149 28.3815 68.6913 28.515 68.564 28.6526C67.0501 30.227 65.1567 31.0772 63.0028 31.0891C60.743 31.0904 58.9182 30.2231 57.2844 28.6145C55.5706 26.8074 54.7416 24.3232 54.7344 21.8231C54.7707 19.3154 55.6494 16.9717 57.326 15.1516C57.3606 15.1139 57.3952 15.0762 57.4308 15.0374C60.0759 12.2165 64.6834 11.9014 67.755 14.1618ZM60.1968 18.3163C59.2249 19.6399 58.9118 21.1528 59.124 22.7898C59.2961 23.7549 59.7325 24.6223 60.3586 25.3546C60.4062 25.4118 60.4539 25.4689 60.503 25.5278C61.3182 26.4384 62.4818 26.9672 63.68 27.0322C65.0257 27.0182 66.1611 26.4904 67.1448 25.5688C67.7447 24.9036 68.1608 24.0836 68.4207 23.2227C68.4479 23.1334 68.4479 23.1334 68.4756 23.0424C68.8189 21.6432 68.5427 20.1418 67.844 18.9138C67.6116 18.53 67.3297 18.2073 67.0154 17.8927C66.9646 17.8389 66.9139 17.7851 66.8617 17.7297C66.046 16.9149 64.9713 16.5307 63.8488 16.4888C62.4006 16.527 61.1416 17.1859 60.1968 18.3163Z" fill="#F05A22"/>
<path d="M205.965 12.6915C206.049 12.6919 206.133 12.6923 206.22 12.6927C208.51 12.7252 210.378 13.651 211.983 15.3042C212.008 14.6006 212.032 13.8971 212.057 13.1722C213.302 13.1722 214.547 13.1722 215.83 13.1722C215.83 18.8257 215.83 24.4793 215.83 30.3042C214.585 30.3042 213.34 30.3042 212.057 30.3042C212.033 29.6006 212.009 28.8971 211.983 28.1722C211.82 28.3465 211.657 28.5208 211.489 28.7004C210.072 30.1732 208.239 31.0677 206.21 31.0945C205.304 31.0931 204.487 31.0583 203.625 30.761C203.579 30.7451 203.532 30.7292 203.484 30.7128C201.383 29.9781 199.707 28.3538 198.722 26.3219C197.576 23.8512 197.45 21.0609 198.308 18.4731C199.113 16.1689 200.732 14.3803 202.871 13.3231C203.855 12.871 204.893 12.6859 205.965 12.6915ZM203.085 18.4831C202.236 19.634 201.944 21.0388 202.072 22.4615C202.267 23.9198 203.005 25.2232 204.143 26.1163C205.208 26.8787 206.39 27.1495 207.663 26.9325C208.92 26.66 209.921 25.9356 210.678 24.885C211.511 23.5658 211.768 22.112 211.487 20.5714C211.161 19.1673 210.381 17.9706 209.192 17.1978C207.037 15.8657 204.658 16.6104 203.085 18.4831Z" fill="#F05A22"/>
<path d="M164.495 13.7814C164.558 13.8177 164.621 13.854 164.686 13.8914C165.883 14.6114 166.883 15.7378 167.486 17.0174C167.509 17.067 167.533 17.1166 167.557 17.1677C167.935 18.0247 168.004 18.8994 167.996 19.8292C167.996 19.9434 167.996 20.0576 167.996 20.1718C167.997 20.4785 167.995 20.7852 167.994 21.0919C167.992 21.4136 167.992 21.7353 167.992 22.057C167.991 22.6648 167.989 23.2726 167.987 23.8804C167.985 24.573 167.983 25.2655 167.982 25.9581C167.98 27.3814 167.976 28.8047 167.971 30.2281C166.629 30.2281 165.286 30.2281 163.903 30.2281C163.903 29.935 163.903 29.6419 163.903 29.3399C163.903 28.3677 163.901 27.3955 163.897 26.4233C163.895 25.8343 163.894 25.2453 163.894 24.6563C163.895 24.1423 163.894 23.6284 163.891 23.1144C163.889 22.8428 163.889 22.5712 163.89 22.2996C163.897 20.5367 163.712 19.0595 162.512 17.7027C161.727 16.9586 160.456 16.6891 159.414 16.7268C158.453 16.8214 157.628 17.1862 156.965 17.9189C156.017 19.101 155.685 20.3324 155.678 21.852C155.677 21.9426 155.676 22.0333 155.676 22.1268C155.674 22.374 155.672 22.6213 155.671 22.8685C155.669 23.1275 155.667 23.3864 155.665 23.6453C155.661 24.135 155.658 24.6247 155.655 25.1144C155.651 25.7269 155.646 26.3395 155.642 26.952C155.634 28.044 155.626 29.136 155.619 30.2281C154.301 30.2281 152.983 30.2281 151.625 30.2281C151.625 24.5745 151.625 18.9209 151.625 13.0961C152.845 13.0961 154.066 13.0961 155.323 13.0961C155.348 13.9253 155.372 14.7545 155.397 15.6088C155.617 15.3324 155.837 15.056 156.063 14.7712C158.235 12.445 161.836 12.1015 164.495 13.7814Z" fill="#F05A22"/>
<path d="M105.915 13.3242C107.257 13.3242 108.6 13.3242 109.983 13.3242C109.985 13.9798 109.987 14.6353 109.989 15.3108C109.991 15.7814 109.993 16.252 109.995 16.7226C109.999 17.3308 110.002 17.9389 110.003 18.5471C110.004 19.0289 110.006 19.5108 110.009 19.9926C110.011 20.2472 110.012 20.5018 110.012 20.7564C110.013 22.3452 110.048 24.068 111.092 25.3547C111.248 25.5104 111.414 25.6477 111.587 25.783C111.632 25.819 111.678 25.8551 111.725 25.8923C112.7 26.6497 113.664 26.8289 114.864 26.7252C115.163 26.6631 115.41 26.5664 115.678 26.4207C115.74 26.3893 115.801 26.3578 115.865 26.3255C116.721 25.8476 117.445 25.044 117.767 24.0927C118.187 22.5526 118.205 20.9999 118.216 19.4141C118.218 19.238 118.219 19.0618 118.221 18.8857C118.225 18.4252 118.229 17.9647 118.232 17.5042C118.237 16.95 118.241 16.3958 118.246 15.8417C118.253 15.0025 118.26 14.1634 118.267 13.3242C119.585 13.3242 120.903 13.3242 122.261 13.3242C122.261 18.9275 122.261 24.5308 122.261 30.3039C121.04 30.3039 119.82 30.3039 118.563 30.3039C118.538 29.4999 118.514 28.6958 118.489 27.8674C118.379 28.0181 118.269 28.1689 118.156 28.3242C117.167 29.6498 116.079 30.3306 114.467 30.5771C114 30.6317 113.535 30.6343 113.066 30.6323C112.991 30.6321 112.991 30.6321 112.914 30.6319C110.825 30.6222 109.352 29.8949 107.829 28.4194C106.446 26.9466 105.901 25.0733 105.906 23.0747C105.906 22.9681 105.906 22.8615 105.906 22.7549C105.906 22.467 105.907 22.1792 105.907 21.8913C105.908 21.5899 105.908 21.2885 105.908 20.9871C105.908 20.4171 105.909 19.847 105.909 19.277C105.91 18.6277 105.911 17.9784 105.911 17.3291C105.912 15.9942 105.913 14.6592 105.915 13.3242Z" fill="#F05A22"/>
<path d="M39.8689 14.7712C39.7577 15.0273 39.6135 15.2228 39.439 15.4375C39.3801 15.5106 39.3211 15.5837 39.2604 15.6591C39.2279 15.6993 39.1954 15.7396 39.1618 15.7811C38.96 16.0317 38.7604 16.2843 38.5606 16.5368C38.5211 16.5865 38.4816 16.6362 38.4409 16.6874C38.1683 17.0319 37.9065 17.3835 37.65 17.7408C37.3363 17.6997 37.1014 17.627 36.8245 17.4707C36.7541 17.4316 36.6836 17.3926 36.611 17.3523C36.5374 17.3109 36.4638 17.2695 36.3879 17.2268C34.8586 16.3872 33.337 15.8808 31.5849 16.2941C31.1554 16.4512 30.7822 16.636 30.5494 17.0555C30.3657 17.5565 30.3059 18.0242 30.5216 18.5165C30.7654 18.9671 31.1282 19.214 31.5849 19.4159C31.8149 19.4698 32.0463 19.5003 32.2803 19.5301C32.3809 19.5439 32.3809 19.5439 32.4835 19.558C32.6263 19.5774 32.7692 19.5965 32.9122 19.6153C33.1349 19.6445 33.3574 19.6749 33.58 19.7055C34.183 19.7879 34.7862 19.8683 35.3909 19.937C36.981 20.1195 38.5261 20.6859 39.597 21.9848C40.5406 23.2829 40.6405 24.6027 40.4375 26.1705C40.2057 27.7695 39.3333 28.9728 38.0937 29.9235C36.7207 30.9408 35.2007 31.0967 33.5542 31.0894C33.4562 31.0892 33.4562 31.0892 33.3562 31.089C32.3347 31.0854 31.331 31.0517 30.3275 30.8372C30.2453 30.8201 30.2453 30.8201 30.1615 30.8025C28.8258 30.5052 27.5834 29.7702 26.5553 28.8575C26.4844 28.7951 26.4136 28.7327 26.3406 28.6684C26.0627 28.4171 25.8074 28.1801 25.5938 27.8677C25.8011 27.568 26.0089 27.2687 26.2169 26.9696C26.3394 26.793 26.4615 26.6161 26.5836 26.4391C26.6681 26.3173 26.7527 26.1954 26.8373 26.0736C26.8771 26.0156 26.9169 25.9577 26.958 25.898C27.1742 25.5874 27.3932 25.3113 27.6648 25.0504C27.7 25.0722 27.7352 25.094 27.7715 25.1164C29.9081 26.4313 32.1156 27.5178 34.6729 27.0158C35.2474 26.8662 35.7717 26.6517 36.0967 26.1164C36.3362 25.6098 36.3496 24.9304 36.1825 24.3943C35.9418 23.9521 35.5626 23.7625 35.1013 23.6262C34.8899 23.5764 34.6782 23.5342 34.4649 23.4943C34.384 23.4786 34.3031 23.4629 34.2198 23.4467C33.3124 23.2781 32.3973 23.1644 31.4817 23.0545C30.0655 22.882 28.8964 22.5541 27.8127 21.5479C27.7621 21.5028 27.7114 21.4578 27.6593 21.4114C26.9246 20.7145 26.237 19.6183 26.1762 18.5713C26.1304 17.1322 26.3842 15.8348 27.3365 14.7237C27.4444 14.611 27.5536 14.4997 27.6648 14.3905C27.7038 14.3489 27.7427 14.3073 27.7829 14.2644C28.4989 13.5557 29.5299 13.1847 30.4754 12.9438C30.5694 12.9195 30.6634 12.8951 30.7603 12.8701C33.6659 12.2131 37.5391 12.7931 39.8689 14.7712Z" fill="#F05A22"/>
<path d="M45.1961 8.45117C46.5141 8.45117 47.8322 8.45117 49.1902 8.45117C49.1902 10.009 49.1902 11.5669 49.1902 13.172C50.6791 13.172 52.168 13.172 53.702 13.172C53.702 14.4032 53.702 15.6344 53.702 16.9029C52.2131 16.9029 50.7242 16.9029 49.1902 16.9029C49.1904 18.4136 49.1904 18.4136 49.1948 19.9242C49.1975 20.5407 49.1998 21.1571 49.1991 21.7735C49.1985 22.2707 49.2002 22.7678 49.2034 23.265C49.2042 23.4543 49.2043 23.6437 49.2035 23.8331C49.2026 24.099 49.2045 24.3648 49.207 24.6307C49.2056 24.7473 49.2056 24.7473 49.2042 24.8662C49.2137 25.4313 49.3691 25.8225 49.7079 26.2684C50.0192 26.5665 50.3509 26.6558 50.7663 26.6648C50.8285 26.6663 50.8907 26.6678 50.9547 26.6694C51.0212 26.6706 51.0876 26.6719 51.156 26.6732C51.2246 26.6748 51.2931 26.6764 51.3637 26.678C51.5822 26.683 51.8008 26.6875 52.0193 26.692C52.1676 26.6953 52.316 26.6986 52.4643 26.7019C52.8275 26.7101 53.1908 26.7178 53.5541 26.7253C53.8174 27.3621 54.0202 28.0143 54.2199 28.6744C54.2758 28.8591 54.3323 29.0436 54.3888 29.2282C54.4245 29.3456 54.4603 29.4631 54.496 29.5806C54.5128 29.6357 54.5297 29.6909 54.5471 29.7476C54.6636 30.1341 54.6636 30.1341 54.6636 30.304C53.9485 30.3093 53.2335 30.3133 52.5184 30.3158C52.1863 30.317 51.8542 30.3186 51.522 30.3212C51.2007 30.3237 50.8794 30.325 50.5581 30.3256C50.4363 30.3261 50.3145 30.3269 50.1928 30.3281C48.748 30.3423 47.4662 30.1038 46.3885 29.0235C46.3108 28.9412 46.3108 28.9412 46.2316 28.8573C46.1867 28.8126 46.1418 28.7679 46.0955 28.7219C45.2861 27.856 45.3945 26.3129 45.3764 25.1882C45.3738 25.0541 45.3711 24.9201 45.3685 24.7861C45.319 22.1587 45.2982 19.5306 45.2701 16.9029C44.1961 16.9029 43.1221 16.9029 42.0156 16.9029C42.0156 15.6717 42.0156 14.4405 42.0156 13.172C43.0896 13.172 44.1636 13.172 45.2701 13.172C45.2579 12.916 45.2457 12.66 45.2331 12.3963C45.1766 11.0814 45.1914 9.76714 45.1961 8.45117Z" fill="#F05A22"/>
<path d="M94.3758 8.45117C95.6694 8.45117 96.9631 8.45117 98.2959 8.45117C98.2959 10.009 98.2959 11.5669 98.2959 13.172C99.7848 13.172 101.274 13.172 102.808 13.172C102.808 14.4032 102.808 15.6344 102.808 16.9029C101.319 16.9029 99.8299 16.9029 98.2959 16.9029C98.2962 18.3693 98.2962 18.3693 98.3005 19.8356C98.3032 20.4341 98.3054 21.0327 98.3048 21.6312C98.3043 22.1141 98.306 22.5969 98.3091 23.0797C98.3099 23.2634 98.31 23.4471 98.3092 23.6308C98.2639 24.9944 98.2639 24.9943 98.8137 26.1923C99.2968 26.6216 99.6656 26.6726 100.285 26.6807C100.355 26.6821 100.425 26.6836 100.497 26.6851C100.721 26.6897 100.944 26.6932 101.167 26.6967C101.318 26.6996 101.47 26.7026 101.621 26.7056C101.992 26.7129 102.363 26.7194 102.734 26.7253C102.997 27.362 103.2 28.0143 103.4 28.6744C103.455 28.8591 103.512 29.0436 103.568 29.2282C103.604 29.3456 103.64 29.4631 103.676 29.5806C103.693 29.6357 103.709 29.6908 103.727 29.7476C103.843 30.1341 103.843 30.1341 103.843 30.304C103.128 30.3093 102.413 30.3133 101.698 30.3158C101.366 30.317 101.034 30.3186 100.702 30.3212C100.38 30.3237 100.059 30.325 99.7378 30.3256C99.616 30.3261 99.4942 30.3269 99.3725 30.3281C97.859 30.343 96.5857 30.0487 95.4621 28.9429C94.5917 28.0136 94.5953 26.8175 94.5587 25.5876C94.5572 25.5384 94.5557 25.4892 94.5541 25.4385C94.5061 23.8469 94.4983 22.2543 94.4843 20.662C94.4799 20.1613 94.4751 19.6606 94.4703 19.1599C94.4631 18.4076 94.4565 17.6553 94.4498 16.9029C93.3758 16.9029 92.3018 16.9029 91.1953 16.9029C91.1953 15.6717 91.1953 14.4405 91.1953 13.172C92.2693 13.172 93.3432 13.172 94.4498 13.172C94.4253 12.8453 94.4009 12.5187 94.3758 12.1821C94.3702 11.8773 94.367 11.574 94.3686 11.2693C94.3686 11.197 94.3687 11.1246 94.3688 11.0501C94.3692 10.785 94.3702 10.5199 94.3712 10.2548C94.3727 9.65959 94.3742 9.0644 94.3758 8.45117Z" fill="#F05A22"/>
<path d="M89.0568 14.162C89.0129 14.4375 88.9402 14.6585 88.8183 14.9074C88.7842 14.9775 88.7502 15.0476 88.7151 15.1198C88.6783 15.1945 88.6414 15.2691 88.6035 15.346C88.547 15.4619 88.547 15.4619 88.4894 15.58C88.3692 15.8261 88.2484 16.0719 88.1276 16.3178C88.046 16.4847 87.9644 16.6517 87.8828 16.8188C87.6829 17.2278 87.4825 17.6366 87.2817 18.0452C87.0167 17.9407 86.8171 17.8294 86.5929 17.6502C85.7487 17.0302 84.6378 16.5486 83.5834 16.6747C82.5995 16.855 81.7642 17.2552 81.1469 18.0863C80.4997 19.0851 80.2335 20.0583 80.2315 21.2451C80.2303 21.3923 80.2303 21.3923 80.2292 21.5425C80.2272 21.8099 80.2261 22.0773 80.2251 22.3447C80.2239 22.6247 80.222 22.9048 80.2201 23.1848C80.2166 23.7144 80.2139 24.244 80.2114 24.7737C80.2086 25.3769 80.205 25.9801 80.2012 26.5834C80.1936 27.8236 80.1871 29.0639 80.1811 30.3041C78.8142 30.3041 77.4473 30.3041 76.0391 30.3041C76.0391 24.6506 76.0391 18.997 76.0391 13.1721C77.2839 13.1721 78.5287 13.1721 79.8113 13.1721C79.8479 14.2652 79.8479 14.2652 79.8852 15.3803C80.0805 15.1039 80.2757 14.8275 80.4769 14.5427C81.2193 13.5353 82.1739 13.0457 83.361 12.8582C85.3865 12.5837 87.4159 12.8261 89.0568 14.162Z" fill="#F05A22"/>
<path d="M191.57 13.0195C192.986 13.0195 194.402 13.0195 195.86 13.0195C195.86 18.7233 195.86 24.4271 195.86 30.3038C194.445 30.3038 193.029 30.3038 191.57 30.3038C191.57 24.6 191.57 18.8962 191.57 13.0195Z" fill="#2F3291"/>
<path d="M145.047 13.0957C146.414 13.0957 147.781 13.0957 149.189 13.0957C149.189 18.7493 149.189 24.4028 149.189 30.2277C147.822 30.2277 146.455 30.2277 145.047 30.2277C145.047 24.5741 145.047 18.9206 145.047 13.0957Z" fill="#F05A22"/>
<path d="M148.223 5.93912C148.852 6.33827 149.287 6.87459 149.481 7.61424C149.559 8.50746 149.482 9.23606 148.926 9.95561C148.447 10.4651 147.922 10.749 147.232 10.7823C146.404 10.7891 145.801 10.5917 145.189 9.99666C144.678 9.38796 144.571 8.74532 144.578 7.96521C144.625 7.33894 144.905 6.76219 145.339 6.31983C146.17 5.69239 147.266 5.42048 148.223 5.93912Z" fill="#F05A22"/>
<path d="M195.288 6.21455C195.739 6.5849 196.005 7.12488 196.157 7.6898C196.234 8.45427 196.164 9.1428 195.733 9.78401C195.361 10.2483 194.896 10.6265 194.308 10.7355C193.504 10.8048 192.841 10.7891 192.163 10.2786C191.627 9.80132 191.317 9.26793 191.248 8.53956C191.214 7.76112 191.327 7.1392 191.812 6.52388C192.764 5.48758 194.163 5.44494 195.288 6.21455Z" fill="#2F3291"/>
</svg>
