<svg width="253" height="260" viewBox="0 0 253 260" fill="none" xmlns="http://www.w3.org/2000/svg">
<g opacity="0.1" clip-path="url(#clip0_276_18708)">
<path fill-rule="evenodd" clip-rule="evenodd" d="M-39.8504 -283.559C-35.5635 -283.834 -31.291 -283.805 -27.0258 -284C-22.3276 -284.281 -18.0696 -281.935 -13.891 -280.115C-5.67084 -276.318 0.983185 -269.878 6.31653 -262.694C13.5912 -253.041 19.8772 -242.58 24.2218 -231.266C28.7685 -219.772 29.9954 -207.318 30.9264 -195.095C31.2584 -191.037 31.8285 -186.915 33.4884 -183.167C35.0039 -179.817 39.1104 -179.002 42.4302 -178.951C48.0643 -178.598 53.6541 -180.144 58.3075 -183.341C62.5006 -186.525 65.4812 -190.972 68.2597 -195.376C73.3909 -203.47 77.2304 -212.357 83.0184 -220.039C88.2865 -227.302 94.9382 -233.451 102.591 -238.132C107.832 -241.288 113.29 -244.07 118.923 -246.457C120.366 -245.504 122.149 -244.955 123.253 -243.504C118.158 -239.547 112.276 -236.84 106.943 -233.259C99.9518 -228.845 93.8352 -223.179 88.9002 -216.545C82.9246 -208.654 78.9841 -199.499 73.6796 -191.182C70.2372 -185.752 66.4121 -180.258 60.8262 -176.843C53.3062 -172.273 43.7654 -170.648 35.3287 -173.406C33.38 -174.065 31.6025 -175.15 30.1256 -176.583C28.6488 -178.015 27.5096 -179.759 26.791 -181.687C23.8465 -188.972 24.1496 -196.95 23.1826 -204.618C22.2732 -211.881 21.3639 -219.216 18.9823 -226.169C15.3522 -236.453 10.2469 -246.154 3.82666 -254.969C-0.561249 -261.091 -5.55536 -266.99 -11.9352 -271.091C-17.4345 -274.614 -23.6483 -276.78 -29.559 -279.466C-32.9221 -280.989 -36.4295 -282.144 -39.8504 -283.559ZM-8.28339 -283.769C-3.71506 -280.072 1.09866 -276.729 5.76083 -273.098C14.0459 -267.242 21.4722 -260.008 26.9137 -251.395C32.777 -241.695 36.3213 -230.772 37.2701 -219.476C37.934 -213.44 37.2195 -207.145 39.4352 -201.361C40.6981 -198.026 43.4045 -194.864 47.1429 -194.394C51.971 -193.788 56.3445 -196.705 59.6931 -199.889C65.3224 -205.419 69.3855 -212.271 74.0333 -218.595C78.5127 -224.654 83.4646 -230.349 88.8425 -235.627C95.1068 -241.735 101.602 -247.698 109.202 -252.037C106.95 -252.969 104.922 -254.362 102.627 -255.185C99.3431 -253.835 96.6224 -251.373 93.7717 -249.294C85.7688 -242.856 78.4745 -235.583 72.0125 -227.598C66.8452 -221.281 62.7026 -214.198 57.5786 -207.874C55.262 -205.275 52.8731 -202.343 49.409 -201.333C47.8862 -200.748 46.5222 -201.925 45.9882 -203.268C44.1045 -207.433 44.5953 -212.112 44.1551 -216.552C43.5304 -231.905 38.5214 -246.758 29.7211 -259.351C23.5434 -267.791 15.9079 -275.235 6.81451 -280.52C4.64941 -281.668 2.72971 -283.451 0.218201 -283.631C-2.60364 -283.834 -5.43268 -283.805 -8.25452 -283.769H-8.28339ZM-60.7795 -280.91C-51.1449 -274.729 -41.0628 -269.257 -31.3704 -263.156C-23.2513 -257.951 -14.923 -252.81 -7.66995 -246.312C-0.0127563 -239.475 5.04636 -230.024 7.26196 -220.046C8.54657 -214.083 9.15277 -207.83 7.83929 -201.816C6.29486 -194.791 2.92456 -188.38 0.254303 -181.76C-1.10971 -178.323 -2.35104 -174.634 -1.82419 -170.879C-1.23242 -166.461 1.95029 -162.75 5.78247 -160.67C9.71573 -158.505 14.3202 -157.956 18.773 -157.905C28.2561 -158.36 37.6814 -159.595 47.1573 -160.223C53.6165 -160.822 60.1478 -160.829 66.5276 -162.223C70.1772 -162.919 73.5781 -164.568 76.386 -167.002C79.6913 -169.999 81.8853 -173.948 84.2814 -177.659C93.6923 -192.721 105.103 -206.437 118.201 -218.429C124.566 -224.335 131.69 -229.613 139.852 -232.746C137.939 -234.19 135.897 -235.504 133.891 -236.818C127.258 -234.414 121.485 -230.212 116.115 -225.728C108.969 -219.571 102.283 -212.899 96.11 -205.766C88.6765 -197.16 82.2823 -187.716 76.3283 -178.034C74.3436 -174.944 72.2074 -171.572 68.6711 -170.092C63.9872 -168.186 58.8416 -168.129 53.8835 -167.674C44.0829 -167.139 34.3256 -166.064 24.5682 -165.176C19.8628 -164.887 14.9408 -164.252 10.4374 -165.97C7.75992 -167.06 5.02469 -169.32 5.04633 -172.468C5.20511 -175.543 6.57635 -178.374 7.74548 -181.175C10.9498 -188.344 14.45 -195.571 15.4532 -203.448C16.579 -214.133 14.1181 -224.999 9.54251 -234.652C5.39276 -243.439 -1.28293 -250.853 -9.0051 -256.629C-19.3292 -264.261 -30.1124 -271.251 -41.2937 -277.56C-44.0723 -279.047 -46.7498 -280.787 -49.6726 -281.956C-53.4078 -282.303 -57.1748 -281.948 -60.7795 -280.91ZM19.1194 -281.458C25.7013 -274.065 33.4379 -267.394 38.0928 -258.463C42.9715 -249.518 44.6241 -239.323 48.377 -229.938C49.8204 -226.703 51.6102 -223.035 55.1032 -221.628C58.7117 -220.386 61.9882 -223.072 64.1605 -225.627C71.0887 -233.93 76.6458 -243.525 85.1474 -250.413C89.0157 -253.604 93.6273 -255.662 98.174 -257.683C95.6048 -258.68 93.2376 -260.16 90.5674 -260.882C87.4713 -259.979 84.6927 -258.189 82.0369 -256.405C73.5714 -250.348 67.6823 -241.634 61.5551 -233.418C60.0324 -231.497 58.7694 -229.244 56.6187 -227.959C53.1257 -233.237 51.8844 -239.554 49.9431 -245.475C47.0563 -255.582 42.7261 -265.488 35.5669 -273.35C33.308 -275.704 31.2872 -278.469 28.4004 -280.079C25.2755 -280.39 22.2155 -280.989 19.0833 -281.458H19.1194ZM-72.1535 -278.801C-63.3344 -272.556 -54.8328 -265.914 -46.2735 -259.308C-36.7254 -251.763 -27.0836 -243.857 -20.5955 -233.396C-15.1756 -225.158 -11.8269 -215.411 -12.0218 -205.52C-11.8125 -198.603 -12.9549 -191.712 -15.3849 -185.232C-18.3582 -176.713 -23.3235 -169.096 -26.932 -160.851C-28.9672 -155.71 -30.7787 -150.245 -30.4106 -144.642C-30.326 -143.04 -29.7803 -141.495 -28.8393 -140.195C-27.8983 -138.895 -26.6019 -137.895 -25.1061 -137.314C-22.0678 -136.224 -18.7336 -136.592 -15.6158 -137.127C-8.93292 -138.571 -2.49539 -140.874 4.16586 -142.347C16.8894 -145.155 30.0315 -146.505 43.0364 -145.234C49.9791 -144.729 56.9724 -144 63.9151 -144.852C70.0711 -145.494 76.2489 -147.314 81.2358 -151.046C84.9165 -153.711 87.7311 -157.313 90.3797 -160.988C95.345 -168.092 99.372 -175.818 104.532 -182.792C111.446 -192.712 120.409 -200.979 129.546 -208.783C136.344 -214.639 143.735 -219.888 151.962 -223.562C150.277 -224.932 148.521 -226.211 146.701 -227.396C137.571 -223.62 129.626 -217.476 122.098 -211.079C113.626 -203.925 105.607 -196.113 99.2205 -186.994C92.9345 -178.633 88.395 -169.089 81.8276 -160.938C78.8406 -157.119 74.715 -154.353 70.0495 -153.039C59.4695 -149.963 48.3986 -152.043 37.6237 -152.454C21.6598 -153.176 5.72473 -150.288 -9.48862 -145.624C-13.5085 -144.577 -17.5644 -142.975 -21.7574 -143.314C-24.1174 -143.552 -23.6194 -146.426 -23.3885 -148.094C-21.6203 -159.183 -14.4106 -168.222 -10.333 -178.46C-5.13281 -189.99 -3.46524 -202.804 -5.54092 -215.281C-7.1431 -225.245 -12.0362 -234.342 -17.9613 -242.37C-24.3628 -250.998 -32.6334 -257.965 -40.9329 -264.629C-48.0656 -270.429 -55.6698 -275.624 -63.6663 -280.159C-66.5531 -280.671 -69.4399 -279.697 -72.139 -278.801H-72.1535ZM-81.5355 -276.794C-80.0921 -275.35 -78.5621 -273.906 -77.0177 -272.556C-72.1535 -268.362 -67.7944 -263.625 -63.0673 -259.272C-51.4264 -248.262 -43.098 -234.053 -38.0822 -218.898C-35.015 -209.383 -33.1386 -199.34 -33.8531 -189.297C-34.3871 -182.027 -35.3975 -174.684 -38.1255 -167.876C-42.5639 -156.375 -50.3005 -146.57 -55.3452 -135.387C-56.4763 -133.035 -57.1475 -130.489 -57.3226 -127.885C-57.427 -125.379 -56.7653 -122.9 -55.4256 -120.779C-54.086 -118.659 -52.132 -116.997 -49.8242 -116.016C-46.0858 -114.464 -41.9433 -114.492 -37.9668 -114.796C-31.3416 -115.388 -24.9762 -117.532 -18.6758 -119.525C-12.0001 -121.691 -5.29556 -123.705 1.26465 -126.174C7.82489 -128.643 14.5006 -130.961 21.4144 -132.297C34.0741 -134.814 47.001 -135.721 59.888 -134.997C66.1668 -134.65 72.5177 -133.452 78.7893 -134.65C86.7279 -135.914 94.3851 -140.094 98.7658 -146.967C104.785 -156.317 109.007 -166.677 114.643 -176.236C120.684 -186.308 129.488 -194.423 139.015 -201.138C146.506 -206.343 154.286 -211.368 163.047 -214.133C161.279 -215.664 159.511 -217.195 157.714 -218.689C147.978 -215.52 139.368 -209.736 131.127 -203.802C122.221 -197.152 114.217 -189.073 108.617 -179.399C103.565 -170.598 99.5308 -161.248 94.2913 -152.548C92.3716 -149.364 89.9611 -146.346 86.663 -144.534C81.0337 -141.256 74.3003 -140.599 67.9349 -141.357C59.1182 -142.316 50.2362 -142.529 41.3837 -141.993C28.8118 -141.134 16.211 -139.105 4.39682 -134.643C-5.89456 -130.542 -16.4169 -127.048 -26.9753 -123.719C-32.7489 -121.994 -38.7967 -120.449 -44.8661 -121.185C-46.9519 -121.445 -49.1386 -122.427 -50.0479 -124.427C-51.2965 -126.918 -50.4304 -129.784 -49.3262 -132.152C-44.4476 -142.823 -37.0574 -152.122 -32.4169 -162.93C-28.1878 -172.475 -26.766 -182.994 -26.5856 -193.355C-26.5495 -206.661 -30.1508 -219.75 -35.4264 -231.887C-40.0091 -242.276 -46.0064 -252.139 -53.7647 -260.47C-60.0578 -267.466 -67.8738 -272.795 -75.2135 -278.621C-77.365 -278.143 -79.4839 -277.528 -81.5572 -276.78L-81.5355 -276.794ZM35.206 -278.585C39.0454 -272.397 44.1623 -267.149 48.4347 -261.257C51.5308 -257.207 54.2805 -252.882 57.6724 -249.063C59.4117 -247.056 62.1614 -245.504 64.8894 -246.428C67.8989 -247.554 69.8113 -250.326 71.9836 -252.557C75.4045 -256.629 79.4677 -260.174 82.4771 -264.6C80.4838 -265.135 78.5362 -265.828 76.653 -266.672C72.0486 -262.203 67.9277 -257.286 63.3594 -252.781C61.1005 -255.12 59.354 -257.835 57.4487 -260.47C53.7608 -265.604 49.9864 -270.715 45.5191 -275.191C44.7974 -275.848 44.119 -276.635 43.1447 -276.83C40.5105 -277.552 37.934 -278.585 35.206 -278.578V-278.585ZM-93.7683 -273.935C-90.7227 -271.343 -87.4967 -268.939 -84.7471 -265.993C-80.1571 -261.113 -75.365 -256.384 -71.3019 -251.041C-66.241 -244.379 -62.0457 -237.101 -58.8165 -229.382C-54.1275 -217.543 -51.815 -204.896 -52.0109 -192.163C-51.8161 -180.879 -55.6988 -170.1 -59.5022 -159.674C-63.789 -147.696 -70.3781 -136.73 -74.9103 -124.853C-77.0754 -119.149 -79.2766 -113.193 -78.923 -106.991C-78.8347 -104.944 -78.2999 -102.941 -77.3562 -101.123C-76.4124 -99.3044 -75.0825 -97.7145 -73.4597 -96.4645C-69.6131 -93.6199 -64.7561 -92.6452 -60.0651 -92.3636C-48.5179 -91.9666 -37.1368 -94.8039 -26.4413 -98.9193C-15.0096 -103.251 -4.86255 -110.435 6.72067 -114.435C19.2998 -119.019 32.9904 -119.438 46.1974 -118.16C58.1632 -116.543 69.8763 -113.316 81.907 -112.074C88.871 -111.364 95.8947 -112.615 102.187 -115.684C110.053 -119.792 114.513 -128.03 117.847 -135.899C121.903 -146.303 124.574 -157.313 130.181 -167.074C135.312 -175.875 141.447 -184.294 149.357 -190.792C156.574 -196.864 165.458 -200.394 174.457 -202.82C173.301 -204.518 171.813 -205.964 170.084 -207.072C166.009 -206.175 162.018 -204.931 158.154 -203.354C150.175 -199.964 143.032 -194.87 137.225 -188.431C129.277 -179.835 122.986 -169.844 118.67 -158.959C114.838 -149.732 112.839 -139.719 107.672 -131.076C105.34 -127.207 102.418 -123.373 98.1885 -121.467C93.0623 -119.229 87.4231 -118.433 81.8781 -119.164C73.2899 -120.182 64.8244 -122.001 56.3373 -123.589C43.7442 -126.165 30.7953 -126.495 18.0874 -124.564C6.25879 -122.73 -4.61716 -117.46 -15.0312 -111.799C-25.669 -105.98 -37.1512 -101.497 -49.1891 -99.7351C-54.5297 -99.0564 -60.0723 -98.5583 -65.3479 -99.9445C-67.9027 -100.666 -70.674 -102.11 -71.4967 -104.811C-72.5721 -108.247 -71.605 -111.893 -70.6451 -115.243C-67.3903 -125.503 -62.3889 -135.083 -57.8422 -144.801C-54.4602 -152.154 -51.5672 -159.723 -49.1819 -167.457C-47.1756 -173.803 -45.5373 -180.308 -45.0538 -186.951C-44.3005 -199.655 -45.8606 -212.391 -49.6582 -224.537C-52.6821 -234.905 -57.7917 -244.486 -63.7818 -253.38C-69.2378 -261.098 -75.6898 -268.26 -83.5346 -273.596C-84.8337 -274.318 -86.0389 -276.051 -87.6988 -275.365C-89.6907 -274.737 -91.7403 -274.361 -93.7683 -273.921V-273.935ZM51.9349 -274.571C54.1 -271.278 56.6187 -267.914 60.2056 -266.095C63.7924 -264.275 67.7328 -266.658 70.5475 -268.982C66.8019 -270.282 63.049 -271.524 59.2601 -272.657C56.7414 -273.033 54.4969 -274.462 51.9349 -274.599V-274.571ZM-104.565 -270.607C-99.3831 -264.333 -93.4579 -258.55 -89.568 -251.33C-83.8738 -240.832 -79.5436 -229.62 -75.7187 -218.299C-71.2586 -205.109 -70.8255 -190.864 -73.0267 -177.189C-74.6505 -165.515 -78.757 -154.382 -83.3037 -143.574C-87.4823 -133.553 -92.9094 -124.08 -96.222 -113.684C-98.2789 -107.186 -100.206 -100.486 -99.8305 -93.6055C-99.5418 -87.9595 -97.6077 -82.1692 -93.5085 -78.1406C-90.0804 -74.8194 -85.6059 -72.8773 -81.1674 -71.3034C-71.9881 -68.1612 -62.0289 -68.1358 -52.8337 -71.2312C-46.4683 -73.361 -40.6442 -76.7688 -34.7408 -79.895C-29.0466 -82.9129 -23.3524 -85.9524 -17.5572 -88.7826C-6.73172 -93.9881 4.42569 -99.0348 16.3625 -101.056C28.6314 -103.489 41.1672 -102.132 53.4072 -100.378C59.6205 -99.4339 65.762 -98.0662 71.7888 -96.284C79.0681 -94.1104 86.5261 -92.5883 94.0748 -91.7355C100.57 -91.1868 107.383 -91.2662 113.46 -93.9015C117.632 -95.6539 121.085 -98.7725 123.253 -102.746C125.969 -107.961 128.318 -113.361 130.282 -118.904C134.158 -129.409 136.236 -140.513 140.725 -150.808C145.055 -160.642 149.963 -170.713 158.464 -177.623C166.006 -184.417 175.511 -188.286 184.763 -192.062C183.522 -193.542 182.201 -194.95 180.916 -196.394C172.372 -193.369 163.964 -189.564 156.783 -183.954C151.337 -179.943 146.697 -174.939 143.107 -169.204C137.227 -159.514 132.687 -149.07 129.611 -138.159C126.385 -126.773 122.885 -115.308 116.931 -105.013C113.669 -99.5979 106.827 -98.1828 101.003 -98.0457C90.2642 -98.0457 79.8068 -100.934 69.5732 -103.865C60.9197 -106.224 52.0765 -107.821 43.1447 -108.637C37.3711 -109.15 31.5037 -109.727 25.6941 -109.193C14.7722 -108.446 4.05295 -105.872 -6.01724 -101.576C-18.1995 -96.5872 -29.7466 -90.3926 -41.2937 -84.1691C-46.1436 -81.5844 -51.0006 -78.8842 -56.2906 -77.3031C-61.4485 -75.7772 -66.8725 -75.3698 -72.2004 -76.1081C-77.5282 -76.8464 -82.6373 -78.7134 -87.1864 -81.5844C-90.9825 -84.0609 -92.6136 -88.696 -92.9167 -93.0279C-93.3713 -99.2369 -91.4733 -105.302 -89.5969 -111.077C-86.4936 -120.745 -81.4345 -129.604 -77.4651 -138.917C-72.2689 -151.191 -67.5635 -163.804 -65.8819 -177.074C-63.623 -191.456 -64.3808 -206.386 -68.9347 -220.263C-72.5937 -231.295 -76.7363 -242.125 -82.0551 -252.471C-86.011 -260.247 -91.5207 -267.127 -98.2428 -272.686C-100.27 -271.778 -102.39 -271.09 -104.565 -270.636V-270.607ZM-115.722 -266.672C-111.558 -260.514 -106.874 -254.716 -102.804 -248.485C-98.008 -241.333 -93.9826 -233.693 -90.7949 -225.692C-87.7349 -217.801 -86.9049 -209.26 -86.8039 -200.856C-86.8039 -195.846 -86.6451 -190.813 -87.2874 -185.832C-88.4494 -175.11 -90.6866 -164.475 -94.692 -154.44C-99.4841 -142.209 -104.796 -130.196 -110.107 -118.189C-114.632 -108.283 -118.277 -97.6919 -118.364 -86.6888C-118.871 -77.4169 -116.304 -68.237 -111.06 -60.5747C-107.856 -55.9396 -102.912 -52.8784 -97.8603 -50.6113C-88.5215 -46.626 -77.9848 -46.395 -68.1409 -48.3949C-57.3948 -50.6199 -47.0993 -54.6372 -37.6853 -60.2787C-26.8598 -66.6466 -15.5797 -72.4586 -3.4408 -75.8663C7.0238 -78.7182 17.7265 -81.0069 28.5953 -81.505C43.8375 -82.4869 59.0003 -79.895 74.0044 -77.5919C87.7166 -75.2238 101.624 -72.6246 115.617 -73.7654C121.889 -74.4007 128.139 -76.6533 132.938 -80.8841C136.431 -83.902 138.365 -88.2628 139.679 -92.5947C142.205 -101.107 143.186 -109.922 145.106 -118.586C146.874 -127.604 150.158 -136.224 153.766 -144.635C157.324 -152.808 163.22 -159.797 170.163 -165.298C177.736 -171.434 186.541 -175.866 195.978 -178.294C194.88 -179.95 193.659 -181.521 192.326 -182.994C182.143 -180.713 172.711 -175.681 164.693 -169.06C157.475 -163.335 151.721 -155.975 147.906 -147.588C143.915 -138.477 140.307 -129.12 138.394 -119.323C136.381 -110.298 135.551 -100.97 132.483 -92.2048C131.348 -88.5637 128.857 -85.4983 125.526 -83.6421C119.031 -79.8517 111.186 -79.9167 103.875 -80.3354C94.7748 -80.6964 85.833 -82.5014 76.8767 -83.9453C63.9512 -86.0463 50.9679 -88.1256 37.8546 -88.5083C25.1847 -88.5614 12.5642 -86.925 0.326477 -83.6421C-12.2671 -80.6603 -24.2112 -75.4187 -35.4264 -69.0003C-42.5495 -64.8705 -49.7231 -60.6758 -57.5896 -58.1055C-68.7976 -54.1707 -81.2901 -52.0048 -92.8589 -55.6797C-97.6005 -57.3763 -102.328 -59.8383 -105.517 -63.8453C-108.671 -68.4255 -110.676 -73.6976 -111.363 -79.2163C-111.956 -85.6379 -111.493 -92.1133 -109.992 -98.385C-107.574 -108.413 -102.537 -117.489 -98.5531 -126.925C-93.1837 -139.603 -87.2369 -152.137 -83.7295 -165.508C-80.7705 -177.984 -79.089 -190.878 -79.9045 -203.722C-80.0059 -209.918 -80.7827 -216.084 -82.2211 -222.111C-84.0326 -229.179 -87.1287 -235.829 -90.5134 -242.247C-95.3187 -251.231 -101.049 -259.688 -107.61 -267.481C-108.152 -267.993 -108.527 -268.802 -109.292 -268.961C-111.457 -268.087 -113.622 -267.481 -115.787 -266.687L-115.722 -266.672ZM-133.317 -259.38C-127.825 -256.073 -123.531 -251.272 -119.172 -246.644C-115.864 -242.897 -113.001 -238.778 -110.642 -234.371C-105.685 -225.254 -102.009 -215.497 -99.715 -205.376C-96.9221 -192.857 -98.4954 -179.688 -102.746 -167.681C-106.73 -154.916 -112.597 -142.895 -117.757 -130.593C-121.907 -121.257 -125.696 -111.756 -129.557 -102.313C-132.63 -94.7929 -134.135 -86.7248 -133.981 -78.6026C-133.772 -68.8486 -131.816 -59.0008 -127.139 -50.3514C-122.513 -40.6985 -115.037 -32.3018 -105.438 -27.3996C-96.3375 -22.2807 -85.3461 -20.4469 -75.1702 -23.0244C-65.5427 -25.2914 -57.6402 -31.5365 -49.3768 -36.6121C-39.273 -42.8717 -29.2559 -49.2684 -18.6036 -54.5173C-4.7565 -61.2168 10.1315 -65.5043 25.4198 -67.1953C38.6356 -68.4134 51.9614 -67.4722 64.8749 -64.4084C76.552 -61.6505 87.7888 -57.3114 99.4009 -54.3007C107.693 -52.2286 116.296 -51.8893 124.805 -52.0553C130.109 -52.1564 135.63 -53.2177 140.004 -56.3872C142.71 -58.3005 144.247 -61.3978 145.315 -64.459C146.917 -69.1952 147.141 -74.2274 147.877 -79.1369C148.902 -87.3892 151.053 -95.4321 153.203 -103.439C155.69 -112.619 159.35 -121.44 164.094 -129.683C169.759 -139.35 178.6 -146.512 186.979 -153.718C192.507 -158.555 198.952 -162.158 205.505 -165.399C204.548 -166.618 203.685 -167.907 202.921 -169.255C200.15 -168.612 197.667 -167.161 195.163 -165.883C187.794 -161.97 181.451 -156.497 175.186 -151.018C168.511 -145.285 162.297 -138.794 158.082 -130.997C150.216 -117.279 145.979 -101.872 142.926 -86.4578C141.772 -80.6026 141.483 -74.6173 140.278 -68.762C139.484 -65.5492 138.3 -61.7877 134.988 -60.3509C129.69 -57.7951 123.592 -58.1416 117.869 -58.3366C110.85 -58.388 103.873 -59.4258 97.142 -61.4194C82.7081 -65.5492 68.5267 -71.0146 53.5443 -72.9712C41.4126 -74.4873 29.0067 -74.5812 16.976 -72.4225C3.66351 -70.21 -9.26035 -66.0884 -21.3966 -60.1848C-32.489 -54.575 -42.9969 -47.9111 -53.5626 -41.4133C-61.2919 -36.7059 -68.7182 -30.8218 -77.826 -29.1396C-85.5538 -27.6177 -93.5691 -28.7578 -100.567 -32.3741C-107.524 -35.5825 -113.468 -40.6396 -117.75 -46.9942C-120.389 -51.0871 -122.581 -55.4511 -124.289 -60.0116C-126.909 -67.6502 -127.515 -75.8447 -127.075 -83.837C-126.656 -90.1544 -124.743 -96.2479 -122.239 -102.024C-119.591 -108.125 -117.187 -114.298 -114.575 -120.442C-110.577 -129.582 -106.636 -138.744 -102.638 -147.877C-99.5851 -155.097 -97.052 -162.475 -94.6992 -169.941C-91.1774 -181.536 -89.9794 -194.004 -92.5342 -205.932C-95.0854 -217.609 -99.2895 -228.863 -105.02 -239.352C-109.35 -247.337 -115.181 -254.666 -122.513 -260.095C-123.957 -260.918 -125.444 -262.564 -127.226 -261.842C-129.305 -261.12 -131.203 -259.987 -133.317 -259.38ZM-151.627 -250.066C-144.814 -243.966 -137.142 -238.753 -131.167 -231.757C-125.393 -225.259 -119.98 -218.278 -115.932 -210.531C-110.461 -199.643 -109.054 -186.951 -111.139 -174.995C-113.665 -160.757 -119.67 -147.487 -125.747 -134.47C-130.467 -124.218 -137.113 -114.976 -141.624 -104.608C-145.528 -95.2227 -148.552 -85.3243 -149.332 -75.1516C-150.133 -63.9175 -146.9 -52.8784 -142.288 -42.7489C-137.554 -32.2513 -131.643 -22.1652 -123.74 -13.7325C-117.187 -6.75809 -108.13 -2.7583 -99.0222 -0.325195C-91.8695 1.61871 -84.3621 1.86594 -77.0971 0.39679C-67.5563 -1.49481 -59.6537 -7.54504 -51.9821 -13.1693C-42.1526 -20.3314 -33.0231 -28.4826 -22.5513 -34.7205C-14.2778 -39.6253 -5.37753 -43.385 3.90607 -45.8968C16.2615 -49.4417 29.1077 -50.7197 41.8745 -51.7449C53.7392 -52.6546 65.9358 -52.308 77.3025 -48.4165C89.1744 -44.4167 101.039 -40.0921 112.016 -33.9769C117.948 -31.2333 124.66 -28.4681 131.271 -30.3236C138.914 -32.2513 144.983 -37.6445 150.49 -43.0233C155.484 -47.9545 158.428 -54.4884 160.139 -61.2245C164.902 -78.2056 167.132 -96.0313 174.782 -112.095C179.242 -121.828 185.831 -130.499 193.503 -137.928C199.63 -143.661 206.154 -148.982 212.815 -154.093C211.69 -155.754 210.787 -157.573 209.445 -159.068C205.837 -156.483 202.228 -153.906 198.677 -151.292C185.196 -141.314 174.039 -128.044 167.211 -112.673C159.453 -95.858 157.245 -77.2959 151.702 -59.7372C150.144 -54.8716 147.316 -50.51 143.511 -47.1025C139.412 -43.3771 135.096 -39.4423 129.611 -37.9478C125.916 -36.8792 122.127 -38.2004 118.656 -39.4423C114.253 -40.9945 110.313 -43.5576 106.041 -45.377C96.4839 -49.4896 86.7151 -53.0902 76.7757 -56.1634C68.4531 -58.4865 59.8287 -59.5452 51.1916 -59.304C40.4022 -59.1669 29.6634 -57.9178 18.9967 -56.4161C5.37833 -54.344 -8.03079 -50.4164 -20.3069 -44.1424C-37.8224 -35.1248 -51.7511 -20.7501 -68.6605 -10.7506C-73.2633 -8.0238 -78.4711 -6.48322 -83.8161 -6.26712C-90.4124 -5.62457 -96.9437 -7.32843 -103.093 -9.55215C-108.642 -11.6098 -114.048 -14.4689 -118.154 -18.808C-124.852 -25.7751 -129.961 -34.114 -134.133 -42.7923C-138.362 -51.6655 -142.021 -61.1379 -142.071 -71.1085C-142.353 -77.3681 -140.967 -83.5338 -139.3 -89.5263C-137.612 -95.7265 -135.272 -101.731 -132.321 -107.439C-127.941 -115.77 -122.824 -123.712 -118.955 -132.311C-112.742 -145.379 -106.968 -158.916 -104.457 -173.305C-102.608 -183.516 -103.194 -194.019 -106.167 -203.961C-109.494 -215.173 -116.682 -224.718 -124.289 -233.418C-130.51 -240.796 -138.333 -246.579 -145.94 -252.398C-147.982 -252.5 -149.599 -250.492 -151.605 -250.052L-151.627 -250.066ZM-169.084 -239.237C-152.868 -232.529 -138.254 -220.942 -129.788 -205.376C-123.878 -194.61 -122.328 -181.984 -125.458 -170.107C-129.066 -156.837 -136.197 -144.837 -144.042 -133.683C-149.815 -125.236 -155.177 -116.391 -158.851 -106.796C-164.514 -92.4111 -166.272 -76.7832 -163.946 -61.4989C-161.059 -42.8717 -153.842 -24.7427 -142.144 -9.88425C-135.311 -1.3168 -126.748 5.71194 -117.014 10.7428C-107.632 15.5801 -96.8932 18.2586 -86.342 16.9302C-76.96 15.7317 -68.6027 10.9522 -60.9672 5.67447C-49.6438 -2.26733 -39.1287 -11.2777 -27.6681 -19.0174C-19.037 -24.8804 -9.81653 -29.824 -0.157074 -33.7675C10.2787 -37.9766 21.3062 -41.0378 32.6007 -41.5216C43.1158 -42.0486 53.5804 -39.7022 63.2511 -35.6518C76.386 -30.1142 89.2322 -23.8835 102.511 -18.6852C111.41 -15.2197 120.893 -12.5773 130.535 -13.3642C140.715 -14.0278 150.313 -18.3481 157.562 -25.5296C163.639 -31.4283 167.666 -39.1246 170.315 -47.0736C173.49 -56.4594 175.439 -66.2423 177.994 -75.8302C180.691 -86.3699 184.388 -96.6277 189.036 -106.464C192.42 -113.417 196.166 -120.283 201.182 -126.196C206.486 -132.405 213.227 -137.105 219.888 -141.733C219.058 -143.177 218.538 -144.845 217.413 -146.101C216.554 -146.274 215.861 -145.567 215.139 -145.278C207.454 -141.379 200.837 -135.661 195.863 -128.622C191.331 -122.052 188.328 -114.594 185.441 -107.193C182.107 -98.4066 178.824 -89.6418 175.937 -80.718C172.718 -70.8846 169.838 -60.9213 165.956 -51.3333C162.982 -44.0485 159.136 -36.8936 153.261 -31.5438C145.005 -23.6958 133.054 -20.2014 121.838 -21.9053C115.04 -22.8006 108.545 -25.1542 102.187 -27.6306C91.4406 -31.912 80.8461 -36.5616 70.0206 -40.6263C61.2087 -43.9186 51.9349 -46.3444 42.4879 -46.4599C27.9746 -46.9581 13.6562 -43.2327 0.210999 -38.0488C-20.9131 -29.58 -39.9081 -16.8153 -58.8382 -4.36832C-66.1345 0.331787 -73.4309 5.29904 -81.7376 8.03537C-92.3032 11.4142 -103.8 9.3999 -113.86 5.28461C-122.744 1.56638 -131.181 -3.59579 -137.741 -10.7362C-145.406 -19.0896 -150.667 -29.3923 -154.189 -40.0993C-157.566 -50.5752 -159.637 -61.6216 -159.075 -72.6463C-158.851 -85.6925 -154.744 -98.3489 -149.534 -110.189C-145.204 -120.146 -139.329 -129.336 -134.198 -138.895C-129.146 -148.736 -124.325 -158.851 -122.023 -169.731C-119.746 -180.381 -120.496 -191.456 -124.188 -201.701C-127.823 -211.968 -133.866 -221.213 -141.812 -228.66C-148.277 -234.516 -155.723 -239.187 -163.809 -242.457C-165.642 -241.482 -167.367 -240.291 -169.106 -239.201L-169.084 -239.237ZM-176.655 -233.75C-175.523 -234.757 -174.278 -235.629 -172.946 -236.349C-166.515 -230.616 -159.017 -225.909 -153.914 -218.826C-151.019 -214.711 -148.933 -210.083 -147.766 -205.188C-145.222 -196.045 -144.103 -186.565 -144.446 -177.081C-145.362 -165.847 -150.782 -155.761 -155.466 -145.725C-159.991 -136.094 -165.714 -127.084 -170.088 -117.38C-181.476 -94.0025 -182.688 -66.1845 -174.519 -41.5721C-171.394 -32.0275 -166.053 -23.4359 -160.54 -15.1186C-155.942 -8.2959 -151.114 -1.40097 -144.619 3.74677C-134.84 11.0966 -122.831 14.7137 -110.945 16.8941C-98.4521 19.3127 -85.5049 18.9807 -73.2504 22.6266C-60.996 26.2727 -52.2202 37.6295 -49.2468 49.7732C-47.3776 57.8811 -46.7714 66.581 -49.4345 74.5806C-51.9027 81.9737 -56.7886 88.2621 -62.2229 93.7276C-66.2244 97.7399 -71.0172 100.875 -76.296 102.933C-81.5067 104.954 -87.0854 105.676 -92.5991 106.283C-103.15 107.301 -113.759 107.07 -124.354 107.048C-134.457 106.673 -144.973 106.471 -154.34 102.16C-164.17 97.9295 -172.202 90.7025 -180.899 84.645C-190.353 78.3277 -202.174 74.1402 -213.584 76.7465C-222.245 78.8475 -229.837 84.0025 -236.238 90.0455C-241.182 94.8178 -245.339 100.326 -249.453 105.821C-252.5 109.784 -255.289 113.939 -257.803 118.261C-259.145 116.043 -260.35 113.745 -261.411 111.38C-258.82 106.709 -255.515 102.5 -252.354 98.2111C-246.977 91.0851 -241.204 84.1613 -233.878 78.9847C-225.68 72.9633 -215.836 68.4437 -205.436 68.8408C-193.983 69.0718 -183.02 73.8152 -173.826 80.4359C-165.996 86.0529 -158.447 92.3269 -149.462 96.0596C-142.829 98.8753 -135.533 99.4384 -128.417 99.85C-122.643 100.29 -116.826 100.327 -111.024 100.247C-102.003 100.189 -92.9022 99.8211 -84.0831 97.8212C-77.1909 96.3411 -71.0926 92.3919 -66.2572 87.3236C-61.6817 82.5801 -57.5103 77.2158 -55.54 70.8118C-54.0172 66.2272 -54.2338 61.3177 -54.6235 56.5815C-55.5689 47.073 -60.2744 37.68 -68.1986 32.1424C-74.4557 27.7527 -82.3222 27.0885 -89.6763 26.1499C-101.44 25.0597 -113.297 23.7818 -124.614 20.208C-134.068 17.3201 -143.255 12.9088 -150.638 6.23041C-158.36 -1.15549 -164.033 -10.3175 -169.828 -19.2195C-175.129 -27.2834 -179.237 -36.0718 -182.024 -45.312C-184.962 -55.3548 -186.867 -65.7874 -186.701 -76.2851C-186.735 -88.6053 -184.479 -100.824 -180.047 -112.319C-175.955 -122.47 -170.506 -131.986 -165.216 -141.552C-161.608 -148.26 -158.425 -155.212 -155.04 -162.049C-153.312 -165.484 -151.863 -169.052 -150.71 -172.72C-148.765 -178.902 -148.086 -185.413 -148.712 -191.863C-149.338 -198.314 -151.257 -204.572 -154.355 -210.264C-156.527 -213.945 -159.198 -217.308 -162.293 -220.256C-166.927 -224.898 -172.527 -228.544 -176.633 -233.721L-176.655 -233.75ZM-184.68 -228.154C-183.064 -229.194 -181.606 -230.465 -179.96 -231.483C-171.791 -224.169 -168.471 -213.166 -166.97 -202.654C-165.065 -189.102 -167.757 -175.348 -172.476 -162.642C-176.251 -152.599 -181.252 -143.213 -185.366 -133.343C-190.851 -120.211 -197.079 -107.294 -200.464 -93.4105C-203.156 -82.9201 -202.239 -71.946 -200.514 -61.3761C-199.136 -53.0155 -197.548 -44.6405 -194.611 -36.6698C-190.786 -26.1939 -186.477 -15.7829 -180.249 -6.4693C-175.861 0.144073 -171.213 7.04623 -164.148 11.0605C-153.214 17.4428 -140.426 18.8723 -128.179 20.995C-119.48 22.5852 -110.922 24.8691 -102.587 27.8249C-94.591 30.4096 -86.4142 33.1532 -79.7818 38.5103C-74.213 42.9104 -70.3103 49.0786 -68.7182 55.9967C-67.4336 61.0073 -67.6068 66.581 -70.2698 71.1584C-74.3474 78.2988 -81.918 82.7101 -89.669 84.8761C-97.6077 87.042 -105.828 87.9156 -113.969 88.9841C-119.947 89.8356 -126.01 89.9229 -132.011 89.244C-138.683 88.9676 -145.237 87.3958 -151.309 84.6161C-160.316 80.7607 -167.908 74.4145 -176.532 69.8877C-185.647 64.7833 -195.535 60.9062 -205.877 59.2457C-212.69 58.2073 -219.659 59.1834 -225.925 62.0542C-235.618 66.7501 -244.606 72.7793 -252.628 79.9666C-257.68 84.5439 -262.775 89.1718 -267.177 94.4062C-267.726 94.8972 -268.094 95.8502 -268.967 95.6047C-269.812 93.7853 -270.317 91.8288 -271.197 90.031C-259.246 75.548 -244.177 63.3754 -226.878 55.9173C-220.484 53.412 -213.433 52.2569 -206.598 53.3326C-195.167 54.7766 -184.276 59.1085 -174.194 64.5883C-165.353 69.1079 -157.595 75.5769 -148.336 79.324C-142.627 81.8943 -136.356 82.8401 -130.142 83.0278C-124.556 83.6198 -118.941 83.0711 -113.398 82.3058C-107.199 81.425 -100.978 80.4936 -94.8725 79.0352C-89.3803 77.6923 -83.8305 75.5841 -79.7168 71.541C-77.227 69.1079 -75.1341 65.8734 -75.2712 62.2563C-75.4372 54.1701 -80.2292 46.5676 -86.9987 42.2863C-92.9455 38.2576 -99.9893 36.4743 -106.651 34.0845C-117.772 30.0053 -129.427 27.5867 -141.097 25.6951C-150.544 24.0417 -160.056 21.4931 -168.283 16.4104C-173.044 13.3406 -177.182 9.39935 -180.48 4.79367C-186.719 -3.50732 -191.904 -12.5507 -195.917 -22.1291C-198.749 -28.6536 -201.159 -35.3529 -203.134 -42.1858C-204.635 -47.7234 -205.667 -53.3765 -206.627 -59.0297C-208.07 -67.9606 -209.124 -77.0432 -208.309 -86.0896C-207.139 -97.5186 -203.112 -108.399 -198.775 -118.962C-194.192 -129.719 -189.66 -140.505 -184.637 -151.068C-179.333 -162.281 -174.865 -174.078 -173.35 -186.445C-172.404 -197.275 -173.617 -208.495 -177.969 -218.545C-179.556 -222.155 -182.118 -225.18 -184.666 -228.133L-184.68 -228.154ZM-194.171 -218.299C-193.45 -220.479 -191.952 -222.316 -189.963 -223.461C-187.632 -216.964 -187.076 -210.047 -186.983 -203.21C-186.744 -190.748 -189.97 -178.46 -194.647 -166.995C-198.255 -158.432 -202.254 -150.072 -205.552 -141.394C-209.94 -129.885 -214.328 -118.29 -216.702 -106.168C-219.784 -91.2508 -219.971 -75.8799 -217.25 -60.8924C-215.085 -49.8316 -212.451 -38.7925 -208.056 -28.4032C-205.097 -21.1833 -202.153 -13.8552 -197.952 -7.24182C-195.279 -3.2099 -192.388 0.672943 -189.292 4.38934C-181.303 14.3239 -171.798 23.4208 -160.265 29.1967C-155.019 31.933 -149.31 33.5791 -143.623 35.1097C-136.918 36.7992 -130.228 38.568 -123.416 39.9398C-118.306 41.1599 -113.146 42.3368 -108.26 44.4016C-103.374 46.4665 -99.2171 50.7984 -97.983 56.105C-96.9293 60.1987 -97.2252 65.0721 -100.3 68.256C-103.959 72.0825 -109.494 72.9561 -114.495 73.5842C-124.267 74.8983 -134.421 73.8369 -143.479 69.8516C-148.268 67.6964 -152.84 65.0878 -157.133 62.0614C-165.736 56.0834 -174.54 50.2136 -184.356 46.4232C-191.042 43.6929 -198.003 41.6911 -205.119 40.4524C-210.553 39.4561 -216.096 39.7304 -221.573 39.8026C-233.517 40.4596 -244.552 46.0767 -254.115 52.9211C-263.158 59.2023 -270.252 67.8734 -275.722 77.353C-277.093 75.2231 -277.353 72.689 -278.133 70.3425C-273.572 63.0505 -268.079 56.2639 -261.339 50.849C-253.595 44.5027 -244.812 39.1601 -235.278 35.8389C-229.03 33.7553 -222.471 32.7566 -215.886 32.886C-203.618 32.5467 -191.544 35.8462 -180.271 40.4669C-169.878 44.6832 -160.518 50.9861 -151.403 57.3757C-144.908 61.7076 -137.763 65.368 -129.954 66.4944C-123.547 67.3437 -117.044 67.1462 -110.699 65.9095C-108.303 65.3753 -105.308 64.61 -104.421 61.9964C-103.998 59.9721 -104.191 57.8679 -104.972 55.9537C-105.754 54.0395 -107.09 52.4026 -108.808 51.2533C-112.417 49.0151 -116.653 48.1632 -120.695 47.0297C-132.725 44.1418 -144.915 41.7303 -156.592 37.5717C-174.937 30.5251 -189.068 15.9122 -200.334 0.237946C-206.764 -8.51971 -210.9 -18.6491 -214.955 -28.6414C-217.791 -35.8317 -220.034 -43.2424 -221.66 -50.7991C-224.279 -61.0249 -225.593 -71.5411 -225.572 -82.097C-225.572 -96.5367 -222.93 -110.919 -218.521 -124.651C-214.327 -137.279 -209.485 -149.682 -204.015 -161.811C-199.908 -170.843 -196.321 -180.171 -194.467 -189.969C-192.561 -199.304 -192.879 -208.942 -194.171 -218.321V-218.299ZM-214.198 -200.25C-214.457 -197.961 -214.198 -195.658 -214.255 -193.355C-214.147 -188.626 -215.222 -183.969 -216.341 -179.42C-219.376 -167.96 -223.302 -156.754 -228.083 -145.906C-232.153 -136.044 -236.816 -126.412 -240.186 -116.261C-244.148 -104.32 -244.747 -91.6489 -244.964 -79.1875C-244.913 -65.3254 -243.52 -51.3911 -239.536 -38.0705C-237.508 -31.0673 -235.314 -24.0207 -231.598 -17.6889C-226.964 -9.7471 -220.924 -2.64279 -216.507 5.46509C-215.475 7.75378 -213.895 10.8078 -215.785 13.082C-219.452 17.6378 -225.55 18.598 -230.876 20.0131C-241.204 22.3378 -251.531 25.3268 -260.769 30.6407C-269.53 35.5646 -276.646 42.7628 -284.058 49.4483C-283.488 51.4482 -282.874 53.4265 -282.34 55.4336C-274.402 49.4917 -267.675 42.0408 -259.08 37.023C-250.485 32.0052 -240.662 29.009 -230.89 26.8358C-225.752 25.5002 -220.383 24.5327 -215.735 21.7819C-212.292 19.6521 -208.915 16.5692 -208.251 12.3961C-207.76 8.34583 -209.442 4.45435 -211.347 0.967163C-217.063 -8.85904 -225.139 -17.299 -229.462 -27.9122C-235.665 -43.4712 -238.693 -60.1149 -238.367 -76.8627C-238.411 -86.299 -238.367 -95.8219 -236.469 -105.107C-234.153 -116.81 -228.473 -127.402 -223.962 -138.318C-218.898 -149.395 -214.653 -160.828 -211.26 -172.525C-208.287 -182.893 -205.956 -194.185 -209.673 -204.69C-211.257 -203.284 -212.767 -201.797 -214.198 -200.235V-200.25ZM-235.798 -174.504C-238.11 -167.296 -240.989 -160.283 -244.408 -153.53C-250.477 -140.758 -255.717 -127.459 -258.423 -113.539C-260.798 -101.988 -258.871 -90.2338 -258.293 -78.6171C-257.759 -70.1121 -257.456 -61.5999 -257.023 -53.095C-256.697 -47.711 -255.603 -42.4013 -253.775 -37.3268C-251.134 -30.107 -248.11 -23.0749 -245.512 -15.8695C-244.3 -12.3318 -242.964 -8.75073 -242.726 -4.9892C-242.546 -0.931671 -245.757 2.23062 -248.955 4.20886C-254.497 7.5733 -260.87 9.18332 -266.658 12.0424C-274.402 15.9555 -281.619 21.3271 -286.67 28.5108C-287.161 29.2328 -287.847 29.9981 -287.609 30.9655C-287.356 33.1748 -286.685 35.2975 -286.432 37.5211C-283.211 33.4122 -279.671 29.5641 -275.845 26.0128C-271.581 22.3283 -266.751 19.3564 -261.541 17.2118C-256.078 14.952 -250.268 13.4286 -245.158 10.3674C-241.001 7.9054 -237.292 4.2233 -235.877 -0.505707C-234.535 -4.76541 -235.661 -9.26337 -236.946 -13.3859C-239.832 -22.0858 -243.874 -30.3381 -247.627 -38.6914C-249.882 -43.5074 -251.368 -48.648 -252.029 -53.9252C-252.895 -61.7515 -253.292 -69.614 -253.79 -77.4691C-254.136 -84.9994 -254.901 -92.5153 -254.613 -100.06C-254.613 -106.558 -252.909 -112.897 -251.047 -119.063C-247.201 -130.892 -242.463 -142.411 -236.873 -153.523C-231.759 -164.087 -228.242 -175.353 -226.438 -186.951C-229.642 -182.879 -233.467 -179.16 -235.82 -174.504H-235.798ZM199.031 -102.204C205.346 -113.532 215.45 -122.268 226.636 -128.586C227.409 -127.112 228.03 -125.564 228.491 -123.965C222.443 -119.828 217.232 -114.637 212.108 -109.446C205.548 -102.702 201.355 -94.1036 197.941 -85.447C194.665 -77.0143 192.478 -68.2133 189.562 -59.6506C187.195 -52.7412 185.312 -45.6513 182.475 -38.9008C179.206 -31.4571 176.651 -23.3637 170.928 -17.3496C164.416 -10.7628 156.727 -5.45593 148.26 -1.70419C144.406 0.324585 139.874 1.4653 136.857 4.79367C135.928 5.7843 135.287 7.00995 135.004 8.33832C134.72 9.66666 134.804 11.0473 135.248 12.3312C136.417 15.7678 138.134 19.4066 141.519 21.161C148.938 25.2258 157.541 25.7745 165.653 27.5506C175.427 29.7523 185.531 30.0659 195.423 28.4747C206.789 25.825 217.434 20.7711 228.736 17.8688C236.177 16.071 243.841 14.8148 251.534 15.183C251.393 17.1846 251.133 19.176 250.755 21.1466C242.877 21.6825 235.08 23.072 227.502 25.2908C217.088 28.4386 207.042 32.8138 196.418 35.2325C186.935 36.8779 177.224 36.6916 167.81 34.6838C162.686 33.6008 157.548 32.5972 152.402 31.6153C147.35 30.5901 142.299 29.2111 137.875 26.5615C133.205 23.7818 130.289 18.8146 128.752 13.7246C128.071 11.3358 128.017 8.81146 128.596 6.39578C129.175 3.98007 130.368 1.75467 132.058 -0.0653076C135.572 -4.09396 140.812 -5.76175 145.438 -8.12265C152.707 -11.4443 159.417 -15.8746 165.328 -21.2555C168.713 -24.4683 170.957 -28.6269 172.862 -32.8072C175.15 -37.955 177.488 -43.0955 179.278 -48.4454C182.021 -57.037 185.312 -65.4481 187.859 -74.1047C190.746 -83.7648 194.066 -93.3961 199.082 -102.19L199.031 -102.204ZM-272.807 -108.904C-274.185 -105.201 -274.402 -101.208 -274.676 -97.2948C-275.549 -89.353 -276.74 -81.4112 -276.841 -73.3827C-276.458 -64.4084 -275.563 -55.3331 -272.734 -46.756C-270.569 -40.2581 -268.296 -33.7603 -266.961 -27.0097C-265.642 -20.0173 -267.114 -12.7864 -271.06 -6.86636C-276.061 0.440094 -283.668 5.29904 -289.824 11.4937C-290.163 14.1 -289.521 16.7497 -289.102 19.3272C-282.059 12.9593 -274.113 7.56607 -267.827 0.404022C-262.964 -5.33575 -260.131 -12.5203 -259.766 -20.0354C-259.448 -26.1072 -261.209 -32.0058 -263.006 -37.7456C-264.659 -43.2038 -266.961 -48.4526 -268.375 -53.9758C-269.79 -59.9666 -270.635 -66.0776 -270.901 -72.2275C-271.392 -77.8301 -270.569 -83.4255 -270.728 -89.0353C-270.872 -97.9734 -269.97 -106.89 -269.869 -115.821C-271.219 -113.655 -271.702 -111.171 -272.792 -108.904H-272.807ZM220.682 -101.439C224.29 -106.255 228.563 -110.536 232.561 -115.034C233.217 -112.818 234.112 -110.68 235.231 -108.659C231.161 -103.54 226.614 -98.7676 223.143 -93.1867C217.791 -84.659 213.531 -75.4927 210.463 -65.903C207.222 -56.7699 203.801 -47.6873 199.868 -38.8286C196.354 -30.8362 191.208 -23.7175 185.918 -16.8225C181.66 -11.2849 176.81 -6.09384 171 -2.15182C166.908 0.736115 162.434 3.09698 158.392 6.0788C157.161 6.98233 156.184 8.18845 155.556 9.58041C156.935 11.2265 159.049 11.8691 161.041 12.4684C166.353 14.0567 171.96 13.9845 177.46 14.0206C182.81 14.0376 188.137 13.3086 193.286 11.8546C201.225 9.68869 208.442 5.50842 216.482 3.7179C228.151 0.829987 240.254 2.51941 252.119 2.8443C252.032 5.09689 251.917 7.34225 251.686 9.58765C241.099 9.89087 230.36 8.03537 219.888 10.3529C212.729 11.7608 206.284 15.2985 199.428 17.5728C192.725 19.8547 185.695 21.0301 178.614 21.0527C172.516 20.8 166.288 20.9228 160.391 19.0962C157.584 18.2225 154.719 17.2479 152.373 15.414C151.164 14.4763 150.271 13.1898 149.815 11.7283C149.36 10.2668 149.363 8.70056 149.826 7.24118C150.778 4.2955 153.225 2.18732 155.599 0.31015C159.857 -2.80881 164.52 -5.36465 168.72 -8.57025C175.504 -13.5808 180.548 -20.4685 185.319 -27.3418C189.394 -33.2092 192.784 -39.5244 195.423 -46.1639C199.414 -55.7446 202.805 -65.5564 206.335 -75.3176C210.066 -84.5662 214.677 -93.5405 220.725 -101.504L220.682 -101.439ZM216.907 -71.0146C222.963 -80.4473 230.703 -88.683 239.742 -95.3093C240.42 -93.4033 241.185 -91.3096 240.983 -89.288C233.976 -81.1729 225.828 -73.7076 221.158 -63.8597C217.275 -55.3042 216.229 -45.7452 212.743 -37.0814C209.135 -28.1216 203.015 -20.3314 195.798 -13.9779C191.771 -10.007 187.036 -6.62814 183.911 -1.82693C190.667 -2.46951 196.657 -5.94223 203.051 -7.92047C210.477 -10.4835 218.358 -11.3643 226.181 -11.4799C235.058 -11.0828 243.863 -9.711 252.696 -8.7291C252.747 -6.62811 252.696 -4.52716 252.581 -2.42618C244.144 -2.90268 235.773 -4.21671 227.322 -4.59213C220.184 -4.66434 212.96 -4.02176 206.125 -1.8486C198.526 0.403992 191.367 4.46875 183.312 4.90195C180.592 4.96692 177.712 3.3569 177.005 0.620605C176.182 -2.48395 178.102 -5.44406 179.942 -7.77606C184.164 -12.83 189.324 -16.9742 194.001 -21.5587C200.865 -28.1163 205.815 -36.4202 208.319 -45.5791C210.73 -54.2068 212.072 -63.3616 216.929 -71.0723L216.907 -71.0146ZM235.433 -71.0146C238.248 -74.675 240.449 -78.8264 243.661 -82.1765C244.599 -79.5268 244.945 -76.7038 245.53 -73.9531C241.864 -67.1015 236.314 -61.4267 232.936 -54.3945C229.328 -47.3841 228.57 -39.3051 224.832 -32.3524C223.208 -29.1035 220.747 -26.3816 219.116 -23.1471C223.013 -22.9377 226.917 -23.1471 230.807 -22.7572C238.133 -22.2302 245.963 -21.8475 252.357 -17.8622C253.483 -15.8912 252.754 -13.2632 252.913 -11.0394C249.304 -12.2307 245.754 -13.8913 241.957 -14.505C235.953 -15.3848 229.902 -15.9056 223.836 -16.0645C221.165 -16.1655 218.344 -16.0067 215.897 -17.3207C214.72 -17.9359 213.78 -18.9226 213.221 -20.1277C212.662 -21.3327 212.517 -22.6886 212.808 -23.9846C213.595 -27.414 216.027 -30.0998 217.68 -33.1321C221.288 -39.2257 222.01 -46.4094 224.5 -52.9361C226.874 -59.6434 231.168 -65.3903 235.397 -70.9857L235.433 -71.0146ZM-284.505 -68.9209C-281.068 -56.0184 -279.548 -42.6799 -279.995 -29.3345C-280.334 -23.9341 -281.149 -18.4398 -283.416 -13.4509C-285.033 -9.91214 -287.605 -6.8945 -290.842 -4.73654C-291.015 -7.4436 -291.015 -10.159 -290.842 -12.8661C-290.322 -14.671 -289.189 -16.2377 -288.626 -18.0282C-286.006 -25.6163 -286.605 -33.7675 -286.815 -41.6443C-286.909 -46.9509 -288.511 -52.3369 -286.865 -57.528C-286.54 -61.4068 -285.748 -65.2322 -284.505 -68.9209ZM239.446 -58.9864C236.906 -55.0154 235.765 -50.3947 234.437 -45.9257C233.658 -42.8139 232.518 -39.6156 233.095 -36.3666C233.976 -32.208 237.541 -29.2912 241.2 -27.5295C244.859 -25.7679 248.77 -24.4178 252.53 -22.8078C252.608 -25.2516 252.403 -27.6963 251.917 -30.0926C248.749 -31.5871 245.422 -32.6989 242.419 -34.5472C241.07 -35.4641 239.533 -36.7781 239.713 -38.5831C239.987 -41.8465 240.875 -45.0232 241.604 -48.2144C242.78 -52.604 243.56 -57.2175 245.934 -61.1595C246.519 -62.3219 247.377 -63.376 247.652 -64.6828C247.482 -66.0357 247.13 -67.3593 246.605 -68.6176C243.61 -65.8957 241.553 -62.3797 239.388 -58.9864H239.446ZM247.146 -42.258C247.984 -40.0921 249.838 -38.612 251.635 -37.2619C251.477 -43.1027 249.911 -48.8136 249.579 -54.5895C246.908 -51.2106 245.357 -46.3733 247.146 -42.2363V-42.258ZM4.79373 -23.2409C12.3354 -23.5947 19.8844 -23.7897 27.4333 -24.2084C40.5538 -24.1146 53.6165 -22.6706 66.672 -21.4793C73.7157 -20.6418 80.6945 -19.4289 87.7022 -18.3315C93.3387 -17.4579 98.4771 -14.8299 103.919 -13.2343C106.986 -12.2307 110.414 -13.0249 113.373 -11.5737C116.332 -10.1225 118.771 -7.63889 119.457 -4.41162C120.179 -1.38654 120.388 2.20175 118.302 4.75757C116.382 7.12567 113.178 7.78265 110.291 7.9054C105.671 8.02576 101.072 8.56708 96.5502 9.52264C89.4054 11.0533 82.0513 11.8186 75.123 14.2733C70.1167 15.9244 65.5494 18.6891 61.7644 22.3595C57.7846 26.5022 54.9149 31.5832 53.4216 37.1313C52.1133 42.785 51.1206 48.5071 50.4482 54.2712C49.5678 61.2311 50.6647 68.1982 51.805 75.0571C52.9886 81.7571 53.3423 88.5582 54.0856 95.3087C55.6589 110.117 55.3413 125.033 55.363 139.898C55.3052 148.837 57.1961 157.666 59.7942 166.171C62.948 176.026 66.8813 185.737 72.6548 194.379C76.7957 200.565 81.3327 206.476 86.2372 212.075C91.7654 218.573 98.0585 224.399 103.623 230.847C101.559 231.987 99.2926 232.796 97.4018 234.168C85.3206 222.717 73.9034 210.342 64.9254 196.307C59.9602 188.531 56.3878 179.969 53.3783 171.269C49.8853 160.98 47.5326 150.194 47.6047 139.285C47.6047 124.6 48.0089 109.864 46.5222 95.2437C45.9088 89.0058 45.584 82.7318 44.5808 76.5444C43.5633 69.7072 42.358 62.8267 42.9354 55.874C43.354 50.0259 44.4798 44.2573 45.4974 38.4814C47.6048 26.8214 54.9155 15.9483 65.51 10.4179C75.3756 4.95248 86.8145 4.15109 97.6688 1.99237C102.721 0.95993 107.939 1.27039 113.034 0.461761C113.156 -1.3071 113.286 -3.42252 111.843 -4.70764C110.075 -6.4332 107.455 -5.63181 105.268 -5.97833C98.5998 -6.88803 92.6891 -10.5774 86.0279 -11.5232C77.8222 -12.7289 69.6598 -14.3245 61.3819 -14.9598C48.3914 -16.05 35.307 -17.5445 22.2299 -16.8514C14.5294 -16.1872 6.75674 -16.4688 -0.907654 -15.4074C-8.91849 -14.3317 -16.1426 -10.3535 -22.9266 -6.18771C-28.2289 -2.70389 -33.2504 1.18985 -37.9451 5.45789C-41.5536 8.86566 -45.0105 13.0532 -45.559 18.1792C-45.8188 22.5111 -43.6753 26.4098 -41.7412 30.1208C-38.9843 35.2686 -36.5233 40.6474 -35.3614 46.4016C-33.817 53.5203 -34.3654 60.8412 -34.8346 68.0611C-35.2422 74.0112 -36.4436 79.88 -38.407 85.5114C-40.3195 91.3739 -42.5784 97.4819 -41.7628 103.749C-40.6442 107.243 -37.5626 109.525 -35.1449 112.145C-31.4787 115.835 -27.7908 119.596 -25.0412 124.058C-22.3206 128.436 -20.2311 133.175 -18.8346 138.137C-16.1685 146.96 -14.3725 156.023 -13.4724 165.197C-13.0105 170.871 -12.5053 176.546 -11.7187 182.185C-10.5278 190.618 -10.2103 199.173 -8.29059 207.498C-6.2482 216.45 -3.62845 225.49 1.39456 233.28C6.73511 241.034 10.9715 249.481 14.8181 258.058C12.7469 258.239 10.69 258.441 8.62598 258.578C4.99878 251.035 0.777985 243.792 -3.99652 236.919C-10.2608 227.887 -13.3641 217.252 -15.7169 206.704C-17.3912 198.884 -17.8819 190.892 -19.0367 183.008C-19.8738 177.16 -20.3862 171.269 -20.8914 165.392C-21.757 156.79 -23.4488 148.291 -25.9433 140.014C-27.3983 134.81 -29.7396 129.896 -32.8643 125.488C-35.946 121.105 -40.0813 117.661 -43.6898 113.734C-46.8003 110.478 -49.4633 106.333 -49.2252 101.648C-49.4706 91.2223 -43.7547 82.0026 -42.4412 71.8515C-41.7547 66.1556 -41.4677 60.4187 -41.5824 54.6827C-41.6474 48.4809 -43.531 42.409 -46.2951 36.9291C-48.8643 31.6731 -52.1264 26.5037 -52.6388 20.5257C-53.2017 15.0964 -50.9789 9.76813 -47.7457 5.51566C-45.5976 2.85175 -43.2188 0.382629 -40.637 -1.86304C-32.2076 -9.27057 -22.8039 -15.7179 -12.3465 -19.9126C-6.84155 -21.9612 -1.03467 -23.0811 4.83707 -23.2265L4.79373 -23.2409ZM15.1068 -10.5124C21.234 -11.877 27.52 -12.7289 33.7987 -12.1513C39.4568 -11.617 45.2809 -11.1911 50.607 -9.02512C55.3413 -7.09021 59.1302 -2.66443 59.5921 2.52661C60.0685 7.41446 57.5714 11.8691 55.4785 16.0999C50.6936 24.7637 44.7469 32.9366 41.1023 42.2429C37.6414 52.2726 36.2469 62.8997 37.003 73.4832C37.8691 87.7062 40.2362 101.843 39.796 116.131C39.796 124.643 38.8289 133.126 38.7784 141.638C38.6774 152.172 41.7085 162.432 45.5118 172.157C48.81 180.575 53.5732 188.286 58.3364 195.924C64.8894 206.523 70.8795 217.512 78.2913 227.554C81.0409 231.395 84.137 234.969 87.2042 238.572C85.2484 239.438 83.1989 240.016 81.2791 240.983C69.2845 228.616 61.0716 213.317 51.8844 198.906C47.1068 191.455 42.5023 183.824 39.1898 175.615C34.4194 163.94 30.9336 151.443 31.4965 138.722C32.1244 126.383 33.0987 113.994 31.98 101.648C31.0418 88.2622 28.6674 74.891 29.5984 61.4405C30.3202 53.3904 31.8357 45.3258 35.0039 37.8461C38.6124 29.6949 43.6643 22.3162 48.312 14.7426C50.0152 11.602 51.9205 8.43246 52.5628 4.88028C52.9886 1.54474 50.3183 -1.29266 47.3161 -2.23846C42.3941 -3.85568 37.169 -4.13007 32.0522 -4.5488C25.0373 -5.06143 18.1668 -3.2709 11.354 -1.86304C3.81226 -0.195251 -3.87381 1.36423 -10.8382 4.81531C-13.8332 6.25928 -16.7994 8.0498 -18.7768 10.7789C-21.476 14.461 -22.674 19.0023 -23.2153 23.4714C-23.937 30.0703 -22.8039 36.6548 -22.5874 43.2537C-22.0822 52.524 -23.0637 61.7726 -23.7205 71.0067C-24.1535 77.7645 -25.4092 84.4934 -25.1638 91.28C-25.1205 94.9766 -23.2513 98.2761 -21.5554 101.388C-15.89 111.272 -9.74121 121.033 -6.24097 131.949C-3.71503 139.725 -1.23962 147.544 0.254303 155.602C2.35443 167.233 4.26691 178.907 5.84021 190.632C8.00531 203.801 9.1095 217.555 15.4676 229.547C19.9421 238.752 27.4695 246.102 31.6697 255.452C29.7882 255.995 27.8515 256.325 25.8961 256.434C18.9679 247.445 11.4622 238.673 7.04544 228.089C2.26062 217.259 1.01205 205.325 -0.950958 193.758C-3.11603 179.571 -5.14398 165.334 -8.29059 151.32C-11.1269 140.967 -13.9703 130.469 -19.116 120.997C-21.642 116.232 -24.2665 111.524 -26.9897 106.875C-29.5806 102.37 -32.1426 97.6046 -32.4818 92.3197C-32.8932 86.4283 -31.9333 80.5658 -31.4931 74.6961C-30.8725 67.2813 -30.4323 59.8521 -30.0497 52.4157C-29.7899 44.8565 -30.6776 37.319 -31.1034 29.7815C-31.1034 23.1537 -30.1652 16.3454 -27.2567 10.3313C-24.8409 5.4187 -20.8912 1.42694 -16.0055 -1.03995C-6.36365 -6.28879 4.58447 -8.17319 15.179 -10.5124H15.1068ZM-7.7926 9.60928C-1.79639 4.16165 5.97604 1.08221 14.0748 0.945496C19.4803 0.801086 24.8425 1.86963 30.0315 3.3208C33.8853 4.36768 37.5876 7.22675 38.4248 11.3059C39.1826 15.1613 37.4 18.9229 35.4297 22.1357C32.8049 26.2494 30.5031 30.5605 28.5448 35.0303C24.7992 43.8963 20.9814 53.0222 20.6061 62.7762C20.2761 68.777 20.6686 74.7959 21.7753 80.703C23.4641 89.504 24.7054 98.471 24.0269 107.452C22.5836 121.322 22.2732 135.415 24.294 149.248C25.9467 159.031 27.455 168.987 31.5109 178.127C37.5299 192.567 48.1099 204.372 56.6909 217.281C62.9119 226.089 68.9597 235.179 76.7757 242.673C75.1591 243.128 73.6363 243.806 72.0703 244.369C71.2042 244.615 70.6702 243.647 70.0423 243.294C65.4379 239.59 61.8294 234.854 58.1632 230.298C52.6927 223.454 48.2254 215.894 43.2674 208.682C38.4681 201.801 33.7338 194.841 29.7861 187.427C24.9579 178.373 21.9557 168.467 20.0793 158.417C17.1459 145.319 15.825 131.911 16.146 118.492C16.1893 112.47 17.1492 106.499 16.8677 100.485C16.8677 90.9118 14.0387 81.6416 13.4974 72.1186C12.9279 61.5407 14.8383 50.9761 19.0761 41.2682C22.0206 33.969 25.0662 26.677 29.1149 19.9192C30.1974 17.941 31.4893 15.9194 31.5831 13.6091C31.4965 11.8041 29.6273 11.0099 28.1695 10.5334C22.201 8.80066 15.9006 7.79712 9.7157 8.77179C5.39896 9.5798 1.34683 11.4368 -2.08401 14.1794C-5.98117 17.4861 -7.46786 22.6555 -8.52155 27.4712C-11.6393 43.492 -11.6754 59.9171 -10.7444 76.1617C-10.4776 80.4434 -9.9133 84.7014 -9.05557 88.9047C-7.51837 97.0776 -5.6059 105.222 -2.48816 112.947C1.1636 121.943 5.4505 130.736 7.8754 140.158C9.80954 147.378 10.2859 154.901 11.5994 162.251C14.2263 177.218 14.9336 192.574 19.1194 207.238C21.8113 216.515 26.4013 225.1 31.3882 233.323C35.3792 239.915 40.2651 245.907 44.3066 252.463C42.4757 253.078 40.6136 253.596 38.7279 254.015C33.0482 246.752 27.4767 239.359 22.9877 231.287C17.9719 222.623 13.8655 213.411 11.7726 203.621C8.66925 190.336 7.8826 176.662 5.27728 163.283C3.89163 156.259 3.25653 149.082 1.30795 142.173C-2.06235 130.116 -8.27615 119.069 -11.6826 107.034C-14.8134 95.2354 -16.6501 83.1309 -17.1602 70.9345C-17.6366 62.2708 -18.3582 53.5348 -17.7953 44.8348C-17.2108 38.1276 -16.7489 31.3699 -15.291 24.7781C-14.0642 19.2478 -12.0146 13.6307 -7.85037 9.61649L-7.7926 9.60928ZM84.8659 18.2731C93.2593 16.627 101.855 18.6846 109.707 21.688C122.538 26.6409 134.432 33.608 146.766 39.6366C154.964 43.6147 163.704 46.8564 172.833 47.6361C183.089 49.0296 193.503 47.3257 203.405 44.611C218.762 40.2791 233.644 34.1856 249.355 31.1677C248.943 33.5864 248.308 35.9617 248.02 38.3875C231.045 40.8712 214.822 46.7698 198.107 50.3219C186.842 52.6539 175.136 53.2676 163.805 51.0945C148.26 48.257 134.461 40.1925 120.272 33.7019C113.149 30.4674 105.932 27.1751 98.2679 25.4207C94.7887 24.6567 91.2111 24.4448 87.6661 24.7926C82.7261 25.3715 78.1766 27.7642 74.8993 31.507C71.3413 35.5501 69.1979 40.6474 67.7834 45.7951C65.9142 52.4373 66.0874 59.4189 66.5204 66.2489C67.805 80.3997 70.3959 94.4062 71.2692 108.608C72.1785 119.242 71.9908 129.949 73.2033 140.563C75.289 159.233 84.5339 176.077 94.4645 191.672C101.537 202.502 108.494 213.418 114.044 225.121C112.384 226.616 110.226 227.338 108.415 228.609C104.02 220.934 99.6679 213.223 94.7748 205.844C86.3743 193.123 78.0459 180.127 72.8425 165.702C69.213 155.765 67.2831 145.286 67.1339 134.707C66.6431 123.488 66.7513 112.232 65.5389 101.056C64.211 86.3272 60.7613 71.8226 60.321 57.0147C60.6674 47.5351 62.6666 37.81 67.9999 29.8176C71.882 23.9069 77.9416 19.7704 84.8587 18.3092L84.8659 18.2731ZM2.97507 22.6772C-0.833771 26.4656 -3.25436 31.4283 -3.89545 36.7631C-4.79758 45.0515 -3.40472 53.3687 -3.36142 61.6426C-3.17377 73.6203 -4.52335 86.0168 -0.359161 97.518C1.32239 101.641 2.62146 106.463 6.85782 108.774C7.30841 107.607 8.0545 106.577 9.02289 105.785C12.4149 102.94 11.5705 98.0089 11.6354 94.0958C11.8014 86.9843 9.59302 80.1471 9.02289 73.115C8.26511 67.6351 8.04861 62.0108 9.22498 56.5815C11.0003 46.5893 15.8357 37.1818 15.5326 26.843C15.5326 24.1212 14.0892 21.1827 11.4117 20.2585C8.43832 19.1611 5.1474 20.5473 3.01117 22.6772H2.97507ZM82.9679 36.0627C78.5222 40.2142 76.7108 46.3654 76.0107 52.2424C75.3973 58.8341 74.9065 65.4763 75.4622 72.097C76.2489 78.667 77.6273 85.1504 78.4212 91.7133C79.7996 103.077 81.575 114.492 80.6584 125.979C80.3048 134.101 81.8276 142.173 83.9133 149.992C85.566 156.266 87.262 162.641 90.6467 168.243C92.6317 171.559 95.0598 174.588 97.8637 177.247C102.058 181.43 105.736 186.101 108.819 191.159C113.546 198.798 115.314 207.953 120.676 215.252C121.781 216.609 122.647 218.378 124.191 219.273C125.808 218.377 127.372 217.389 128.875 216.313C127.208 213.721 125.353 211.259 123.953 208.494C121.239 203.44 119.623 197.917 117.054 192.805C113.272 185.051 107.715 178.366 101.667 172.25C96.9038 167.579 93.8943 161.421 92.1984 155.024C90.3796 148.719 88.9884 142.298 88.0342 135.805C87.0527 128.311 88.1497 120.766 87.7455 113.243C87.2259 105.113 86.1217 97.0415 85.0897 88.9697C83.9855 80.2698 81.6183 71.6421 82.2029 62.8339C82.6215 57.2746 82.5349 51.5493 84.469 46.2283C85.5948 43.1165 87.7816 40.1059 91.0653 39.059C94.7965 37.8244 98.7442 39.1817 102.1 40.8712C106.477 43.1512 110.733 45.6549 114.852 48.3726C120.128 51.8958 125.382 55.5924 131.257 58.0399C140.942 62.1262 151.282 64.4442 161.784 64.8843C172.682 65.4764 183.789 67.3535 194.578 64.8266C203.542 62.5956 211.762 57.9822 220.891 56.3433C228.729 54.5744 236.768 54.1051 244.707 53.2171C245.227 51.2822 245.862 49.3906 246.36 47.4412C243.677 47.0723 240.961 47.0021 238.262 47.2318C230.495 47.6541 222.788 48.8439 215.255 50.784C206.226 53.0583 197.934 57.8739 188.603 59.0002C179.156 59.8882 169.73 58.3793 160.319 57.7006C151.56 57.0107 142.955 54.9951 134.8 51.7226C126.724 48.4953 119.991 42.8638 112.485 38.6114C107.397 35.7234 102.244 32.4745 96.3265 31.7669C93.9166 31.4428 91.4647 31.6637 89.1515 32.4134C86.8383 33.1631 84.7227 34.4225 82.9607 36.0988L82.9679 36.0627ZM92.8984 50.0476C89.5281 53.347 88.3373 58.1049 87.5507 62.5956C86.2227 69.57 86.5619 76.7321 87.4207 83.7426C88.3589 91.6266 89.2177 99.5612 91.3467 107.229C94.1614 117.531 97.3152 127.942 97.3657 138.722C97.474 145.089 98.3039 151.551 100.794 157.493C103.356 163.637 107.239 169.095 110.984 174.561C115.372 180.857 119.688 187.203 123.599 193.809C127.331 199.989 130.535 206.473 133.775 212.927C135.565 211.909 137.203 210.653 138.935 209.526C133.777 197.541 127.423 186.107 119.969 175.398C115.552 168.763 110.587 162.403 107.181 155.183C104.655 149.746 103.969 143.696 103.854 137.761C103.76 127.112 100.794 116.781 97.9286 106.608C95.6841 98.666 94.7099 90.4498 93.6562 82.2986C92.6314 74.53 92.5809 66.4799 94.8542 58.9207C95.6697 56.7115 96.7162 53.9968 99.2493 53.3326C102.093 52.7695 104.886 54.0546 107.332 55.3758C111.338 57.6934 115.148 60.3286 119.168 62.5956C126.573 66.8626 133.927 71.5338 142.262 73.6925C151.262 76.4 160.63 77.4252 169.976 78.0244C176.666 78.6959 183.5 79.3601 190.133 77.8656C200.041 75.6996 209.236 71.2161 219 68.4798C226.722 66.516 234.372 64.2995 242.152 62.5451C242.816 60.1265 243.747 57.7872 244.534 55.4047C237.923 57.0941 231.219 58.3504 224.637 60.1265C218.362 61.4621 212.192 63.25 206.176 65.4763C197.617 68.3643 189.028 72.2053 179.798 71.8731C174.573 71.6349 169.369 71.0862 164.144 70.8046C157.324 70.5374 150.605 69.1296 144.031 67.3535C140.007 66.2512 136.131 64.6708 132.483 62.6462C126.053 59.1301 119.709 55.4263 113.525 51.4915C109.591 49.0296 105.225 46.6976 100.447 46.8564C99.0397 46.8344 97.6429 47.1068 96.3467 47.6563C95.0504 48.2059 93.8832 49.0204 92.92 50.0476H92.8984ZM105.586 69.2596C104.298 69.6902 103.154 70.4693 102.281 71.5104C101.409 72.5516 100.841 73.8141 100.642 75.1581C99.5452 81.1939 101.119 87.2803 102.605 93.1067C104.806 100.832 106.632 108.665 108.256 116.535C110.219 125.062 111.258 133.762 112.904 142.346C114.419 149.652 115.509 157.147 118.576 164.005C121.644 170.864 126.053 177.312 130.124 183.766C134.903 191.101 139.297 198.68 143.287 206.473C144.824 205.048 146.44 203.712 148.13 202.473C144.276 193.527 139.166 185.225 133.992 177.008C130.917 172.084 127.706 167.218 125.252 161.948C122.618 156.381 121.644 150.244 120.446 144.266C118.62 135.126 117.559 125.856 115.451 116.773C113.568 108.109 111.46 99.4962 108.74 91.049C107.376 85.9301 105.456 80.4503 107.044 75.1654C110.392 75.0354 113.539 76.2411 116.7 77.2591C127.229 80.9052 137.579 85.1576 148.455 87.8578C160.391 91.0418 172.992 92.0598 185.261 89.7422C194.766 87.9733 204.22 85.8507 213.674 83.8003C221.288 81.7787 229.133 80.9124 236.942 79.8799C237.531 77.8393 238.254 75.8398 239.107 73.8947C234.986 73.8194 230.866 74.0777 226.787 74.6672C218.271 75.6635 210.109 78.3782 201.723 80.0243C190.544 82.3708 179.242 85.3598 167.724 84.4573C157.151 83.8581 146.953 80.7174 136.994 77.3169C129.503 74.8044 122.199 71.7215 114.549 69.6927C111.663 68.9708 108.566 68.3787 105.651 69.2523L105.586 69.2596ZM-210.438 81.1723C-217.958 82.4935 -225.954 85.0421 -230.854 91.28C-232.5 93.1788 -232.356 96.5361 -229.967 97.7779C-228.487 99.2218 -226.445 98.5504 -224.648 98.305C-223.356 98.2328 -222.829 96.7815 -221.653 96.4205C-214.912 94.2546 -207.71 95.1426 -200.839 93.7276C-197.685 93.0561 -194.438 92.2836 -191.688 90.5003C-189.718 89.3163 -188.621 86.4789 -190.006 84.4717C-191.63 82.1108 -194.604 81.1506 -197.31 80.7896C-201.683 80.299 -206.103 80.4352 -210.438 81.1939V81.1723ZM227.444 87.1575C217.983 89.2729 208.363 90.5147 198.851 92.3414C191.879 93.5904 185.066 95.6625 178.001 96.3411C167.681 97.5324 157.072 96.9188 147.17 93.6193C142.32 92.2331 137.514 89.9588 132.368 90.2693C130.338 90.4315 128.389 91.1362 126.725 92.3097C125.06 93.4833 123.742 95.0826 122.907 96.9404C120.063 103.243 120.02 110.535 121.983 117.098C124.631 126.044 128.478 134.556 131.812 143.263C133.681 148.382 135.248 153.602 137.211 158.692C140.299 166.792 143.165 174.987 145.647 183.304C147.278 188.842 149.739 194.069 151.839 199.433C152.945 198.947 153.887 198.153 154.553 197.144C153.348 191.224 152.337 185.246 150.735 179.405C148.022 168.402 143.655 157.919 140.213 147.147C137.867 139.379 134.439 131.985 131.625 124.419C129.835 119.632 127.886 114.81 127.359 109.683C127.085 106.074 127.439 102.283 129.185 99.0558C130.434 96.7383 133.436 96.3628 135.767 96.9837C141.339 98.3194 146.65 100.594 152.251 101.835C165.588 104.882 179.545 103.756 192.731 100.529C205.447 97.5252 218.553 96.3412 231.146 92.7529C233.312 91.2512 233.174 88.1322 234.401 85.959C232.056 86.2189 229.746 86.681 227.444 87.1575ZM-224.835 107.741C-235.084 112.387 -244.786 118.158 -253.761 124.946C-253.266 126.659 -252.376 128.232 -251.163 129.538C-240.605 122.318 -229.512 115.705 -217.51 111.127C-208.352 107.64 -198.227 105.676 -188.541 107.965C-177.24 110.579 -167.244 116.744 -156.635 121.199C-144.857 126.253 -132.098 130.433 -119.107 128.83C-106.723 127.538 -95.1972 122.542 -83.2315 119.481C-77.2198 118.037 -70.8616 117.604 -64.8066 119.084C-53.8729 121.466 -44.9022 130.332 -41.4453 140.859C-38.3492 150.244 -38.075 160.244 -37.7358 170.034C-37.4904 184.82 -36.213 199.635 -32.9726 214.075C-30.0858 226.883 -24.9618 239.048 -19.0439 250.723C-17.2902 253.799 -15.8395 257.105 -13.6384 259.885C-11.5122 259.992 -9.38141 259.965 -7.25858 259.805C-13.4999 249.621 -18.6202 238.791 -22.5297 227.504C-26.5639 216.111 -28.3898 204.061 -29.2847 192.047C-30.4106 178.77 -29.4291 165.392 -30.7859 152.136C-31.8251 142.028 -34.8129 131.653 -41.8134 123.979C-48.0831 116.751 -56.8436 112.15 -66.351 111.091C-74.4268 109.951 -82.5603 111.712 -90.2103 114.246C-100.971 117.77 -111.674 122.188 -123.105 122.91C-134.652 123.697 -145.752 119.452 -156.173 114.968C-167.915 109.857 -179.203 102.983 -192.128 101.474C-203.394 100.11 -214.623 103.243 -224.85 107.741H-224.835ZM206.342 108.543C194.015 111.618 181.176 111.828 168.554 111.265C160.976 110.543 153.239 109.423 145.69 110.961C142.602 111.561 139.729 113.705 138.849 116.802C137.593 121.091 138.582 125.646 140.112 129.733C144.557 141.241 150.215 152.454 151.875 164.828C153.42 174.525 155.549 184.199 159.208 193.34C160.485 192.365 161.734 191.347 162.925 190.264C163.516 189.607 164.693 189.058 164.173 187.99C162.888 183.311 161.654 178.604 160.745 173.853C159.446 167.55 158.876 161.103 157.266 154.865C155.202 146.584 151.493 138.844 147.949 131.141C146.362 127.531 144.29 123.762 144.622 119.661C144.612 119.06 144.822 118.476 145.211 118.017C145.6 117.559 146.142 117.258 146.737 117.17C151.414 116.282 156.22 116.672 160.947 116.968C174.452 118.638 188.123 118.432 201.571 116.355C209.149 115.322 216.287 112.434 223.071 109.012C226.167 107.785 226.52 104.016 228.123 101.467C220.826 103.684 213.689 106.326 206.371 108.543H206.342ZM-208.706 116.484C-218.658 119.986 -227.123 126.448 -236.051 131.863C-239.262 134.065 -242.964 135.783 -245.548 138.743C-244.733 140.064 -243.737 141.27 -242.936 142.62C-237.162 139.01 -231.121 135.805 -225.377 132.13C-219.632 128.455 -213.743 124.715 -207.183 122.542C-197.324 119.048 -186.513 120.751 -176.872 124.166C-169.438 126.556 -163.066 131.213 -156.015 134.462C-144.958 139.862 -132.617 142.945 -120.269 142.187C-109.768 141.415 -99.8882 137.516 -89.7412 135.054C-83.2459 133.733 -76.3826 132.888 -69.8657 134.585C-65.2613 135.675 -60.794 137.92 -57.7773 141.653C-53.9812 146.151 -52.5594 152.064 -51.7223 157.753C-50.7913 164.893 -50.1995 172.063 -49.8098 179.254C-49.42 186.64 -48.3664 193.975 -47.3271 201.296C-46.1363 209.685 -45.8837 218.183 -44.5703 226.565C-43.6575 231.87 -42.3426 237.098 -40.637 242.203C-38.7895 248.066 -37.1151 253.986 -35.1016 259.791C-32.9365 259.863 -30.8075 259.856 -28.6424 259.834C-30.5044 251.517 -32.9365 243.337 -35.2965 235.15C-38.9555 222.724 -38.5224 209.635 -40.6514 196.942C-42.7588 184.38 -42.8165 171.608 -44.4909 158.995C-45.1548 153.356 -46.2807 147.681 -48.821 142.563C-51.7964 136.618 -56.8356 131.962 -62.9951 129.466C-71.3091 125.957 -80.6478 126.015 -89.3515 127.877C-102.508 130.693 -115.217 137.112 -128.965 135.913C-141.003 135.191 -152.37 130.404 -162.56 124.202C-170.539 119.326 -179.386 116.043 -188.614 114.535C-195.333 113.727 -202.326 114.138 -208.706 116.492V116.484ZM182.627 125.062C176.529 125.603 169.947 125.856 164.722 129.451C162.989 130.587 161.564 132.134 160.573 133.954C159.582 135.775 159.056 137.811 159.042 139.884C158.948 146.447 161.878 152.49 163.372 158.764C165.364 167.225 167.356 175.694 169.146 184.199C170.445 183.131 172.169 182.149 172.603 180.402C172.234 172.008 170.971 163.677 168.835 155.551C167.666 150.901 165.775 146.425 165.169 141.653C164.815 139.003 165.609 135.971 167.976 134.476C172.307 131.588 177.705 131.726 182.685 131.401C192.189 130.816 201.759 130.31 211.105 128.339C212.156 128.166 213.18 127.855 214.151 127.415C215.904 125.038 217.461 122.522 218.806 119.892C207.042 123.307 194.744 123.777 182.634 125.062H182.627ZM-210.488 132.462C-220.917 135.913 -231.562 139.537 -240.453 146.18C-239.385 147.624 -238.389 149.068 -237.342 150.512C-230.616 147.414 -223.969 144.079 -216.955 141.674C-211.527 139.826 -206.18 137.631 -200.478 136.765C-194.777 135.899 -188.931 135.206 -183.403 137.068C-178.351 138.671 -174.021 141.855 -169.366 144.346C-159.381 149.802 -148.419 153.237 -137.106 154.454C-127.811 155.37 -118.537 153.948 -109.278 153.255C-103.509 152.747 -97.784 151.833 -92.1444 150.519C-86.3709 149.19 -80.1282 148.887 -74.4629 150.93C-71.4029 152.028 -69.2017 154.685 -67.8738 157.573C-65.4633 162.684 -64.0416 168.2 -62.5261 173.629C-60.4259 181.066 -60.0001 188.834 -59.4155 196.495C-58.9609 202.415 -58.2031 208.314 -57.2144 214.162C-55.9514 221.656 -55.4101 229.258 -53.7647 236.688C-52.5522 243.301 -50.3438 249.683 -48.9798 256.253C-48.7417 256.975 -48.7922 257.863 -48.1499 258.383C-45.9848 259.105 -43.7042 258.997 -41.4597 259.177C-43.2712 250.961 -46.0064 242.976 -47.4931 234.68C-48.8571 228.269 -49.2613 221.685 -50.3222 215.245C-51.5058 207.938 -52.5666 200.596 -53.043 193.202C-53.642 186.04 -54.2121 178.821 -56.0957 171.853C-57.7556 165.673 -59.3867 159.414 -62.2518 153.667C-64.3839 149.312 -68.1149 145.949 -72.6659 144.281C-79.2838 141.956 -86.5513 142.021 -93.3425 143.559C-98.971 144.905 -104.694 145.823 -110.461 146.302C-118.551 146.909 -126.649 148.194 -134.782 147.631C-145.653 146.758 -156.234 143.69 -165.887 138.613C-170.218 136.397 -174.281 133.559 -178.878 131.791C-183.456 129.946 -188.382 129.123 -193.312 129.379C-199.149 129.724 -204.923 130.771 -210.51 132.498L-210.488 132.462ZM180.671 142.021C177.864 143.01 175.222 145.082 174.529 148.107C173.808 151.255 174.436 154.497 174.926 157.63C175.769 163.263 177.206 168.791 179.213 174.12C180.903 172.44 182.505 170.674 184.013 168.828C182.815 163.399 181.537 157.999 180.628 152.504C180.447 150.916 180.072 148.634 182.006 147.977C189.317 145.055 196.84 142.692 204.509 140.909C207.446 140.187 208.37 136.888 209.727 134.548C199.623 134.895 190.089 138.649 180.671 142.021ZM-216.572 146.086C-207.473 143.067 -197.598 143.379 -188.707 146.967C-181.952 149.674 -175.753 153.609 -168.882 156.042C-162.676 158.396 -156 158.778 -149.498 159.71C-143.623 160.482 -137.792 161.659 -131.874 162.128C-124.917 162.641 -117.952 161.883 -110.988 161.666C-105.359 161.457 -99.8233 160.331 -94.2013 159.962C-89.2288 159.775 -83.8738 159.609 -79.4137 162.186C-74.8237 164.843 -72.0741 169.695 -70.407 174.575C-68.7143 179.533 -67.4657 184.631 -66.6758 189.809C-64.7056 204.61 -66.25 219.685 -63.7385 234.442C-62.2446 242.102 -59.9496 249.604 -58.6 257.286C-60.8805 256.821 -63.1834 256.474 -65.4994 256.246C-67.2026 249.748 -69.0285 243.25 -70.407 236.673C-73.3804 221.966 -71.6122 206.891 -73.07 192.054C-73.8016 186.534 -75.1028 181.105 -76.9528 175.853C-78.3961 172.121 -80.6623 167.984 -84.8914 167.016C-90.3113 165.832 -95.8901 166.72 -101.288 167.507C-107.784 168.547 -114.358 168.561 -120.897 168.951C-127.39 169.296 -133.901 168.964 -140.325 167.962C-147.123 166.836 -153.965 166.106 -160.785 165.197C-167.923 164.251 -174.663 161.543 -181.093 158.417C-185.698 156.201 -190.187 153.616 -195.167 152.317C-201.104 150.642 -207.391 150.662 -213.317 152.374C-219.25 154.129 -224.799 156.901 -230.385 159.536C-231.735 157.832 -233.027 156.078 -234.29 154.324C-228.641 151.062 -222.712 148.315 -216.572 146.115V146.086ZM189.743 149.205C189.165 152.974 188.732 157.147 190.905 160.533C192.565 159.154 193.905 157.429 194.831 155.479C194.109 151.948 194.275 148.259 192.998 144.851C191.121 145.501 190.111 147.335 189.743 149.183V149.205ZM-212.242 160.302C-204.765 158.518 -196.906 159.392 -189.624 161.623C-183.785 163.24 -178.337 165.955 -172.527 167.724C-162.575 170.814 -152.752 174.763 -142.295 175.81C-134.812 176.608 -127.261 176.542 -119.793 175.615C-113.297 174.893 -106.557 174.626 -100.148 176.337C-95.3343 177.622 -90.5351 180.033 -87.5689 184.185C-84.8925 188.099 -83.0522 192.523 -82.1634 197.181C-80.8499 203.722 -79.7385 210.306 -78.4755 216.862C-77.1765 223.555 -77.2559 230.413 -76.3104 237.157C-75.697 243.084 -74.2536 248.875 -73.0556 254.694C-75.1365 254.582 -77.1859 254.136 -79.1251 253.372C-80.7358 247.698 -81.8894 241.904 -82.5748 236.045C-83.3831 229.497 -83.7006 222.854 -85.1729 216.4C-86.7029 209.57 -87.1431 202.53 -88.7813 195.729C-90.1526 191.347 -92.3898 186.632 -96.72 184.56C-102.154 181.723 -108.484 181.427 -114.481 181.838C-119.533 182.264 -124.534 182.957 -129.586 183.102C-136.775 183.318 -143.963 182.656 -150.992 181.131C-158.714 179.391 -166.097 176.532 -173.581 174.041C-181.866 171.543 -189.458 166.929 -198.169 165.818C-206.165 164.662 -214.147 166.749 -221.682 169.233C-223.067 168.684 -223.796 167.023 -224.792 165.948C-220.715 163.832 -216.745 161.284 -212.191 160.302H-212.242ZM-218.441 173.254C-207.248 170.142 -195.253 170.944 -184.153 174.077C-178.992 175.654 -174.118 178.053 -169.72 181.181C-165.202 184.199 -160.734 187.607 -155.343 188.899C-149.389 190.3 -143.241 190.712 -137.135 190.986C-131.361 191.08 -125.588 190.394 -119.814 190.603C-114.762 190.827 -109.631 192.596 -105.893 196.126C-101.44 200.256 -98.6758 205.787 -96.0344 211.165C-93.8574 215.488 -92.1632 220.038 -90.9825 224.731C-88.8607 233.872 -86.2482 242.897 -84.8553 252.167C-86.7822 251.654 -88.6514 250.976 -90.5351 250.355C-91.6465 246.189 -93.5085 242.297 -94.7931 238.196C-97.052 231.453 -98.0335 224.291 -101.108 217.822C-103.699 212.364 -106.088 206.624 -110.194 202.09C-113.16 198.726 -117.779 197.419 -122.145 197.578C-129.218 197.751 -136.312 198.386 -143.378 197.657C-150.183 197.036 -157.234 196.451 -163.441 193.325C-170.658 189.715 -176.648 183.939 -184.37 181.304C-193.752 178.236 -203.856 176.9 -213.656 178.33C-215.266 176.604 -216.882 174.893 -218.521 173.218L-218.441 173.254ZM-203.199 188.481C-197.996 186.315 -192.143 186.611 -186.744 187.759C-176.381 190.574 -168.615 198.69 -158.699 202.516C-148.336 206.588 -136.846 205.527 -126.317 209.014C-119.627 210.913 -114.048 215.685 -110.245 221.403C-105.048 229.612 -103.598 239.453 -99.0872 248.008C-101.656 247.25 -104.363 246.925 -106.73 245.618C-107.805 245.308 -108.007 244.102 -108.419 243.229C-110.62 237.453 -112.323 231.431 -115.506 226.089C-118.349 221.446 -122.687 217.569 -127.955 215.981C-137.287 213.014 -147.282 213.331 -156.657 210.559C-163.152 208.776 -168.839 205.173 -174.403 201.549C-178.892 198.74 -183.266 195.513 -188.426 194.062C-191.659 193.109 -195.109 193.405 -198.356 192.618C-200.153 191.491 -201.611 189.917 -203.199 188.531V188.481ZM27.3323 211.18C28.054 217.591 32.1172 222.862 35.1988 228.32C39.7455 236.067 43.1375 244.759 49.8853 250.961C52.0385 250.812 54.1549 250.324 56.1569 249.517C54.9661 248.073 53.7608 246.629 52.5484 245.185C47.4388 239.337 43.2096 232.818 38.9516 226.349C36.3824 222.392 33.4307 218.551 32.0739 213.967C34.2823 216.27 35.971 219.021 38.0351 221.446C45.7572 230.457 52.8082 240.218 62.2696 247.546C64.4359 247.271 66.5286 246.579 68.4329 245.51C56.1641 234.94 46.017 222.262 35.704 209.866C34.1596 208.277 32.146 206.386 29.75 206.898C28.8988 207.215 28.189 207.825 27.7494 208.62C27.3098 209.415 27.1695 210.341 27.354 211.23L27.3323 211.18ZM-166.508 216.79C-157.999 216.927 -149.7 219.367 -141.184 219.497C-136.991 219.569 -132.646 219.591 -128.713 221.295C-123.799 223.403 -119.754 227.13 -117.252 231.857C-115.356 235.451 -113.943 239.279 -113.052 243.243C-115.181 242.889 -117.029 241.727 -119.078 241.164C-121.128 240.601 -121.561 238.11 -122.477 236.435C-124.325 231.908 -128.056 228.081 -132.776 226.652C-137.424 225.417 -142.288 226.226 -146.993 225.497C-149.923 225.027 -153.135 225.129 -155.654 223.331C-159.327 221.237 -162.993 219.122 -166.522 216.79H-166.508ZM-222.988 91.6988C-219.726 90.7747 -216.42 89.8505 -213 89.6845C-206.923 89.1502 -200.406 89.5906 -194.827 86.7243C-198.126 85.8724 -201.568 86.0529 -204.931 86.1901C-211.224 86.7749 -217.619 88.2549 -222.973 91.6988H-222.988ZM6.81451 27.1174C3.4155 30.0093 1.29623 34.1275 0.918243 38.5753C0.297577 46.0767 1.22858 53.5853 1.47397 61.0867C1.61829 67.4835 2.26782 73.8441 2.75858 80.212C3.34314 87.0853 4.09372 93.9875 5.84021 100.688C6.09314 95.0655 5.71793 89.4329 4.72159 83.8942C3.80051 78.6236 3.16687 73.3067 2.82352 67.9672C2.3472 60.4802 4.00711 53.0727 5.79691 45.8528C7.63 39.4272 9.4054 32.7994 9.00125 26.0561C8.2189 26.287 7.48007 26.6457 6.81451 27.1174Z" fill="#024430"/>
</g>
<defs>
<clipPath id="clip0_276_18708">
<rect width="544" height="544" fill="white" transform="translate(-291 -284)"/>
</clipPath>
</defs>
</svg>
