<svg width="16" height="16" viewBox="0 0 16 16" fill="none" xmlns="http://www.w3.org/2000/svg">
<g clip-path="url(#clip0_362_10233)">
<path d="M11.6138 0H4.38616C1.96762 0 0 1.96763 0 4.38619V11.6138C0 14.0324 1.96762 16 4.38616 16H11.6138C14.0324 16 16 14.0324 16 11.6138V4.38619C16 1.96763 14.0324 0 11.6138 0ZM15.0551 11.6138C15.0551 13.5114 13.5114 15.0551 11.6138 15.0551H4.38616C2.48862 15.0551 0.944875 13.5114 0.944875 11.6138V4.38619C0.944875 2.48863 2.48862 0.944875 4.38616 0.944875H11.6138C13.5114 0.944875 15.0551 2.48863 15.0551 4.38619V11.6138Z" fill="#024430"/>
<path d="M7.9998 3.61157C5.57998 3.61157 3.61133 5.58023 3.61133 8.00004C3.61133 10.4199 5.57995 12.3885 7.9998 12.3885C10.4196 12.3885 12.3883 10.4198 12.3883 8.00001C12.3883 5.5802 10.4196 3.61157 7.9998 3.61157ZM7.9998 11.4437C6.10098 11.4437 4.55617 9.89882 4.55617 8.00001C4.55617 6.1012 6.10098 4.55638 7.9998 4.55638C9.89864 4.55638 11.4435 6.10123 11.4435 8.00004C11.4435 9.89885 9.89864 11.4437 7.9998 11.4437Z" fill="#024430"/>
<path d="M12.6507 2.01575C11.9155 2.01575 11.3174 2.6139 11.3174 3.34909C11.3174 4.08428 11.9155 4.6824 12.6507 4.6824C13.3859 4.6824 13.984 4.08425 13.984 3.34906C13.984 2.61387 13.3859 2.01575 12.6507 2.01575ZM12.6507 3.7375C12.4365 3.7375 12.2623 3.56325 12.2623 3.34906C12.2623 3.13487 12.4365 2.96062 12.6507 2.96062C12.8649 2.96062 13.0391 3.1349 13.0391 3.34906C13.0391 3.56322 12.8649 3.7375 12.6507 3.7375Z" fill="#024430"/>
</g>
<defs>
<clipPath id="clip0_362_10233">
<rect width="16" height="16" fill="white"/>
</clipPath>
</defs>
</svg>
