<svg width="16" height="14" viewBox="0 0 16 14" fill="none" xmlns="http://www.w3.org/2000/svg">
<path d="M15.9293 2.42311C15.8347 2.26924 15.6616 2.18202 15.4814 2.19764L14.6836 2.26714L15.4462 0.729859C15.537 0.546765 15.5012 0.326171 15.357 0.181264C15.2128 0.0363578 14.9925 -0.000579793 14.8089 0.0892954L12.7906 1.07777C11.5436 0.419452 9.9857 0.614859 8.9137 1.59139C8.01901 2.40639 7.54873 3.65974 7.63642 4.90962C5.298 4.67524 3.31863 3.33677 2.14819 1.17408C2.07053 1.03061 1.92494 0.936766 1.76222 0.925234C1.59918 0.913891 1.44212 0.986141 1.34506 1.1173C0.61912 2.09799 0.568183 3.44261 1.13728 4.54884C0.980402 4.50921 0.813464 4.45559 0.628339 4.39374C0.469745 4.34071 0.294901 4.37468 0.167619 4.48318C0.0403378 4.59168 -0.0208498 4.7589 0.00636902 4.92393C0.231557 6.28918 1.02768 7.33843 2.28531 7.9595C2.12156 8.01653 1.95447 8.06284 1.78456 8.09825C1.61575 8.13344 1.47906 8.25694 1.42703 8.42134C1.375 8.58572 1.41568 8.76541 1.5335 8.89131C2.43916 9.85938 3.74741 10.3358 4.67666 10.5644C3.6201 11.3918 2.47956 11.5303 0.822246 11.4734C0.630401 11.4676 0.453651 11.5756 0.372995 11.7495C0.29237 11.9235 0.323651 12.1288 0.452495 12.2708C1.14337 13.0324 3.66044 13.891 6.30644 13.9554C6.4111 13.9579 6.51785 13.9593 6.62685 13.9593C8.4847 13.9593 10.94 13.561 12.7025 11.7986C14.0364 10.4647 14.8708 8.92903 15.1823 7.23447C15.434 5.86581 15.2749 4.7698 15.1985 4.24305C15.1929 4.20433 15.1869 4.16324 15.182 4.1273L15.9283 2.92449C16.0235 2.77105 16.0239 2.57699 15.9293 2.42311ZM14.2541 4.38005C14.3957 5.35581 14.8265 8.32506 12.0277 11.1238C10.4008 12.7507 8.0312 13.0428 6.32963 13.0015C4.87772 12.9662 3.57903 12.6885 2.63778 12.3718C3.01994 12.3249 3.3605 12.2526 3.68197 12.1527C4.56819 11.8772 5.31688 11.3816 6.03807 10.5928C6.15829 10.4614 6.19523 10.2739 6.13394 10.1067C6.07266 9.93944 5.92329 9.82025 5.7466 9.79763C5.29163 9.73931 3.92456 9.50919 2.84806 8.76662C3.15828 8.63975 3.45747 8.48097 3.74316 8.29147C3.89988 8.18747 3.98094 8.00115 3.95006 7.81562C3.91922 7.63012 3.78231 7.47997 3.60038 7.43228C2.71928 7.20128 1.6559 6.6844 1.16556 5.53056C1.47868 5.58543 1.81915 5.59871 2.18228 5.51731C2.35059 5.47962 2.48547 5.35399 2.53497 5.18874C2.5845 5.02349 2.541 4.84437 2.42119 4.7203C1.81106 4.08837 1.5829 3.17768 1.77865 2.39839C2.41972 3.3353 3.23188 4.1238 4.16238 4.70677C5.35272 5.45256 6.74204 5.86471 8.1802 5.89856C8.32654 5.90165 8.46692 5.83778 8.56011 5.7244C8.65323 5.61106 8.68904 5.46115 8.6572 5.31793C8.40976 4.20558 8.76267 3.01977 9.55629 2.29686C10.3794 1.54702 11.596 1.43327 12.5146 2.02042C12.6549 2.11008 12.8319 2.12011 12.9814 2.04686L13.9671 1.56411L13.4512 2.60414C13.3745 2.75868 13.3872 2.94255 13.4845 3.08502C13.5816 3.22749 13.7479 3.30658 13.92 3.29149L14.6151 3.23096L14.2949 3.74705C14.1874 3.92027 14.2097 4.07396 14.2541 4.38005Z" fill="#024430"/>
</svg>
